<?xml version="1.0" encoding="UTF-8" standalone="no"?>
<!-- Created with Inkscape (http://www.inkscape.org/) -->

<svg
   xmlns:dc="http://purl.org/dc/elements/1.1/"
   xmlns:cc="http://creativecommons.org/ns#"
   xmlns:rdf="http://www.w3.org/1999/02/22-rdf-syntax-ns#"
   xmlns:svg="http://www.w3.org/2000/svg"
   xmlns="http://www.w3.org/2000/svg"
   xmlns:sodipodi="http://sodipodi.sourceforge.net/DTD/sodipodi-0.dtd"
   xmlns:inkscape="http://www.inkscape.org/namespaces/inkscape"
   inkscape:version="0.91 r13725"
   version="1.1"
   id="svg2"
   viewBox="0 0 1488.189 1052.3622"
   height="297mm"
   width="420mm"
   sodipodi:docname="teslaschublade_jumperwires.svg">
  <sodipodi:namedview
     inkscape:window-maximized="1"
     inkscape:window-y="35"
     inkscape:window-x="0"
     inkscape:window-height="1368"
     inkscape:window-width="2560"
     showgrid="false"
     inkscape:current-layer="layer1"
     inkscape:document-units="px"
     inkscape:cy="788.58136"
     inkscape:cx="-67.174267"
     inkscape:zoom="1.4"
     inkscape:pageshadow="2"
     inkscape:pageopacity="0.0"
     borderopacity="1.0"
     bordercolor="#666666"
     pagecolor="#ffffff"
     id="base" />
  <defs
     id="defs4" />
  <metadata
     id="metadata7">
    <rdf:RDF>
      <cc:Work
         rdf:about="">
        <dc:format>image/svg+xml</dc:format>
        <dc:type
           rdf:resource="http://purl.org/dc/dcmitype/StillImage" />
        <dc:title />
      </cc:Work>
    </rdf:RDF>
  </metadata>
  <g
     id="layer1"
     inkscape:groupmode="layer"
     inkscape:label="Layer 1"
     transform="translate(0,-1.6535434e-6)">
    <path
       id="path5663"
       inkscape:label="part"
       style="fill:none;stroke:#000000"
       d="m 322.44094,799.01575 31.81004,0 0,-14.17323 32.49213,0 0,14.17323 31.50886,0 0,-14.17323 32.49212,0 0,14.17323 31.50886,0 0,-14.17323 32.49213,0 0,14.17323 31.50886,0 0,-14.17323 32.49212,0 0,14.17323 31.50886,0 0,-14.17323 32.49213,0 0,14.17323 31.50886,0 0,-14.17323 32.49212,0 0,14.17323 31.50886,0 0,-14.17323 32.49213,0 0,14.17323 31.50885,0 0,-14.17323 32.49213,0 0,14.17323 31.50886,0 0,-14.17323 32.49212,0 0,14.17323 31.50886,0 0,-14.17323 32.49213,0 0,14.17323 31.50886,0 0,-14.17323 32.49217,0 0,14.17323 31.5088,0 0,-14.17323 32.4921,0 0,14.17323 31.5089,0 0,-14.17323 32.4921,0 0,14.17323 31.5089,0 0,-14.17323 32.4921,0 0,14.17323 31.5089,0 0,-14.17323 32.4921,0 0,14.17323 31.81,0"
       inkscape:connector-curvature="0" />
    <path
       id="path5665"
       inkscape:label="part"
       style="fill:none;stroke:#000000"
       d="m 1314.5669,799.01575 0,24.39567 -14.1732,0 0,31.2874 14.1732,0 0,38.87008 -14.1732,0 0,31.2874 14.1732,0 0,38.87008 -14.1732,0 0,31.2874 14.1732,0 0,38.87012 -14.1732,0 0,31.2874 14.1732,0 0,24.3956"
       inkscape:connector-curvature="0" />
    <path
       id="path5667"
       inkscape:label="part"
       style="fill:none;stroke:#000000"
       d="m 1314.5669,1089.5669 -31.81,0 -928.50592,0 -31.81004,0"
       inkscape:connector-curvature="0"
       sodipodi:nodetypes="cccc" />
    <path
       id="path5669"
       inkscape:label="part"
       style="fill:none;stroke:#000000"
       d="m 322.44094,1089.5669 0,-24.3956 14.17323,0 0,-31.2874 -14.17323,0 0,-38.87012 14.17323,0 0,-31.2874 -14.17323,0 0,-38.87008 14.17323,0 0,-31.2874 -14.17323,0 0,-38.87008 14.17323,0 0,-31.2874 -14.17323,0 0,-24.39567"
       inkscape:connector-curvature="0" />
    <path
       id="path5671"
       inkscape:label="part"
       style="fill:none;stroke:#000000"
       d="m 15.944882,478.6102 23.793307,0 0,-14.17323 32.492126,0 0,14.17323 37.665355,0 0,-14.17323 32.49213,0 0,14.17323 37.66535,0 0,-14.17323 32.49213,0 0,14.17323 37.66535,0 0,-14.17323 32.49213,0 0,14.17323 23.7933,0"
       inkscape:connector-curvature="0" />
    <path
       id="path5673"
       inkscape:label="part"
       style="fill:none;stroke:#000000"
       d="m 306.49606,478.6102 0,23.99578 14.17323,0 0,32.49213 -14.17323,0 0,37.86783 14.17323,0 0,32.49213 -14.17323,0 0,37.86783 14.17323,0 0,32.49212 -14.17323,0 0,37.86783 14.17323,0 0,32.49213 -14.17323,0 0,37.86783 14.17323,0 0,32.49212 -14.17323,0 0,37.86783 14.17323,0 0,32.49213 -14.17323,0 0,23.99578"
       inkscape:connector-curvature="0" />
    <path
       id="path5675"
       inkscape:label="part"
       style="fill:none;stroke:#000000"
       d="m 306.49606,910.89367 -23.7933,0 0,14.17323 -32.49213,0 0,-14.17323 -37.66535,0 0,14.17323 -32.49213,0 0,-14.17323 -37.66535,0 0,14.17323 -32.49213,0 0,-14.17323 -37.665355,0 0,14.17323 -32.492126,0 0,-14.17323 -23.793307,0"
       inkscape:connector-curvature="0" />
    <path
       id="path5677"
       inkscape:label="part"
       style="fill:none;stroke:#000000"
       d="m 15.944882,910.89367 0,-23.99578 0,-384.29191 0,-23.99578"
       inkscape:connector-curvature="0"
       sodipodi:nodetypes="cccc" />
    <path
       id="path5679"
       inkscape:label="part"
       style="fill:none;stroke:#000000"
       d="m 322.44094,322.44094 32.41241,0 0,14.17323 31.2874,0 0,-14.17323 32.71358,0 0,14.17323 31.2874,0 0,-14.17323 32.71358,0 0,14.17323 31.28741,0 0,-14.17323 32.71358,0 0,14.17323 31.2874,0 0,-14.17323 32.71358,0 0,14.17323 31.28741,0 0,-14.17323 32.71358,0 0,14.17323 31.2874,0 0,-14.17323 32.71358,0 0,14.17323 31.2874,0 0,-14.17323 32.71359,0 0,14.17323 31.2874,0 0,-14.17323 32.71358,0 0,14.17323 31.2874,0 0,-14.17323 32.71358,0 0,14.17323 31.28741,0 0,-14.17323 32.71358,0 0,14.17323 31.28741,0 0,-14.17323 32.7136,0 0,14.17323 31.2874,0 0,-14.17323 32.7136,0 0,14.17323 31.2874,0 0,-14.17323 32.7135,0 0,14.17323 31.2874,0 0,-14.17323 32.7136,0 0,14.17323 31.2874,0 0,-14.17323 32.4124,0"
       inkscape:connector-curvature="0" />
    <path
       id="path5681"
       inkscape:label="part"
       style="fill:none;stroke:#000000"
       d="m 1314.5669,322.44094 0,38.77138 -14.1732,0 0,31.2874 14.1732,0 0,39.07255 -14.1732,0 0,31.2874 14.1732,0 0,39.07256 -14.1732,0 0,31.2874 14.1732,0 0,39.07255 -14.1732,0 0,31.2874 14.1732,0 0,39.07256 -14.1732,0 0,31.2874 14.1732,0 0,39.07255 -14.1732,0 0,31.2874 14.1732,0 0,38.77138"
       inkscape:connector-curvature="0" />
    <path
       id="path5683"
       inkscape:label="part"
       style="fill:none;stroke:#000000"
       d="m 1314.5669,783.07087 -32.4124,0 0,-14.17323 -31.2874,0 0,14.17323 -32.7136,0 0,-14.17323 -31.2874,0 0,14.17323 -32.7135,0 0,-14.17323 -31.2874,0 0,14.17323 -32.7136,0 0,-14.17323 -31.2874,0 0,14.17323 -32.7136,0 0,-14.17323 -31.28741,0 0,14.17323 -32.71358,0 0,-14.17323 -31.28741,0 0,14.17323 -32.71358,0 0,-14.17323 -31.2874,0 0,14.17323 -32.71358,0 0,-14.17323 -31.2874,0 0,14.17323 -32.71359,0 0,-14.17323 -31.2874,0 0,14.17323 -32.71358,0 0,-14.17323 -31.2874,0 0,14.17323 -32.71358,0 0,-14.17323 -31.28741,0 0,14.17323 -32.71358,0 0,-14.17323 -31.2874,0 0,14.17323 -32.71358,0 0,-14.17323 -31.28741,0 0,14.17323 -32.71358,0 0,-14.17323 -31.2874,0 0,14.17323 -32.71358,0 0,-14.17323 -31.2874,0 0,14.17323 -32.41241,0"
       inkscape:connector-curvature="0" />
    <path
       id="path5685"
       inkscape:label="part"
       style="fill:none;stroke:#000000"
       d="m 322.44094,783.07087 0,-38.77138 14.17323,0 0,-31.2874 -14.17323,0 0,-39.07255 14.17323,0 0,-31.2874 -14.17323,0 0,-39.07256 14.17323,0 0,-31.2874 -14.17323,0 0,-39.07255 14.17323,0 0,-31.2874 -14.17323,0 0,-39.07256 14.17323,0 0,-31.2874 -14.17323,0 0,-39.07255 14.17323,0 0,-31.2874 -14.17323,0 0,-38.77138"
       inkscape:connector-curvature="0" />
    <path
       id="path5687"
       inkscape:label="part"
       style="fill:none;stroke:#000000"
       d="m 15.9449,15.94488 23.7933,0 0,-14.17323 32.4921,0 0,14.17323 37.6654,0 0,-14.17323 32.4921,0 0,14.17323 37.6654,0 0,-14.17323 32.4921,0 0,14.17323 37.6654,0 0,-14.17323 32.4921,0 0,14.17323 23.7933,0"
       inkscape:connector-curvature="0" />
    <path
       id="path5689"
       inkscape:label="part"
       style="fill:none;stroke:#000000"
       d="m 306.4961,15.94488 0,23.99578 14.1732,0 0,32.49213 -14.1732,0 0,37.86783 14.1732,0 0,32.49213 -14.1732,0 0,37.86783 14.1732,0 0,32.49212 -14.1732,0 0,37.86783 14.1732,0 0,32.49213 -14.1732,0 0,37.86783 14.1732,0 0,32.49212 -14.1732,0 0,37.86783 14.1732,0 0,32.49213 -14.1732,0 0,23.99578"
       inkscape:connector-curvature="0" />
    <path
       id="path5691"
       inkscape:label="part"
       style="fill:none;stroke:#000000"
       d="m 306.4961,448.22835 -23.7933,0 0,14.17323 -32.4921,0 0,-14.17323 -37.6654,0 0,14.17323 -32.4921,0 0,-14.17323 -37.6654,0 0,14.17323 -32.4921,0 0,-14.17323 -37.6654,0 0,14.17323 -32.4921,0 0,-14.17323 -23.7933,0"
       inkscape:connector-curvature="0" />
    <path
       id="path5693"
       inkscape:label="part"
       style="fill:none;stroke:#000000"
       d="m 15.9449,448.22835 0,-23.99578 0,-384.29191 0,-23.99578"
       inkscape:connector-curvature="0"
       sodipodi:nodetypes="cccc" />
    <path
       id="path5703"
       inkscape:label="part"
       style="fill:none;stroke:#000000"
       d="m 322.44094,15.944882 31.81004,0 928.50592,0 31.81,0"
       inkscape:connector-curvature="0"
       sodipodi:nodetypes="cccc" />
    <path
       id="path5705"
       inkscape:label="part"
       style="fill:none;stroke:#000000"
       d="m 1314.5669,15.944882 0,24.395669 -14.1732,0 0,31.287402 14.1732,0 0,38.870077 -14.1732,0 0,31.2874 14.1732,0 0,38.87008 -14.1732,0 0,31.2874 14.1732,0 0,38.87008 -14.1732,0 0,31.2874 14.1732,0 0,24.39567"
       inkscape:connector-curvature="0" />
    <path
       id="path5707"
       inkscape:label="part"
       style="fill:none;stroke:#000000"
       d="m 1314.5669,306.49606 -31.81,0 0,14.17323 -32.4921,0 0,-14.17323 -31.5089,0 0,14.17323 -32.4921,0 0,-14.17323 -31.5089,0 0,14.17323 -32.4921,0 0,-14.17323 -31.5089,0 0,14.17323 -32.4921,0 0,-14.17323 -31.5088,0 0,14.17323 -32.49217,0 0,-14.17323 -31.50886,0 0,14.17323 -32.49213,0 0,-14.17323 -31.50886,0 0,14.17323 -32.49212,0 0,-14.17323 -31.50886,0 0,14.17323 -32.49213,0 0,-14.17323 -31.50885,0 0,14.17323 -32.49213,0 0,-14.17323 -31.50886,0 0,14.17323 -32.49212,0 0,-14.17323 -31.50886,0 0,14.17323 -32.49213,0 0,-14.17323 -31.50886,0 0,14.17323 -32.49212,0 0,-14.17323 -31.50886,0 0,14.17323 -32.49213,0 0,-14.17323 -31.50886,0 0,14.17323 -32.49212,0 0,-14.17323 -31.50886,0 0,14.17323 -32.49213,0 0,-14.17323 -31.81004,0"
       inkscape:connector-curvature="0" />
    <path
       id="path5709"
       inkscape:label="part"
       style="fill:none;stroke:#000000"
       d="m 322.44094,306.49606 0,-24.39567 14.17323,0 0,-31.2874 -14.17323,0 0,-38.87008 14.17323,0 0,-31.2874 -14.17323,0 0,-38.87008 14.17323,0 0,-31.2874 -14.17323,0 0,-38.870077 14.17323,0 0,-31.287402 -14.17323,0 0,-24.395669"
       inkscape:connector-curvature="0" />
    <path
       style="color:#000000;display:inline;overflow:visible;visibility:visible;opacity:1;fill:none;fill-opacity:1;fill-rule:evenodd;stroke:#000000;stroke-width:2;stroke-linecap:butt;stroke-linejoin:miter;stroke-miterlimit:4;stroke-dasharray:none;stroke-dashoffset:0;stroke-opacity:1;marker:none;enable-background:accumulate"
       d="m 163.10395,141.72942 c 49.90287,0 -0.35715,39.73998 -0.35715,89.64285 0,49.90287 50.26002,91.07143 0.35715,91.07143 -49.90287,0 -90.35713,-40.45427 -90.35713,-90.35714 0,-49.90287 40.45426,-90.35714 90.35713,-90.35714 z"
       id="path5910"
       inkscape:connector-curvature="0"
       sodipodi:nodetypes="sssss" />
    <g
       transform="matrix(0,-1,1,0,0,0)"
       style="font-style:normal;font-variant:normal;font-weight:normal;font-stretch:normal;font-size:21.29924393px;line-height:100%;font-family:Ubuntu;-inkscape-font-specification:'Ubuntu, Normal';text-align:start;letter-spacing:23.19487572px;word-spacing:0px;writing-mode:lr-tb;text-anchor:start;fill:#000000;fill-opacity:1;stroke:#00ff00;stroke-width:1px;stroke-linecap:butt;stroke-linejoin:miter;stroke-opacity:1"
       id="text5913">
      <path
         d="m -385.15409,266.33737 0,-3.77521 -5.11681,0 0,6.27122 2.5584,0 0,2.6208 9.14162,0 0,-2.5584 2.3088,0 0.0624,-33.10327 4.83601,0 0,-5.17921 -6.95761,0 0,2.55841 -3.05761,0 0,33.16566 -3.7752,0 z"
         style="font-style:normal;font-variant:normal;font-weight:normal;font-stretch:normal;font-size:63.89772797px;line-height:100%;font-family:progenisis;-inkscape-font-specification:'progenisis, Normal';text-align:start;letter-spacing:0px;writing-mode:lr-tb;text-anchor:start;fill:#00ff00;stroke:#00ff00"
         id="path3568" />
      <path
         d="m -343.47081,260.06616 -5.17921,0 0,-25.55285 5.17921,0 0,25.55285 z m -7.20722,-2.80801 0,5.17921 -14.69522,0 0,-2.3712 -2.55841,0 0,-25.55285 5.11681,0 0,22.80724 12.13682,-0.0624 z"
         style="font-style:normal;font-variant:normal;font-weight:normal;font-stretch:normal;font-size:63.89772797px;line-height:100%;font-family:progenisis;-inkscape-font-specification:'progenisis, Normal';text-align:start;letter-spacing:0px;writing-mode:lr-tb;text-anchor:start;fill:#00ff00;stroke:#00ff00"
         id="path3570" />
      <path
         d="m -338.8532,237.00931 5.17921,0 0,25.55285 -5.17921,0 0,-25.55285 z m 14.57043,2.80801 0,11.63762 -5.11681,0 0,-11.70002 -2.87041,0 0,-5.11681 4.52401,0 0,2.1216 1.6848,0 0,-2.1216 12.01203,0 0,2.3712 2.4024,0 0,25.55285 -5.08561,0 0,-22.74484 -7.55041,0 z"
         style="font-style:normal;font-variant:normal;font-weight:normal;font-stretch:normal;font-size:63.89772797px;line-height:100%;font-family:progenisis;-inkscape-font-specification:'progenisis, Normal';text-align:start;letter-spacing:0px;writing-mode:lr-tb;text-anchor:start;fill:#00ff00;stroke:#00ff00"
         id="path3572" />
      <path
         d="m -289.5883,257.44535 -12.13682,0 0,-17.69043 14.19602,0 0,22.80724 5.08561,0 0,-25.55285 -2.5584,0 0,-2.3712 -21.90245,0 0,34.25767 5.17922,0 0,-6.33362 12.13682,0 0,-5.11681 z"
         style="font-style:normal;font-variant:normal;font-weight:normal;font-stretch:normal;font-size:63.89772797px;line-height:100%;font-family:progenisis;-inkscape-font-specification:'progenisis, Normal';text-align:start;letter-spacing:0px;writing-mode:lr-tb;text-anchor:start;fill:#00ff00;stroke:#00ff00"
         id="path3574" />
      <path
         d="m -278.26268,262.49976 0,-25.49045 5.11681,0 0,9.32882 14.88243,0 0,-6.77041 -12.63603,0 0,-5.11681 15.31923,0 0,2.6208 2.43361,0 0,11.88723 -2.74561,0 0,2.496 -17.25363,0 0,11.10722 -5.11681,-0.0624 z m 7.73761,-5.17921 14.32083,0 0,5.17921 -14.32083,0.0624 0,-5.24161 z"
         style="font-style:normal;font-variant:normal;font-weight:normal;font-stretch:normal;font-size:63.89772797px;line-height:100%;font-family:progenisis;-inkscape-font-specification:'progenisis, Normal';text-align:start;letter-spacing:0px;writing-mode:lr-tb;text-anchor:start;fill:#00ff00;stroke:#00ff00"
         id="path3576" />
      <path
         d="m -249.24661,237.00931 5.17921,0 0,25.55285 -5.17921,0 0,-25.55285 z m 7.20721,2.74561 0,-5.11681 14.69523,0 0,5.11681 -14.69523,0 z"
         style="font-style:normal;font-variant:normal;font-weight:normal;font-stretch:normal;font-size:63.89772797px;line-height:100%;font-family:progenisis;-inkscape-font-specification:'progenisis, Normal';text-align:start;letter-spacing:0px;writing-mode:lr-tb;text-anchor:start;fill:#00ff00;stroke:#00ff00"
         id="path3578" />
      <path
         d="m -188.09449,268.83338 -5.11681,0 0,-38.22008 5.11681,0 0,38.22008 z m 7.55041,-8.76722 0,-18.15844 5.08561,0 0,18.22084 4.30561,0 0,-32.76007 5.14801,0 0,35.97368 -3.05761,0 0,1.9032 -8.04961,0 0,-2.1216 -1.6536,0 0,2.1216 -7.36322,0 0,-5.17921 5.58481,0 z"
         style="font-style:normal;font-variant:normal;font-weight:normal;font-stretch:normal;font-size:63.89772797px;line-height:100%;font-family:progenisis;-inkscape-font-specification:'progenisis, Normal';text-align:start;letter-spacing:0px;writing-mode:lr-tb;text-anchor:start;fill:#00ff00;stroke:#00ff00"
         id="path3580" />
      <path
         d="m -159.70245,227.30609 5.17921,0 0,4.39921 -5.24161,-0.0624 0.0624,-4.33681 z m 0,9.70322 5.11681,0 0,25.49045 -5.11681,0 0,-25.49045 z"
         style="font-style:normal;font-variant:normal;font-weight:normal;font-stretch:normal;font-size:63.89772797px;line-height:100%;font-family:progenisis;-inkscape-font-specification:'progenisis, Normal';text-align:start;letter-spacing:0px;writing-mode:lr-tb;text-anchor:start;fill:#00ff00;stroke:#00ff00"
         id="path3582" />
      <path
         d="m -150.03043,237.00931 5.17921,0 0,25.55285 -5.17921,0 0,-25.55285 z m 7.20722,2.74561 0,-5.11681 14.69523,0 0,5.11681 -14.69523,0 z"
         style="font-style:normal;font-variant:normal;font-weight:normal;font-stretch:normal;font-size:63.89772797px;line-height:100%;font-family:progenisis;-inkscape-font-specification:'progenisis, Normal';text-align:start;letter-spacing:0px;writing-mode:lr-tb;text-anchor:start;fill:#00ff00;stroke:#00ff00"
         id="path3584" />
      <path
         d="m -124.38398,262.49976 0,-25.49045 5.11681,0 0,9.32882 14.88243,0 0,-6.77041 -12.63603,0 0,-5.11681 15.31923,0 0,2.6208 2.43361,0 0,11.88723 -2.74561,0 0,2.496 -17.25363,0 0,11.10722 -5.11681,-0.0624 z m 7.73762,-5.17921 14.32082,0 0,5.17921 -14.32082,0.0624 0,-5.24161 z"
         style="font-style:normal;font-variant:normal;font-weight:normal;font-stretch:normal;font-size:63.89772797px;line-height:100%;font-family:progenisis;-inkscape-font-specification:'progenisis, Normal';text-align:start;letter-spacing:0px;writing-mode:lr-tb;text-anchor:start;fill:#00ff00;stroke:#00ff00"
         id="path3586" />
      <path
         d="m -95.43032,262.56216 0,-5.11681 14.071228,0 0,5.11681 -14.071228,0 z m 5.17921,-17.06643 13.790428,0 0,2.55841 2.558405,0 0,11.94962 -5.11681,0 0,-9.39122 -13.790428,0 0,-2.5584 -2.558405,0 0,-11.04483 5.11681,0 0,8.48642 z m 2.371205,-5.92801 0,-5.11681 12.511225,0 0,5.11681 -12.511225,0 z"
         style="font-style:normal;font-variant:normal;font-weight:normal;font-stretch:normal;font-size:63.89772797px;line-height:100%;font-family:progenisis;-inkscape-font-specification:'progenisis, Normal';text-align:start;letter-spacing:0px;writing-mode:lr-tb;text-anchor:start;fill:#00ff00;stroke:#00ff00"
         id="path3588" />
    </g>
  </g>
  <g
     id="g5711"
     inkscape:groupmode="layer"
     inkscape:label="newlayer"
     transform="translate(0,-1.6535434e-6)" />
</svg>
