<?xml version="1.0" encoding="UTF-8" standalone="no"?>
<!-- Created with Inkscape (http://www.inkscape.org/) -->

<svg
   xmlns:dc="http://purl.org/dc/elements/1.1/"
   xmlns:cc="http://creativecommons.org/ns#"
   xmlns:rdf="http://www.w3.org/1999/02/22-rdf-syntax-ns#"
   xmlns:svg="http://www.w3.org/2000/svg"
   xmlns="http://www.w3.org/2000/svg"
   xmlns:xlink="http://www.w3.org/1999/xlink"
   xmlns:sodipodi="http://sodipodi.sourceforge.net/DTD/sodipodi-0.dtd"
   xmlns:inkscape="http://www.inkscape.org/namespaces/inkscape"
   inkscape:version="0.91 r13725"
   version="1.1"
   id="svg2"
   viewBox="0 0 1488.189 1052.3622"
   height="297mm"
   width="420mm"
   sodipodi:docname="teslaschublade_lötkolben.svg">
  <sodipodi:namedview
     inkscape:window-maximized="1"
     inkscape:window-y="35"
     inkscape:window-x="0"
     inkscape:window-height="1368"
     inkscape:window-width="2560"
     showgrid="false"
     inkscape:current-layer="layer1"
     inkscape:document-units="px"
     inkscape:cy="684.61848"
     inkscape:cx="603.14404"
     inkscape:zoom="0.7"
     inkscape:pageshadow="2"
     inkscape:pageopacity="0.0"
     borderopacity="1.0"
     bordercolor="#666666"
     pagecolor="#ffffff"
     id="base"
     showguides="false" />
  <defs
     id="defs4" />
  <metadata
     id="metadata7">
    <rdf:RDF>
      <cc:Work
         rdf:about="">
        <dc:format>image/svg+xml</dc:format>
        <dc:type
           rdf:resource="http://purl.org/dc/dcmitype/StillImage" />
        <dc:title></dc:title>
      </cc:Work>
    </rdf:RDF>
  </metadata>
  <g
     id="layer1"
     inkscape:groupmode="layer"
     inkscape:label="Layer 1"
     transform="translate(0,-1.6535434e-6)">
    <path
       id="path5663"
       inkscape:label="part"
       style="fill:none;stroke:#000000"
       d="m 322.44094,799.01575 31.81004,0 0,-14.17323 32.49213,0 0,14.17323 31.50886,0 0,-14.17323 32.49212,0 0,14.17323 31.50886,0 0,-14.17323 32.49213,0 0,14.17323 31.50886,0 0,-14.17323 32.49212,0 0,14.17323 31.50886,0 0,-14.17323 32.49213,0 0,14.17323 31.50886,0 0,-14.17323 32.49212,0 0,14.17323 31.50886,0 0,-14.17323 32.49213,0 0,14.17323 31.50885,0 0,-14.17323 32.49213,0 0,14.17323 31.50886,0 0,-14.17323 32.49212,0 0,14.17323 31.50886,0 0,-14.17323 32.49213,0 0,14.17323 31.50886,0 0,-14.17323 32.49217,0 0,14.17323 31.5088,0 0,-14.17323 32.4921,0 0,14.17323 31.5089,0 0,-14.17323 32.4921,0 0,14.17323 31.5089,0 0,-14.17323 32.4921,0 0,14.17323 31.5089,0 0,-14.17323 32.4921,0 0,14.17323 31.81,0"
       inkscape:connector-curvature="0" />
    <path
       id="path5665"
       inkscape:label="part"
       style="fill:none;stroke:#000000"
       d="m 1314.5669,799.01575 0,24.39567 -14.1732,0 0,31.2874 14.1732,0 0,38.87008 -14.1732,0 0,31.2874 14.1732,0 0,38.87008 -14.1732,0 0,31.2874 14.1732,0 0,38.87012 -14.1732,0 0,31.2874 14.1732,0 0,24.3956"
       inkscape:connector-curvature="0" />
    <path
       id="path5667"
       inkscape:label="part"
       style="fill:none;stroke:#000000"
       d="m 1314.5669,1089.5669 -31.81,0 -928.50592,0 -31.81004,0"
       inkscape:connector-curvature="0"
       sodipodi:nodetypes="cccc" />
    <path
       id="path5669"
       inkscape:label="part"
       style="fill:none;stroke:#000000"
       d="m 322.44094,1089.5669 0,-24.3956 14.17323,0 0,-31.2874 -14.17323,0 0,-38.87012 14.17323,0 0,-31.2874 -14.17323,0 0,-38.87008 14.17323,0 0,-31.2874 -14.17323,0 0,-38.87008 14.17323,0 0,-31.2874 -14.17323,0 0,-24.39567"
       inkscape:connector-curvature="0" />
    <path
       id="path5671"
       inkscape:label="part"
       style="fill:none;stroke:#000000"
       d="m 15.944882,478.6102 23.793307,0 0,-14.17323 32.492126,0 0,14.17323 37.665355,0 0,-14.17323 32.49213,0 0,14.17323 37.66535,0 0,-14.17323 32.49213,0 0,14.17323 37.66535,0 0,-14.17323 32.49213,0 0,14.17323 23.7933,0"
       inkscape:connector-curvature="0" />
    <path
       id="path5673"
       inkscape:label="part"
       style="fill:none;stroke:#000000"
       d="m 306.49606,478.6102 0,23.99578 14.17323,0 0,32.49213 -14.17323,0 0,37.86783 14.17323,0 0,32.49213 -14.17323,0 0,37.86783 14.17323,0 0,32.49212 -14.17323,0 0,37.86783 14.17323,0 0,32.49213 -14.17323,0 0,37.86783 14.17323,0 0,32.49212 -14.17323,0 0,37.86783 14.17323,0 0,32.49213 -14.17323,0 0,23.99578"
       inkscape:connector-curvature="0" />
    <path
       id="path5675"
       inkscape:label="part"
       style="fill:none;stroke:#000000"
       d="m 306.49606,910.89367 -23.7933,0 0,14.17323 -32.49213,0 0,-14.17323 -37.66535,0 0,14.17323 -32.49213,0 0,-14.17323 -37.66535,0 0,14.17323 -32.49213,0 0,-14.17323 -37.665355,0 0,14.17323 -32.492126,0 0,-14.17323 -23.793307,0"
       inkscape:connector-curvature="0" />
    <path
       id="path5677"
       inkscape:label="part"
       style="fill:none;stroke:#000000"
       d="m 15.944882,910.89367 0,-23.99578 0,-384.29191 0,-23.99578"
       inkscape:connector-curvature="0"
       sodipodi:nodetypes="cccc" />
    <path
       id="path5679"
       inkscape:label="part"
       style="fill:none;stroke:#000000"
       d="m 322.44094,322.44094 32.41241,0 0,14.17323 31.2874,0 0,-14.17323 32.71358,0 0,14.17323 31.2874,0 0,-14.17323 32.71358,0 0,14.17323 31.28741,0 0,-14.17323 32.71358,0 0,14.17323 31.2874,0 0,-14.17323 32.71358,0 0,14.17323 31.28741,0 0,-14.17323 32.71358,0 0,14.17323 31.2874,0 0,-14.17323 32.71358,0 0,14.17323 31.2874,0 0,-14.17323 32.71359,0 0,14.17323 31.2874,0 0,-14.17323 32.71358,0 0,14.17323 31.2874,0 0,-14.17323 32.71358,0 0,14.17323 31.28741,0 0,-14.17323 32.71358,0 0,14.17323 31.28741,0 0,-14.17323 32.7136,0 0,14.17323 31.2874,0 0,-14.17323 32.7136,0 0,14.17323 31.2874,0 0,-14.17323 32.7135,0 0,14.17323 31.2874,0 0,-14.17323 32.7136,0 0,14.17323 31.2874,0 0,-14.17323 32.4124,0"
       inkscape:connector-curvature="0" />
    <path
       id="path5681"
       inkscape:label="part"
       style="fill:none;stroke:#000000"
       d="m 1314.5669,322.44094 0,38.77138 -14.1732,0 0,31.2874 14.1732,0 0,39.07255 -14.1732,0 0,31.2874 14.1732,0 0,39.07256 -14.1732,0 0,31.2874 14.1732,0 0,39.07255 -14.1732,0 0,31.2874 14.1732,0 0,39.07256 -14.1732,0 0,31.2874 14.1732,0 0,39.07255 -14.1732,0 0,31.2874 14.1732,0 0,38.77138"
       inkscape:connector-curvature="0" />
    <path
       id="path5683"
       inkscape:label="part"
       style="fill:none;stroke:#000000"
       d="m 1314.5669,783.07087 -32.4124,0 0,-14.17323 -31.2874,0 0,14.17323 -32.7136,0 0,-14.17323 -31.2874,0 0,14.17323 -32.7135,0 0,-14.17323 -31.2874,0 0,14.17323 -32.7136,0 0,-14.17323 -31.2874,0 0,14.17323 -32.7136,0 0,-14.17323 -31.28741,0 0,14.17323 -32.71358,0 0,-14.17323 -31.28741,0 0,14.17323 -32.71358,0 0,-14.17323 -31.2874,0 0,14.17323 -32.71358,0 0,-14.17323 -31.2874,0 0,14.17323 -32.71359,0 0,-14.17323 -31.2874,0 0,14.17323 -32.71358,0 0,-14.17323 -31.2874,0 0,14.17323 -32.71358,0 0,-14.17323 -31.28741,0 0,14.17323 -32.71358,0 0,-14.17323 -31.2874,0 0,14.17323 -32.71358,0 0,-14.17323 -31.28741,0 0,14.17323 -32.71358,0 0,-14.17323 -31.2874,0 0,14.17323 -32.71358,0 0,-14.17323 -31.2874,0 0,14.17323 -32.41241,0"
       inkscape:connector-curvature="0" />
    <path
       id="path5685"
       inkscape:label="part"
       style="fill:none;stroke:#000000"
       d="m 322.44094,783.07087 0,-38.77138 14.17323,0 0,-31.2874 -14.17323,0 0,-39.07255 14.17323,0 0,-31.2874 -14.17323,0 0,-39.07256 14.17323,0 0,-31.2874 -14.17323,0 0,-39.07255 14.17323,0 0,-31.2874 -14.17323,0 0,-39.07256 14.17323,0 0,-31.2874 -14.17323,0 0,-39.07255 14.17323,0 0,-31.2874 -14.17323,0 0,-38.77138"
       inkscape:connector-curvature="0" />
    <path
       id="path5687"
       inkscape:label="part"
       style="fill:none;stroke:#000000"
       d="m 15.9449,15.94488 23.7933,0 0,-14.17323 32.4921,0 0,14.17323 37.6654,0 0,-14.17323 32.4921,0 0,14.17323 37.6654,0 0,-14.17323 32.4921,0 0,14.17323 37.6654,0 0,-14.17323 32.4921,0 0,14.17323 23.7933,0"
       inkscape:connector-curvature="0" />
    <path
       id="path5689"
       inkscape:label="part"
       style="fill:none;stroke:#000000"
       d="m 306.4961,15.94488 0,23.99578 14.1732,0 0,32.49213 -14.1732,0 0,37.86783 14.1732,0 0,32.49213 -14.1732,0 0,37.86783 14.1732,0 0,32.49212 -14.1732,0 0,37.86783 14.1732,0 0,32.49213 -14.1732,0 0,37.86783 14.1732,0 0,32.49212 -14.1732,0 0,37.86783 14.1732,0 0,32.49213 -14.1732,0 0,23.99578"
       inkscape:connector-curvature="0" />
    <path
       id="path5691"
       inkscape:label="part"
       style="fill:none;stroke:#000000"
       d="m 306.4961,448.22835 -23.7933,0 0,14.17323 -32.4921,0 0,-14.17323 -37.6654,0 0,14.17323 -32.4921,0 0,-14.17323 -37.6654,0 0,14.17323 -32.4921,0 0,-14.17323 -37.6654,0 0,14.17323 -32.4921,0 0,-14.17323 -23.7933,0"
       inkscape:connector-curvature="0" />
    <path
       id="path5693"
       inkscape:label="part"
       style="fill:none;stroke:#000000"
       d="m 15.9449,448.22835 0,-23.99578 0,-384.29191 0,-23.99578"
       inkscape:connector-curvature="0"
       sodipodi:nodetypes="cccc" />
    <path
       id="path5703"
       inkscape:label="part"
       style="fill:none;stroke:#000000"
       d="m 322.44094,15.944882 31.81004,0 928.50592,0 31.81,0"
       inkscape:connector-curvature="0"
       sodipodi:nodetypes="cccc" />
    <path
       id="path5705"
       inkscape:label="part"
       style="fill:none;stroke:#000000"
       d="m 1314.5669,15.944882 0,24.395669 -14.1732,0 0,31.287402 14.1732,0 0,38.870077 -14.1732,0 0,31.2874 14.1732,0 0,38.87008 -14.1732,0 0,31.2874 14.1732,0 0,38.87008 -14.1732,0 0,31.2874 14.1732,0 0,24.39567"
       inkscape:connector-curvature="0" />
    <path
       id="path5707"
       inkscape:label="part"
       style="fill:none;stroke:#000000"
       d="m 1314.5669,306.49606 -31.81,0 0,14.17323 -32.4921,0 0,-14.17323 -31.5089,0 0,14.17323 -32.4921,0 0,-14.17323 -31.5089,0 0,14.17323 -32.4921,0 0,-14.17323 -31.5089,0 0,14.17323 -32.4921,0 0,-14.17323 -31.5088,0 0,14.17323 -32.49217,0 0,-14.17323 -31.50886,0 0,14.17323 -32.49213,0 0,-14.17323 -31.50886,0 0,14.17323 -32.49212,0 0,-14.17323 -31.50886,0 0,14.17323 -32.49213,0 0,-14.17323 -31.50885,0 0,14.17323 -32.49213,0 0,-14.17323 -31.50886,0 0,14.17323 -32.49212,0 0,-14.17323 -31.50886,0 0,14.17323 -32.49213,0 0,-14.17323 -31.50886,0 0,14.17323 -32.49212,0 0,-14.17323 -31.50886,0 0,14.17323 -32.49213,0 0,-14.17323 -31.50886,0 0,14.17323 -32.49212,0 0,-14.17323 -31.50886,0 0,14.17323 -32.49213,0 0,-14.17323 -31.81004,0"
       inkscape:connector-curvature="0" />
    <path
       id="path5709"
       inkscape:label="part"
       style="fill:none;stroke:#000000"
       d="m 322.44094,306.49606 0,-24.39567 14.17323,0 0,-31.2874 -14.17323,0 0,-38.87008 14.17323,0 0,-31.2874 -14.17323,0 0,-38.87008 14.17323,0 0,-31.2874 -14.17323,0 0,-38.870077 14.17323,0 0,-31.287402 -14.17323,0 0,-24.395669"
       inkscape:connector-curvature="0" />
    <text
       xml:space="preserve"
       style="font-style:normal;font-variant:normal;font-weight:normal;font-stretch:normal;font-size:20px;line-height:100%;font-family:Ubuntu;-inkscape-font-specification:'Ubuntu, Normal';text-align:start;letter-spacing:0px;word-spacing:0px;writing-mode:lr-tb;text-anchor:start;fill:#000000;fill-opacity:1;stroke:none;stroke-width:1px;stroke-linecap:butt;stroke-linejoin:miter;stroke-opacity:1;"
       x="316.42856"
       y="-99.780655"
       id="text3386"
       sodipodi:linespacing="100%"><tspan
         sodipodi:role="line"
         id="tspan3388"
         x="316.42856"
         y="-99.780655" /></text>
    <g
       transform="matrix(0,-0.99308544,1.0069627,0,0,0)"
       style="font-style:normal;font-variant:normal;font-weight:normal;font-stretch:normal;font-size:59.65959167px;line-height:100%;font-family:Ubuntu;-inkscape-font-specification:'Ubuntu, Normal';text-align:start;letter-spacing:0px;word-spacing:0px;writing-mode:lr-tb;text-anchor:start;fill:#00ff00;fill-opacity:1;stroke:#00ff00;stroke-width:1px;stroke-linecap:butt;stroke-linejoin:miter;stroke-opacity:1"
       id="text3390">
      <path
         d="m -368.91246,191.31105 0,7.57397 12.87575,0 0,2.38872 2.38871,0 0,15.38098 -2.38871,0 0,2.38872 -17.71144,0 0,-4.77743 15.32272,0 0,-10.60356 -12.87575,0 0,-2.38871 -2.38871,0 0,-12.3514 2.38871,0 0,-2.38872 18.09014,0 0,4.77743 -15.70142,0 z"
         style="font-style:normal;font-variant:normal;font-weight:normal;font-stretch:normal;font-family:progenisis;-inkscape-font-specification:progenisis;text-align:center;text-anchor:middle;fill:#00ff00;stroke:#00ff00;stroke-width:1px"
         id="path3410" />
      <path
         d="m -331.07174,195.65152 -11.91444,0 0,-4.71917 13.89533,-0.0583 0,1.8061 2.8548,0 0,23.97453 -4.83569,0 0,-21.0032 z m -2.38871,21.0032 -16.40056,0 0,-23.85801 4.77742,0 0,19.08059 11.62314,0 0,4.77742 z"
         style="font-style:normal;font-variant:normal;font-weight:normal;font-stretch:normal;font-family:progenisis;-inkscape-font-specification:progenisis;text-align:center;text-anchor:middle;fill:#00ff00;stroke:#00ff00;stroke-width:1px"
         id="path3412" />
      <path
         d="m -320.23513,189.21364 -3.58307,0 0,-4.77743 6.43787,0 0,2.38872 1.98089,0 -0.0583,29.82979 -4.77743,0 0,-27.44108 z"
         style="font-style:normal;font-variant:normal;font-weight:normal;font-stretch:normal;font-family:progenisis;-inkscape-font-specification:progenisis;text-align:center;text-anchor:middle;fill:#00ff00;stroke:#00ff00;stroke-width:1px"
         id="path3414" />
      <path
         d="m -288.45358,183.8536 -4.83569,0 0,6.37962 -0.0583,0 0,-0.11653 -10.60356,0 0,4.7483 10.66182,0 0,21.78973 4.83569,-0.0583 0,-32.74286 z m -17.65318,27.96543 0,-19.1971 -4.77743,0 0,23.97453 16.05099,0 0,-4.77743 -11.27356,0 z"
         style="font-style:normal;font-variant:normal;font-weight:normal;font-stretch:normal;font-family:progenisis;-inkscape-font-specification:progenisis;text-align:center;text-anchor:middle;fill:#00ff00;stroke:#00ff00;stroke-width:1px"
         id="path3416" />
      <path
         d="m -283.96747,216.59646 0,-23.79975 4.77743,0 0,8.71007 13.89533,0 0,-6.32135 -11.79792,0 0,-4.77743 14.30315,0 0,2.44697 2.2722,0 0,11.09879 -2.5635,0 0,2.33045 -16.10926,0 0,10.37051 -4.77743,-0.0583 z m 7.22441,-4.83569 13.37097,0 0,4.83569 -13.37097,0.0583 0,-4.89395 z"
         style="font-style:normal;font-variant:normal;font-weight:normal;font-stretch:normal;font-family:progenisis;-inkscape-font-specification:progenisis;text-align:center;text-anchor:middle;fill:#00ff00;stroke:#00ff00;stroke-width:1px"
         id="path3418" />
      <path
         d="m -256.87595,192.79671 4.83569,0 0,23.85801 -4.83569,0 0,-23.85801 z m 6.72919,2.5635 0,-4.77743 13.72054,0 0,4.77743 -13.72054,0 z"
         style="font-style:normal;font-variant:normal;font-weight:normal;font-stretch:normal;font-family:progenisis;-inkscape-font-specification:progenisis;text-align:center;text-anchor:middle;fill:#00ff00;stroke:#00ff00;stroke-width:1px"
         id="path3420" />
      <path
         d="m -199.66333,191.66062 4.54438,0 0,-4.77743 -6.52527,0 0,2.33045 -2.8548,0 0,33.12156 4.77743,0 0.0583,-30.67458 z"
         style="font-style:normal;font-variant:normal;font-weight:normal;font-stretch:normal;font-family:progenisis;-inkscape-font-specification:progenisis;text-align:center;text-anchor:middle;fill:#00ff00;stroke:#00ff00;stroke-width:1px"
         id="path3422" />
      <path
         d="m -191.97284,192.79671 4.83569,0 0,23.85801 -4.83569,0 0,-23.85801 z m 6.72918,2.5635 0,-4.77743 13.72054,0 0,4.77743 -13.72054,0 z"
         style="font-style:normal;font-variant:normal;font-weight:normal;font-stretch:normal;font-family:progenisis;-inkscape-font-specification:progenisis;text-align:center;text-anchor:middle;fill:#00ff00;stroke:#00ff00;stroke-width:1px"
         id="path3424" />
      <path
         d="m -149.23815,195.65152 -11.91444,0 0,-4.71917 13.89532,-0.0583 0,1.8061 2.85481,0 0,23.97453 -4.83569,0 0,-21.0032 z m -2.38872,21.0032 -16.40056,0 0,-23.85801 4.77743,0 0,19.08059 11.62313,0 0,4.77742 z"
         style="font-style:normal;font-variant:normal;font-weight:normal;font-stretch:normal;font-family:progenisis;-inkscape-font-specification:progenisis;text-align:center;text-anchor:middle;fill:#00ff00;stroke:#00ff00;stroke-width:1px"
         id="path3426" />
      <path
         d="m -140.00374,192.79671 4.83569,0 0,23.85801 -4.83569,0 0,-23.85801 z m 6.72918,2.5635 0,-4.77743 13.72054,0 0,2.21393 2.38872,0 0,23.85801 -4.7483,0 0,-21.29451 -11.36096,0 z"
         style="font-style:normal;font-variant:normal;font-weight:normal;font-stretch:normal;font-family:progenisis;-inkscape-font-specification:progenisis;text-align:center;text-anchor:middle;fill:#00ff00;stroke:#00ff00;stroke-width:1px"
         id="path3428" />
      <path
         d="m -112.7957,216.65472 0,-4.77742 13.137924,0 0,4.77742 -13.137924,0 z m 4.83569,-15.93447 12.875747,0 0,2.38872 2.388714,0 0,11.15704 -4.777428,0 0,-8.76833 -12.875753,0 0,-2.38871 -2.38871,0 0,-10.31226 4.77743,0 0,7.92354 z m 2.21393,-5.53482 0,-4.77743 11.68139,0 0,4.77743 -11.68139,0 z"
         style="font-style:normal;font-variant:normal;font-weight:normal;font-stretch:normal;font-family:progenisis;-inkscape-font-specification:progenisis;text-align:center;text-anchor:middle;fill:#00ff00;stroke:#00ff00;stroke-width:1px"
         id="path3430" />
      <path
         d="m -382.57474,271.53689 -11.33183,0 0,-16.51709 13.25445,0 0,21.29452 4.7483,0 0,-23.85801 -2.38872,0 0,-2.21393 -20.44972,0 0,31.98546 4.83569,0 0,-5.91352 11.33183,0 0,-4.77743 z"
         style="font-style:normal;font-variant:normal;font-weight:normal;font-stretch:normal;font-family:progenisis;-inkscape-font-specification:progenisis;text-align:center;text-anchor:middle;fill:#00ff00;stroke:#00ff00;stroke-width:1px"
         id="path3432" />
      <path
         d="m -353.15278,255.31111 -11.91444,0 0,-4.71917 13.89533,-0.0583 0,1.8061 2.8548,0 0,23.97454 -4.83569,0 0,-21.00321 z m -2.38871,21.00321 -16.40056,0 0,-23.85801 4.77743,0 0,19.08058 11.62313,0 0,4.77743 z"
         style="font-style:normal;font-variant:normal;font-weight:normal;font-stretch:normal;font-family:progenisis;-inkscape-font-specification:progenisis;text-align:center;text-anchor:middle;fill:#00ff00;stroke:#00ff00;stroke-width:1px"
         id="path3434" />
      <path
         d="m -343.97662,252.45631 4.83569,0 0,23.85801 -4.83569,0 0,-23.85801 z m 6.72918,2.56349 0,-4.77742 13.72054,0 0,4.77742 -13.72054,0 z"
         style="font-style:normal;font-variant:normal;font-weight:normal;font-stretch:normal;font-family:progenisis;-inkscape-font-specification:progenisis;text-align:center;text-anchor:middle;fill:#00ff00;stroke:#00ff00;stroke-width:1px"
         id="path3436" />
      <path
         d="m -321.42949,243.51319 0,32.80113 9.7879,0 0,-4.71917 -5.01047,0 0,-28.08196 -4.77743,0 z m 7.2244,11.33183 6.14657,0 0,-4.77743 -6.14657,0 0,4.77743 z"
         style="font-style:normal;font-variant:normal;font-weight:normal;font-stretch:normal;font-family:progenisis;-inkscape-font-specification:progenisis;text-align:center;text-anchor:middle;fill:#00ff00;stroke:#00ff00;stroke-width:1px"
         id="path3438" />
      <path
         d="m -286.26878,271.3621 0,-6.32135 -13.89532,0 0,11.27357 -4.77743,0 0,-13.72055 2.5635,0 0,-2.33045 16.10925,0 0,-5.47656 -15.81795,0 0,-4.77743 18.20666,0 0,2.38871 2.38872,0 0,21.35278 -2.33045,0 0,2.38871 -14.50707,0 0,-4.77743 12.06009,0 z"
         style="font-style:normal;font-variant:normal;font-weight:normal;font-stretch:normal;font-family:progenisis;-inkscape-font-specification:progenisis;text-align:center;text-anchor:middle;fill:#00ff00;stroke:#00ff00;stroke-width:1px"
         id="path3440" />
      <path
         d="m -270.77127,254.7285 0,-4.77743 13.60401,0 0,2.50524 2.38872,0 0,23.79974 -4.77743,0 0,-21.52755 -11.2153,0 z m 9.32181,16.92491 0,4.77743 -15.75969,0 0,-32.74286 4.83569,0 0,27.96543 10.924,0 z"
         style="font-style:normal;font-variant:normal;font-weight:normal;font-stretch:normal;font-family:progenisis;-inkscape-font-specification:progenisis;text-align:center;text-anchor:middle;fill:#00ff00;stroke:#00ff00;stroke-width:1px"
         id="path3442" />
      <path
         d="m -249.38937,248.87323 -3.58307,0 0,-4.77742 6.43788,0 0,2.38871 1.98088,0 -0.0583,29.8298 -4.77743,0 0,-27.44109 z"
         style="font-style:normal;font-variant:normal;font-weight:normal;font-stretch:normal;font-family:progenisis;-inkscape-font-specification:progenisis;text-align:center;text-anchor:middle;fill:#00ff00;stroke:#00ff00;stroke-width:1px"
         id="path3444" />
      <path
         d="m -240.09669,276.25605 0,-23.79974 4.77743,0 0,8.71006 13.89532,0 0,-6.32135 -11.79791,0 0,-4.77743 14.30315,0 0,2.44698 2.27219,0 0,11.09878 -2.5635,0 0,2.33045 -16.10925,0 0,10.37052 -4.77743,-0.0583 z m 7.22441,-4.83569 13.37097,0 0,4.83569 -13.37097,0.0583 0,-4.89396 z"
         style="font-style:normal;font-variant:normal;font-weight:normal;font-stretch:normal;font-family:progenisis;-inkscape-font-specification:progenisis;text-align:center;text-anchor:middle;fill:#00ff00;stroke:#00ff00;stroke-width:1px"
         id="path3446" />
      <path
         d="m -168.66831,252.9224 q -2.65089,2.35958 -3.90351,4.71916 -1.22349,2.33046 -1.22349,4.89395 0,4.25308 3.08785,7.07875 3.08785,2.82568 7.74876,2.82568 2.76741,0 5.18525,-0.90305 2.41785,-0.93218 4.54439,-2.79655 l -15.43925,-15.81794 z m 4.10742,-3.26264 14.79838,15.14795 q 1.7187,-2.59263 2.68002,-5.53483 0.96131,-2.97133 1.13609,-6.29222 l 5.4183,0 q -0.34956,3.84524 -1.86436,7.6031 -1.51479,3.75785 -4.22394,7.42832 l 8.12745,8.30224 -7.34093,0 -4.16568,-4.28221 q -3.02959,2.59263 -6.35048,3.87438 -3.3209,1.25261 -7.13702,1.25261 -7.02048,0 -11.47748,-3.9909 -4.45699,-4.02003 -4.45699,-10.28312 0,-3.72872 1.95176,-6.99136 1.95175,-3.29176 5.85526,-6.1757 -1.39827,-1.83523 -2.12654,-3.64133 -0.72826,-1.83523 -0.72826,-3.58307 0,-4.71917 3.2335,-7.57397 3.2335,-2.88394 8.59354,-2.88394 2.41785,0 4.80656,0.52435 2.41785,0.52436 4.89395,1.57306 l 0,5.30178 q -2.53436,-1.36914 -4.83569,-2.06828 -2.30132,-0.72826 -4.2822,-0.72826 -3.05872,0 -4.98135,1.63131 -1.89349,1.60219 -1.89349,4.16569 0,1.48566 0.84479,3.00046 0.87392,1.48566 3.52481,4.22394 z"
         style="font-style:normal;font-variant:normal;font-weight:normal;font-stretch:normal;font-family:progenisis;-inkscape-font-specification:progenisis;text-align:center;text-anchor:middle;fill:#00ff00;stroke:#00ff00;stroke-width:1px"
         id="path3448" />
      <path
         d="m -99.978207,254.84502 -11.040523,0 0.0583,-4.77743 13.370977,0 0,2.38872 2.388714,0 -0.05826,8.53528 -4.719167,0 0,-6.14657 z m -17.711443,21.4693 0,-23.85801 4.83569,0 0,19.02232 16.808392,0 0,4.83569 -21.644082,0 z"
         style="font-style:normal;font-variant:normal;font-weight:normal;font-stretch:normal;font-family:progenisis;-inkscape-font-specification:progenisis;text-align:center;text-anchor:middle;fill:#00ff00;stroke:#00ff00;stroke-width:1px"
         id="path3450" />
      <path
         d="m -73.49845,255.31111 -11.91444,0 0,-4.71917 13.895325,-0.0583 0,1.8061 2.854805,0 0,23.97454 -4.83569,0 0,-21.00321 z m -2.388714,21.00321 -16.400561,0 0,-23.85801 4.777428,0 0,19.08058 11.623133,0 0,4.77743 z"
         style="font-style:normal;font-variant:normal;font-weight:normal;font-stretch:normal;font-family:progenisis;-inkscape-font-specification:progenisis;text-align:center;text-anchor:middle;fill:#00ff00;stroke:#00ff00;stroke-width:1px"
         id="path3452" />
    </g>
    <path
       style="color:#000000;display:inline;overflow:visible;visibility:visible;opacity:1;fill:none;fill-opacity:1;fill-rule:evenodd;stroke:#000000;stroke-width:2;stroke-linecap:butt;stroke-linejoin:miter;stroke-miterlimit:4;stroke-dasharray:none;stroke-dashoffset:0;stroke-opacity:1;marker:none;enable-background:accumulate"
       d="m 100.93434,109.89614 c 55.93433,0 55.93433,41.20303 55.93433,82.40609 l -111.868667,0 c 0,-41.20305 0,-82.40609 55.934337,-82.40609 z"
       id="rect3398"
       inkscape:connector-curvature="0"
       sodipodi:nodetypes="cccc" />
    <use
       x="0"
       y="0"
       xlink:href="#rect3398"
       id="use3401"
       transform="matrix(1,0,0,-1,0,464.17323)"
       width="100%"
       height="100%" />
  </g>
  <g
     id="g5711"
     inkscape:groupmode="layer"
     inkscape:label="newlayer"
     transform="translate(0,-1.6535434e-6)" />
</svg>
