  0
SECTION
  2
HEADER
  9
$ACADVER
  1
AC1014
  9
$HANDSEED
  5
FFFF
  9
$MEASUREMENT
 70
     1
  0
ENDSEC
  0
SECTION
  2
TABLES
  0
TABLE
  2
VPORT
  5
8
330
0
100
AcDbSymbolTable
 70
     4
  0
VPORT
  5
2E
330
8
100
AcDbSymbolTableRecord
100
AcDbViewportTableRecord
  2
*ACTIVE
 70
     0
 10
0.0
 20
0.0
 11
1.0
 21
1.0
 12
210.0
 22
148.5
 13
0.0
 23
0.0
 14
10.0
 24
10.0
 15
10.0
 25
10.0
 16
0.0
 26
0.0
 36
1.0
 17
0.0
 27
0.0
 37
0.0
 40
341.0
 41
1.24
 42
50.0
 43
0.0
 44
0.0
 50
0.0
 51
0.0
 71
     0
 72
   100
 73
     1
 74
     3
 75
     0
 76
     0
 77
     0
 78
     0
  0
ENDTAB
  0
TABLE
  2
LTYPE
  5
5
330
0
100
AcDbSymbolTable
 70
     1
  0
LTYPE
  5
14
330
5
100
AcDbSymbolTableRecord
100
AcDbLinetypeTableRecord
  2
BYBLOCK
 70
     0
  3

 72
    65
 73
     0
 40
0.0
  0
LTYPE
  5
15
330
5
100
AcDbSymbolTableRecord
100
AcDbLinetypeTableRecord
  2
BYLAYER
 70
     0
  3

 72
    65
 73
     0
 40
0.0
  0
LTYPE
  5
16
330
5
100
AcDbSymbolTableRecord
100
AcDbLinetypeTableRecord
  2
CONTINUOUS
 70
     0
  3
Solid line
 72
    65
 73
     0
 40
0.0
  0
ENDTAB
  0
TABLE
  2
LAYER
  5
2
100
AcDbSymbolTable
 70
3
  0
LAYER
  5
50
100
AcDbSymbolTableRecord
100
AcDbLayerTableRecord
  2
0
 70
0
  6
CONTINUOUS
  0
LAYER
  5
51
100
AcDbSymbolTableRecord
100
AcDbLayerTableRecord
  2
Layer_1
 70
0
  6
CONTINUOUS
  0
LAYER
  5
52
100
AcDbSymbolTableRecord
100
AcDbLayerTableRecord
  2
newlayer
 70
0
  6
CONTINUOUS
  0
ENDTAB
  0
TABLE
  2
STYLE
  5
3
330
0
100
AcDbSymbolTable
 70
     1
  0
STYLE
  5
11
330
3
100
AcDbSymbolTableRecord
100
AcDbTextStyleTableRecord
  2
STANDARD
 70
     0
 40
0.0
 41
1.0
 50
0.0
 71
     0
 42
2.5
  3
txt
  4

  0
ENDTAB
  0
TABLE
  2
VIEW
  5
6
330
0
100
AcDbSymbolTable
 70
     0
  0
ENDTAB
  0
TABLE
  2
UCS
  5
7
330
0
100
AcDbSymbolTable
 70
     0
  0
ENDTAB
  0
TABLE
  2
APPID
  5
9
330
0
100
AcDbSymbolTable
 70
     2
  0
APPID
  5
12
330
9
100
AcDbSymbolTableRecord
100
AcDbRegAppTableRecord
  2
ACAD
 70
     0
  0
ENDTAB
  0
TABLE
  2
DIMSTYLE
  5
A
330
0
100
AcDbSymbolTable
 70
     1
  0
DIMSTYLE
105
27
330
A
100
AcDbSymbolTableRecord
100
AcDbDimStyleTableRecord
  2
ISO-25
 70
     0
  3

  4

  5

  6

  7

 40
1.0
 41
2.5
 42
0.625
 43
3.75
 44
1.25
 45
0.0
 46
0.0
 47
0.0
 48
0.0
140
2.5
141
2.5
142
0.0
143
0.03937007874016
144
1.0
145
0.0
146
1.0
147
0.625
 71
     0
 72
     0
 73
     0
 74
     0
 75
     0
 76
     0
 77
     1
 78
     8
170
     0
171
     3
172
     1
173
     0
174
     0
175
     0
176
     0
177
     0
178
     0
270
     2
271
     2
272
     2
273
     2
274
     3
340
11
275
     0
280
     0
281
     0
282
     0
283
     0
284
     8
285
     0
286
     0
287
     3
288
     0
  0
ENDTAB
  0
TABLE
  2
BLOCK_RECORD
  5
1
330
0
100
AcDbSymbolTable
 70
     1
  0
BLOCK_RECORD
  5
1F
330
1
100
AcDbSymbolTableRecord
100
AcDbBlockTableRecord
  2
*MODEL_SPACE
  0
BLOCK_RECORD
  5
1B
330
1
100
AcDbSymbolTableRecord
100
AcDbBlockTableRecord
  2
*PAPER_SPACE
  0
ENDTAB
  0
ENDSEC
  0
SECTION
  2
BLOCKS
  0
BLOCK
  5
20
330
1F
100
AcDbEntity
  8
0
100
AcDbBlockBegin
  2
*MODEL_SPACE
 70
     0
 10
0.0
 20
0.0
 30
0.0
  3
*MODEL_SPACE
  1

  0
ENDBLK
  5
21
330
1F
100
AcDbEntity
  8
0
100
AcDbBlockEnd
  0
BLOCK
  5
1C
330
1B
100
AcDbEntity
 67
     1
  8
0
100
AcDbBlockBegin
  2
*PAPER_SPACE
  1

  0
ENDBLK
  5
1D
330
1B
100
AcDbEntity
 67
     1
  8
0
100
AcDbBlockEnd
  0
ENDSEC
  0
SECTION
  2
ENTITIES
  0
LWPOLYLINE
  5
100
100
AcDbEntity
  8
Layer_1
 62
7
100
AcDbPolyline
 90
24
 70
1
 10
3.970833
 20
291.375004
 30
0.0
 10
26.552500
 20
291.375004
 30
0.0
 10
26.552500
 20
295.375004
 30
0.0
 10
53.389166
 20
295.375004
 30
0.0
 10
53.389166
 20
291.375004
 30
0.0
 10
75.970833
 20
291.375004
 30
0.0
 10
75.970833
 20
271.460004
 30
0.0
 10
79.970833
 20
271.460004
 30
0.0
 10
79.970833
 20
247.290004
 30
0.0
 10
75.970833
 20
247.290004
 30
0.0
 10
75.970833
 20
223.460004
 30
0.0
 10
79.970833
 20
223.460004
 30
0.0
 10
79.970833
 20
199.290004
 30
0.0
 10
75.970833
 20
199.290004
 30
0.0
 10
75.970833
 20
179.375004
 30
0.0
 10
53.389166
 20
179.375004
 30
0.0
 10
53.389166
 20
175.375004
 30
0.0
 10
26.552500
 20
175.375004
 30
0.0
 10
26.552500
 20
179.375004
 30
0.0
 10
3.970833
 20
179.375004
 30
0.0
 10
14.554166
 20
199.290004
 30
0.0
 10
14.554166
 20
223.460004
 30
0.0
 10
14.554166
 20
247.290004
 30
0.0
 10
14.554166
 20
271.460004
 30
0.0
  0
LWPOLYLINE
  5
101
100
AcDbEntity
  8
Layer_1
 62
7
100
AcDbPolyline
 90
48
 70
1
 10
81.000000
 20
91.500000
 30
0.0
 10
102.453460
 20
91.500000
 30
0.0
 10
102.453460
 20
95.500000
 30
0.0
 10
124.161920
 20
95.500000
 30
0.0
 10
124.161920
 20
91.500000
 30
0.0
 10
145.530380
 20
91.500000
 30
0.0
 10
145.530380
 20
95.500000
 30
0.0
 10
167.238850
 20
95.500000
 30
0.0
 10
167.238850
 20
91.500000
 30
0.0
 10
188.607310
 20
91.500000
 30
0.0
 10
188.607310
 20
95.500000
 30
0.0
 10
210.315770
 20
95.500000
 30
0.0
 10
210.315770
 20
91.500000
 30
0.0
 10
231.684230
 20
91.500000
 30
0.0
 10
231.684230
 20
95.500000
 30
0.0
 10
253.392690
 20
95.500000
 30
0.0
 10
253.392690
 20
91.500000
 30
0.0
 10
274.761150
 20
91.500000
 30
0.0
 10
274.761150
 20
95.500000
 30
0.0
 10
296.469620
 20
95.500000
 30
0.0
 10
296.469620
 20
91.500000
 30
0.0
 10
317.838080
 20
91.500000
 30
0.0
 10
317.838080
 20
95.500000
 30
0.0
 10
339.546540
 20
95.500000
 30
0.0
 10
339.546540
 20
91.500000
 30
0.0
 10
361.000000
 20
91.500000
 30
0.0
 10
361.000000
 20
68.748330
 30
0.0
 10
357.000000
 20
68.748330
 30
0.0
 10
357.000000
 20
42.251670
 30
0.0
 10
361.000000
 20
42.251670
 30
0.0
 10
361.000000
 20
19.500000
 30
0.0
 10
339.546540
 20
19.500000
 30
0.0
 10
317.838080
 20
19.500000
 30
0.0
 10
296.469620
 20
19.500000
 30
0.0
 10
274.761150
 20
19.500000
 30
0.0
 10
253.392690
 20
19.500000
 30
0.0
 10
231.684230
 20
19.500000
 30
0.0
 10
210.315770
 20
19.500000
 30
0.0
 10
188.607310
 20
19.500000
 30
0.0
 10
167.238850
 20
19.500000
 30
0.0
 10
145.530380
 20
19.500000
 30
0.0
 10
124.161920
 20
19.500000
 30
0.0
 10
102.453460
 20
19.500000
 30
0.0
 10
81.000000
 20
19.500000
 30
0.0
 10
81.000000
 20
42.251670
 30
0.0
 10
85.000000
 20
42.251670
 30
0.0
 10
85.000000
 20
68.748330
 30
0.0
 10
81.000000
 20
68.748330
 30
0.0
  0
LWPOLYLINE
  5
102
100
AcDbEntity
  8
Layer_1
 62
7
100
AcDbPolyline
 90
68
 70
1
 10
81.000000
 20
216.000000
 30
0.0
 10
102.623460
 20
216.000000
 30
0.0
 10
102.623460
 20
212.000000
 30
0.0
 10
123.991920
 20
212.000000
 30
0.0
 10
123.991920
 20
216.000000
 30
0.0
 10
145.700380
 20
216.000000
 30
0.0
 10
145.700380
 20
212.000000
 30
0.0
 10
167.068850
 20
212.000000
 30
0.0
 10
167.068850
 20
216.000000
 30
0.0
 10
188.777310
 20
216.000000
 30
0.0
 10
188.777310
 20
212.000000
 30
0.0
 10
210.145770
 20
212.000000
 30
0.0
 10
210.145770
 20
216.000000
 30
0.0
 10
231.854230
 20
216.000000
 30
0.0
 10
231.854230
 20
212.000000
 30
0.0
 10
253.222690
 20
212.000000
 30
0.0
 10
253.222690
 20
216.000000
 30
0.0
 10
274.931150
 20
216.000000
 30
0.0
 10
274.931150
 20
212.000000
 30
0.0
 10
296.299620
 20
212.000000
 30
0.0
 10
296.299620
 20
216.000000
 30
0.0
 10
318.008080
 20
216.000000
 30
0.0
 10
318.008080
 20
212.000000
 30
0.0
 10
339.376540
 20
212.000000
 30
0.0
 10
339.376540
 20
216.000000
 30
0.0
 10
361.000000
 20
216.000000
 30
0.0
 10
361.000000
 20
191.915000
 30
0.0
 10
357.000000
 20
191.915000
 30
0.0
 10
357.000000
 20
168.085000
 30
0.0
 10
361.000000
 20
168.085000
 30
0.0
 10
361.000000
 20
143.915000
 30
0.0
 10
357.000000
 20
143.915000
 30
0.0
 10
357.000000
 20
120.085000
 30
0.0
 10
361.000000
 20
120.085000
 30
0.0
 10
361.000000
 20
96.000000
 30
0.0
 10
339.376540
 20
96.000000
 30
0.0
 10
339.376540
 20
100.000000
 30
0.0
 10
318.008080
 20
100.000000
 30
0.0
 10
318.008080
 20
96.000000
 30
0.0
 10
296.299620
 20
96.000000
 30
0.0
 10
296.299620
 20
100.000000
 30
0.0
 10
274.931150
 20
100.000000
 30
0.0
 10
274.931150
 20
96.000000
 30
0.0
 10
253.222690
 20
96.000000
 30
0.0
 10
253.222690
 20
100.000000
 30
0.0
 10
231.854230
 20
100.000000
 30
0.0
 10
231.854230
 20
96.000000
 30
0.0
 10
210.145770
 20
96.000000
 30
0.0
 10
210.145770
 20
100.000000
 30
0.0
 10
188.777310
 20
100.000000
 30
0.0
 10
188.777310
 20
96.000000
 30
0.0
 10
167.068850
 20
96.000000
 30
0.0
 10
167.068850
 20
100.000000
 30
0.0
 10
145.700380
 20
100.000000
 30
0.0
 10
145.700380
 20
96.000000
 30
0.0
 10
123.991920
 20
96.000000
 30
0.0
 10
123.991920
 20
100.000000
 30
0.0
 10
102.623460
 20
100.000000
 30
0.0
 10
102.623460
 20
96.000000
 30
0.0
 10
81.000000
 20
96.000000
 30
0.0
 10
81.000000
 20
120.085000
 30
0.0
 10
85.000000
 20
120.085000
 30
0.0
 10
85.000000
 20
143.915000
 30
0.0
 10
81.000000
 20
143.915000
 30
0.0
 10
81.000000
 20
168.085000
 30
0.0
 10
85.000000
 20
168.085000
 30
0.0
 10
85.000000
 20
191.915000
 30
0.0
 10
81.000000
 20
191.915000
 30
0.0
  0
LWPOLYLINE
  5
103
100
AcDbEntity
  8
Layer_1
 62
7
100
AcDbPolyline
 90
24
 70
1
 10
4.000070
 20
169.787503
 30
0.0
 10
26.581740
 20
169.787503
 30
0.0
 10
26.581740
 20
173.787503
 30
0.0
 10
53.418400
 20
173.787503
 30
0.0
 10
53.418400
 20
169.787503
 30
0.0
 10
76.000070
 20
169.787503
 30
0.0
 10
76.000070
 20
149.872503
 30
0.0
 10
80.000070
 20
149.872503
 30
0.0
 10
80.000070
 20
125.702503
 30
0.0
 10
76.000070
 20
125.702503
 30
0.0
 10
76.000070
 20
101.872503
 30
0.0
 10
80.000070
 20
101.872503
 30
0.0
 10
80.000070
 20
77.702503
 30
0.0
 10
76.000070
 20
77.702503
 30
0.0
 10
76.000070
 20
57.787503
 30
0.0
 10
53.418400
 20
57.787503
 30
0.0
 10
53.418400
 20
53.787503
 30
0.0
 10
26.581740
 20
53.787503
 30
0.0
 10
26.581740
 20
57.787503
 30
0.0
 10
4.000070
 20
57.787503
 30
0.0
 10
4.000070
 20
77.702503
 30
0.0
 10
4.000070
 20
101.872503
 30
0.0
 10
4.000070
 20
125.702503
 30
0.0
 10
4.000070
 20
149.872503
 30
0.0
  0
SPLINE
  5
104
100
AcDbEntity
  8
Layer_1
 62
3
100
AcDbSpline
 70
8
 71
3
 72
8
 73
4
 74
0
 40
0
 40
0
 40
0
 40
0
 40
1
 40
1
 40
1
 40
1
 10
23.847175
 20
192.242550
 30
0.0
 10
23.670786
 20
192.242550
 30
0.0
 10
23.516446
 20
192.272883
 30
0.0
 10
23.384154
 20
192.333550
 30
0.0
  0
SPLINE
  5
105
100
AcDbEntity
  8
Layer_1
 62
3
100
AcDbSpline
 70
8
 71
3
 72
8
 73
4
 74
0
 40
0
 40
0
 40
0
 40
0
 40
1
 40
1
 40
1
 40
1
 10
23.384154
 20
192.333550
 30
0.0
 10
23.251863
 20
192.399683
 30
0.0
 10
23.141620
 20
192.485123
 30
0.0
 10
23.053425
 20
192.589870
 30
0.0
  0
SPLINE
  5
106
100
AcDbEntity
  8
Layer_1
 62
3
100
AcDbSpline
 70
8
 71
3
 72
8
 73
4
 74
0
 40
0
 40
0
 40
0
 40
0
 40
1
 40
1
 40
1
 40
1
 10
23.053425
 20
192.589870
 30
0.0
 10
22.965230
 20
192.694597
 30
0.0
 10
22.899084
 20
192.813107
 30
0.0
 10
22.854987
 20
192.945400
 30
0.0
  0
SPLINE
  5
107
100
AcDbEntity
  8
Layer_1
 62
3
100
AcDbSpline
 70
8
 71
3
 72
8
 73
4
 74
0
 40
0
 40
0
 40
0
 40
0
 40
1
 40
1
 40
1
 40
1
 10
22.854987
 20
192.945400
 30
0.0
 10
22.810887
 20
193.083207
 30
0.0
 10
22.788837
 20
193.221010
 30
0.0
 10
22.788837
 20
193.358810
 30
0.0
  0
SPLINE
  5
108
100
AcDbEntity
  8
Layer_1
 62
3
100
AcDbSpline
 70
8
 71
3
 72
8
 73
4
 74
0
 40
0
 40
0
 40
0
 40
0
 40
1
 40
1
 40
1
 40
1
 10
22.788837
 20
193.358810
 30
0.0
 10
22.788837
 20
193.496617
 30
0.0
 10
22.810887
 20
193.631667
 30
0.0
 10
22.854987
 20
193.763960
 30
0.0
  0
SPLINE
  5
109
100
AcDbEntity
  8
Layer_1
 62
3
100
AcDbSpline
 70
8
 71
3
 72
8
 73
4
 74
0
 40
0
 40
0
 40
0
 40
0
 40
1
 40
1
 40
1
 40
1
 10
22.854987
 20
193.763960
 30
0.0
 10
22.899087
 20
193.896247
 30
0.0
 10
22.965233
 20
194.014757
 30
0.0
 10
23.053425
 20
194.119490
 30
0.0
  0
SPLINE
  5
10a
100
AcDbEntity
  8
Layer_1
 62
3
100
AcDbSpline
 70
8
 71
3
 72
8
 73
4
 74
0
 40
0
 40
0
 40
0
 40
0
 40
1
 40
1
 40
1
 40
1
 10
23.053425
 20
194.119490
 30
0.0
 10
23.141620
 20
194.224223
 30
0.0
 10
23.251863
 20
194.306907
 30
0.0
 10
23.384154
 20
194.367540
 30
0.0
  0
SPLINE
  5
10b
100
AcDbEntity
  8
Layer_1
 62
3
100
AcDbSpline
 70
8
 71
3
 72
8
 73
4
 74
0
 40
0
 40
0
 40
0
 40
0
 40
1
 40
1
 40
1
 40
1
 10
23.384154
 20
194.367540
 30
0.0
 10
23.516446
 20
194.433673
 30
0.0
 10
23.670786
 20
194.466740
 30
0.0
 10
23.847175
 20
194.466740
 30
0.0
  0
LWPOLYLINE
  5
10c
100
AcDbEntity
  8
Layer_1
 62
7
100
AcDbPolyline
 90
48
 70
1
 10
81.000000
 20
292.500000
 30
0.0
 10
102.453460
 20
292.500000
 30
0.0
 10
124.161920
 20
292.500000
 30
0.0
 10
145.530380
 20
292.500000
 30
0.0
 10
167.238850
 20
292.500000
 30
0.0
 10
188.607310
 20
292.500000
 30
0.0
 10
210.315770
 20
292.500000
 30
0.0
 10
231.684230
 20
292.500000
 30
0.0
 10
253.392690
 20
292.500000
 30
0.0
 10
274.761150
 20
292.500000
 30
0.0
 10
296.469620
 20
292.500000
 30
0.0
 10
317.838080
 20
292.500000
 30
0.0
 10
339.546540
 20
292.500000
 30
0.0
 10
361.000000
 20
292.500000
 30
0.0
 10
361.000000
 20
269.748333
 30
0.0
 10
357.000000
 20
269.748333
 30
0.0
 10
357.000000
 20
243.251667
 30
0.0
 10
361.000000
 20
243.251667
 30
0.0
 10
361.000000
 20
220.500000
 30
0.0
 10
339.546540
 20
220.500000
 30
0.0
 10
339.546540
 20
216.500000
 30
0.0
 10
317.838080
 20
216.500000
 30
0.0
 10
317.838080
 20
220.500000
 30
0.0
 10
296.469620
 20
220.500000
 30
0.0
 10
296.469620
 20
216.500000
 30
0.0
 10
274.761150
 20
216.500000
 30
0.0
 10
274.761150
 20
220.500000
 30
0.0
 10
253.392690
 20
220.500000
 30
0.0
 10
253.392690
 20
216.500000
 30
0.0
 10
231.684230
 20
216.500000
 30
0.0
 10
231.684230
 20
220.500000
 30
0.0
 10
210.315770
 20
220.500000
 30
0.0
 10
210.315770
 20
216.500000
 30
0.0
 10
188.607310
 20
216.500000
 30
0.0
 10
188.607310
 20
220.500000
 30
0.0
 10
167.238850
 20
220.500000
 30
0.0
 10
167.238850
 20
216.500000
 30
0.0
 10
145.530380
 20
216.500000
 30
0.0
 10
145.530380
 20
220.500000
 30
0.0
 10
124.161920
 20
220.500000
 30
0.0
 10
124.161920
 20
216.500000
 30
0.0
 10
102.453460
 20
216.500000
 30
0.0
 10
102.453460
 20
220.500000
 30
0.0
 10
81.000000
 20
220.500000
 30
0.0
 10
81.000000
 20
243.251667
 30
0.0
 10
85.000000
 20
243.251667
 30
0.0
 10
85.000000
 20
269.748333
 30
0.0
 10
81.000000
 20
269.748333
 30
0.0
  0
SPLINE
  5
10d
100
AcDbEntity
  8
Layer_1
 62
3
100
AcDbSpline
 70
8
 71
3
 72
8
 73
4
 74
0
 40
0
 40
0
 40
0
 40
0
 40
1
 40
1
 40
1
 40
1
 10
31.015729
 20
194.466740
 30
0.0
 10
31.721284
 20
194.466740
 30
0.0
 10
32.322109
 20
194.359253
 30
0.0
 10
32.818203
 20
194.144280
 30
0.0
  0
SPLINE
  5
10e
100
AcDbEntity
  8
Layer_1
 62
3
100
AcDbSpline
 70
8
 71
3
 72
8
 73
4
 74
0
 40
0
 40
0
 40
0
 40
0
 40
1
 40
1
 40
1
 40
1
 10
32.818203
 20
194.144280
 30
0.0
 10
33.314297
 20
193.934820
 30
0.0
 10
33.719440
 20
193.648190
 30
0.0
 10
34.033633
 20
193.284390
 30
0.0
  0
SPLINE
  5
10f
100
AcDbEntity
  8
Layer_1
 62
3
100
AcDbSpline
 70
8
 71
3
 72
8
 73
4
 74
0
 40
0
 40
0
 40
0
 40
0
 40
1
 40
1
 40
1
 40
1
 10
34.033633
 20
193.284390
 30
0.0
 10
34.347826
 20
192.920583
 30
0.0
 10
34.576580
 20
192.498903
 30
0.0
 10
34.719896
 20
192.019350
 30
0.0
  0
SPLINE
  5
110
100
AcDbEntity
  8
Layer_1
 62
3
100
AcDbSpline
 70
8
 71
3
 72
8
 73
4
 74
0
 40
0
 40
0
 40
0
 40
0
 40
1
 40
1
 40
1
 40
1
 10
34.719896
 20
192.019350
 30
0.0
 10
34.863212
 20
191.539790
 30
0.0
 10
34.934870
 20
191.032670
 30
0.0
 10
34.934870
 20
190.497990
 30
0.0
  0
SPLINE
  5
111
100
AcDbEntity
  8
Layer_1
 62
3
100
AcDbSpline
 70
8
 71
3
 72
8
 73
4
 74
0
 40
0
 40
0
 40
0
 40
0
 40
1
 40
1
 40
1
 40
1
 10
34.934870
 20
190.497990
 30
0.0
 10
34.934870
 20
190.156237
 30
0.0
 10
34.893529
 20
189.822753
 30
0.0
 10
34.810846
 20
189.497540
 30
0.0
  0
SPLINE
  5
112
100
AcDbEntity
  8
Layer_1
 62
3
100
AcDbSpline
 70
8
 71
3
 72
8
 73
4
 74
0
 40
0
 40
0
 40
0
 40
0
 40
1
 40
1
 40
1
 40
1
 10
34.810846
 20
189.497540
 30
0.0
 10
34.733676
 20
189.172320
 30
0.0
 10
34.617921
 20
188.863640
 30
0.0
 10
34.463581
 20
188.571500
 30
0.0
  0
SPLINE
  5
113
100
AcDbEntity
  8
Layer_1
 62
3
100
AcDbSpline
 70
8
 71
3
 72
8
 73
4
 74
0
 40
0
 40
0
 40
0
 40
0
 40
1
 40
1
 40
1
 40
1
 10
34.463581
 20
188.571500
 30
0.0
 10
34.303728
 20
188.284867
 30
0.0
 10
34.105291
 20
188.023040
 30
0.0
 10
33.868268
 20
187.786020
 30
0.0
  0
SPLINE
  5
114
100
AcDbEntity
  8
Layer_1
 62
3
100
AcDbSpline
 70
8
 71
3
 72
8
 73
4
 74
0
 40
0
 40
0
 40
0
 40
0
 40
1
 40
1
 40
1
 40
1
 10
33.868268
 20
187.786020
 30
0.0
 10
33.631245
 20
187.554507
 30
0.0
 10
33.355638
 20
187.361580
 30
0.0
 10
33.041445
 20
187.207240
 30
0.0
  0
SPLINE
  5
115
100
AcDbEntity
  8
Layer_1
 62
3
100
AcDbSpline
 70
8
 71
3
 72
8
 73
4
 74
0
 40
0
 40
0
 40
0
 40
0
 40
1
 40
1
 40
1
 40
1
 10
33.041445
 20
187.207240
 30
0.0
 10
32.843008
 20
187.058413
 30
0.0
 10
32.647326
 20
186.984000
 30
0.0
 10
32.454401
 20
186.984000
 30
0.0
  0
SPLINE
  5
116
100
AcDbEntity
  8
Layer_1
 62
3
100
AcDbSpline
 70
8
 71
3
 72
8
 73
4
 74
0
 40
0
 40
0
 40
0
 40
0
 40
1
 40
1
 40
1
 40
1
 10
32.454401
 20
186.984000
 30
0.0
 10
32.338646
 20
186.984000
 30
0.0
 10
32.233915
 20
187.008800
 30
0.0
 10
32.140208
 20
187.058400
 30
0.0
  0
SPLINE
  5
117
100
AcDbEntity
  8
Layer_1
 62
3
100
AcDbSpline
 70
8
 71
3
 72
8
 73
4
 74
0
 40
0
 40
0
 40
0
 40
0
 40
1
 40
1
 40
1
 40
1
 10
32.140208
 20
187.058400
 30
0.0
 10
32.040989
 20
187.108000
 30
0.0
 10
31.955551
 20
187.171390
 30
0.0
 10
31.883893
 20
187.248570
 30
0.0
  0
SPLINE
  5
118
100
AcDbEntity
  8
Layer_1
 62
3
100
AcDbSpline
 70
8
 71
3
 72
8
 73
4
 74
0
 40
0
 40
0
 40
0
 40
0
 40
1
 40
1
 40
1
 40
1
 10
31.883893
 20
187.248570
 30
0.0
 10
31.812235
 20
187.331250
 30
0.0
 10
31.757114
 20
187.422200
 30
0.0
 10
31.718529
 20
187.521420
 30
0.0
  0
SPLINE
  5
119
100
AcDbEntity
  8
Layer_1
 62
3
100
AcDbSpline
 70
8
 71
3
 72
8
 73
4
 74
0
 40
0
 40
0
 40
0
 40
0
 40
1
 40
1
 40
1
 40
1
 10
31.718529
 20
187.521420
 30
0.0
 10
31.679942
 20
187.620640
 30
0.0
 10
31.660649
 20
187.722617
 30
0.0
 10
31.660649
 20
187.827350
 30
0.0
  0
SPLINE
  5
11a
100
AcDbEntity
  8
Layer_1
 62
3
100
AcDbSpline
 70
8
 71
3
 72
8
 73
4
 74
0
 40
0
 40
0
 40
0
 40
0
 40
1
 40
1
 40
1
 40
1
 10
31.660649
 20
187.827350
 30
0.0
 10
31.660649
 20
187.921057
 30
0.0
 10
31.679942
 20
188.012007
 30
0.0
 10
31.718529
 20
188.100200
 30
0.0
  0
SPLINE
  5
11b
100
AcDbEntity
  8
Layer_1
 62
3
100
AcDbSpline
 70
8
 71
3
 72
8
 73
4
 74
0
 40
0
 40
0
 40
0
 40
0
 40
1
 40
1
 40
1
 40
1
 10
31.718529
 20
188.100200
 30
0.0
 10
31.757116
 20
188.193907
 30
0.0
 10
31.820505
 20
188.276590
 30
0.0
 10
31.908698
 20
188.348250
 30
0.0
  0
SPLINE
  5
11c
100
AcDbEntity
  8
Layer_1
 62
3
100
AcDbSpline
 70
8
 71
3
 72
8
 73
4
 74
0
 40
0
 40
0
 40
0
 40
0
 40
1
 40
1
 40
1
 40
1
 10
31.908698
 20
188.348250
 30
0.0
 10
32.333134
 20
188.552197
 30
0.0
 10
32.674887
 20
188.819533
 30
0.0
 10
32.933958
 20
189.150260
 30
0.0
  0
SPLINE
  5
11d
100
AcDbEntity
  8
Layer_1
 62
3
100
AcDbSpline
 70
8
 71
3
 72
8
 73
4
 74
0
 40
0
 40
0
 40
0
 40
0
 40
1
 40
1
 40
1
 40
1
 10
32.933958
 20
189.150260
 30
0.0
 10
33.187517
 20
189.480993
 30
0.0
 10
33.314297
 20
189.886137
 30
0.0
 10
33.314297
 20
190.365690
 30
0.0
  0
SPLINE
  5
11e
100
AcDbEntity
  8
Layer_1
 62
3
100
AcDbSpline
 70
8
 71
3
 72
8
 73
4
 74
0
 40
0
 40
0
 40
0
 40
0
 40
1
 40
1
 40
1
 40
1
 10
33.314297
 20
190.365690
 30
0.0
 10
33.314297
 20
190.977543
 30
0.0
 10
33.118616
 20
191.443320
 30
0.0
 10
32.727253
 20
191.763020
 30
0.0
  0
SPLINE
  5
11f
100
AcDbEntity
  8
Layer_1
 62
3
100
AcDbSpline
 70
8
 71
3
 72
8
 73
4
 74
0
 40
0
 40
0
 40
0
 40
0
 40
1
 40
1
 40
1
 40
1
 10
32.727253
 20
191.763020
 30
0.0
 10
32.330378
 20
192.082727
 30
0.0
 10
31.710260
 20
192.242580
 30
0.0
 10
30.866901
 20
192.242580
 30
0.0
  0
LWPOLYLINE
  5
120
100
AcDbEntity
  8
Layer_1
 62
3
100
AcDbPolyline
 90
2
 70
0
 10
23.847175
 20
194.466740
 30
0.0
 10
31.015729
 20
194.466740
 30
0.0
  0
SPLINE
  5
121
100
AcDbEntity
  8
Layer_1
 62
3
100
AcDbSpline
 70
8
 71
3
 72
8
 73
4
 74
0
 40
0
 40
0
 40
0
 40
0
 40
1
 40
1
 40
1
 40
1
 10
33.752513
 20
204.278612
 30
0.0
 10
33.906853
 20
204.278612
 30
0.0
 10
34.041901
 20
204.251052
 30
0.0
 10
34.157656
 20
204.195932
 30
0.0
  0
SPLINE
  5
122
100
AcDbEntity
  8
Layer_1
 62
3
100
AcDbSpline
 70
8
 71
3
 72
8
 73
4
 74
0
 40
0
 40
0
 40
0
 40
0
 40
1
 40
1
 40
1
 40
1
 10
34.157656
 20
204.195932
 30
0.0
 10
34.273411
 20
204.140812
 30
0.0
 10
34.369874
 20
204.066398
 30
0.0
 10
34.447044
 20
203.972690
 30
0.0
  0
SPLINE
  5
123
100
AcDbEntity
  8
Layer_1
 62
3
100
AcDbSpline
 70
8
 71
3
 72
8
 73
4
 74
0
 40
0
 40
0
 40
0
 40
0
 40
1
 40
1
 40
1
 40
1
 10
34.447044
 20
203.972690
 30
0.0
 10
34.524214
 20
203.884495
 30
0.0
 10
34.582092
 20
203.779764
 30
0.0
 10
34.620677
 20
203.658497
 30
0.0
  0
SPLINE
  5
124
100
AcDbEntity
  8
Layer_1
 62
3
100
AcDbSpline
 70
8
 71
3
 72
8
 73
4
 74
0
 40
0
 40
0
 40
0
 40
0
 40
1
 40
1
 40
1
 40
1
 10
34.620677
 20
203.658497
 30
0.0
 10
34.659264
 20
203.542742
 30
0.0
 10
34.678557
 20
203.424230
 30
0.0
 10
34.678557
 20
203.302963
 30
0.0
  0
SPLINE
  5
125
100
AcDbEntity
  8
Layer_1
 62
3
100
AcDbSpline
 70
8
 71
3
 72
8
 73
4
 74
0
 40
0
 40
0
 40
0
 40
0
 40
1
 40
1
 40
1
 40
1
 10
34.678557
 20
203.302963
 30
0.0
 10
34.678557
 20
203.187208
 30
0.0
 10
34.662020
 20
203.071452
 30
0.0
 10
34.628947
 20
202.955697
 30
0.0
  0
SPLINE
  5
126
100
AcDbEntity
  8
Layer_1
 62
3
100
AcDbSpline
 70
8
 71
3
 72
8
 73
4
 74
0
 40
0
 40
0
 40
0
 40
0
 40
1
 40
1
 40
1
 40
1
 10
34.628947
 20
202.955697
 30
0.0
 10
34.590360
 20
202.845454
 30
0.0
 10
34.535239
 20
202.743480
 30
0.0
 10
34.463583
 20
202.649773
 30
0.0
  0
SPLINE
  5
127
100
AcDbEntity
  8
Layer_1
 62
3
100
AcDbSpline
 70
8
 71
3
 72
8
 73
4
 74
0
 40
0
 40
0
 40
0
 40
0
 40
1
 40
1
 40
1
 40
1
 10
34.463583
 20
202.649773
 30
0.0
 10
34.386412
 20
202.561578
 30
0.0
 10
34.295462
 20
202.489920
 30
0.0
 10
34.190731
 20
202.434799
 30
0.0
  0
SPLINE
  5
128
100
AcDbEntity
  8
Layer_1
 62
3
100
AcDbSpline
 70
8
 71
3
 72
8
 73
4
 74
0
 40
0
 40
0
 40
0
 40
0
 40
1
 40
1
 40
1
 40
1
 10
34.190731
 20
202.434799
 30
0.0
 10
34.080488
 20
202.379679
 30
0.0
 10
33.950952
 20
202.349362
 30
0.0
 10
33.802124
 20
202.343849
 30
0.0
  0
LWPOLYLINE
  5
129
100
AcDbEntity
  8
Layer_1
 62
3
100
AcDbPolyline
 90
2
 70
0
 10
30.866901
 20
192.242580
 30
0.0
 10
23.847175
 20
192.242550
 30
0.0
  0
SPLINE
  5
12a
100
AcDbEntity
  8
Layer_1
 62
3
100
AcDbSpline
 70
8
 71
3
 72
8
 73
4
 74
0
 40
0
 40
0
 40
0
 40
0
 40
1
 40
1
 40
1
 40
1
 10
33.182007
 20
202.343849
 30
0.0
 10
33.385957
 20
202.233606
 30
0.0
 10
33.592663
 20
202.082022
 30
0.0
 10
33.802124
 20
201.889097
 30
0.0
  0
SPLINE
  5
12b
100
AcDbEntity
  8
Layer_1
 62
3
100
AcDbSpline
 70
8
 71
3
 72
8
 73
4
 74
0
 40
0
 40
0
 40
0
 40
0
 40
1
 40
1
 40
1
 40
1
 10
33.802124
 20
201.889097
 30
0.0
 10
34.011586
 20
201.696172
 30
0.0
 10
34.190731
 20
201.475686
 30
0.0
 10
34.339559
 20
201.227639
 30
0.0
  0
SPLINE
  5
12c
100
AcDbEntity
  8
Layer_1
 62
3
100
AcDbSpline
 70
8
 71
3
 72
8
 73
4
 74
0
 40
0
 40
0
 40
0
 40
0
 40
1
 40
1
 40
1
 40
1
 10
34.339559
 20
201.227639
 30
0.0
 10
34.482875
 20
200.979592
 30
0.0
 10
34.593118
 20
200.712252
 30
0.0
 10
34.670288
 20
200.425620
 30
0.0
  0
SPLINE
  5
12d
100
AcDbEntity
  8
Layer_1
 62
3
100
AcDbSpline
 70
8
 71
3
 72
8
 73
4
 74
0
 40
0
 40
0
 40
0
 40
0
 40
1
 40
1
 40
1
 40
1
 10
34.670288
 20
200.425620
 30
0.0
 10
34.741946
 20
200.144501
 30
0.0
 10
34.777775
 20
199.860625
 30
0.0
 10
34.777775
 20
199.573993
 30
0.0
  0
SPLINE
  5
12e
100
AcDbEntity
  8
Layer_1
 62
3
100
AcDbSpline
 70
8
 71
3
 72
8
 73
4
 74
0
 40
0
 40
0
 40
0
 40
0
 40
1
 40
1
 40
1
 40
1
 10
34.777775
 20
199.573993
 30
0.0
 10
34.777775
 20
199.188142
 30
0.0
 10
34.717141
 20
198.818828
 30
0.0
 10
34.595874
 20
198.466050
 30
0.0
  0
SPLINE
  5
12f
100
AcDbEntity
  8
Layer_1
 62
3
100
AcDbSpline
 70
8
 71
3
 72
8
 73
4
 74
0
 40
0
 40
0
 40
0
 40
0
 40
1
 40
1
 40
1
 40
1
 10
34.595874
 20
198.466050
 30
0.0
 10
34.469095
 20
198.113273
 30
0.0
 10
34.276169
 20
197.801836
 30
0.0
 10
34.017098
 20
197.531740
 30
0.0
  0
SPLINE
  5
130
100
AcDbEntity
  8
Layer_1
 62
3
100
AcDbSpline
 70
8
 71
3
 72
8
 73
4
 74
0
 40
0
 40
0
 40
0
 40
0
 40
1
 40
1
 40
1
 40
1
 10
34.017098
 20
197.531740
 30
0.0
 10
33.758027
 20
197.267157
 30
0.0
 10
33.430054
 20
197.054938
 30
0.0
 10
33.033179
 20
196.895083
 30
0.0
  0
SPLINE
  5
131
100
AcDbEntity
  8
Layer_1
 62
3
100
AcDbSpline
 70
8
 71
3
 72
8
 73
4
 74
0
 40
0
 40
0
 40
0
 40
0
 40
1
 40
1
 40
1
 40
1
 10
33.033179
 20
196.895083
 30
0.0
 10
32.636304
 20
196.740743
 30
0.0
 10
32.176040
 20
196.663573
 30
0.0
 10
31.652385
 20
196.663573
 30
0.0
  0
LWPOLYLINE
  5
132
100
AcDbEntity
  8
Layer_1
 62
3
100
AcDbPolyline
 90
2
 70
0
 10
33.802124
 20
202.343849
 30
0.0
 10
33.182007
 20
202.343849
 30
0.0
  0
SPLINE
  5
133
100
AcDbEntity
  8
Layer_1
 62
3
100
AcDbSpline
 70
8
 71
3
 72
8
 73
4
 74
0
 40
0
 40
0
 40
0
 40
0
 40
1
 40
1
 40
1
 40
1
 10
27.336369
 20
196.663573
 30
0.0
 10
27.182029
 20
196.663573
 30
0.0
 10
27.046981
 20
196.691140
 30
0.0
 10
26.931226
 20
196.746273
 30
0.0
  0
SPLINE
  5
134
100
AcDbEntity
  8
Layer_1
 62
3
100
AcDbSpline
 70
8
 71
3
 72
8
 73
4
 74
0
 40
0
 40
0
 40
0
 40
0
 40
1
 40
1
 40
1
 40
1
 10
26.931226
 20
196.746273
 30
0.0
 10
26.815471
 20
196.801406
 30
0.0
 10
26.719008
 20
196.873063
 30
0.0
 10
26.641838
 20
196.961243
 30
0.0
  0
SPLINE
  5
135
100
AcDbEntity
  8
Layer_1
 62
3
100
AcDbSpline
 70
8
 71
3
 72
8
 73
4
 74
0
 40
0
 40
0
 40
0
 40
0
 40
1
 40
1
 40
1
 40
1
 10
26.641838
 20
196.961243
 30
0.0
 10
26.559156
 20
197.054949
 30
0.0
 10
26.498522
 20
197.159680
 30
0.0
 10
26.459937
 20
197.275435
 30
0.0
  0
SPLINE
  5
136
100
AcDbEntity
  8
Layer_1
 62
3
100
AcDbSpline
 70
8
 71
3
 72
8
 73
4
 74
0
 40
0
 40
0
 40
0
 40
0
 40
1
 40
1
 40
1
 40
1
 10
26.459937
 20
197.275435
 30
0.0
 10
26.421350
 20
197.391190
 30
0.0
 10
26.402057
 20
197.509702
 30
0.0
 10
26.402057
 20
197.630969
 30
0.0
  0
SPLINE
  5
137
100
AcDbEntity
  8
Layer_1
 62
3
100
AcDbSpline
 70
8
 71
3
 72
8
 73
4
 74
0
 40
0
 40
0
 40
0
 40
0
 40
1
 40
1
 40
1
 40
1
 10
26.402057
 20
197.630969
 30
0.0
 10
26.402057
 20
197.752236
 30
0.0
 10
26.421350
 20
197.870748
 30
0.0
 10
26.459937
 20
197.986503
 30
0.0
  0
SPLINE
  5
138
100
AcDbEntity
  8
Layer_1
 62
3
100
AcDbSpline
 70
8
 71
3
 72
8
 73
4
 74
0
 40
0
 40
0
 40
0
 40
0
 40
1
 40
1
 40
1
 40
1
 10
26.459937
 20
197.986503
 30
0.0
 10
26.498524
 20
198.107770
 30
0.0
 10
26.559157
 20
198.212501
 30
0.0
 10
26.641838
 20
198.300696
 30
0.0
  0
SPLINE
  5
139
100
AcDbEntity
  8
Layer_1
 62
3
100
AcDbSpline
 70
8
 71
3
 72
8
 73
4
 74
0
 40
0
 40
0
 40
0
 40
0
 40
1
 40
1
 40
1
 40
1
 10
26.641838
 20
198.300696
 30
0.0
 10
26.719008
 20
198.394403
 30
0.0
 10
26.815471
 20
198.468817
 30
0.0
 10
26.931226
 20
198.523938
 30
0.0
  0
SPLINE
  5
13a
100
AcDbEntity
  8
Layer_1
 62
3
100
AcDbSpline
 70
8
 71
3
 72
8
 73
4
 74
0
 40
0
 40
0
 40
0
 40
0
 40
1
 40
1
 40
1
 40
1
 10
26.931226
 20
198.523938
 30
0.0
 10
27.046981
 20
198.579058
 30
0.0
 10
27.182029
 20
198.606618
 30
0.0
 10
27.336369
 20
198.606618
 30
0.0
  0
LWPOLYLINE
  5
13b
100
AcDbEntity
  8
Layer_1
 62
3
100
AcDbPolyline
 90
2
 70
0
 10
31.652385
 20
196.663573
 30
0.0
 10
27.336369
 20
196.663573
 30
0.0
  0
SPLINE
  5
13c
100
AcDbEntity
  8
Layer_1
 62
3
100
AcDbSpline
 70
8
 71
3
 72
8
 73
4
 74
0
 40
0
 40
0
 40
0
 40
0
 40
1
 40
1
 40
1
 40
1
 10
31.685458
 20
198.606618
 30
0.0
 10
31.977602
 20
198.606618
 30
0.0
 10
32.239429
 20
198.650715
 30
0.0
 10
32.470939
 20
198.738910
 30
0.0
  0
SPLINE
  5
13d
100
AcDbEntity
  8
Layer_1
 62
3
100
AcDbSpline
 70
8
 71
3
 72
8
 73
4
 74
0
 40
0
 40
0
 40
0
 40
0
 40
1
 40
1
 40
1
 40
1
 10
32.470939
 20
198.738910
 30
0.0
 10
32.702450
 20
198.827104
 30
0.0
 10
32.895375
 20
198.945615
 30
0.0
 10
33.049715
 20
199.094444
 30
0.0
  0
SPLINE
  5
13e
100
AcDbEntity
  8
Layer_1
 62
3
100
AcDbSpline
 70
8
 71
3
 72
8
 73
4
 74
0
 40
0
 40
0
 40
0
 40
0
 40
1
 40
1
 40
1
 40
1
 10
33.049715
 20
199.094444
 30
0.0
 10
33.204056
 20
199.243272
 30
0.0
 10
33.319811
 20
199.416905
 30
0.0
 10
33.396981
 20
199.615342
 30
0.0
  0
SPLINE
  5
13f
100
AcDbEntity
  8
Layer_1
 62
3
100
AcDbSpline
 70
8
 71
3
 72
8
 73
4
 74
0
 40
0
 40
0
 40
0
 40
0
 40
1
 40
1
 40
1
 40
1
 10
33.396981
 20
199.615342
 30
0.0
 10
33.468639
 20
199.813779
 30
0.0
 10
33.504468
 20
200.020485
 30
0.0
 10
33.504468
 20
200.235459
 30
0.0
  0
SPLINE
  5
140
100
AcDbEntity
  8
Layer_1
 62
3
100
AcDbSpline
 70
8
 71
3
 72
8
 73
4
 74
0
 40
0
 40
0
 40
0
 40
0
 40
1
 40
1
 40
1
 40
1
 10
33.504468
 20
200.235459
 30
0.0
 10
33.504468
 20
200.511067
 30
0.0
 10
33.463127
 20
200.772894
 30
0.0
 10
33.380445
 20
201.020941
 30
0.0
  0
SPLINE
  5
141
100
AcDbEntity
  8
Layer_1
 62
3
100
AcDbSpline
 70
8
 71
3
 72
8
 73
4
 74
0
 40
0
 40
0
 40
0
 40
0
 40
1
 40
1
 40
1
 40
1
 10
33.380445
 20
201.020941
 30
0.0
 10
33.292250
 20
201.268988
 30
0.0
 10
33.162715
 20
201.486718
 30
0.0
 10
32.991838
 20
201.674131
 30
0.0
  0
SPLINE
  5
142
100
AcDbEntity
  8
Layer_1
 62
3
100
AcDbSpline
 70
8
 71
3
 72
8
 73
4
 74
0
 40
0
 40
0
 40
0
 40
0
 40
1
 40
1
 40
1
 40
1
 10
32.991838
 20
201.674131
 30
0.0
 10
32.815449
 20
201.861544
 30
0.0
 10
32.614256
 20
202.013129
 30
0.0
 10
32.388257
 20
202.128884
 30
0.0
  0
SPLINE
  5
143
100
AcDbEntity
  8
Layer_1
 62
3
100
AcDbSpline
 70
8
 71
3
 72
8
 73
4
 74
0
 40
0
 40
0
 40
0
 40
0
 40
1
 40
1
 40
1
 40
1
 10
32.388257
 20
202.128884
 30
0.0
 10
32.156747
 20
202.250151
 30
0.0
 10
31.864603
 20
202.321809
 30
0.0
 10
31.511825
 20
202.343857
 30
0.0
  0
LWPOLYLINE
  5
144
100
AcDbEntity
  8
Layer_1
 62
3
100
AcDbPolyline
 90
2
 70
0
 10
27.336369
 20
198.606618
 30
0.0
 10
31.685458
 20
198.606618
 30
0.0
  0
SPLINE
  5
145
100
AcDbEntity
  8
Layer_1
 62
3
100
AcDbSpline
 70
8
 71
3
 72
8
 73
4
 74
0
 40
0
 40
0
 40
0
 40
0
 40
1
 40
1
 40
1
 40
1
 10
27.328101
 20
202.343857
 30
0.0
 10
27.173761
 20
202.343857
 30
0.0
 10
27.038713
 20
202.371417
 30
0.0
 10
26.922958
 20
202.426537
 30
0.0
  0
SPLINE
  5
146
100
AcDbEntity
  8
Layer_1
 62
3
100
AcDbSpline
 70
8
 71
3
 72
8
 73
4
 74
0
 40
0
 40
0
 40
0
 40
0
 40
1
 40
1
 40
1
 40
1
 10
26.922958
 20
202.426537
 30
0.0
 10
26.807203
 20
202.481657
 30
0.0
 10
26.710740
 20
202.553315
 30
0.0
 10
26.633570
 20
202.641511
 30
0.0
  0
SPLINE
  5
147
100
AcDbEntity
  8
Layer_1
 62
3
100
AcDbSpline
 70
8
 71
3
 72
8
 73
4
 74
0
 40
0
 40
0
 40
0
 40
0
 40
1
 40
1
 40
1
 40
1
 10
26.633570
 20
202.641511
 30
0.0
 10
26.556400
 20
202.735218
 30
0.0
 10
26.498522
 20
202.839948
 30
0.0
 10
26.459937
 20
202.955703
 30
0.0
  0
SPLINE
  5
148
100
AcDbEntity
  8
Layer_1
 62
3
100
AcDbSpline
 70
8
 71
3
 72
8
 73
4
 74
0
 40
0
 40
0
 40
0
 40
0
 40
1
 40
1
 40
1
 40
1
 10
26.459937
 20
202.955703
 30
0.0
 10
26.421350
 20
203.071458
 30
0.0
 10
26.402057
 20
203.189970
 30
0.0
 10
26.402057
 20
203.311237
 30
0.0
  0
SPLINE
  5
149
100
AcDbEntity
  8
Layer_1
 62
3
100
AcDbSpline
 70
8
 71
3
 72
8
 73
4
 74
0
 40
0
 40
0
 40
0
 40
0
 40
1
 40
1
 40
1
 40
1
 10
26.402057
 20
203.311237
 30
0.0
 10
26.402057
 20
203.432504
 30
0.0
 10
26.421350
 20
203.551016
 30
0.0
 10
26.459937
 20
203.666771
 30
0.0
  0
SPLINE
  5
14a
100
AcDbEntity
  8
Layer_1
 62
3
100
AcDbSpline
 70
8
 71
3
 72
8
 73
4
 74
0
 40
0
 40
0
 40
0
 40
0
 40
1
 40
1
 40
1
 40
1
 10
26.459937
 20
203.666771
 30
0.0
 10
26.498524
 20
203.782526
 30
0.0
 10
26.556401
 20
203.884501
 30
0.0
 10
26.633570
 20
203.972696
 30
0.0
  0
SPLINE
  5
14b
100
AcDbEntity
  8
Layer_1
 62
3
100
AcDbSpline
 70
8
 71
3
 72
8
 73
4
 74
0
 40
0
 40
0
 40
0
 40
0
 40
1
 40
1
 40
1
 40
1
 10
26.633570
 20
203.972696
 30
0.0
 10
26.710740
 20
204.066402
 30
0.0
 10
26.807203
 20
204.140816
 30
0.0
 10
26.922958
 20
204.195938
 30
0.0
  0
SPLINE
  5
14c
100
AcDbEntity
  8
Layer_1
 62
3
100
AcDbSpline
 70
8
 71
3
 72
8
 73
4
 74
0
 40
0
 40
0
 40
0
 40
0
 40
1
 40
1
 40
1
 40
1
 10
26.922958
 20
204.195938
 30
0.0
 10
27.038713
 20
204.251058
 30
0.0
 10
27.173761
 20
204.278618
 30
0.0
 10
27.328101
 20
204.278618
 30
0.0
  0
LWPOLYLINE
  5
14d
100
AcDbEntity
  8
Layer_1
 62
3
100
AcDbPolyline
 90
2
 70
0
 10
31.511825
 20
202.343857
 30
0.0
 10
27.328101
 20
202.343857
 30
0.0
  0
SPLINE
  5
14e
100
AcDbEntity
  8
Layer_1
 62
3
100
AcDbSpline
 70
8
 71
3
 72
8
 73
4
 74
0
 40
0
 40
0
 40
0
 40
0
 40
1
 40
1
 40
1
 40
1
 10
29.444766
 20
217.877367
 30
0.0
 10
29.130573
 20
217.877367
 30
0.0
 10
28.857722
 20
217.833270
 30
0.0
 10
28.626211
 20
217.745075
 30
0.0
  0
SPLINE
  5
14f
100
AcDbEntity
  8
Layer_1
 62
3
100
AcDbSpline
 70
8
 71
3
 72
8
 73
4
 74
0
 40
0
 40
0
 40
0
 40
0
 40
1
 40
1
 40
1
 40
1
 10
28.626211
 20
217.745075
 30
0.0
 10
28.394700
 20
217.656881
 30
0.0
 10
28.201775
 20
217.538370
 30
0.0
 10
28.047435
 20
217.389542
 30
0.0
  0
SPLINE
  5
150
100
AcDbEntity
  8
Layer_1
 62
3
100
AcDbSpline
 70
8
 71
3
 72
8
 73
4
 74
0
 40
0
 40
0
 40
0
 40
0
 40
1
 40
1
 40
1
 40
1
 10
28.047435
 20
217.389542
 30
0.0
 10
27.893095
 20
217.240713
 30
0.0
 10
27.780096
 20
217.067080
 30
0.0
 10
27.708438
 20
216.868643
 30
0.0
  0
SPLINE
  5
151
100
AcDbEntity
  8
Layer_1
 62
3
100
AcDbSpline
 70
8
 71
3
 72
8
 73
4
 74
0
 40
0
 40
0
 40
0
 40
0
 40
1
 40
1
 40
1
 40
1
 10
27.708438
 20
216.868643
 30
0.0
 10
27.631268
 20
216.675718
 30
0.0
 10
27.592683
 20
216.474524
 30
0.0
 10
27.592683
 20
216.265062
 30
0.0
  0
SPLINE
  5
152
100
AcDbEntity
  8
Layer_1
 62
3
100
AcDbSpline
 70
8
 71
3
 72
8
 73
4
 74
0
 40
0
 40
0
 40
0
 40
0
 40
1
 40
1
 40
1
 40
1
 10
27.592683
 20
216.265062
 30
0.0
 10
27.592683
 20
216.000479
 30
0.0
 10
27.634024
 20
215.741408
 30
0.0
 10
27.716706
 20
215.487849
 30
0.0
  0
SPLINE
  5
153
100
AcDbEntity
  8
Layer_1
 62
3
100
AcDbSpline
 70
8
 71
3
 72
8
 73
4
 74
0
 40
0
 40
0
 40
0
 40
0
 40
1
 40
1
 40
1
 40
1
 10
27.716706
 20
215.487849
 30
0.0
 10
27.799388
 20
215.239802
 30
0.0
 10
27.931680
 20
215.016560
 30
0.0
 10
28.113581
 20
214.818122
 30
0.0
  0
SPLINE
  5
154
100
AcDbEntity
  8
Layer_1
 62
3
100
AcDbSpline
 70
8
 71
3
 72
8
 73
4
 74
0
 40
0
 40
0
 40
0
 40
0
 40
1
 40
1
 40
1
 40
1
 10
28.113581
 20
214.818122
 30
0.0
 10
28.295482
 20
214.619685
 30
0.0
 10
28.529748
 20
214.459832
 30
0.0
 10
28.816380
 20
214.338565
 30
0.0
  0
SPLINE
  5
155
100
AcDbEntity
  8
Layer_1
 62
3
100
AcDbSpline
 70
8
 71
3
 72
8
 73
4
 74
0
 40
0
 40
0
 40
0
 40
0
 40
1
 40
1
 40
1
 40
1
 10
28.816380
 20
214.338565
 30
0.0
 10
29.103012
 20
214.222810
 30
0.0
 10
29.453034
 20
214.164932
 30
0.0
 10
29.866445
 20
214.164932
 30
0.0
  0
LWPOLYLINE
  5
156
100
AcDbEntity
  8
Layer_1
 62
3
100
AcDbPolyline
 90
2
 70
0
 10
27.328101
 20
204.278618
 30
0.0
 10
33.752513
 20
204.278612
 30
0.0
  0
SPLINE
  5
157
100
AcDbEntity
  8
Layer_1
 62
3
100
AcDbSpline
 70
8
 71
3
 72
8
 73
4
 74
0
 40
0
 40
0
 40
0
 40
0
 40
1
 40
1
 40
1
 40
1
 10
33.744245
 20
214.164932
 30
0.0
 10
33.898585
 20
214.164932
 30
0.0
 10
34.033633
 20
214.137372
 30
0.0
 10
34.149388
 20
214.082252
 30
0.0
  0
SPLINE
  5
158
100
AcDbEntity
  8
Layer_1
 62
3
100
AcDbSpline
 70
8
 71
3
 72
8
 73
4
 74
0
 40
0
 40
0
 40
0
 40
0
 40
1
 40
1
 40
1
 40
1
 10
34.149388
 20
214.082252
 30
0.0
 10
34.265143
 20
214.027132
 30
0.0
 10
34.364362
 20
213.952718
 30
0.0
 10
34.447044
 20
213.859010
 30
0.0
  0
SPLINE
  5
159
100
AcDbEntity
  8
Layer_1
 62
3
100
AcDbSpline
 70
8
 71
3
 72
8
 73
4
 74
0
 40
0
 40
0
 40
0
 40
0
 40
1
 40
1
 40
1
 40
1
 10
34.447044
 20
213.859010
 30
0.0
 10
34.524214
 20
213.770815
 30
0.0
 10
34.582092
 20
213.666084
 30
0.0
 10
34.620677
 20
213.544817
 30
0.0
  0
SPLINE
  5
15a
100
AcDbEntity
  8
Layer_1
 62
3
100
AcDbSpline
 70
8
 71
3
 72
8
 73
4
 74
0
 40
0
 40
0
 40
0
 40
0
 40
1
 40
1
 40
1
 40
1
 10
34.620677
 20
213.544817
 30
0.0
 10
34.659264
 20
213.429062
 30
0.0
 10
34.678557
 20
213.310550
 30
0.0
 10
34.678557
 20
213.189283
 30
0.0
  0
SPLINE
  5
15b
100
AcDbEntity
  8
Layer_1
 62
3
100
AcDbSpline
 70
8
 71
3
 72
8
 73
4
 74
0
 40
0
 40
0
 40
0
 40
0
 40
1
 40
1
 40
1
 40
1
 10
34.678557
 20
213.189283
 30
0.0
 10
34.678557
 20
213.068016
 30
0.0
 10
34.659264
 20
212.949505
 30
0.0
 10
34.620677
 20
212.833750
 30
0.0
  0
SPLINE
  5
15c
100
AcDbEntity
  8
Layer_1
 62
3
100
AcDbSpline
 70
8
 71
3
 72
8
 73
4
 74
0
 40
0
 40
0
 40
0
 40
0
 40
1
 40
1
 40
1
 40
1
 10
34.620677
 20
212.833750
 30
0.0
 10
34.582090
 20
212.723507
 30
0.0
 10
34.524213
 20
212.621532
 30
0.0
 10
34.447044
 20
212.527825
 30
0.0
  0
SPLINE
  5
15d
100
AcDbEntity
  8
Layer_1
 62
3
100
AcDbSpline
 70
8
 71
3
 72
8
 73
4
 74
0
 40
0
 40
0
 40
0
 40
0
 40
1
 40
1
 40
1
 40
1
 10
34.447044
 20
212.527825
 30
0.0
 10
34.364362
 20
212.439630
 30
0.0
 10
34.265143
 20
212.367972
 30
0.0
 10
34.149388
 20
212.312851
 30
0.0
  0
SPLINE
  5
15e
100
AcDbEntity
  8
Layer_1
 62
3
100
AcDbSpline
 70
8
 71
3
 72
8
 73
4
 74
0
 40
0
 40
0
 40
0
 40
0
 40
1
 40
1
 40
1
 40
1
 10
34.149388
 20
212.312851
 30
0.0
 10
34.033633
 20
212.257731
 30
0.0
 10
33.898585
 20
212.230171
 30
0.0
 10
33.744245
 20
212.230171
 30
0.0
  0
LWPOLYLINE
  5
15f
100
AcDbEntity
  8
Layer_1
 62
3
100
AcDbPolyline
 90
2
 70
0
 10
29.866445
 20
214.164932
 30
0.0
 10
33.744245
 20
214.164932
 30
0.0
  0
SPLINE
  5
160
100
AcDbEntity
  8
Layer_1
 62
3
100
AcDbSpline
 70
8
 71
3
 72
8
 73
4
 74
0
 40
0
 40
0
 40
0
 40
0
 40
1
 40
1
 40
1
 40
1
 10
29.444766
 20
212.230171
 30
0.0
 10
29.130573
 20
212.230171
 30
0.0
 10
28.857722
 20
212.183318
 30
0.0
 10
28.626211
 20
212.089611
 30
0.0
  0
SPLINE
  5
161
100
AcDbEntity
  8
Layer_1
 62
3
100
AcDbSpline
 70
8
 71
3
 72
8
 73
4
 74
0
 40
0
 40
0
 40
0
 40
0
 40
1
 40
1
 40
1
 40
1
 10
28.626211
 20
212.089611
 30
0.0
 10
28.394700
 20
212.001416
 30
0.0
 10
28.201775
 20
211.882905
 30
0.0
 10
28.047435
 20
211.734077
 30
0.0
  0
SPLINE
  5
162
100
AcDbEntity
  8
Layer_1
 62
3
100
AcDbSpline
 70
8
 71
3
 72
8
 73
4
 74
0
 40
0
 40
0
 40
0
 40
0
 40
1
 40
1
 40
1
 40
1
 10
28.047435
 20
211.734077
 30
0.0
 10
27.893095
 20
211.585249
 30
0.0
 10
27.780096
 20
211.411616
 30
0.0
 10
27.708438
 20
211.213179
 30
0.0
  0
SPLINE
  5
163
100
AcDbEntity
  8
Layer_1
 62
3
100
AcDbSpline
 70
8
 71
3
 72
8
 73
4
 74
0
 40
0
 40
0
 40
0
 40
0
 40
1
 40
1
 40
1
 40
1
 10
27.708438
 20
211.213179
 30
0.0
 10
27.631268
 20
211.020254
 30
0.0
 10
27.592683
 20
210.819060
 30
0.0
 10
27.592683
 20
210.609598
 30
0.0
  0
SPLINE
  5
164
100
AcDbEntity
  8
Layer_1
 62
3
100
AcDbSpline
 70
8
 71
3
 72
8
 73
4
 74
0
 40
0
 40
0
 40
0
 40
0
 40
1
 40
1
 40
1
 40
1
 10
27.592683
 20
210.609598
 30
0.0
 10
27.592683
 20
210.322966
 30
0.0
 10
27.639536
 20
210.052871
 30
0.0
 10
27.733242
 20
209.799312
 30
0.0
  0
SPLINE
  5
165
100
AcDbEntity
  8
Layer_1
 62
3
100
AcDbSpline
 70
8
 71
3
 72
8
 73
4
 74
0
 40
0
 40
0
 40
0
 40
0
 40
1
 40
1
 40
1
 40
1
 10
27.733242
 20
209.799312
 30
0.0
 10
27.826949
 20
209.545753
 30
0.0
 10
27.970265
 20
209.325266
 30
0.0
 10
28.163190
 20
209.137853
 30
0.0
  0
SPLINE
  5
166
100
AcDbEntity
  8
Layer_1
 62
3
100
AcDbSpline
 70
8
 71
3
 72
8
 73
4
 74
0
 40
0
 40
0
 40
0
 40
0
 40
1
 40
1
 40
1
 40
1
 10
28.163190
 20
209.137853
 30
0.0
 10
28.350603
 20
208.950440
 30
0.0
 10
28.568333
 20
208.801612
 30
0.0
 10
28.816380
 20
208.691369
 30
0.0
  0
SPLINE
  5
167
100
AcDbEntity
  8
Layer_1
 62
3
100
AcDbSpline
 70
8
 71
3
 72
8
 73
4
 74
0
 40
0
 40
0
 40
0
 40
0
 40
1
 40
1
 40
1
 40
1
 10
28.816380
 20
208.691369
 30
0.0
 10
29.064427
 20
208.581126
 30
0.0
 10
29.381376
 20
208.526004
 30
0.0
 10
29.767227
 20
208.526004
 30
0.0
  0
LWPOLYLINE
  5
168
100
AcDbEntity
  8
Layer_1
 62
3
100
AcDbPolyline
 90
2
 70
0
 10
33.744245
 20
212.230171
 30
0.0
 10
29.444766
 20
212.230171
 30
0.0
  0
SPLINE
  5
169
100
AcDbEntity
  8
Layer_1
 62
3
100
AcDbSpline
 70
8
 71
3
 72
8
 73
4
 74
0
 40
0
 40
0
 40
0
 40
0
 40
1
 40
1
 40
1
 40
1
 10
33.752513
 20
208.526004
 30
0.0
 10
33.906853
 20
208.526004
 30
0.0
 10
34.041901
 20
208.495687
 30
0.0
 10
34.157656
 20
208.435054
 30
0.0
  0
SPLINE
  5
16a
100
AcDbEntity
  8
Layer_1
 62
3
100
AcDbSpline
 70
8
 71
3
 72
8
 73
4
 74
0
 40
0
 40
0
 40
0
 40
0
 40
1
 40
1
 40
1
 40
1
 10
34.157656
 20
208.435054
 30
0.0
 10
34.273411
 20
208.379934
 30
0.0
 10
34.369874
 20
208.305520
 30
0.0
 10
34.447044
 20
208.211812
 30
0.0
  0
SPLINE
  5
16b
100
AcDbEntity
  8
Layer_1
 62
3
100
AcDbSpline
 70
8
 71
3
 72
8
 73
4
 74
0
 40
0
 40
0
 40
0
 40
0
 40
1
 40
1
 40
1
 40
1
 10
34.447044
 20
208.211812
 30
0.0
 10
34.524214
 20
208.123617
 30
0.0
 10
34.582092
 20
208.018886
 30
0.0
 10
34.620677
 20
207.897619
 30
0.0
  0
SPLINE
  5
16c
100
AcDbEntity
  8
Layer_1
 62
3
100
AcDbSpline
 70
8
 71
3
 72
8
 73
4
 74
0
 40
0
 40
0
 40
0
 40
0
 40
1
 40
1
 40
1
 40
1
 10
34.620677
 20
207.897619
 30
0.0
 10
34.659264
 20
207.781864
 30
0.0
 10
34.678557
 20
207.663352
 30
0.0
 10
34.678557
 20
207.542085
 30
0.0
  0
SPLINE
  5
16d
100
AcDbEntity
  8
Layer_1
 62
3
100
AcDbSpline
 70
8
 71
3
 72
8
 73
4
 74
0
 40
0
 40
0
 40
0
 40
0
 40
1
 40
1
 40
1
 40
1
 10
34.678557
 20
207.542085
 30
0.0
 10
34.678557
 20
207.420818
 30
0.0
 10
34.659264
 20
207.302306
 30
0.0
 10
34.620677
 20
207.186551
 30
0.0
  0
SPLINE
  5
16e
100
AcDbEntity
  8
Layer_1
 62
3
100
AcDbSpline
 70
8
 71
3
 72
8
 73
4
 74
0
 40
0
 40
0
 40
0
 40
0
 40
1
 40
1
 40
1
 40
1
 10
34.620677
 20
207.186551
 30
0.0
 10
34.582090
 20
207.076308
 30
0.0
 10
34.524213
 20
206.974334
 30
0.0
 10
34.447044
 20
206.880627
 30
0.0
  0
SPLINE
  5
16f
100
AcDbEntity
  8
Layer_1
 62
3
100
AcDbSpline
 70
8
 71
3
 72
8
 73
4
 74
0
 40
0
 40
0
 40
0
 40
0
 40
1
 40
1
 40
1
 40
1
 10
34.447044
 20
206.880627
 30
0.0
 10
34.369874
 20
206.792432
 30
0.0
 10
34.273411
 20
206.720774
 30
0.0
 10
34.157656
 20
206.665653
 30
0.0
  0
SPLINE
  5
170
100
AcDbEntity
  8
Layer_1
 62
3
100
AcDbSpline
 70
8
 71
3
 72
8
 73
4
 74
0
 40
0
 40
0
 40
0
 40
0
 40
1
 40
1
 40
1
 40
1
 10
34.157656
 20
206.665653
 30
0.0
 10
34.041901
 20
206.610533
 30
0.0
 10
33.906853
 20
206.582973
 30
0.0
 10
33.752513
 20
206.582973
 30
0.0
  0
LWPOLYLINE
  5
171
100
AcDbEntity
  8
Layer_1
 62
3
100
AcDbPolyline
 90
2
 70
0
 10
29.767227
 20
208.526004
 30
0.0
 10
33.752513
 20
208.526004
 30
0.0
  0
SPLINE
  5
172
100
AcDbEntity
  8
Layer_1
 62
3
100
AcDbSpline
 70
8
 71
3
 72
8
 73
4
 74
0
 40
0
 40
0
 40
0
 40
0
 40
1
 40
1
 40
1
 40
1
 10
27.311563
 20
206.582973
 30
0.0
 10
27.162735
 20
206.582973
 30
0.0
 10
27.030443
 20
206.610533
 30
0.0
 10
26.914688
 20
206.665653
 30
0.0
  0
SPLINE
  5
173
100
AcDbEntity
  8
Layer_1
 62
3
100
AcDbSpline
 70
8
 71
3
 72
8
 73
4
 74
0
 40
0
 40
0
 40
0
 40
0
 40
1
 40
1
 40
1
 40
1
 10
26.914688
 20
206.665653
 30
0.0
 10
26.798933
 20
206.720773
 30
0.0
 10
26.705226
 20
206.792431
 30
0.0
 10
26.633568
 20
206.880627
 30
0.0
  0
SPLINE
  5
174
100
AcDbEntity
  8
Layer_1
 62
3
100
AcDbSpline
 70
8
 71
3
 72
8
 73
4
 74
0
 40
0
 40
0
 40
0
 40
0
 40
1
 40
1
 40
1
 40
1
 10
26.633568
 20
206.880627
 30
0.0
 10
26.556398
 20
206.974334
 30
0.0
 10
26.498520
 20
207.079065
 30
0.0
 10
26.459935
 20
207.194820
 30
0.0
  0
SPLINE
  5
175
100
AcDbEntity
  8
Layer_1
 62
3
100
AcDbSpline
 70
8
 71
3
 72
8
 73
4
 74
0
 40
0
 40
0
 40
0
 40
0
 40
1
 40
1
 40
1
 40
1
 10
26.459935
 20
207.194820
 30
0.0
 10
26.421348
 20
207.316087
 30
0.0
 10
26.402055
 20
207.437355
 30
0.0
 10
26.402055
 20
207.558622
 30
0.0
  0
SPLINE
  5
176
100
AcDbEntity
  8
Layer_1
 62
3
100
AcDbSpline
 70
8
 71
3
 72
8
 73
4
 74
0
 40
0
 40
0
 40
0
 40
0
 40
1
 40
1
 40
1
 40
1
 10
26.402055
 20
207.558622
 30
0.0
 10
26.402055
 20
207.674377
 30
0.0
 10
26.421348
 20
207.787376
 30
0.0
 10
26.459935
 20
207.897619
 30
0.0
  0
SPLINE
  5
177
100
AcDbEntity
  8
Layer_1
 62
3
100
AcDbSpline
 70
8
 71
3
 72
8
 73
4
 74
0
 40
0
 40
0
 40
0
 40
0
 40
1
 40
1
 40
1
 40
1
 10
26.459935
 20
207.897619
 30
0.0
 10
26.493008
 20
208.007862
 30
0.0
 10
26.545374
 20
208.107081
 30
0.0
 10
26.617032
 20
208.195275
 30
0.0
  0
SPLINE
  5
178
100
AcDbEntity
  8
Layer_1
 62
3
100
AcDbSpline
 70
8
 71
3
 72
8
 73
4
 74
0
 40
0
 40
0
 40
0
 40
0
 40
1
 40
1
 40
1
 40
1
 10
26.617032
 20
208.195275
 30
0.0
 10
26.683179
 20
208.288982
 30
0.0
 10
26.771373
 20
208.363396
 30
0.0
 10
26.881615
 20
208.418517
 30
0.0
  0
SPLINE
  5
179
100
AcDbEntity
  8
Layer_1
 62
3
100
AcDbSpline
 70
8
 71
3
 72
8
 73
4
 74
0
 40
0
 40
0
 40
0
 40
0
 40
1
 40
1
 40
1
 40
1
 10
26.881615
 20
208.418517
 30
0.0
 10
26.986346
 20
208.473637
 30
0.0
 10
27.110369
 20
208.506710
 30
0.0
 10
27.253685
 20
208.517737
 30
0.0
  0
SPLINE
  5
17a
100
AcDbEntity
  8
Layer_1
 62
3
100
AcDbSpline
 70
8
 71
3
 72
8
 73
4
 74
0
 40
0
 40
0
 40
0
 40
0
 40
1
 40
1
 40
1
 40
1
 10
27.253685
 20
208.517737
 30
0.0
 10
27.259218
 20
208.517737
 30
0.0
 10
27.295047
 20
208.517737
 30
0.0
 10
27.361172
 20
208.517737
 30
0.0
  0
SPLINE
  5
17b
100
AcDbEntity
  8
Layer_1
 62
3
100
AcDbSpline
 70
8
 71
3
 72
8
 73
4
 74
0
 40
0
 40
0
 40
0
 40
0
 40
1
 40
1
 40
1
 40
1
 10
27.361172
 20
208.517737
 30
0.0
 10
27.427319
 20
208.523270
 30
0.0
 10
27.498977
 20
208.526037
 30
0.0
 10
27.576146
 20
208.526037
 30
0.0
  0
SPLINE
  5
17c
100
AcDbEntity
  8
Layer_1
 62
3
100
AcDbSpline
 70
8
 71
3
 72
8
 73
4
 74
0
 40
0
 40
0
 40
0
 40
0
 40
1
 40
1
 40
1
 40
1
 10
27.576146
 20
208.526037
 30
0.0
 10
27.653316
 20
208.526037
 30
0.0
 10
27.730486
 20
208.526037
 30
0.0
 10
27.807656
 20
208.526037
 30
0.0
  0
SPLINE
  5
17d
100
AcDbEntity
  8
Layer_1
 62
3
100
AcDbSpline
 70
8
 71
3
 72
8
 73
4
 74
0
 40
0
 40
0
 40
0
 40
0
 40
1
 40
1
 40
1
 40
1
 10
27.807656
 20
208.526037
 30
0.0
 10
27.879314
 20
208.526037
 30
0.0
 10
27.917899
 20
208.526037
 30
0.0
 10
27.923412
 20
208.526037
 30
0.0
  0
SPLINE
  5
17e
100
AcDbEntity
  8
Layer_1
 62
3
100
AcDbSpline
 70
8
 71
3
 72
8
 73
4
 74
0
 40
0
 40
0
 40
0
 40
0
 40
1
 40
1
 40
1
 40
1
 10
27.923412
 20
208.526037
 30
0.0
 10
27.719462
 20
208.630768
 30
0.0
 10
27.510000
 20
208.779597
 30
0.0
 10
27.295026
 20
208.972522
 30
0.0
  0
SPLINE
  5
17f
100
AcDbEntity
  8
Layer_1
 62
3
100
AcDbSpline
 70
8
 71
3
 72
8
 73
4
 74
0
 40
0
 40
0
 40
0
 40
0
 40
1
 40
1
 40
1
 40
1
 10
27.295026
 20
208.972522
 30
0.0
 10
27.080052
 20
209.165447
 30
0.0
 10
26.900907
 20
209.383177
 30
0.0
 10
26.757591
 20
209.625712
 30
0.0
  0
SPLINE
  5
180
100
AcDbEntity
  8
Layer_1
 62
3
100
AcDbSpline
 70
8
 71
3
 72
8
 73
4
 74
0
 40
0
 40
0
 40
0
 40
0
 40
1
 40
1
 40
1
 40
1
 10
26.757591
 20
209.625712
 30
0.0
 10
26.608763
 20
209.873759
 30
0.0
 10
26.495764
 20
210.138342
 30
0.0
 10
26.418594
 20
210.419462
 30
0.0
  0
SPLINE
  5
181
100
AcDbEntity
  8
Layer_1
 62
3
100
AcDbSpline
 70
8
 71
3
 72
8
 73
4
 74
0
 40
0
 40
0
 40
0
 40
0
 40
1
 40
1
 40
1
 40
1
 10
26.418594
 20
210.419462
 30
0.0
 10
26.341424
 20
210.706094
 30
0.0
 10
26.302839
 20
210.995482
 30
0.0
 10
26.302839
 20
211.287626
 30
0.0
  0
SPLINE
  5
182
100
AcDbEntity
  8
Layer_1
 62
3
100
AcDbSpline
 70
8
 71
3
 72
8
 73
4
 74
0
 40
0
 40
0
 40
0
 40
0
 40
1
 40
1
 40
1
 40
1
 10
26.302839
 20
211.287626
 30
0.0
 10
26.302839
 20
211.585282
 30
0.0
 10
26.341424
 20
211.874670
 30
0.0
 10
26.418594
 20
212.155790
 30
0.0
  0
SPLINE
  5
183
100
AcDbEntity
  8
Layer_1
 62
3
100
AcDbSpline
 70
8
 71
3
 72
8
 73
4
 74
0
 40
0
 40
0
 40
0
 40
0
 40
1
 40
1
 40
1
 40
1
 10
26.418594
 20
212.155790
 30
0.0
 10
26.490252
 20
212.436909
 30
0.0
 10
26.603251
 20
212.693224
 30
0.0
 10
26.757591
 20
212.924735
 30
0.0
  0
SPLINE
  5
184
100
AcDbEntity
  8
Layer_1
 62
3
100
AcDbSpline
 70
8
 71
3
 72
8
 73
4
 74
0
 40
0
 40
0
 40
0
 40
0
 40
1
 40
1
 40
1
 40
1
 10
26.757591
 20
212.924735
 30
0.0
 10
26.911932
 20
213.161758
 30
0.0
 10
27.107613
 20
213.371219
 30
0.0
 10
27.344636
 20
213.553120
 30
0.0
  0
SPLINE
  5
185
100
AcDbEntity
  8
Layer_1
 62
3
100
AcDbSpline
 70
8
 71
3
 72
8
 73
4
 74
0
 40
0
 40
0
 40
0
 40
0
 40
1
 40
1
 40
1
 40
1
 10
27.344636
 20
213.553120
 30
0.0
 10
27.581658
 20
213.735021
 30
0.0
 10
27.865534
 20
213.878337
 30
0.0
 10
28.196263
 20
213.983068
 30
0.0
  0
SPLINE
  5
186
100
AcDbEntity
  8
Layer_1
 62
3
100
AcDbSpline
 70
8
 71
3
 72
8
 73
4
 74
0
 40
0
 40
0
 40
0
 40
0
 40
1
 40
1
 40
1
 40
1
 10
28.196263
 20
213.983068
 30
0.0
 10
27.843486
 20
214.170481
 30
0.0
 10
27.548586
 20
214.377187
 30
0.0
 10
27.311563
 20
214.603186
 30
0.0
  0
SPLINE
  5
187
100
AcDbEntity
  8
Layer_1
 62
3
100
AcDbSpline
 70
8
 71
3
 72
8
 73
4
 74
0
 40
0
 40
0
 40
0
 40
0
 40
1
 40
1
 40
1
 40
1
 10
27.311563
 20
214.603186
 30
0.0
 10
27.069028
 20
214.834696
 30
0.0
 10
26.873347
 20
215.077231
 30
0.0
 10
26.724518
 20
215.330790
 30
0.0
  0
SPLINE
  5
188
100
AcDbEntity
  8
Layer_1
 62
3
100
AcDbSpline
 70
8
 71
3
 72
8
 73
4
 74
0
 40
0
 40
0
 40
0
 40
0
 40
1
 40
1
 40
1
 40
1
 10
26.724518
 20
215.330790
 30
0.0
 10
26.575690
 20
215.584349
 30
0.0
 10
26.468203
 20
215.846176
 30
0.0
 10
26.402058
 20
216.116271
 30
0.0
  0
SPLINE
  5
189
100
AcDbEntity
  8
Layer_1
 62
3
100
AcDbSpline
 70
8
 71
3
 72
8
 73
4
 74
0
 40
0
 40
0
 40
0
 40
0
 40
1
 40
1
 40
1
 40
1
 10
26.402058
 20
216.116271
 30
0.0
 10
26.335911
 20
216.391879
 30
0.0
 10
26.302838
 20
216.667487
 30
0.0
 10
26.302838
 20
216.943094
 30
0.0
  0
SPLINE
  5
18a
100
AcDbEntity
  8
Layer_1
 62
3
100
AcDbSpline
 70
8
 71
3
 72
8
 73
4
 74
0
 40
0
 40
0
 40
0
 40
0
 40
1
 40
1
 40
1
 40
1
 10
26.302838
 20
216.943094
 30
0.0
 10
26.302838
 20
217.328945
 30
0.0
 10
26.366228
 20
217.695503
 30
0.0
 10
26.493007
 20
218.042769
 30
0.0
  0
SPLINE
  5
18b
100
AcDbEntity
  8
Layer_1
 62
3
100
AcDbSpline
 70
8
 71
3
 72
8
 73
4
 74
0
 40
0
 40
0
 40
0
 40
0
 40
1
 40
1
 40
1
 40
1
 10
26.493007
 20
218.042769
 30
0.0
 10
26.614274
 20
218.390034
 30
0.0
 10
26.804444
 20
218.695959
 30
0.0
 10
27.063515
 20
218.960542
 30
0.0
  0
SPLINE
  5
18c
100
AcDbEntity
  8
Layer_1
 62
3
100
AcDbSpline
 70
8
 71
3
 72
8
 73
4
 74
0
 40
0
 40
0
 40
0
 40
0
 40
1
 40
1
 40
1
 40
1
 10
27.063515
 20
218.960542
 30
0.0
 10
27.317074
 20
219.225125
 30
0.0
 10
27.642291
 20
219.434587
 30
0.0
 10
28.039166
 20
219.588927
 30
0.0
  0
SPLINE
  5
18d
100
AcDbEntity
  8
Layer_1
 62
3
100
AcDbSpline
 70
8
 71
3
 72
8
 73
4
 74
0
 40
0
 40
0
 40
0
 40
0
 40
1
 40
1
 40
1
 40
1
 10
28.039166
 20
219.588927
 30
0.0
 10
28.436041
 20
219.743268
 30
0.0
 10
28.910086
 20
219.820438
 30
0.0
 10
29.461301
 20
219.820438
 30
0.0
  0
LWPOLYLINE
  5
18e
100
AcDbEntity
  8
Layer_1
 62
3
100
AcDbPolyline
 90
2
 70
0
 10
33.752513
 20
206.582973
 30
0.0
 10
27.311563
 20
206.582973
 30
0.0
  0
SPLINE
  5
18f
100
AcDbEntity
  8
Layer_1
 62
3
100
AcDbSpline
 70
8
 71
3
 72
8
 73
4
 74
0
 40
0
 40
0
 40
0
 40
0
 40
1
 40
1
 40
1
 40
1
 10
33.752512
 20
219.820438
 30
0.0
 10
33.906852
 20
219.820438
 30
0.0
 10
34.041900
 20
219.790121
 30
0.0
 10
34.157655
 20
219.729488
 30
0.0
  0
SPLINE
  5
190
100
AcDbEntity
  8
Layer_1
 62
3
100
AcDbSpline
 70
8
 71
3
 72
8
 73
4
 74
0
 40
0
 40
0
 40
0
 40
0
 40
1
 40
1
 40
1
 40
1
 10
34.157655
 20
219.729488
 30
0.0
 10
34.273410
 20
219.674368
 30
0.0
 10
34.369873
 20
219.599954
 30
0.0
 10
34.447043
 20
219.506246
 30
0.0
  0
SPLINE
  5
191
100
AcDbEntity
  8
Layer_1
 62
3
100
AcDbSpline
 70
8
 71
3
 72
8
 73
4
 74
0
 40
0
 40
0
 40
0
 40
0
 40
1
 40
1
 40
1
 40
1
 10
34.447043
 20
219.506246
 30
0.0
 10
34.524213
 20
219.418051
 30
0.0
 10
34.582091
 20
219.313320
 30
0.0
 10
34.620676
 20
219.192053
 30
0.0
  0
SPLINE
  5
192
100
AcDbEntity
  8
Layer_1
 62
3
100
AcDbSpline
 70
8
 71
3
 72
8
 73
4
 74
0
 40
0
 40
0
 40
0
 40
0
 40
1
 40
1
 40
1
 40
1
 10
34.620676
 20
219.192053
 30
0.0
 10
34.659263
 20
219.076298
 30
0.0
 10
34.678556
 20
218.957787
 30
0.0
 10
34.678556
 20
218.836520
 30
0.0
  0
SPLINE
  5
193
100
AcDbEntity
  8
Layer_1
 62
3
100
AcDbSpline
 70
8
 71
3
 72
8
 73
4
 74
0
 40
0
 40
0
 40
0
 40
0
 40
1
 40
1
 40
1
 40
1
 10
34.678556
 20
218.836520
 30
0.0
 10
34.678556
 20
218.715253
 30
0.0
 10
34.659263
 20
218.596741
 30
0.0
 10
34.620676
 20
218.480986
 30
0.0
  0
SPLINE
  5
194
100
AcDbEntity
  8
Layer_1
 62
3
100
AcDbSpline
 70
8
 71
3
 72
8
 73
4
 74
0
 40
0
 40
0
 40
0
 40
0
 40
1
 40
1
 40
1
 40
1
 10
34.620676
 20
218.480986
 30
0.0
 10
34.582089
 20
218.370743
 30
0.0
 10
34.524212
 20
218.268768
 30
0.0
 10
34.447043
 20
218.175061
 30
0.0
  0
SPLINE
  5
195
100
AcDbEntity
  8
Layer_1
 62
3
100
AcDbSpline
 70
8
 71
3
 72
8
 73
4
 74
0
 40
0
 40
0
 40
0
 40
0
 40
1
 40
1
 40
1
 40
1
 10
34.447043
 20
218.175061
 30
0.0
 10
34.369873
 20
218.086867
 30
0.0
 10
34.273410
 20
218.015209
 30
0.0
 10
34.157655
 20
217.960087
 30
0.0
  0
SPLINE
  5
196
100
AcDbEntity
  8
Layer_1
 62
3
100
AcDbSpline
 70
8
 71
3
 72
8
 73
4
 74
0
 40
0
 40
0
 40
0
 40
0
 40
1
 40
1
 40
1
 40
1
 10
34.157655
 20
217.960087
 30
0.0
 10
34.041900
 20
217.904967
 30
0.0
 10
33.906852
 20
217.877407
 30
0.0
 10
33.752512
 20
217.877407
 30
0.0
  0
LWPOLYLINE
  5
197
100
AcDbEntity
  8
Layer_1
 62
3
100
AcDbPolyline
 90
2
 70
0
 10
29.461301
 20
219.820438
 30
0.0
 10
33.752512
 20
219.820438
 30
0.0
  0
SPLINE
  5
198
100
AcDbEntity
  8
Layer_1
 62
3
100
AcDbSpline
 70
8
 71
3
 72
8
 73
4
 74
0
 40
0
 40
0
 40
0
 40
0
 40
1
 40
1
 40
1
 40
1
 10
27.898607
 20
223.956168
 30
0.0
 10
27.672609
 20
224.104996
 30
0.0
 10
27.454879
 20
224.284141
 30
0.0
 10
27.245417
 20
224.493603
 30
0.0
  0
SPLINE
  5
199
100
AcDbEntity
  8
Layer_1
 62
3
100
AcDbSpline
 70
8
 71
3
 72
8
 73
4
 74
0
 40
0
 40
0
 40
0
 40
0
 40
1
 40
1
 40
1
 40
1
 10
27.245417
 20
224.493603
 30
0.0
 10
27.035955
 20
224.703065
 30
0.0
 10
26.862322
 20
224.931819
 30
0.0
 10
26.724518
 20
225.179866
 30
0.0
  0
SPLINE
  5
19a
100
AcDbEntity
  8
Layer_1
 62
3
100
AcDbSpline
 70
8
 71
3
 72
8
 73
4
 74
0
 40
0
 40
0
 40
0
 40
0
 40
1
 40
1
 40
1
 40
1
 10
26.724518
 20
225.179866
 30
0.0
 10
26.581203
 20
225.433425
 30
0.0
 10
26.476472
 20
225.700765
 30
0.0
 10
26.410326
 20
225.981884
 30
0.0
  0
SPLINE
  5
19b
100
AcDbEntity
  8
Layer_1
 62
3
100
AcDbSpline
 70
8
 71
3
 72
8
 73
4
 74
0
 40
0
 40
0
 40
0
 40
0
 40
1
 40
1
 40
1
 40
1
 10
26.410326
 20
225.981884
 30
0.0
 10
26.338668
 20
226.268516
 30
0.0
 10
26.302839
 20
226.560660
 30
0.0
 10
26.302839
 20
226.858317
 30
0.0
  0
SPLINE
  5
19c
100
AcDbEntity
  8
Layer_1
 62
3
100
AcDbSpline
 70
8
 71
3
 72
8
 73
4
 74
0
 40
0
 40
0
 40
0
 40
0
 40
1
 40
1
 40
1
 40
1
 10
26.302839
 20
226.858317
 30
0.0
 10
26.302839
 20
227.426068
 30
0.0
 10
26.421350
 20
227.922162
 30
0.0
 10
26.658373
 20
228.346598
 30
0.0
  0
SPLINE
  5
19d
100
AcDbEntity
  8
Layer_1
 62
3
100
AcDbSpline
 70
8
 71
3
 72
8
 73
4
 74
0
 40
0
 40
0
 40
0
 40
0
 40
1
 40
1
 40
1
 40
1
 10
26.658373
 20
228.346598
 30
0.0
 10
26.895396
 20
228.776546
 30
0.0
 10
27.215100
 20
229.132080
 30
0.0
 10
27.617487
 20
229.413199
 30
0.0
  0
SPLINE
  5
19e
100
AcDbEntity
  8
Layer_1
 62
3
100
AcDbSpline
 70
8
 71
3
 72
8
 73
4
 74
0
 40
0
 40
0
 40
0
 40
0
 40
1
 40
1
 40
1
 40
1
 10
27.617487
 20
229.413199
 30
0.0
 10
28.019874
 20
229.699831
 30
0.0
 10
28.485651
 20
229.912049
 30
0.0
 10
29.014818
 20
230.049853
 30
0.0
  0
SPLINE
  5
19f
100
AcDbEntity
  8
Layer_1
 62
3
100
AcDbSpline
 70
8
 71
3
 72
8
 73
4
 74
0
 40
0
 40
0
 40
0
 40
0
 40
1
 40
1
 40
1
 40
1
 10
29.014818
 20
230.049853
 30
0.0
 10
29.538473
 20
230.193169
 30
0.0
 10
30.064883
 20
230.264827
 30
0.0
 10
30.594050
 20
230.264827
 30
0.0
  0
SPLINE
  5
1a0
100
AcDbEntity
  8
Layer_1
 62
3
100
AcDbSpline
 70
8
 71
3
 72
8
 73
4
 74
0
 40
0
 40
0
 40
0
 40
0
 40
1
 40
1
 40
1
 40
1
 10
30.594050
 20
230.264827
 30
0.0
 10
31.123216
 20
230.264827
 30
0.0
 10
31.649626
 20
230.187657
 30
0.0
 10
32.173281
 20
230.033316
 30
0.0
  0
SPLINE
  5
1a1
100
AcDbEntity
  8
Layer_1
 62
3
100
AcDbSpline
 70
8
 71
3
 72
8
 73
4
 74
0
 40
0
 40
0
 40
0
 40
0
 40
1
 40
1
 40
1
 40
1
 10
32.173281
 20
230.033316
 30
0.0
 10
32.696936
 20
229.884488
 30
0.0
 10
33.151688
 20
229.664002
 30
0.0
 10
33.537539
 20
229.371858
 30
0.0
  0
SPLINE
  5
1a2
100
AcDbEntity
  8
Layer_1
 62
3
100
AcDbSpline
 70
8
 71
3
 72
8
 73
4
 74
0
 40
0
 40
0
 40
0
 40
0
 40
1
 40
1
 40
1
 40
1
 10
33.537539
 20
229.371858
 30
0.0
 10
33.923390
 20
229.079714
 30
0.0
 10
34.226558
 20
228.718668
 30
0.0
 10
34.447044
 20
228.288720
 30
0.0
  0
SPLINE
  5
1a3
100
AcDbEntity
  8
Layer_1
 62
3
100
AcDbSpline
 70
8
 71
3
 72
8
 73
4
 74
0
 40
0
 40
0
 40
0
 40
0
 40
1
 40
1
 40
1
 40
1
 10
34.447044
 20
228.288720
 30
0.0
 10
34.667530
 20
227.864285
 30
0.0
 10
34.777773
 20
227.373703
 30
0.0
 10
34.777773
 20
226.816975
 30
0.0
  0
SPLINE
  5
1a4
100
AcDbEntity
  8
Layer_1
 62
3
100
AcDbSpline
 70
8
 71
3
 72
8
 73
4
 74
0
 40
0
 40
0
 40
0
 40
0
 40
1
 40
1
 40
1
 40
1
 10
34.777773
 20
226.816975
 30
0.0
 10
34.777773
 20
226.535856
 30
0.0
 10
34.744700
 20
226.257492
 30
0.0
 10
34.678553
 20
225.981884
 30
0.0
  0
SPLINE
  5
1a5
100
AcDbEntity
  8
Layer_1
 62
3
100
AcDbSpline
 70
8
 71
3
 72
8
 73
4
 74
0
 40
0
 40
0
 40
0
 40
0
 40
1
 40
1
 40
1
 40
1
 10
34.678553
 20
225.981884
 30
0.0
 10
34.606895
 20
225.706277
 30
0.0
 10
34.502164
 20
225.444450
 30
0.0
 10
34.364360
 20
225.196403
 30
0.0
  0
SPLINE
  5
1a6
100
AcDbEntity
  8
Layer_1
 62
3
100
AcDbSpline
 70
8
 71
3
 72
8
 73
4
 74
0
 40
0
 40
0
 40
0
 40
0
 40
1
 40
1
 40
1
 40
1
 10
34.364360
 20
225.196403
 30
0.0
 10
34.226556
 20
224.948356
 30
0.0
 10
34.055679
 20
224.716845
 30
0.0
 10
33.851730
 20
224.501871
 30
0.0
  0
SPLINE
  5
1a7
100
AcDbEntity
  8
Layer_1
 62
3
100
AcDbSpline
 70
8
 71
3
 72
8
 73
4
 74
0
 40
0
 40
0
 40
0
 40
0
 40
1
 40
1
 40
1
 40
1
 10
33.851730
 20
224.501871
 30
0.0
 10
33.642268
 20
224.292410
 30
0.0
 10
33.435562
 20
224.110509
 30
0.0
 10
33.231613
 20
223.956168
 30
0.0
  0
LWPOLYLINE
  5
1a8
100
AcDbEntity
  8
Layer_1
 62
3
100
AcDbPolyline
 90
2
 70
0
 10
33.752512
 20
217.877407
 30
0.0
 10
29.444766
 20
217.877367
 30
0.0
  0
SPLINE
  5
1a9
100
AcDbEntity
  8
Layer_1
 62
3
100
AcDbSpline
 70
8
 71
3
 72
8
 73
4
 74
0
 40
0
 40
0
 40
0
 40
0
 40
1
 40
1
 40
1
 40
1
 10
36.927511
 20
223.956168
 30
0.0
 10
37.076339
 20
223.956168
 30
0.0
 10
37.208631
 20
223.928608
 30
0.0
 10
37.324386
 20
223.873488
 30
0.0
  0
SPLINE
  5
1aa
100
AcDbEntity
  8
Layer_1
 62
3
100
AcDbSpline
 70
8
 71
3
 72
8
 73
4
 74
0
 40
0
 40
0
 40
0
 40
0
 40
1
 40
1
 40
1
 40
1
 10
37.324386
 20
223.873488
 30
0.0
 10
37.440141
 20
223.818368
 30
0.0
 10
37.533848
 20
223.743954
 30
0.0
 10
37.605506
 20
223.650246
 30
0.0
  0
SPLINE
  5
1ab
100
AcDbEntity
  8
Layer_1
 62
3
100
AcDbSpline
 70
8
 71
3
 72
8
 73
4
 74
0
 40
0
 40
0
 40
0
 40
0
 40
1
 40
1
 40
1
 40
1
 10
37.605506
 20
223.650246
 30
0.0
 10
37.682676
 20
223.562051
 30
0.0
 10
37.740553
 20
223.460076
 30
0.0
 10
37.779138
 20
223.344321
 30
0.0
  0
SPLINE
  5
1ac
100
AcDbEntity
  8
Layer_1
 62
3
100
AcDbSpline
 70
8
 71
3
 72
8
 73
4
 74
0
 40
0
 40
0
 40
0
 40
0
 40
1
 40
1
 40
1
 40
1
 10
37.779138
 20
223.344321
 30
0.0
 10
37.817725
 20
223.228566
 30
0.0
 10
37.837018
 20
223.110055
 30
0.0
 10
37.837018
 20
222.988788
 30
0.0
  0
SPLINE
  5
1ad
100
AcDbEntity
  8
Layer_1
 62
3
100
AcDbSpline
 70
8
 71
3
 72
8
 73
4
 74
0
 40
0
 40
0
 40
0
 40
0
 40
1
 40
1
 40
1
 40
1
 10
37.837018
 20
222.988788
 30
0.0
 10
37.837018
 20
222.867521
 30
0.0
 10
37.817725
 20
222.749009
 30
0.0
 10
37.779138
 20
222.633254
 30
0.0
  0
SPLINE
  5
1ae
100
AcDbEntity
  8
Layer_1
 62
3
100
AcDbSpline
 70
8
 71
3
 72
8
 73
4
 74
0
 40
0
 40
0
 40
0
 40
0
 40
1
 40
1
 40
1
 40
1
 10
37.779138
 20
222.633254
 30
0.0
 10
37.740551
 20
222.517499
 30
0.0
 10
37.682674
 20
222.412768
 30
0.0
 10
37.605506
 20
222.319061
 30
0.0
  0
SPLINE
  5
1af
100
AcDbEntity
  8
Layer_1
 62
3
100
AcDbSpline
 70
8
 71
3
 72
8
 73
4
 74
0
 40
0
 40
0
 40
0
 40
0
 40
1
 40
1
 40
1
 40
1
 10
37.605506
 20
222.319061
 30
0.0
 10
37.533848
 20
222.230866
 30
0.0
 10
37.440141
 20
222.159208
 30
0.0
 10
37.324386
 20
222.104087
 30
0.0
  0
SPLINE
  5
1b0
100
AcDbEntity
  8
Layer_1
 62
3
100
AcDbSpline
 70
8
 71
3
 72
8
 73
4
 74
0
 40
0
 40
0
 40
0
 40
0
 40
1
 40
1
 40
1
 40
1
 10
37.324386
 20
222.104087
 30
0.0
 10
37.208631
 20
222.048967
 30
0.0
 10
37.076339
 20
222.021407
 30
0.0
 10
36.927511
 20
222.021407
 30
0.0
  0
LWPOLYLINE
  5
1b1
100
AcDbEntity
  8
Layer_1
 62
3
100
AcDbPolyline
 90
2
 70
0
 10
33.231613
 20
223.956168
 30
0.0
 10
36.927511
 20
223.956168
 30
0.0
  0
SPLINE
  5
1b2
100
AcDbEntity
  8
Layer_1
 62
3
100
AcDbSpline
 70
8
 71
3
 72
8
 73
4
 74
0
 40
0
 40
0
 40
0
 40
0
 40
1
 40
1
 40
1
 40
1
 10
27.319829
 20
222.021407
 30
0.0
 10
27.165489
 20
222.021407
 30
0.0
 10
27.033197
 20
222.048967
 30
0.0
 10
26.922954
 20
222.104087
 30
0.0
  0
SPLINE
  5
1b3
100
AcDbEntity
  8
Layer_1
 62
3
100
AcDbSpline
 70
8
 71
3
 72
8
 73
4
 74
0
 40
0
 40
0
 40
0
 40
0
 40
1
 40
1
 40
1
 40
1
 10
26.922954
 20
222.104087
 30
0.0
 10
26.807199
 20
222.159207
 30
0.0
 10
26.710736
 20
222.230865
 30
0.0
 10
26.633566
 20
222.319061
 30
0.0
  0
SPLINE
  5
1b4
100
AcDbEntity
  8
Layer_1
 62
3
100
AcDbSpline
 70
8
 71
3
 72
8
 73
4
 74
0
 40
0
 40
0
 40
0
 40
0
 40
1
 40
1
 40
1
 40
1
 10
26.633566
 20
222.319061
 30
0.0
 10
26.556396
 20
222.407256
 30
0.0
 10
26.498518
 20
222.506474
 30
0.0
 10
26.459933
 20
222.616717
 30
0.0
  0
SPLINE
  5
1b5
100
AcDbEntity
  8
Layer_1
 62
3
100
AcDbSpline
 70
8
 71
3
 72
8
 73
4
 74
0
 40
0
 40
0
 40
0
 40
0
 40
1
 40
1
 40
1
 40
1
 10
26.459933
 20
222.616717
 30
0.0
 10
26.421346
 20
222.732472
 30
0.0
 10
26.402053
 20
222.850984
 30
0.0
 10
26.402053
 20
222.972251
 30
0.0
  0
SPLINE
  5
1b6
100
AcDbEntity
  8
Layer_1
 62
3
100
AcDbSpline
 70
8
 71
3
 72
8
 73
4
 74
0
 40
0
 40
0
 40
0
 40
0
 40
1
 40
1
 40
1
 40
1
 10
26.402053
 20
222.972251
 30
0.0
 10
26.402053
 20
223.088006
 30
0.0
 10
26.421346
 20
223.201005
 30
0.0
 10
26.459933
 20
223.311248
 30
0.0
  0
SPLINE
  5
1b7
100
AcDbEntity
  8
Layer_1
 62
3
100
AcDbSpline
 70
8
 71
3
 72
8
 73
4
 74
0
 40
0
 40
0
 40
0
 40
0
 40
1
 40
1
 40
1
 40
1
 10
26.459933
 20
223.311248
 30
0.0
 10
26.493006
 20
223.421491
 30
0.0
 10
26.545372
 20
223.520710
 30
0.0
 10
26.617030
 20
223.608905
 30
0.0
  0
SPLINE
  5
1b8
100
AcDbEntity
  8
Layer_1
 62
3
100
AcDbSpline
 70
8
 71
3
 72
8
 73
4
 74
0
 40
0
 40
0
 40
0
 40
0
 40
1
 40
1
 40
1
 40
1
 10
26.617030
 20
223.608905
 30
0.0
 10
26.683177
 20
223.702612
 30
0.0
 10
26.768615
 20
223.779782
 30
0.0
 10
26.873345
 20
223.840415
 30
0.0
  0
SPLINE
  5
1b9
100
AcDbEntity
  8
Layer_1
 62
3
100
AcDbSpline
 70
8
 71
3
 72
8
 73
4
 74
0
 40
0
 40
0
 40
0
 40
0
 40
1
 40
1
 40
1
 40
1
 10
26.873345
 20
223.840415
 30
0.0
 10
26.978076
 20
223.901048
 30
0.0
 10
27.099343
 20
223.939633
 30
0.0
 10
27.237147
 20
223.956170
 30
0.0
  0
LWPOLYLINE
  5
1ba
100
AcDbEntity
  8
Layer_1
 62
3
100
AcDbPolyline
 90
2
 70
0
 10
36.927511
 20
222.021407
 30
0.0
 10
27.319829
 20
222.021407
 30
0.0
  0
SPLINE
  5
1bb
100
AcDbEntity
  8
Layer_1
 62
3
100
AcDbSpline
 70
8
 71
3
 72
8
 73
4
 74
0
 40
0
 40
0
 40
0
 40
0
 40
1
 40
1
 40
1
 40
1
 10
30.569245
 20
223.964468
 30
0.0
 10
30.955096
 20
223.964468
 30
0.0
 10
31.313386
 20
224.003053
 30
0.0
 10
31.644115
 20
224.080223
 30
0.0
  0
SPLINE
  5
1bc
100
AcDbEntity
  8
Layer_1
 62
3
100
AcDbSpline
 70
8
 71
3
 72
8
 73
4
 74
0
 40
0
 40
0
 40
0
 40
0
 40
1
 40
1
 40
1
 40
1
 10
31.644115
 20
224.080223
 30
0.0
 10
31.974844
 20
224.162905
 30
0.0
 10
32.278012
 20
224.292440
 30
0.0
 10
32.553620
 20
224.468829
 30
0.0
  0
SPLINE
  5
1bd
100
AcDbEntity
  8
Layer_1
 62
3
100
AcDbSpline
 70
8
 71
3
 72
8
 73
4
 74
0
 40
0
 40
0
 40
0
 40
0
 40
1
 40
1
 40
1
 40
1
 10
32.553620
 20
224.468829
 30
0.0
 10
32.829227
 20
224.645218
 30
0.0
 10
33.049713
 20
224.873973
 30
0.0
 10
33.215078
 20
225.155092
 30
0.0
  0
SPLINE
  5
1be
100
AcDbEntity
  8
Layer_1
 62
3
100
AcDbSpline
 70
8
 71
3
 72
8
 73
4
 74
0
 40
0
 40
0
 40
0
 40
0
 40
1
 40
1
 40
1
 40
1
 10
33.215078
 20
225.155092
 30
0.0
 10
33.374931
 20
225.441724
 30
0.0
 10
33.454857
 20
225.788990
 30
0.0
 10
33.454857
 20
226.196889
 30
0.0
  0
SPLINE
  5
1bf
100
AcDbEntity
  8
Layer_1
 62
3
100
AcDbSpline
 70
8
 71
3
 72
8
 73
4
 74
0
 40
0
 40
0
 40
0
 40
0
 40
1
 40
1
 40
1
 40
1
 10
33.454857
 20
226.196889
 30
0.0
 10
33.454857
 20
226.604788
 30
0.0
 10
33.366662
 20
226.941030
 30
0.0
 10
33.190273
 20
227.205613
 30
0.0
  0
SPLINE
  5
1c0
100
AcDbEntity
  8
Layer_1
 62
3
100
AcDbSpline
 70
8
 71
3
 72
8
 73
4
 74
0
 40
0
 40
0
 40
0
 40
0
 40
1
 40
1
 40
1
 40
1
 10
33.190273
 20
227.205613
 30
0.0
 10
33.013884
 20
227.475708
 30
0.0
 10
32.782374
 20
227.687926
 30
0.0
 10
32.495742
 20
227.842267
 30
0.0
  0
SPLINE
  5
1c1
100
AcDbEntity
  8
Layer_1
 62
3
100
AcDbSpline
 70
8
 71
3
 72
8
 73
4
 74
0
 40
0
 40
0
 40
0
 40
0
 40
1
 40
1
 40
1
 40
1
 10
32.495742
 20
227.842267
 30
0.0
 10
32.209110
 20
228.002119
 30
0.0
 10
31.883893
 20
228.112362
 30
0.0
 10
31.520091
 20
228.172996
 30
0.0
  0
SPLINE
  5
1c2
100
AcDbEntity
  8
Layer_1
 62
3
100
AcDbSpline
 70
8
 71
3
 72
8
 73
4
 74
0
 40
0
 40
0
 40
0
 40
0
 40
1
 40
1
 40
1
 40
1
 10
31.520091
 20
228.172996
 30
0.0
 10
31.156289
 20
228.233629
 30
0.0
 10
30.828316
 20
228.263946
 30
0.0
 10
30.536172
 20
228.263946
 30
0.0
  0
SPLINE
  5
1c3
100
AcDbEntity
  8
Layer_1
 62
3
100
AcDbSpline
 70
8
 71
3
 72
8
 73
4
 74
0
 40
0
 40
0
 40
0
 40
0
 40
1
 40
1
 40
1
 40
1
 10
30.536172
 20
228.263946
 30
0.0
 10
30.233003
 20
228.263946
 30
0.0
 10
29.902274
 20
228.233629
 30
0.0
 10
29.543984
 20
228.172996
 30
0.0
  0
SPLINE
  5
1c4
100
AcDbEntity
  8
Layer_1
 62
3
100
AcDbSpline
 70
8
 71
3
 72
8
 73
4
 74
0
 40
0
 40
0
 40
0
 40
0
 40
1
 40
1
 40
1
 40
1
 10
29.543984
 20
228.172996
 30
0.0
 10
29.185695
 20
228.112363
 30
0.0
 10
28.863234
 20
228.004876
 30
0.0
 10
28.576602
 20
227.850535
 30
0.0
  0
SPLINE
  5
1c5
100
AcDbEntity
  8
Layer_1
 62
3
100
AcDbSpline
 70
8
 71
3
 72
8
 73
4
 74
0
 40
0
 40
0
 40
0
 40
0
 40
1
 40
1
 40
1
 40
1
 10
28.576602
 20
227.850535
 30
0.0
 10
28.284458
 20
227.696195
 30
0.0
 10
28.047435
 20
227.486733
 30
0.0
 10
27.865534
 20
227.222150
 30
0.0
  0
SPLINE
  5
1c6
100
AcDbEntity
  8
Layer_1
 62
3
100
AcDbSpline
 70
8
 71
3
 72
8
 73
4
 74
0
 40
0
 40
0
 40
0
 40
0
 40
1
 40
1
 40
1
 40
1
 10
27.865534
 20
227.222150
 30
0.0
 10
27.683633
 20
226.957567
 30
0.0
 10
27.592683
 20
226.621325
 30
0.0
 10
27.592683
 20
226.213426
 30
0.0
  0
SPLINE
  5
1c7
100
AcDbEntity
  8
Layer_1
 62
3
100
AcDbSpline
 70
8
 71
3
 72
8
 73
4
 74
0
 40
0
 40
0
 40
0
 40
0
 40
1
 40
1
 40
1
 40
1
 10
27.592683
 20
226.213426
 30
0.0
 10
27.592683
 20
225.766941
 30
0.0
 10
27.667097
 20
225.397627
 30
0.0
 10
27.815925
 20
225.105483
 30
0.0
  0
SPLINE
  5
1c8
100
AcDbEntity
  8
Layer_1
 62
3
100
AcDbSpline
 70
8
 71
3
 72
8
 73
4
 74
0
 40
0
 40
0
 40
0
 40
0
 40
1
 40
1
 40
1
 40
1
 10
27.815925
 20
225.105483
 30
0.0
 10
27.959241
 20
224.818851
 30
0.0
 10
28.165947
 20
224.590097
 30
0.0
 10
28.436042
 20
224.419220
 30
0.0
  0
SPLINE
  5
1c9
100
AcDbEntity
  8
Layer_1
 62
3
100
AcDbSpline
 70
8
 71
3
 72
8
 73
4
 74
0
 40
0
 40
0
 40
0
 40
0
 40
1
 40
1
 40
1
 40
1
 10
28.436042
 20
224.419220
 30
0.0
 10
28.700625
 20
224.253855
 30
0.0
 10
29.003794
 20
224.135344
 30
0.0
 10
29.345547
 20
224.063686
 30
0.0
  0
SPLINE
  5
1ca
100
AcDbEntity
  8
Layer_1
 62
3
100
AcDbSpline
 70
8
 71
3
 72
8
 73
4
 74
0
 40
0
 40
0
 40
0
 40
0
 40
1
 40
1
 40
1
 40
1
 10
29.345547
 20
224.063686
 30
0.0
 10
29.681788
 20
223.997539
 30
0.0
 10
30.089688
 20
223.964466
 30
0.0
 10
30.569245
 20
223.964466
 30
0.0
  0
LWPOLYLINE
  5
1cb
100
AcDbEntity
  8
Layer_1
 62
3
100
AcDbPolyline
 90
2
 70
0
 10
27.237147
 20
223.956170
 30
0.0
 10
27.898607
 20
223.956168
 30
0.0
  0
SPLINE
  5
1cc
100
AcDbEntity
  8
Layer_1
 62
3
100
AcDbSpline
 70
8
 71
3
 72
8
 73
4
 74
0
 40
0
 40
0
 40
0
 40
0
 40
1
 40
1
 40
1
 40
1
 10
30.271589
 20
239.857628
 30
0.0
 10
30.420417
 20
239.857628
 30
0.0
 10
30.552709
 20
239.808019
 30
0.0
 10
30.668464
 20
239.708800
 30
0.0
  0
SPLINE
  5
1cd
100
AcDbEntity
  8
Layer_1
 62
3
100
AcDbSpline
 70
8
 71
3
 72
8
 73
4
 74
0
 40
0
 40
0
 40
0
 40
0
 40
1
 40
1
 40
1
 40
1
 10
30.668464
 20
239.708800
 30
0.0
 10
30.778707
 20
239.615093
 30
0.0
 10
30.833828
 20
239.469021
 30
0.0
 10
30.833828
 20
239.270584
 30
0.0
  0
LWPOLYLINE
  5
1ce
100
AcDbEntity
  8
Layer_1
 62
3
100
AcDbPolyline
 90
1
 70
1
 10
30.569245
 20
223.964466
 30
0.0
  0
SPLINE
  5
1cf
100
AcDbEntity
  8
Layer_1
 62
3
100
AcDbSpline
 70
8
 71
3
 72
8
 73
4
 74
0
 40
0
 40
0
 40
0
 40
0
 40
1
 40
1
 40
1
 40
1
 10
30.833828
 20
233.639920
 30
0.0
 10
31.633090
 20
233.689527
 30
0.0
 10
32.253207
 20
233.934817
 30
0.0
 10
32.694180
 20
234.375792
 30
0.0
  0
SPLINE
  5
1d0
100
AcDbEntity
  8
Layer_1
 62
3
100
AcDbSpline
 70
8
 71
3
 72
8
 73
4
 74
0
 40
0
 40
0
 40
0
 40
0
 40
1
 40
1
 40
1
 40
1
 10
32.694180
 20
234.375792
 30
0.0
 10
33.135152
 20
234.822277
 30
0.0
 10
33.355638
 20
235.409321
 30
0.0
 10
33.355638
 20
236.136925
 30
0.0
  0
SPLINE
  5
1d1
100
AcDbEntity
  8
Layer_1
 62
3
100
AcDbSpline
 70
8
 71
3
 72
8
 73
4
 74
0
 40
0
 40
0
 40
0
 40
0
 40
1
 40
1
 40
1
 40
1
 10
33.355638
 20
236.136925
 30
0.0
 10
33.355638
 20
236.583409
 30
0.0
 10
33.292248
 20
237.005089
 30
0.0
 10
33.165469
 20
237.401964
 30
0.0
  0
SPLINE
  5
1d2
100
AcDbEntity
  8
Layer_1
 62
3
100
AcDbSpline
 70
8
 71
3
 72
8
 73
4
 74
0
 40
0
 40
0
 40
0
 40
0
 40
1
 40
1
 40
1
 40
1
 10
33.165469
 20
237.401964
 30
0.0
 10
33.038689
 20
237.798839
 30
0.0
 10
32.870568
 20
238.203982
 30
0.0
 10
32.661107
 20
238.617393
 30
0.0
  0
SPLINE
  5
1d3
100
AcDbEntity
  8
Layer_1
 62
3
100
AcDbSpline
 70
8
 71
3
 72
8
 73
4
 74
0
 40
0
 40
0
 40
0
 40
0
 40
1
 40
1
 40
1
 40
1
 10
32.661107
 20
238.617393
 30
0.0
 10
32.611500
 20
238.716612
 30
0.0
 10
32.586697
 20
238.810319
 30
0.0
 10
32.586697
 20
238.898513
 30
0.0
  0
SPLINE
  5
1d4
100
AcDbEntity
  8
Layer_1
 62
3
100
AcDbSpline
 70
8
 71
3
 72
8
 73
4
 74
0
 40
0
 40
0
 40
0
 40
0
 40
1
 40
1
 40
1
 40
1
 10
32.586697
 20
238.898513
 30
0.0
 10
32.586697
 20
239.047341
 30
0.0
 10
32.641818
 20
239.165852
 30
0.0
 10
32.752061
 20
239.254047
 30
0.0
  0
SPLINE
  5
1d5
100
AcDbEntity
  8
Layer_1
 62
3
100
AcDbSpline
 70
8
 71
3
 72
8
 73
4
 74
0
 40
0
 40
0
 40
0
 40
0
 40
1
 40
1
 40
1
 40
1
 10
32.752061
 20
239.254047
 30
0.0
 10
32.862304
 20
239.347754
 30
0.0
 10
32.989084
 20
239.394607
 30
0.0
 10
33.132400
 20
239.394607
 30
0.0
  0
SPLINE
  5
1d6
100
AcDbEntity
  8
Layer_1
 62
3
100
AcDbSpline
 70
8
 71
3
 72
8
 73
4
 74
0
 40
0
 40
0
 40
0
 40
0
 40
1
 40
1
 40
1
 40
1
 10
33.132400
 20
239.394607
 30
0.0
 10
33.193033
 20
239.394607
 30
0.0
 10
33.259179
 20
239.383584
 30
0.0
 10
33.330837
 20
239.361537
 30
0.0
  0
SPLINE
  5
1d7
100
AcDbEntity
  8
Layer_1
 62
3
100
AcDbSpline
 70
8
 71
3
 72
8
 73
4
 74
0
 40
0
 40
0
 40
0
 40
0
 40
1
 40
1
 40
1
 40
1
 10
33.330837
 20
239.361537
 30
0.0
 10
33.396984
 20
239.344997
 30
0.0
 10
33.460374
 20
239.314680
 30
0.0
 10
33.521007
 20
239.270587
 30
0.0
  0
SPLINE
  5
1d8
100
AcDbEntity
  8
Layer_1
 62
3
100
AcDbSpline
 70
8
 71
3
 72
8
 73
4
 74
0
 40
0
 40
0
 40
0
 40
0
 40
1
 40
1
 40
1
 40
1
 10
33.521007
 20
239.270587
 30
0.0
 10
33.747005
 20
239.094198
 30
0.0
 10
33.939930
 20
238.876467
 30
0.0
 10
34.099783
 20
238.617396
 30
0.0
  0
SPLINE
  5
1d9
100
AcDbEntity
  8
Layer_1
 62
3
100
AcDbSpline
 70
8
 71
3
 72
8
 73
4
 74
0
 40
0
 40
0
 40
0
 40
0
 40
1
 40
1
 40
1
 40
1
 10
34.099783
 20
238.617396
 30
0.0
 10
34.259635
 20
238.363837
 30
0.0
 10
34.389170
 20
238.088230
 30
0.0
 10
34.488389
 20
237.790574
 30
0.0
  0
SPLINE
  5
1da
100
AcDbEntity
  8
Layer_1
 62
3
100
AcDbSpline
 70
8
 71
3
 72
8
 73
4
 74
0
 40
0
 40
0
 40
0
 40
0
 40
1
 40
1
 40
1
 40
1
 10
34.488389
 20
237.790574
 30
0.0
 10
34.587608
 20
237.492917
 30
0.0
 10
34.659266
 20
237.184237
 30
0.0
 10
34.703363
 20
236.864532
 30
0.0
  0
SPLINE
  5
1db
100
AcDbEntity
  8
Layer_1
 62
3
100
AcDbSpline
 70
8
 71
3
 72
8
 73
4
 74
0
 40
0
 40
0
 40
0
 40
0
 40
1
 40
1
 40
1
 40
1
 10
34.703363
 20
236.864532
 30
0.0
 10
34.752970
 20
236.550339
 30
0.0
 10
34.777773
 20
236.244415
 30
0.0
 10
34.777773
 20
235.946759
 30
0.0
  0
SPLINE
  5
1dc
100
AcDbEntity
  8
Layer_1
 62
3
100
AcDbSpline
 70
8
 71
3
 72
8
 73
4
 74
0
 40
0
 40
0
 40
0
 40
0
 40
1
 40
1
 40
1
 40
1
 10
34.777773
 20
235.946759
 30
0.0
 10
34.777773
 20
235.345934
 30
0.0
 10
34.678554
 20
234.786451
 30
0.0
 10
34.480117
 20
234.268308
 30
0.0
  0
SPLINE
  5
1dd
100
AcDbEntity
  8
Layer_1
 62
3
100
AcDbSpline
 70
8
 71
3
 72
8
 73
4
 74
0
 40
0
 40
0
 40
0
 40
0
 40
1
 40
1
 40
1
 40
1
 10
34.480117
 20
234.268308
 30
0.0
 10
34.281680
 20
233.750166
 30
0.0
 10
33.995048
 20
233.298170
 30
0.0
 10
33.620221
 20
232.912319
 30
0.0
  0
SPLINE
  5
1de
100
AcDbEntity
  8
Layer_1
 62
3
100
AcDbSpline
 70
8
 71
3
 72
8
 73
4
 74
0
 40
0
 40
0
 40
0
 40
0
 40
1
 40
1
 40
1
 40
1
 10
33.620221
 20
232.912319
 30
0.0
 10
33.239882
 20
232.531980
 30
0.0
 10
32.774106
 20
232.231568
 30
0.0
 10
32.222891
 20
232.011082
 30
0.0
  0
SPLINE
  5
1df
100
AcDbEntity
  8
Layer_1
 62
3
100
AcDbSpline
 70
8
 71
3
 72
8
 73
4
 74
0
 40
0
 40
0
 40
0
 40
0
 40
1
 40
1
 40
1
 40
1
 10
32.222891
 20
232.011082
 30
0.0
 10
31.666163
 20
231.796108
 30
0.0
 10
31.092899
 20
231.688621
 30
0.0
 10
30.503099
 20
231.688621
 30
0.0
  0
SPLINE
  5
1e0
100
AcDbEntity
  8
Layer_1
 62
3
100
AcDbSpline
 70
8
 71
3
 72
8
 73
4
 74
0
 40
0
 40
0
 40
0
 40
0
 40
1
 40
1
 40
1
 40
1
 10
30.503099
 20
231.688621
 30
0.0
 10
30.001493
 20
231.688621
 30
0.0
 10
29.491619
 20
231.790596
 30
0.0
 10
28.973477
 20
231.994545
 30
0.0
  0
SPLINE
  5
1e1
100
AcDbEntity
  8
Layer_1
 62
3
100
AcDbSpline
 70
8
 71
3
 72
8
 73
4
 74
0
 40
0
 40
0
 40
0
 40
0
 40
1
 40
1
 40
1
 40
1
 10
28.973477
 20
231.994545
 30
0.0
 10
28.455334
 20
232.198495
 30
0.0
 10
28.003338
 20
232.476859
 30
0.0
 10
27.617487
 20
232.829636
 30
0.0
  0
SPLINE
  5
1e2
100
AcDbEntity
  8
Layer_1
 62
3
100
AcDbSpline
 70
8
 71
3
 72
8
 73
4
 74
0
 40
0
 40
0
 40
0
 40
0
 40
1
 40
1
 40
1
 40
1
 10
27.617487
 20
232.829636
 30
0.0
 10
27.231636
 20
233.187926
 30
0.0
 10
26.917444
 20
233.615118
 30
0.0
 10
26.674909
 20
234.111212
 30
0.0
  0
SPLINE
  5
1e3
100
AcDbEntity
  8
Layer_1
 62
3
100
AcDbSpline
 70
8
 71
3
 72
8
 73
4
 74
0
 40
0
 40
0
 40
0
 40
0
 40
1
 40
1
 40
1
 40
1
 10
26.674909
 20
234.111212
 30
0.0
 10
26.426862
 20
234.612818
 30
0.0
 10
26.302839
 20
235.194350
 30
0.0
 10
26.302839
 20
235.855808
 30
0.0
  0
SPLINE
  5
1e4
100
AcDbEntity
  8
Layer_1
 62
3
100
AcDbSpline
 70
8
 71
3
 72
8
 73
4
 74
0
 40
0
 40
0
 40
0
 40
0
 40
1
 40
1
 40
1
 40
1
 10
26.302839
 20
235.855808
 30
0.0
 10
26.302839
 20
236.533803
 30
0.0
 10
26.410326
 20
237.118091
 30
0.0
 10
26.625300
 20
237.608673
 30
0.0
  0
SPLINE
  5
1e5
100
AcDbEntity
  8
Layer_1
 62
3
100
AcDbSpline
 70
8
 71
3
 72
8
 73
4
 74
0
 40
0
 40
0
 40
0
 40
0
 40
1
 40
1
 40
1
 40
1
 10
26.625300
 20
237.608673
 30
0.0
 10
26.840274
 20
238.104766
 30
0.0
 10
27.126906
 20
238.515422
 30
0.0
 10
27.485196
 20
238.840639
 30
0.0
  0
SPLINE
  5
1e6
100
AcDbEntity
  8
Layer_1
 62
3
100
AcDbSpline
 70
8
 71
3
 72
8
 73
4
 74
0
 40
0
 40
0
 40
0
 40
0
 40
1
 40
1
 40
1
 40
1
 10
27.485196
 20
238.840639
 30
0.0
 10
27.843485
 20
239.171368
 30
0.0
 10
28.273433
 20
239.419414
 30
0.0
 10
28.775039
 20
239.584779
 30
0.0
  0
SPLINE
  5
1e7
100
AcDbEntity
  8
Layer_1
 62
3
100
AcDbSpline
 70
8
 71
3
 72
8
 73
4
 74
0
 40
0
 40
0
 40
0
 40
0
 40
1
 40
1
 40
1
 40
1
 10
28.775039
 20
239.584779
 30
0.0
 10
29.271133
 20
239.755656
 30
0.0
 10
29.769983
 20
239.846606
 30
0.0
 10
30.271589
 20
239.857631
 30
0.0
  0
LWPOLYLINE
  5
1e8
100
AcDbEntity
  8
Layer_1
 62
3
100
AcDbPolyline
 90
2
 70
0
 10
30.833828
 20
239.270584
 30
0.0
 10
30.833828
 20
233.639920
 30
0.0
  0
SPLINE
  5
1e9
100
AcDbEntity
  8
Layer_1
 62
3
100
AcDbSpline
 70
8
 71
3
 72
8
 73
4
 74
0
 40
0
 40
0
 40
0
 40
0
 40
1
 40
1
 40
1
 40
1
 10
29.841641
 20
238.137836
 30
0.0
 10
29.577058
 20
238.115789
 30
0.0
 10
29.295938
 20
238.052400
 30
0.0
 10
28.998281
 20
237.947667
 30
0.0
  0
SPLINE
  5
1ea
100
AcDbEntity
  8
Layer_1
 62
3
100
AcDbSpline
 70
8
 71
3
 72
8
 73
4
 74
0
 40
0
 40
0
 40
0
 40
0
 40
1
 40
1
 40
1
 40
1
 10
28.998281
 20
237.947667
 30
0.0
 10
28.700625
 20
237.842936
 30
0.0
 10
28.447066
 20
237.694108
 30
0.0
 10
28.237604
 20
237.501183
 30
0.0
  0
SPLINE
  5
1eb
100
AcDbEntity
  8
Layer_1
 62
3
100
AcDbSpline
 70
8
 71
3
 72
8
 73
4
 74
0
 40
0
 40
0
 40
0
 40
0
 40
1
 40
1
 40
1
 40
1
 10
28.237604
 20
237.501183
 30
0.0
 10
28.022630
 20
237.313770
 30
0.0
 10
27.862778
 20
237.082259
 30
0.0
 10
27.758047
 20
236.806651
 30
0.0
  0
SPLINE
  5
1ec
100
AcDbEntity
  8
Layer_1
 62
3
100
AcDbSpline
 70
8
 71
3
 72
8
 73
4
 74
0
 40
0
 40
0
 40
0
 40
0
 40
1
 40
1
 40
1
 40
1
 10
27.758047
 20
236.806651
 30
0.0
 10
27.647804
 20
236.536556
 30
0.0
 10
27.592683
 20
236.225119
 30
0.0
 10
27.592683
 20
235.872341
 30
0.0
  0
SPLINE
  5
1ed
100
AcDbEntity
  8
Layer_1
 62
3
100
AcDbSpline
 70
8
 71
3
 72
8
 73
4
 74
0
 40
0
 40
0
 40
0
 40
0
 40
1
 40
1
 40
1
 40
1
 10
27.592683
 20
235.872341
 30
0.0
 10
27.592683
 20
235.552636
 30
0.0
 10
27.650560
 20
235.260492
 30
0.0
 10
27.766315
 20
234.995909
 30
0.0
  0
SPLINE
  5
1ee
100
AcDbEntity
  8
Layer_1
 62
3
100
AcDbSpline
 70
8
 71
3
 72
8
 73
4
 74
0
 40
0
 40
0
 40
0
 40
0
 40
1
 40
1
 40
1
 40
1
 10
27.766315
 20
234.995909
 30
0.0
 10
27.882070
 20
234.736838
 30
0.0
 10
28.050191
 20
234.510840
 30
0.0
 10
28.270677
 20
234.317914
 30
0.0
  0
SPLINE
  5
1ef
100
AcDbEntity
  8
Layer_1
 62
3
100
AcDbSpline
 70
8
 71
3
 72
8
 73
4
 74
0
 40
0
 40
0
 40
0
 40
0
 40
1
 40
1
 40
1
 40
1
 10
28.270677
 20
234.317914
 30
0.0
 10
28.491163
 20
234.130501
 30
0.0
 10
28.747478
 20
233.978917
 30
0.0
 10
29.039623
 20
233.863162
 30
0.0
  0
SPLINE
  5
1f0
100
AcDbEntity
  8
Layer_1
 62
3
100
AcDbSpline
 70
8
 71
3
 72
8
 73
4
 74
0
 40
0
 40
0
 40
0
 40
0
 40
1
 40
1
 40
1
 40
1
 10
29.039623
 20
233.863162
 30
0.0
 10
29.331767
 20
233.747407
 30
0.0
 10
29.599106
 20
233.678505
 30
0.0
 10
29.841641
 20
233.656456
 30
0.0
  0
LWPOLYLINE
  5
1f1
100
AcDbEntity
  8
Layer_1
 62
3
100
AcDbPolyline
 90
1
 70
1
 10
30.271589
 20
239.857631
 30
0.0
  0
SPLINE
  5
1f2
100
AcDbEntity
  8
Layer_1
 62
3
100
AcDbSpline
 70
8
 71
3
 72
8
 73
4
 74
0
 40
0
 40
0
 40
0
 40
0
 40
1
 40
1
 40
1
 40
1
 10
27.311563
 20
241.736169
 30
0.0
 10
27.162735
 20
241.736169
 30
0.0
 10
27.030443
 20
241.763729
 30
0.0
 10
26.914688
 20
241.818849
 30
0.0
  0
SPLINE
  5
1f3
100
AcDbEntity
  8
Layer_1
 62
3
100
AcDbSpline
 70
8
 71
3
 72
8
 73
4
 74
0
 40
0
 40
0
 40
0
 40
0
 40
1
 40
1
 40
1
 40
1
 10
26.914688
 20
241.818849
 30
0.0
 10
26.798933
 20
241.879482
 30
0.0
 10
26.705226
 20
241.953896
 30
0.0
 10
26.633568
 20
242.042091
 30
0.0
  0
SPLINE
  5
1f4
100
AcDbEntity
  8
Layer_1
 62
3
100
AcDbSpline
 70
8
 71
3
 72
8
 73
4
 74
0
 40
0
 40
0
 40
0
 40
0
 40
1
 40
1
 40
1
 40
1
 10
26.633568
 20
242.042091
 30
0.0
 10
26.556398
 20
242.135798
 30
0.0
 10
26.498520
 20
242.240529
 30
0.0
 10
26.459935
 20
242.356284
 30
0.0
  0
SPLINE
  5
1f5
100
AcDbEntity
  8
Layer_1
 62
3
100
AcDbSpline
 70
8
 71
3
 72
8
 73
4
 74
0
 40
0
 40
0
 40
0
 40
0
 40
1
 40
1
 40
1
 40
1
 10
26.459935
 20
242.356284
 30
0.0
 10
26.421348
 20
242.477551
 30
0.0
 10
26.402055
 20
242.598819
 30
0.0
 10
26.402055
 20
242.720086
 30
0.0
  0
SPLINE
  5
1f6
100
AcDbEntity
  8
Layer_1
 62
3
100
AcDbSpline
 70
8
 71
3
 72
8
 73
4
 74
0
 40
0
 40
0
 40
0
 40
0
 40
1
 40
1
 40
1
 40
1
 10
26.402055
 20
242.720086
 30
0.0
 10
26.402055
 20
242.835841
 30
0.0
 10
26.421348
 20
242.948841
 30
0.0
 10
26.459935
 20
243.059084
 30
0.0
  0
SPLINE
  5
1f7
100
AcDbEntity
  8
Layer_1
 62
3
100
AcDbSpline
 70
8
 71
3
 72
8
 73
4
 74
0
 40
0
 40
0
 40
0
 40
0
 40
1
 40
1
 40
1
 40
1
 10
26.459935
 20
243.059084
 30
0.0
 10
26.493008
 20
243.169327
 30
0.0
 10
26.545374
 20
243.268545
 30
0.0
 10
26.617032
 20
243.356740
 30
0.0
  0
SPLINE
  5
1f8
100
AcDbEntity
  8
Layer_1
 62
3
100
AcDbSpline
 70
8
 71
3
 72
8
 73
4
 74
0
 40
0
 40
0
 40
0
 40
0
 40
1
 40
1
 40
1
 40
1
 10
26.617032
 20
243.356740
 30
0.0
 10
26.683179
 20
243.444934
 30
0.0
 10
26.771373
 20
243.516592
 30
0.0
 10
26.881615
 20
243.571714
 30
0.0
  0
SPLINE
  5
1f9
100
AcDbEntity
  8
Layer_1
 62
3
100
AcDbSpline
 70
8
 71
3
 72
8
 73
4
 74
0
 40
0
 40
0
 40
0
 40
0
 40
1
 40
1
 40
1
 40
1
 10
26.881615
 20
243.571714
 30
0.0
 10
26.986346
 20
243.632347
 30
0.0
 10
27.110369
 20
243.665421
 30
0.0
 10
27.253685
 20
243.670934
 30
0.0
  0
SPLINE
  5
1fa
100
AcDbEntity
  8
Layer_1
 62
3
100
AcDbSpline
 70
8
 71
3
 72
8
 73
4
 74
0
 40
0
 40
0
 40
0
 40
0
 40
1
 40
1
 40
1
 40
1
 10
27.253685
 20
243.670934
 30
0.0
 10
27.259218
 20
243.670934
 30
0.0
 10
27.295047
 20
243.670934
 30
0.0
 10
27.361172
 20
243.670934
 30
0.0
  0
SPLINE
  5
1fb
100
AcDbEntity
  8
Layer_1
 62
3
100
AcDbSpline
 70
8
 71
3
 72
8
 73
4
 74
0
 40
0
 40
0
 40
0
 40
0
 40
1
 40
1
 40
1
 40
1
 10
27.361172
 20
243.670934
 30
0.0
 10
27.427319
 20
243.676467
 30
0.0
 10
27.504489
 20
243.679234
 30
0.0
 10
27.592683
 20
243.679234
 30
0.0
  0
SPLINE
  5
1fc
100
AcDbEntity
  8
Layer_1
 62
3
100
AcDbSpline
 70
8
 71
3
 72
8
 73
4
 74
0
 40
0
 40
0
 40
0
 40
0
 40
1
 40
1
 40
1
 40
1
 10
27.592683
 20
243.679234
 30
0.0
 10
27.675365
 20
243.679234
 30
0.0
 10
27.749779
 20
243.679234
 30
0.0
 10
27.815925
 20
243.679234
 30
0.0
  0
SPLINE
  5
1fd
100
AcDbEntity
  8
Layer_1
 62
3
100
AcDbSpline
 70
8
 71
3
 72
8
 73
4
 74
0
 40
0
 40
0
 40
0
 40
0
 40
1
 40
1
 40
1
 40
1
 10
27.815925
 20
243.679234
 30
0.0
 10
27.882072
 20
243.679234
 30
0.0
 10
27.917901
 20
243.679234
 30
0.0
 10
27.923412
 20
243.679234
 30
0.0
  0
SPLINE
  5
1fe
100
AcDbEntity
  8
Layer_1
 62
3
100
AcDbSpline
 70
8
 71
3
 72
8
 73
4
 74
0
 40
0
 40
0
 40
0
 40
0
 40
1
 40
1
 40
1
 40
1
 10
27.923412
 20
243.679234
 30
0.0
 10
27.454879
 20
243.806013
 30
0.0
 10
27.069028
 20
244.048548
 30
0.0
 10
26.765860
 20
244.406838
 30
0.0
  0
SPLINE
  5
1ff
100
AcDbEntity
  8
Layer_1
 62
3
100
AcDbSpline
 70
8
 71
3
 72
8
 73
4
 74
0
 40
0
 40
0
 40
0
 40
0
 40
1
 40
1
 40
1
 40
1
 10
26.765860
 20
244.406838
 30
0.0
 10
26.457179
 20
244.765128
 30
0.0
 10
26.302839
 20
245.244685
 30
0.0
 10
26.302839
 20
245.845510
 30
0.0
  0
SPLINE
  5
200
100
AcDbEntity
  8
Layer_1
 62
3
100
AcDbSpline
 70
8
 71
3
 72
8
 73
4
 74
0
 40
0
 40
0
 40
0
 40
0
 40
1
 40
1
 40
1
 40
1
 10
26.302839
 20
245.845510
 30
0.0
 10
26.302839
 20
245.983313
 30
0.0
 10
26.327642
 20
246.104581
 30
0.0
 10
26.377249
 20
246.209312
 30
0.0
  0
SPLINE
  5
201
100
AcDbEntity
  8
Layer_1
 62
3
100
AcDbSpline
 70
8
 71
3
 72
8
 73
4
 74
0
 40
0
 40
0
 40
0
 40
0
 40
1
 40
1
 40
1
 40
1
 10
26.377249
 20
246.209312
 30
0.0
 10
26.421349
 20
246.319555
 30
0.0
 10
26.479227
 20
246.410505
 30
0.0
 10
26.550882
 20
246.482163
 30
0.0
  0
SPLINE
  5
202
100
AcDbEntity
  8
Layer_1
 62
3
100
AcDbSpline
 70
8
 71
3
 72
8
 73
4
 74
0
 40
0
 40
0
 40
0
 40
0
 40
1
 40
1
 40
1
 40
1
 10
26.550882
 20
246.482163
 30
0.0
 10
26.622540
 20
246.553821
 30
0.0
 10
26.705222
 20
246.606187
 30
0.0
 10
26.798929
 20
246.639260
 30
0.0
  0
SPLINE
  5
203
100
AcDbEntity
  8
Layer_1
 62
3
100
AcDbSpline
 70
8
 71
3
 72
8
 73
4
 74
0
 40
0
 40
0
 40
0
 40
0
 40
1
 40
1
 40
1
 40
1
 10
26.798929
 20
246.639260
 30
0.0
 10
26.892635
 20
246.677847
 30
0.0
 10
26.989098
 20
246.697140
 30
0.0
 10
27.088317
 20
246.697140
 30
0.0
  0
SPLINE
  5
204
100
AcDbEntity
  8
Layer_1
 62
3
100
AcDbSpline
 70
8
 71
3
 72
8
 73
4
 74
0
 40
0
 40
0
 40
0
 40
0
 40
1
 40
1
 40
1
 40
1
 10
27.088317
 20
246.697140
 30
0.0
 10
27.187536
 20
246.697140
 30
0.0
 10
27.283998
 20
246.677847
 30
0.0
 10
27.377705
 20
246.639260
 30
0.0
  0
SPLINE
  5
205
100
AcDbEntity
  8
Layer_1
 62
3
100
AcDbSpline
 70
8
 71
3
 72
8
 73
4
 74
0
 40
0
 40
0
 40
0
 40
0
 40
1
 40
1
 40
1
 40
1
 10
27.377705
 20
246.639260
 30
0.0
 10
27.471411
 20
246.606187
 30
0.0
 10
27.556849
 20
246.551065
 30
0.0
 10
27.634020
 20
246.473895
 30
0.0
  0
SPLINE
  5
206
100
AcDbEntity
  8
Layer_1
 62
3
100
AcDbSpline
 70
8
 71
3
 72
8
 73
4
 74
0
 40
0
 40
0
 40
0
 40
0
 40
1
 40
1
 40
1
 40
1
 10
27.634020
 20
246.473895
 30
0.0
 10
27.705678
 20
246.402237
 30
0.0
 10
27.766312
 20
246.308530
 30
0.0
 10
27.815921
 20
246.192775
 30
0.0
  0
SPLINE
  5
207
100
AcDbEntity
  8
Layer_1
 62
3
100
AcDbSpline
 70
8
 71
3
 72
8
 73
4
 74
0
 40
0
 40
0
 40
0
 40
0
 40
1
 40
1
 40
1
 40
1
 10
27.815921
 20
246.192775
 30
0.0
 10
27.860021
 20
246.082532
 30
0.0
 10
27.882071
 20
245.952997
 30
0.0
 10
27.882071
 20
245.804168
 30
0.0
  0
SPLINE
  5
208
100
AcDbEntity
  8
Layer_1
 62
3
100
AcDbSpline
 70
8
 71
3
 72
8
 73
4
 74
0
 40
0
 40
0
 40
0
 40
0
 40
1
 40
1
 40
1
 40
1
 10
27.882071
 20
245.804168
 30
0.0
 10
27.882071
 20
245.484463
 30
0.0
 10
27.928924
 20
245.192319
 30
0.0
 10
28.022630
 20
244.927736
 30
0.0
  0
SPLINE
  5
209
100
AcDbEntity
  8
Layer_1
 62
3
100
AcDbSpline
 70
8
 71
3
 72
8
 73
4
 74
0
 40
0
 40
0
 40
0
 40
0
 40
1
 40
1
 40
1
 40
1
 10
28.022630
 20
244.927736
 30
0.0
 10
28.116337
 20
244.668665
 30
0.0
 10
28.259653
 20
244.445423
 30
0.0
 10
28.452578
 20
244.258010
 30
0.0
  0
SPLINE
  5
20a
100
AcDbEntity
  8
Layer_1
 62
3
100
AcDbSpline
 70
8
 71
3
 72
8
 73
4
 74
0
 40
0
 40
0
 40
0
 40
0
 40
1
 40
1
 40
1
 40
1
 10
28.452578
 20
244.258010
 30
0.0
 10
28.639991
 20
244.076109
 30
0.0
 10
28.857721
 20
243.932793
 30
0.0
 10
29.105768
 20
243.828062
 30
0.0
  0
SPLINE
  5
20b
100
AcDbEntity
  8
Layer_1
 62
3
100
AcDbSpline
 70
8
 71
3
 72
8
 73
4
 74
0
 40
0
 40
0
 40
0
 40
0
 40
1
 40
1
 40
1
 40
1
 10
29.105768
 20
243.828062
 30
0.0
 10
29.353815
 20
243.728843
 30
0.0
 10
29.670764
 20
243.679234
 30
0.0
 10
30.056615
 20
243.679234
 30
0.0
  0
LWPOLYLINE
  5
20c
100
AcDbEntity
  8
Layer_1
 62
3
100
AcDbPolyline
 90
2
 70
0
 10
29.841641
 20
233.656456
 30
0.0
 10
29.841641
 20
238.137836
 30
0.0
  0
SPLINE
  5
20d
100
AcDbEntity
  8
Layer_1
 62
3
100
AcDbSpline
 70
8
 71
3
 72
8
 73
4
 74
0
 40
0
 40
0
 40
0
 40
0
 40
1
 40
1
 40
1
 40
1
 10
33.760781
 20
243.679234
 30
0.0
 10
33.915122
 20
243.679234
 30
0.0
 10
34.050169
 20
243.648917
 30
0.0
 10
34.165924
 20
243.588284
 30
0.0
  0
SPLINE
  5
20e
100
AcDbEntity
  8
Layer_1
 62
3
100
AcDbSpline
 70
8
 71
3
 72
8
 73
4
 74
0
 40
0
 40
0
 40
0
 40
0
 40
1
 40
1
 40
1
 40
1
 10
34.165924
 20
243.588284
 30
0.0
 10
34.276167
 20
243.533164
 30
0.0
 10
34.369874
 20
243.458750
 30
0.0
 10
34.447044
 20
243.365042
 30
0.0
  0
SPLINE
  5
20f
100
AcDbEntity
  8
Layer_1
 62
3
100
AcDbSpline
 70
8
 71
3
 72
8
 73
4
 74
0
 40
0
 40
0
 40
0
 40
0
 40
1
 40
1
 40
1
 40
1
 10
34.447044
 20
243.365042
 30
0.0
 10
34.524214
 20
243.276847
 30
0.0
 10
34.582092
 20
243.172116
 30
0.0
 10
34.620677
 20
243.050849
 30
0.0
  0
SPLINE
  5
210
100
AcDbEntity
  8
Layer_1
 62
3
100
AcDbSpline
 70
8
 71
3
 72
8
 73
4
 74
0
 40
0
 40
0
 40
0
 40
0
 40
1
 40
1
 40
1
 40
1
 10
34.620677
 20
243.050849
 30
0.0
 10
34.659264
 20
242.935094
 30
0.0
 10
34.678557
 20
242.816583
 30
0.0
 10
34.678557
 20
242.695315
 30
0.0
  0
SPLINE
  5
211
100
AcDbEntity
  8
Layer_1
 62
3
100
AcDbSpline
 70
8
 71
3
 72
8
 73
4
 74
0
 40
0
 40
0
 40
0
 40
0
 40
1
 40
1
 40
1
 40
1
 10
34.678557
 20
242.695315
 30
0.0
 10
34.678557
 20
242.574048
 30
0.0
 10
34.659264
 20
242.455537
 30
0.0
 10
34.620677
 20
242.339782
 30
0.0
  0
SPLINE
  5
212
100
AcDbEntity
  8
Layer_1
 62
3
100
AcDbSpline
 70
8
 71
3
 72
8
 73
4
 74
0
 40
0
 40
0
 40
0
 40
0
 40
1
 40
1
 40
1
 40
1
 10
34.620677
 20
242.339782
 30
0.0
 10
34.582090
 20
242.229539
 30
0.0
 10
34.526969
 20
242.127564
 30
0.0
 10
34.455312
 20
242.033857
 30
0.0
  0
SPLINE
  5
213
100
AcDbEntity
  8
Layer_1
 62
3
100
AcDbSpline
 70
8
 71
3
 72
8
 73
4
 74
0
 40
0
 40
0
 40
0
 40
0
 40
1
 40
1
 40
1
 40
1
 10
34.455312
 20
242.033857
 30
0.0
 10
34.378142
 20
241.945663
 30
0.0
 10
34.281679
 20
241.874005
 30
0.0
 10
34.165924
 20
241.818883
 30
0.0
  0
SPLINE
  5
214
100
AcDbEntity
  8
Layer_1
 62
3
100
AcDbSpline
 70
8
 71
3
 72
8
 73
4
 74
0
 40
0
 40
0
 40
0
 40
0
 40
1
 40
1
 40
1
 40
1
 10
34.165924
 20
241.818883
 30
0.0
 10
34.050169
 20
241.763763
 30
0.0
 10
33.915122
 20
241.736203
 30
0.0
 10
33.760781
 20
241.736203
 30
0.0
  0
LWPOLYLINE
  5
215
100
AcDbEntity
  8
Layer_1
 62
3
100
AcDbPolyline
 90
2
 70
0
 10
30.056615
 20
243.679234
 30
0.0
 10
33.760781
 20
243.679234
 30
0.0
  0
LWPOLYLINE
  5
216
100
AcDbEntity
  8
Layer_1
 62
3
100
AcDbPolyline
 90
2
 70
0
 10
33.760781
 20
241.736203
 30
0.0
 10
27.311563
 20
241.736169
 30
0.0
  0
SPLINE
  5
217
100
AcDbEntity
  8
Layer_1
 62
3
100
AcDbSpline
 70
8
 71
3
 72
8
 73
4
 74
0
 40
0
 40
0
 40
0
 40
0
 40
1
 40
1
 40
1
 40
1
 10
33.438320
 20
252.941271
 30
0.0
 10
33.636757
 20
252.897171
 30
0.0
 10
33.813146
 20
252.820001
 30
0.0
 10
33.967487
 20
252.709761
 30
0.0
  0
SPLINE
  5
218
100
AcDbEntity
  8
Layer_1
 62
3
100
AcDbSpline
 70
8
 71
3
 72
8
 73
4
 74
0
 40
0
 40
0
 40
0
 40
0
 40
1
 40
1
 40
1
 40
1
 10
33.967487
 20
252.709761
 30
0.0
 10
34.116315
 20
252.599518
 30
0.0
 10
34.245851
 20
252.467226
 30
0.0
 10
34.356094
 20
252.312886
 30
0.0
  0
SPLINE
  5
219
100
AcDbEntity
  8
Layer_1
 62
3
100
AcDbSpline
 70
8
 71
3
 72
8
 73
4
 74
0
 40
0
 40
0
 40
0
 40
0
 40
1
 40
1
 40
1
 40
1
 10
34.356094
 20
252.312886
 30
0.0
 10
34.460825
 20
252.158545
 30
0.0
 10
34.540751
 20
251.990425
 30
0.0
 10
34.595872
 20
251.808524
 30
0.0
  0
SPLINE
  5
21a
100
AcDbEntity
  8
Layer_1
 62
3
100
AcDbSpline
 70
8
 71
3
 72
8
 73
4
 74
0
 40
0
 40
0
 40
0
 40
0
 40
1
 40
1
 40
1
 40
1
 10
34.595872
 20
251.808524
 30
0.0
 10
34.650992
 20
251.632135
 30
0.0
 10
34.678552
 20
251.450234
 30
0.0
 10
34.678552
 20
251.262821
 30
0.0
  0
SPLINE
  5
21b
100
AcDbEntity
  8
Layer_1
 62
3
100
AcDbSpline
 70
8
 71
3
 72
8
 73
4
 74
0
 40
0
 40
0
 40
0
 40
0
 40
1
 40
1
 40
1
 40
1
 10
34.678552
 20
251.262821
 30
0.0
 10
34.678552
 20
251.091944
 30
0.0
 10
34.653745
 20
250.923824
 30
0.0
 10
34.604132
 20
250.758459
 30
0.0
  0
SPLINE
  5
21c
100
AcDbEntity
  8
Layer_1
 62
3
100
AcDbSpline
 70
8
 71
3
 72
8
 73
4
 74
0
 40
0
 40
0
 40
0
 40
0
 40
1
 40
1
 40
1
 40
1
 10
34.604132
 20
250.758459
 30
0.0
 10
34.554525
 20
250.598606
 30
0.0
 10
34.480111
 20
250.449778
 30
0.0
 10
34.380890
 20
250.311975
 30
0.0
  0
SPLINE
  5
21d
100
AcDbEntity
  8
Layer_1
 62
3
100
AcDbSpline
 70
8
 71
3
 72
8
 73
4
 74
0
 40
0
 40
0
 40
0
 40
0
 40
1
 40
1
 40
1
 40
1
 10
34.380890
 20
250.311975
 30
0.0
 10
34.281671
 20
250.174171
 30
0.0
 10
34.154892
 20
250.052903
 30
0.0
 10
34.000552
 20
249.948172
 30
0.0
  0
SPLINE
  5
21e
100
AcDbEntity
  8
Layer_1
 62
3
100
AcDbSpline
 70
8
 71
3
 72
8
 73
4
 74
0
 40
0
 40
0
 40
0
 40
0
 40
1
 40
1
 40
1
 40
1
 10
34.000552
 20
249.948172
 30
0.0
 10
33.840699
 20
249.843441
 30
0.0
 10
33.653286
 20
249.766271
 30
0.0
 10
33.438312
 20
249.716662
 30
0.0
  0
LWPOLYLINE
  5
21f
100
AcDbEntity
  8
Layer_1
 62
3
100
AcDbPolyline
 90
2
 70
0
 10
24.831094
 20
255.487886
 30
0.0
 10
33.438320
 20
252.941271
 30
0.0
  0
SPLINE
  5
220
100
AcDbEntity
  8
Layer_1
 62
3
100
AcDbSpline
 70
8
 71
3
 72
8
 73
4
 74
0
 40
0
 40
0
 40
0
 40
0
 40
1
 40
1
 40
1
 40
1
 10
24.037336
 20
247.277535
 30
0.0
 10
23.954654
 20
247.255488
 30
0.0
 10
23.866460
 20
247.244465
 30
0.0
 10
23.772753
 20
247.244465
 30
0.0
  0
SPLINE
  5
221
100
AcDbEntity
  8
Layer_1
 62
3
100
AcDbSpline
 70
8
 71
3
 72
8
 73
4
 74
0
 40
0
 40
0
 40
0
 40
0
 40
1
 40
1
 40
1
 40
1
 10
23.772753
 20
247.244465
 30
0.0
 10
23.623925
 20
247.244465
 30
0.0
 10
23.491633
 20
247.277538
 30
0.0
 10
23.375878
 20
247.343685
 30
0.0
  0
SPLINE
  5
222
100
AcDbEntity
  8
Layer_1
 62
3
100
AcDbSpline
 70
8
 71
3
 72
8
 73
4
 74
0
 40
0
 40
0
 40
0
 40
0
 40
1
 40
1
 40
1
 40
1
 10
23.375878
 20
247.343685
 30
0.0
 10
23.254611
 20
247.409832
 30
0.0
 10
23.152636
 20
247.492514
 30
0.0
 10
23.069953
 20
247.591732
 30
0.0
  0
SPLINE
  5
223
100
AcDbEntity
  8
Layer_1
 62
3
100
AcDbSpline
 70
8
 71
3
 72
8
 73
4
 74
0
 40
0
 40
0
 40
0
 40
0
 40
1
 40
1
 40
1
 40
1
 10
23.069953
 20
247.591732
 30
0.0
 10
22.987271
 20
247.696463
 30
0.0
 10
22.923881
 20
247.814975
 30
0.0
 10
22.879784
 20
247.947266
 30
0.0
  0
SPLINE
  5
224
100
AcDbEntity
  8
Layer_1
 62
3
100
AcDbSpline
 70
8
 71
3
 72
8
 73
4
 74
0
 40
0
 40
0
 40
0
 40
0
 40
1
 40
1
 40
1
 40
1
 10
22.879784
 20
247.947266
 30
0.0
 10
22.830177
 20
248.079558
 30
0.0
 10
22.805374
 20
248.211850
 30
0.0
 10
22.805374
 20
248.344141
 30
0.0
  0
SPLINE
  5
225
100
AcDbEntity
  8
Layer_1
 62
3
100
AcDbSpline
 70
8
 71
3
 72
8
 73
4
 74
0
 40
0
 40
0
 40
0
 40
0
 40
1
 40
1
 40
1
 40
1
 10
22.805374
 20
248.344141
 30
0.0
 10
22.805374
 20
248.548091
 30
0.0
 10
22.863252
 20
248.732748
 30
0.0
 10
22.979007
 20
248.898112
 30
0.0
  0
SPLINE
  5
226
100
AcDbEntity
  8
Layer_1
 62
3
100
AcDbSpline
 70
8
 71
3
 72
8
 73
4
 74
0
 40
0
 40
0
 40
0
 40
0
 40
1
 40
1
 40
1
 40
1
 10
22.979007
 20
248.898112
 30
0.0
 10
23.089250
 20
249.068989
 30
0.0
 10
23.271151
 20
249.179232
 30
0.0
 10
23.524710
 20
249.228842
 30
0.0
  0
LWPOLYLINE
  5
227
100
AcDbEntity
  8
Layer_1
 62
3
100
AcDbPolyline
 90
2
 70
0
 10
33.438312
 20
249.716662
 30
0.0
 10
24.037336
 20
247.277535
 30
0.0
  0
SPLINE
  5
228
100
AcDbEntity
  8
Layer_1
 62
3
100
AcDbSpline
 70
8
 71
3
 72
8
 73
4
 74
0
 40
0
 40
0
 40
0
 40
0
 40
1
 40
1
 40
1
 40
1
 10
23.971194
 20
254.049219
 30
0.0
 10
23.772757
 20
254.093319
 30
0.0
 10
23.599124
 20
254.162221
 30
0.0
 10
23.450296
 20
254.255925
 30
0.0
  0
SPLINE
  5
229
100
AcDbEntity
  8
Layer_1
 62
3
100
AcDbSpline
 70
8
 71
3
 72
8
 73
4
 74
0
 40
0
 40
0
 40
0
 40
0
 40
1
 40
1
 40
1
 40
1
 10
23.450296
 20
254.255925
 30
0.0
 10
23.301468
 20
254.355144
 30
0.0
 10
23.177445
 20
254.468143
 30
0.0
 10
23.078226
 20
254.594922
 30
0.0
  0
SPLINE
  5
22a
100
AcDbEntity
  8
Layer_1
 62
3
100
AcDbSpline
 70
8
 71
3
 72
8
 73
4
 74
0
 40
0
 40
0
 40
0
 40
0
 40
1
 40
1
 40
1
 40
1
 10
23.078226
 20
254.594922
 30
0.0
 10
22.979007
 20
254.727213
 30
0.0
 10
22.904593
 20
254.870529
 30
0.0
 10
22.854983
 20
255.024870
 30
0.0
  0
SPLINE
  5
22b
100
AcDbEntity
  8
Layer_1
 62
3
100
AcDbSpline
 70
8
 71
3
 72
8
 73
4
 74
0
 40
0
 40
0
 40
0
 40
0
 40
1
 40
1
 40
1
 40
1
 10
22.854983
 20
255.024870
 30
0.0
 10
22.805376
 20
255.179210
 30
0.0
 10
22.780573
 20
255.336306
 30
0.0
 10
22.780573
 20
255.496159
 30
0.0
  0
SPLINE
  5
22c
100
AcDbEntity
  8
Layer_1
 62
3
100
AcDbSpline
 70
8
 71
3
 72
8
 73
4
 74
0
 40
0
 40
0
 40
0
 40
0
 40
1
 40
1
 40
1
 40
1
 10
22.780573
 20
255.496159
 30
0.0
 10
22.780573
 20
255.656012
 30
0.0
 10
22.805376
 20
255.813108
 30
0.0
 10
22.854983
 20
255.967448
 30
0.0
  0
SPLINE
  5
22d
100
AcDbEntity
  8
Layer_1
 62
3
100
AcDbSpline
 70
8
 71
3
 72
8
 73
4
 74
0
 40
0
 40
0
 40
0
 40
0
 40
1
 40
1
 40
1
 40
1
 10
22.854983
 20
255.967448
 30
0.0
 10
22.904590
 20
256.121788
 30
0.0
 10
22.979004
 20
256.265104
 30
0.0
 10
23.078226
 20
256.397396
 30
0.0
  0
SPLINE
  5
22e
100
AcDbEntity
  8
Layer_1
 62
3
100
AcDbSpline
 70
8
 71
3
 72
8
 73
4
 74
0
 40
0
 40
0
 40
0
 40
0
 40
1
 40
1
 40
1
 40
1
 10
23.078226
 20
256.397396
 30
0.0
 10
23.177445
 20
256.529687
 30
0.0
 10
23.301468
 20
256.645442
 30
0.0
 10
23.450296
 20
256.744661
 30
0.0
  0
SPLINE
  5
22f
100
AcDbEntity
  8
Layer_1
 62
3
100
AcDbSpline
 70
8
 71
3
 72
8
 73
4
 74
0
 40
0
 40
0
 40
0
 40
0
 40
1
 40
1
 40
1
 40
1
 10
23.450296
 20
256.744661
 30
0.0
 10
23.599124
 20
256.843880
 30
0.0
 10
23.772757
 20
256.915538
 30
0.0
 10
23.971194
 20
256.959635
 30
0.0
  0
LWPOLYLINE
  5
230
100
AcDbEntity
  8
Layer_1
 62
3
100
AcDbPolyline
 90
3
 70
0
 10
23.524710
 20
249.228842
 30
0.0
 10
32.735517
 20
251.428190
 30
0.0
 10
23.971194
 20
254.049219
 30
0.0
  0
SPLINE
  5
231
100
AcDbEntity
  8
Layer_1
 62
3
100
AcDbSpline
 70
8
 71
3
 72
8
 73
4
 74
0
 40
0
 40
0
 40
0
 40
0
 40
1
 40
1
 40
1
 40
1
 10
23.541246
 20
261.854427
 30
0.0
 10
23.276663
 20
261.904034
 30
0.0
 10
23.086494
 20
262.014277
 30
0.0
 10
22.970739
 20
262.185156
 30
0.0
  0
SPLINE
  5
232
100
AcDbEntity
  8
Layer_1
 62
3
100
AcDbSpline
 70
8
 71
3
 72
8
 73
4
 74
0
 40
0
 40
0
 40
0
 40
0
 40
1
 40
1
 40
1
 40
1
 10
22.970739
 20
262.185156
 30
0.0
 10
22.849472
 20
262.361545
 30
0.0
 10
22.788838
 20
262.551714
 30
0.0
 10
22.788838
 20
262.755664
 30
0.0
  0
SPLINE
  5
233
100
AcDbEntity
  8
Layer_1
 62
3
100
AcDbSpline
 70
8
 71
3
 72
8
 73
4
 74
0
 40
0
 40
0
 40
0
 40
0
 40
1
 40
1
 40
1
 40
1
 10
22.788838
 20
262.755664
 30
0.0
 10
22.788838
 20
262.882443
 30
0.0
 10
22.810888
 20
263.006467
 30
0.0
 10
22.854988
 20
263.127734
 30
0.0
  0
SPLINE
  5
234
100
AcDbEntity
  8
Layer_1
 62
3
100
AcDbSpline
 70
8
 71
3
 72
8
 73
4
 74
0
 40
0
 40
0
 40
0
 40
0
 40
1
 40
1
 40
1
 40
1
 10
22.854988
 20
263.127734
 30
0.0
 10
22.899088
 20
263.254513
 30
0.0
 10
22.962478
 20
263.367512
 30
0.0
 10
23.045158
 20
263.466731
 30
0.0
  0
SPLINE
  5
235
100
AcDbEntity
  8
Layer_1
 62
3
100
AcDbSpline
 70
8
 71
3
 72
8
 73
4
 74
0
 40
0
 40
0
 40
0
 40
0
 40
1
 40
1
 40
1
 40
1
 10
23.045158
 20
263.466731
 30
0.0
 10
23.122328
 20
263.565950
 30
0.0
 10
23.218791
 20
263.645877
 30
0.0
 10
23.334546
 20
263.706510
 30
0.0
  0
SPLINE
  5
236
100
AcDbEntity
  8
Layer_1
 62
3
100
AcDbSpline
 70
8
 71
3
 72
8
 73
4
 74
0
 40
0
 40
0
 40
0
 40
0
 40
1
 40
1
 40
1
 40
1
 10
23.334546
 20
263.706510
 30
0.0
 10
23.444789
 20
263.767143
 30
0.0
 10
23.571568
 20
263.797460
 30
0.0
 10
23.714884
 20
263.797460
 30
0.0
  0
SPLINE
  5
237
100
AcDbEntity
  8
Layer_1
 62
3
100
AcDbSpline
 70
8
 71
3
 72
8
 73
4
 74
0
 40
0
 40
0
 40
0
 40
0
 40
1
 40
1
 40
1
 40
1
 10
23.714884
 20
263.797460
 30
0.0
 10
23.803079
 20
263.797460
 30
0.0
 10
23.888517
 20
263.786437
 30
0.0
 10
23.971199
 20
263.764390
 30
0.0
  0
LWPOLYLINE
  5
238
100
AcDbEntity
  8
Layer_1
 62
3
100
AcDbPolyline
 90
3
 70
0
 10
23.971194
 20
256.959635
 30
0.0
 10
32.718980
 20
259.679883
 30
0.0
 10
23.541246
 20
261.854427
 30
0.0
  0
SPLINE
  5
239
100
AcDbEntity
  8
Layer_1
 62
3
100
AcDbSpline
 70
8
 71
3
 72
8
 73
4
 74
0
 40
0
 40
0
 40
0
 40
0
 40
1
 40
1
 40
1
 40
1
 10
33.438321
 20
261.292189
 30
0.0
 10
33.647783
 20
261.242582
 30
0.0
 10
33.832440
 20
261.162656
 30
0.0
 10
33.992293
 20
261.052411
 30
0.0
  0
SPLINE
  5
23a
100
AcDbEntity
  8
Layer_1
 62
3
100
AcDbSpline
 70
8
 71
3
 72
8
 73
4
 74
0
 40
0
 40
0
 40
0
 40
0
 40
1
 40
1
 40
1
 40
1
 10
33.992293
 20
261.052411
 30
0.0
 10
34.146633
 20
260.942168
 30
0.0
 10
34.278925
 20
260.812632
 30
0.0
 10
34.389168
 20
260.663804
 30
0.0
  0
SPLINE
  5
23b
100
AcDbEntity
  8
Layer_1
 62
3
100
AcDbSpline
 70
8
 71
3
 72
8
 73
4
 74
0
 40
0
 40
0
 40
0
 40
0
 40
1
 40
1
 40
1
 40
1
 10
34.389168
 20
260.663804
 30
0.0
 10
34.493899
 20
260.520488
 30
0.0
 10
34.573825
 20
260.360636
 30
0.0
 10
34.628946
 20
260.184247
 30
0.0
  0
SPLINE
  5
23c
100
AcDbEntity
  8
Layer_1
 62
3
100
AcDbSpline
 70
8
 71
3
 72
8
 73
4
 74
0
 40
0
 40
0
 40
0
 40
0
 40
1
 40
1
 40
1
 40
1
 10
34.628946
 20
260.184247
 30
0.0
 10
34.684066
 20
260.013370
 30
0.0
 10
34.711626
 20
259.839737
 30
0.0
 10
34.711626
 20
259.663348
 30
0.0
  0
SPLINE
  5
23d
100
AcDbEntity
  8
Layer_1
 62
3
100
AcDbSpline
 70
8
 71
3
 72
8
 73
4
 74
0
 40
0
 40
0
 40
0
 40
0
 40
1
 40
1
 40
1
 40
1
 10
34.711626
 20
259.663348
 30
0.0
 10
34.711626
 20
259.486959
 30
0.0
 10
34.686823
 20
259.313327
 30
0.0
 10
34.637216
 20
259.142450
 30
0.0
  0
SPLINE
  5
23e
100
AcDbEntity
  8
Layer_1
 62
3
100
AcDbSpline
 70
8
 71
3
 72
8
 73
4
 74
0
 40
0
 40
0
 40
0
 40
0
 40
1
 40
1
 40
1
 40
1
 10
34.637216
 20
259.142450
 30
0.0
 10
34.582096
 20
258.977085
 30
0.0
 10
34.502170
 20
258.822745
 30
0.0
 10
34.397438
 20
258.679429
 30
0.0
  0
SPLINE
  5
23f
100
AcDbEntity
  8
Layer_1
 62
3
100
AcDbSpline
 70
8
 71
3
 72
8
 73
4
 74
0
 40
0
 40
0
 40
0
 40
0
 40
1
 40
1
 40
1
 40
1
 10
34.397438
 20
258.679429
 30
0.0
 10
34.287195
 20
258.536113
 30
0.0
 10
34.154903
 20
258.412090
 30
0.0
 10
34.000563
 20
258.307359
 30
0.0
  0
SPLINE
  5
240
100
AcDbEntity
  8
Layer_1
 62
3
100
AcDbSpline
 70
8
 71
3
 72
8
 73
4
 74
0
 40
0
 40
0
 40
0
 40
0
 40
1
 40
1
 40
1
 40
1
 10
34.000563
 20
258.307359
 30
0.0
 10
33.840710
 20
258.202628
 30
0.0
 10
33.653297
 20
258.125457
 30
0.0
 10
33.438323
 20
258.075848
 30
0.0
  0
LWPOLYLINE
  5
241
100
AcDbEntity
  8
Layer_1
 62
3
100
AcDbPolyline
 90
2
 70
0
 10
23.971199
 20
263.764390
 30
0.0
 10
33.438321
 20
261.292189
 30
0.0
  0
SPLINE
  5
242
100
AcDbEntity
  8
Layer_1
 62
3
100
AcDbSpline
 70
8
 71
3
 72
8
 73
4
 74
0
 40
0
 40
0
 40
0
 40
0
 40
1
 40
1
 40
1
 40
1
 10
23.657006
 20
267.614899
 30
0.0
 10
23.927101
 20
267.614899
 30
0.0
 10
24.150343
 20
267.507412
 30
0.0
 10
24.326732
 20
267.292438
 30
0.0
  0
SPLINE
  5
243
100
AcDbEntity
  8
Layer_1
 62
3
100
AcDbSpline
 70
8
 71
3
 72
8
 73
4
 74
0
 40
0
 40
0
 40
0
 40
0
 40
1
 40
1
 40
1
 40
1
 10
24.326732
 20
267.292438
 30
0.0
 10
24.497609
 20
267.077465
 30
0.0
 10
24.583047
 20
266.801857
 30
0.0
 10
24.583047
 20
266.465616
 30
0.0
  0
SPLINE
  5
244
100
AcDbEntity
  8
Layer_1
 62
3
100
AcDbSpline
 70
8
 71
3
 72
8
 73
4
 74
0
 40
0
 40
0
 40
0
 40
0
 40
1
 40
1
 40
1
 40
1
 10
24.583047
 20
266.465616
 30
0.0
 10
24.583047
 20
266.300251
 30
0.0
 10
24.560997
 20
266.145911
 30
0.0
 10
24.516897
 20
266.002595
 30
0.0
  0
SPLINE
  5
245
100
AcDbEntity
  8
Layer_1
 62
3
100
AcDbSpline
 70
8
 71
3
 72
8
 73
4
 74
0
 40
0
 40
0
 40
0
 40
0
 40
1
 40
1
 40
1
 40
1
 10
24.516897
 20
266.002595
 30
0.0
 10
24.467290
 20
265.864791
 30
0.0
 10
24.401145
 20
265.743524
 30
0.0
 10
24.318460
 20
265.638793
 30
0.0
  0
SPLINE
  5
246
100
AcDbEntity
  8
Layer_1
 62
3
100
AcDbSpline
 70
8
 71
3
 72
8
 73
4
 74
0
 40
0
 40
0
 40
0
 40
0
 40
1
 40
1
 40
1
 40
1
 10
24.318460
 20
265.638793
 30
0.0
 10
24.235778
 20
265.539574
 30
0.0
 10
24.139315
 20
265.459648
 30
0.0
 10
24.029072
 20
265.399014
 30
0.0
  0
SPLINE
  5
247
100
AcDbEntity
  8
Layer_1
 62
3
100
AcDbSpline
 70
8
 71
3
 72
8
 73
4
 74
0
 40
0
 40
0
 40
0
 40
0
 40
1
 40
1
 40
1
 40
1
 10
24.029072
 20
265.399014
 30
0.0
 10
23.913317
 20
265.343894
 30
0.0
 10
23.789293
 20
265.316334
 30
0.0
 10
23.657002
 20
265.316334
 30
0.0
  0
SPLINE
  5
248
100
AcDbEntity
  8
Layer_1
 62
3
100
AcDbSpline
 70
8
 71
3
 72
8
 73
4
 74
0
 40
0
 40
0
 40
0
 40
0
 40
1
 40
1
 40
1
 40
1
 10
23.657002
 20
265.316334
 30
0.0
 10
23.524710
 20
265.316334
 30
0.0
 10
23.403443
 20
265.343894
 30
0.0
 10
23.293200
 20
265.399014
 30
0.0
  0
SPLINE
  5
249
100
AcDbEntity
  8
Layer_1
 62
3
100
AcDbSpline
 70
8
 71
3
 72
8
 73
4
 74
0
 40
0
 40
0
 40
0
 40
0
 40
1
 40
1
 40
1
 40
1
 10
23.293200
 20
265.399014
 30
0.0
 10
23.177445
 20
265.459647
 30
0.0
 10
23.078226
 20
265.539574
 30
0.0
 10
22.995543
 20
265.638793
 30
0.0
  0
SPLINE
  5
24a
100
AcDbEntity
  8
Layer_1
 62
3
100
AcDbSpline
 70
8
 71
3
 72
8
 73
4
 74
0
 40
0
 40
0
 40
0
 40
0
 40
1
 40
1
 40
1
 40
1
 10
22.995543
 20
265.638793
 30
0.0
 10
22.912861
 20
265.743524
 30
0.0
 10
22.849471
 20
265.867547
 30
0.0
 10
22.805374
 20
266.010863
 30
0.0
  0
SPLINE
  5
24b
100
AcDbEntity
  8
Layer_1
 62
3
100
AcDbSpline
 70
8
 71
3
 72
8
 73
4
 74
0
 40
0
 40
0
 40
0
 40
0
 40
1
 40
1
 40
1
 40
1
 10
22.805374
 20
266.010863
 30
0.0
 10
22.755767
 20
266.154179
 30
0.0
 10
22.730964
 20
266.308519
 30
0.0
 10
22.730964
 20
266.473884
 30
0.0
  0
SPLINE
  5
24c
100
AcDbEntity
  8
Layer_1
 62
3
100
AcDbSpline
 70
8
 71
3
 72
8
 73
4
 74
0
 40
0
 40
0
 40
0
 40
0
 40
1
 40
1
 40
1
 40
1
 10
22.730964
 20
266.473884
 30
0.0
 10
22.730964
 20
266.639249
 30
0.0
 10
22.755767
 20
266.790833
 30
0.0
 10
22.805374
 20
266.928636
 30
0.0
  0
SPLINE
  5
24d
100
AcDbEntity
  8
Layer_1
 62
3
100
AcDbSpline
 70
8
 71
3
 72
8
 73
4
 74
0
 40
0
 40
0
 40
0
 40
0
 40
1
 40
1
 40
1
 40
1
 10
22.805374
 20
266.928636
 30
0.0
 10
22.849474
 20
267.071952
 30
0.0
 10
22.912864
 20
267.193219
 30
0.0
 10
22.995543
 20
267.292438
 30
0.0
  0
SPLINE
  5
24e
100
AcDbEntity
  8
Layer_1
 62
3
100
AcDbSpline
 70
8
 71
3
 72
8
 73
4
 74
0
 40
0
 40
0
 40
0
 40
0
 40
1
 40
1
 40
1
 40
1
 10
22.995543
 20
267.292438
 30
0.0
 10
23.078226
 20
267.391657
 30
0.0
 10
23.177445
 20
267.468828
 30
0.0
 10
23.293200
 20
267.523949
 30
0.0
  0
SPLINE
  5
24f
100
AcDbEntity
  8
Layer_1
 62
3
100
AcDbSpline
 70
8
 71
3
 72
8
 73
4
 74
0
 40
0
 40
0
 40
0
 40
0
 40
1
 40
1
 40
1
 40
1
 10
23.293200
 20
267.523949
 30
0.0
 10
23.403443
 20
267.584582
 30
0.0
 10
23.524710
 20
267.614899
 30
0.0
 10
23.657002
 20
267.614899
 30
0.0
  0
LWPOLYLINE
  5
250
100
AcDbEntity
  8
Layer_1
 62
3
100
AcDbPolyline
 90
2
 70
0
 10
33.438323
 20
258.075848
 30
0.0
 10
24.831094
 20
255.487886
 30
0.0
  0
SPLINE
  5
251
100
AcDbEntity
  8
Layer_1
 62
3
100
AcDbSpline
 70
8
 71
3
 72
8
 73
4
 74
0
 40
0
 40
0
 40
0
 40
0
 40
1
 40
1
 40
1
 40
1
 10
27.361172
 20
265.498233
 30
0.0
 10
27.201319
 20
265.498233
 30
0.0
 10
27.063516
 20
265.525793
 30
0.0
 10
26.947761
 20
265.580913
 30
0.0
  0
SPLINE
  5
252
100
AcDbEntity
  8
Layer_1
 62
3
100
AcDbSpline
 70
8
 71
3
 72
8
 73
4
 74
0
 40
0
 40
0
 40
0
 40
0
 40
1
 40
1
 40
1
 40
1
 10
26.947761
 20
265.580913
 30
0.0
 10
26.826494
 20
265.636033
 30
0.0
 10
26.727275
 20
265.707691
 30
0.0
 10
26.650104
 20
265.795887
 30
0.0
  0
SPLINE
  5
253
100
AcDbEntity
  8
Layer_1
 62
3
100
AcDbSpline
 70
8
 71
3
 72
8
 73
4
 74
0
 40
0
 40
0
 40
0
 40
0
 40
1
 40
1
 40
1
 40
1
 10
26.650104
 20
265.795887
 30
0.0
 10
26.567422
 20
265.889594
 30
0.0
 10
26.506788
 20
265.994325
 30
0.0
 10
26.468203
 20
266.110080
 30
0.0
  0
SPLINE
  5
254
100
AcDbEntity
  8
Layer_1
 62
3
100
AcDbSpline
 70
8
 71
3
 72
8
 73
4
 74
0
 40
0
 40
0
 40
0
 40
0
 40
1
 40
1
 40
1
 40
1
 10
26.468203
 20
266.110080
 30
0.0
 10
26.424110
 20
266.231347
 30
0.0
 10
26.402063
 20
266.352615
 30
0.0
 10
26.402063
 20
266.473882
 30
0.0
  0
SPLINE
  5
255
100
AcDbEntity
  8
Layer_1
 62
3
100
AcDbSpline
 70
8
 71
3
 72
8
 73
4
 74
0
 40
0
 40
0
 40
0
 40
0
 40
1
 40
1
 40
1
 40
1
 10
26.402063
 20
266.473882
 30
0.0
 10
26.402063
 20
266.595149
 30
0.0
 10
26.424110
 20
266.713661
 30
0.0
 10
26.468203
 20
266.829416
 30
0.0
  0
SPLINE
  5
256
100
AcDbEntity
  8
Layer_1
 62
3
100
AcDbSpline
 70
8
 71
3
 72
8
 73
4
 74
0
 40
0
 40
0
 40
0
 40
0
 40
1
 40
1
 40
1
 40
1
 10
26.468203
 20
266.829416
 30
0.0
 10
26.506790
 20
266.945171
 30
0.0
 10
26.567423
 20
267.047145
 30
0.0
 10
26.650104
 20
267.135340
 30
0.0
  0
SPLINE
  5
257
100
AcDbEntity
  8
Layer_1
 62
3
100
AcDbSpline
 70
8
 71
3
 72
8
 73
4
 74
0
 40
0
 40
0
 40
0
 40
0
 40
1
 40
1
 40
1
 40
1
 10
26.650104
 20
267.135340
 30
0.0
 10
26.727275
 20
267.229047
 30
0.0
 10
26.826494
 20
267.303461
 30
0.0
 10
26.947761
 20
267.358582
 30
0.0
  0
SPLINE
  5
258
100
AcDbEntity
  8
Layer_1
 62
3
100
AcDbSpline
 70
8
 71
3
 72
8
 73
4
 74
0
 40
0
 40
0
 40
0
 40
0
 40
1
 40
1
 40
1
 40
1
 10
26.947761
 20
267.358582
 30
0.0
 10
27.063516
 20
267.413702
 30
0.0
 10
27.201319
 20
267.441262
 30
0.0
 10
27.361172
 20
267.441262
 30
0.0
  0
LWPOLYLINE
  5
259
100
AcDbEntity
  8
Layer_1
 62
3
100
AcDbPolyline
 90
1
 70
1
 10
23.657002
 20
267.614899
 30
0.0
  0
SPLINE
  5
25a
100
AcDbEntity
  8
Layer_1
 62
3
100
AcDbSpline
 70
8
 71
3
 72
8
 73
4
 74
0
 40
0
 40
0
 40
0
 40
0
 40
1
 40
1
 40
1
 40
1
 10
33.719440
 20
267.441262
 30
0.0
 10
33.879293
 20
267.441262
 30
0.0
 10
34.019853
 20
267.410945
 30
0.0
 10
34.141120
 20
267.350312
 30
0.0
  0
SPLINE
  5
25b
100
AcDbEntity
  8
Layer_1
 62
3
100
AcDbSpline
 70
8
 71
3
 72
8
 73
4
 74
0
 40
0
 40
0
 40
0
 40
0
 40
1
 40
1
 40
1
 40
1
 10
34.141120
 20
267.350312
 30
0.0
 10
34.256875
 20
267.295192
 30
0.0
 10
34.356093
 20
267.220778
 30
0.0
 10
34.438776
 20
267.127070
 30
0.0
  0
SPLINE
  5
25c
100
AcDbEntity
  8
Layer_1
 62
3
100
AcDbSpline
 70
8
 71
3
 72
8
 73
4
 74
0
 40
0
 40
0
 40
0
 40
0
 40
1
 40
1
 40
1
 40
1
 10
34.438776
 20
267.127070
 30
0.0
 10
34.515946
 20
267.038875
 30
0.0
 10
34.576580
 20
266.934144
 30
0.0
 10
34.620677
 20
266.812877
 30
0.0
  0
SPLINE
  5
25d
100
AcDbEntity
  8
Layer_1
 62
3
100
AcDbSpline
 70
8
 71
3
 72
8
 73
4
 74
0
 40
0
 40
0
 40
0
 40
0
 40
1
 40
1
 40
1
 40
1
 10
34.620677
 20
266.812877
 30
0.0
 10
34.659264
 20
266.697122
 30
0.0
 10
34.678557
 20
266.578610
 30
0.0
 10
34.678557
 20
266.457343
 30
0.0
  0
SPLINE
  5
25e
100
AcDbEntity
  8
Layer_1
 62
3
100
AcDbSpline
 70
8
 71
3
 72
8
 73
4
 74
0
 40
0
 40
0
 40
0
 40
0
 40
1
 40
1
 40
1
 40
1
 10
34.678557
 20
266.457343
 30
0.0
 10
34.678557
 20
266.336076
 30
0.0
 10
34.659264
 20
266.217565
 30
0.0
 10
34.620677
 20
266.101810
 30
0.0
  0
SPLINE
  5
25f
100
AcDbEntity
  8
Layer_1
 62
3
100
AcDbSpline
 70
8
 71
3
 72
8
 73
4
 74
0
 40
0
 40
0
 40
0
 40
0
 40
1
 40
1
 40
1
 40
1
 10
34.620677
 20
266.101810
 30
0.0
 10
34.582090
 20
265.986055
 30
0.0
 10
34.524213
 20
265.884080
 30
0.0
 10
34.447044
 20
265.795885
 30
0.0
  0
SPLINE
  5
260
100
AcDbEntity
  8
Layer_1
 62
3
100
AcDbSpline
 70
8
 71
3
 72
8
 73
4
 74
0
 40
0
 40
0
 40
0
 40
0
 40
1
 40
1
 40
1
 40
1
 10
34.447044
 20
265.795885
 30
0.0
 10
34.364362
 20
265.707690
 30
0.0
 10
34.262387
 20
265.636032
 30
0.0
 10
34.141120
 20
265.580911
 30
0.0
  0
SPLINE
  5
261
100
AcDbEntity
  8
Layer_1
 62
3
100
AcDbSpline
 70
8
 71
3
 72
8
 73
4
 74
0
 40
0
 40
0
 40
0
 40
0
 40
1
 40
1
 40
1
 40
1
 10
34.141120
 20
265.580911
 30
0.0
 10
34.019853
 20
265.525791
 30
0.0
 10
33.879293
 20
265.498231
 30
0.0
 10
33.719440
 20
265.498231
 30
0.0
  0
LWPOLYLINE
  5
262
100
AcDbEntity
  8
Layer_1
 62
3
100
AcDbPolyline
 90
2
 70
0
 10
27.361172
 20
267.441262
 30
0.0
 10
33.719440
 20
267.441262
 30
0.0
  0
SPLINE
  5
263
100
AcDbEntity
  8
Layer_1
 62
3
100
AcDbSpline
 70
8
 71
3
 72
8
 73
4
 74
0
 40
0
 40
0
 40
0
 40
0
 40
1
 40
1
 40
1
 40
1
 10
27.311563
 20
269.762158
 30
0.0
 10
27.162735
 20
269.762158
 30
0.0
 10
27.030443
 20
269.789718
 30
0.0
 10
26.914688
 20
269.844838
 30
0.0
  0
SPLINE
  5
264
100
AcDbEntity
  8
Layer_1
 62
3
100
AcDbSpline
 70
8
 71
3
 72
8
 73
4
 74
0
 40
0
 40
0
 40
0
 40
0
 40
1
 40
1
 40
1
 40
1
 10
26.914688
 20
269.844838
 30
0.0
 10
26.798933
 20
269.905471
 30
0.0
 10
26.705226
 20
269.979885
 30
0.0
 10
26.633568
 20
270.068080
 30
0.0
  0
SPLINE
  5
265
100
AcDbEntity
  8
Layer_1
 62
3
100
AcDbSpline
 70
8
 71
3
 72
8
 73
4
 74
0
 40
0
 40
0
 40
0
 40
0
 40
1
 40
1
 40
1
 40
1
 10
26.633568
 20
270.068080
 30
0.0
 10
26.556398
 20
270.161787
 30
0.0
 10
26.498520
 20
270.266518
 30
0.0
 10
26.459935
 20
270.382273
 30
0.0
  0
SPLINE
  5
266
100
AcDbEntity
  8
Layer_1
 62
3
100
AcDbSpline
 70
8
 71
3
 72
8
 73
4
 74
0
 40
0
 40
0
 40
0
 40
0
 40
1
 40
1
 40
1
 40
1
 10
26.459935
 20
270.382273
 30
0.0
 10
26.421348
 20
270.503540
 30
0.0
 10
26.402055
 20
270.624808
 30
0.0
 10
26.402055
 20
270.746075
 30
0.0
  0
SPLINE
  5
267
100
AcDbEntity
  8
Layer_1
 62
3
100
AcDbSpline
 70
8
 71
3
 72
8
 73
4
 74
0
 40
0
 40
0
 40
0
 40
0
 40
1
 40
1
 40
1
 40
1
 10
26.402055
 20
270.746075
 30
0.0
 10
26.402055
 20
270.861830
 30
0.0
 10
26.421348
 20
270.974829
 30
0.0
 10
26.459935
 20
271.085072
 30
0.0
  0
SPLINE
  5
268
100
AcDbEntity
  8
Layer_1
 62
3
100
AcDbSpline
 70
8
 71
3
 72
8
 73
4
 74
0
 40
0
 40
0
 40
0
 40
0
 40
1
 40
1
 40
1
 40
1
 10
26.459935
 20
271.085072
 30
0.0
 10
26.493008
 20
271.195315
 30
0.0
 10
26.545374
 20
271.294534
 30
0.0
 10
26.617032
 20
271.382728
 30
0.0
  0
SPLINE
  5
269
100
AcDbEntity
  8
Layer_1
 62
3
100
AcDbSpline
 70
8
 71
3
 72
8
 73
4
 74
0
 40
0
 40
0
 40
0
 40
0
 40
1
 40
1
 40
1
 40
1
 10
26.617032
 20
271.382728
 30
0.0
 10
26.683179
 20
271.470923
 30
0.0
 10
26.771373
 20
271.542581
 30
0.0
 10
26.881615
 20
271.597702
 30
0.0
  0
SPLINE
  5
26a
100
AcDbEntity
  8
Layer_1
 62
3
100
AcDbSpline
 70
8
 71
3
 72
8
 73
4
 74
0
 40
0
 40
0
 40
0
 40
0
 40
1
 40
1
 40
1
 40
1
 10
26.881615
 20
271.597702
 30
0.0
 10
26.986346
 20
271.658335
 30
0.0
 10
27.110369
 20
271.691409
 30
0.0
 10
27.253685
 20
271.696922
 30
0.0
  0
SPLINE
  5
26b
100
AcDbEntity
  8
Layer_1
 62
3
100
AcDbSpline
 70
8
 71
3
 72
8
 73
4
 74
0
 40
0
 40
0
 40
0
 40
0
 40
1
 40
1
 40
1
 40
1
 10
27.253685
 20
271.696922
 30
0.0
 10
27.259218
 20
271.696922
 30
0.0
 10
27.295047
 20
271.696922
 30
0.0
 10
27.361172
 20
271.696922
 30
0.0
  0
SPLINE
  5
26c
100
AcDbEntity
  8
Layer_1
 62
3
100
AcDbSpline
 70
8
 71
3
 72
8
 73
4
 74
0
 40
0
 40
0
 40
0
 40
0
 40
1
 40
1
 40
1
 40
1
 10
27.361172
 20
271.696922
 30
0.0
 10
27.427319
 20
271.702455
 30
0.0
 10
27.504489
 20
271.705222
 30
0.0
 10
27.592683
 20
271.705222
 30
0.0
  0
SPLINE
  5
26d
100
AcDbEntity
  8
Layer_1
 62
3
100
AcDbSpline
 70
8
 71
3
 72
8
 73
4
 74
0
 40
0
 40
0
 40
0
 40
0
 40
1
 40
1
 40
1
 40
1
 10
27.592683
 20
271.705222
 30
0.0
 10
27.675365
 20
271.705222
 30
0.0
 10
27.749779
 20
271.705222
 30
0.0
 10
27.815925
 20
271.705222
 30
0.0
  0
SPLINE
  5
26e
100
AcDbEntity
  8
Layer_1
 62
3
100
AcDbSpline
 70
8
 71
3
 72
8
 73
4
 74
0
 40
0
 40
0
 40
0
 40
0
 40
1
 40
1
 40
1
 40
1
 10
27.815925
 20
271.705222
 30
0.0
 10
27.882072
 20
271.705222
 30
0.0
 10
27.917901
 20
271.705222
 30
0.0
 10
27.923412
 20
271.705222
 30
0.0
  0
SPLINE
  5
26f
100
AcDbEntity
  8
Layer_1
 62
3
100
AcDbSpline
 70
8
 71
3
 72
8
 73
4
 74
0
 40
0
 40
0
 40
0
 40
0
 40
1
 40
1
 40
1
 40
1
 10
27.923412
 20
271.705222
 30
0.0
 10
27.454879
 20
271.832002
 30
0.0
 10
27.069028
 20
272.074537
 30
0.0
 10
26.765860
 20
272.432826
 30
0.0
  0
SPLINE
  5
270
100
AcDbEntity
  8
Layer_1
 62
3
100
AcDbSpline
 70
8
 71
3
 72
8
 73
4
 74
0
 40
0
 40
0
 40
0
 40
0
 40
1
 40
1
 40
1
 40
1
 10
26.765860
 20
272.432826
 30
0.0
 10
26.457179
 20
272.791116
 30
0.0
 10
26.302839
 20
273.270673
 30
0.0
 10
26.302839
 20
273.871498
 30
0.0
  0
SPLINE
  5
271
100
AcDbEntity
  8
Layer_1
 62
3
100
AcDbSpline
 70
8
 71
3
 72
8
 73
4
 74
0
 40
0
 40
0
 40
0
 40
0
 40
1
 40
1
 40
1
 40
1
 10
26.302839
 20
273.871498
 30
0.0
 10
26.302839
 20
274.009302
 30
0.0
 10
26.327642
 20
274.130569
 30
0.0
 10
26.377249
 20
274.235300
 30
0.0
  0
SPLINE
  5
272
100
AcDbEntity
  8
Layer_1
 62
3
100
AcDbSpline
 70
8
 71
3
 72
8
 73
4
 74
0
 40
0
 40
0
 40
0
 40
0
 40
1
 40
1
 40
1
 40
1
 10
26.377249
 20
274.235300
 30
0.0
 10
26.421349
 20
274.345543
 30
0.0
 10
26.479227
 20
274.436494
 30
0.0
 10
26.550882
 20
274.508152
 30
0.0
  0
SPLINE
  5
273
100
AcDbEntity
  8
Layer_1
 62
3
100
AcDbSpline
 70
8
 71
3
 72
8
 73
4
 74
0
 40
0
 40
0
 40
0
 40
0
 40
1
 40
1
 40
1
 40
1
 10
26.550882
 20
274.508152
 30
0.0
 10
26.622540
 20
274.579810
 30
0.0
 10
26.705222
 20
274.632175
 30
0.0
 10
26.798929
 20
274.665248
 30
0.0
  0
SPLINE
  5
274
100
AcDbEntity
  8
Layer_1
 62
3
100
AcDbSpline
 70
8
 71
3
 72
8
 73
4
 74
0
 40
0
 40
0
 40
0
 40
0
 40
1
 40
1
 40
1
 40
1
 10
26.798929
 20
274.665248
 30
0.0
 10
26.892635
 20
274.703835
 30
0.0
 10
26.989098
 20
274.723128
 30
0.0
 10
27.088317
 20
274.723128
 30
0.0
  0
SPLINE
  5
275
100
AcDbEntity
  8
Layer_1
 62
3
100
AcDbSpline
 70
8
 71
3
 72
8
 73
4
 74
0
 40
0
 40
0
 40
0
 40
0
 40
1
 40
1
 40
1
 40
1
 10
27.088317
 20
274.723128
 30
0.0
 10
27.187536
 20
274.723128
 30
0.0
 10
27.283998
 20
274.703835
 30
0.0
 10
27.377705
 20
274.665248
 30
0.0
  0
SPLINE
  5
276
100
AcDbEntity
  8
Layer_1
 62
3
100
AcDbSpline
 70
8
 71
3
 72
8
 73
4
 74
0
 40
0
 40
0
 40
0
 40
0
 40
1
 40
1
 40
1
 40
1
 10
27.377705
 20
274.665248
 30
0.0
 10
27.471411
 20
274.632175
 30
0.0
 10
27.556849
 20
274.577053
 30
0.0
 10
27.634020
 20
274.499884
 30
0.0
  0
SPLINE
  5
277
100
AcDbEntity
  8
Layer_1
 62
3
100
AcDbSpline
 70
8
 71
3
 72
8
 73
4
 74
0
 40
0
 40
0
 40
0
 40
0
 40
1
 40
1
 40
1
 40
1
 10
27.634020
 20
274.499884
 30
0.0
 10
27.705678
 20
274.428226
 30
0.0
 10
27.766312
 20
274.334519
 30
0.0
 10
27.815921
 20
274.218764
 30
0.0
  0
SPLINE
  5
278
100
AcDbEntity
  8
Layer_1
 62
3
100
AcDbSpline
 70
8
 71
3
 72
8
 73
4
 74
0
 40
0
 40
0
 40
0
 40
0
 40
1
 40
1
 40
1
 40
1
 10
27.815921
 20
274.218764
 30
0.0
 10
27.860021
 20
274.108521
 30
0.0
 10
27.882071
 20
273.978985
 30
0.0
 10
27.882071
 20
273.830157
 30
0.0
  0
SPLINE
  5
279
100
AcDbEntity
  8
Layer_1
 62
3
100
AcDbSpline
 70
8
 71
3
 72
8
 73
4
 74
0
 40
0
 40
0
 40
0
 40
0
 40
1
 40
1
 40
1
 40
1
 10
27.882071
 20
273.830157
 30
0.0
 10
27.882071
 20
273.510452
 30
0.0
 10
27.928924
 20
273.218308
 30
0.0
 10
28.022630
 20
272.953725
 30
0.0
  0
SPLINE
  5
27a
100
AcDbEntity
  8
Layer_1
 62
3
100
AcDbSpline
 70
8
 71
3
 72
8
 73
4
 74
0
 40
0
 40
0
 40
0
 40
0
 40
1
 40
1
 40
1
 40
1
 10
28.022630
 20
272.953725
 30
0.0
 10
28.116337
 20
272.694654
 30
0.0
 10
28.259653
 20
272.471411
 30
0.0
 10
28.452578
 20
272.283998
 30
0.0
  0
SPLINE
  5
27b
100
AcDbEntity
  8
Layer_1
 62
3
100
AcDbSpline
 70
8
 71
3
 72
8
 73
4
 74
0
 40
0
 40
0
 40
0
 40
0
 40
1
 40
1
 40
1
 40
1
 10
28.452578
 20
272.283998
 30
0.0
 10
28.639991
 20
272.102097
 30
0.0
 10
28.857721
 20
271.958781
 30
0.0
 10
29.105768
 20
271.854050
 30
0.0
  0
SPLINE
  5
27c
100
AcDbEntity
  8
Layer_1
 62
3
100
AcDbSpline
 70
8
 71
3
 72
8
 73
4
 74
0
 40
0
 40
0
 40
0
 40
0
 40
1
 40
1
 40
1
 40
1
 10
29.105768
 20
271.854050
 30
0.0
 10
29.353815
 20
271.754831
 30
0.0
 10
29.670764
 20
271.705222
 30
0.0
 10
30.056615
 20
271.705222
 30
0.0
  0
LWPOLYLINE
  5
27d
100
AcDbEntity
  8
Layer_1
 62
3
100
AcDbPolyline
 90
2
 70
0
 10
33.719440
 20
265.498231
 30
0.0
 10
27.361172
 20
265.498233
 30
0.0
  0
SPLINE
  5
27e
100
AcDbEntity
  8
Layer_1
 62
3
100
AcDbSpline
 70
8
 71
3
 72
8
 73
4
 74
0
 40
0
 40
0
 40
0
 40
0
 40
1
 40
1
 40
1
 40
1
 10
33.760781
 20
271.705222
 30
0.0
 10
33.915122
 20
271.705222
 30
0.0
 10
34.050169
 20
271.674905
 30
0.0
 10
34.165924
 20
271.614272
 30
0.0
  0
SPLINE
  5
27f
100
AcDbEntity
  8
Layer_1
 62
3
100
AcDbSpline
 70
8
 71
3
 72
8
 73
4
 74
0
 40
0
 40
0
 40
0
 40
0
 40
1
 40
1
 40
1
 40
1
 10
34.165924
 20
271.614272
 30
0.0
 10
34.276167
 20
271.559152
 30
0.0
 10
34.369874
 20
271.484738
 30
0.0
 10
34.447044
 20
271.391030
 30
0.0
  0
SPLINE
  5
280
100
AcDbEntity
  8
Layer_1
 62
3
100
AcDbSpline
 70
8
 71
3
 72
8
 73
4
 74
0
 40
0
 40
0
 40
0
 40
0
 40
1
 40
1
 40
1
 40
1
 10
34.447044
 20
271.391030
 30
0.0
 10
34.524214
 20
271.302835
 30
0.0
 10
34.582092
 20
271.198104
 30
0.0
 10
34.620677
 20
271.076837
 30
0.0
  0
SPLINE
  5
281
100
AcDbEntity
  8
Layer_1
 62
3
100
AcDbSpline
 70
8
 71
3
 72
8
 73
4
 74
0
 40
0
 40
0
 40
0
 40
0
 40
1
 40
1
 40
1
 40
1
 10
34.620677
 20
271.076837
 30
0.0
 10
34.659264
 20
270.961082
 30
0.0
 10
34.678557
 20
270.842570
 30
0.0
 10
34.678557
 20
270.721303
 30
0.0
  0
SPLINE
  5
282
100
AcDbEntity
  8
Layer_1
 62
3
100
AcDbSpline
 70
8
 71
3
 72
8
 73
4
 74
0
 40
0
 40
0
 40
0
 40
0
 40
1
 40
1
 40
1
 40
1
 10
34.678557
 20
270.721303
 30
0.0
 10
34.678557
 20
270.600036
 30
0.0
 10
34.659264
 20
270.481524
 30
0.0
 10
34.620677
 20
270.365769
 30
0.0
  0
SPLINE
  5
283
100
AcDbEntity
  8
Layer_1
 62
3
100
AcDbSpline
 70
8
 71
3
 72
8
 73
4
 74
0
 40
0
 40
0
 40
0
 40
0
 40
1
 40
1
 40
1
 40
1
 10
34.620677
 20
270.365769
 30
0.0
 10
34.582090
 20
270.255526
 30
0.0
 10
34.526969
 20
270.153552
 30
0.0
 10
34.455312
 20
270.059845
 30
0.0
  0
SPLINE
  5
284
100
AcDbEntity
  8
Layer_1
 62
3
100
AcDbSpline
 70
8
 71
3
 72
8
 73
4
 74
0
 40
0
 40
0
 40
0
 40
0
 40
1
 40
1
 40
1
 40
1
 10
34.455312
 20
270.059845
 30
0.0
 10
34.378142
 20
269.971650
 30
0.0
 10
34.281679
 20
269.899992
 30
0.0
 10
34.165924
 20
269.844871
 30
0.0
  0
SPLINE
  5
285
100
AcDbEntity
  8
Layer_1
 62
3
100
AcDbSpline
 70
8
 71
3
 72
8
 73
4
 74
0
 40
0
 40
0
 40
0
 40
0
 40
1
 40
1
 40
1
 40
1
 10
34.165924
 20
269.844871
 30
0.0
 10
34.050169
 20
269.789751
 30
0.0
 10
33.915122
 20
269.762191
 30
0.0
 10
33.760781
 20
269.762191
 30
0.0
  0
LWPOLYLINE
  5
286
100
AcDbEntity
  8
Layer_1
 62
3
100
AcDbPolyline
 90
2
 70
0
 10
30.056615
 20
271.705222
 30
0.0
 10
33.760781
 20
271.705222
 30
0.0
  0
SPLINE
  5
287
100
AcDbEntity
  8
Layer_1
 62
3
100
AcDbSpline
 70
8
 71
3
 72
8
 73
4
 74
0
 40
0
 40
0
 40
0
 40
0
 40
1
 40
1
 40
1
 40
1
 10
30.271589
 20
283.766052
 30
0.0
 10
30.420417
 20
283.766052
 30
0.0
 10
30.552709
 20
283.716443
 30
0.0
 10
30.668464
 20
283.617224
 30
0.0
  0
SPLINE
  5
288
100
AcDbEntity
  8
Layer_1
 62
3
100
AcDbSpline
 70
8
 71
3
 72
8
 73
4
 74
0
 40
0
 40
0
 40
0
 40
0
 40
1
 40
1
 40
1
 40
1
 10
30.668464
 20
283.617224
 30
0.0
 10
30.778707
 20
283.523517
 30
0.0
 10
30.833828
 20
283.377445
 30
0.0
 10
30.833828
 20
283.179008
 30
0.0
  0
LWPOLYLINE
  5
289
100
AcDbEntity
  8
Layer_1
 62
3
100
AcDbPolyline
 90
2
 70
0
 10
33.760781
 20
269.762191
 30
0.0
 10
27.311563
 20
269.762158
 30
0.0
  0
SPLINE
  5
28a
100
AcDbEntity
  8
Layer_1
 62
3
100
AcDbSpline
 70
8
 71
3
 72
8
 73
4
 74
0
 40
0
 40
0
 40
0
 40
0
 40
1
 40
1
 40
1
 40
1
 10
30.833828
 20
277.548344
 30
0.0
 10
31.633090
 20
277.597951
 30
0.0
 10
32.253207
 20
277.843241
 30
0.0
 10
32.694180
 20
278.284216
 30
0.0
  0
SPLINE
  5
28b
100
AcDbEntity
  8
Layer_1
 62
3
100
AcDbSpline
 70
8
 71
3
 72
8
 73
4
 74
0
 40
0
 40
0
 40
0
 40
0
 40
1
 40
1
 40
1
 40
1
 10
32.694180
 20
278.284216
 30
0.0
 10
33.135152
 20
278.730701
 30
0.0
 10
33.355638
 20
279.317745
 30
0.0
 10
33.355638
 20
280.045349
 30
0.0
  0
SPLINE
  5
28c
100
AcDbEntity
  8
Layer_1
 62
3
100
AcDbSpline
 70
8
 71
3
 72
8
 73
4
 74
0
 40
0
 40
0
 40
0
 40
0
 40
1
 40
1
 40
1
 40
1
 10
33.355638
 20
280.045349
 30
0.0
 10
33.355638
 20
280.491834
 30
0.0
 10
33.292248
 20
280.913513
 30
0.0
 10
33.165469
 20
281.310388
 30
0.0
  0
SPLINE
  5
28d
100
AcDbEntity
  8
Layer_1
 62
3
100
AcDbSpline
 70
8
 71
3
 72
8
 73
4
 74
0
 40
0
 40
0
 40
0
 40
0
 40
1
 40
1
 40
1
 40
1
 10
33.165469
 20
281.310388
 30
0.0
 10
33.038689
 20
281.707263
 30
0.0
 10
32.870568
 20
282.112407
 30
0.0
 10
32.661107
 20
282.525818
 30
0.0
  0
SPLINE
  5
28e
100
AcDbEntity
  8
Layer_1
 62
3
100
AcDbSpline
 70
8
 71
3
 72
8
 73
4
 74
0
 40
0
 40
0
 40
0
 40
0
 40
1
 40
1
 40
1
 40
1
 10
32.661107
 20
282.525818
 30
0.0
 10
32.611500
 20
282.625037
 30
0.0
 10
32.586697
 20
282.718743
 30
0.0
 10
32.586697
 20
282.806938
 30
0.0
  0
SPLINE
  5
28f
100
AcDbEntity
  8
Layer_1
 62
3
100
AcDbSpline
 70
8
 71
3
 72
8
 73
4
 74
0
 40
0
 40
0
 40
0
 40
0
 40
1
 40
1
 40
1
 40
1
 10
32.586697
 20
282.806938
 30
0.0
 10
32.586697
 20
282.955766
 30
0.0
 10
32.641818
 20
283.074277
 30
0.0
 10
32.752061
 20
283.162471
 30
0.0
  0
SPLINE
  5
290
100
AcDbEntity
  8
Layer_1
 62
3
100
AcDbSpline
 70
8
 71
3
 72
8
 73
4
 74
0
 40
0
 40
0
 40
0
 40
0
 40
1
 40
1
 40
1
 40
1
 10
32.752061
 20
283.162471
 30
0.0
 10
32.862304
 20
283.256178
 30
0.0
 10
32.989084
 20
283.303031
 30
0.0
 10
33.132400
 20
283.303031
 30
0.0
  0
SPLINE
  5
291
100
AcDbEntity
  8
Layer_1
 62
3
100
AcDbSpline
 70
8
 71
3
 72
8
 73
4
 74
0
 40
0
 40
0
 40
0
 40
0
 40
1
 40
1
 40
1
 40
1
 10
33.132400
 20
283.303031
 30
0.0
 10
33.193033
 20
283.303031
 30
0.0
 10
33.259179
 20
283.292008
 30
0.0
 10
33.330837
 20
283.269961
 30
0.0
  0
SPLINE
  5
292
100
AcDbEntity
  8
Layer_1
 62
3
100
AcDbSpline
 70
8
 71
3
 72
8
 73
4
 74
0
 40
0
 40
0
 40
0
 40
0
 40
1
 40
1
 40
1
 40
1
 10
33.330837
 20
283.269961
 30
0.0
 10
33.396984
 20
283.253428
 30
0.0
 10
33.460374
 20
283.223111
 30
0.0
 10
33.521007
 20
283.179011
 30
0.0
  0
SPLINE
  5
293
100
AcDbEntity
  8
Layer_1
 62
3
100
AcDbSpline
 70
8
 71
3
 72
8
 73
4
 74
0
 40
0
 40
0
 40
0
 40
0
 40
1
 40
1
 40
1
 40
1
 10
33.521007
 20
283.179011
 30
0.0
 10
33.747005
 20
283.002622
 30
0.0
 10
33.939930
 20
282.784892
 30
0.0
 10
34.099783
 20
282.525821
 30
0.0
  0
SPLINE
  5
294
100
AcDbEntity
  8
Layer_1
 62
3
100
AcDbSpline
 70
8
 71
3
 72
8
 73
4
 74
0
 40
0
 40
0
 40
0
 40
0
 40
1
 40
1
 40
1
 40
1
 10
34.099783
 20
282.525821
 30
0.0
 10
34.259635
 20
282.272262
 30
0.0
 10
34.389170
 20
281.996654
 30
0.0
 10
34.488389
 20
281.698998
 30
0.0
  0
SPLINE
  5
295
100
AcDbEntity
  8
Layer_1
 62
3
100
AcDbSpline
 70
8
 71
3
 72
8
 73
4
 74
0
 40
0
 40
0
 40
0
 40
0
 40
1
 40
1
 40
1
 40
1
 10
34.488389
 20
281.698998
 30
0.0
 10
34.587608
 20
281.401342
 30
0.0
 10
34.659266
 20
281.092661
 30
0.0
 10
34.703363
 20
280.772956
 30
0.0
  0
SPLINE
  5
296
100
AcDbEntity
  8
Layer_1
 62
3
100
AcDbSpline
 70
8
 71
3
 72
8
 73
4
 74
0
 40
0
 40
0
 40
0
 40
0
 40
1
 40
1
 40
1
 40
1
 10
34.703363
 20
280.772956
 30
0.0
 10
34.752970
 20
280.458763
 30
0.0
 10
34.777773
 20
280.152839
 30
0.0
 10
34.777773
 20
279.855183
 30
0.0
  0
SPLINE
  5
297
100
AcDbEntity
  8
Layer_1
 62
3
100
AcDbSpline
 70
8
 71
3
 72
8
 73
4
 74
0
 40
0
 40
0
 40
0
 40
0
 40
1
 40
1
 40
1
 40
1
 10
34.777773
 20
279.855183
 30
0.0
 10
34.777773
 20
279.254358
 30
0.0
 10
34.678554
 20
278.694875
 30
0.0
 10
34.480117
 20
278.176733
 30
0.0
  0
SPLINE
  5
298
100
AcDbEntity
  8
Layer_1
 62
3
100
AcDbSpline
 70
8
 71
3
 72
8
 73
4
 74
0
 40
0
 40
0
 40
0
 40
0
 40
1
 40
1
 40
1
 40
1
 10
34.480117
 20
278.176733
 30
0.0
 10
34.281680
 20
277.658590
 30
0.0
 10
33.995048
 20
277.206594
 30
0.0
 10
33.620221
 20
276.820743
 30
0.0
  0
SPLINE
  5
299
100
AcDbEntity
  8
Layer_1
 62
3
100
AcDbSpline
 70
8
 71
3
 72
8
 73
4
 74
0
 40
0
 40
0
 40
0
 40
0
 40
1
 40
1
 40
1
 40
1
 10
33.620221
 20
276.820743
 30
0.0
 10
33.239882
 20
276.440404
 30
0.0
 10
32.774106
 20
276.139992
 30
0.0
 10
32.222891
 20
275.919506
 30
0.0
  0
SPLINE
  5
29a
100
AcDbEntity
  8
Layer_1
 62
3
100
AcDbSpline
 70
8
 71
3
 72
8
 73
4
 74
0
 40
0
 40
0
 40
0
 40
0
 40
1
 40
1
 40
1
 40
1
 10
32.222891
 20
275.919506
 30
0.0
 10
31.666163
 20
275.704532
 30
0.0
 10
31.092899
 20
275.597045
 30
0.0
 10
30.503099
 20
275.597045
 30
0.0
  0
SPLINE
  5
29b
100
AcDbEntity
  8
Layer_1
 62
3
100
AcDbSpline
 70
8
 71
3
 72
8
 73
4
 74
0
 40
0
 40
0
 40
0
 40
0
 40
1
 40
1
 40
1
 40
1
 10
30.503099
 20
275.597045
 30
0.0
 10
30.001493
 20
275.597045
 30
0.0
 10
29.491619
 20
275.699020
 30
0.0
 10
28.973477
 20
275.902970
 30
0.0
  0
SPLINE
  5
29c
100
AcDbEntity
  8
Layer_1
 62
3
100
AcDbSpline
 70
8
 71
3
 72
8
 73
4
 74
0
 40
0
 40
0
 40
0
 40
0
 40
1
 40
1
 40
1
 40
1
 10
28.973477
 20
275.902970
 30
0.0
 10
28.455334
 20
276.106919
 30
0.0
 10
28.003338
 20
276.385283
 30
0.0
 10
27.617487
 20
276.738061
 30
0.0
  0
SPLINE
  5
29d
100
AcDbEntity
  8
Layer_1
 62
3
100
AcDbSpline
 70
8
 71
3
 72
8
 73
4
 74
0
 40
0
 40
0
 40
0
 40
0
 40
1
 40
1
 40
1
 40
1
 10
27.617487
 20
276.738061
 30
0.0
 10
27.231636
 20
277.096351
 30
0.0
 10
26.917444
 20
277.523543
 30
0.0
 10
26.674909
 20
278.019636
 30
0.0
  0
SPLINE
  5
29e
100
AcDbEntity
  8
Layer_1
 62
3
100
AcDbSpline
 70
8
 71
3
 72
8
 73
4
 74
0
 40
0
 40
0
 40
0
 40
0
 40
1
 40
1
 40
1
 40
1
 10
26.674909
 20
278.019636
 30
0.0
 10
26.426862
 20
278.521242
 30
0.0
 10
26.302839
 20
279.102774
 30
0.0
 10
26.302839
 20
279.764232
 30
0.0
  0
SPLINE
  5
29f
100
AcDbEntity
  8
Layer_1
 62
3
100
AcDbSpline
 70
8
 71
3
 72
8
 73
4
 74
0
 40
0
 40
0
 40
0
 40
0
 40
1
 40
1
 40
1
 40
1
 10
26.302839
 20
279.764232
 30
0.0
 10
26.302839
 20
280.442227
 30
0.0
 10
26.410326
 20
281.026516
 30
0.0
 10
26.625300
 20
281.517097
 30
0.0
  0
SPLINE
  5
2a0
100
AcDbEntity
  8
Layer_1
 62
3
100
AcDbSpline
 70
8
 71
3
 72
8
 73
4
 74
0
 40
0
 40
0
 40
0
 40
0
 40
1
 40
1
 40
1
 40
1
 10
26.625300
 20
281.517097
 30
0.0
 10
26.840274
 20
282.013190
 30
0.0
 10
27.126906
 20
282.423846
 30
0.0
 10
27.485196
 20
282.749063
 30
0.0
  0
SPLINE
  5
2a1
100
AcDbEntity
  8
Layer_1
 62
3
100
AcDbSpline
 70
8
 71
3
 72
8
 73
4
 74
0
 40
0
 40
0
 40
0
 40
0
 40
1
 40
1
 40
1
 40
1
 10
27.485196
 20
282.749063
 30
0.0
 10
27.843485
 20
283.079792
 30
0.0
 10
28.273433
 20
283.327839
 30
0.0
 10
28.775039
 20
283.493204
 30
0.0
  0
SPLINE
  5
2a2
100
AcDbEntity
  8
Layer_1
 62
3
100
AcDbSpline
 70
8
 71
3
 72
8
 73
4
 74
0
 40
0
 40
0
 40
0
 40
0
 40
1
 40
1
 40
1
 40
1
 10
28.775039
 20
283.493204
 30
0.0
 10
29.271133
 20
283.664081
 30
0.0
 10
29.769983
 20
283.755031
 30
0.0
 10
30.271589
 20
283.766055
 30
0.0
  0
LWPOLYLINE
  5
2a3
100
AcDbEntity
  8
Layer_1
 62
3
100
AcDbPolyline
 90
2
 70
0
 10
30.833828
 20
283.179008
 30
0.0
 10
30.833828
 20
277.548344
 30
0.0
  0
SPLINE
  5
2a4
100
AcDbEntity
  8
Layer_1
 62
3
100
AcDbSpline
 70
8
 71
3
 72
8
 73
4
 74
0
 40
0
 40
0
 40
0
 40
0
 40
1
 40
1
 40
1
 40
1
 10
29.841641
 20
282.046261
 30
0.0
 10
29.577058
 20
282.024214
 30
0.0
 10
29.295938
 20
281.960824
 30
0.0
 10
28.998281
 20
281.856091
 30
0.0
  0
SPLINE
  5
2a5
100
AcDbEntity
  8
Layer_1
 62
3
100
AcDbSpline
 70
8
 71
3
 72
8
 73
4
 74
0
 40
0
 40
0
 40
0
 40
0
 40
1
 40
1
 40
1
 40
1
 10
28.998281
 20
281.856091
 30
0.0
 10
28.700625
 20
281.751360
 30
0.0
 10
28.447066
 20
281.602532
 30
0.0
 10
28.237604
 20
281.409607
 30
0.0
  0
SPLINE
  5
2a6
100
AcDbEntity
  8
Layer_1
 62
3
100
AcDbSpline
 70
8
 71
3
 72
8
 73
4
 74
0
 40
0
 40
0
 40
0
 40
0
 40
1
 40
1
 40
1
 40
1
 10
28.237604
 20
281.409607
 30
0.0
 10
28.022630
 20
281.222194
 30
0.0
 10
27.862778
 20
280.990683
 30
0.0
 10
27.758047
 20
280.715076
 30
0.0
  0
SPLINE
  5
2a7
100
AcDbEntity
  8
Layer_1
 62
3
100
AcDbSpline
 70
8
 71
3
 72
8
 73
4
 74
0
 40
0
 40
0
 40
0
 40
0
 40
1
 40
1
 40
1
 40
1
 10
27.758047
 20
280.715076
 30
0.0
 10
27.647804
 20
280.444981
 30
0.0
 10
27.592683
 20
280.133544
 30
0.0
 10
27.592683
 20
279.780766
 30
0.0
  0
SPLINE
  5
2a8
100
AcDbEntity
  8
Layer_1
 62
3
100
AcDbSpline
 70
8
 71
3
 72
8
 73
4
 74
0
 40
0
 40
0
 40
0
 40
0
 40
1
 40
1
 40
1
 40
1
 10
27.592683
 20
279.780766
 30
0.0
 10
27.592683
 20
279.461061
 30
0.0
 10
27.650560
 20
279.168917
 30
0.0
 10
27.766315
 20
278.904334
 30
0.0
  0
SPLINE
  5
2a9
100
AcDbEntity
  8
Layer_1
 62
3
100
AcDbSpline
 70
8
 71
3
 72
8
 73
4
 74
0
 40
0
 40
0
 40
0
 40
0
 40
1
 40
1
 40
1
 40
1
 10
27.766315
 20
278.904334
 30
0.0
 10
27.882070
 20
278.645263
 30
0.0
 10
28.050191
 20
278.419264
 30
0.0
 10
28.270677
 20
278.226339
 30
0.0
  0
SPLINE
  5
2aa
100
AcDbEntity
  8
Layer_1
 62
3
100
AcDbSpline
 70
8
 71
3
 72
8
 73
4
 74
0
 40
0
 40
0
 40
0
 40
0
 40
1
 40
1
 40
1
 40
1
 10
28.270677
 20
278.226339
 30
0.0
 10
28.491163
 20
278.038926
 30
0.0
 10
28.747478
 20
277.887341
 30
0.0
 10
29.039623
 20
277.771586
 30
0.0
  0
SPLINE
  5
2ab
100
AcDbEntity
  8
Layer_1
 62
3
100
AcDbSpline
 70
8
 71
3
 72
8
 73
4
 74
0
 40
0
 40
0
 40
0
 40
0
 40
1
 40
1
 40
1
 40
1
 10
29.039623
 20
277.771586
 30
0.0
 10
29.331767
 20
277.655831
 30
0.0
 10
29.599106
 20
277.586929
 30
0.0
 10
29.841641
 20
277.564881
 30
0.0
  0
LWPOLYLINE
  5
2ac
100
AcDbEntity
  8
Layer_1
 62
3
100
AcDbPolyline
 90
1
 70
1
 10
30.271589
 20
283.766055
 30
0.0
  0
LWPOLYLINE
  5
2ad
100
AcDbEntity
  8
Layer_1
 62
3
100
AcDbPolyline
 90
2
 70
0
 10
29.841641
 20
277.564881
 30
0.0
 10
29.841641
 20
282.046261
 30
0.0
  0
SPLINE
  5
2ae
100
AcDbEntity
  8
Layer_1
 62
3
100
AcDbSpline
 70
8
 71
3
 72
8
 73
4
 74
0
 40
0
 40
0
 40
0
 40
0
 40
1
 40
1
 40
1
 40
1
 10
49.801145
 20
231.361195
 30
0.0
 10
49.486952
 20
231.487974
 30
0.0
 10
49.227881
 20
231.614754
 30
0.0
 10
49.023931
 20
231.741534
 30
0.0
  0
SPLINE
  5
2af
100
AcDbEntity
  8
Layer_1
 62
3
100
AcDbSpline
 70
8
 71
3
 72
8
 73
4
 74
0
 40
0
 40
0
 40
0
 40
0
 40
1
 40
1
 40
1
 40
1
 10
49.023931
 20
231.741534
 30
0.0
 10
48.814470
 20
231.868313
 30
0.0
 10
48.649105
 20
232.003361
 30
0.0
 10
48.527838
 20
232.146677
 30
0.0
  0
SPLINE
  5
2b0
100
AcDbEntity
  8
Layer_1
 62
3
100
AcDbSpline
 70
8
 71
3
 72
8
 73
4
 74
0
 40
0
 40
0
 40
0
 40
0
 40
1
 40
1
 40
1
 40
1
 10
48.527838
 20
232.146677
 30
0.0
 10
48.401058
 20
232.289993
 30
0.0
 10
48.312863
 20
232.444333
 30
0.0
 10
48.263254
 20
232.609698
 30
0.0
  0
SPLINE
  5
2b1
100
AcDbEntity
  8
Layer_1
 62
3
100
AcDbSpline
 70
8
 71
3
 72
8
 73
4
 74
0
 40
0
 40
0
 40
0
 40
0
 40
1
 40
1
 40
1
 40
1
 10
48.263254
 20
232.609698
 30
0.0
 10
48.213647
 20
232.780575
 30
0.0
 10
48.188844
 20
232.973500
 30
0.0
 10
48.188844
 20
233.188474
 30
0.0
  0
SPLINE
  5
2b2
100
AcDbEntity
  8
Layer_1
 62
3
100
AcDbSpline
 70
8
 71
3
 72
8
 73
4
 74
0
 40
0
 40
0
 40
0
 40
0
 40
1
 40
1
 40
1
 40
1
 10
48.188844
 20
233.188474
 30
0.0
 10
48.188844
 20
233.397935
 30
0.0
 10
48.221917
 20
233.596373
 30
0.0
 10
48.288064
 20
233.783786
 30
0.0
  0
SPLINE
  5
2b3
100
AcDbEntity
  8
Layer_1
 62
3
100
AcDbSpline
 70
8
 71
3
 72
8
 73
4
 74
0
 40
0
 40
0
 40
0
 40
0
 40
1
 40
1
 40
1
 40
1
 10
48.288064
 20
233.783786
 30
0.0
 10
48.354211
 20
233.976711
 30
0.0
 10
48.458942
 20
234.144832
 30
0.0
 10
48.602257
 20
234.288148
 30
0.0
  0
SPLINE
  5
2b4
100
AcDbEntity
  8
Layer_1
 62
3
100
AcDbSpline
 70
8
 71
3
 72
8
 73
4
 74
0
 40
0
 40
0
 40
0
 40
0
 40
1
 40
1
 40
1
 40
1
 10
48.602257
 20
234.288148
 30
0.0
 10
48.745573
 20
234.436976
 30
0.0
 10
48.930230
 20
234.552731
 30
0.0
 10
49.156228
 20
234.635414
 30
0.0
  0
SPLINE
  5
2b5
100
AcDbEntity
  8
Layer_1
 62
3
100
AcDbSpline
 70
8
 71
3
 72
8
 73
4
 74
0
 40
0
 40
0
 40
0
 40
0
 40
1
 40
1
 40
1
 40
1
 10
49.156228
 20
234.635414
 30
0.0
 10
49.382226
 20
234.723608
 30
0.0
 10
49.655078
 20
234.767705
 30
0.0
 10
49.974783
 20
234.767705
 30
0.0
  0
LWPOLYLINE
  5
2b6
100
AcDbEntity
  8
Layer_1
 62
3
100
AcDbPolyline
 90
2
 70
0
 10
57.383111
 20
228.012562
 30
0.0
 10
49.801145
 20
231.361195
 30
0.0
  0
SPLINE
  5
2b7
100
AcDbEntity
  8
Layer_1
 62
3
100
AcDbSpline
 70
8
 71
3
 72
8
 73
4
 74
0
 40
0
 40
0
 40
0
 40
0
 40
1
 40
1
 40
1
 40
1
 10
59.119444
 20
234.767705
 30
0.0
 10
59.279296
 20
234.767705
 30
0.0
 10
59.419856
 20
234.740145
 30
0.0
 10
59.541123
 20
234.685025
 30
0.0
  0
SPLINE
  5
2b8
100
AcDbEntity
  8
Layer_1
 62
3
100
AcDbSpline
 70
8
 71
3
 72
8
 73
4
 74
0
 40
0
 40
0
 40
0
 40
0
 40
1
 40
1
 40
1
 40
1
 10
59.541123
 20
234.685025
 30
0.0
 10
59.656878
 20
234.635418
 30
0.0
 10
59.756097
 20
234.566516
 30
0.0
 10
59.838780
 20
234.478319
 30
0.0
  0
SPLINE
  5
2b9
100
AcDbEntity
  8
Layer_1
 62
3
100
AcDbSpline
 70
8
 71
3
 72
8
 73
4
 74
0
 40
0
 40
0
 40
0
 40
0
 40
1
 40
1
 40
1
 40
1
 10
59.838780
 20
234.478319
 30
0.0
 10
59.915950
 20
234.390125
 30
0.0
 10
59.976584
 20
234.288150
 30
0.0
 10
60.020681
 20
234.172395
 30
0.0
  0
SPLINE
  5
2ba
100
AcDbEntity
  8
Layer_1
 62
3
100
AcDbSpline
 70
8
 71
3
 72
8
 73
4
 74
0
 40
0
 40
0
 40
0
 40
0
 40
1
 40
1
 40
1
 40
1
 10
60.020681
 20
234.172395
 30
0.0
 10
60.059268
 20
234.062152
 30
0.0
 10
60.078561
 20
233.949152
 30
0.0
 10
60.078561
 20
233.833397
 30
0.0
  0
SPLINE
  5
2bb
100
AcDbEntity
  8
Layer_1
 62
3
100
AcDbSpline
 70
8
 71
3
 72
8
 73
4
 74
0
 40
0
 40
0
 40
0
 40
0
 40
1
 40
1
 40
1
 40
1
 10
60.078561
 20
233.833397
 30
0.0
 10
60.078561
 20
233.717642
 30
0.0
 10
60.059268
 20
233.604643
 30
0.0
 10
60.020681
 20
233.494400
 30
0.0
  0
SPLINE
  5
2bc
100
AcDbEntity
  8
Layer_1
 62
3
100
AcDbSpline
 70
8
 71
3
 72
8
 73
4
 74
0
 40
0
 40
0
 40
0
 40
0
 40
1
 40
1
 40
1
 40
1
 10
60.020681
 20
233.494400
 30
0.0
 10
59.976581
 20
233.389669
 30
0.0
 10
59.915947
 20
233.293207
 30
0.0
 10
59.838780
 20
233.205012
 30
0.0
  0
SPLINE
  5
2bd
100
AcDbEntity
  8
Layer_1
 62
3
100
AcDbSpline
 70
8
 71
3
 72
8
 73
4
 74
0
 40
0
 40
0
 40
0
 40
0
 40
1
 40
1
 40
1
 40
1
 10
59.838780
 20
233.205012
 30
0.0
 10
59.756097
 20
233.116817
 30
0.0
 10
59.656878
 20
233.045159
 30
0.0
 10
59.541123
 20
232.990038
 30
0.0
  0
SPLINE
  5
2be
100
AcDbEntity
  8
Layer_1
 62
3
100
AcDbSpline
 70
8
 71
3
 72
8
 73
4
 74
0
 40
0
 40
0
 40
0
 40
0
 40
1
 40
1
 40
1
 40
1
 10
59.541123
 20
232.990038
 30
0.0
 10
59.419856
 20
232.940431
 30
0.0
 10
59.279296
 20
232.915628
 30
0.0
 10
59.119444
 20
232.915628
 30
0.0
  0
LWPOLYLINE
  5
2bf
100
AcDbEntity
  8
Layer_1
 62
3
100
AcDbPolyline
 90
2
 70
0
 10
49.974783
 20
234.767705
 30
0.0
 10
59.119444
 20
234.767705
 30
0.0
  0
SPLINE
  5
2c0
100
AcDbEntity
  8
Layer_1
 62
3
100
AcDbSpline
 70
8
 71
3
 72
8
 73
4
 74
0
 40
0
 40
0
 40
0
 40
0
 40
1
 40
1
 40
1
 40
1
 10
58.730837
 20
229.252803
 30
0.0
 10
58.885177
 20
229.197683
 30
0.0
 10
59.020225
 20
229.123269
 30
0.0
 10
59.135980
 20
229.029560
 30
0.0
  0
SPLINE
  5
2c1
100
AcDbEntity
  8
Layer_1
 62
3
100
AcDbSpline
 70
8
 71
3
 72
8
 73
4
 74
0
 40
0
 40
0
 40
0
 40
0
 40
1
 40
1
 40
1
 40
1
 10
59.135980
 20
229.029560
 30
0.0
 10
59.251735
 20
228.941366
 30
0.0
 10
59.350954
 20
228.839391
 30
0.0
 10
59.433636
 20
228.723636
 30
0.0
  0
SPLINE
  5
2c2
100
AcDbEntity
  8
Layer_1
 62
3
100
AcDbSpline
 70
8
 71
3
 72
8
 73
4
 74
0
 40
0
 40
0
 40
0
 40
0
 40
1
 40
1
 40
1
 40
1
 10
59.433636
 20
228.723636
 30
0.0
 10
59.510807
 20
228.607881
 30
0.0
 10
59.571440
 20
228.483857
 30
0.0
 10
59.615537
 20
228.351566
 30
0.0
  0
SPLINE
  5
2c3
100
AcDbEntity
  8
Layer_1
 62
3
100
AcDbSpline
 70
8
 71
3
 72
8
 73
4
 74
0
 40
0
 40
0
 40
0
 40
0
 40
1
 40
1
 40
1
 40
1
 10
59.615537
 20
228.351566
 30
0.0
 10
59.654124
 20
228.224786
 30
0.0
 10
59.673417
 20
228.095250
 30
0.0
 10
59.673417
 20
227.962959
 30
0.0
  0
SPLINE
  5
2c4
100
AcDbEntity
  8
Layer_1
 62
3
100
AcDbSpline
 70
8
 71
3
 72
8
 73
4
 74
0
 40
0
 40
0
 40
0
 40
0
 40
1
 40
1
 40
1
 40
1
 10
59.673417
 20
227.962959
 30
0.0
 10
59.673417
 20
227.709400
 30
0.0
 10
59.599003
 20
227.466865
 30
0.0
 10
59.450175
 20
227.235355
 30
0.0
  0
SPLINE
  5
2c5
100
AcDbEntity
  8
Layer_1
 62
3
100
AcDbSpline
 70
8
 71
3
 72
8
 73
4
 74
0
 40
0
 40
0
 40
0
 40
0
 40
1
 40
1
 40
1
 40
1
 10
59.450175
 20
227.235355
 30
0.0
 10
59.295834
 20
227.009356
 30
0.0
 10
59.056056
 20
226.838480
 30
0.0
 10
58.730839
 20
226.722725
 30
0.0
  0
LWPOLYLINE
  5
2c6
100
AcDbEntity
  8
Layer_1
 62
3
100
AcDbPolyline
 90
3
 70
0
 10
59.119444
 20
232.915628
 30
0.0
 10
50.322048
 20
232.915628
 30
0.0
 10
58.730837
 20
229.252803
 30
0.0
  0
SPLINE
  5
2c7
100
AcDbEntity
  8
Layer_1
 62
3
100
AcDbSpline
 70
8
 71
3
 72
8
 73
4
 74
0
 40
0
 40
0
 40
0
 40
0
 40
1
 40
1
 40
1
 40
1
 10
59.119446
 20
223.068168
 30
0.0
 10
59.279298
 20
223.068168
 30
0.0
 10
59.419858
 20
223.040608
 30
0.0
 10
59.541125
 20
222.985488
 30
0.0
  0
SPLINE
  5
2c8
100
AcDbEntity
  8
Layer_1
 62
3
100
AcDbSpline
 70
8
 71
3
 72
8
 73
4
 74
0
 40
0
 40
0
 40
0
 40
0
 40
1
 40
1
 40
1
 40
1
 10
59.541125
 20
222.985488
 30
0.0
 10
59.656880
 20
222.935881
 30
0.0
 10
59.756099
 20
222.866980
 30
0.0
 10
59.838782
 20
222.778783
 30
0.0
  0
SPLINE
  5
2c9
100
AcDbEntity
  8
Layer_1
 62
3
100
AcDbSpline
 70
8
 71
3
 72
8
 73
4
 74
0
 40
0
 40
0
 40
0
 40
0
 40
1
 40
1
 40
1
 40
1
 10
59.838782
 20
222.778783
 30
0.0
 10
59.915952
 20
222.690588
 30
0.0
 10
59.976586
 20
222.591369
 30
0.0
 10
60.020683
 20
222.481126
 30
0.0
  0
SPLINE
  5
2ca
100
AcDbEntity
  8
Layer_1
 62
3
100
AcDbSpline
 70
8
 71
3
 72
8
 73
4
 74
0
 40
0
 40
0
 40
0
 40
0
 40
1
 40
1
 40
1
 40
1
 10
60.020683
 20
222.481126
 30
0.0
 10
60.059270
 20
222.370883
 30
0.0
 10
60.078563
 20
222.257884
 30
0.0
 10
60.078563
 20
222.142129
 30
0.0
  0
SPLINE
  5
2cb
100
AcDbEntity
  8
Layer_1
 62
3
100
AcDbSpline
 70
8
 71
3
 72
8
 73
4
 74
0
 40
0
 40
0
 40
0
 40
0
 40
1
 40
1
 40
1
 40
1
 10
60.078563
 20
222.142129
 30
0.0
 10
60.078563
 20
222.026374
 30
0.0
 10
60.059270
 20
221.913375
 30
0.0
 10
60.020683
 20
221.803132
 30
0.0
  0
SPLINE
  5
2cc
100
AcDbEntity
  8
Layer_1
 62
3
100
AcDbSpline
 70
8
 71
3
 72
8
 73
4
 74
0
 40
0
 40
0
 40
0
 40
0
 40
1
 40
1
 40
1
 40
1
 10
60.020683
 20
221.803132
 30
0.0
 10
59.976583
 20
221.692889
 30
0.0
 10
59.915949
 20
221.593670
 30
0.0
 10
59.838782
 20
221.505475
 30
0.0
  0
SPLINE
  5
2cd
100
AcDbEntity
  8
Layer_1
 62
3
100
AcDbSpline
 70
8
 71
3
 72
8
 73
4
 74
0
 40
0
 40
0
 40
0
 40
0
 40
1
 40
1
 40
1
 40
1
 10
59.838782
 20
221.505475
 30
0.0
 10
59.756099
 20
221.422793
 30
0.0
 10
59.656880
 20
221.353891
 30
0.0
 10
59.541125
 20
221.298770
 30
0.0
  0
SPLINE
  5
2ce
100
AcDbEntity
  8
Layer_1
 62
3
100
AcDbSpline
 70
8
 71
3
 72
8
 73
4
 74
0
 40
0
 40
0
 40
0
 40
0
 40
1
 40
1
 40
1
 40
1
 10
59.541125
 20
221.298770
 30
0.0
 10
59.419858
 20
221.249163
 30
0.0
 10
59.279298
 20
221.224360
 30
0.0
 10
59.119446
 20
221.224360
 30
0.0
  0
LWPOLYLINE
  5
2cf
100
AcDbEntity
  8
Layer_1
 62
3
100
AcDbPolyline
 90
3
 70
0
 10
58.730839
 20
226.722725
 30
0.0
 10
50.371660
 20
223.068168
 30
0.0
 10
59.119446
 20
223.068168
 30
0.0
  0
SPLINE
  5
2d0
100
AcDbEntity
  8
Layer_1
 62
3
100
AcDbSpline
 70
8
 71
3
 72
8
 73
4
 74
0
 40
0
 40
0
 40
0
 40
0
 40
1
 40
1
 40
1
 40
1
 10
49.974785
 20
221.224360
 30
0.0
 10
49.655080
 20
221.224360
 30
0.0
 10
49.382228
 20
221.265701
 30
0.0
 10
49.156230
 20
221.348383
 30
0.0
  0
SPLINE
  5
2d1
100
AcDbEntity
  8
Layer_1
 62
3
100
AcDbSpline
 70
8
 71
3
 72
8
 73
4
 74
0
 40
0
 40
0
 40
0
 40
0
 40
1
 40
1
 40
1
 40
1
 10
49.156230
 20
221.348383
 30
0.0
 10
48.930232
 20
221.436578
 30
0.0
 10
48.745575
 20
221.555089
 30
0.0
 10
48.602259
 20
221.703917
 30
0.0
  0
SPLINE
  5
2d2
100
AcDbEntity
  8
Layer_1
 62
3
100
AcDbSpline
 70
8
 71
3
 72
8
 73
4
 74
0
 40
0
 40
0
 40
0
 40
0
 40
1
 40
1
 40
1
 40
1
 10
48.602259
 20
221.703917
 30
0.0
 10
48.458943
 20
221.852745
 30
0.0
 10
48.354212
 20
222.023622
 30
0.0
 10
48.288066
 20
222.216547
 30
0.0
  0
SPLINE
  5
2d3
100
AcDbEntity
  8
Layer_1
 62
3
100
AcDbSpline
 70
8
 71
3
 72
8
 73
4
 74
0
 40
0
 40
0
 40
0
 40
0
 40
1
 40
1
 40
1
 40
1
 10
48.288066
 20
222.216547
 30
0.0
 10
48.221919
 20
222.409472
 30
0.0
 10
48.188846
 20
222.613422
 30
0.0
 10
48.188846
 20
222.828396
 30
0.0
  0
SPLINE
  5
2d4
100
AcDbEntity
  8
Layer_1
 62
3
100
AcDbSpline
 70
8
 71
3
 72
8
 73
4
 74
0
 40
0
 40
0
 40
0
 40
0
 40
1
 40
1
 40
1
 40
1
 10
48.188846
 20
222.828396
 30
0.0
 10
48.188846
 20
223.043370
 30
0.0
 10
48.216406
 20
223.236295
 30
0.0
 10
48.271526
 20
223.407172
 30
0.0
  0
SPLINE
  5
2d5
100
AcDbEntity
  8
Layer_1
 62
3
100
AcDbSpline
 70
8
 71
3
 72
8
 73
4
 74
0
 40
0
 40
0
 40
0
 40
0
 40
1
 40
1
 40
1
 40
1
 10
48.271526
 20
223.407172
 30
0.0
 10
48.321133
 20
223.578049
 30
0.0
 10
48.409327
 20
223.735145
 30
0.0
 10
48.536109
 20
223.878461
 30
0.0
  0
SPLINE
  5
2d6
100
AcDbEntity
  8
Layer_1
 62
3
100
AcDbSpline
 70
8
 71
3
 72
8
 73
4
 74
0
 40
0
 40
0
 40
0
 40
0
 40
1
 40
1
 40
1
 40
1
 10
48.536109
 20
223.878461
 30
0.0
 10
48.657376
 20
224.027289
 30
0.0
 10
48.822741
 20
224.165093
 30
0.0
 10
49.032203
 20
224.291872
 30
0.0
  0
SPLINE
  5
2d7
100
AcDbEntity
  8
Layer_1
 62
3
100
AcDbSpline
 70
8
 71
3
 72
8
 73
4
 74
0
 40
0
 40
0
 40
0
 40
0
 40
1
 40
1
 40
1
 40
1
 10
49.032203
 20
224.291872
 30
0.0
 10
49.241664
 20
224.418652
 30
0.0
 10
49.503491
 20
224.545432
 30
0.0
 10
49.817684
 20
224.672211
 30
0.0
  0
LWPOLYLINE
  5
2d8
100
AcDbEntity
  8
Layer_1
 62
3
100
AcDbPolyline
 90
2
 70
0
 10
59.119446
 20
221.224360
 30
0.0
 10
49.974785
 20
221.224360
 30
0.0
  0
SPLINE
  5
2d9
100
AcDbEntity
  8
Layer_1
 62
3
100
AcDbSpline
 70
8
 71
3
 72
8
 73
4
 74
0
 40
0
 40
0
 40
0
 40
0
 40
1
 40
1
 40
1
 40
1
 10
60.781353
 20
237.588825
 30
0.0
 10
60.952230
 20
237.528192
 30
0.0
 10
61.076253
 20
237.437241
 30
0.0
 10
61.153423
 20
237.315974
 30
0.0
  0
SPLINE
  5
2da
100
AcDbEntity
  8
Layer_1
 62
3
100
AcDbSpline
 70
8
 71
3
 72
8
 73
4
 74
0
 40
0
 40
0
 40
0
 40
0
 40
1
 40
1
 40
1
 40
1
 10
61.153423
 20
237.315974
 30
0.0
 10
61.230593
 20
237.200219
 30
0.0
 10
61.269178
 20
237.073439
 30
0.0
 10
61.269178
 20
236.935635
 30
0.0
  0
SPLINE
  5
2db
100
AcDbEntity
  8
Layer_1
 62
3
100
AcDbSpline
 70
8
 71
3
 72
8
 73
4
 74
0
 40
0
 40
0
 40
0
 40
0
 40
1
 40
1
 40
1
 40
1
 10
61.269178
 20
236.935635
 30
0.0
 10
61.269178
 20
236.847441
 30
0.0
 10
61.252641
 20
236.759247
 30
0.0
 10
61.219568
 20
236.671052
 30
0.0
  0
SPLINE
  5
2dc
100
AcDbEntity
  8
Layer_1
 62
3
100
AcDbSpline
 70
8
 71
3
 72
8
 73
4
 74
0
 40
0
 40
0
 40
0
 40
0
 40
1
 40
1
 40
1
 40
1
 10
61.219568
 20
236.671052
 30
0.0
 10
61.192008
 20
236.588370
 30
0.0
 10
61.147911
 20
236.513956
 30
0.0
 10
61.087276
 20
236.447810
 30
0.0
  0
SPLINE
  5
2dd
100
AcDbEntity
  8
Layer_1
 62
3
100
AcDbSpline
 70
8
 71
3
 72
8
 73
4
 74
0
 40
0
 40
0
 40
0
 40
0
 40
1
 40
1
 40
1
 40
1
 10
61.087276
 20
236.447810
 30
0.0
 10
61.032156
 20
236.381663
 30
0.0
 10
60.963254
 20
236.329298
 30
0.0
 10
60.880570
 20
236.290713
 30
0.0
  0
SPLINE
  5
2de
100
AcDbEntity
  8
Layer_1
 62
3
100
AcDbSpline
 70
8
 71
3
 72
8
 73
4
 74
0
 40
0
 40
0
 40
0
 40
0
 40
1
 40
1
 40
1
 40
1
 10
60.880570
 20
236.290713
 30
0.0
 10
60.797888
 20
236.246620
 30
0.0
 10
60.704182
 20
236.224573
 30
0.0
 10
60.599451
 20
236.224573
 30
0.0
  0
SPLINE
  5
2df
100
AcDbEntity
  8
Layer_1
 62
3
100
AcDbSpline
 70
8
 71
3
 72
8
 73
4
 74
0
 40
0
 40
0
 40
0
 40
0
 40
1
 40
1
 40
1
 40
1
 10
60.599451
 20
236.224573
 30
0.0
 10
60.560864
 20
236.224573
 30
0.0
 10
60.519523
 20
236.227340
 30
0.0
 10
60.475427
 20
236.232873
 30
0.0
  0
SPLINE
  5
2e0
100
AcDbEntity
  8
Layer_1
 62
3
100
AcDbSpline
 70
8
 71
3
 72
8
 73
4
 74
0
 40
0
 40
0
 40
0
 40
0
 40
1
 40
1
 40
1
 40
1
 10
60.475427
 20
236.232873
 30
0.0
 10
60.431327
 20
236.238406
 30
0.0
 10
60.387230
 20
236.249430
 30
0.0
 10
60.343136
 20
236.265943
 30
0.0
  0
LWPOLYLINE
  5
2e1
100
AcDbEntity
  8
Layer_1
 62
3
100
AcDbPolyline
 90
3
 70
0
 10
49.817684
 20
224.672211
 30
0.0
 10
57.383114
 20
227.962966
 30
0.0
 10
57.383111
 20
228.012562
 30
0.0
  0
SPLINE
  5
2e2
100
AcDbEntity
  8
Layer_1
 62
3
100
AcDbSpline
 70
8
 71
3
 72
8
 73
4
 74
0
 40
0
 40
0
 40
0
 40
0
 40
1
 40
1
 40
1
 40
1
 10
48.593982
 20
240.176815
 30
0.0
 10
48.417593
 20
240.237448
 30
0.0
 10
48.290814
 20
240.331155
 30
0.0
 10
48.213644
 20
240.457935
 30
0.0
  0
SPLINE
  5
2e3
100
AcDbEntity
  8
Layer_1
 62
3
100
AcDbSpline
 70
8
 71
3
 72
8
 73
4
 74
0
 40
0
 40
0
 40
0
 40
0
 40
1
 40
1
 40
1
 40
1
 10
48.213644
 20
240.457935
 30
0.0
 10
48.136474
 20
240.584714
 30
0.0
 10
48.097889
 20
240.717006
 30
0.0
 10
48.097889
 20
240.854810
 30
0.0
  0
SPLINE
  5
2e4
100
AcDbEntity
  8
Layer_1
 62
3
100
AcDbSpline
 70
8
 71
3
 72
8
 73
4
 74
0
 40
0
 40
0
 40
0
 40
0
 40
1
 40
1
 40
1
 40
1
 10
48.097889
 20
240.854810
 30
0.0
 10
48.097889
 20
240.943004
 30
0.0
 10
48.114426
 20
241.028442
 30
0.0
 10
48.147499
 20
241.111125
 30
0.0
  0
SPLINE
  5
2e5
100
AcDbEntity
  8
Layer_1
 62
3
100
AcDbSpline
 70
8
 71
3
 72
8
 73
4
 74
0
 40
0
 40
0
 40
0
 40
0
 40
1
 40
1
 40
1
 40
1
 10
48.147499
 20
241.111125
 30
0.0
 10
48.175059
 20
241.199319
 30
0.0
 10
48.219156
 20
241.276489
 30
0.0
 10
48.279791
 20
241.342635
 30
0.0
  0
SPLINE
  5
2e6
100
AcDbEntity
  8
Layer_1
 62
3
100
AcDbSpline
 70
8
 71
3
 72
8
 73
4
 74
0
 40
0
 40
0
 40
0
 40
0
 40
1
 40
1
 40
1
 40
1
 10
48.279791
 20
241.342635
 30
0.0
 10
48.334911
 20
241.408782
 30
0.0
 10
48.403813
 20
241.461147
 30
0.0
 10
48.486497
 20
241.499732
 30
0.0
  0
SPLINE
  5
2e7
100
AcDbEntity
  8
Layer_1
 62
3
100
AcDbSpline
 70
8
 71
3
 72
8
 73
4
 74
0
 40
0
 40
0
 40
0
 40
0
 40
1
 40
1
 40
1
 40
1
 10
48.486497
 20
241.499732
 30
0.0
 10
48.569179
 20
241.543825
 30
0.0
 10
48.662885
 20
241.565872
 30
0.0
 10
48.767616
 20
241.565872
 30
0.0
  0
SPLINE
  5
2e8
100
AcDbEntity
  8
Layer_1
 62
3
100
AcDbSpline
 70
8
 71
3
 72
8
 73
4
 74
0
 40
0
 40
0
 40
0
 40
0
 40
1
 40
1
 40
1
 40
1
 10
48.767616
 20
241.565872
 30
0.0
 10
48.811716
 20
241.565872
 30
0.0
 10
48.855813
 20
241.563105
 30
0.0
 10
48.899908
 20
241.557572
 30
0.0
  0
SPLINE
  5
2e9
100
AcDbEntity
  8
Layer_1
 62
3
100
AcDbSpline
 70
8
 71
3
 72
8
 73
4
 74
0
 40
0
 40
0
 40
0
 40
0
 40
1
 40
1
 40
1
 40
1
 10
48.899908
 20
241.557572
 30
0.0
 10
48.944008
 20
241.552039
 30
0.0
 10
48.988105
 20
241.541015
 30
0.0
 10
49.032200
 20
241.524502
 30
0.0
  0
LWPOLYLINE
  5
2ea
100
AcDbEntity
  8
Layer_1
 62
3
100
AcDbPolyline
 90
2
 70
0
 10
60.343136
 20
236.265943
 30
0.0
 10
48.593982
 20
240.176815
 30
0.0
  0
SPLINE
  5
2eb
100
AcDbEntity
  8
Layer_1
 62
3
100
AcDbSpline
 70
8
 71
3
 72
8
 73
4
 74
0
 40
0
 40
0
 40
0
 40
0
 40
1
 40
1
 40
1
 40
1
 10
49.280246
 20
242.915219
 30
0.0
 10
49.125906
 20
242.915219
 30
0.0
 10
48.982590
 20
242.942779
 30
0.0
 10
48.850299
 20
242.997899
 30
0.0
  0
SPLINE
  5
2ec
100
AcDbEntity
  8
Layer_1
 62
3
100
AcDbSpline
 70
8
 71
3
 72
8
 73
4
 74
0
 40
0
 40
0
 40
0
 40
0
 40
1
 40
1
 40
1
 40
1
 10
48.850299
 20
242.997899
 30
0.0
 10
48.712495
 20
243.058532
 30
0.0
 10
48.596740
 20
243.138459
 30
0.0
 10
48.503033
 20
243.237678
 30
0.0
  0
SPLINE
  5
2ed
100
AcDbEntity
  8
Layer_1
 62
3
100
AcDbSpline
 70
8
 71
3
 72
8
 73
4
 74
0
 40
0
 40
0
 40
0
 40
0
 40
1
 40
1
 40
1
 40
1
 10
48.503033
 20
243.237678
 30
0.0
 10
48.403814
 20
243.336897
 30
0.0
 10
48.326644
 20
243.449896
 30
0.0
 10
48.271523
 20
243.576675
 30
0.0
  0
SPLINE
  5
2ee
100
AcDbEntity
  8
Layer_1
 62
3
100
AcDbSpline
 70
8
 71
3
 72
8
 73
4
 74
0
 40
0
 40
0
 40
0
 40
0
 40
1
 40
1
 40
1
 40
1
 10
48.271523
 20
243.576675
 30
0.0
 10
48.216403
 20
243.708967
 30
0.0
 10
48.188843
 20
243.846771
 30
0.0
 10
48.188843
 20
243.990086
 30
0.0
  0
LWPOLYLINE
  5
2ef
100
AcDbEntity
  8
Layer_1
 62
3
100
AcDbPolyline
 90
2
 70
0
 10
49.032200
 20
241.524502
 30
0.0
 10
60.781353
 20
237.588825
 30
0.0
  0
SPLINE
  5
2f0
100
AcDbEntity
  8
Layer_1
 62
3
100
AcDbSpline
 70
8
 71
3
 72
8
 73
4
 74
0
 40
0
 40
0
 40
0
 40
0
 40
1
 40
1
 40
1
 40
1
 10
48.188843
 20
249.695164
 30
0.0
 10
48.188843
 20
249.832968
 30
0.0
 10
48.213646
 20
249.951479
 30
0.0
 10
48.263253
 20
250.050698
 30
0.0
  0
SPLINE
  5
2f1
100
AcDbEntity
  8
Layer_1
 62
3
100
AcDbSpline
 70
8
 71
3
 72
8
 73
4
 74
0
 40
0
 40
0
 40
0
 40
0
 40
1
 40
1
 40
1
 40
1
 10
48.263253
 20
250.050698
 30
0.0
 10
48.307353
 20
250.155429
 30
0.0
 10
48.367987
 20
250.240867
 30
0.0
 10
48.445154
 20
250.307013
 30
0.0
  0
SPLINE
  5
2f2
100
AcDbEntity
  8
Layer_1
 62
3
100
AcDbSpline
 70
8
 71
3
 72
8
 73
4
 74
0
 40
0
 40
0
 40
0
 40
0
 40
1
 40
1
 40
1
 40
1
 10
48.445154
 20
250.307013
 30
0.0
 10
48.522325
 20
250.378671
 30
0.0
 10
48.610519
 20
250.431037
 30
0.0
 10
48.709738
 20
250.464110
 30
0.0
  0
SPLINE
  5
2f3
100
AcDbEntity
  8
Layer_1
 62
3
100
AcDbSpline
 70
8
 71
3
 72
8
 73
4
 74
0
 40
0
 40
0
 40
0
 40
0
 40
1
 40
1
 40
1
 40
1
 10
48.709738
 20
250.464110
 30
0.0
 10
48.803445
 20
250.497183
 30
0.0
 10
48.902663
 20
250.513720
 30
0.0
 10
49.007394
 20
250.513720
 30
0.0
  0
SPLINE
  5
2f4
100
AcDbEntity
  8
Layer_1
 62
3
100
AcDbSpline
 70
8
 71
3
 72
8
 73
4
 74
0
 40
0
 40
0
 40
0
 40
0
 40
1
 40
1
 40
1
 40
1
 10
49.007394
 20
250.513720
 30
0.0
 10
49.106613
 20
250.513720
 30
0.0
 10
49.205831
 20
250.497183
 30
0.0
 10
49.305050
 20
250.464110
 30
0.0
  0
SPLINE
  5
2f5
100
AcDbEntity
  8
Layer_1
 62
3
100
AcDbSpline
 70
8
 71
3
 72
8
 73
4
 74
0
 40
0
 40
0
 40
0
 40
0
 40
1
 40
1
 40
1
 40
1
 10
49.305050
 20
250.464110
 30
0.0
 10
49.404269
 20
250.431037
 30
0.0
 10
49.492463
 20
250.378671
 30
0.0
 10
49.569633
 20
250.307013
 30
0.0
  0
SPLINE
  5
2f6
100
AcDbEntity
  8
Layer_1
 62
3
100
AcDbSpline
 70
8
 71
3
 72
8
 73
4
 74
0
 40
0
 40
0
 40
0
 40
0
 40
1
 40
1
 40
1
 40
1
 10
49.569633
 20
250.307013
 30
0.0
 10
49.646804
 20
250.240866
 30
0.0
 10
49.710194
 20
250.155428
 30
0.0
 10
49.759803
 20
250.050698
 30
0.0
  0
SPLINE
  5
2f7
100
AcDbEntity
  8
Layer_1
 62
3
100
AcDbSpline
 70
8
 71
3
 72
8
 73
4
 74
0
 40
0
 40
0
 40
0
 40
0
 40
1
 40
1
 40
1
 40
1
 10
49.759803
 20
250.050698
 30
0.0
 10
49.803903
 20
249.951479
 30
0.0
 10
49.825953
 20
249.832968
 30
0.0
 10
49.825953
 20
249.695164
 30
0.0
  0
LWPOLYLINE
  5
2f8
100
AcDbEntity
  8
Layer_1
 62
3
100
AcDbPolyline
 90
2
 70
0
 10
48.188843
 20
243.990086
 30
0.0
 10
48.188843
 20
249.695164
 30
0.0
  0
SPLINE
  5
2f9
100
AcDbEntity
  8
Layer_1
 62
3
100
AcDbSpline
 70
8
 71
3
 72
8
 73
4
 74
0
 40
0
 40
0
 40
0
 40
0
 40
1
 40
1
 40
1
 40
1
 10
53.116708
 20
249.463654
 30
0.0
 10
53.116708
 20
249.601458
 30
0.0
 10
53.141511
 20
249.719969
 30
0.0
 10
53.191118
 20
249.819188
 30
0.0
  0
SPLINE
  5
2fa
100
AcDbEntity
  8
Layer_1
 62
3
100
AcDbSpline
 70
8
 71
3
 72
8
 73
4
 74
0
 40
0
 40
0
 40
0
 40
0
 40
1
 40
1
 40
1
 40
1
 10
53.191118
 20
249.819188
 30
0.0
 10
53.235211
 20
249.923919
 30
0.0
 10
53.295845
 20
250.009357
 30
0.0
 10
53.373019
 20
250.075503
 30
0.0
  0
SPLINE
  5
2fb
100
AcDbEntity
  8
Layer_1
 62
3
100
AcDbSpline
 70
8
 71
3
 72
8
 73
4
 74
0
 40
0
 40
0
 40
0
 40
0
 40
1
 40
1
 40
1
 40
1
 10
53.373019
 20
250.075503
 30
0.0
 10
53.450189
 20
250.147161
 30
0.0
 10
53.538383
 20
250.199526
 30
0.0
 10
53.637602
 20
250.232599
 30
0.0
  0
SPLINE
  5
2fc
100
AcDbEntity
  8
Layer_1
 62
3
100
AcDbSpline
 70
8
 71
3
 72
8
 73
4
 74
0
 40
0
 40
0
 40
0
 40
0
 40
1
 40
1
 40
1
 40
1
 10
53.637602
 20
250.232599
 30
0.0
 10
53.736821
 20
250.265672
 30
0.0
 10
53.836039
 20
250.282209
 30
0.0
 10
53.935258
 20
250.282209
 30
0.0
  0
SPLINE
  5
2fd
100
AcDbEntity
  8
Layer_1
 62
3
100
AcDbSpline
 70
8
 71
3
 72
8
 73
4
 74
0
 40
0
 40
0
 40
0
 40
0
 40
1
 40
1
 40
1
 40
1
 10
53.935258
 20
250.282209
 30
0.0
 10
54.039989
 20
250.282209
 30
0.0
 10
54.141964
 20
250.265672
 30
0.0
 10
54.241183
 20
250.232599
 30
0.0
  0
SPLINE
  5
2fe
100
AcDbEntity
  8
Layer_1
 62
3
100
AcDbSpline
 70
8
 71
3
 72
8
 73
4
 74
0
 40
0
 40
0
 40
0
 40
0
 40
1
 40
1
 40
1
 40
1
 10
54.241183
 20
250.232599
 30
0.0
 10
54.340402
 20
250.199526
 30
0.0
 10
54.428596
 20
250.147160
 30
0.0
 10
54.505766
 20
250.075503
 30
0.0
  0
SPLINE
  5
2ff
100
AcDbEntity
  8
Layer_1
 62
3
100
AcDbSpline
 70
8
 71
3
 72
8
 73
4
 74
0
 40
0
 40
0
 40
0
 40
0
 40
1
 40
1
 40
1
 40
1
 10
54.505766
 20
250.075503
 30
0.0
 10
54.582936
 20
250.009356
 30
0.0
 10
54.646326
 20
249.923918
 30
0.0
 10
54.695935
 20
249.819188
 30
0.0
  0
SPLINE
  5
300
100
AcDbEntity
  8
Layer_1
 62
3
100
AcDbSpline
 70
8
 71
3
 72
8
 73
4
 74
0
 40
0
 40
0
 40
0
 40
0
 40
1
 40
1
 40
1
 40
1
 10
54.695935
 20
249.819188
 30
0.0
 10
54.740035
 20
249.719969
 30
0.0
 10
54.762085
 20
249.601458
 30
0.0
 10
54.762085
 20
249.463654
 30
0.0
  0
LWPOLYLINE
  5
301
100
AcDbEntity
  8
Layer_1
 62
3
100
AcDbPolyline
 90
4
 70
0
 10
49.825953
 20
249.695164
 30
0.0
 10
49.825953
 20
245.139370
 30
0.0
 10
53.116708
 20
245.139370
 30
0.0
 10
53.116708
 20
249.463654
 30
0.0
  0
SPLINE
  5
302
100
AcDbEntity
  8
Layer_1
 62
3
100
AcDbSpline
 70
8
 71
3
 72
8
 73
4
 74
0
 40
0
 40
0
 40
0
 40
0
 40
1
 40
1
 40
1
 40
1
 10
59.011955
 20
245.139370
 30
0.0
 10
59.188344
 20
245.139370
 30
0.0
 10
59.345440
 20
245.106297
 30
0.0
 10
59.483244
 20
245.040150
 30
0.0
  0
SPLINE
  5
303
100
AcDbEntity
  8
Layer_1
 62
3
100
AcDbSpline
 70
8
 71
3
 72
8
 73
4
 74
0
 40
0
 40
0
 40
0
 40
0
 40
1
 40
1
 40
1
 40
1
 10
59.483244
 20
245.040150
 30
0.0
 10
59.615535
 20
244.979517
 30
0.0
 10
59.725778
 20
244.896834
 30
0.0
 10
59.813973
 20
244.792103
 30
0.0
  0
SPLINE
  5
304
100
AcDbEntity
  8
Layer_1
 62
3
100
AcDbSpline
 70
8
 71
3
 72
8
 73
4
 74
0
 40
0
 40
0
 40
0
 40
0
 40
1
 40
1
 40
1
 40
1
 10
59.813973
 20
244.792103
 30
0.0
 10
59.902168
 20
244.687372
 30
0.0
 10
59.968313
 20
244.566104
 30
0.0
 10
60.012410
 20
244.428301
 30
0.0
  0
SPLINE
  5
305
100
AcDbEntity
  8
Layer_1
 62
3
100
AcDbSpline
 70
8
 71
3
 72
8
 73
4
 74
0
 40
0
 40
0
 40
0
 40
0
 40
1
 40
1
 40
1
 40
1
 10
60.012410
 20
244.428301
 30
0.0
 10
60.056510
 20
244.296009
 30
0.0
 10
60.078560
 20
244.160961
 30
0.0
 10
60.078560
 20
244.023157
 30
0.0
  0
SPLINE
  5
306
100
AcDbEntity
  8
Layer_1
 62
3
100
AcDbSpline
 70
8
 71
3
 72
8
 73
4
 74
0
 40
0
 40
0
 40
0
 40
0
 40
1
 40
1
 40
1
 40
1
 10
60.078560
 20
244.023157
 30
0.0
 10
60.078560
 20
243.885354
 30
0.0
 10
60.056510
 20
243.750306
 30
0.0
 10
60.012410
 20
243.618014
 30
0.0
  0
SPLINE
  5
307
100
AcDbEntity
  8
Layer_1
 62
3
100
AcDbSpline
 70
8
 71
3
 72
8
 73
4
 74
0
 40
0
 40
0
 40
0
 40
0
 40
1
 40
1
 40
1
 40
1
 10
60.012410
 20
243.618014
 30
0.0
 10
59.968310
 20
243.485723
 30
0.0
 10
59.902164
 20
243.367211
 30
0.0
 10
59.813973
 20
243.262480
 30
0.0
  0
SPLINE
  5
308
100
AcDbEntity
  8
Layer_1
 62
3
100
AcDbSpline
 70
8
 71
3
 72
8
 73
4
 74
0
 40
0
 40
0
 40
0
 40
0
 40
1
 40
1
 40
1
 40
1
 10
59.813973
 20
243.262480
 30
0.0
 10
59.725778
 20
243.157749
 30
0.0
 10
59.615535
 20
243.072311
 30
0.0
 10
59.483244
 20
243.006165
 30
0.0
  0
SPLINE
  5
309
100
AcDbEntity
  8
Layer_1
 62
3
100
AcDbSpline
 70
8
 71
3
 72
8
 73
4
 74
0
 40
0
 40
0
 40
0
 40
0
 40
1
 40
1
 40
1
 40
1
 10
59.483244
 20
243.006165
 30
0.0
 10
59.345440
 20
242.945532
 30
0.0
 10
59.188344
 20
242.915215
 30
0.0
 10
59.011955
 20
242.915215
 30
0.0
  0
LWPOLYLINE
  5
30a
100
AcDbEntity
  8
Layer_1
 62
3
100
AcDbPolyline
 90
3
 70
0
 10
54.762085
 20
249.463654
 30
0.0
 10
54.762085
 20
245.139370
 30
0.0
 10
59.011955
 20
245.139370
 30
0.0
  0
LWPOLYLINE
  5
30b
100
AcDbEntity
  8
Layer_1
 62
3
100
AcDbPolyline
 90
2
 70
0
 10
59.011955
 20
242.915215
 30
0.0
 10
49.280246
 20
242.915219
 30
0.0
  0
SPLINE
  5
30c
100
AcDbEntity
  8
Layer_1
 62
3
100
AcDbSpline
 70
8
 71
3
 72
8
 73
4
 74
0
 40
0
 40
0
 40
0
 40
0
 40
1
 40
1
 40
1
 40
1
 10
42.661530
 20
202.603053
 30
0.0
 10
42.661530
 20
199.718796
 30
0.0
 10
42.661530
 20
196.834227
 30
0.0
 10
42.661530
 20
193.949347
 30
0.0
  0
LWPOLYLINE
  5
30d
100
AcDbEntity
  8
Layer_1
 62
3
100
AcDbPolyline
 90
4
 70
1
 10
40.960640
 20
202.603048
 30
0.0
 10
40.960640
 20
223.543003
 30
0.0
 10
44.362426
 20
223.543003
 30
0.0
 10
44.362426
 20
202.603048
 30
0.0
  0
LWPOLYLINE
  5
30e
100
AcDbEntity
  8
Layer_1
 62
3
100
AcDbPolyline
 90
4
 70
1
 10
43.039501
 20
268.146960
 30
0.0
 10
43.039501
 20
247.207005
 30
0.0
 10
39.637715
 20
247.207005
 30
0.0
 10
39.637715
 20
268.146960
 30
0.0
  0
SPLINE
  5
30f
100
AcDbEntity
  8
Layer_1
 62
3
100
AcDbSpline
 70
8
 71
3
 72
8
 73
4
 74
0
 40
0
 40
0
 40
0
 40
0
 40
1
 40
1
 40
1
 40
1
 10
43.344333
 20
223.581312
 30
0.0
 10
42.916577
 20
223.670368
 30
0.0
 10
42.516585
 20
223.800936
 30
0.0
 10
42.172751
 20
223.988817
 30
0.0
  0
SPLINE
  5
310
100
AcDbEntity
  8
Layer_1
 62
3
100
AcDbSpline
 70
8
 71
3
 72
8
 73
4
 74
0
 40
0
 40
0
 40
0
 40
0
 40
1
 40
1
 40
1
 40
1
 10
42.172751
 20
223.988817
 30
0.0
 10
41.881878
 20
224.147759
 30
0.0
 10
41.636028
 20
224.345024
 30
0.0
 10
41.444423
 20
224.587931
 30
0.0
  0
SPLINE
  5
311
100
AcDbEntity
  8
Layer_1
 62
3
100
AcDbSpline
 70
8
 71
3
 72
8
 73
4
 74
0
 40
0
 40
0
 40
0
 40
0
 40
1
 40
1
 40
1
 40
1
 10
41.444423
 20
224.587931
 30
0.0
 10
41.110442
 20
225.011333
 30
0.0
 10
40.960102
 20
225.548864
 30
0.0
 10
40.978438
 20
226.205919
 30
0.0
  0
SPLINE
  5
312
100
AcDbEntity
  8
Layer_1
 62
3
100
AcDbSpline
 70
8
 71
3
 72
8
 73
4
 74
0
 40
0
 40
0
 40
0
 40
0
 40
1
 40
1
 40
1
 40
1
 10
40.978438
 20
226.205919
 30
0.0
 10
40.994638
 20
226.786358
 30
0.0
 10
41.139760
 20
227.408212
 30
0.0
 10
41.339546
 20
228.052792
 30
0.0
  0
SPLINE
  5
313
100
AcDbEntity
  8
Layer_1
 62
3
100
AcDbSpline
 70
8
 71
3
 72
8
 73
4
 74
0
 40
0
 40
0
 40
0
 40
0
 40
1
 40
1
 40
1
 40
1
 10
41.339546
 20
228.052792
 30
0.0
 10
41.522001
 20
228.641457
 30
0.0
 10
41.743738
 20
229.222207
 30
0.0
 10
41.889600
 20
229.711035
 30
0.0
  0
SPLINE
  5
314
100
AcDbEntity
  8
Layer_1
 62
3
100
AcDbSpline
 70
8
 71
3
 72
8
 73
4
 74
0
 40
0
 40
0
 40
0
 40
0
 40
1
 40
1
 40
1
 40
1
 10
41.889600
 20
229.711035
 30
0.0
 10
42.632907
 20
231.345829
 30
0.0
 10
43.446111
 20
233.155761
 30
0.0
 10
43.690997
 20
234.939914
 30
0.0
  0
SPLINE
  5
315
100
AcDbEntity
  8
Layer_1
 62
3
100
AcDbSpline
 70
8
 71
3
 72
8
 73
4
 74
0
 40
0
 40
0
 40
0
 40
0
 40
1
 40
1
 40
1
 40
1
 10
43.690997
 20
234.939914
 30
0.0
 10
43.939236
 20
236.748501
 30
0.0
 10
43.601447
 20
238.489419
 30
0.0
 10
42.197515
 20
240.112594
 30
0.0
  0
SPLINE
  5
316
100
AcDbEntity
  8
Layer_1
 62
3
100
AcDbSpline
 70
8
 71
3
 72
8
 73
4
 74
0
 40
0
 40
0
 40
0
 40
0
 40
1
 40
1
 40
1
 40
1
 10
42.197515
 20
240.112594
 30
0.0
 10
41.754765
 20
240.702033
 30
0.0
 10
41.528881
 20
241.292820
 30
0.0
 10
41.416424
 20
241.865156
 30
0.0
  0
SPLINE
  5
317
100
AcDbEntity
  8
Layer_1
 62
3
100
AcDbSpline
 70
8
 71
3
 72
8
 73
4
 74
0
 40
0
 40
0
 40
0
 40
0
 40
1
 40
1
 40
1
 40
1
 10
41.416424
 20
241.865156
 30
0.0
 10
41.296388
 20
242.476064
 30
0.0
 10
41.302605
 20
243.089209
 30
0.0
 10
41.332814
 20
243.650292
 30
0.0
  0
SPLINE
  5
318
100
AcDbEntity
  8
Layer_1
 62
3
100
AcDbSpline
 70
8
 71
3
 72
8
 73
4
 74
0
 40
0
 40
0
 40
0
 40
0
 40
1
 40
1
 40
1
 40
1
 10
41.332814
 20
243.650292
 30
0.0
 10
41.424024
 20
245.344350
 30
0.0
 10
41.564265
 20
246.114236
 30
0.0
 10
41.225209
 20
247.207003
 30
0.0
  0
SPLINE
  5
319
100
AcDbEntity
  8
Layer_1
 62
3
100
AcDbSpline
 70
8
 71
3
 72
8
 73
4
 74
0
 40
0
 40
0
 40
0
 40
0
 40
1
 40
1
 40
1
 40
1
 10
41.225209
 20
247.207003
 30
0.0
 10
41.561917
 20
246.121804
 30
0.0
 10
41.415237
 20
245.336519
 30
0.0
 10
41.303999
 20
243.651027
 30
0.0
  0
SPLINE
  5
31a
100
AcDbEntity
  8
Layer_1
 62
3
100
AcDbSpline
 70
8
 71
3
 72
8
 73
4
 74
0
 40
0
 40
0
 40
0
 40
0
 40
1
 40
1
 40
1
 40
1
 10
41.303999
 20
243.651027
 30
0.0
 10
41.266989
 20
243.090195
 30
0.0
 10
41.252519
 20
242.475075
 30
0.0
 10
41.364579
 20
241.860981
 30
0.0
  0
SPLINE
  5
31b
100
AcDbEntity
  8
Layer_1
 62
3
100
AcDbSpline
 70
8
 71
3
 72
8
 73
4
 74
0
 40
0
 40
0
 40
0
 40
0
 40
1
 40
1
 40
1
 40
1
 10
41.364579
 20
241.860981
 30
0.0
 10
41.469598
 20
241.285435
 30
0.0
 10
41.688396
 20
240.688339
 30
0.0
 10
42.128465
 20
240.089117
 30
0.0
  0
SPLINE
  5
31c
100
AcDbEntity
  8
Layer_1
 62
3
100
AcDbSpline
 70
8
 71
3
 72
8
 73
4
 74
0
 40
0
 40
0
 40
0
 40
0
 40
1
 40
1
 40
1
 40
1
 10
42.128465
 20
240.089117
 30
0.0
 10
43.508011
 20
238.471127
 30
0.0
 10
43.824343
 20
236.742055
 30
0.0
 10
43.559270
 20
234.947892
 30
0.0
  0
SPLINE
  5
31d
100
AcDbEntity
  8
Layer_1
 62
3
100
AcDbSpline
 70
8
 71
3
 72
8
 73
4
 74
0
 40
0
 40
0
 40
0
 40
0
 40
1
 40
1
 40
1
 40
1
 10
43.559270
 20
234.947892
 30
0.0
 10
43.297436
 20
233.175653
 30
0.0
 10
42.470673
 20
231.378067
 30
0.0
 10
41.708679
 20
229.740487
 30
0.0
  0
SPLINE
  5
31e
100
AcDbEntity
  8
Layer_1
 62
3
100
AcDbSpline
 70
8
 71
3
 72
8
 73
4
 74
0
 40
0
 40
0
 40
0
 40
0
 40
1
 40
1
 40
1
 40
1
 10
41.708679
 20
229.740487
 30
0.0
 10
41.553418
 20
229.252416
 30
0.0
 10
41.323080
 20
228.672195
 30
0.0
 10
41.131590
 20
228.080804
 30
0.0
  0
SPLINE
  5
31f
100
AcDbEntity
  8
Layer_1
 62
3
100
AcDbSpline
 70
8
 71
3
 72
8
 73
4
 74
0
 40
0
 40
0
 40
0
 40
0
 40
1
 40
1
 40
1
 40
1
 10
41.131590
 20
228.080804
 30
0.0
 10
40.922306
 20
227.434461
 30
0.0
 10
40.766386
 20
226.802937
 30
0.0
 10
40.742743
 20
226.209320
 30
0.0
  0
SPLINE
  5
320
100
AcDbEntity
  8
Layer_1
 62
3
100
AcDbSpline
 70
8
 71
3
 72
8
 73
4
 74
0
 40
0
 40
0
 40
0
 40
0
 40
1
 40
1
 40
1
 40
1
 10
40.742743
 20
226.209320
 30
0.0
 10
40.715983
 20
225.537521
 30
0.0
 10
40.862289
 20
224.969772
 30
0.0
 10
41.217302
 20
224.512409
 30
0.0
  0
SPLINE
  5
321
100
AcDbEntity
  8
Layer_1
 62
3
100
AcDbSpline
 70
8
 71
3
 72
8
 73
4
 74
0
 40
0
 40
0
 40
0
 40
0
 40
1
 40
1
 40
1
 40
1
 10
41.217302
 20
224.512409
 30
0.0
 10
41.421721
 20
224.249057
 30
0.0
 10
41.687372
 20
224.032906
 30
0.0
 10
42.004248
 20
223.858308
 30
0.0
  0
SPLINE
  5
322
100
AcDbEntity
  8
Layer_1
 62
3
100
AcDbSpline
 70
8
 71
3
 72
8
 73
4
 74
0
 40
0
 40
0
 40
0
 40
0
 40
1
 40
1
 40
1
 40
1
 10
42.004248
 20
223.858308
 30
0.0
 10
42.378189
 20
223.652267
 30
0.0
 10
42.810175
 20
223.511436
 30
0.0
 10
43.263847
 20
223.416985
 30
0.0
  0
LWPOLYLINE
  5
323
100
AcDbEntity
  8
Layer_1
 62
3
100
AcDbPolyline
 90
2
 70
0
 10
43.304093
 20
223.499148
 30
0.0
 10
43.344333
 20
223.581312
 30
0.0
  0
LWPOLYLINE
  5
324
100
AcDbEntity
  8
Layer_1
 62
3
100
AcDbPolyline
 90
3
 70
0
 10
43.263847
 20
223.416985
 30
0.0
 10
43.304087
 20
223.499148
 30
0.0
 10
43.304093
 20
223.499148
 30
0.0
  0
ENDSEC
  0
SECTION
  2
OBJECTS
  0
DICTIONARY
  5
C
330
0
100
AcDbDictionary
  3
ACAD_GROUP
350
D
  3
ACAD_MLINESTYLE
350
17
  0
DICTIONARY
  5
D
330
C
100
AcDbDictionary
  0
DICTIONARY
  5
1A
330
C
100
AcDbDictionary
  0
DICTIONARY
  5
17
330
C
100
AcDbDictionary
  3
STANDARD
350
18
  0
DICTIONARY
  5
19
330
C
100
AcDbDictionary
  0
ENDSEC
  0
EOF
