<?xml version="1.0" encoding="UTF-8" standalone="no"?>
<!-- Created with Inkscape (http://www.inkscape.org/) -->

<svg
   xmlns:dc="http://purl.org/dc/elements/1.1/"
   xmlns:cc="http://creativecommons.org/ns#"
   xmlns:rdf="http://www.w3.org/1999/02/22-rdf-syntax-ns#"
   xmlns:svg="http://www.w3.org/2000/svg"
   xmlns="http://www.w3.org/2000/svg"
   xmlns:sodipodi="http://sodipodi.sourceforge.net/DTD/sodipodi-0.dtd"
   xmlns:inkscape="http://www.inkscape.org/namespaces/inkscape"
   inkscape:version="0.91 r13725"
   version="1.1"
   id="svg2"
   viewBox="0 0 1488.189 1052.3622"
   height="297mm"
   width="420mm"
   sodipodi:docname="teslaschublade_pinheader.svg">
  <sodipodi:namedview
     inkscape:window-maximized="1"
     inkscape:window-y="35"
     inkscape:window-x="0"
     inkscape:window-height="1368"
     inkscape:window-width="2560"
     showgrid="false"
     inkscape:current-layer="layer1"
     inkscape:document-units="px"
     inkscape:cy="757.15279"
     inkscape:cx="290.90384"
     inkscape:zoom="1.4"
     inkscape:pageshadow="2"
     inkscape:pageopacity="0.0"
     borderopacity="1.0"
     bordercolor="#666666"
     pagecolor="#ffffff"
     id="base" />
  <defs
     id="defs4" />
  <metadata
     id="metadata7">
    <rdf:RDF>
      <cc:Work
         rdf:about="">
        <dc:format>image/svg+xml</dc:format>
        <dc:type
           rdf:resource="http://purl.org/dc/dcmitype/StillImage" />
        <dc:title />
      </cc:Work>
    </rdf:RDF>
  </metadata>
  <g
     id="layer1"
     inkscape:groupmode="layer"
     inkscape:label="Layer 1"
     transform="translate(0,-1.6535434e-6)">
    <path
       id="path5663"
       inkscape:label="part"
       style="fill:none;stroke:#000000"
       d="m 322.44094,799.01575 31.81004,0 0,-14.17323 32.49213,0 0,14.17323 31.50886,0 0,-14.17323 32.49212,0 0,14.17323 31.50886,0 0,-14.17323 32.49213,0 0,14.17323 31.50886,0 0,-14.17323 32.49212,0 0,14.17323 31.50886,0 0,-14.17323 32.49213,0 0,14.17323 31.50886,0 0,-14.17323 32.49212,0 0,14.17323 31.50886,0 0,-14.17323 32.49213,0 0,14.17323 31.50885,0 0,-14.17323 32.49213,0 0,14.17323 31.50886,0 0,-14.17323 32.49212,0 0,14.17323 31.50886,0 0,-14.17323 32.49213,0 0,14.17323 31.50886,0 0,-14.17323 32.49217,0 0,14.17323 31.5088,0 0,-14.17323 32.4921,0 0,14.17323 31.5089,0 0,-14.17323 32.4921,0 0,14.17323 31.5089,0 0,-14.17323 32.4921,0 0,14.17323 31.5089,0 0,-14.17323 32.4921,0 0,14.17323 31.81,0"
       inkscape:connector-curvature="0" />
    <path
       id="path5665"
       inkscape:label="part"
       style="fill:none;stroke:#000000"
       d="m 1314.5669,799.01575 0,24.39567 -14.1732,0 0,31.2874 14.1732,0 0,38.87008 -14.1732,0 0,31.2874 14.1732,0 0,38.87008 -14.1732,0 0,31.2874 14.1732,0 0,38.87012 -14.1732,0 0,31.2874 14.1732,0 0,24.3956"
       inkscape:connector-curvature="0" />
    <path
       id="path5667"
       inkscape:label="part"
       style="fill:none;stroke:#000000"
       d="m 1314.5669,1089.5669 -31.81,0 -928.50592,0 -31.81004,0"
       inkscape:connector-curvature="0"
       sodipodi:nodetypes="cccc" />
    <path
       id="path5669"
       inkscape:label="part"
       style="fill:none;stroke:#000000"
       d="m 322.44094,1089.5669 0,-24.3956 14.17323,0 0,-31.2874 -14.17323,0 0,-38.87012 14.17323,0 0,-31.2874 -14.17323,0 0,-38.87008 14.17323,0 0,-31.2874 -14.17323,0 0,-38.87008 14.17323,0 0,-31.2874 -14.17323,0 0,-24.39567"
       inkscape:connector-curvature="0" />
    <path
       id="path5671"
       inkscape:label="part"
       style="fill:none;stroke:#000000"
       d="m 15.944882,478.6102 23.793307,0 0,-14.17323 32.492126,0 0,14.17323 37.665355,0 0,-14.17323 32.49213,0 0,14.17323 37.66535,0 0,-14.17323 32.49213,0 0,14.17323 37.66535,0 0,-14.17323 32.49213,0 0,14.17323 23.7933,0"
       inkscape:connector-curvature="0" />
    <path
       id="path5673"
       inkscape:label="part"
       style="fill:none;stroke:#000000"
       d="m 306.49606,478.6102 0,23.99578 14.17323,0 0,32.49213 -14.17323,0 0,37.86783 14.17323,0 0,32.49213 -14.17323,0 0,37.86783 14.17323,0 0,32.49212 -14.17323,0 0,37.86783 14.17323,0 0,32.49213 -14.17323,0 0,37.86783 14.17323,0 0,32.49212 -14.17323,0 0,37.86783 14.17323,0 0,32.49213 -14.17323,0 0,23.99578"
       inkscape:connector-curvature="0" />
    <path
       id="path5675"
       inkscape:label="part"
       style="fill:none;stroke:#000000"
       d="m 306.49606,910.89367 -23.7933,0 0,14.17323 -32.49213,0 0,-14.17323 -37.66535,0 0,14.17323 -32.49213,0 0,-14.17323 -37.66535,0 0,14.17323 -32.49213,0 0,-14.17323 -37.665355,0 0,14.17323 -32.492126,0 0,-14.17323 -23.793307,0"
       inkscape:connector-curvature="0" />
    <path
       id="path5677"
       inkscape:label="part"
       style="fill:none;stroke:#000000"
       d="m 15.944882,910.89367 0,-23.99578 0,-384.29191 0,-23.99578"
       inkscape:connector-curvature="0"
       sodipodi:nodetypes="cccc" />
    <path
       id="path5679"
       inkscape:label="part"
       style="fill:none;stroke:#000000"
       d="m 322.44094,322.44094 32.41241,0 0,14.17323 31.2874,0 0,-14.17323 32.71358,0 0,14.17323 31.2874,0 0,-14.17323 32.71358,0 0,14.17323 31.28741,0 0,-14.17323 32.71358,0 0,14.17323 31.2874,0 0,-14.17323 32.71358,0 0,14.17323 31.28741,0 0,-14.17323 32.71358,0 0,14.17323 31.2874,0 0,-14.17323 32.71358,0 0,14.17323 31.2874,0 0,-14.17323 32.71359,0 0,14.17323 31.2874,0 0,-14.17323 32.71358,0 0,14.17323 31.2874,0 0,-14.17323 32.71358,0 0,14.17323 31.28741,0 0,-14.17323 32.71358,0 0,14.17323 31.28741,0 0,-14.17323 32.7136,0 0,14.17323 31.2874,0 0,-14.17323 32.7136,0 0,14.17323 31.2874,0 0,-14.17323 32.7135,0 0,14.17323 31.2874,0 0,-14.17323 32.7136,0 0,14.17323 31.2874,0 0,-14.17323 32.4124,0"
       inkscape:connector-curvature="0" />
    <path
       id="path5681"
       inkscape:label="part"
       style="fill:none;stroke:#000000"
       d="m 1314.5669,322.44094 0,38.77138 -14.1732,0 0,31.2874 14.1732,0 0,39.07255 -14.1732,0 0,31.2874 14.1732,0 0,39.07256 -14.1732,0 0,31.2874 14.1732,0 0,39.07255 -14.1732,0 0,31.2874 14.1732,0 0,39.07256 -14.1732,0 0,31.2874 14.1732,0 0,39.07255 -14.1732,0 0,31.2874 14.1732,0 0,38.77138"
       inkscape:connector-curvature="0" />
    <path
       id="path5683"
       inkscape:label="part"
       style="fill:none;stroke:#000000"
       d="m 1314.5669,783.07087 -32.4124,0 0,-14.17323 -31.2874,0 0,14.17323 -32.7136,0 0,-14.17323 -31.2874,0 0,14.17323 -32.7135,0 0,-14.17323 -31.2874,0 0,14.17323 -32.7136,0 0,-14.17323 -31.2874,0 0,14.17323 -32.7136,0 0,-14.17323 -31.28741,0 0,14.17323 -32.71358,0 0,-14.17323 -31.28741,0 0,14.17323 -32.71358,0 0,-14.17323 -31.2874,0 0,14.17323 -32.71358,0 0,-14.17323 -31.2874,0 0,14.17323 -32.71359,0 0,-14.17323 -31.2874,0 0,14.17323 -32.71358,0 0,-14.17323 -31.2874,0 0,14.17323 -32.71358,0 0,-14.17323 -31.28741,0 0,14.17323 -32.71358,0 0,-14.17323 -31.2874,0 0,14.17323 -32.71358,0 0,-14.17323 -31.28741,0 0,14.17323 -32.71358,0 0,-14.17323 -31.2874,0 0,14.17323 -32.71358,0 0,-14.17323 -31.2874,0 0,14.17323 -32.41241,0"
       inkscape:connector-curvature="0" />
    <path
       id="path5685"
       inkscape:label="part"
       style="fill:none;stroke:#000000"
       d="m 322.44094,783.07087 0,-38.77138 14.17323,0 0,-31.2874 -14.17323,0 0,-39.07255 14.17323,0 0,-31.2874 -14.17323,0 0,-39.07256 14.17323,0 0,-31.2874 -14.17323,0 0,-39.07255 14.17323,0 0,-31.2874 -14.17323,0 0,-39.07256 14.17323,0 0,-31.2874 -14.17323,0 0,-39.07255 14.17323,0 0,-31.2874 -14.17323,0 0,-38.77138"
       inkscape:connector-curvature="0" />
    <path
       id="path5687"
       inkscape:label="part"
       style="fill:none;stroke:#000000"
       d="m 15.9449,15.94488 23.7933,0 0,-14.17323 32.4921,0 0,14.17323 37.6654,0 0,-14.17323 32.4921,0 0,14.17323 37.6654,0 0,-14.17323 32.4921,0 0,14.17323 37.6654,0 0,-14.17323 32.4921,0 0,14.17323 23.7933,0"
       inkscape:connector-curvature="0" />
    <path
       id="path5689"
       inkscape:label="part"
       style="fill:none;stroke:#000000"
       d="m 306.4961,15.94488 0,23.99578 14.1732,0 0,32.49213 -14.1732,0 0,37.86783 14.1732,0 0,32.49213 -14.1732,0 0,37.86783 14.1732,0 0,32.49212 -14.1732,0 0,37.86783 14.1732,0 0,32.49213 -14.1732,0 0,37.86783 14.1732,0 0,32.49212 -14.1732,0 0,37.86783 14.1732,0 0,32.49213 -14.1732,0 0,23.99578"
       inkscape:connector-curvature="0" />
    <path
       id="path5691"
       inkscape:label="part"
       style="fill:none;stroke:#000000"
       d="m 306.4961,448.22835 -23.7933,0 0,14.17323 -32.4921,0 0,-14.17323 -37.6654,0 0,14.17323 -32.4921,0 0,-14.17323 -37.6654,0 0,14.17323 -32.4921,0 0,-14.17323 -37.6654,0 0,14.17323 -32.4921,0 0,-14.17323 -23.7933,0"
       inkscape:connector-curvature="0" />
    <path
       id="path5693"
       inkscape:label="part"
       style="fill:none;stroke:#000000"
       d="m 15.9449,448.22835 0,-23.99578 0,-384.29191 0,-23.99578"
       inkscape:connector-curvature="0"
       sodipodi:nodetypes="cccc" />
    <path
       id="path5703"
       inkscape:label="part"
       style="fill:none;stroke:#000000"
       d="m 322.44094,15.944882 31.81004,0 928.50592,0 31.81,0"
       inkscape:connector-curvature="0"
       sodipodi:nodetypes="cccc" />
    <path
       id="path5705"
       inkscape:label="part"
       style="fill:none;stroke:#000000"
       d="m 1314.5669,15.944882 0,24.395669 -14.1732,0 0,31.287402 14.1732,0 0,38.870077 -14.1732,0 0,31.2874 14.1732,0 0,38.87008 -14.1732,0 0,31.2874 14.1732,0 0,38.87008 -14.1732,0 0,31.2874 14.1732,0 0,24.39567"
       inkscape:connector-curvature="0" />
    <path
       id="path5707"
       inkscape:label="part"
       style="fill:none;stroke:#000000"
       d="m 1314.5669,306.49606 -31.81,0 0,14.17323 -32.4921,0 0,-14.17323 -31.5089,0 0,14.17323 -32.4921,0 0,-14.17323 -31.5089,0 0,14.17323 -32.4921,0 0,-14.17323 -31.5089,0 0,14.17323 -32.4921,0 0,-14.17323 -31.5088,0 0,14.17323 -32.49217,0 0,-14.17323 -31.50886,0 0,14.17323 -32.49213,0 0,-14.17323 -31.50886,0 0,14.17323 -32.49212,0 0,-14.17323 -31.50886,0 0,14.17323 -32.49213,0 0,-14.17323 -31.50885,0 0,14.17323 -32.49213,0 0,-14.17323 -31.50886,0 0,14.17323 -32.49212,0 0,-14.17323 -31.50886,0 0,14.17323 -32.49213,0 0,-14.17323 -31.50886,0 0,14.17323 -32.49212,0 0,-14.17323 -31.50886,0 0,14.17323 -32.49213,0 0,-14.17323 -31.50886,0 0,14.17323 -32.49212,0 0,-14.17323 -31.50886,0 0,14.17323 -32.49213,0 0,-14.17323 -31.81004,0"
       inkscape:connector-curvature="0" />
    <path
       id="path5709"
       inkscape:label="part"
       style="fill:none;stroke:#000000"
       d="m 322.44094,306.49606 0,-24.39567 14.17323,0 0,-31.2874 -14.17323,0 0,-38.87008 14.17323,0 0,-31.2874 -14.17323,0 0,-38.87008 14.17323,0 0,-31.2874 -14.17323,0 0,-38.870077 14.17323,0 0,-31.287402 -14.17323,0 0,-24.395669"
       inkscape:connector-curvature="0" />
    <path
       style="color:#000000;display:inline;overflow:visible;visibility:visible;opacity:1;fill:none;fill-opacity:1;fill-rule:evenodd;stroke:#000000;stroke-width:2;stroke-linecap:butt;stroke-linejoin:miter;stroke-miterlimit:4;stroke-dasharray:none;stroke-dashoffset:0;stroke-opacity:1;marker:none;enable-background:accumulate"
       d="m 125.73974,141.72942 c 108.32429,0 34.88628,39.73998 34.88628,89.64285 0,49.90287 73.43801,91.07143 -34.88628,91.07143 -108.324283,0 -36.122864,-40.45427 -36.122864,-90.35714 0,-49.90287 -72.201419,-90.35714 36.122864,-90.35714 z"
       id="path5910"
       inkscape:connector-curvature="0"
       sodipodi:nodetypes="sssss" />
    <g
       transform="matrix(0,-1,1,0,0,0)"
       style="font-style:normal;font-variant:normal;font-weight:normal;font-stretch:normal;font-size:20px;line-height:100%;font-family:Ubuntu;-inkscape-font-specification:'Ubuntu, Normal';text-align:start;letter-spacing:0px;word-spacing:0px;writing-mode:lr-tb;text-anchor:start;fill:#000000;fill-opacity:1;stroke:#00ff00;stroke-width:1px;stroke-linecap:butt;stroke-linejoin:miter;stroke-opacity:1"
       id="text3410">
      <path
         d="m -388.21939,235.58862 14.28711,0 0,-5.53711 -16.61133,-0.0684 0,2.08497 -3.34961,0 0,40.19531 5.67383,0 0,-36.67481 z m 2.29004,21.12305 16.47461,0 0,-1.94824 3.28125,0 0,-27.58301 -5.60547,0 0,23.92578 -14.15039,0 0,5.60547 z"
         style="font-style:normal;font-variant:normal;font-weight:normal;font-stretch:normal;font-size:70px;font-family:progenisis;-inkscape-font-specification:progenisis;fill:#00ff00;stroke:#00ff00"
         id="path3527" />
      <path
         d="m -360.12369,226.49683 5.67383,0 0,4.81933 -5.74219,-0.0684 0.0684,-4.75097 z m 0,10.62988 5.60547,0 0,27.9248 -5.60547,0 0,-27.9248 z"
         style="font-style:normal;font-variant:normal;font-weight:normal;font-stretch:normal;font-size:70px;font-family:progenisis;-inkscape-font-specification:progenisis;fill:#00ff00;stroke:#00ff00"
         id="path3529" />
      <path
         d="m -349.45963,237.12671 5.67383,0 0,27.99316 -5.67383,0 0,-27.99316 z m 7.89551,3.00781 0,-5.60547 16.09864,0 0,2.59766 2.80273,0 0,27.99316 -5.57129,0 0,-24.98535 -13.33008,0 z"
         style="font-style:normal;font-variant:normal;font-weight:normal;font-stretch:normal;font-size:70px;font-family:progenisis;-inkscape-font-specification:progenisis;fill:#00ff00;stroke:#00ff00"
         id="path3531" />
      <path
         d="m -282.39908,230.18823 0,41.59668 5.60547,0 0.0684,-41.59668 -5.67383,0 z m 7.55371,21.49903 14.35547,0 0,16.09863 5.60547,0 0,-41.08399 -5.60547,0 0,19.37989 -14.35547,0 0,5.60547 z"
         style="font-style:normal;font-variant:normal;font-weight:normal;font-stretch:normal;font-size:70px;font-family:progenisis;-inkscape-font-specification:progenisis;fill:#00ff00;stroke:#00ff00"
         id="path3533" />
      <path
         d="m -248.01431,265.05151 0,-27.9248 5.60547,0 0,10.21973 16.30371,0 0,-7.417 -13.84278,0 0,-5.60547 16.78223,0 0,2.8711 2.66602,0 0,13.02246 -3.00782,0 0,2.73437 -18.90136,0 0,12.16797 -5.60547,-0.0684 z m 8.47656,-5.67382 15.68848,0 0,5.67382 -15.68848,0.0684 0,-5.74218 z"
         style="font-style:normal;font-variant:normal;font-weight:normal;font-stretch:normal;font-size:70px;font-family:progenisis;-inkscape-font-specification:progenisis;fill:#00ff00;stroke:#00ff00"
         id="path3535" />
      <path
         d="m -194.24966,259.30933 0,-7.417 -16.30372,0 0,13.22754 -5.60546,0 0,-16.09863 3.00781,0 0,-2.73437 18.90137,0 0,-6.42579 -18.55957,0 0,-5.60546 21.3623,0 0,2.80273 2.80273,0 0,25.05371 -2.73437,0 0,2.80273 -17.02148,0 0,-5.60546 14.15039,0 z"
         style="font-style:normal;font-variant:normal;font-weight:normal;font-stretch:normal;font-size:70px;font-family:progenisis;-inkscape-font-specification:progenisis;fill:#00ff00;stroke:#00ff00"
         id="path3537" />
      <path
         d="m -157.23306,226.63354 -5.67383,0 0,7.48536 -0.0684,0 0,-0.13672 -12.44141,0 0,5.57129 12.50977,0 0,25.5664 5.67383,-0.0684 0,-38.41797 z m -20.71289,32.8125 0,-22.52441 -5.60547,0 0,28.12988 18.83301,0 0,-5.60547 -13.22754,0 z"
         style="font-style:normal;font-variant:normal;font-weight:normal;font-stretch:normal;font-size:70px;font-family:progenisis;-inkscape-font-specification:progenisis;fill:#00ff00;stroke:#00ff00"
         id="path3539" />
      <path
         d="m -151.96939,265.05151 0,-27.9248 5.60547,0 0,10.21973 16.30371,0 0,-7.417 -13.84277,0 0,-5.60547 16.78222,0 0,2.8711 2.66602,0 0,13.02246 -3.00781,0 0,2.73437 -18.90137,0 0,12.16797 -5.60547,-0.0684 z m 8.47656,-5.67382 15.68848,0 0,5.67382 -15.68848,0.0684 0,-5.74218 z"
         style="font-style:normal;font-variant:normal;font-weight:normal;font-stretch:normal;font-size:70px;font-family:progenisis;-inkscape-font-specification:progenisis;fill:#00ff00;stroke:#00ff00"
         id="path3541" />
      <path
         d="m -120.18228,237.12671 5.67383,0 0,27.99316 -5.67383,0 0,-27.99316 z m 7.89551,3.00781 0,-5.60547 16.098629,0 0,5.60547 -16.098629,0 z"
         style="font-style:normal;font-variant:normal;font-weight:normal;font-stretch:normal;font-size:70px;font-family:progenisis;-inkscape-font-specification:progenisis;fill:#00ff00;stroke:#00ff00"
         id="path3543" />
      <path
         d="m -93.863922,265.11987 0,-5.60547 15.415039,0 0,5.60547 -15.415039,0 z m 5.673828,-18.69629 15.107422,0 0,2.80274 2.802734,0 0,13.09082 -5.605468,0 0,-10.28809 -15.107422,0 0,-2.80273 -2.802735,0 0,-12.09961 5.605469,0 0,9.29687 z m 2.597656,-6.49414 0,-5.60547 13.706055,0 0,5.60547 -13.706055,0 z"
         style="font-style:normal;font-variant:normal;font-weight:normal;font-stretch:normal;font-size:70px;font-family:progenisis;-inkscape-font-specification:progenisis;fill:#00ff00;stroke:#00ff00"
         id="path3545" />
    </g>
  </g>
  <g
     id="g5711"
     inkscape:groupmode="layer"
     inkscape:label="newlayer"
     transform="translate(0,-1.6535434e-6)" />
</svg>
