<?xml version="1.0" encoding="UTF-8" standalone="no"?>
<!-- Created with Inkscape (http://www.inkscape.org/) -->

<svg
   xmlns:dc="http://purl.org/dc/elements/1.1/"
   xmlns:cc="http://creativecommons.org/ns#"
   xmlns:rdf="http://www.w3.org/1999/02/22-rdf-syntax-ns#"
   xmlns:svg="http://www.w3.org/2000/svg"
   xmlns="http://www.w3.org/2000/svg"
   xmlns:sodipodi="http://sodipodi.sourceforge.net/DTD/sodipodi-0.dtd"
   xmlns:inkscape="http://www.inkscape.org/namespaces/inkscape"
   inkscape:version="0.92.3 (2405546, 2018-03-11)"
   version="1.1"
   id="svg2"
   viewBox="0 0 1488.189 1052.3622"
   height="297mm"
   width="420mm"
   sodipodi:docname="teslaschublade.svg">
  <sodipodi:namedview
     inkscape:window-maximized="1"
     inkscape:window-y="25"
     inkscape:window-x="0"
     inkscape:window-height="1090"
     inkscape:window-width="2048"
     showgrid="false"
     inkscape:current-layer="layer1"
     inkscape:document-units="px"
     inkscape:cy="845.43746"
     inkscape:cx="81.206169"
     inkscape:zoom="2.8"
     inkscape:pageshadow="2"
     inkscape:pageopacity="0.0"
     borderopacity="1.0"
     bordercolor="#666666"
     pagecolor="#ffffff"
     id="base" />
  <defs
     id="defs4" />
  <metadata
     id="metadata7">
    <rdf:RDF>
      <cc:Work
         rdf:about="">
        <dc:format>image/svg+xml</dc:format>
        <dc:type
           rdf:resource="http://purl.org/dc/dcmitype/StillImage" />
        <dc:title></dc:title>
      </cc:Work>
    </rdf:RDF>
  </metadata>
  <g
     id="layer1"
     inkscape:groupmode="layer"
     inkscape:label="Layer 1"
     transform="translate(0,-1.6535434e-6)">
    <path
       id="path5663"
       inkscape:label="part"
       style="fill:none;stroke:#000000"
       d="m 322.44094,799.01575 31.81004,0 0,-14.17323 32.49213,0 0,14.17323 31.50886,0 0,-14.17323 32.49212,0 0,14.17323 31.50886,0 0,-14.17323 32.49213,0 0,14.17323 31.50886,0 0,-14.17323 32.49212,0 0,14.17323 31.50886,0 0,-14.17323 32.49213,0 0,14.17323 31.50886,0 0,-14.17323 32.49212,0 0,14.17323 31.50886,0 0,-14.17323 32.49213,0 0,14.17323 31.50885,0 0,-14.17323 32.49213,0 0,14.17323 31.50886,0 0,-14.17323 32.49212,0 0,14.17323 31.50886,0 0,-14.17323 32.49213,0 0,14.17323 31.50886,0 0,-14.17323 32.49217,0 0,14.17323 31.5088,0 0,-14.17323 32.4921,0 0,14.17323 31.5089,0 0,-14.17323 32.4921,0 0,14.17323 31.5089,0 0,-14.17323 32.4921,0 0,14.17323 31.5089,0 0,-14.17323 32.4921,0 0,14.17323 31.81,0"
       inkscape:connector-curvature="0" />
    <path
       id="path5665"
       inkscape:label="part"
       style="fill:none;stroke:#000000"
       d="m 1314.5669,799.01575 0,24.39567 -14.1732,0 0,31.2874 14.1732,0 0,38.87008 -14.1732,0 0,31.2874 14.1732,0 0,38.87008 -14.1732,0 0,31.2874 14.1732,0 0,38.87012 -14.1732,0 0,31.2874 14.1732,0 0,24.3956"
       inkscape:connector-curvature="0" />
    <path
       id="path5667"
       inkscape:label="part"
       style="fill:none;stroke:#000000"
       d="m 1314.5669,1089.5669 -31.81,0 -928.50592,0 -31.81004,0"
       inkscape:connector-curvature="0"
       sodipodi:nodetypes="cccc" />
    <path
       id="path5669"
       inkscape:label="part"
       style="fill:none;stroke:#000000"
       d="m 322.44094,1089.5669 0,-24.3956 14.17323,0 0,-31.2874 -14.17323,0 0,-38.87012 14.17323,0 0,-31.2874 -14.17323,0 0,-38.87008 14.17323,0 0,-31.2874 -14.17323,0 0,-38.87008 14.17323,0 0,-31.2874 -14.17323,0 0,-24.39567"
       inkscape:connector-curvature="0" />
    <path
       id="path5671"
       inkscape:label="part"
       style="fill:none;stroke:#000000"
       d="m 15.944882,478.6102 23.793307,0 0,-14.17323 32.492126,0 0,14.17323 37.665355,0 0,-14.17323 32.49213,0 0,14.17323 37.66535,0 0,-14.17323 32.49213,0 0,14.17323 37.66535,0 0,-14.17323 32.49213,0 0,14.17323 23.7933,0"
       inkscape:connector-curvature="0" />
    <path
       id="path5673"
       inkscape:label="part"
       style="fill:none;stroke:#000000"
       d="m 306.49606,478.6102 0,23.99578 14.17323,0 0,32.49213 -14.17323,0 0,37.86783 14.17323,0 0,32.49213 -14.17323,0 0,37.86783 14.17323,0 0,32.49212 -14.17323,0 0,37.86783 14.17323,0 0,32.49213 -14.17323,0 0,37.86783 14.17323,0 0,32.49212 -14.17323,0 0,37.86783 14.17323,0 0,32.49213 -14.17323,0 0,23.99578"
       inkscape:connector-curvature="0" />
    <path
       id="path5675"
       inkscape:label="part"
       style="fill:none;stroke:#000000"
       d="m 306.49606,910.89367 -23.7933,0 0,14.17323 -32.49213,0 0,-14.17323 -37.66535,0 0,14.17323 -32.49213,0 0,-14.17323 -37.66535,0 0,14.17323 -32.49213,0 0,-14.17323 -37.665355,0 0,14.17323 -32.492126,0 0,-14.17323 -23.793307,0"
       inkscape:connector-curvature="0" />
    <path
       id="path5677"
       inkscape:label="part"
       style="fill:none;stroke:#000000"
       d="m 15.944882,910.89367 0,-23.99578 0,-384.29191 0,-23.99578"
       inkscape:connector-curvature="0"
       sodipodi:nodetypes="cccc" />
    <path
       id="path5679"
       inkscape:label="part"
       style="fill:none;stroke:#000000"
       d="m 322.44094,322.44094 32.41241,0 0,14.17323 31.2874,0 0,-14.17323 32.71358,0 0,14.17323 31.2874,0 0,-14.17323 32.71358,0 0,14.17323 31.28741,0 0,-14.17323 32.71358,0 0,14.17323 31.2874,0 0,-14.17323 32.71358,0 0,14.17323 31.28741,0 0,-14.17323 32.71358,0 0,14.17323 31.2874,0 0,-14.17323 32.71358,0 0,14.17323 31.2874,0 0,-14.17323 32.71359,0 0,14.17323 31.2874,0 0,-14.17323 32.71358,0 0,14.17323 31.2874,0 0,-14.17323 32.71358,0 0,14.17323 31.28741,0 0,-14.17323 32.71358,0 0,14.17323 31.28741,0 0,-14.17323 32.7136,0 0,14.17323 31.2874,0 0,-14.17323 32.7136,0 0,14.17323 31.2874,0 0,-14.17323 32.7135,0 0,14.17323 31.2874,0 0,-14.17323 32.7136,0 0,14.17323 31.2874,0 0,-14.17323 32.4124,0"
       inkscape:connector-curvature="0" />
    <path
       id="path5681"
       inkscape:label="part"
       style="fill:none;stroke:#000000"
       d="m 1314.5669,322.44094 0,38.77138 -14.1732,0 0,31.2874 14.1732,0 0,39.07255 -14.1732,0 0,31.2874 14.1732,0 0,39.07256 -14.1732,0 0,31.2874 14.1732,0 0,39.07255 -14.1732,0 0,31.2874 14.1732,0 0,39.07256 -14.1732,0 0,31.2874 14.1732,0 0,39.07255 -14.1732,0 0,31.2874 14.1732,0 0,38.77138"
       inkscape:connector-curvature="0" />
    <path
       id="path5683"
       inkscape:label="part"
       style="fill:none;stroke:#000000"
       d="m 1314.5669,783.07087 -32.4124,0 0,-14.17323 -31.2874,0 0,14.17323 -32.7136,0 0,-14.17323 -31.2874,0 0,14.17323 -32.7135,0 0,-14.17323 -31.2874,0 0,14.17323 -32.7136,0 0,-14.17323 -31.2874,0 0,14.17323 -32.7136,0 0,-14.17323 -31.28741,0 0,14.17323 -32.71358,0 0,-14.17323 -31.28741,0 0,14.17323 -32.71358,0 0,-14.17323 -31.2874,0 0,14.17323 -32.71358,0 0,-14.17323 -31.2874,0 0,14.17323 -32.71359,0 0,-14.17323 -31.2874,0 0,14.17323 -32.71358,0 0,-14.17323 -31.2874,0 0,14.17323 -32.71358,0 0,-14.17323 -31.28741,0 0,14.17323 -32.71358,0 0,-14.17323 -31.2874,0 0,14.17323 -32.71358,0 0,-14.17323 -31.28741,0 0,14.17323 -32.71358,0 0,-14.17323 -31.2874,0 0,14.17323 -32.71358,0 0,-14.17323 -31.2874,0 0,14.17323 -32.41241,0"
       inkscape:connector-curvature="0" />
    <path
       id="path5685"
       inkscape:label="part"
       style="fill:none;stroke:#000000"
       d="m 322.44094,783.07087 0,-38.77138 14.17323,0 0,-31.2874 -14.17323,0 0,-39.07255 14.17323,0 0,-31.2874 -14.17323,0 0,-39.07256 14.17323,0 0,-31.2874 -14.17323,0 0,-39.07255 14.17323,0 0,-31.2874 -14.17323,0 0,-39.07256 14.17323,0 0,-31.2874 -14.17323,0 0,-39.07255 14.17323,0 0,-31.2874 -14.17323,0 0,-38.77138"
       inkscape:connector-curvature="0" />
    <path
       id="path5687"
       inkscape:label="part"
       style="fill:none;stroke:#000000"
       d="m 15.9449,15.94488 23.7933,0 0,-14.17323 32.4921,0 0,14.17323 37.6654,0 0,-14.17323 32.4921,0 0,14.17323 37.6654,0 0,-14.17323 32.4921,0 0,14.17323 37.6654,0 0,-14.17323 32.4921,0 0,14.17323 23.7933,0"
       inkscape:connector-curvature="0" />
    <path
       id="path5689"
       inkscape:label="part"
       style="fill:none;stroke:#000000"
       d="m 306.4961,15.94488 0,23.99578 14.1732,0 0,32.49213 -14.1732,0 0,37.86783 14.1732,0 0,32.49213 -14.1732,0 0,37.86783 14.1732,0 0,32.49212 -14.1732,0 0,37.86783 14.1732,0 0,32.49213 -14.1732,0 0,37.86783 14.1732,0 0,32.49212 -14.1732,0 0,37.86783 14.1732,0 0,32.49213 -14.1732,0 0,23.99578"
       inkscape:connector-curvature="0" />
    <path
       id="path5691"
       inkscape:label="part"
       style="fill:none;stroke:#000000"
       d="m 306.4961,448.22835 -23.7933,0 0,14.17323 -32.4921,0 0,-14.17323 -37.6654,0 0,14.17323 -32.4921,0 0,-14.17323 -37.6654,0 0,14.17323 -32.4921,0 0,-14.17323 -37.6654,0 0,14.17323 -32.4921,0 0,-14.17323 -23.7933,0"
       inkscape:connector-curvature="0" />
    <path
       id="path5693"
       inkscape:label="part"
       style="fill:none;stroke:#000000"
       d="M 15.9449,448.22835 V 424.23257 L 15.8478,320.7457 c -0.188457,-14.56184 16.575857,1.698 29.733626,1.698 49.902865,0 90.859354,-40.45427 90.859354,-90.35714 0,-49.90287 -40.454257,-90.35714 -90.357122,-90.35714 -13.506782,0 -30.468518,18.48176 -30.084496,1.20045 L 15.9449,39.94066 V 15.94488"
       inkscape:connector-curvature="0"
       sodipodi:nodetypes="cccsssccc" />
    <path
       id="path5703"
       inkscape:label="part"
       style="fill:none;stroke:#000000"
       d="m 322.44094,15.944882 31.81004,0 928.50592,0 31.81,0"
       inkscape:connector-curvature="0"
       sodipodi:nodetypes="cccc" />
    <path
       id="path5705"
       inkscape:label="part"
       style="fill:none;stroke:#000000"
       d="m 1314.5669,15.944882 0,24.395669 -14.1732,0 0,31.287402 14.1732,0 0,38.870077 -14.1732,0 0,31.2874 14.1732,0 0,38.87008 -14.1732,0 0,31.2874 14.1732,0 0,38.87008 -14.1732,0 0,31.2874 14.1732,0 0,24.39567"
       inkscape:connector-curvature="0" />
    <path
       id="path5707"
       inkscape:label="part"
       style="fill:none;stroke:#000000"
       d="m 1314.5669,306.49606 -31.81,0 0,14.17323 -32.4921,0 0,-14.17323 -31.5089,0 0,14.17323 -32.4921,0 0,-14.17323 -31.5089,0 0,14.17323 -32.4921,0 0,-14.17323 -31.5089,0 0,14.17323 -32.4921,0 0,-14.17323 -31.5088,0 0,14.17323 -32.49217,0 0,-14.17323 -31.50886,0 0,14.17323 -32.49213,0 0,-14.17323 -31.50886,0 0,14.17323 -32.49212,0 0,-14.17323 -31.50886,0 0,14.17323 -32.49213,0 0,-14.17323 -31.50885,0 0,14.17323 -32.49213,0 0,-14.17323 -31.50886,0 0,14.17323 -32.49212,0 0,-14.17323 -31.50886,0 0,14.17323 -32.49213,0 0,-14.17323 -31.50886,0 0,14.17323 -32.49212,0 0,-14.17323 -31.50886,0 0,14.17323 -32.49213,0 0,-14.17323 -31.50886,0 0,14.17323 -32.49212,0 0,-14.17323 -31.50886,0 0,14.17323 -32.49213,0 0,-14.17323 -31.81004,0"
       inkscape:connector-curvature="0" />
    <path
       id="path5709"
       inkscape:label="part"
       style="fill:none;stroke:#000000"
       d="m 322.44094,306.49606 0,-24.39567 14.17323,0 0,-31.2874 -14.17323,0 0,-38.87008 14.17323,0 0,-31.2874 -14.17323,0 0,-38.87008 14.17323,0 0,-31.2874 -14.17323,0 0,-38.870077 14.17323,0 0,-31.287402 -14.17323,0 0,-24.395669"
       inkscape:connector-curvature="0" />
    <text
       xml:space="preserve"
       style="font-style:normal;font-variant:normal;font-weight:normal;font-stretch:normal;font-size:11.71875px;line-height:100%;font-family:Ubuntu;-inkscape-font-specification:'Ubuntu, Normal';text-align:start;letter-spacing:0.09375px;word-spacing:0px;writing-mode:lr-tb;text-anchor:start;fill:#000000;fill-opacity:1;stroke:none;stroke-width:0.9375px;stroke-linecap:butt;stroke-linejoin:miter;stroke-opacity:1"
       x="-287.27676"
       y="352.58542"
       id="text43"><tspan
         sodipodi:role="line"
         id="tspan41"
         x="-287.27676"
         y="362.04822"
         style="font-style:normal;font-variant:normal;font-weight:normal;font-stretch:normal;font-family:AlBattar;-inkscape-font-specification:AlBattar;stroke-width:0.9375px" /></text>
  </g>
  <g
     id="g5711"
     inkscape:groupmode="layer"
     inkscape:label="newlayer"
     transform="translate(0,-1.6535434e-6)" />
</svg>
