<?xml version="1.0" encoding="UTF-8" standalone="no"?>
<!-- Created with Inkscape (http://www.inkscape.org/) -->

<svg
   xmlns:dc="http://purl.org/dc/elements/1.1/"
   xmlns:cc="http://creativecommons.org/ns#"
   xmlns:rdf="http://www.w3.org/1999/02/22-rdf-syntax-ns#"
   xmlns:svg="http://www.w3.org/2000/svg"
   xmlns="http://www.w3.org/2000/svg"
   xmlns:sodipodi="http://sodipodi.sourceforge.net/DTD/sodipodi-0.dtd"
   xmlns:inkscape="http://www.inkscape.org/namespaces/inkscape"
   width="420mm"
   height="297mm"
   viewBox="0 0 420 297"
   version="1.1"
   id="svg282"
   inkscape:version="0.92.4 (5da689c313, 2019-01-14)"
   sodipodi:docname="teslaschublade_jumperwire_mm.svg">
  <defs
     id="defs276">
    <inkscape:path-effect
       effect="powerstroke"
       id="path-effect521"
       is_visible="true"
       offset_points="0,0.13229166"
       sort_points="true"
       interpolator_type="CubicBezierJohan"
       interpolator_beta="0.2"
       start_linecap_type="zerowidth"
       linejoin_type="extrp_arc"
       miter_limit="4"
       end_linecap_type="zerowidth" />
    <inkscape:path-effect
       effect="bspline"
       id="path-effect501"
       is_visible="true"
       weight="33.333333"
       steps="2"
       helper_size="0"
       apply_no_weight="true"
       apply_with_weight="true"
       only_selected="false" />
    <inkscape:path-effect
       effect="bspline"
       id="path-effect539"
       is_visible="true"
       weight="33.333333"
       steps="2"
       helper_size="0"
       apply_no_weight="true"
       apply_with_weight="true"
       only_selected="false" />
  </defs>
  <sodipodi:namedview
     id="base"
     pagecolor="#ffffff"
     bordercolor="#666666"
     borderopacity="1.0"
     inkscape:pageopacity="0.0"
     inkscape:pageshadow="2"
     inkscape:zoom="0.7"
     inkscape:cx="662.25729"
     inkscape:cy="676.69458"
     inkscape:document-units="mm"
     inkscape:current-layer="layer1"
     showgrid="false"
     inkscape:window-width="2048"
     inkscape:window-height="1090"
     inkscape:window-x="0"
     inkscape:window-y="25"
     inkscape:window-maximized="1" />
  <metadata
     id="metadata279">
    <rdf:RDF>
      <cc:Work
         rdf:about="">
        <dc:format>image/svg+xml</dc:format>
        <dc:type
           rdf:resource="http://purl.org/dc/dcmitype/StillImage" />
        <dc:title />
      </cc:Work>
    </rdf:RDF>
  </metadata>
  <g
     inkscape:label="Layer 1"
     inkscape:groupmode="layer"
     id="layer1">
    <g
       id="g374"
       transform="translate(-0.52916663,-79.375004)">
      <path
         d="m 4.5,85 h 22.581667 v -4 h 26.836666 v 4 H 76.5"
         style="fill:none;stroke:#000000"
         inkscape:label="part"
         id="path295"
         inkscape:connector-curvature="0" />
      <path
         d="m 76.5,85 v 19.915 h 4 v 24.17 h -4 v 23.83 h 4 v 24.17 h -4 V 197"
         style="fill:none;stroke:#000000"
         inkscape:label="part"
         id="path297"
         inkscape:connector-curvature="0" />
      <path
         d="M 76.5,197 H 53.918333 v 4 H 27.081667 v -4 H 4.5"
         style="fill:none;stroke:#000000"
         inkscape:label="part"
         id="path299"
         inkscape:connector-curvature="0" />
      <path
         d="m 4.5,197 10.583333,-19.915 v -24.17 -23.83 -24.17 L 4.5,85"
         style="fill:none;stroke:#000000"
         inkscape:label="part"
         id="path301"
         inkscape:connector-curvature="0"
         sodipodi:nodetypes="cccccc" />
    </g>
    <g
       id="g392">
      <path
         d="m 81,205.5 h 21.45346 v -4 h 21.70846 v 4 h 21.36846 v -4 h 21.70847 v 4 h 21.36846 v -4 h 21.70846 v 4 h 21.36846 v -4 h 21.70846 v 4 h 21.36846 v -4 h 21.70847 v 4 h 21.36846 v -4 h 21.70846 v 4 H 361"
         style="fill:none;stroke:#000000"
         inkscape:label="part"
         id="path287"
         inkscape:connector-curvature="0" />
      <path
         d="m 361,205.5 v 22.75167 h -4 v 26.49666 h 4 V 277.5"
         style="fill:none;stroke:#000000"
         inkscape:label="part"
         id="path289"
         inkscape:connector-curvature="0" />
      <path
         d="m 361,277.5 h -21.45346 v 4 h -21.70846 v -4 h -21.36846 v 4 h -21.70847 v -4 h -21.36846 v 4 h -21.70846 v -4 h -21.36846 v 4 h -21.70846 v -4 h -21.36846 v 4 h -21.70847 v -4 h -21.36846 v 4 h -21.70846 v -4 H 81"
         style="fill:none;stroke:#000000"
         inkscape:label="part"
         id="path291"
         inkscape:connector-curvature="0" />
      <path
         d="m 81,277.5 v -22.75167 h 4 V 228.25167 H 81 V 205.5"
         style="fill:none;stroke:#000000"
         inkscape:label="part"
         id="path293"
         inkscape:connector-curvature="0" />
    </g>
    <g
       id="g386">
      <path
         d="m 81,81 h 21.62346 v 4 h 21.36846 v -4 h 21.70846 v 4 h 21.36847 v -4 h 21.70846 v 4 h 21.36846 v -4 h 21.70846 v 4 h 21.36846 v -4 h 21.70846 v 4 h 21.36847 v -4 h 21.70846 v 4 h 21.36846 V 81 H 361"
         style="fill:none;stroke:#000000"
         inkscape:label="part"
         id="path303"
         inkscape:connector-curvature="0" />
      <path
         d="m 361,81 v 24.085 h -4 v 23.83 h 4 v 24.17 h -4 v 23.83 h 4 V 201"
         style="fill:none;stroke:#000000"
         inkscape:label="part"
         id="path305"
         inkscape:connector-curvature="0" />
      <path
         d="m 361,201 h -21.62346 v -4 h -21.36846 v 4 h -21.70846 v -4 h -21.36847 v 4 h -21.70846 v -4 h -21.36846 v 4 h -21.70846 v -4 h -21.36846 v 4 h -21.70846 v -4 h -21.36847 v 4 h -21.70846 v -4 h -21.36846 v 4 H 81"
         style="fill:none;stroke:#000000"
         inkscape:label="part"
         id="path307"
         inkscape:connector-curvature="0" />
      <path
         d="m 81,201 v -24.085 h 4 v -23.83 h -4 v -24.17 h 4 v -23.83 H 81 V 81"
         style="fill:none;stroke:#000000"
         inkscape:label="part"
         id="path309"
         inkscape:connector-curvature="0" />
    </g>
    <g
       id="g368"
       transform="translate(-361.49993,42.212497)">
      <path
         d="m 365.5,85 h 22.58167 v -4 h 26.83666 v 4 H 437.5"
         style="fill:none;stroke:#000000"
         inkscape:label="part"
         id="path311"
         inkscape:connector-curvature="0" />
      <path
         d="m 437.5,85 v 19.915 h 4 v 24.17 h -4 v 23.83 h 4 v 24.17 h -4 V 197"
         style="fill:none;stroke:#000000"
         inkscape:label="part"
         id="path313"
         inkscape:connector-curvature="0" />
      <path
         d="m 437.5,197 h -22.58167 v 4 h -26.83666 v -4 H 365.5"
         style="fill:none;stroke:#000000"
         inkscape:label="part"
         id="path315"
         inkscape:connector-curvature="0" />
      <path
         d="m 365.5,197 v -19.915 -24.17 -23.83 -24.17 V 85"
         style="fill:none;stroke:#000000"
         inkscape:label="part"
         id="path317"
         inkscape:connector-curvature="0"
         sodipodi:nodetypes="cccccc" />
    </g>
    <g
       id="g380">
      <path
         d="m 81,4.5 h 21.45346 v -4 h 21.70846 v 4 h 21.36846 v -4 h 21.70847 v 4 h 21.36846 v -4 h 21.70846 v 4 h 21.36846 v -4 h 21.70846 v 4 h 21.36846 v -4 h 21.70847 v 4 h 21.36846 v -4 h 21.70846 v 4 H 361"
         style="fill:none;stroke:#000000"
         inkscape:label="part"
         id="path327"
         inkscape:connector-curvature="0" />
      <path
         d="m 361,4.5 v 22.751667 h -4 v 26.496666 h 4 V 76.5"
         style="fill:none;stroke:#000000"
         inkscape:label="part"
         id="path329"
         inkscape:connector-curvature="0" />
      <path
         d="m 361,76.5 h -21.45346 v 4 h -21.70846 v -4 h -21.36846 v 4 h -21.70847 v -4 h -21.36846 v 4 h -21.70846 v -4 h -21.36846 v 4 h -21.70846 v -4 h -21.36846 v 4 h -21.70847 v -4 h -21.36846 v 4 h -21.70846 v -4 H 81"
         style="fill:none;stroke:#000000"
         inkscape:label="part"
         id="path331"
         inkscape:connector-curvature="0" />
      <path
         d="M 81,76.5 V 53.748333 h 4 V 27.251667 H 81 V 4.5"
         style="fill:none;stroke:#000000"
         inkscape:label="part"
         id="path333"
         inkscape:connector-curvature="0" />
    </g>
    <g
       id="g714">
      <g
         aria-label="JumperWire
M/M"
         transform="rotate(-90)"
         style="font-style:normal;font-variant:normal;font-weight:normal;font-stretch:normal;font-size:11.28888893px;line-height:100%;font-family:Arial;-inkscape-font-specification:Arial;text-align:start;letter-spacing:0.02645833px;word-spacing:0px;writing-mode:lr-tb;text-anchor:start;fill:none;fill-opacity:1;stroke:#00ff00;stroke-width:0.26458332px;stroke-linecap:butt;stroke-linejoin:miter;stroke-opacity:1"
         id="text415">
        <path
           d="m -104.75745,28.379604 q 0,-0.264584 0.091,-0.463021 0.0992,-0.198438 0.25631,-0.330729 0.1571,-0.132292 0.35554,-0.198438 0.2067,-0.06615 0.41341,-0.06615 0.2067,0 0.40514,0.06615 0.19844,0.06615 0.35554,0.198438 0.15709,0.132291 0.24804,0.330729 0.0992,0.198437 0.0992,0.463021 v 7.168554 q 0,1.058333 -0.32246,1.802474 -0.31419,0.74414 -0.8599,1.215429 -0.5457,0.471289 -1.26503,0.686263 -0.71934,0.214974 -1.52136,0.214974 -0.51263,0 -1.00045,-0.124023 -0.48783,-0.115755 -0.92605,-0.347266 -0.42994,-0.239778 -0.78548,-0.595312 -0.34726,-0.355534 -0.57877,-0.826823 -0.22325,-0.297656 -0.22325,-0.587044 0,-0.173633 0.0744,-0.314193 0.0744,-0.148828 0.19017,-0.256315 0.12402,-0.107487 0.27285,-0.165365 0.14883,-0.05788 0.30592,-0.05788 0.14056,0 0.27285,0.05788 0.14056,0.05788 0.24805,0.19017 0.30593,0.636653 0.80202,1.02526 0.49609,0.380339 1.21543,0.380339 0.91777,0 1.39733,-0.587045 0.47956,-0.595312 0.47956,-1.860351 z"
           style="font-style:normal;font-variant:normal;font-weight:normal;font-stretch:normal;font-size:16.93333244px;line-height:150%;font-family:Nunito;-inkscape-font-specification:Nunito;text-align:center;text-anchor:middle;fill:none;stroke:#00ff00;stroke-width:0.26458332px"
           id="path3393" />
        <path
           d="m -92.721392,38.284942 q 0,0.23151 -0.08268,0.405143 -0.08268,0.173633 -0.223242,0.289388 -0.132292,0.115755 -0.314193,0.173633 -0.173633,0.05788 -0.355534,0.05788 -0.173633,0 -0.347265,-0.04961 -0.165365,-0.05788 -0.305925,-0.165365 -0.132292,-0.115755 -0.214974,-0.272851 -0.08268,-0.165365 -0.09095,-0.388607 v -0.620117 q -0.165365,0.305924 -0.454753,0.620117 -0.289388,0.314193 -0.661458,0.537435 -0.37207,0.214974 -0.802018,0.330729 -0.42168,0.107487 -0.851628,0.107487 -0.578776,0 -1.107943,-0.181901 -0.529166,-0.190169 -0.934309,-0.578776 -0.396875,-0.388607 -0.636654,-0.983919 -0.23151,-0.595313 -0.23151,-1.380794 v -4.316016 q 0,-0.23151 0.0827,-0.405143 0.0827,-0.173633 0.21498,-0.289388 0.140556,-0.124023 0.314188,-0.181901 0.173633,-0.05788 0.355534,-0.05788 0.181901,0 0.355534,0.05788 0.181901,0.05788 0.314193,0.181901 0.14056,0.115755 0.223242,0.289388 0.08268,0.173633 0.08268,0.405143 v 4.349088 q 0,0.438217 0.132292,0.785482 0.132292,0.347266 0.355534,0.578776 0.223242,0.231511 0.520898,0.347266 0.297656,0.107487 0.620117,0.107487 0.413412,0 0.785482,-0.124024 0.37207,-0.132291 0.65319,-0.388606 0.28112,-0.264584 0.454753,-0.603581 0.181901,-0.347266 0.214974,-0.876432 v -4.183724 q 0,-0.23151 0.08268,-0.405143 0.08268,-0.173633 0.214974,-0.289388 0.14056,-0.115755 0.314193,-0.173633 0.173632,-0.05788 0.355533,-0.05788 0.181901,0 0.355534,0.05788 0.173633,0.05788 0.305925,0.173633 0.14056,0.115755 0.223242,0.289388 0.08268,0.173633 0.08268,0.405143 z"
           style="font-style:normal;font-variant:normal;font-weight:normal;font-stretch:normal;font-size:16.93333244px;line-height:150%;font-family:Nunito;-inkscape-font-specification:Nunito;text-align:center;text-anchor:middle;fill:none;stroke:#00ff00;stroke-width:0.26458332px"
           id="path3395" />
        <path
           d="m -79.122637,33.977194 q 0,-0.471289 -0.132291,-0.818554 -0.132292,-0.347266 -0.355534,-0.578776 -0.223242,-0.231511 -0.520899,-0.338998 -0.289388,-0.115755 -0.60358,-0.115755 -0.396875,0 -0.777214,0.124024 -0.37207,0.124023 -0.669726,0.396875 -0.297657,0.272851 -0.479558,0.702799 -0.173632,0.429948 -0.173632,1.050065 v 3.877799 q 0,0.231511 -0.08268,0.405144 -0.08268,0.173632 -0.223242,0.297656 -0.132292,0.115755 -0.314193,0.173633 -0.173632,0.05788 -0.355533,0.05788 -0.181901,0 -0.355534,-0.05788 -0.165365,-0.05788 -0.305925,-0.173633 -0.132291,-0.124024 -0.214974,-0.297656 -0.08268,-0.173633 -0.08268,-0.405144 v -4.299479 q 0,-0.471289 -0.14056,-0.818554 -0.132291,-0.347266 -0.355534,-0.578776 -0.223242,-0.231511 -0.520898,-0.338998 -0.289388,-0.115755 -0.603581,-0.115755 -0.429948,0 -0.810286,0.14056 -0.380339,0.14056 -0.661458,0.429948 -0.28112,0.28112 -0.446485,0.65319 -0.165364,0.37207 -0.165364,0.950846 v 3.985287 q 0,0.23151 -0.09095,0.405143 -0.08268,0.173633 -0.223242,0.289388 -0.132292,0.115755 -0.314193,0.173633 -0.173633,0.05788 -0.355534,0.05788 -0.181901,0 -0.355533,-0.05788 -0.165365,-0.05788 -0.305925,-0.173633 -0.132292,-0.115755 -0.214974,-0.289388 -0.08268,-0.173633 -0.08268,-0.405143 v -6.440951 q 0,-0.223242 0.08268,-0.396875 0.08268,-0.173632 0.214974,-0.281119 0.14056,-0.115755 0.314193,-0.173633 0.181901,-0.05788 0.363802,-0.05788 0.173633,0 0.338997,0.05788 0.165365,0.04961 0.297656,0.157096 0.14056,0.09922 0.223243,0.264584 0.08268,0.157096 0.09922,0.37207 0,0.0083 0,0.107487 0.0083,0.09922 0.0083,0.214974 0,0.115755 0,0.23151 0,0.107487 0,0.115755 0.157096,-0.305924 0.446484,-0.628385 0.289388,-0.322461 0.65319,-0.537435 0.37207,-0.223242 0.79375,-0.338997 0.429948,-0.115755 0.868164,-0.115755 0.446484,0 0.868164,0.115755 0.42168,0.107487 0.768945,0.338997 0.355534,0.231511 0.628386,0.587044 0.272851,0.355534 0.429948,0.851628 0.281119,-0.529167 0.620117,-0.884701 0.347265,-0.363802 0.727604,-0.587044 0.380338,-0.223242 0.785482,-0.322461 0.413411,-0.09922 0.826822,-0.09922 0.578776,0 1.099675,0.190169 0.520898,0.181901 0.917773,0.570508 0.396875,0.380338 0.628386,0.975651 0.23151,0.595312 0.23151,1.422135 v 4.291211 q 0,0.23151 -0.09095,0.405143 -0.08268,0.173633 -0.223243,0.289388 -0.132291,0.115755 -0.314192,0.173633 -0.173633,0.05788 -0.355534,0.05788 -0.181901,0 -0.355534,-0.05788 -0.165365,-0.05788 -0.305924,-0.173633 -0.132292,-0.115755 -0.214974,-0.289388 -0.08268,-0.173633 -0.08268,-0.405143 z"
           style="font-style:normal;font-variant:normal;font-weight:normal;font-stretch:normal;font-size:16.93333244px;line-height:150%;font-family:Nunito;-inkscape-font-specification:Nunito;text-align:center;text-anchor:middle;fill:none;stroke:#00ff00;stroke-width:0.26458332px"
           id="path3397" />
        <path
           d="m -73.043836,32.431036 q 0.223243,-0.338998 0.537435,-0.65319 0.314193,-0.314193 0.686263,-0.520899 0.380339,-0.214974 0.802019,-0.314192 0.429947,-0.107487 0.876432,-0.107487 0.851627,0 1.488281,0.355533 0.644922,0.355534 1.066601,0.959115 0.429948,0.603581 0.636654,1.397331 0.214974,0.785481 0.214974,1.579231 0,0.79375 -0.23151,1.579232 -0.223243,0.785482 -0.661459,1.364258 -0.438216,0.578776 -1.083138,0.909505 -0.636653,0.330729 -1.471744,0.330729 -0.42168,0 -0.835091,-0.09922 -0.413412,-0.107487 -0.785482,-0.314192 -0.37207,-0.206706 -0.694531,-0.512631 -0.314193,-0.314192 -0.545704,-0.620117 v 3.695898 q 0,0.223243 -0.08268,0.396875 -0.08268,0.173633 -0.223242,0.28112 -0.132292,0.115755 -0.305924,0.173633 -0.173633,0.05788 -0.355534,0.05788 -0.181901,0 -0.355534,-0.05788 -0.173633,-0.05788 -0.314193,-0.173633 -0.132291,-0.107487 -0.214974,-0.28112 -0.08268,-0.173632 -0.08268,-0.396875 V 31.85226 q 0,-0.231511 0.08268,-0.396875 0.08268,-0.173633 0.214974,-0.289388 0.132292,-0.115755 0.297656,-0.173633 0.173633,-0.05788 0.355534,-0.05788 0.173633,0 0.338998,0.05788 0.165364,0.04961 0.297656,0.157096 0.14056,0.09922 0.23151,0.256315 0.09095,0.157097 0.115755,0.363802 z m 0.0083,2.670638 q 0,0.578776 0.115755,1.074869 0.124023,0.496094 0.388607,0.909505 0.264583,0.413412 0.686263,0.661459 0.429948,0.239778 1.041796,0.239778 0.611849,0 1.008724,-0.264583 0.405144,-0.264583 0.636654,-0.694531 0.239779,-0.429948 0.330729,-0.975651 0.09095,-0.545703 0.09095,-0.983919 0,-0.454753 -0.09095,-0.992188 -0.09095,-0.537435 -0.322461,-0.967383 -0.23151,-0.438216 -0.628385,-0.711067 -0.396875,-0.272852 -1.008724,-0.272852 -0.669727,0 -1.107943,0.223242 -0.429948,0.214974 -0.686263,0.620118 -0.248047,0.396875 -0.355534,0.909505 -0.09922,0.504362 -0.09922,1.223698 z"
           style="font-style:normal;font-variant:normal;font-weight:normal;font-stretch:normal;font-size:16.93333244px;line-height:150%;font-family:Nunito;-inkscape-font-specification:Nunito;text-align:center;text-anchor:middle;fill:none;stroke:#00ff00;stroke-width:0.26458332px"
           id="path3399" />
        <path
           d="m -57.142376,34.804017 q 0,0.223243 -0.148828,0.396875 -0.14056,0.165365 -0.438216,0.165365 h -5.630664 q 0.07441,1.198893 0.735872,1.860351 0.669727,0.661459 1.761133,0.661459 0.669727,0 1.265039,-0.19017 0.595312,-0.190169 1.21543,-0.504362 0.148828,-0.07441 0.281119,-0.07441 0.223243,0 0.355534,0.165365 0.14056,0.165365 0.14056,0.380339 0,0.09095 -0.03307,0.198437 -0.0248,0.09922 -0.09095,0.190169 -0.264584,0.338998 -0.65319,0.578776 -0.380339,0.239779 -0.826823,0.388607 -0.446485,0.148828 -0.926042,0.214974 -0.471289,0.07441 -0.917773,0.07441 -0.901237,0 -1.678451,-0.297656 -0.777213,-0.297656 -1.355989,-0.859896 -0.570508,-0.570508 -0.901237,-1.397331 -0.322461,-0.835091 -0.322461,-1.719791 0,-0.752409 0.305924,-1.529623 0.305925,-0.777213 0.835092,-1.355989 0.537434,-0.578776 1.281575,-0.942578 0.752409,-0.37207 1.744596,-0.37207 1.016992,0 1.752865,0.32246 0.74414,0.322461 1.231966,0.859896 0.496094,0.537435 0.74414,1.289844 0.256315,0.744141 0.272852,1.496549 z m -1.719792,-0.429948 q -0.03307,-0.396875 -0.190169,-0.843359 -0.157096,-0.446484 -0.446484,-0.760677 -0.28112,-0.322461 -0.694531,-0.479557 -0.405144,-0.165365 -0.93431,-0.165365 -0.479558,0 -0.876433,0.173633 -0.388606,0.173633 -0.677994,0.504362 -0.28112,0.330729 -0.454753,0.768945 -0.173633,0.438216 -0.206706,0.802018 z"
           style="font-style:normal;font-variant:normal;font-weight:normal;font-stretch:normal;font-size:16.93333244px;line-height:150%;font-family:Nunito;-inkscape-font-specification:Nunito;text-align:center;text-anchor:middle;fill:none;stroke:#00ff00;stroke-width:0.26458332px"
           id="path3401" />
        <path
           d="m -55.263835,31.843991 q 0,-0.223242 0.08268,-0.396875 0.09095,-0.173632 0.223243,-0.281119 0.140559,-0.115755 0.314192,-0.173633 0.181901,-0.05788 0.363802,-0.05788 0.173633,0 0.338998,0.05788 0.165364,0.04961 0.297656,0.157096 0.132292,0.09922 0.214974,0.264584 0.09095,0.157096 0.09922,0.37207 0,0.0083 0,0.107487 0.0083,0.09922 0.0083,0.23151 0,0.124024 0,0.223242 0,0.09922 0,0.107487 0.190169,-0.702799 0.727604,-1.157552 0.537435,-0.46302 1.438672,-0.46302 0.206706,0 0.363802,0.07441 0.165364,0.06614 0.272851,0.173632 0.107487,0.107487 0.157097,0.248047 0.05788,0.14056 0.05788,0.289388 0,0.148828 -0.05788,0.289388 -0.04961,0.14056 -0.165365,0.256315 -0.107487,0.107487 -0.28112,0.181901 -0.165364,0.06615 -0.388606,0.06615 -0.479558,0 -0.876433,0.14056 -0.388606,0.14056 -0.669726,0.429948 -0.272852,0.28112 -0.429948,0.65319 -0.148828,0.37207 -0.148828,0.950846 v 3.704167 q 0,0.23151 -0.09095,0.405143 -0.08268,0.165365 -0.223242,0.28112 -0.132291,0.115755 -0.314192,0.173633 -0.173633,0.05788 -0.355534,0.05788 -0.181901,0 -0.355534,-0.05788 -0.165365,-0.05788 -0.305925,-0.165365 -0.132291,-0.115755 -0.214974,-0.289388 -0.08268,-0.173633 -0.08268,-0.405143 z"
           style="font-style:normal;font-variant:normal;font-weight:normal;font-stretch:normal;font-size:16.93333244px;line-height:150%;font-family:Nunito;-inkscape-font-specification:Nunito;text-align:center;text-anchor:middle;fill:none;stroke:#00ff00;stroke-width:0.26458332px"
           id="path3403" />
        <path
           d="m -41.512118,29.363523 -2.546615,8.607226 q -0.06615,0.297656 -0.23151,0.529167 -0.165365,0.223242 -0.396875,0.388606 -0.23151,0.157097 -0.504362,0.239779 -0.264583,0.08268 -0.545703,0.08268 -0.256315,0 -0.504362,-0.07441 -0.239779,-0.07441 -0.446484,-0.223242 -0.206706,-0.148828 -0.363802,-0.380338 -0.157097,-0.239779 -0.231511,-0.56224 l -2.439127,-9.400976 q -0.03307,-0.124024 -0.03307,-0.264583 0,-0.223243 0.09922,-0.396875 0.09922,-0.181901 0.248046,-0.305925 0.157097,-0.124023 0.355534,-0.190169 0.198438,-0.07441 0.396875,-0.07441 0.305925,0 0.553972,0.173633 0.256315,0.165364 0.330729,0.545703 l 2.199349,9.210807 2.621028,-8.764323 q 0.06615,-0.297656 0.206706,-0.520898 0.148828,-0.223243 0.338997,-0.372071 0.198438,-0.148828 0.429948,-0.223242 0.23151,-0.07441 0.471289,-0.07441 0.239779,0 0.471289,0.07441 0.231511,0.07441 0.429948,0.223242 0.198438,0.148828 0.347266,0.372071 0.148828,0.223242 0.214974,0.520898 l 2.720247,8.747786 2.174544,-9.177734 q 0.07441,-0.396875 0.330729,-0.570508 0.264583,-0.181901 0.570508,-0.181901 0.190169,0 0.37207,0.06615 0.190169,0.06615 0.338998,0.190169 0.148828,0.115756 0.239778,0.289388 0.09095,0.165365 0.09095,0.380339 0,0.132292 -0.03307,0.256315 l -2.472201,9.467122 q -0.07441,0.314193 -0.239778,0.553971 -0.165365,0.231511 -0.388607,0.396875 -0.214974,0.157097 -0.479557,0.239779 -0.256315,0.08268 -0.520899,0.08268 -0.264583,0 -0.520898,-0.07441 -0.248047,-0.08268 -0.463021,-0.239779 -0.214974,-0.165364 -0.37207,-0.396874 -0.157096,-0.239779 -0.231511,-0.56224 z"
           style="font-style:normal;font-variant:normal;font-weight:normal;font-stretch:normal;font-size:16.93333244px;line-height:150%;font-family:Nunito;-inkscape-font-specification:Nunito;text-align:center;text-anchor:middle;fill:none;stroke:#00ff00;stroke-width:0.26458332px"
           id="path3405" />
        <path
           d="m -29.385104,28.189434 q 0,0.405144 -0.322461,0.669727 -0.322461,0.256315 -0.826823,0.256315 -0.248047,0 -0.463021,-0.06615 -0.206706,-0.07441 -0.363802,-0.198437 -0.148828,-0.124024 -0.239779,-0.289388 -0.08268,-0.173633 -0.08268,-0.372071 0,-0.198437 0.08268,-0.363802 0.09095,-0.173632 0.239779,-0.297656 0.157096,-0.124023 0.37207,-0.190169 0.214974,-0.07441 0.463021,-0.07441 0.248047,0 0.454753,0.07441 0.214974,0.06615 0.363802,0.190169 0.148828,0.124024 0.23151,0.297656 0.09095,0.165365 0.09095,0.363802 z m -2.116667,3.704167 q 0,-0.239779 0.08268,-0.413412 0.08268,-0.181901 0.214974,-0.297656 0.14056,-0.124023 0.314193,-0.181901 0.181901,-0.06615 0.363802,-0.06615 0.181901,0 0.355534,0.06615 0.173633,0.05788 0.305924,0.181901 0.14056,0.115755 0.223242,0.297656 0.08268,0.173633 0.08268,0.413412 v 6.358268 q 0,0.239778 -0.09095,0.421679 -0.08268,0.173633 -0.223242,0.297657 -0.132292,0.115755 -0.314193,0.181901 -0.173632,0.05788 -0.355533,0.05788 -0.181902,0 -0.355534,-0.05788 -0.173633,-0.05788 -0.305925,-0.173633 -0.132291,-0.124024 -0.214974,-0.305925 -0.08268,-0.181901 -0.08268,-0.421679 z"
           style="font-style:normal;font-variant:normal;font-weight:normal;font-stretch:normal;font-size:16.93333244px;line-height:150%;font-family:Nunito;-inkscape-font-specification:Nunito;text-align:center;text-anchor:middle;fill:none;stroke:#00ff00;stroke-width:0.26458332px"
           id="path3407" />
        <path
           d="m -27.237845,31.843991 q 0,-0.223242 0.08268,-0.396875 0.09095,-0.173632 0.223242,-0.281119 0.14056,-0.115755 0.314193,-0.173633 0.181901,-0.05788 0.363802,-0.05788 0.173633,0 0.338997,0.05788 0.165365,0.04961 0.297657,0.157096 0.132291,0.09922 0.214973,0.264584 0.09095,0.157096 0.09922,0.37207 0,0.0083 0,0.107487 0.0083,0.09922 0.0083,0.23151 0,0.124024 0,0.223242 0,0.09922 0,0.107487 0.19017,-0.702799 0.727605,-1.157552 0.537434,-0.46302 1.438671,-0.46302 0.206706,0 0.363802,0.07441 0.165365,0.06614 0.272852,0.173632 0.107487,0.107487 0.157096,0.248047 0.05788,0.14056 0.05788,0.289388 0,0.148828 -0.05788,0.289388 -0.04961,0.14056 -0.165364,0.256315 -0.107487,0.107487 -0.28112,0.181901 -0.165365,0.06615 -0.388607,0.06615 -0.479557,0 -0.876432,0.14056 -0.388607,0.14056 -0.669727,0.429948 -0.272851,0.28112 -0.429947,0.65319 -0.148829,0.37207 -0.148829,0.950846 v 3.704167 q 0,0.23151 -0.09095,0.405143 -0.08268,0.165365 -0.223242,0.28112 -0.132292,0.115755 -0.314193,0.173633 -0.173633,0.05788 -0.355534,0.05788 -0.181901,0 -0.355534,-0.05788 -0.165364,-0.05788 -0.305924,-0.165365 -0.132292,-0.115755 -0.214974,-0.289388 -0.08268,-0.173633 -0.08268,-0.405143 z"
           style="font-style:normal;font-variant:normal;font-weight:normal;font-stretch:normal;font-size:16.93333244px;line-height:150%;font-family:Nunito;-inkscape-font-specification:Nunito;text-align:center;text-anchor:middle;fill:none;stroke:#00ff00;stroke-width:0.26458332px"
           id="path3409" />
        <path
           d="m -13.233952,34.804017 q 0,0.223243 -0.148828,0.396875 -0.14056,0.165365 -0.438216,0.165365 h -5.630664 q 0.07441,1.198893 0.735873,1.860351 0.669726,0.661459 1.761132,0.661459 0.669727,0 1.265039,-0.19017 0.595313,-0.190169 1.21543,-0.504362 0.148828,-0.07441 0.28112,-0.07441 0.223242,0 0.355534,0.165365 0.14056,0.165365 0.14056,0.380339 0,0.09095 -0.03307,0.198437 -0.0248,0.09922 -0.09095,0.190169 -0.264583,0.338998 -0.65319,0.578776 -0.380339,0.239779 -0.826823,0.388607 -0.446484,0.148828 -0.926041,0.214974 -0.47129,0.07441 -0.917774,0.07441 -0.901237,0 -1.67845,-0.297656 -0.777214,-0.297656 -1.35599,-0.859896 -0.570508,-0.570508 -0.901237,-1.397331 -0.322461,-0.835091 -0.322461,-1.719791 0,-0.752409 0.305925,-1.529623 0.305924,-0.777213 0.835091,-1.355989 0.537435,-0.578776 1.281575,-0.942578 0.752409,-0.37207 1.744597,-0.37207 1.016992,0 1.752864,0.32246 0.744141,0.322461 1.231966,0.859896 0.496094,0.537435 0.744141,1.289844 0.256315,0.744141 0.272851,1.496549 z m -1.719791,-0.429948 q -0.03307,-0.396875 -0.19017,-0.843359 -0.157096,-0.446484 -0.446484,-0.760677 -0.28112,-0.322461 -0.694531,-0.479557 -0.405143,-0.165365 -0.93431,-0.165365 -0.479557,0 -0.876432,0.173633 -0.388607,0.173633 -0.677995,0.504362 -0.28112,0.330729 -0.454753,0.768945 -0.173632,0.438216 -0.206705,0.802018 z"
           style="font-style:normal;font-variant:normal;font-weight:normal;font-stretch:normal;font-size:16.93333244px;line-height:150%;font-family:Nunito;-inkscape-font-specification:Nunito;text-align:center;text-anchor:middle;fill:none;stroke:#00ff00;stroke-width:0.26458332px"
           id="path3411" />
        <path
           d="m -72.427025,61.915539 3.348633,-7.581965 q 0.190169,-0.471289 0.380339,-0.777214 0.190169,-0.314193 0.405143,-0.496094 0.214974,-0.190169 0.463021,-0.264583 0.256315,-0.07441 0.578776,-0.07441 0.314192,0 0.595312,0.09922 0.289388,0.09922 0.504362,0.314192 0.223242,0.214974 0.347266,0.553972 0.132291,0.338997 0.132291,0.818554 v 9.144661 q 0,0.239779 -0.08268,0.42168 -0.07441,0.173633 -0.206706,0.297656 -0.132291,0.115756 -0.305924,0.181901 -0.165365,0.05788 -0.338998,0.05788 -0.173632,0 -0.338997,-0.05788 -0.157096,-0.06615 -0.289388,-0.181901 -0.132292,-0.124023 -0.214974,-0.297656 -0.07441,-0.181901 -0.07441,-0.42168 v -8.797395 l -3.662825,8.408789 q -0.08268,0.23151 -0.223242,0.405143 -0.132292,0.173633 -0.305925,0.297656 -0.173633,0.115755 -0.37207,0.181901 -0.19017,0.05788 -0.388607,0.05788 -0.380339,0 -0.727604,-0.223242 -0.338998,-0.231511 -0.51263,-0.719336 l -3.654557,-8.35918 v 8.747786 q 0,0.239779 -0.08268,0.42168 -0.07441,0.173633 -0.206705,0.297656 -0.132292,0.115756 -0.297657,0.181901 -0.165364,0.05788 -0.338997,0.05788 -0.173633,0 -0.338997,-0.05788 -0.165365,-0.06615 -0.297657,-0.181901 -0.124023,-0.124023 -0.206705,-0.297656 -0.07441,-0.181901 -0.07441,-0.42168 v -9.144661 q 0,-0.479557 0.124023,-0.818554 0.132292,-0.338998 0.355534,-0.553972 0.223242,-0.214973 0.51263,-0.314192 0.289388,-0.09922 0.611849,-0.09922 0.322461,0 0.578776,0.08268 0.256315,0.07441 0.471289,0.264584 0.223242,0.181901 0.413411,0.496093 0.19017,0.314193 0.380339,0.785482 l 3.290755,7.565429 z"
           style="font-style:normal;font-variant:normal;font-weight:normal;font-stretch:normal;font-size:16.93333244px;line-height:150%;font-family:Nunito;-inkscape-font-specification:Nunito;text-align:center;text-anchor:middle;fill:none;stroke:#00ff00;stroke-width:0.26458332px"
           id="path3413" />
        <path
           d="m -62.850762,65.313781 q -0.09095,0.256315 -0.272851,0.372071 -0.173633,0.115755 -0.380339,0.115755 -0.132291,0 -0.264583,-0.04961 -0.124023,-0.04134 -0.223242,-0.132292 -0.09922,-0.08268 -0.157097,-0.206706 -0.06614,-0.124023 -0.06614,-0.28112 0,-0.05788 0.0083,-0.124023 0.0083,-0.06615 0.03307,-0.132292 l 3.910872,-11.749153 q 0.09095,-0.264583 0.28112,-0.380338 0.190169,-0.115755 0.396875,-0.115755 0.132291,0 0.256315,0.04961 0.132292,0.04134 0.23151,0.132292 0.09922,0.08268 0.157097,0.206705 0.06614,0.124024 0.06614,0.28112 0,0.06615 -0.0083,0.132292 -0.0083,0.06615 -0.03307,0.132291 z"
           style="font-style:normal;font-variant:normal;font-weight:normal;font-stretch:normal;font-size:16.93333244px;line-height:150%;font-family:Nunito;-inkscape-font-specification:Nunito;text-align:center;text-anchor:middle;fill:none;stroke:#00ff00;stroke-width:0.26458332px"
           id="path3415" />
        <path
           d="m -50.612129,61.915539 3.348633,-7.581965 q 0.190169,-0.471289 0.380338,-0.777214 0.190169,-0.314193 0.405143,-0.496094 0.214974,-0.190169 0.463021,-0.264583 0.256315,-0.07441 0.578776,-0.07441 0.314193,0 0.595313,0.09922 0.289388,0.09922 0.504362,0.314192 0.223242,0.214974 0.347265,0.553972 0.132292,0.338997 0.132292,0.818554 v 9.144661 q 0,0.239779 -0.08268,0.42168 -0.07441,0.173633 -0.206706,0.297656 -0.132292,0.115756 -0.305925,0.181901 -0.165364,0.05788 -0.338997,0.05788 -0.173633,0 -0.338997,-0.05788 -0.157097,-0.06615 -0.289388,-0.181901 -0.132292,-0.124023 -0.214974,-0.297656 -0.07441,-0.181901 -0.07441,-0.42168 v -8.797395 l -3.662826,8.408789 q -0.08268,0.23151 -0.223242,0.405143 -0.132292,0.173633 -0.305924,0.297656 -0.173633,0.115755 -0.372071,0.181901 -0.190169,0.05788 -0.388606,0.05788 -0.380339,0 -0.727604,-0.223242 -0.338998,-0.231511 -0.512631,-0.719336 l -3.654557,-8.35918 v 8.747786 q 0,0.239779 -0.08268,0.42168 -0.07441,0.173633 -0.206706,0.297656 -0.132291,0.115756 -0.297656,0.181901 -0.165365,0.05788 -0.338997,0.05788 -0.173633,0 -0.338998,-0.05788 -0.165364,-0.06615 -0.297656,-0.181901 -0.124023,-0.124023 -0.206706,-0.297656 -0.07441,-0.181901 -0.07441,-0.42168 v -9.144661 q 0,-0.479557 0.124024,-0.818554 0.132291,-0.338998 0.355533,-0.553972 0.223243,-0.214973 0.512631,-0.314192 0.289388,-0.09922 0.611849,-0.09922 0.322461,0 0.578776,0.08268 0.256315,0.07441 0.471289,0.264584 0.223242,0.181901 0.413411,0.496093 0.190169,0.314193 0.380339,0.785482 l 3.290755,7.565429 z"
           style="font-style:normal;font-variant:normal;font-weight:normal;font-stretch:normal;font-size:16.93333244px;line-height:150%;font-family:Nunito;-inkscape-font-specification:Nunito;text-align:center;text-anchor:middle;fill:none;stroke:#00ff00;stroke-width:0.26458332px"
           id="path3417" />
      </g>
      <g
         transform="rotate(-90,-28.086429,79.128095)"
         id="g701">
        <g
           id="g511"
           transform="translate(24.436688,99.029767)">
          <path
             style="color:#000000;clip-rule:nonzero;display:inline;overflow:visible;visibility:visible;opacity:1;isolation:auto;mix-blend-mode:normal;color-interpolation:sRGB;color-interpolation-filters:linearRGB;solid-color:#000000;solid-opacity:1;fill:none;fill-opacity:1;fill-rule:nonzero;stroke:#00ff00;stroke-width:0.80000001;stroke-miterlimit:4;stroke-dasharray:none;stroke-opacity:1;color-rendering:auto;image-rendering:auto;shape-rendering:auto;text-rendering:auto;enable-background:accumulate"
             d="m -67.791977,53.677826 h 20.939955 v 3.401786 h -20.939955 z"
             id="rect493" />
          <path
             transform="matrix(1.1804603,0,0,1.1804603,29.858107,-3.8586044)"
             style="fill:none;fill-rule:evenodd;stroke:#00ff00;stroke-width:0.22413571px;stroke-linecap:butt;stroke-linejoin:miter;stroke-opacity:1"
             d="m -82.722036,50.181544 c -2.443332,0 -4.886929,0 -7.330789,0"
             id="path499" />
        </g>
        <g
           id="g517"
           transform="rotate(180,-22.801677,104.23214)">
          <path
             style="color:#000000;clip-rule:nonzero;display:inline;overflow:visible;visibility:visible;opacity:1;isolation:auto;mix-blend-mode:normal;color-interpolation:sRGB;color-interpolation-filters:linearRGB;solid-color:#000000;solid-opacity:1;fill:none;fill-opacity:1;fill-rule:nonzero;stroke:#00ff00;stroke-width:0.80000001;stroke-miterlimit:4;stroke-dasharray:none;stroke-opacity:1;color-rendering:auto;image-rendering:auto;shape-rendering:auto;text-rendering:auto;enable-background:accumulate"
             d="m -67.791977,53.677826 h 20.939955 v 3.401786 h -20.939955 z"
             id="rect513" />
          <path
             transform="matrix(1.1804603,0,0,1.1804603,29.858107,-3.8586044)"
             style="fill:none;fill-rule:evenodd;stroke:#00ff00;stroke-width:0.22413571px;stroke-linecap:butt;stroke-linejoin:miter;stroke-opacity:1"
             d="m -82.722036,50.181544 c -2.443332,0 -4.886929,0 -7.330789,0"
             id="path515" />
        </g>
        <path
           transform="matrix(0.65197604,0,0,1,8.0872051,97.971434)"
           style="fill:#000000;fill-rule:nonzero;stroke:#00ff00;stroke-width:0.32767752px;stroke-linecap:butt;stroke-linejoin:miter;stroke-opacity:1"
           d="m -46.852019,57.079612 c 0,0 0.126022,0.04024 0.126022,0.04024 0.136595,-0.427756 0.336859,-0.827748 0.625031,-1.171582 0.243785,-0.290873 0.54635,-0.536723 0.91892,-0.728328 0.649414,-0.333981 1.473878,-0.484321 2.481669,-0.465985 0.890276,0.0162 1.844075,0.161322 2.832731,0.361108 0.902894,0.182455 1.793647,0.404192 2.54341,0.550054 2.507445,0.743307 5.283517,1.556511 8.020049,1.801397 2.774008,0.248239 5.444225,-0.08955 7.933849,-1.493482 0.904081,-0.44275 1.810229,-0.668634 2.688077,-0.781091 0.937011,-0.120036 1.877452,-0.113819 2.73804,-0.08361 2.598344,0.09121 3.779194,0.231451 5.455278,-0.107605 -1.664476,0.336708 -2.868945,0.190028 -5.45415,0.07879 -0.860204,-0.03701 -1.803675,-0.05148 -2.745571,0.06058 -0.882772,0.105019 -1.798597,0.323817 -2.717682,0.763886 -2.481672,1.379546 -5.13372,1.695878 -7.885605,1.430805 -2.718257,-0.261834 -5.475393,-1.088597 -7.987111,-1.850591 -0.748602,-0.155261 -1.638545,-0.385599 -2.54562,-0.577089 -0.99136,-0.209284 -1.95999,-0.365204 -2.870479,-0.388847 -1.030404,-0.02676 -1.901217,0.119546 -2.60272,0.474559 -0.403929,0.204419 -0.735461,0.47007 -1.003259,0.786946 -0.316025,0.373941 -0.532032,0.805927 -0.676901,1.259599 0,0 0.126022,0.04024 0.126022,0.04024 z"
           id="path519" />
      </g>
    </g>
  </g>
  <g
     id="g336"
     inkscape:groupmode="layer"
     inkscape:label="newlayer" />
</svg>
