  0
SECTION
  2
HEADER
  9
$ACADVER
  1
AC1014
  9
$HANDSEED
  5
FFFF
  9
$MEASUREMENT
 70
     1
  0
ENDSEC
  0
SECTION
  2
TABLES
  0
TABLE
  2
VPORT
  5
8
330
0
100
AcDbSymbolTable
 70
     4
  0
VPORT
  5
2E
330
8
100
AcDbSymbolTableRecord
100
AcDbViewportTableRecord
  2
*ACTIVE
 70
     0
 10
0.0
 20
0.0
 11
1.0
 21
1.0
 12
210.0
 22
148.5
 13
0.0
 23
0.0
 14
10.0
 24
10.0
 15
10.0
 25
10.0
 16
0.0
 26
0.0
 36
1.0
 17
0.0
 27
0.0
 37
0.0
 40
341.0
 41
1.24
 42
50.0
 43
0.0
 44
0.0
 50
0.0
 51
0.0
 71
     0
 72
   100
 73
     1
 74
     3
 75
     0
 76
     0
 77
     0
 78
     0
  0
ENDTAB
  0
TABLE
  2
LTYPE
  5
5
330
0
100
AcDbSymbolTable
 70
     1
  0
LTYPE
  5
14
330
5
100
AcDbSymbolTableRecord
100
AcDbLinetypeTableRecord
  2
BYBLOCK
 70
     0
  3

 72
    65
 73
     0
 40
0.0
  0
LTYPE
  5
15
330
5
100
AcDbSymbolTableRecord
100
AcDbLinetypeTableRecord
  2
BYLAYER
 70
     0
  3

 72
    65
 73
     0
 40
0.0
  0
LTYPE
  5
16
330
5
100
AcDbSymbolTableRecord
100
AcDbLinetypeTableRecord
  2
CONTINUOUS
 70
     0
  3
Solid line
 72
    65
 73
     0
 40
0.0
  0
ENDTAB
  0
TABLE
  2
LAYER
  5
2
100
AcDbSymbolTable
 70
3
  0
LAYER
  5
50
100
AcDbSymbolTableRecord
100
AcDbLayerTableRecord
  2
0
 70
0
  6
CONTINUOUS
  0
LAYER
  5
51
100
AcDbSymbolTableRecord
100
AcDbLayerTableRecord
  2
Layer_1
 70
0
  6
CONTINUOUS
  0
LAYER
  5
52
100
AcDbSymbolTableRecord
100
AcDbLayerTableRecord
  2
newlayer
 70
0
  6
CONTINUOUS
  0
ENDTAB
  0
TABLE
  2
STYLE
  5
3
330
0
100
AcDbSymbolTable
 70
     1
  0
STYLE
  5
11
330
3
100
AcDbSymbolTableRecord
100
AcDbTextStyleTableRecord
  2
STANDARD
 70
     0
 40
0.0
 41
1.0
 50
0.0
 71
     0
 42
2.5
  3
txt
  4

  0
ENDTAB
  0
TABLE
  2
VIEW
  5
6
330
0
100
AcDbSymbolTable
 70
     0
  0
ENDTAB
  0
TABLE
  2
UCS
  5
7
330
0
100
AcDbSymbolTable
 70
     0
  0
ENDTAB
  0
TABLE
  2
APPID
  5
9
330
0
100
AcDbSymbolTable
 70
     2
  0
APPID
  5
12
330
9
100
AcDbSymbolTableRecord
100
AcDbRegAppTableRecord
  2
ACAD
 70
     0
  0
ENDTAB
  0
TABLE
  2
DIMSTYLE
  5
A
330
0
100
AcDbSymbolTable
 70
     1
  0
DIMSTYLE
105
27
330
A
100
AcDbSymbolTableRecord
100
AcDbDimStyleTableRecord
  2
ISO-25
 70
     0
  3

  4

  5

  6

  7

 40
1.0
 41
2.5
 42
0.625
 43
3.75
 44
1.25
 45
0.0
 46
0.0
 47
0.0
 48
0.0
140
2.5
141
2.5
142
0.0
143
0.03937007874016
144
1.0
145
0.0
146
1.0
147
0.625
 71
     0
 72
     0
 73
     0
 74
     0
 75
     0
 76
     0
 77
     1
 78
     8
170
     0
171
     3
172
     1
173
     0
174
     0
175
     0
176
     0
177
     0
178
     0
270
     2
271
     2
272
     2
273
     2
274
     3
340
11
275
     0
280
     0
281
     0
282
     0
283
     0
284
     8
285
     0
286
     0
287
     3
288
     0
  0
ENDTAB
  0
TABLE
  2
BLOCK_RECORD
  5
1
330
0
100
AcDbSymbolTable
 70
     1
  0
BLOCK_RECORD
  5
1F
330
1
100
AcDbSymbolTableRecord
100
AcDbBlockTableRecord
  2
*MODEL_SPACE
  0
BLOCK_RECORD
  5
1B
330
1
100
AcDbSymbolTableRecord
100
AcDbBlockTableRecord
  2
*PAPER_SPACE
  0
ENDTAB
  0
ENDSEC
  0
SECTION
  2
BLOCKS
  0
BLOCK
  5
20
330
1F
100
AcDbEntity
  8
0
100
AcDbBlockBegin
  2
*MODEL_SPACE
 70
     0
 10
0.0
 20
0.0
 30
0.0
  3
*MODEL_SPACE
  1

  0
ENDBLK
  5
21
330
1F
100
AcDbEntity
  8
0
100
AcDbBlockEnd
  0
BLOCK
  5
1C
330
1B
100
AcDbEntity
 67
     1
  8
0
100
AcDbBlockBegin
  2
*PAPER_SPACE
  1

  0
ENDBLK
  5
1D
330
1B
100
AcDbEntity
 67
     1
  8
0
100
AcDbBlockEnd
  0
ENDSEC
  0
SECTION
  2
ENTITIES
  0
LWPOLYLINE
  5
100
100
AcDbEntity
  8
Layer_1
 62
7
100
AcDbPolyline
 90
24
 70
1
 10
3.970833
 20
291.375004
 30
0.0
 10
26.552500
 20
291.375004
 30
0.0
 10
26.552500
 20
295.375004
 30
0.0
 10
53.389166
 20
295.375004
 30
0.0
 10
53.389166
 20
291.375004
 30
0.0
 10
75.970833
 20
291.375004
 30
0.0
 10
75.970833
 20
271.460004
 30
0.0
 10
79.970833
 20
271.460004
 30
0.0
 10
79.970833
 20
247.290004
 30
0.0
 10
75.970833
 20
247.290004
 30
0.0
 10
75.970833
 20
223.460004
 30
0.0
 10
79.970833
 20
223.460004
 30
0.0
 10
79.970833
 20
199.290004
 30
0.0
 10
75.970833
 20
199.290004
 30
0.0
 10
75.970833
 20
179.375004
 30
0.0
 10
53.389166
 20
179.375004
 30
0.0
 10
53.389166
 20
175.375004
 30
0.0
 10
26.552500
 20
175.375004
 30
0.0
 10
26.552500
 20
179.375004
 30
0.0
 10
3.970833
 20
179.375004
 30
0.0
 10
14.554166
 20
199.290004
 30
0.0
 10
14.554166
 20
223.460004
 30
0.0
 10
14.554166
 20
247.290004
 30
0.0
 10
14.554166
 20
271.460004
 30
0.0
  0
LWPOLYLINE
  5
101
100
AcDbEntity
  8
Layer_1
 62
7
100
AcDbPolyline
 90
48
 70
1
 10
81.000000
 20
91.500000
 30
0.0
 10
102.453460
 20
91.500000
 30
0.0
 10
102.453460
 20
95.500000
 30
0.0
 10
124.161920
 20
95.500000
 30
0.0
 10
124.161920
 20
91.500000
 30
0.0
 10
145.530380
 20
91.500000
 30
0.0
 10
145.530380
 20
95.500000
 30
0.0
 10
167.238850
 20
95.500000
 30
0.0
 10
167.238850
 20
91.500000
 30
0.0
 10
188.607310
 20
91.500000
 30
0.0
 10
188.607310
 20
95.500000
 30
0.0
 10
210.315770
 20
95.500000
 30
0.0
 10
210.315770
 20
91.500000
 30
0.0
 10
231.684230
 20
91.500000
 30
0.0
 10
231.684230
 20
95.500000
 30
0.0
 10
253.392690
 20
95.500000
 30
0.0
 10
253.392690
 20
91.500000
 30
0.0
 10
274.761150
 20
91.500000
 30
0.0
 10
274.761150
 20
95.500000
 30
0.0
 10
296.469620
 20
95.500000
 30
0.0
 10
296.469620
 20
91.500000
 30
0.0
 10
317.838080
 20
91.500000
 30
0.0
 10
317.838080
 20
95.500000
 30
0.0
 10
339.546540
 20
95.500000
 30
0.0
 10
339.546540
 20
91.500000
 30
0.0
 10
361.000000
 20
91.500000
 30
0.0
 10
361.000000
 20
68.748330
 30
0.0
 10
357.000000
 20
68.748330
 30
0.0
 10
357.000000
 20
42.251670
 30
0.0
 10
361.000000
 20
42.251670
 30
0.0
 10
361.000000
 20
19.500000
 30
0.0
 10
339.546540
 20
19.500000
 30
0.0
 10
317.838080
 20
19.500000
 30
0.0
 10
296.469620
 20
19.500000
 30
0.0
 10
274.761150
 20
19.500000
 30
0.0
 10
253.392690
 20
19.500000
 30
0.0
 10
231.684230
 20
19.500000
 30
0.0
 10
210.315770
 20
19.500000
 30
0.0
 10
188.607310
 20
19.500000
 30
0.0
 10
167.238850
 20
19.500000
 30
0.0
 10
145.530380
 20
19.500000
 30
0.0
 10
124.161920
 20
19.500000
 30
0.0
 10
102.453460
 20
19.500000
 30
0.0
 10
81.000000
 20
19.500000
 30
0.0
 10
81.000000
 20
42.251670
 30
0.0
 10
85.000000
 20
42.251670
 30
0.0
 10
85.000000
 20
68.748330
 30
0.0
 10
81.000000
 20
68.748330
 30
0.0
  0
LWPOLYLINE
  5
102
100
AcDbEntity
  8
Layer_1
 62
7
100
AcDbPolyline
 90
68
 70
1
 10
81.000000
 20
216.000000
 30
0.0
 10
102.623460
 20
216.000000
 30
0.0
 10
102.623460
 20
212.000000
 30
0.0
 10
123.991920
 20
212.000000
 30
0.0
 10
123.991920
 20
216.000000
 30
0.0
 10
145.700380
 20
216.000000
 30
0.0
 10
145.700380
 20
212.000000
 30
0.0
 10
167.068850
 20
212.000000
 30
0.0
 10
167.068850
 20
216.000000
 30
0.0
 10
188.777310
 20
216.000000
 30
0.0
 10
188.777310
 20
212.000000
 30
0.0
 10
210.145770
 20
212.000000
 30
0.0
 10
210.145770
 20
216.000000
 30
0.0
 10
231.854230
 20
216.000000
 30
0.0
 10
231.854230
 20
212.000000
 30
0.0
 10
253.222690
 20
212.000000
 30
0.0
 10
253.222690
 20
216.000000
 30
0.0
 10
274.931150
 20
216.000000
 30
0.0
 10
274.931150
 20
212.000000
 30
0.0
 10
296.299620
 20
212.000000
 30
0.0
 10
296.299620
 20
216.000000
 30
0.0
 10
318.008080
 20
216.000000
 30
0.0
 10
318.008080
 20
212.000000
 30
0.0
 10
339.376540
 20
212.000000
 30
0.0
 10
339.376540
 20
216.000000
 30
0.0
 10
361.000000
 20
216.000000
 30
0.0
 10
361.000000
 20
191.915000
 30
0.0
 10
357.000000
 20
191.915000
 30
0.0
 10
357.000000
 20
168.085000
 30
0.0
 10
361.000000
 20
168.085000
 30
0.0
 10
361.000000
 20
143.915000
 30
0.0
 10
357.000000
 20
143.915000
 30
0.0
 10
357.000000
 20
120.085000
 30
0.0
 10
361.000000
 20
120.085000
 30
0.0
 10
361.000000
 20
96.000000
 30
0.0
 10
339.376540
 20
96.000000
 30
0.0
 10
339.376540
 20
100.000000
 30
0.0
 10
318.008080
 20
100.000000
 30
0.0
 10
318.008080
 20
96.000000
 30
0.0
 10
296.299620
 20
96.000000
 30
0.0
 10
296.299620
 20
100.000000
 30
0.0
 10
274.931150
 20
100.000000
 30
0.0
 10
274.931150
 20
96.000000
 30
0.0
 10
253.222690
 20
96.000000
 30
0.0
 10
253.222690
 20
100.000000
 30
0.0
 10
231.854230
 20
100.000000
 30
0.0
 10
231.854230
 20
96.000000
 30
0.0
 10
210.145770
 20
96.000000
 30
0.0
 10
210.145770
 20
100.000000
 30
0.0
 10
188.777310
 20
100.000000
 30
0.0
 10
188.777310
 20
96.000000
 30
0.0
 10
167.068850
 20
96.000000
 30
0.0
 10
167.068850
 20
100.000000
 30
0.0
 10
145.700380
 20
100.000000
 30
0.0
 10
145.700380
 20
96.000000
 30
0.0
 10
123.991920
 20
96.000000
 30
0.0
 10
123.991920
 20
100.000000
 30
0.0
 10
102.623460
 20
100.000000
 30
0.0
 10
102.623460
 20
96.000000
 30
0.0
 10
81.000000
 20
96.000000
 30
0.0
 10
81.000000
 20
120.085000
 30
0.0
 10
85.000000
 20
120.085000
 30
0.0
 10
85.000000
 20
143.915000
 30
0.0
 10
81.000000
 20
143.915000
 30
0.0
 10
81.000000
 20
168.085000
 30
0.0
 10
85.000000
 20
168.085000
 30
0.0
 10
85.000000
 20
191.915000
 30
0.0
 10
81.000000
 20
191.915000
 30
0.0
  0
LWPOLYLINE
  5
103
100
AcDbEntity
  8
Layer_1
 62
7
100
AcDbPolyline
 90
24
 70
1
 10
4.000070
 20
169.787503
 30
0.0
 10
26.581740
 20
169.787503
 30
0.0
 10
26.581740
 20
173.787503
 30
0.0
 10
53.418400
 20
173.787503
 30
0.0
 10
53.418400
 20
169.787503
 30
0.0
 10
76.000070
 20
169.787503
 30
0.0
 10
76.000070
 20
149.872503
 30
0.0
 10
80.000070
 20
149.872503
 30
0.0
 10
80.000070
 20
125.702503
 30
0.0
 10
76.000070
 20
125.702503
 30
0.0
 10
76.000070
 20
101.872503
 30
0.0
 10
80.000070
 20
101.872503
 30
0.0
 10
80.000070
 20
77.702503
 30
0.0
 10
76.000070
 20
77.702503
 30
0.0
 10
76.000070
 20
57.787503
 30
0.0
 10
53.418400
 20
57.787503
 30
0.0
 10
53.418400
 20
53.787503
 30
0.0
 10
26.581740
 20
53.787503
 30
0.0
 10
26.581740
 20
57.787503
 30
0.0
 10
4.000070
 20
57.787503
 30
0.0
 10
4.000070
 20
77.702503
 30
0.0
 10
4.000070
 20
101.872503
 30
0.0
 10
4.000070
 20
125.702503
 30
0.0
 10
4.000070
 20
149.872503
 30
0.0
  0
SPLINE
  5
104
100
AcDbEntity
  8
Layer_1
 62
3
100
AcDbSpline
 70
8
 71
3
 72
8
 73
4
 74
0
 40
0
 40
0
 40
0
 40
0
 40
1
 40
1
 40
1
 40
1
 10
28.379604
 20
192.242550
 30
0.0
 10
28.203215
 20
192.242550
 30
0.0
 10
28.048874
 20
192.272883
 30
0.0
 10
27.916583
 20
192.333550
 30
0.0
  0
SPLINE
  5
105
100
AcDbEntity
  8
Layer_1
 62
3
100
AcDbSpline
 70
8
 71
3
 72
8
 73
4
 74
0
 40
0
 40
0
 40
0
 40
0
 40
1
 40
1
 40
1
 40
1
 10
27.916583
 20
192.333550
 30
0.0
 10
27.784291
 20
192.399683
 30
0.0
 10
27.674048
 20
192.485120
 30
0.0
 10
27.585854
 20
192.589860
 30
0.0
  0
SPLINE
  5
106
100
AcDbEntity
  8
Layer_1
 62
3
100
AcDbSpline
 70
8
 71
3
 72
8
 73
4
 74
0
 40
0
 40
0
 40
0
 40
0
 40
1
 40
1
 40
1
 40
1
 10
27.585854
 20
192.589860
 30
0.0
 10
27.497659
 20
192.694593
 30
0.0
 10
27.431513
 20
192.813107
 30
0.0
 10
27.387416
 20
192.945400
 30
0.0
  0
SPLINE
  5
107
100
AcDbEntity
  8
Layer_1
 62
3
100
AcDbSpline
 70
8
 71
3
 72
8
 73
4
 74
0
 40
0
 40
0
 40
0
 40
0
 40
1
 40
1
 40
1
 40
1
 10
27.387416
 20
192.945400
 30
0.0
 10
27.343316
 20
193.083200
 30
0.0
 10
27.321266
 20
193.221003
 30
0.0
 10
27.321266
 20
193.358810
 30
0.0
  0
SPLINE
  5
108
100
AcDbEntity
  8
Layer_1
 62
3
100
AcDbSpline
 70
8
 71
3
 72
8
 73
4
 74
0
 40
0
 40
0
 40
0
 40
0
 40
1
 40
1
 40
1
 40
1
 10
27.321266
 20
193.358810
 30
0.0
 10
27.321266
 20
193.496610
 30
0.0
 10
27.343316
 20
193.631657
 30
0.0
 10
27.387416
 20
193.763950
 30
0.0
  0
SPLINE
  5
109
100
AcDbEntity
  8
Layer_1
 62
3
100
AcDbSpline
 70
8
 71
3
 72
8
 73
4
 74
0
 40
0
 40
0
 40
0
 40
0
 40
1
 40
1
 40
1
 40
1
 10
27.387416
 20
193.763950
 30
0.0
 10
27.431516
 20
193.896243
 30
0.0
 10
27.497662
 20
194.014757
 30
0.0
 10
27.585854
 20
194.119490
 30
0.0
  0
SPLINE
  5
10a
100
AcDbEntity
  8
Layer_1
 62
3
100
AcDbSpline
 70
8
 71
3
 72
8
 73
4
 74
0
 40
0
 40
0
 40
0
 40
0
 40
1
 40
1
 40
1
 40
1
 10
27.585854
 20
194.119490
 30
0.0
 10
27.674048
 20
194.224217
 30
0.0
 10
27.784291
 20
194.306897
 30
0.0
 10
27.916583
 20
194.367530
 30
0.0
  0
SPLINE
  5
10b
100
AcDbEntity
  8
Layer_1
 62
3
100
AcDbSpline
 70
8
 71
3
 72
8
 73
4
 74
0
 40
0
 40
0
 40
0
 40
0
 40
1
 40
1
 40
1
 40
1
 10
27.916583
 20
194.367530
 30
0.0
 10
28.048874
 20
194.433663
 30
0.0
 10
28.203215
 20
194.466730
 30
0.0
 10
28.379604
 20
194.466730
 30
0.0
  0
LWPOLYLINE
  5
10c
100
AcDbEntity
  8
Layer_1
 62
7
100
AcDbPolyline
 90
48
 70
1
 10
81.000000
 20
292.500000
 30
0.0
 10
102.453460
 20
292.500000
 30
0.0
 10
124.161920
 20
292.500000
 30
0.0
 10
145.530380
 20
292.500000
 30
0.0
 10
167.238850
 20
292.500000
 30
0.0
 10
188.607310
 20
292.500000
 30
0.0
 10
210.315770
 20
292.500000
 30
0.0
 10
231.684230
 20
292.500000
 30
0.0
 10
253.392690
 20
292.500000
 30
0.0
 10
274.761150
 20
292.500000
 30
0.0
 10
296.469620
 20
292.500000
 30
0.0
 10
317.838080
 20
292.500000
 30
0.0
 10
339.546540
 20
292.500000
 30
0.0
 10
361.000000
 20
292.500000
 30
0.0
 10
361.000000
 20
269.748333
 30
0.0
 10
357.000000
 20
269.748333
 30
0.0
 10
357.000000
 20
243.251667
 30
0.0
 10
361.000000
 20
243.251667
 30
0.0
 10
361.000000
 20
220.500000
 30
0.0
 10
339.546540
 20
220.500000
 30
0.0
 10
339.546540
 20
216.500000
 30
0.0
 10
317.838080
 20
216.500000
 30
0.0
 10
317.838080
 20
220.500000
 30
0.0
 10
296.469620
 20
220.500000
 30
0.0
 10
296.469620
 20
216.500000
 30
0.0
 10
274.761150
 20
216.500000
 30
0.0
 10
274.761150
 20
220.500000
 30
0.0
 10
253.392690
 20
220.500000
 30
0.0
 10
253.392690
 20
216.500000
 30
0.0
 10
231.684230
 20
216.500000
 30
0.0
 10
231.684230
 20
220.500000
 30
0.0
 10
210.315770
 20
220.500000
 30
0.0
 10
210.315770
 20
216.500000
 30
0.0
 10
188.607310
 20
216.500000
 30
0.0
 10
188.607310
 20
220.500000
 30
0.0
 10
167.238850
 20
220.500000
 30
0.0
 10
167.238850
 20
216.500000
 30
0.0
 10
145.530380
 20
216.500000
 30
0.0
 10
145.530380
 20
220.500000
 30
0.0
 10
124.161920
 20
220.500000
 30
0.0
 10
124.161920
 20
216.500000
 30
0.0
 10
102.453460
 20
216.500000
 30
0.0
 10
102.453460
 20
220.500000
 30
0.0
 10
81.000000
 20
220.500000
 30
0.0
 10
81.000000
 20
243.251667
 30
0.0
 10
85.000000
 20
243.251667
 30
0.0
 10
85.000000
 20
269.748333
 30
0.0
 10
81.000000
 20
269.748333
 30
0.0
  0
SPLINE
  5
10d
100
AcDbEntity
  8
Layer_1
 62
3
100
AcDbSpline
 70
8
 71
3
 72
8
 73
4
 74
0
 40
0
 40
0
 40
0
 40
0
 40
1
 40
1
 40
1
 40
1
 10
35.548158
 20
194.466730
 30
0.0
 10
36.253713
 20
194.466730
 30
0.0
 10
36.854538
 20
194.359243
 30
0.0
 10
37.350632
 20
194.144270
 30
0.0
  0
SPLINE
  5
10e
100
AcDbEntity
  8
Layer_1
 62
3
100
AcDbSpline
 70
8
 71
3
 72
8
 73
4
 74
0
 40
0
 40
0
 40
0
 40
0
 40
1
 40
1
 40
1
 40
1
 10
37.350632
 20
194.144270
 30
0.0
 10
37.846725
 20
193.934810
 30
0.0
 10
38.251868
 20
193.648177
 30
0.0
 10
38.566061
 20
193.284370
 30
0.0
  0
SPLINE
  5
10f
100
AcDbEntity
  8
Layer_1
 62
3
100
AcDbSpline
 70
8
 71
3
 72
8
 73
4
 74
0
 40
0
 40
0
 40
0
 40
0
 40
1
 40
1
 40
1
 40
1
 10
38.566061
 20
193.284370
 30
0.0
 10
38.880254
 20
192.920570
 30
0.0
 10
39.109008
 20
192.498893
 30
0.0
 10
39.252324
 20
192.019340
 30
0.0
  0
SPLINE
  5
110
100
AcDbEntity
  8
Layer_1
 62
3
100
AcDbSpline
 70
8
 71
3
 72
8
 73
4
 74
0
 40
0
 40
0
 40
0
 40
0
 40
1
 40
1
 40
1
 40
1
 10
39.252324
 20
192.019340
 30
0.0
 10
39.395640
 20
191.539780
 30
0.0
 10
39.467298
 20
191.032660
 30
0.0
 10
39.467298
 20
190.497980
 30
0.0
  0
SPLINE
  5
111
100
AcDbEntity
  8
Layer_1
 62
3
100
AcDbSpline
 70
8
 71
3
 72
8
 73
4
 74
0
 40
0
 40
0
 40
0
 40
0
 40
1
 40
1
 40
1
 40
1
 10
39.467298
 20
190.497980
 30
0.0
 10
39.467298
 20
190.156227
 30
0.0
 10
39.425957
 20
189.822743
 30
0.0
 10
39.343275
 20
189.497530
 30
0.0
  0
SPLINE
  5
112
100
AcDbEntity
  8
Layer_1
 62
3
100
AcDbSpline
 70
8
 71
3
 72
8
 73
4
 74
0
 40
0
 40
0
 40
0
 40
0
 40
1
 40
1
 40
1
 40
1
 10
39.343275
 20
189.497530
 30
0.0
 10
39.266105
 20
189.172310
 30
0.0
 10
39.150350
 20
188.863627
 30
0.0
 10
38.996009
 20
188.571480
 30
0.0
  0
SPLINE
  5
113
100
AcDbEntity
  8
Layer_1
 62
3
100
AcDbSpline
 70
8
 71
3
 72
8
 73
4
 74
0
 40
0
 40
0
 40
0
 40
0
 40
1
 40
1
 40
1
 40
1
 10
38.996009
 20
188.571480
 30
0.0
 10
38.836157
 20
188.284853
 30
0.0
 10
38.637720
 20
188.023027
 30
0.0
 10
38.400697
 20
187.786000
 30
0.0
  0
SPLINE
  5
114
100
AcDbEntity
  8
Layer_1
 62
3
100
AcDbSpline
 70
8
 71
3
 72
8
 73
4
 74
0
 40
0
 40
0
 40
0
 40
0
 40
1
 40
1
 40
1
 40
1
 10
38.400697
 20
187.786000
 30
0.0
 10
38.163674
 20
187.554493
 30
0.0
 10
37.888067
 20
187.361570
 30
0.0
 10
37.573874
 20
187.207230
 30
0.0
  0
SPLINE
  5
115
100
AcDbEntity
  8
Layer_1
 62
3
100
AcDbSpline
 70
8
 71
3
 72
8
 73
4
 74
0
 40
0
 40
0
 40
0
 40
0
 40
1
 40
1
 40
1
 40
1
 10
37.573874
 20
187.207230
 30
0.0
 10
37.375437
 20
187.058397
 30
0.0
 10
37.179755
 20
186.983980
 30
0.0
 10
36.986830
 20
186.983980
 30
0.0
  0
SPLINE
  5
116
100
AcDbEntity
  8
Layer_1
 62
3
100
AcDbSpline
 70
8
 71
3
 72
8
 73
4
 74
0
 40
0
 40
0
 40
0
 40
0
 40
1
 40
1
 40
1
 40
1
 10
36.986830
 20
186.983980
 30
0.0
 10
36.871075
 20
186.983980
 30
0.0
 10
36.766344
 20
187.008780
 30
0.0
 10
36.672637
 20
187.058380
 30
0.0
  0
SPLINE
  5
117
100
AcDbEntity
  8
Layer_1
 62
3
100
AcDbSpline
 70
8
 71
3
 72
8
 73
4
 74
0
 40
0
 40
0
 40
0
 40
0
 40
1
 40
1
 40
1
 40
1
 10
36.672637
 20
187.058380
 30
0.0
 10
36.573418
 20
187.107980
 30
0.0
 10
36.487980
 20
187.171370
 30
0.0
 10
36.416322
 20
187.248550
 30
0.0
  0
SPLINE
  5
118
100
AcDbEntity
  8
Layer_1
 62
3
100
AcDbSpline
 70
8
 71
3
 72
8
 73
4
 74
0
 40
0
 40
0
 40
0
 40
0
 40
1
 40
1
 40
1
 40
1
 10
36.416322
 20
187.248550
 30
0.0
 10
36.344664
 20
187.331230
 30
0.0
 10
36.289542
 20
187.422180
 30
0.0
 10
36.250957
 20
187.521400
 30
0.0
  0
SPLINE
  5
119
100
AcDbEntity
  8
Layer_1
 62
3
100
AcDbSpline
 70
8
 71
3
 72
8
 73
4
 74
0
 40
0
 40
0
 40
0
 40
0
 40
1
 40
1
 40
1
 40
1
 10
36.250957
 20
187.521400
 30
0.0
 10
36.212370
 20
187.620620
 30
0.0
 10
36.193077
 20
187.722593
 30
0.0
 10
36.193077
 20
187.827320
 30
0.0
  0
SPLINE
  5
11a
100
AcDbEntity
  8
Layer_1
 62
3
100
AcDbSpline
 70
8
 71
3
 72
8
 73
4
 74
0
 40
0
 40
0
 40
0
 40
0
 40
1
 40
1
 40
1
 40
1
 10
36.193077
 20
187.827320
 30
0.0
 10
36.193077
 20
187.921027
 30
0.0
 10
36.212370
 20
188.011977
 30
0.0
 10
36.250957
 20
188.100170
 30
0.0
  0
SPLINE
  5
11b
100
AcDbEntity
  8
Layer_1
 62
3
100
AcDbSpline
 70
8
 71
3
 72
8
 73
4
 74
0
 40
0
 40
0
 40
0
 40
0
 40
1
 40
1
 40
1
 40
1
 10
36.250957
 20
188.100170
 30
0.0
 10
36.289544
 20
188.193877
 30
0.0
 10
36.352934
 20
188.276560
 30
0.0
 10
36.441127
 20
188.348220
 30
0.0
  0
SPLINE
  5
11c
100
AcDbEntity
  8
Layer_1
 62
3
100
AcDbSpline
 70
8
 71
3
 72
8
 73
4
 74
0
 40
0
 40
0
 40
0
 40
0
 40
1
 40
1
 40
1
 40
1
 10
36.441127
 20
188.348220
 30
0.0
 10
36.865562
 20
188.552173
 30
0.0
 10
37.207316
 20
188.819513
 30
0.0
 10
37.466387
 20
189.150240
 30
0.0
  0
SPLINE
  5
11d
100
AcDbEntity
  8
Layer_1
 62
3
100
AcDbSpline
 70
8
 71
3
 72
8
 73
4
 74
0
 40
0
 40
0
 40
0
 40
0
 40
1
 40
1
 40
1
 40
1
 10
37.466387
 20
189.150240
 30
0.0
 10
37.719946
 20
189.480967
 30
0.0
 10
37.846726
 20
189.886110
 30
0.0
 10
37.846726
 20
190.365670
 30
0.0
  0
SPLINE
  5
11e
100
AcDbEntity
  8
Layer_1
 62
3
100
AcDbSpline
 70
8
 71
3
 72
8
 73
4
 74
0
 40
0
 40
0
 40
0
 40
0
 40
1
 40
1
 40
1
 40
1
 10
37.846726
 20
190.365670
 30
0.0
 10
37.846726
 20
190.977517
 30
0.0
 10
37.651044
 20
191.443293
 30
0.0
 10
37.259681
 20
191.763000
 30
0.0
  0
SPLINE
  5
11f
100
AcDbEntity
  8
Layer_1
 62
3
100
AcDbSpline
 70
8
 71
3
 72
8
 73
4
 74
0
 40
0
 40
0
 40
0
 40
0
 40
1
 40
1
 40
1
 40
1
 10
37.259681
 20
191.763000
 30
0.0
 10
36.862806
 20
192.082707
 30
0.0
 10
36.242689
 20
192.242560
 30
0.0
 10
35.399330
 20
192.242560
 30
0.0
  0
LWPOLYLINE
  5
120
100
AcDbEntity
  8
Layer_1
 62
3
100
AcDbPolyline
 90
2
 70
0
 10
28.379604
 20
194.466730
 30
0.0
 10
35.548158
 20
194.466730
 30
0.0
  0
SPLINE
  5
121
100
AcDbEntity
  8
Layer_1
 62
3
100
AcDbSpline
 70
8
 71
3
 72
8
 73
4
 74
0
 40
0
 40
0
 40
0
 40
0
 40
1
 40
1
 40
1
 40
1
 10
38.284942
 20
204.278608
 30
0.0
 10
38.439282
 20
204.278608
 30
0.0
 10
38.574330
 20
204.251048
 30
0.0
 10
38.690085
 20
204.195928
 30
0.0
  0
SPLINE
  5
122
100
AcDbEntity
  8
Layer_1
 62
3
100
AcDbSpline
 70
8
 71
3
 72
8
 73
4
 74
0
 40
0
 40
0
 40
0
 40
0
 40
1
 40
1
 40
1
 40
1
 10
38.690085
 20
204.195928
 30
0.0
 10
38.805840
 20
204.140808
 30
0.0
 10
38.902303
 20
204.066394
 30
0.0
 10
38.979473
 20
203.972686
 30
0.0
  0
SPLINE
  5
123
100
AcDbEntity
  8
Layer_1
 62
3
100
AcDbSpline
 70
8
 71
3
 72
8
 73
4
 74
0
 40
0
 40
0
 40
0
 40
0
 40
1
 40
1
 40
1
 40
1
 10
38.979473
 20
203.972686
 30
0.0
 10
39.056643
 20
203.884491
 30
0.0
 10
39.114521
 20
203.779760
 30
0.0
 10
39.153106
 20
203.658493
 30
0.0
  0
SPLINE
  5
124
100
AcDbEntity
  8
Layer_1
 62
3
100
AcDbSpline
 70
8
 71
3
 72
8
 73
4
 74
0
 40
0
 40
0
 40
0
 40
0
 40
1
 40
1
 40
1
 40
1
 10
39.153106
 20
203.658493
 30
0.0
 10
39.191693
 20
203.542738
 30
0.0
 10
39.210986
 20
203.424226
 30
0.0
 10
39.210986
 20
203.302959
 30
0.0
  0
SPLINE
  5
125
100
AcDbEntity
  8
Layer_1
 62
3
100
AcDbSpline
 70
8
 71
3
 72
8
 73
4
 74
0
 40
0
 40
0
 40
0
 40
0
 40
1
 40
1
 40
1
 40
1
 10
39.210986
 20
203.302959
 30
0.0
 10
39.210986
 20
203.187204
 30
0.0
 10
39.194449
 20
203.071449
 30
0.0
 10
39.161376
 20
202.955694
 30
0.0
  0
SPLINE
  5
126
100
AcDbEntity
  8
Layer_1
 62
3
100
AcDbSpline
 70
8
 71
3
 72
8
 73
4
 74
0
 40
0
 40
0
 40
0
 40
0
 40
1
 40
1
 40
1
 40
1
 10
39.161376
 20
202.955694
 30
0.0
 10
39.122789
 20
202.845451
 30
0.0
 10
39.067668
 20
202.743476
 30
0.0
 10
38.996011
 20
202.649769
 30
0.0
  0
SPLINE
  5
127
100
AcDbEntity
  8
Layer_1
 62
3
100
AcDbSpline
 70
8
 71
3
 72
8
 73
4
 74
0
 40
0
 40
0
 40
0
 40
0
 40
1
 40
1
 40
1
 40
1
 10
38.996011
 20
202.649769
 30
0.0
 10
38.918841
 20
202.561574
 30
0.0
 10
38.827891
 20
202.489916
 30
0.0
 10
38.723160
 20
202.434795
 30
0.0
  0
SPLINE
  5
128
100
AcDbEntity
  8
Layer_1
 62
3
100
AcDbSpline
 70
8
 71
3
 72
8
 73
4
 74
0
 40
0
 40
0
 40
0
 40
0
 40
1
 40
1
 40
1
 40
1
 10
38.723160
 20
202.434795
 30
0.0
 10
38.612917
 20
202.379675
 30
0.0
 10
38.483381
 20
202.349358
 30
0.0
 10
38.334553
 20
202.343845
 30
0.0
  0
LWPOLYLINE
  5
129
100
AcDbEntity
  8
Layer_1
 62
3
100
AcDbPolyline
 90
2
 70
0
 10
35.399330
 20
192.242560
 30
0.0
 10
28.379604
 20
192.242550
 30
0.0
  0
SPLINE
  5
12a
100
AcDbEntity
  8
Layer_1
 62
3
100
AcDbSpline
 70
8
 71
3
 72
8
 73
4
 74
0
 40
0
 40
0
 40
0
 40
0
 40
1
 40
1
 40
1
 40
1
 10
37.714436
 20
202.343845
 30
0.0
 10
37.918385
 20
202.233602
 30
0.0
 10
38.125091
 20
202.082017
 30
0.0
 10
38.334553
 20
201.889092
 30
0.0
  0
SPLINE
  5
12b
100
AcDbEntity
  8
Layer_1
 62
3
100
AcDbSpline
 70
8
 71
3
 72
8
 73
4
 74
0
 40
0
 40
0
 40
0
 40
0
 40
1
 40
1
 40
1
 40
1
 10
38.334553
 20
201.889092
 30
0.0
 10
38.544015
 20
201.696167
 30
0.0
 10
38.723160
 20
201.475681
 30
0.0
 10
38.871988
 20
201.227634
 30
0.0
  0
SPLINE
  5
12c
100
AcDbEntity
  8
Layer_1
 62
3
100
AcDbSpline
 70
8
 71
3
 72
8
 73
4
 74
0
 40
0
 40
0
 40
0
 40
0
 40
1
 40
1
 40
1
 40
1
 10
38.871988
 20
201.227634
 30
0.0
 10
39.015304
 20
200.979587
 30
0.0
 10
39.125547
 20
200.712248
 30
0.0
 10
39.202717
 20
200.425616
 30
0.0
  0
SPLINE
  5
12d
100
AcDbEntity
  8
Layer_1
 62
3
100
AcDbSpline
 70
8
 71
3
 72
8
 73
4
 74
0
 40
0
 40
0
 40
0
 40
0
 40
1
 40
1
 40
1
 40
1
 10
39.202717
 20
200.425616
 30
0.0
 10
39.274375
 20
200.144496
 30
0.0
 10
39.310204
 20
199.860620
 30
0.0
 10
39.310204
 20
199.573988
 30
0.0
  0
SPLINE
  5
12e
100
AcDbEntity
  8
Layer_1
 62
3
100
AcDbSpline
 70
8
 71
3
 72
8
 73
4
 74
0
 40
0
 40
0
 40
0
 40
0
 40
1
 40
1
 40
1
 40
1
 10
39.310204
 20
199.573988
 30
0.0
 10
39.310204
 20
199.188137
 30
0.0
 10
39.249570
 20
198.818823
 30
0.0
 10
39.128303
 20
198.466045
 30
0.0
  0
SPLINE
  5
12f
100
AcDbEntity
  8
Layer_1
 62
3
100
AcDbSpline
 70
8
 71
3
 72
8
 73
4
 74
0
 40
0
 40
0
 40
0
 40
0
 40
1
 40
1
 40
1
 40
1
 10
39.128303
 20
198.466045
 30
0.0
 10
39.001524
 20
198.113268
 30
0.0
 10
38.808598
 20
197.801831
 30
0.0
 10
38.549527
 20
197.531736
 30
0.0
  0
SPLINE
  5
130
100
AcDbEntity
  8
Layer_1
 62
3
100
AcDbSpline
 70
8
 71
3
 72
8
 73
4
 74
0
 40
0
 40
0
 40
0
 40
0
 40
1
 40
1
 40
1
 40
1
 10
38.549527
 20
197.531736
 30
0.0
 10
38.290456
 20
197.267153
 30
0.0
 10
37.962483
 20
197.054935
 30
0.0
 10
37.565608
 20
196.895082
 30
0.0
  0
SPLINE
  5
131
100
AcDbEntity
  8
Layer_1
 62
3
100
AcDbSpline
 70
8
 71
3
 72
8
 73
4
 74
0
 40
0
 40
0
 40
0
 40
0
 40
1
 40
1
 40
1
 40
1
 10
37.565608
 20
196.895082
 30
0.0
 10
37.168733
 20
196.740742
 30
0.0
 10
36.708468
 20
196.663572
 30
0.0
 10
36.184814
 20
196.663572
 30
0.0
  0
LWPOLYLINE
  5
132
100
AcDbEntity
  8
Layer_1
 62
3
100
AcDbPolyline
 90
2
 70
0
 10
38.334553
 20
202.343845
 30
0.0
 10
37.714436
 20
202.343845
 30
0.0
  0
SPLINE
  5
133
100
AcDbEntity
  8
Layer_1
 62
3
100
AcDbSpline
 70
8
 71
3
 72
8
 73
4
 74
0
 40
0
 40
0
 40
0
 40
0
 40
1
 40
1
 40
1
 40
1
 10
31.868798
 20
196.663572
 30
0.0
 10
31.714458
 20
196.663572
 30
0.0
 10
31.579410
 20
196.691139
 30
0.0
 10
31.463655
 20
196.746272
 30
0.0
  0
SPLINE
  5
134
100
AcDbEntity
  8
Layer_1
 62
3
100
AcDbSpline
 70
8
 71
3
 72
8
 73
4
 74
0
 40
0
 40
0
 40
0
 40
0
 40
1
 40
1
 40
1
 40
1
 10
31.463655
 20
196.746272
 30
0.0
 10
31.347900
 20
196.801405
 30
0.0
 10
31.251437
 20
196.873065
 30
0.0
 10
31.174267
 20
196.961252
 30
0.0
  0
SPLINE
  5
135
100
AcDbEntity
  8
Layer_1
 62
3
100
AcDbSpline
 70
8
 71
3
 72
8
 73
4
 74
0
 40
0
 40
0
 40
0
 40
0
 40
1
 40
1
 40
1
 40
1
 10
31.174267
 20
196.961252
 30
0.0
 10
31.091585
 20
197.054956
 30
0.0
 10
31.030951
 20
197.159685
 30
0.0
 10
30.992366
 20
197.275440
 30
0.0
  0
SPLINE
  5
136
100
AcDbEntity
  8
Layer_1
 62
3
100
AcDbSpline
 70
8
 71
3
 72
8
 73
4
 74
0
 40
0
 40
0
 40
0
 40
0
 40
1
 40
1
 40
1
 40
1
 10
30.992366
 20
197.275440
 30
0.0
 10
30.953779
 20
197.391195
 30
0.0
 10
30.934486
 20
197.509707
 30
0.0
 10
30.934486
 20
197.630974
 30
0.0
  0
SPLINE
  5
137
100
AcDbEntity
  8
Layer_1
 62
3
100
AcDbSpline
 70
8
 71
3
 72
8
 73
4
 74
0
 40
0
 40
0
 40
0
 40
0
 40
1
 40
1
 40
1
 40
1
 10
30.934486
 20
197.630974
 30
0.0
 10
30.934486
 20
197.752241
 30
0.0
 10
30.953779
 20
197.870753
 30
0.0
 10
30.992366
 20
197.986508
 30
0.0
  0
SPLINE
  5
138
100
AcDbEntity
  8
Layer_1
 62
3
100
AcDbSpline
 70
8
 71
3
 72
8
 73
4
 74
0
 40
0
 40
0
 40
0
 40
0
 40
1
 40
1
 40
1
 40
1
 10
30.992366
 20
197.986508
 30
0.0
 10
31.030953
 20
198.107775
 30
0.0
 10
31.091586
 20
198.212506
 30
0.0
 10
31.174267
 20
198.300701
 30
0.0
  0
SPLINE
  5
139
100
AcDbEntity
  8
Layer_1
 62
3
100
AcDbSpline
 70
8
 71
3
 72
8
 73
4
 74
0
 40
0
 40
0
 40
0
 40
0
 40
1
 40
1
 40
1
 40
1
 10
31.174267
 20
198.300701
 30
0.0
 10
31.251437
 20
198.394408
 30
0.0
 10
31.347900
 20
198.468822
 30
0.0
 10
31.463655
 20
198.523943
 30
0.0
  0
SPLINE
  5
13a
100
AcDbEntity
  8
Layer_1
 62
3
100
AcDbSpline
 70
8
 71
3
 72
8
 73
4
 74
0
 40
0
 40
0
 40
0
 40
0
 40
1
 40
1
 40
1
 40
1
 10
31.463655
 20
198.523943
 30
0.0
 10
31.579410
 20
198.579063
 30
0.0
 10
31.714458
 20
198.606623
 30
0.0
 10
31.868798
 20
198.606623
 30
0.0
  0
LWPOLYLINE
  5
13b
100
AcDbEntity
  8
Layer_1
 62
3
100
AcDbPolyline
 90
2
 70
0
 10
36.184814
 20
196.663572
 30
0.0
 10
31.868798
 20
196.663572
 30
0.0
  0
SPLINE
  5
13c
100
AcDbEntity
  8
Layer_1
 62
3
100
AcDbSpline
 70
8
 71
3
 72
8
 73
4
 74
0
 40
0
 40
0
 40
0
 40
0
 40
1
 40
1
 40
1
 40
1
 10
36.217886
 20
198.606623
 30
0.0
 10
36.510031
 20
198.606623
 30
0.0
 10
36.771858
 20
198.650720
 30
0.0
 10
37.003368
 20
198.738915
 30
0.0
  0
SPLINE
  5
13d
100
AcDbEntity
  8
Layer_1
 62
3
100
AcDbSpline
 70
8
 71
3
 72
8
 73
4
 74
0
 40
0
 40
0
 40
0
 40
0
 40
1
 40
1
 40
1
 40
1
 10
37.003368
 20
198.738915
 30
0.0
 10
37.234879
 20
198.827110
 30
0.0
 10
37.427804
 20
198.945621
 30
0.0
 10
37.582144
 20
199.094449
 30
0.0
  0
SPLINE
  5
13e
100
AcDbEntity
  8
Layer_1
 62
3
100
AcDbSpline
 70
8
 71
3
 72
8
 73
4
 74
0
 40
0
 40
0
 40
0
 40
0
 40
1
 40
1
 40
1
 40
1
 10
37.582144
 20
199.094449
 30
0.0
 10
37.736485
 20
199.243277
 30
0.0
 10
37.852240
 20
199.416910
 30
0.0
 10
37.929410
 20
199.615347
 30
0.0
  0
SPLINE
  5
13f
100
AcDbEntity
  8
Layer_1
 62
3
100
AcDbSpline
 70
8
 71
3
 72
8
 73
4
 74
0
 40
0
 40
0
 40
0
 40
0
 40
1
 40
1
 40
1
 40
1
 10
37.929410
 20
199.615347
 30
0.0
 10
38.001068
 20
199.813784
 30
0.0
 10
38.036897
 20
200.020490
 30
0.0
 10
38.036897
 20
200.235464
 30
0.0
  0
SPLINE
  5
140
100
AcDbEntity
  8
Layer_1
 62
3
100
AcDbSpline
 70
8
 71
3
 72
8
 73
4
 74
0
 40
0
 40
0
 40
0
 40
0
 40
1
 40
1
 40
1
 40
1
 10
38.036897
 20
200.235464
 30
0.0
 10
38.036897
 20
200.511072
 30
0.0
 10
37.995556
 20
200.772899
 30
0.0
 10
37.912873
 20
201.020946
 30
0.0
  0
SPLINE
  5
141
100
AcDbEntity
  8
Layer_1
 62
3
100
AcDbSpline
 70
8
 71
3
 72
8
 73
4
 74
0
 40
0
 40
0
 40
0
 40
0
 40
1
 40
1
 40
1
 40
1
 10
37.912873
 20
201.020946
 30
0.0
 10
37.824679
 20
201.268993
 30
0.0
 10
37.695144
 20
201.486723
 30
0.0
 10
37.524267
 20
201.674136
 30
0.0
  0
SPLINE
  5
142
100
AcDbEntity
  8
Layer_1
 62
3
100
AcDbSpline
 70
8
 71
3
 72
8
 73
4
 74
0
 40
0
 40
0
 40
0
 40
0
 40
1
 40
1
 40
1
 40
1
 10
37.524267
 20
201.674136
 30
0.0
 10
37.347878
 20
201.861549
 30
0.0
 10
37.146684
 20
202.013134
 30
0.0
 10
36.920686
 20
202.128889
 30
0.0
  0
SPLINE
  5
143
100
AcDbEntity
  8
Layer_1
 62
3
100
AcDbSpline
 70
8
 71
3
 72
8
 73
4
 74
0
 40
0
 40
0
 40
0
 40
0
 40
1
 40
1
 40
1
 40
1
 10
36.920686
 20
202.128889
 30
0.0
 10
36.689175
 20
202.250156
 30
0.0
 10
36.397031
 20
202.321814
 30
0.0
 10
36.044254
 20
202.343863
 30
0.0
  0
LWPOLYLINE
  5
144
100
AcDbEntity
  8
Layer_1
 62
3
100
AcDbPolyline
 90
2
 70
0
 10
31.868798
 20
198.606623
 30
0.0
 10
36.217886
 20
198.606623
 30
0.0
  0
SPLINE
  5
145
100
AcDbEntity
  8
Layer_1
 62
3
100
AcDbSpline
 70
8
 71
3
 72
8
 73
4
 74
0
 40
0
 40
0
 40
0
 40
0
 40
1
 40
1
 40
1
 40
1
 10
31.860530
 20
202.343863
 30
0.0
 10
31.706190
 20
202.343863
 30
0.0
 10
31.571142
 20
202.371423
 30
0.0
 10
31.455387
 20
202.426543
 30
0.0
  0
SPLINE
  5
146
100
AcDbEntity
  8
Layer_1
 62
3
100
AcDbSpline
 70
8
 71
3
 72
8
 73
4
 74
0
 40
0
 40
0
 40
0
 40
0
 40
1
 40
1
 40
1
 40
1
 10
31.455387
 20
202.426543
 30
0.0
 10
31.339632
 20
202.481663
 30
0.0
 10
31.243169
 20
202.553321
 30
0.0
 10
31.165999
 20
202.641517
 30
0.0
  0
SPLINE
  5
147
100
AcDbEntity
  8
Layer_1
 62
3
100
AcDbSpline
 70
8
 71
3
 72
8
 73
4
 74
0
 40
0
 40
0
 40
0
 40
0
 40
1
 40
1
 40
1
 40
1
 10
31.165999
 20
202.641517
 30
0.0
 10
31.088829
 20
202.735224
 30
0.0
 10
31.030951
 20
202.839955
 30
0.0
 10
30.992366
 20
202.955710
 30
0.0
  0
SPLINE
  5
148
100
AcDbEntity
  8
Layer_1
 62
3
100
AcDbSpline
 70
8
 71
3
 72
8
 73
4
 74
0
 40
0
 40
0
 40
0
 40
0
 40
1
 40
1
 40
1
 40
1
 10
30.992366
 20
202.955710
 30
0.0
 10
30.953779
 20
203.071465
 30
0.0
 10
30.934486
 20
203.189976
 30
0.0
 10
30.934486
 20
203.311243
 30
0.0
  0
SPLINE
  5
149
100
AcDbEntity
  8
Layer_1
 62
3
100
AcDbSpline
 70
8
 71
3
 72
8
 73
4
 74
0
 40
0
 40
0
 40
0
 40
0
 40
1
 40
1
 40
1
 40
1
 10
30.934486
 20
203.311243
 30
0.0
 10
30.934486
 20
203.432510
 30
0.0
 10
30.953779
 20
203.551022
 30
0.0
 10
30.992366
 20
203.666777
 30
0.0
  0
SPLINE
  5
14a
100
AcDbEntity
  8
Layer_1
 62
3
100
AcDbSpline
 70
8
 71
3
 72
8
 73
4
 74
0
 40
0
 40
0
 40
0
 40
0
 40
1
 40
1
 40
1
 40
1
 10
30.992366
 20
203.666777
 30
0.0
 10
31.030953
 20
203.782532
 30
0.0
 10
31.088830
 20
203.884507
 30
0.0
 10
31.165999
 20
203.972702
 30
0.0
  0
SPLINE
  5
14b
100
AcDbEntity
  8
Layer_1
 62
3
100
AcDbSpline
 70
8
 71
3
 72
8
 73
4
 74
0
 40
0
 40
0
 40
0
 40
0
 40
1
 40
1
 40
1
 40
1
 10
31.165999
 20
203.972702
 30
0.0
 10
31.243169
 20
204.066409
 30
0.0
 10
31.339632
 20
204.140823
 30
0.0
 10
31.455387
 20
204.195944
 30
0.0
  0
SPLINE
  5
14c
100
AcDbEntity
  8
Layer_1
 62
3
100
AcDbSpline
 70
8
 71
3
 72
8
 73
4
 74
0
 40
0
 40
0
 40
0
 40
0
 40
1
 40
1
 40
1
 40
1
 10
31.455387
 20
204.195944
 30
0.0
 10
31.571142
 20
204.251064
 30
0.0
 10
31.706190
 20
204.278624
 30
0.0
 10
31.860530
 20
204.278624
 30
0.0
  0
LWPOLYLINE
  5
14d
100
AcDbEntity
  8
Layer_1
 62
3
100
AcDbPolyline
 90
2
 70
0
 10
36.044254
 20
202.343863
 30
0.0
 10
31.860530
 20
202.343863
 30
0.0
  0
SPLINE
  5
14e
100
AcDbEntity
  8
Layer_1
 62
3
100
AcDbSpline
 70
8
 71
3
 72
8
 73
4
 74
0
 40
0
 40
0
 40
0
 40
0
 40
1
 40
1
 40
1
 40
1
 10
33.977194
 20
217.877363
 30
0.0
 10
33.663001
 20
217.877363
 30
0.0
 10
33.390150
 20
217.833266
 30
0.0
 10
33.158640
 20
217.745072
 30
0.0
  0
SPLINE
  5
14f
100
AcDbEntity
  8
Layer_1
 62
3
100
AcDbSpline
 70
8
 71
3
 72
8
 73
4
 74
0
 40
0
 40
0
 40
0
 40
0
 40
1
 40
1
 40
1
 40
1
 10
33.158640
 20
217.745072
 30
0.0
 10
32.927129
 20
217.656877
 30
0.0
 10
32.734204
 20
217.538366
 30
0.0
 10
32.579864
 20
217.389538
 30
0.0
  0
SPLINE
  5
150
100
AcDbEntity
  8
Layer_1
 62
3
100
AcDbSpline
 70
8
 71
3
 72
8
 73
4
 74
0
 40
0
 40
0
 40
0
 40
0
 40
1
 40
1
 40
1
 40
1
 10
32.579864
 20
217.389538
 30
0.0
 10
32.425523
 20
217.240710
 30
0.0
 10
32.312524
 20
217.067077
 30
0.0
 10
32.240866
 20
216.868639
 30
0.0
  0
SPLINE
  5
151
100
AcDbEntity
  8
Layer_1
 62
3
100
AcDbSpline
 70
8
 71
3
 72
8
 73
4
 74
0
 40
0
 40
0
 40
0
 40
0
 40
1
 40
1
 40
1
 40
1
 10
32.240866
 20
216.868639
 30
0.0
 10
32.163696
 20
216.675714
 30
0.0
 10
32.125111
 20
216.474520
 30
0.0
 10
32.125111
 20
216.265059
 30
0.0
  0
SPLINE
  5
152
100
AcDbEntity
  8
Layer_1
 62
3
100
AcDbSpline
 70
8
 71
3
 72
8
 73
4
 74
0
 40
0
 40
0
 40
0
 40
0
 40
1
 40
1
 40
1
 40
1
 10
32.125111
 20
216.265059
 30
0.0
 10
32.125111
 20
216.000476
 30
0.0
 10
32.166452
 20
215.741404
 30
0.0
 10
32.249135
 20
215.487845
 30
0.0
  0
SPLINE
  5
153
100
AcDbEntity
  8
Layer_1
 62
3
100
AcDbSpline
 70
8
 71
3
 72
8
 73
4
 74
0
 40
0
 40
0
 40
0
 40
0
 40
1
 40
1
 40
1
 40
1
 10
32.249135
 20
215.487845
 30
0.0
 10
32.331817
 20
215.239798
 30
0.0
 10
32.464109
 20
215.016556
 30
0.0
 10
32.646010
 20
214.818119
 30
0.0
  0
SPLINE
  5
154
100
AcDbEntity
  8
Layer_1
 62
3
100
AcDbSpline
 70
8
 71
3
 72
8
 73
4
 74
0
 40
0
 40
0
 40
0
 40
0
 40
1
 40
1
 40
1
 40
1
 10
32.646010
 20
214.818119
 30
0.0
 10
32.827911
 20
214.619681
 30
0.0
 10
33.062177
 20
214.459828
 30
0.0
 10
33.348809
 20
214.338561
 30
0.0
  0
SPLINE
  5
155
100
AcDbEntity
  8
Layer_1
 62
3
100
AcDbSpline
 70
8
 71
3
 72
8
 73
4
 74
0
 40
0
 40
0
 40
0
 40
0
 40
1
 40
1
 40
1
 40
1
 10
33.348809
 20
214.338561
 30
0.0
 10
33.635441
 20
214.222806
 30
0.0
 10
33.985463
 20
214.164929
 30
0.0
 10
34.398874
 20
214.164929
 30
0.0
  0
LWPOLYLINE
  5
156
100
AcDbEntity
  8
Layer_1
 62
3
100
AcDbPolyline
 90
2
 70
0
 10
31.860530
 20
204.278624
 30
0.0
 10
38.284942
 20
204.278608
 30
0.0
  0
SPLINE
  5
157
100
AcDbEntity
  8
Layer_1
 62
3
100
AcDbSpline
 70
8
 71
3
 72
8
 73
4
 74
0
 40
0
 40
0
 40
0
 40
0
 40
1
 40
1
 40
1
 40
1
 10
38.276673
 20
214.164929
 30
0.0
 10
38.431014
 20
214.164929
 30
0.0
 10
38.566062
 20
214.137369
 30
0.0
 10
38.681817
 20
214.082249
 30
0.0
  0
SPLINE
  5
158
100
AcDbEntity
  8
Layer_1
 62
3
100
AcDbSpline
 70
8
 71
3
 72
8
 73
4
 74
0
 40
0
 40
0
 40
0
 40
0
 40
1
 40
1
 40
1
 40
1
 10
38.681817
 20
214.082249
 30
0.0
 10
38.797572
 20
214.027129
 30
0.0
 10
38.896790
 20
213.952715
 30
0.0
 10
38.979473
 20
213.859007
 30
0.0
  0
SPLINE
  5
159
100
AcDbEntity
  8
Layer_1
 62
3
100
AcDbSpline
 70
8
 71
3
 72
8
 73
4
 74
0
 40
0
 40
0
 40
0
 40
0
 40
1
 40
1
 40
1
 40
1
 10
38.979473
 20
213.859007
 30
0.0
 10
39.056643
 20
213.770812
 30
0.0
 10
39.114521
 20
213.666081
 30
0.0
 10
39.153106
 20
213.544814
 30
0.0
  0
SPLINE
  5
15a
100
AcDbEntity
  8
Layer_1
 62
3
100
AcDbSpline
 70
8
 71
3
 72
8
 73
4
 74
0
 40
0
 40
0
 40
0
 40
0
 40
1
 40
1
 40
1
 40
1
 10
39.153106
 20
213.544814
 30
0.0
 10
39.191693
 20
213.429059
 30
0.0
 10
39.210986
 20
213.310548
 30
0.0
 10
39.210986
 20
213.189281
 30
0.0
  0
SPLINE
  5
15b
100
AcDbEntity
  8
Layer_1
 62
3
100
AcDbSpline
 70
8
 71
3
 72
8
 73
4
 74
0
 40
0
 40
0
 40
0
 40
0
 40
1
 40
1
 40
1
 40
1
 10
39.210986
 20
213.189281
 30
0.0
 10
39.210986
 20
213.068014
 30
0.0
 10
39.191693
 20
212.949502
 30
0.0
 10
39.153106
 20
212.833747
 30
0.0
  0
SPLINE
  5
15c
100
AcDbEntity
  8
Layer_1
 62
3
100
AcDbSpline
 70
8
 71
3
 72
8
 73
4
 74
0
 40
0
 40
0
 40
0
 40
0
 40
1
 40
1
 40
1
 40
1
 10
39.153106
 20
212.833747
 30
0.0
 10
39.114519
 20
212.723504
 30
0.0
 10
39.056642
 20
212.621529
 30
0.0
 10
38.979473
 20
212.527822
 30
0.0
  0
SPLINE
  5
15d
100
AcDbEntity
  8
Layer_1
 62
3
100
AcDbSpline
 70
8
 71
3
 72
8
 73
4
 74
0
 40
0
 40
0
 40
0
 40
0
 40
1
 40
1
 40
1
 40
1
 10
38.979473
 20
212.527822
 30
0.0
 10
38.896790
 20
212.439628
 30
0.0
 10
38.797572
 20
212.367970
 30
0.0
 10
38.681817
 20
212.312848
 30
0.0
  0
SPLINE
  5
15e
100
AcDbEntity
  8
Layer_1
 62
3
100
AcDbSpline
 70
8
 71
3
 72
8
 73
4
 74
0
 40
0
 40
0
 40
0
 40
0
 40
1
 40
1
 40
1
 40
1
 10
38.681817
 20
212.312848
 30
0.0
 10
38.566062
 20
212.257728
 30
0.0
 10
38.431014
 20
212.230168
 30
0.0
 10
38.276673
 20
212.230168
 30
0.0
  0
LWPOLYLINE
  5
15f
100
AcDbEntity
  8
Layer_1
 62
3
100
AcDbPolyline
 90
2
 70
0
 10
34.398874
 20
214.164929
 30
0.0
 10
38.276673
 20
214.164929
 30
0.0
  0
SPLINE
  5
160
100
AcDbEntity
  8
Layer_1
 62
3
100
AcDbSpline
 70
8
 71
3
 72
8
 73
4
 74
0
 40
0
 40
0
 40
0
 40
0
 40
1
 40
1
 40
1
 40
1
 10
33.977194
 20
212.230168
 30
0.0
 10
33.663001
 20
212.230168
 30
0.0
 10
33.390150
 20
212.183315
 30
0.0
 10
33.158640
 20
212.089608
 30
0.0
  0
SPLINE
  5
161
100
AcDbEntity
  8
Layer_1
 62
3
100
AcDbSpline
 70
8
 71
3
 72
8
 73
4
 74
0
 40
0
 40
0
 40
0
 40
0
 40
1
 40
1
 40
1
 40
1
 10
33.158640
 20
212.089608
 30
0.0
 10
32.927129
 20
212.001414
 30
0.0
 10
32.734204
 20
211.882903
 30
0.0
 10
32.579864
 20
211.734074
 30
0.0
  0
SPLINE
  5
162
100
AcDbEntity
  8
Layer_1
 62
3
100
AcDbSpline
 70
8
 71
3
 72
8
 73
4
 74
0
 40
0
 40
0
 40
0
 40
0
 40
1
 40
1
 40
1
 40
1
 10
32.579864
 20
211.734074
 30
0.0
 10
32.425523
 20
211.585246
 30
0.0
 10
32.312524
 20
211.411613
 30
0.0
 10
32.240866
 20
211.213176
 30
0.0
  0
SPLINE
  5
163
100
AcDbEntity
  8
Layer_1
 62
3
100
AcDbSpline
 70
8
 71
3
 72
8
 73
4
 74
0
 40
0
 40
0
 40
0
 40
0
 40
1
 40
1
 40
1
 40
1
 10
32.240866
 20
211.213176
 30
0.0
 10
32.163696
 20
211.020251
 30
0.0
 10
32.125111
 20
210.819057
 30
0.0
 10
32.125111
 20
210.609595
 30
0.0
  0
SPLINE
  5
164
100
AcDbEntity
  8
Layer_1
 62
3
100
AcDbSpline
 70
8
 71
3
 72
8
 73
4
 74
0
 40
0
 40
0
 40
0
 40
0
 40
1
 40
1
 40
1
 40
1
 10
32.125111
 20
210.609595
 30
0.0
 10
32.125111
 20
210.322963
 30
0.0
 10
32.171964
 20
210.052868
 30
0.0
 10
32.265671
 20
209.799309
 30
0.0
  0
SPLINE
  5
165
100
AcDbEntity
  8
Layer_1
 62
3
100
AcDbSpline
 70
8
 71
3
 72
8
 73
4
 74
0
 40
0
 40
0
 40
0
 40
0
 40
1
 40
1
 40
1
 40
1
 10
32.265671
 20
209.799309
 30
0.0
 10
32.359378
 20
209.545750
 30
0.0
 10
32.502694
 20
209.325264
 30
0.0
 10
32.695619
 20
209.137851
 30
0.0
  0
SPLINE
  5
166
100
AcDbEntity
  8
Layer_1
 62
3
100
AcDbSpline
 70
8
 71
3
 72
8
 73
4
 74
0
 40
0
 40
0
 40
0
 40
0
 40
1
 40
1
 40
1
 40
1
 10
32.695619
 20
209.137851
 30
0.0
 10
32.883032
 20
208.950438
 30
0.0
 10
33.100762
 20
208.801609
 30
0.0
 10
33.348809
 20
208.691366
 30
0.0
  0
SPLINE
  5
167
100
AcDbEntity
  8
Layer_1
 62
3
100
AcDbSpline
 70
8
 71
3
 72
8
 73
4
 74
0
 40
0
 40
0
 40
0
 40
0
 40
1
 40
1
 40
1
 40
1
 10
33.348809
 20
208.691366
 30
0.0
 10
33.596856
 20
208.581123
 30
0.0
 10
33.913804
 20
208.526002
 30
0.0
 10
34.299655
 20
208.526002
 30
0.0
  0
LWPOLYLINE
  5
168
100
AcDbEntity
  8
Layer_1
 62
3
100
AcDbPolyline
 90
2
 70
0
 10
38.276673
 20
212.230168
 30
0.0
 10
33.977194
 20
212.230168
 30
0.0
  0
SPLINE
  5
169
100
AcDbEntity
  8
Layer_1
 62
3
100
AcDbSpline
 70
8
 71
3
 72
8
 73
4
 74
0
 40
0
 40
0
 40
0
 40
0
 40
1
 40
1
 40
1
 40
1
 10
38.284942
 20
208.526002
 30
0.0
 10
38.439282
 20
208.526002
 30
0.0
 10
38.574330
 20
208.495685
 30
0.0
 10
38.690085
 20
208.435052
 30
0.0
  0
SPLINE
  5
16a
100
AcDbEntity
  8
Layer_1
 62
3
100
AcDbSpline
 70
8
 71
3
 72
8
 73
4
 74
0
 40
0
 40
0
 40
0
 40
0
 40
1
 40
1
 40
1
 40
1
 10
38.690085
 20
208.435052
 30
0.0
 10
38.805840
 20
208.379932
 30
0.0
 10
38.902303
 20
208.305518
 30
0.0
 10
38.979473
 20
208.211810
 30
0.0
  0
SPLINE
  5
16b
100
AcDbEntity
  8
Layer_1
 62
3
100
AcDbSpline
 70
8
 71
3
 72
8
 73
4
 74
0
 40
0
 40
0
 40
0
 40
0
 40
1
 40
1
 40
1
 40
1
 10
38.979473
 20
208.211810
 30
0.0
 10
39.056643
 20
208.123615
 30
0.0
 10
39.114521
 20
208.018884
 30
0.0
 10
39.153106
 20
207.897617
 30
0.0
  0
SPLINE
  5
16c
100
AcDbEntity
  8
Layer_1
 62
3
100
AcDbSpline
 70
8
 71
3
 72
8
 73
4
 74
0
 40
0
 40
0
 40
0
 40
0
 40
1
 40
1
 40
1
 40
1
 10
39.153106
 20
207.897617
 30
0.0
 10
39.191693
 20
207.781862
 30
0.0
 10
39.210986
 20
207.663350
 30
0.0
 10
39.210986
 20
207.542083
 30
0.0
  0
SPLINE
  5
16d
100
AcDbEntity
  8
Layer_1
 62
3
100
AcDbSpline
 70
8
 71
3
 72
8
 73
4
 74
0
 40
0
 40
0
 40
0
 40
0
 40
1
 40
1
 40
1
 40
1
 10
39.210986
 20
207.542083
 30
0.0
 10
39.210986
 20
207.420816
 30
0.0
 10
39.191693
 20
207.302305
 30
0.0
 10
39.153106
 20
207.186550
 30
0.0
  0
SPLINE
  5
16e
100
AcDbEntity
  8
Layer_1
 62
3
100
AcDbSpline
 70
8
 71
3
 72
8
 73
4
 74
0
 40
0
 40
0
 40
0
 40
0
 40
1
 40
1
 40
1
 40
1
 10
39.153106
 20
207.186550
 30
0.0
 10
39.114519
 20
207.076307
 30
0.0
 10
39.056642
 20
206.974332
 30
0.0
 10
38.979473
 20
206.880625
 30
0.0
  0
SPLINE
  5
16f
100
AcDbEntity
  8
Layer_1
 62
3
100
AcDbSpline
 70
8
 71
3
 72
8
 73
4
 74
0
 40
0
 40
0
 40
0
 40
0
 40
1
 40
1
 40
1
 40
1
 10
38.979473
 20
206.880625
 30
0.0
 10
38.902303
 20
206.792430
 30
0.0
 10
38.805840
 20
206.720772
 30
0.0
 10
38.690085
 20
206.665651
 30
0.0
  0
SPLINE
  5
170
100
AcDbEntity
  8
Layer_1
 62
3
100
AcDbSpline
 70
8
 71
3
 72
8
 73
4
 74
0
 40
0
 40
0
 40
0
 40
0
 40
1
 40
1
 40
1
 40
1
 10
38.690085
 20
206.665651
 30
0.0
 10
38.574330
 20
206.610531
 30
0.0
 10
38.439282
 20
206.582971
 30
0.0
 10
38.284942
 20
206.582971
 30
0.0
  0
LWPOLYLINE
  5
171
100
AcDbEntity
  8
Layer_1
 62
3
100
AcDbPolyline
 90
2
 70
0
 10
34.299655
 20
208.526002
 30
0.0
 10
38.284942
 20
208.526002
 30
0.0
  0
SPLINE
  5
172
100
AcDbEntity
  8
Layer_1
 62
3
100
AcDbSpline
 70
8
 71
3
 72
8
 73
4
 74
0
 40
0
 40
0
 40
0
 40
0
 40
1
 40
1
 40
1
 40
1
 10
31.843991
 20
206.582971
 30
0.0
 10
31.695163
 20
206.582971
 30
0.0
 10
31.562871
 20
206.610531
 30
0.0
 10
31.447116
 20
206.665651
 30
0.0
  0
SPLINE
  5
173
100
AcDbEntity
  8
Layer_1
 62
3
100
AcDbSpline
 70
8
 71
3
 72
8
 73
4
 74
0
 40
0
 40
0
 40
0
 40
0
 40
1
 40
1
 40
1
 40
1
 10
31.447116
 20
206.665651
 30
0.0
 10
31.331361
 20
206.720771
 30
0.0
 10
31.237655
 20
206.792429
 30
0.0
 10
31.165997
 20
206.880625
 30
0.0
  0
SPLINE
  5
174
100
AcDbEntity
  8
Layer_1
 62
3
100
AcDbSpline
 70
8
 71
3
 72
8
 73
4
 74
0
 40
0
 40
0
 40
0
 40
0
 40
1
 40
1
 40
1
 40
1
 10
31.165997
 20
206.880625
 30
0.0
 10
31.088827
 20
206.974332
 30
0.0
 10
31.030949
 20
207.079063
 30
0.0
 10
30.992364
 20
207.194818
 30
0.0
  0
SPLINE
  5
175
100
AcDbEntity
  8
Layer_1
 62
3
100
AcDbSpline
 70
8
 71
3
 72
8
 73
4
 74
0
 40
0
 40
0
 40
0
 40
0
 40
1
 40
1
 40
1
 40
1
 10
30.992364
 20
207.194818
 30
0.0
 10
30.953777
 20
207.316085
 30
0.0
 10
30.934484
 20
207.437353
 30
0.0
 10
30.934484
 20
207.558620
 30
0.0
  0
SPLINE
  5
176
100
AcDbEntity
  8
Layer_1
 62
3
100
AcDbSpline
 70
8
 71
3
 72
8
 73
4
 74
0
 40
0
 40
0
 40
0
 40
0
 40
1
 40
1
 40
1
 40
1
 10
30.934484
 20
207.558620
 30
0.0
 10
30.934484
 20
207.674375
 30
0.0
 10
30.953777
 20
207.787374
 30
0.0
 10
30.992364
 20
207.897617
 30
0.0
  0
SPLINE
  5
177
100
AcDbEntity
  8
Layer_1
 62
3
100
AcDbSpline
 70
8
 71
3
 72
8
 73
4
 74
0
 40
0
 40
0
 40
0
 40
0
 40
1
 40
1
 40
1
 40
1
 10
30.992364
 20
207.897617
 30
0.0
 10
31.025437
 20
208.007860
 30
0.0
 10
31.077803
 20
208.107079
 30
0.0
 10
31.149460
 20
208.195273
 30
0.0
  0
SPLINE
  5
178
100
AcDbEntity
  8
Layer_1
 62
3
100
AcDbSpline
 70
8
 71
3
 72
8
 73
4
 74
0
 40
0
 40
0
 40
0
 40
0
 40
1
 40
1
 40
1
 40
1
 10
31.149460
 20
208.195273
 30
0.0
 10
31.215607
 20
208.288980
 30
0.0
 10
31.303801
 20
208.363394
 30
0.0
 10
31.414044
 20
208.418516
 30
0.0
  0
SPLINE
  5
179
100
AcDbEntity
  8
Layer_1
 62
3
100
AcDbSpline
 70
8
 71
3
 72
8
 73
4
 74
0
 40
0
 40
0
 40
0
 40
0
 40
1
 40
1
 40
1
 40
1
 10
31.414044
 20
208.418516
 30
0.0
 10
31.518775
 20
208.473636
 30
0.0
 10
31.642798
 20
208.506709
 30
0.0
 10
31.786114
 20
208.517736
 30
0.0
  0
SPLINE
  5
17a
100
AcDbEntity
  8
Layer_1
 62
3
100
AcDbSpline
 70
8
 71
3
 72
8
 73
4
 74
0
 40
0
 40
0
 40
0
 40
0
 40
1
 40
1
 40
1
 40
1
 10
31.786114
 20
208.517736
 30
0.0
 10
31.791647
 20
208.517736
 30
0.0
 10
31.827476
 20
208.517736
 30
0.0
 10
31.893601
 20
208.517736
 30
0.0
  0
SPLINE
  5
17b
100
AcDbEntity
  8
Layer_1
 62
3
100
AcDbSpline
 70
8
 71
3
 72
8
 73
4
 74
0
 40
0
 40
0
 40
0
 40
0
 40
1
 40
1
 40
1
 40
1
 10
31.893601
 20
208.517736
 30
0.0
 10
31.959748
 20
208.523269
 30
0.0
 10
32.031406
 20
208.526036
 30
0.0
 10
32.108575
 20
208.526036
 30
0.0
  0
SPLINE
  5
17c
100
AcDbEntity
  8
Layer_1
 62
3
100
AcDbSpline
 70
8
 71
3
 72
8
 73
4
 74
0
 40
0
 40
0
 40
0
 40
0
 40
1
 40
1
 40
1
 40
1
 10
32.108575
 20
208.526036
 30
0.0
 10
32.185745
 20
208.526036
 30
0.0
 10
32.262915
 20
208.526036
 30
0.0
 10
32.340085
 20
208.526036
 30
0.0
  0
SPLINE
  5
17d
100
AcDbEntity
  8
Layer_1
 62
3
100
AcDbSpline
 70
8
 71
3
 72
8
 73
4
 74
0
 40
0
 40
0
 40
0
 40
0
 40
1
 40
1
 40
1
 40
1
 10
32.340085
 20
208.526036
 30
0.0
 10
32.411743
 20
208.526036
 30
0.0
 10
32.450328
 20
208.526036
 30
0.0
 10
32.455840
 20
208.526036
 30
0.0
  0
SPLINE
  5
17e
100
AcDbEntity
  8
Layer_1
 62
3
100
AcDbSpline
 70
8
 71
3
 72
8
 73
4
 74
0
 40
0
 40
0
 40
0
 40
0
 40
1
 40
1
 40
1
 40
1
 10
32.455840
 20
208.526036
 30
0.0
 10
32.251891
 20
208.630767
 30
0.0
 10
32.042429
 20
208.779595
 30
0.0
 10
31.827455
 20
208.972520
 30
0.0
  0
SPLINE
  5
17f
100
AcDbEntity
  8
Layer_1
 62
3
100
AcDbSpline
 70
8
 71
3
 72
8
 73
4
 74
0
 40
0
 40
0
 40
0
 40
0
 40
1
 40
1
 40
1
 40
1
 10
31.827455
 20
208.972520
 30
0.0
 10
31.612481
 20
209.165445
 30
0.0
 10
31.433336
 20
209.383175
 30
0.0
 10
31.290020
 20
209.625710
 30
0.0
  0
SPLINE
  5
180
100
AcDbEntity
  8
Layer_1
 62
3
100
AcDbSpline
 70
8
 71
3
 72
8
 73
4
 74
0
 40
0
 40
0
 40
0
 40
0
 40
1
 40
1
 40
1
 40
1
 10
31.290020
 20
209.625710
 30
0.0
 10
31.141192
 20
209.873757
 30
0.0
 10
31.028193
 20
210.138340
 30
0.0
 10
30.951023
 20
210.419460
 30
0.0
  0
SPLINE
  5
181
100
AcDbEntity
  8
Layer_1
 62
3
100
AcDbSpline
 70
8
 71
3
 72
8
 73
4
 74
0
 40
0
 40
0
 40
0
 40
0
 40
1
 40
1
 40
1
 40
1
 10
30.951023
 20
210.419460
 30
0.0
 10
30.873853
 20
210.706092
 30
0.0
 10
30.835268
 20
210.995480
 30
0.0
 10
30.835268
 20
211.287624
 30
0.0
  0
SPLINE
  5
182
100
AcDbEntity
  8
Layer_1
 62
3
100
AcDbSpline
 70
8
 71
3
 72
8
 73
4
 74
0
 40
0
 40
0
 40
0
 40
0
 40
1
 40
1
 40
1
 40
1
 10
30.835268
 20
211.287624
 30
0.0
 10
30.835268
 20
211.585280
 30
0.0
 10
30.873853
 20
211.874668
 30
0.0
 10
30.951023
 20
212.155788
 30
0.0
  0
SPLINE
  5
183
100
AcDbEntity
  8
Layer_1
 62
3
100
AcDbSpline
 70
8
 71
3
 72
8
 73
4
 74
0
 40
0
 40
0
 40
0
 40
0
 40
1
 40
1
 40
1
 40
1
 10
30.951023
 20
212.155788
 30
0.0
 10
31.022681
 20
212.436908
 30
0.0
 10
31.135680
 20
212.693223
 30
0.0
 10
31.290020
 20
212.924733
 30
0.0
  0
SPLINE
  5
184
100
AcDbEntity
  8
Layer_1
 62
3
100
AcDbSpline
 70
8
 71
3
 72
8
 73
4
 74
0
 40
0
 40
0
 40
0
 40
0
 40
1
 40
1
 40
1
 40
1
 10
31.290020
 20
212.924733
 30
0.0
 10
31.444361
 20
213.161756
 30
0.0
 10
31.640042
 20
213.371218
 30
0.0
 10
31.877064
 20
213.553119
 30
0.0
  0
SPLINE
  5
185
100
AcDbEntity
  8
Layer_1
 62
3
100
AcDbSpline
 70
8
 71
3
 72
8
 73
4
 74
0
 40
0
 40
0
 40
0
 40
0
 40
1
 40
1
 40
1
 40
1
 10
31.877064
 20
213.553119
 30
0.0
 10
32.114087
 20
213.735020
 30
0.0
 10
32.397963
 20
213.878336
 30
0.0
 10
32.728692
 20
213.983067
 30
0.0
  0
SPLINE
  5
186
100
AcDbEntity
  8
Layer_1
 62
3
100
AcDbSpline
 70
8
 71
3
 72
8
 73
4
 74
0
 40
0
 40
0
 40
0
 40
0
 40
1
 40
1
 40
1
 40
1
 10
32.728692
 20
213.983067
 30
0.0
 10
32.375914
 20
214.170480
 30
0.0
 10
32.081014
 20
214.377185
 30
0.0
 10
31.843991
 20
214.603184
 30
0.0
  0
SPLINE
  5
187
100
AcDbEntity
  8
Layer_1
 62
3
100
AcDbSpline
 70
8
 71
3
 72
8
 73
4
 74
0
 40
0
 40
0
 40
0
 40
0
 40
1
 40
1
 40
1
 40
1
 10
31.843991
 20
214.603184
 30
0.0
 10
31.601456
 20
214.834694
 30
0.0
 10
31.405775
 20
215.077229
 30
0.0
 10
31.256947
 20
215.330788
 30
0.0
  0
SPLINE
  5
188
100
AcDbEntity
  8
Layer_1
 62
3
100
AcDbSpline
 70
8
 71
3
 72
8
 73
4
 74
0
 40
0
 40
0
 40
0
 40
0
 40
1
 40
1
 40
1
 40
1
 10
31.256947
 20
215.330788
 30
0.0
 10
31.108119
 20
215.584347
 30
0.0
 10
31.000632
 20
215.846174
 30
0.0
 10
30.934486
 20
216.116270
 30
0.0
  0
SPLINE
  5
189
100
AcDbEntity
  8
Layer_1
 62
3
100
AcDbSpline
 70
8
 71
3
 72
8
 73
4
 74
0
 40
0
 40
0
 40
0
 40
0
 40
1
 40
1
 40
1
 40
1
 10
30.934486
 20
216.116270
 30
0.0
 10
30.868339
 20
216.391877
 30
0.0
 10
30.835266
 20
216.667485
 30
0.0
 10
30.835266
 20
216.943092
 30
0.0
  0
SPLINE
  5
18a
100
AcDbEntity
  8
Layer_1
 62
3
100
AcDbSpline
 70
8
 71
3
 72
8
 73
4
 74
0
 40
0
 40
0
 40
0
 40
0
 40
1
 40
1
 40
1
 40
1
 10
30.835266
 20
216.943092
 30
0.0
 10
30.835266
 20
217.328943
 30
0.0
 10
30.898656
 20
217.695501
 30
0.0
 10
31.025435
 20
218.042767
 30
0.0
  0
SPLINE
  5
18b
100
AcDbEntity
  8
Layer_1
 62
3
100
AcDbSpline
 70
8
 71
3
 72
8
 73
4
 74
0
 40
0
 40
0
 40
0
 40
0
 40
1
 40
1
 40
1
 40
1
 10
31.025435
 20
218.042767
 30
0.0
 10
31.146702
 20
218.390032
 30
0.0
 10
31.336872
 20
218.695957
 30
0.0
 10
31.595943
 20
218.960540
 30
0.0
  0
SPLINE
  5
18c
100
AcDbEntity
  8
Layer_1
 62
3
100
AcDbSpline
 70
8
 71
3
 72
8
 73
4
 74
0
 40
0
 40
0
 40
0
 40
0
 40
1
 40
1
 40
1
 40
1
 10
31.595943
 20
218.960540
 30
0.0
 10
31.849502
 20
219.225123
 30
0.0
 10
32.174719
 20
219.434585
 30
0.0
 10
32.571594
 20
219.588926
 30
0.0
  0
SPLINE
  5
18d
100
AcDbEntity
  8
Layer_1
 62
3
100
AcDbSpline
 70
8
 71
3
 72
8
 73
4
 74
0
 40
0
 40
0
 40
0
 40
0
 40
1
 40
1
 40
1
 40
1
 10
32.571594
 20
219.588926
 30
0.0
 10
32.968469
 20
219.743266
 30
0.0
 10
33.442514
 20
219.820436
 30
0.0
 10
33.993729
 20
219.820436
 30
0.0
  0
LWPOLYLINE
  5
18e
100
AcDbEntity
  8
Layer_1
 62
3
100
AcDbPolyline
 90
2
 70
0
 10
38.284942
 20
206.582971
 30
0.0
 10
31.843991
 20
206.582971
 30
0.0
  0
SPLINE
  5
18f
100
AcDbEntity
  8
Layer_1
 62
3
100
AcDbSpline
 70
8
 71
3
 72
8
 73
4
 74
0
 40
0
 40
0
 40
0
 40
0
 40
1
 40
1
 40
1
 40
1
 10
38.284940
 20
219.820436
 30
0.0
 10
38.439280
 20
219.820436
 30
0.0
 10
38.574328
 20
219.790119
 30
0.0
 10
38.690083
 20
219.729486
 30
0.0
  0
SPLINE
  5
190
100
AcDbEntity
  8
Layer_1
 62
3
100
AcDbSpline
 70
8
 71
3
 72
8
 73
4
 74
0
 40
0
 40
0
 40
0
 40
0
 40
1
 40
1
 40
1
 40
1
 10
38.690083
 20
219.729486
 30
0.0
 10
38.805838
 20
219.674366
 30
0.0
 10
38.902301
 20
219.599952
 30
0.0
 10
38.979471
 20
219.506243
 30
0.0
  0
SPLINE
  5
191
100
AcDbEntity
  8
Layer_1
 62
3
100
AcDbSpline
 70
8
 71
3
 72
8
 73
4
 74
0
 40
0
 40
0
 40
0
 40
0
 40
1
 40
1
 40
1
 40
1
 10
38.979471
 20
219.506243
 30
0.0
 10
39.056641
 20
219.418049
 30
0.0
 10
39.114519
 20
219.313318
 30
0.0
 10
39.153104
 20
219.192051
 30
0.0
  0
SPLINE
  5
192
100
AcDbEntity
  8
Layer_1
 62
3
100
AcDbSpline
 70
8
 71
3
 72
8
 73
4
 74
0
 40
0
 40
0
 40
0
 40
0
 40
1
 40
1
 40
1
 40
1
 10
39.153104
 20
219.192051
 30
0.0
 10
39.191691
 20
219.076296
 30
0.0
 10
39.210984
 20
218.957784
 30
0.0
 10
39.210984
 20
218.836517
 30
0.0
  0
SPLINE
  5
193
100
AcDbEntity
  8
Layer_1
 62
3
100
AcDbSpline
 70
8
 71
3
 72
8
 73
4
 74
0
 40
0
 40
0
 40
0
 40
0
 40
1
 40
1
 40
1
 40
1
 10
39.210984
 20
218.836517
 30
0.0
 10
39.210984
 20
218.715250
 30
0.0
 10
39.191691
 20
218.596738
 30
0.0
 10
39.153104
 20
218.480983
 30
0.0
  0
SPLINE
  5
194
100
AcDbEntity
  8
Layer_1
 62
3
100
AcDbSpline
 70
8
 71
3
 72
8
 73
4
 74
0
 40
0
 40
0
 40
0
 40
0
 40
1
 40
1
 40
1
 40
1
 10
39.153104
 20
218.480983
 30
0.0
 10
39.114517
 20
218.370740
 30
0.0
 10
39.056640
 20
218.268765
 30
0.0
 10
38.979471
 20
218.175059
 30
0.0
  0
SPLINE
  5
195
100
AcDbEntity
  8
Layer_1
 62
3
100
AcDbSpline
 70
8
 71
3
 72
8
 73
4
 74
0
 40
0
 40
0
 40
0
 40
0
 40
1
 40
1
 40
1
 40
1
 10
38.979471
 20
218.175059
 30
0.0
 10
38.902301
 20
218.086864
 30
0.0
 10
38.805838
 20
218.015206
 30
0.0
 10
38.690083
 20
217.960085
 30
0.0
  0
SPLINE
  5
196
100
AcDbEntity
  8
Layer_1
 62
3
100
AcDbSpline
 70
8
 71
3
 72
8
 73
4
 74
0
 40
0
 40
0
 40
0
 40
0
 40
1
 40
1
 40
1
 40
1
 10
38.690083
 20
217.960085
 30
0.0
 10
38.574328
 20
217.904965
 30
0.0
 10
38.439280
 20
217.877405
 30
0.0
 10
38.284940
 20
217.877405
 30
0.0
  0
LWPOLYLINE
  5
197
100
AcDbEntity
  8
Layer_1
 62
3
100
AcDbPolyline
 90
2
 70
0
 10
33.993729
 20
219.820436
 30
0.0
 10
38.284940
 20
219.820436
 30
0.0
  0
SPLINE
  5
198
100
AcDbEntity
  8
Layer_1
 62
3
100
AcDbSpline
 70
8
 71
3
 72
8
 73
4
 74
0
 40
0
 40
0
 40
0
 40
0
 40
1
 40
1
 40
1
 40
1
 10
32.431036
 20
223.956164
 30
0.0
 10
32.205037
 20
224.104993
 30
0.0
 10
31.987307
 20
224.284138
 30
0.0
 10
31.777846
 20
224.493599
 30
0.0
  0
SPLINE
  5
199
100
AcDbEntity
  8
Layer_1
 62
3
100
AcDbSpline
 70
8
 71
3
 72
8
 73
4
 74
0
 40
0
 40
0
 40
0
 40
0
 40
1
 40
1
 40
1
 40
1
 10
31.777846
 20
224.493599
 30
0.0
 10
31.568384
 20
224.703061
 30
0.0
 10
31.394751
 20
224.931815
 30
0.0
 10
31.256947
 20
225.179862
 30
0.0
  0
SPLINE
  5
19a
100
AcDbEntity
  8
Layer_1
 62
3
100
AcDbSpline
 70
8
 71
3
 72
8
 73
4
 74
0
 40
0
 40
0
 40
0
 40
0
 40
1
 40
1
 40
1
 40
1
 10
31.256947
 20
225.179862
 30
0.0
 10
31.113631
 20
225.433421
 30
0.0
 10
31.008900
 20
225.700761
 30
0.0
 10
30.942755
 20
225.981881
 30
0.0
  0
SPLINE
  5
19b
100
AcDbEntity
  8
Layer_1
 62
3
100
AcDbSpline
 70
8
 71
3
 72
8
 73
4
 74
0
 40
0
 40
0
 40
0
 40
0
 40
1
 40
1
 40
1
 40
1
 10
30.942755
 20
225.981881
 30
0.0
 10
30.871097
 20
226.268512
 30
0.0
 10
30.835268
 20
226.560656
 30
0.0
 10
30.835268
 20
226.858313
 30
0.0
  0
SPLINE
  5
19c
100
AcDbEntity
  8
Layer_1
 62
3
100
AcDbSpline
 70
8
 71
3
 72
8
 73
4
 74
0
 40
0
 40
0
 40
0
 40
0
 40
1
 40
1
 40
1
 40
1
 10
30.835268
 20
226.858313
 30
0.0
 10
30.835268
 20
227.426064
 30
0.0
 10
30.953779
 20
227.922158
 30
0.0
 10
31.190801
 20
228.346594
 30
0.0
  0
SPLINE
  5
19d
100
AcDbEntity
  8
Layer_1
 62
3
100
AcDbSpline
 70
8
 71
3
 72
8
 73
4
 74
0
 40
0
 40
0
 40
0
 40
0
 40
1
 40
1
 40
1
 40
1
 10
31.190801
 20
228.346594
 30
0.0
 10
31.427824
 20
228.776542
 30
0.0
 10
31.747529
 20
229.132076
 30
0.0
 10
32.149916
 20
229.413195
 30
0.0
  0
SPLINE
  5
19e
100
AcDbEntity
  8
Layer_1
 62
3
100
AcDbSpline
 70
8
 71
3
 72
8
 73
4
 74
0
 40
0
 40
0
 40
0
 40
0
 40
1
 40
1
 40
1
 40
1
 10
32.149916
 20
229.413195
 30
0.0
 10
32.552303
 20
229.699827
 30
0.0
 10
33.018080
 20
229.912045
 30
0.0
 10
33.547247
 20
230.049849
 30
0.0
  0
SPLINE
  5
19f
100
AcDbEntity
  8
Layer_1
 62
3
100
AcDbSpline
 70
8
 71
3
 72
8
 73
4
 74
0
 40
0
 40
0
 40
0
 40
0
 40
1
 40
1
 40
1
 40
1
 10
33.547247
 20
230.049849
 30
0.0
 10
34.070901
 20
230.193165
 30
0.0
 10
34.597311
 20
230.264823
 30
0.0
 10
35.126478
 20
230.264823
 30
0.0
  0
SPLINE
  5
1a0
100
AcDbEntity
  8
Layer_1
 62
3
100
AcDbSpline
 70
8
 71
3
 72
8
 73
4
 74
0
 40
0
 40
0
 40
0
 40
0
 40
1
 40
1
 40
1
 40
1
 10
35.126478
 20
230.264823
 30
0.0
 10
35.655645
 20
230.264823
 30
0.0
 10
36.182055
 20
230.187653
 30
0.0
 10
36.705710
 20
230.033313
 30
0.0
  0
SPLINE
  5
1a1
100
AcDbEntity
  8
Layer_1
 62
3
100
AcDbSpline
 70
8
 71
3
 72
8
 73
4
 74
0
 40
0
 40
0
 40
0
 40
0
 40
1
 40
1
 40
1
 40
1
 10
36.705710
 20
230.033313
 30
0.0
 10
37.229365
 20
229.884484
 30
0.0
 10
37.684117
 20
229.663998
 30
0.0
 10
38.069968
 20
229.371854
 30
0.0
  0
SPLINE
  5
1a2
100
AcDbEntity
  8
Layer_1
 62
3
100
AcDbSpline
 70
8
 71
3
 72
8
 73
4
 74
0
 40
0
 40
0
 40
0
 40
0
 40
1
 40
1
 40
1
 40
1
 10
38.069968
 20
229.371854
 30
0.0
 10
38.455819
 20
229.079710
 30
0.0
 10
38.758987
 20
228.718664
 30
0.0
 10
38.979473
 20
228.288716
 30
0.0
  0
SPLINE
  5
1a3
100
AcDbEntity
  8
Layer_1
 62
3
100
AcDbSpline
 70
8
 71
3
 72
8
 73
4
 74
0
 40
0
 40
0
 40
0
 40
0
 40
1
 40
1
 40
1
 40
1
 10
38.979473
 20
228.288716
 30
0.0
 10
39.199959
 20
227.864281
 30
0.0
 10
39.310202
 20
227.373699
 30
0.0
 10
39.310202
 20
226.816972
 30
0.0
  0
SPLINE
  5
1a4
100
AcDbEntity
  8
Layer_1
 62
3
100
AcDbSpline
 70
8
 71
3
 72
8
 73
4
 74
0
 40
0
 40
0
 40
0
 40
0
 40
1
 40
1
 40
1
 40
1
 10
39.310202
 20
226.816972
 30
0.0
 10
39.310202
 20
226.535852
 30
0.0
 10
39.277129
 20
226.257488
 30
0.0
 10
39.210982
 20
225.981881
 30
0.0
  0
SPLINE
  5
1a5
100
AcDbEntity
  8
Layer_1
 62
3
100
AcDbSpline
 70
8
 71
3
 72
8
 73
4
 74
0
 40
0
 40
0
 40
0
 40
0
 40
1
 40
1
 40
1
 40
1
 10
39.210982
 20
225.981881
 30
0.0
 10
39.139324
 20
225.706273
 30
0.0
 10
39.034593
 20
225.444446
 30
0.0
 10
38.896790
 20
225.196399
 30
0.0
  0
SPLINE
  5
1a6
100
AcDbEntity
  8
Layer_1
 62
3
100
AcDbSpline
 70
8
 71
3
 72
8
 73
4
 74
0
 40
0
 40
0
 40
0
 40
0
 40
1
 40
1
 40
1
 40
1
 10
38.896790
 20
225.196399
 30
0.0
 10
38.758986
 20
224.948352
 30
0.0
 10
38.588109
 20
224.716842
 30
0.0
 10
38.384159
 20
224.501868
 30
0.0
  0
SPLINE
  5
1a7
100
AcDbEntity
  8
Layer_1
 62
3
100
AcDbSpline
 70
8
 71
3
 72
8
 73
4
 74
0
 40
0
 40
0
 40
0
 40
0
 40
1
 40
1
 40
1
 40
1
 10
38.384159
 20
224.501868
 30
0.0
 10
38.174698
 20
224.292406
 30
0.0
 10
37.967992
 20
224.110505
 30
0.0
 10
37.764042
 20
223.956164
 30
0.0
  0
LWPOLYLINE
  5
1a8
100
AcDbEntity
  8
Layer_1
 62
3
100
AcDbPolyline
 90
2
 70
0
 10
38.284940
 20
217.877405
 30
0.0
 10
33.977194
 20
217.877363
 30
0.0
  0
SPLINE
  5
1a9
100
AcDbEntity
  8
Layer_1
 62
3
100
AcDbSpline
 70
8
 71
3
 72
8
 73
4
 74
0
 40
0
 40
0
 40
0
 40
0
 40
1
 40
1
 40
1
 40
1
 10
41.459940
 20
223.956164
 30
0.0
 10
41.608769
 20
223.956164
 30
0.0
 10
41.741060
 20
223.928604
 30
0.0
 10
41.856815
 20
223.873484
 30
0.0
  0
SPLINE
  5
1aa
100
AcDbEntity
  8
Layer_1
 62
3
100
AcDbSpline
 70
8
 71
3
 72
8
 73
4
 74
0
 40
0
 40
0
 40
0
 40
0
 40
1
 40
1
 40
1
 40
1
 10
41.856815
 20
223.873484
 30
0.0
 10
41.972570
 20
223.818364
 30
0.0
 10
42.066277
 20
223.743950
 30
0.0
 10
42.137935
 20
223.650242
 30
0.0
  0
SPLINE
  5
1ab
100
AcDbEntity
  8
Layer_1
 62
3
100
AcDbSpline
 70
8
 71
3
 72
8
 73
4
 74
0
 40
0
 40
0
 40
0
 40
0
 40
1
 40
1
 40
1
 40
1
 10
42.137935
 20
223.650242
 30
0.0
 10
42.215105
 20
223.562047
 30
0.0
 10
42.272983
 20
223.460073
 30
0.0
 10
42.311568
 20
223.344318
 30
0.0
  0
SPLINE
  5
1ac
100
AcDbEntity
  8
Layer_1
 62
3
100
AcDbSpline
 70
8
 71
3
 72
8
 73
4
 74
0
 40
0
 40
0
 40
0
 40
0
 40
1
 40
1
 40
1
 40
1
 10
42.311568
 20
223.344318
 30
0.0
 10
42.350155
 20
223.228563
 30
0.0
 10
42.369448
 20
223.110051
 30
0.0
 10
42.369448
 20
222.988784
 30
0.0
  0
SPLINE
  5
1ad
100
AcDbEntity
  8
Layer_1
 62
3
100
AcDbSpline
 70
8
 71
3
 72
8
 73
4
 74
0
 40
0
 40
0
 40
0
 40
0
 40
1
 40
1
 40
1
 40
1
 10
42.369448
 20
222.988784
 30
0.0
 10
42.369448
 20
222.867517
 30
0.0
 10
42.350155
 20
222.749005
 30
0.0
 10
42.311568
 20
222.633250
 30
0.0
  0
SPLINE
  5
1ae
100
AcDbEntity
  8
Layer_1
 62
3
100
AcDbSpline
 70
8
 71
3
 72
8
 73
4
 74
0
 40
0
 40
0
 40
0
 40
0
 40
1
 40
1
 40
1
 40
1
 10
42.311568
 20
222.633250
 30
0.0
 10
42.272981
 20
222.517495
 30
0.0
 10
42.215104
 20
222.412764
 30
0.0
 10
42.137935
 20
222.319057
 30
0.0
  0
SPLINE
  5
1af
100
AcDbEntity
  8
Layer_1
 62
3
100
AcDbSpline
 70
8
 71
3
 72
8
 73
4
 74
0
 40
0
 40
0
 40
0
 40
0
 40
1
 40
1
 40
1
 40
1
 10
42.137935
 20
222.319057
 30
0.0
 10
42.066277
 20
222.230863
 30
0.0
 10
41.972570
 20
222.159205
 30
0.0
 10
41.856815
 20
222.104083
 30
0.0
  0
SPLINE
  5
1b0
100
AcDbEntity
  8
Layer_1
 62
3
100
AcDbSpline
 70
8
 71
3
 72
8
 73
4
 74
0
 40
0
 40
0
 40
0
 40
0
 40
1
 40
1
 40
1
 40
1
 10
41.856815
 20
222.104083
 30
0.0
 10
41.741060
 20
222.048963
 30
0.0
 10
41.608769
 20
222.021403
 30
0.0
 10
41.459940
 20
222.021403
 30
0.0
  0
LWPOLYLINE
  5
1b1
100
AcDbEntity
  8
Layer_1
 62
3
100
AcDbPolyline
 90
2
 70
0
 10
37.764042
 20
223.956164
 30
0.0
 10
41.459940
 20
223.956164
 30
0.0
  0
SPLINE
  5
1b2
100
AcDbEntity
  8
Layer_1
 62
3
100
AcDbSpline
 70
8
 71
3
 72
8
 73
4
 74
0
 40
0
 40
0
 40
0
 40
0
 40
1
 40
1
 40
1
 40
1
 10
31.852260
 20
222.021403
 30
0.0
 10
31.697919
 20
222.021403
 30
0.0
 10
31.565628
 20
222.048963
 30
0.0
 10
31.455385
 20
222.104083
 30
0.0
  0
SPLINE
  5
1b3
100
AcDbEntity
  8
Layer_1
 62
3
100
AcDbSpline
 70
8
 71
3
 72
8
 73
4
 74
0
 40
0
 40
0
 40
0
 40
0
 40
1
 40
1
 40
1
 40
1
 10
31.455385
 20
222.104083
 30
0.0
 10
31.339630
 20
222.159203
 30
0.0
 10
31.243167
 20
222.230861
 30
0.0
 10
31.165997
 20
222.319057
 30
0.0
  0
SPLINE
  5
1b4
100
AcDbEntity
  8
Layer_1
 62
3
100
AcDbSpline
 70
8
 71
3
 72
8
 73
4
 74
0
 40
0
 40
0
 40
0
 40
0
 40
1
 40
1
 40
1
 40
1
 10
31.165997
 20
222.319057
 30
0.0
 10
31.088827
 20
222.407252
 30
0.0
 10
31.030949
 20
222.506470
 30
0.0
 10
30.992364
 20
222.616713
 30
0.0
  0
SPLINE
  5
1b5
100
AcDbEntity
  8
Layer_1
 62
3
100
AcDbSpline
 70
8
 71
3
 72
8
 73
4
 74
0
 40
0
 40
0
 40
0
 40
0
 40
1
 40
1
 40
1
 40
1
 10
30.992364
 20
222.616713
 30
0.0
 10
30.953777
 20
222.732468
 30
0.0
 10
30.934484
 20
222.850980
 30
0.0
 10
30.934484
 20
222.972247
 30
0.0
  0
SPLINE
  5
1b6
100
AcDbEntity
  8
Layer_1
 62
3
100
AcDbSpline
 70
8
 71
3
 72
8
 73
4
 74
0
 40
0
 40
0
 40
0
 40
0
 40
1
 40
1
 40
1
 40
1
 10
30.934484
 20
222.972247
 30
0.0
 10
30.934484
 20
223.088002
 30
0.0
 10
30.953777
 20
223.201002
 30
0.0
 10
30.992364
 20
223.311245
 30
0.0
  0
SPLINE
  5
1b7
100
AcDbEntity
  8
Layer_1
 62
3
100
AcDbSpline
 70
8
 71
3
 72
8
 73
4
 74
0
 40
0
 40
0
 40
0
 40
0
 40
1
 40
1
 40
1
 40
1
 10
30.992364
 20
223.311245
 30
0.0
 10
31.025437
 20
223.421488
 30
0.0
 10
31.077803
 20
223.520706
 30
0.0
 10
31.149460
 20
223.608901
 30
0.0
  0
SPLINE
  5
1b8
100
AcDbEntity
  8
Layer_1
 62
3
100
AcDbSpline
 70
8
 71
3
 72
8
 73
4
 74
0
 40
0
 40
0
 40
0
 40
0
 40
1
 40
1
 40
1
 40
1
 10
31.149460
 20
223.608901
 30
0.0
 10
31.215607
 20
223.702608
 30
0.0
 10
31.301045
 20
223.779778
 30
0.0
 10
31.405775
 20
223.840411
 30
0.0
  0
SPLINE
  5
1b9
100
AcDbEntity
  8
Layer_1
 62
3
100
AcDbSpline
 70
8
 71
3
 72
8
 73
4
 74
0
 40
0
 40
0
 40
0
 40
0
 40
1
 40
1
 40
1
 40
1
 10
31.405775
 20
223.840411
 30
0.0
 10
31.510506
 20
223.901044
 30
0.0
 10
31.631774
 20
223.939629
 30
0.0
 10
31.769577
 20
223.956166
 30
0.0
  0
LWPOLYLINE
  5
1ba
100
AcDbEntity
  8
Layer_1
 62
3
100
AcDbPolyline
 90
2
 70
0
 10
41.459940
 20
222.021403
 30
0.0
 10
31.852260
 20
222.021403
 30
0.0
  0
SPLINE
  5
1bb
100
AcDbEntity
  8
Layer_1
 62
3
100
AcDbSpline
 70
8
 71
3
 72
8
 73
4
 74
0
 40
0
 40
0
 40
0
 40
0
 40
1
 40
1
 40
1
 40
1
 10
35.101674
 20
223.964464
 30
0.0
 10
35.487525
 20
223.964464
 30
0.0
 10
35.845814
 20
224.003049
 30
0.0
 10
36.176543
 20
224.080219
 30
0.0
  0
SPLINE
  5
1bc
100
AcDbEntity
  8
Layer_1
 62
3
100
AcDbSpline
 70
8
 71
3
 72
8
 73
4
 74
0
 40
0
 40
0
 40
0
 40
0
 40
1
 40
1
 40
1
 40
1
 10
36.176543
 20
224.080219
 30
0.0
 10
36.507272
 20
224.162901
 30
0.0
 10
36.810441
 20
224.292437
 30
0.0
 10
37.086048
 20
224.468826
 30
0.0
  0
SPLINE
  5
1bd
100
AcDbEntity
  8
Layer_1
 62
3
100
AcDbSpline
 70
8
 71
3
 72
8
 73
4
 74
0
 40
0
 40
0
 40
0
 40
0
 40
1
 40
1
 40
1
 40
1
 10
37.086048
 20
224.468826
 30
0.0
 10
37.361656
 20
224.645215
 30
0.0
 10
37.582142
 20
224.873969
 30
0.0
 10
37.747507
 20
225.155089
 30
0.0
  0
SPLINE
  5
1be
100
AcDbEntity
  8
Layer_1
 62
3
100
AcDbSpline
 70
8
 71
3
 72
8
 73
4
 74
0
 40
0
 40
0
 40
0
 40
0
 40
1
 40
1
 40
1
 40
1
 10
37.747507
 20
225.155089
 30
0.0
 10
37.907359
 20
225.441721
 30
0.0
 10
37.987285
 20
225.788986
 30
0.0
 10
37.987285
 20
226.196885
 30
0.0
  0
SPLINE
  5
1bf
100
AcDbEntity
  8
Layer_1
 62
3
100
AcDbSpline
 70
8
 71
3
 72
8
 73
4
 74
0
 40
0
 40
0
 40
0
 40
0
 40
1
 40
1
 40
1
 40
1
 10
37.987285
 20
226.196885
 30
0.0
 10
37.987285
 20
226.604784
 30
0.0
 10
37.899091
 20
226.941026
 30
0.0
 10
37.722702
 20
227.205609
 30
0.0
  0
SPLINE
  5
1c0
100
AcDbEntity
  8
Layer_1
 62
3
100
AcDbSpline
 70
8
 71
3
 72
8
 73
4
 74
0
 40
0
 40
0
 40
0
 40
0
 40
1
 40
1
 40
1
 40
1
 10
37.722702
 20
227.205609
 30
0.0
 10
37.546313
 20
227.475705
 30
0.0
 10
37.314803
 20
227.687923
 30
0.0
 10
37.028171
 20
227.842263
 30
0.0
  0
SPLINE
  5
1c1
100
AcDbEntity
  8
Layer_1
 62
3
100
AcDbSpline
 70
8
 71
3
 72
8
 73
4
 74
0
 40
0
 40
0
 40
0
 40
0
 40
1
 40
1
 40
1
 40
1
 10
37.028171
 20
227.842263
 30
0.0
 10
36.741539
 20
228.002116
 30
0.0
 10
36.416322
 20
228.112359
 30
0.0
 10
36.052520
 20
228.172992
 30
0.0
  0
SPLINE
  5
1c2
100
AcDbEntity
  8
Layer_1
 62
3
100
AcDbSpline
 70
8
 71
3
 72
8
 73
4
 74
0
 40
0
 40
0
 40
0
 40
0
 40
1
 40
1
 40
1
 40
1
 10
36.052520
 20
228.172992
 30
0.0
 10
35.688718
 20
228.233625
 30
0.0
 10
35.360745
 20
228.263942
 30
0.0
 10
35.068601
 20
228.263942
 30
0.0
  0
SPLINE
  5
1c3
100
AcDbEntity
  8
Layer_1
 62
3
100
AcDbSpline
 70
8
 71
3
 72
8
 73
4
 74
0
 40
0
 40
0
 40
0
 40
0
 40
1
 40
1
 40
1
 40
1
 10
35.068601
 20
228.263942
 30
0.0
 10
34.765432
 20
228.263942
 30
0.0
 10
34.434703
 20
228.233625
 30
0.0
 10
34.076413
 20
228.172992
 30
0.0
  0
SPLINE
  5
1c4
100
AcDbEntity
  8
Layer_1
 62
3
100
AcDbSpline
 70
8
 71
3
 72
8
 73
4
 74
0
 40
0
 40
0
 40
0
 40
0
 40
1
 40
1
 40
1
 40
1
 10
34.076413
 20
228.172992
 30
0.0
 10
33.718123
 20
228.112359
 30
0.0
 10
33.395662
 20
228.004872
 30
0.0
 10
33.109030
 20
227.850531
 30
0.0
  0
SPLINE
  5
1c5
100
AcDbEntity
  8
Layer_1
 62
3
100
AcDbSpline
 70
8
 71
3
 72
8
 73
4
 74
0
 40
0
 40
0
 40
0
 40
0
 40
1
 40
1
 40
1
 40
1
 10
33.109030
 20
227.850531
 30
0.0
 10
32.816886
 20
227.696191
 30
0.0
 10
32.579864
 20
227.486729
 30
0.0
 10
32.397963
 20
227.222146
 30
0.0
  0
SPLINE
  5
1c6
100
AcDbEntity
  8
Layer_1
 62
3
100
AcDbSpline
 70
8
 71
3
 72
8
 73
4
 74
0
 40
0
 40
0
 40
0
 40
0
 40
1
 40
1
 40
1
 40
1
 10
32.397963
 20
227.222146
 30
0.0
 10
32.216062
 20
226.957563
 30
0.0
 10
32.125111
 20
226.621321
 30
0.0
 10
32.125111
 20
226.213422
 30
0.0
  0
SPLINE
  5
1c7
100
AcDbEntity
  8
Layer_1
 62
3
100
AcDbSpline
 70
8
 71
3
 72
8
 73
4
 74
0
 40
0
 40
0
 40
0
 40
0
 40
1
 40
1
 40
1
 40
1
 10
32.125111
 20
226.213422
 30
0.0
 10
32.125111
 20
225.766937
 30
0.0
 10
32.199525
 20
225.397623
 30
0.0
 10
32.348353
 20
225.105479
 30
0.0
  0
SPLINE
  5
1c8
100
AcDbEntity
  8
Layer_1
 62
3
100
AcDbSpline
 70
8
 71
3
 72
8
 73
4
 74
0
 40
0
 40
0
 40
0
 40
0
 40
1
 40
1
 40
1
 40
1
 10
32.348353
 20
225.105479
 30
0.0
 10
32.491669
 20
224.818847
 30
0.0
 10
32.698375
 20
224.590093
 30
0.0
 10
32.968471
 20
224.419216
 30
0.0
  0
SPLINE
  5
1c9
100
AcDbEntity
  8
Layer_1
 62
3
100
AcDbSpline
 70
8
 71
3
 72
8
 73
4
 74
0
 40
0
 40
0
 40
0
 40
0
 40
1
 40
1
 40
1
 40
1
 10
32.968471
 20
224.419216
 30
0.0
 10
33.233054
 20
224.253851
 30
0.0
 10
33.536223
 20
224.135340
 30
0.0
 10
33.877976
 20
224.063682
 30
0.0
  0
SPLINE
  5
1ca
100
AcDbEntity
  8
Layer_1
 62
3
100
AcDbSpline
 70
8
 71
3
 72
8
 73
4
 74
0
 40
0
 40
0
 40
0
 40
0
 40
1
 40
1
 40
1
 40
1
 10
33.877976
 20
224.063682
 30
0.0
 10
34.214217
 20
223.997535
 30
0.0
 10
34.622117
 20
223.964462
 30
0.0
 10
35.101674
 20
223.964462
 30
0.0
  0
LWPOLYLINE
  5
1cb
100
AcDbEntity
  8
Layer_1
 62
3
100
AcDbPolyline
 90
2
 70
0
 10
31.769577
 20
223.956166
 30
0.0
 10
32.431036
 20
223.956164
 30
0.0
  0
SPLINE
  5
1cc
100
AcDbEntity
  8
Layer_1
 62
3
100
AcDbSpline
 70
8
 71
3
 72
8
 73
4
 74
0
 40
0
 40
0
 40
0
 40
0
 40
1
 40
1
 40
1
 40
1
 10
34.804017
 20
239.857624
 30
0.0
 10
34.952846
 20
239.857624
 30
0.0
 10
35.085137
 20
239.808015
 30
0.0
 10
35.200892
 20
239.708796
 30
0.0
  0
SPLINE
  5
1cd
100
AcDbEntity
  8
Layer_1
 62
3
100
AcDbSpline
 70
8
 71
3
 72
8
 73
4
 74
0
 40
0
 40
0
 40
0
 40
0
 40
1
 40
1
 40
1
 40
1
 10
35.200892
 20
239.708796
 30
0.0
 10
35.311135
 20
239.615089
 30
0.0
 10
35.366257
 20
239.469017
 30
0.0
 10
35.366257
 20
239.270580
 30
0.0
  0
LWPOLYLINE
  5
1ce
100
AcDbEntity
  8
Layer_1
 62
3
100
AcDbPolyline
 90
1
 70
1
 10
35.101674
 20
223.964462
 30
0.0
  0
SPLINE
  5
1cf
100
AcDbEntity
  8
Layer_1
 62
3
100
AcDbSpline
 70
8
 71
3
 72
8
 73
4
 74
0
 40
0
 40
0
 40
0
 40
0
 40
1
 40
1
 40
1
 40
1
 10
35.366257
 20
233.639916
 30
0.0
 10
36.165519
 20
233.689523
 30
0.0
 10
36.785636
 20
233.934813
 30
0.0
 10
37.226608
 20
234.375788
 30
0.0
  0
SPLINE
  5
1d0
100
AcDbEntity
  8
Layer_1
 62
3
100
AcDbSpline
 70
8
 71
3
 72
8
 73
4
 74
0
 40
0
 40
0
 40
0
 40
0
 40
1
 40
1
 40
1
 40
1
 10
37.226608
 20
234.375788
 30
0.0
 10
37.667581
 20
234.822273
 30
0.0
 10
37.888067
 20
235.409317
 30
0.0
 10
37.888067
 20
236.136921
 30
0.0
  0
SPLINE
  5
1d1
100
AcDbEntity
  8
Layer_1
 62
3
100
AcDbSpline
 70
8
 71
3
 72
8
 73
4
 74
0
 40
0
 40
0
 40
0
 40
0
 40
1
 40
1
 40
1
 40
1
 10
37.888067
 20
236.136921
 30
0.0
 10
37.888067
 20
236.583406
 30
0.0
 10
37.824677
 20
237.005085
 30
0.0
 10
37.697897
 20
237.401960
 30
0.0
  0
SPLINE
  5
1d2
100
AcDbEntity
  8
Layer_1
 62
3
100
AcDbSpline
 70
8
 71
3
 72
8
 73
4
 74
0
 40
0
 40
0
 40
0
 40
0
 40
1
 40
1
 40
1
 40
1
 10
37.697897
 20
237.401960
 30
0.0
 10
37.571118
 20
237.798835
 30
0.0
 10
37.402997
 20
238.203978
 30
0.0
 10
37.193535
 20
238.617390
 30
0.0
  0
SPLINE
  5
1d3
100
AcDbEntity
  8
Layer_1
 62
3
100
AcDbSpline
 70
8
 71
3
 72
8
 73
4
 74
0
 40
0
 40
0
 40
0
 40
0
 40
1
 40
1
 40
1
 40
1
 10
37.193535
 20
238.617390
 30
0.0
 10
37.143928
 20
238.716609
 30
0.0
 10
37.119125
 20
238.810315
 30
0.0
 10
37.119125
 20
238.898509
 30
0.0
  0
SPLINE
  5
1d4
100
AcDbEntity
  8
Layer_1
 62
3
100
AcDbSpline
 70
8
 71
3
 72
8
 73
4
 74
0
 40
0
 40
0
 40
0
 40
0
 40
1
 40
1
 40
1
 40
1
 10
37.119125
 20
238.898509
 30
0.0
 10
37.119125
 20
239.047338
 30
0.0
 10
37.174247
 20
239.165849
 30
0.0
 10
37.284490
 20
239.254043
 30
0.0
  0
SPLINE
  5
1d5
100
AcDbEntity
  8
Layer_1
 62
3
100
AcDbSpline
 70
8
 71
3
 72
8
 73
4
 74
0
 40
0
 40
0
 40
0
 40
0
 40
1
 40
1
 40
1
 40
1
 10
37.284490
 20
239.254043
 30
0.0
 10
37.394733
 20
239.347750
 30
0.0
 10
37.521513
 20
239.394603
 30
0.0
 10
37.664829
 20
239.394603
 30
0.0
  0
SPLINE
  5
1d6
100
AcDbEntity
  8
Layer_1
 62
3
100
AcDbSpline
 70
8
 71
3
 72
8
 73
4
 74
0
 40
0
 40
0
 40
0
 40
0
 40
1
 40
1
 40
1
 40
1
 10
37.664829
 20
239.394603
 30
0.0
 10
37.725462
 20
239.394603
 30
0.0
 10
37.791608
 20
239.383580
 30
0.0
 10
37.863266
 20
239.361533
 30
0.0
  0
SPLINE
  5
1d7
100
AcDbEntity
  8
Layer_1
 62
3
100
AcDbSpline
 70
8
 71
3
 72
8
 73
4
 74
0
 40
0
 40
0
 40
0
 40
0
 40
1
 40
1
 40
1
 40
1
 10
37.863266
 20
239.361533
 30
0.0
 10
37.929413
 20
239.345000
 30
0.0
 10
37.992802
 20
239.314683
 30
0.0
 10
38.053435
 20
239.270583
 30
0.0
  0
SPLINE
  5
1d8
100
AcDbEntity
  8
Layer_1
 62
3
100
AcDbSpline
 70
8
 71
3
 72
8
 73
4
 74
0
 40
0
 40
0
 40
0
 40
0
 40
1
 40
1
 40
1
 40
1
 10
38.053435
 20
239.270583
 30
0.0
 10
38.279434
 20
239.094194
 30
0.0
 10
38.472359
 20
238.876464
 30
0.0
 10
38.632211
 20
238.617393
 30
0.0
  0
SPLINE
  5
1d9
100
AcDbEntity
  8
Layer_1
 62
3
100
AcDbSpline
 70
8
 71
3
 72
8
 73
4
 74
0
 40
0
 40
0
 40
0
 40
0
 40
1
 40
1
 40
1
 40
1
 10
38.632211
 20
238.617393
 30
0.0
 10
38.792064
 20
238.363834
 30
0.0
 10
38.921599
 20
238.088226
 30
0.0
 10
39.020818
 20
237.790570
 30
0.0
  0
SPLINE
  5
1da
100
AcDbEntity
  8
Layer_1
 62
3
100
AcDbSpline
 70
8
 71
3
 72
8
 73
4
 74
0
 40
0
 40
0
 40
0
 40
0
 40
1
 40
1
 40
1
 40
1
 10
39.020818
 20
237.790570
 30
0.0
 10
39.120037
 20
237.492913
 30
0.0
 10
39.191695
 20
237.184233
 30
0.0
 10
39.235792
 20
236.864528
 30
0.0
  0
SPLINE
  5
1db
100
AcDbEntity
  8
Layer_1
 62
3
100
AcDbSpline
 70
8
 71
3
 72
8
 73
4
 74
0
 40
0
 40
0
 40
0
 40
0
 40
1
 40
1
 40
1
 40
1
 10
39.235792
 20
236.864528
 30
0.0
 10
39.285399
 20
236.550335
 30
0.0
 10
39.310202
 20
236.244411
 30
0.0
 10
39.310202
 20
235.946755
 30
0.0
  0
SPLINE
  5
1dc
100
AcDbEntity
  8
Layer_1
 62
3
100
AcDbSpline
 70
8
 71
3
 72
8
 73
4
 74
0
 40
0
 40
0
 40
0
 40
0
 40
1
 40
1
 40
1
 40
1
 10
39.310202
 20
235.946755
 30
0.0
 10
39.310202
 20
235.345930
 30
0.0
 10
39.210983
 20
234.786447
 30
0.0
 10
39.012546
 20
234.268304
 30
0.0
  0
SPLINE
  5
1dd
100
AcDbEntity
  8
Layer_1
 62
3
100
AcDbSpline
 70
8
 71
3
 72
8
 73
4
 74
0
 40
0
 40
0
 40
0
 40
0
 40
1
 40
1
 40
1
 40
1
 10
39.012546
 20
234.268304
 30
0.0
 10
38.814109
 20
233.750162
 30
0.0
 10
38.527477
 20
233.298166
 30
0.0
 10
38.152650
 20
232.912315
 30
0.0
  0
SPLINE
  5
1de
100
AcDbEntity
  8
Layer_1
 62
3
100
AcDbSpline
 70
8
 71
3
 72
8
 73
4
 74
0
 40
0
 40
0
 40
0
 40
0
 40
1
 40
1
 40
1
 40
1
 10
38.152650
 20
232.912315
 30
0.0
 10
37.772311
 20
232.531976
 30
0.0
 10
37.306534
 20
232.231564
 30
0.0
 10
36.755319
 20
232.011078
 30
0.0
  0
SPLINE
  5
1df
100
AcDbEntity
  8
Layer_1
 62
3
100
AcDbSpline
 70
8
 71
3
 72
8
 73
4
 74
0
 40
0
 40
0
 40
0
 40
0
 40
1
 40
1
 40
1
 40
1
 10
36.755319
 20
232.011078
 30
0.0
 10
36.198592
 20
231.796104
 30
0.0
 10
35.625328
 20
231.688617
 30
0.0
 10
35.035528
 20
231.688617
 30
0.0
  0
SPLINE
  5
1e0
100
AcDbEntity
  8
Layer_1
 62
3
100
AcDbSpline
 70
8
 71
3
 72
8
 73
4
 74
0
 40
0
 40
0
 40
0
 40
0
 40
1
 40
1
 40
1
 40
1
 10
35.035528
 20
231.688617
 30
0.0
 10
34.533922
 20
231.688617
 30
0.0
 10
34.024048
 20
231.790592
 30
0.0
 10
33.505905
 20
231.994541
 30
0.0
  0
SPLINE
  5
1e1
100
AcDbEntity
  8
Layer_1
 62
3
100
AcDbSpline
 70
8
 71
3
 72
8
 73
4
 74
0
 40
0
 40
0
 40
0
 40
0
 40
1
 40
1
 40
1
 40
1
 10
33.505905
 20
231.994541
 30
0.0
 10
32.987763
 20
232.198491
 30
0.0
 10
32.535767
 20
232.476855
 30
0.0
 10
32.149916
 20
232.829633
 30
0.0
  0
SPLINE
  5
1e2
100
AcDbEntity
  8
Layer_1
 62
3
100
AcDbSpline
 70
8
 71
3
 72
8
 73
4
 74
0
 40
0
 40
0
 40
0
 40
0
 40
1
 40
1
 40
1
 40
1
 10
32.149916
 20
232.829633
 30
0.0
 10
31.764065
 20
233.187922
 30
0.0
 10
31.449873
 20
233.615114
 30
0.0
 10
31.207338
 20
234.111208
 30
0.0
  0
SPLINE
  5
1e3
100
AcDbEntity
  8
Layer_1
 62
3
100
AcDbSpline
 70
8
 71
3
 72
8
 73
4
 74
0
 40
0
 40
0
 40
0
 40
0
 40
1
 40
1
 40
1
 40
1
 10
31.207338
 20
234.111208
 30
0.0
 10
30.959291
 20
234.612814
 30
0.0
 10
30.835268
 20
235.194346
 30
0.0
 10
30.835268
 20
235.855804
 30
0.0
  0
SPLINE
  5
1e4
100
AcDbEntity
  8
Layer_1
 62
3
100
AcDbSpline
 70
8
 71
3
 72
8
 73
4
 74
0
 40
0
 40
0
 40
0
 40
0
 40
1
 40
1
 40
1
 40
1
 10
30.835268
 20
235.855804
 30
0.0
 10
30.835268
 20
236.533799
 30
0.0
 10
30.942755
 20
237.118087
 30
0.0
 10
31.157728
 20
237.608669
 30
0.0
  0
SPLINE
  5
1e5
100
AcDbEntity
  8
Layer_1
 62
3
100
AcDbSpline
 70
8
 71
3
 72
8
 73
4
 74
0
 40
0
 40
0
 40
0
 40
0
 40
1
 40
1
 40
1
 40
1
 10
31.157728
 20
237.608669
 30
0.0
 10
31.372702
 20
238.104762
 30
0.0
 10
31.659334
 20
238.515418
 30
0.0
 10
32.017624
 20
238.840635
 30
0.0
  0
SPLINE
  5
1e6
100
AcDbEntity
  8
Layer_1
 62
3
100
AcDbSpline
 70
8
 71
3
 72
8
 73
4
 74
0
 40
0
 40
0
 40
0
 40
0
 40
1
 40
1
 40
1
 40
1
 10
32.017624
 20
238.840635
 30
0.0
 10
32.375914
 20
239.171364
 30
0.0
 10
32.805862
 20
239.419411
 30
0.0
 10
33.307468
 20
239.584775
 30
0.0
  0
SPLINE
  5
1e7
100
AcDbEntity
  8
Layer_1
 62
3
100
AcDbSpline
 70
8
 71
3
 72
8
 73
4
 74
0
 40
0
 40
0
 40
0
 40
0
 40
1
 40
1
 40
1
 40
1
 10
33.307468
 20
239.584775
 30
0.0
 10
33.803562
 20
239.755652
 30
0.0
 10
34.302412
 20
239.846602
 30
0.0
 10
34.804017
 20
239.857627
 30
0.0
  0
LWPOLYLINE
  5
1e8
100
AcDbEntity
  8
Layer_1
 62
3
100
AcDbPolyline
 90
2
 70
0
 10
35.366257
 20
239.270580
 30
0.0
 10
35.366257
 20
233.639916
 30
0.0
  0
SPLINE
  5
1e9
100
AcDbEntity
  8
Layer_1
 62
3
100
AcDbSpline
 70
8
 71
3
 72
8
 73
4
 74
0
 40
0
 40
0
 40
0
 40
0
 40
1
 40
1
 40
1
 40
1
 10
34.374069
 20
238.137832
 30
0.0
 10
34.109486
 20
238.115785
 30
0.0
 10
33.828366
 20
238.052396
 30
0.0
 10
33.530710
 20
237.947663
 30
0.0
  0
SPLINE
  5
1ea
100
AcDbEntity
  8
Layer_1
 62
3
100
AcDbSpline
 70
8
 71
3
 72
8
 73
4
 74
0
 40
0
 40
0
 40
0
 40
0
 40
1
 40
1
 40
1
 40
1
 10
33.530710
 20
237.947663
 30
0.0
 10
33.233054
 20
237.842932
 30
0.0
 10
32.979495
 20
237.694104
 30
0.0
 10
32.770033
 20
237.501179
 30
0.0
  0
SPLINE
  5
1eb
100
AcDbEntity
  8
Layer_1
 62
3
100
AcDbSpline
 70
8
 71
3
 72
8
 73
4
 74
0
 40
0
 40
0
 40
0
 40
0
 40
1
 40
1
 40
1
 40
1
 10
32.770033
 20
237.501179
 30
0.0
 10
32.555059
 20
237.313766
 30
0.0
 10
32.395207
 20
237.082255
 30
0.0
 10
32.290476
 20
236.806648
 30
0.0
  0
SPLINE
  5
1ec
100
AcDbEntity
  8
Layer_1
 62
3
100
AcDbSpline
 70
8
 71
3
 72
8
 73
4
 74
0
 40
0
 40
0
 40
0
 40
0
 40
1
 40
1
 40
1
 40
1
 10
32.290476
 20
236.806648
 30
0.0
 10
32.180233
 20
236.536552
 30
0.0
 10
32.125111
 20
236.225115
 30
0.0
 10
32.125111
 20
235.872338
 30
0.0
  0
SPLINE
  5
1ed
100
AcDbEntity
  8
Layer_1
 62
3
100
AcDbSpline
 70
8
 71
3
 72
8
 73
4
 74
0
 40
0
 40
0
 40
0
 40
0
 40
1
 40
1
 40
1
 40
1
 10
32.125111
 20
235.872338
 30
0.0
 10
32.125111
 20
235.552633
 30
0.0
 10
32.182989
 20
235.260488
 30
0.0
 10
32.298744
 20
234.995905
 30
0.0
  0
SPLINE
  5
1ee
100
AcDbEntity
  8
Layer_1
 62
3
100
AcDbSpline
 70
8
 71
3
 72
8
 73
4
 74
0
 40
0
 40
0
 40
0
 40
0
 40
1
 40
1
 40
1
 40
1
 10
32.298744
 20
234.995905
 30
0.0
 10
32.414499
 20
234.736834
 30
0.0
 10
32.582620
 20
234.510836
 30
0.0
 10
32.803106
 20
234.317911
 30
0.0
  0
SPLINE
  5
1ef
100
AcDbEntity
  8
Layer_1
 62
3
100
AcDbSpline
 70
8
 71
3
 72
8
 73
4
 74
0
 40
0
 40
0
 40
0
 40
0
 40
1
 40
1
 40
1
 40
1
 10
32.803106
 20
234.317911
 30
0.0
 10
33.023592
 20
234.130498
 30
0.0
 10
33.279907
 20
233.978913
 30
0.0
 10
33.572051
 20
233.863158
 30
0.0
  0
SPLINE
  5
1f0
100
AcDbEntity
  8
Layer_1
 62
3
100
AcDbSpline
 70
8
 71
3
 72
8
 73
4
 74
0
 40
0
 40
0
 40
0
 40
0
 40
1
 40
1
 40
1
 40
1
 10
33.572051
 20
233.863158
 30
0.0
 10
33.864195
 20
233.747403
 30
0.0
 10
34.131534
 20
233.678501
 30
0.0
 10
34.374069
 20
233.656452
 30
0.0
  0
LWPOLYLINE
  5
1f1
100
AcDbEntity
  8
Layer_1
 62
3
100
AcDbPolyline
 90
1
 70
1
 10
34.804017
 20
239.857627
 30
0.0
  0
SPLINE
  5
1f2
100
AcDbEntity
  8
Layer_1
 62
3
100
AcDbSpline
 70
8
 71
3
 72
8
 73
4
 74
0
 40
0
 40
0
 40
0
 40
0
 40
1
 40
1
 40
1
 40
1
 10
31.843991
 20
241.736165
 30
0.0
 10
31.695163
 20
241.736165
 30
0.0
 10
31.562871
 20
241.763725
 30
0.0
 10
31.447116
 20
241.818845
 30
0.0
  0
SPLINE
  5
1f3
100
AcDbEntity
  8
Layer_1
 62
3
100
AcDbSpline
 70
8
 71
3
 72
8
 73
4
 74
0
 40
0
 40
0
 40
0
 40
0
 40
1
 40
1
 40
1
 40
1
 10
31.447116
 20
241.818845
 30
0.0
 10
31.331361
 20
241.879478
 30
0.0
 10
31.237655
 20
241.953893
 30
0.0
 10
31.165997
 20
242.042088
 30
0.0
  0
SPLINE
  5
1f4
100
AcDbEntity
  8
Layer_1
 62
3
100
AcDbSpline
 70
8
 71
3
 72
8
 73
4
 74
0
 40
0
 40
0
 40
0
 40
0
 40
1
 40
1
 40
1
 40
1
 10
31.165997
 20
242.042088
 30
0.0
 10
31.088827
 20
242.135794
 30
0.0
 10
31.030949
 20
242.240525
 30
0.0
 10
30.992364
 20
242.356280
 30
0.0
  0
SPLINE
  5
1f5
100
AcDbEntity
  8
Layer_1
 62
3
100
AcDbSpline
 70
8
 71
3
 72
8
 73
4
 74
0
 40
0
 40
0
 40
0
 40
0
 40
1
 40
1
 40
1
 40
1
 10
30.992364
 20
242.356280
 30
0.0
 10
30.953777
 20
242.477547
 30
0.0
 10
30.934484
 20
242.598815
 30
0.0
 10
30.934484
 20
242.720082
 30
0.0
  0
SPLINE
  5
1f6
100
AcDbEntity
  8
Layer_1
 62
3
100
AcDbSpline
 70
8
 71
3
 72
8
 73
4
 74
0
 40
0
 40
0
 40
0
 40
0
 40
1
 40
1
 40
1
 40
1
 10
30.934484
 20
242.720082
 30
0.0
 10
30.934484
 20
242.835837
 30
0.0
 10
30.953777
 20
242.948837
 30
0.0
 10
30.992364
 20
243.059080
 30
0.0
  0
SPLINE
  5
1f7
100
AcDbEntity
  8
Layer_1
 62
3
100
AcDbSpline
 70
8
 71
3
 72
8
 73
4
 74
0
 40
0
 40
0
 40
0
 40
0
 40
1
 40
1
 40
1
 40
1
 10
30.992364
 20
243.059080
 30
0.0
 10
31.025437
 20
243.169323
 30
0.0
 10
31.077803
 20
243.268541
 30
0.0
 10
31.149460
 20
243.356736
 30
0.0
  0
SPLINE
  5
1f8
100
AcDbEntity
  8
Layer_1
 62
3
100
AcDbSpline
 70
8
 71
3
 72
8
 73
4
 74
0
 40
0
 40
0
 40
0
 40
0
 40
1
 40
1
 40
1
 40
1
 10
31.149460
 20
243.356736
 30
0.0
 10
31.215607
 20
243.444931
 30
0.0
 10
31.303801
 20
243.516589
 30
0.0
 10
31.414044
 20
243.571710
 30
0.0
  0
SPLINE
  5
1f9
100
AcDbEntity
  8
Layer_1
 62
3
100
AcDbSpline
 70
8
 71
3
 72
8
 73
4
 74
0
 40
0
 40
0
 40
0
 40
0
 40
1
 40
1
 40
1
 40
1
 10
31.414044
 20
243.571710
 30
0.0
 10
31.518775
 20
243.632343
 30
0.0
 10
31.642798
 20
243.665417
 30
0.0
 10
31.786114
 20
243.670930
 30
0.0
  0
SPLINE
  5
1fa
100
AcDbEntity
  8
Layer_1
 62
3
100
AcDbSpline
 70
8
 71
3
 72
8
 73
4
 74
0
 40
0
 40
0
 40
0
 40
0
 40
1
 40
1
 40
1
 40
1
 10
31.786114
 20
243.670930
 30
0.0
 10
31.791647
 20
243.670930
 30
0.0
 10
31.827476
 20
243.670930
 30
0.0
 10
31.893601
 20
243.670930
 30
0.0
  0
SPLINE
  5
1fb
100
AcDbEntity
  8
Layer_1
 62
3
100
AcDbSpline
 70
8
 71
3
 72
8
 73
4
 74
0
 40
0
 40
0
 40
0
 40
0
 40
1
 40
1
 40
1
 40
1
 10
31.893601
 20
243.670930
 30
0.0
 10
31.959748
 20
243.676463
 30
0.0
 10
32.036918
 20
243.679230
 30
0.0
 10
32.125111
 20
243.679230
 30
0.0
  0
SPLINE
  5
1fc
100
AcDbEntity
  8
Layer_1
 62
3
100
AcDbSpline
 70
8
 71
3
 72
8
 73
4
 74
0
 40
0
 40
0
 40
0
 40
0
 40
1
 40
1
 40
1
 40
1
 10
32.125111
 20
243.679230
 30
0.0
 10
32.207794
 20
243.679230
 30
0.0
 10
32.282208
 20
243.679230
 30
0.0
 10
32.348353
 20
243.679230
 30
0.0
  0
SPLINE
  5
1fd
100
AcDbEntity
  8
Layer_1
 62
3
100
AcDbSpline
 70
8
 71
3
 72
8
 73
4
 74
0
 40
0
 40
0
 40
0
 40
0
 40
1
 40
1
 40
1
 40
1
 10
32.348353
 20
243.679230
 30
0.0
 10
32.414500
 20
243.679230
 30
0.0
 10
32.450329
 20
243.679230
 30
0.0
 10
32.455840
 20
243.679230
 30
0.0
  0
SPLINE
  5
1fe
100
AcDbEntity
  8
Layer_1
 62
3
100
AcDbSpline
 70
8
 71
3
 72
8
 73
4
 74
0
 40
0
 40
0
 40
0
 40
0
 40
1
 40
1
 40
1
 40
1
 10
32.455840
 20
243.679230
 30
0.0
 10
31.987307
 20
243.806009
 30
0.0
 10
31.601457
 20
244.048544
 30
0.0
 10
31.298288
 20
244.406834
 30
0.0
  0
SPLINE
  5
1ff
100
AcDbEntity
  8
Layer_1
 62
3
100
AcDbSpline
 70
8
 71
3
 72
8
 73
4
 74
0
 40
0
 40
0
 40
0
 40
0
 40
1
 40
1
 40
1
 40
1
 10
31.298288
 20
244.406834
 30
0.0
 10
30.989608
 20
244.765124
 30
0.0
 10
30.835268
 20
245.244681
 30
0.0
 10
30.835268
 20
245.845506
 30
0.0
  0
SPLINE
  5
200
100
AcDbEntity
  8
Layer_1
 62
3
100
AcDbSpline
 70
8
 71
3
 72
8
 73
4
 74
0
 40
0
 40
0
 40
0
 40
0
 40
1
 40
1
 40
1
 40
1
 10
30.835268
 20
245.845506
 30
0.0
 10
30.835268
 20
245.983310
 30
0.0
 10
30.860071
 20
246.104577
 30
0.0
 10
30.909678
 20
246.209308
 30
0.0
  0
SPLINE
  5
201
100
AcDbEntity
  8
Layer_1
 62
3
100
AcDbSpline
 70
8
 71
3
 72
8
 73
4
 74
0
 40
0
 40
0
 40
0
 40
0
 40
1
 40
1
 40
1
 40
1
 10
30.909678
 20
246.209308
 30
0.0
 10
30.953771
 20
246.319551
 30
0.0
 10
31.011649
 20
246.410501
 30
0.0
 10
31.083310
 20
246.482159
 30
0.0
  0
SPLINE
  5
202
100
AcDbEntity
  8
Layer_1
 62
3
100
AcDbSpline
 70
8
 71
3
 72
8
 73
4
 74
0
 40
0
 40
0
 40
0
 40
0
 40
1
 40
1
 40
1
 40
1
 10
31.083310
 20
246.482159
 30
0.0
 10
31.154968
 20
246.553817
 30
0.0
 10
31.237650
 20
246.606183
 30
0.0
 10
31.331357
 20
246.639256
 30
0.0
  0
SPLINE
  5
203
100
AcDbEntity
  8
Layer_1
 62
3
100
AcDbSpline
 70
8
 71
3
 72
8
 73
4
 74
0
 40
0
 40
0
 40
0
 40
0
 40
1
 40
1
 40
1
 40
1
 10
31.331357
 20
246.639256
 30
0.0
 10
31.425064
 20
246.677843
 30
0.0
 10
31.521526
 20
246.697136
 30
0.0
 10
31.620745
 20
246.697136
 30
0.0
  0
SPLINE
  5
204
100
AcDbEntity
  8
Layer_1
 62
3
100
AcDbSpline
 70
8
 71
3
 72
8
 73
4
 74
0
 40
0
 40
0
 40
0
 40
0
 40
1
 40
1
 40
1
 40
1
 10
31.620745
 20
246.697136
 30
0.0
 10
31.719964
 20
246.697136
 30
0.0
 10
31.816426
 20
246.677843
 30
0.0
 10
31.910133
 20
246.639256
 30
0.0
  0
SPLINE
  5
205
100
AcDbEntity
  8
Layer_1
 62
3
100
AcDbSpline
 70
8
 71
3
 72
8
 73
4
 74
0
 40
0
 40
0
 40
0
 40
0
 40
1
 40
1
 40
1
 40
1
 10
31.910133
 20
246.639256
 30
0.0
 10
32.003840
 20
246.606183
 30
0.0
 10
32.089278
 20
246.551061
 30
0.0
 10
32.166448
 20
246.473891
 30
0.0
  0
SPLINE
  5
206
100
AcDbEntity
  8
Layer_1
 62
3
100
AcDbSpline
 70
8
 71
3
 72
8
 73
4
 74
0
 40
0
 40
0
 40
0
 40
0
 40
1
 40
1
 40
1
 40
1
 10
32.166448
 20
246.473891
 30
0.0
 10
32.238106
 20
246.402233
 30
0.0
 10
32.298740
 20
246.308526
 30
0.0
 10
32.348349
 20
246.192771
 30
0.0
  0
SPLINE
  5
207
100
AcDbEntity
  8
Layer_1
 62
3
100
AcDbSpline
 70
8
 71
3
 72
8
 73
4
 74
0
 40
0
 40
0
 40
0
 40
0
 40
1
 40
1
 40
1
 40
1
 10
32.348349
 20
246.192771
 30
0.0
 10
32.392449
 20
246.082528
 30
0.0
 10
32.414499
 20
245.952993
 30
0.0
 10
32.414499
 20
245.804165
 30
0.0
  0
SPLINE
  5
208
100
AcDbEntity
  8
Layer_1
 62
3
100
AcDbSpline
 70
8
 71
3
 72
8
 73
4
 74
0
 40
0
 40
0
 40
0
 40
0
 40
1
 40
1
 40
1
 40
1
 10
32.414499
 20
245.804165
 30
0.0
 10
32.414499
 20
245.484460
 30
0.0
 10
32.461352
 20
245.192315
 30
0.0
 10
32.555059
 20
244.927732
 30
0.0
  0
SPLINE
  5
209
100
AcDbEntity
  8
Layer_1
 62
3
100
AcDbSpline
 70
8
 71
3
 72
8
 73
4
 74
0
 40
0
 40
0
 40
0
 40
0
 40
1
 40
1
 40
1
 40
1
 10
32.555059
 20
244.927732
 30
0.0
 10
32.648766
 20
244.668661
 30
0.0
 10
32.792082
 20
244.445419
 30
0.0
 10
32.985007
 20
244.258006
 30
0.0
  0
SPLINE
  5
20a
100
AcDbEntity
  8
Layer_1
 62
3
100
AcDbSpline
 70
8
 71
3
 72
8
 73
4
 74
0
 40
0
 40
0
 40
0
 40
0
 40
1
 40
1
 40
1
 40
1
 10
32.985007
 20
244.258006
 30
0.0
 10
33.172420
 20
244.076105
 30
0.0
 10
33.390150
 20
243.932789
 30
0.0
 10
33.638197
 20
243.828058
 30
0.0
  0
SPLINE
  5
20b
100
AcDbEntity
  8
Layer_1
 62
3
100
AcDbSpline
 70
8
 71
3
 72
8
 73
4
 74
0
 40
0
 40
0
 40
0
 40
0
 40
1
 40
1
 40
1
 40
1
 10
33.638197
 20
243.828058
 30
0.0
 10
33.886244
 20
243.728839
 30
0.0
 10
34.203192
 20
243.679230
 30
0.0
 10
34.589043
 20
243.679230
 30
0.0
  0
LWPOLYLINE
  5
20c
100
AcDbEntity
  8
Layer_1
 62
3
100
AcDbPolyline
 90
2
 70
0
 10
34.374069
 20
233.656452
 30
0.0
 10
34.374069
 20
238.137832
 30
0.0
  0
SPLINE
  5
20d
100
AcDbEntity
  8
Layer_1
 62
3
100
AcDbSpline
 70
8
 71
3
 72
8
 73
4
 74
0
 40
0
 40
0
 40
0
 40
0
 40
1
 40
1
 40
1
 40
1
 10
38.293210
 20
243.679230
 30
0.0
 10
38.447550
 20
243.679230
 30
0.0
 10
38.582598
 20
243.648913
 30
0.0
 10
38.698353
 20
243.588280
 30
0.0
  0
SPLINE
  5
20e
100
AcDbEntity
  8
Layer_1
 62
3
100
AcDbSpline
 70
8
 71
3
 72
8
 73
4
 74
0
 40
0
 40
0
 40
0
 40
0
 40
1
 40
1
 40
1
 40
1
 10
38.698353
 20
243.588280
 30
0.0
 10
38.808596
 20
243.533160
 30
0.0
 10
38.902303
 20
243.458746
 30
0.0
 10
38.979473
 20
243.365038
 30
0.0
  0
SPLINE
  5
20f
100
AcDbEntity
  8
Layer_1
 62
3
100
AcDbSpline
 70
8
 71
3
 72
8
 73
4
 74
0
 40
0
 40
0
 40
0
 40
0
 40
1
 40
1
 40
1
 40
1
 10
38.979473
 20
243.365038
 30
0.0
 10
39.056643
 20
243.276844
 30
0.0
 10
39.114521
 20
243.172113
 30
0.0
 10
39.153106
 20
243.050846
 30
0.0
  0
SPLINE
  5
210
100
AcDbEntity
  8
Layer_1
 62
3
100
AcDbSpline
 70
8
 71
3
 72
8
 73
4
 74
0
 40
0
 40
0
 40
0
 40
0
 40
1
 40
1
 40
1
 40
1
 10
39.153106
 20
243.050846
 30
0.0
 10
39.191693
 20
242.935091
 30
0.0
 10
39.210986
 20
242.816579
 30
0.0
 10
39.210986
 20
242.695312
 30
0.0
  0
SPLINE
  5
211
100
AcDbEntity
  8
Layer_1
 62
3
100
AcDbSpline
 70
8
 71
3
 72
8
 73
4
 74
0
 40
0
 40
0
 40
0
 40
0
 40
1
 40
1
 40
1
 40
1
 10
39.210986
 20
242.695312
 30
0.0
 10
39.210986
 20
242.574045
 30
0.0
 10
39.191693
 20
242.455533
 30
0.0
 10
39.153106
 20
242.339778
 30
0.0
  0
SPLINE
  5
212
100
AcDbEntity
  8
Layer_1
 62
3
100
AcDbSpline
 70
8
 71
3
 72
8
 73
4
 74
0
 40
0
 40
0
 40
0
 40
0
 40
1
 40
1
 40
1
 40
1
 10
39.153106
 20
242.339778
 30
0.0
 10
39.114519
 20
242.229535
 30
0.0
 10
39.059398
 20
242.127560
 30
0.0
 10
38.987741
 20
242.033853
 30
0.0
  0
SPLINE
  5
213
100
AcDbEntity
  8
Layer_1
 62
3
100
AcDbSpline
 70
8
 71
3
 72
8
 73
4
 74
0
 40
0
 40
0
 40
0
 40
0
 40
1
 40
1
 40
1
 40
1
 10
38.987741
 20
242.033853
 30
0.0
 10
38.910571
 20
241.945659
 30
0.0
 10
38.814108
 20
241.874001
 30
0.0
 10
38.698353
 20
241.818879
 30
0.0
  0
SPLINE
  5
214
100
AcDbEntity
  8
Layer_1
 62
3
100
AcDbSpline
 70
8
 71
3
 72
8
 73
4
 74
0
 40
0
 40
0
 40
0
 40
0
 40
1
 40
1
 40
1
 40
1
 10
38.698353
 20
241.818879
 30
0.0
 10
38.582598
 20
241.763759
 30
0.0
 10
38.447550
 20
241.736199
 30
0.0
 10
38.293210
 20
241.736199
 30
0.0
  0
LWPOLYLINE
  5
215
100
AcDbEntity
  8
Layer_1
 62
3
100
AcDbPolyline
 90
2
 70
0
 10
34.589043
 20
243.679230
 30
0.0
 10
38.293210
 20
243.679230
 30
0.0
  0
LWPOLYLINE
  5
216
100
AcDbEntity
  8
Layer_1
 62
3
100
AcDbPolyline
 90
2
 70
0
 10
38.293210
 20
241.736199
 30
0.0
 10
31.843991
 20
241.736165
 30
0.0
  0
SPLINE
  5
217
100
AcDbEntity
  8
Layer_1
 62
3
100
AcDbSpline
 70
8
 71
3
 72
8
 73
4
 74
0
 40
0
 40
0
 40
0
 40
0
 40
1
 40
1
 40
1
 40
1
 10
37.970749
 20
252.941267
 30
0.0
 10
38.169186
 20
252.897167
 30
0.0
 10
38.345575
 20
252.819997
 30
0.0
 10
38.499916
 20
252.709757
 30
0.0
  0
SPLINE
  5
218
100
AcDbEntity
  8
Layer_1
 62
3
100
AcDbSpline
 70
8
 71
3
 72
8
 73
4
 74
0
 40
0
 40
0
 40
0
 40
0
 40
1
 40
1
 40
1
 40
1
 10
38.499916
 20
252.709757
 30
0.0
 10
38.648744
 20
252.599514
 30
0.0
 10
38.778279
 20
252.467222
 30
0.0
 10
38.888522
 20
252.312882
 30
0.0
  0
SPLINE
  5
219
100
AcDbEntity
  8
Layer_1
 62
3
100
AcDbSpline
 70
8
 71
3
 72
8
 73
4
 74
0
 40
0
 40
0
 40
0
 40
0
 40
1
 40
1
 40
1
 40
1
 10
38.888522
 20
252.312882
 30
0.0
 10
38.993253
 20
252.158542
 30
0.0
 10
39.073180
 20
251.990421
 30
0.0
 10
39.128301
 20
251.808520
 30
0.0
  0
SPLINE
  5
21a
100
AcDbEntity
  8
Layer_1
 62
3
100
AcDbSpline
 70
8
 71
3
 72
8
 73
4
 74
0
 40
0
 40
0
 40
0
 40
0
 40
1
 40
1
 40
1
 40
1
 10
39.128301
 20
251.808520
 30
0.0
 10
39.183421
 20
251.632131
 30
0.0
 10
39.210981
 20
251.450230
 30
0.0
 10
39.210981
 20
251.262817
 30
0.0
  0
SPLINE
  5
21b
100
AcDbEntity
  8
Layer_1
 62
3
100
AcDbSpline
 70
8
 71
3
 72
8
 73
4
 74
0
 40
0
 40
0
 40
0
 40
0
 40
1
 40
1
 40
1
 40
1
 10
39.210981
 20
251.262817
 30
0.0
 10
39.210981
 20
251.091940
 30
0.0
 10
39.186178
 20
250.923820
 30
0.0
 10
39.136571
 20
250.758455
 30
0.0
  0
SPLINE
  5
21c
100
AcDbEntity
  8
Layer_1
 62
3
100
AcDbSpline
 70
8
 71
3
 72
8
 73
4
 74
0
 40
0
 40
0
 40
0
 40
0
 40
1
 40
1
 40
1
 40
1
 10
39.136571
 20
250.758455
 30
0.0
 10
39.086964
 20
250.598602
 30
0.0
 10
39.012550
 20
250.449774
 30
0.0
 10
38.913329
 20
250.311971
 30
0.0
  0
SPLINE
  5
21d
100
AcDbEntity
  8
Layer_1
 62
3
100
AcDbSpline
 70
8
 71
3
 72
8
 73
4
 74
0
 40
0
 40
0
 40
0
 40
0
 40
1
 40
1
 40
1
 40
1
 10
38.913329
 20
250.311971
 30
0.0
 10
38.814110
 20
250.174167
 30
0.0
 10
38.687331
 20
250.052900
 30
0.0
 10
38.532991
 20
249.948169
 30
0.0
  0
SPLINE
  5
21e
100
AcDbEntity
  8
Layer_1
 62
3
100
AcDbSpline
 70
8
 71
3
 72
8
 73
4
 74
0
 40
0
 40
0
 40
0
 40
0
 40
1
 40
1
 40
1
 40
1
 10
38.532991
 20
249.948169
 30
0.0
 10
38.373138
 20
249.843438
 30
0.0
 10
38.185725
 20
249.766267
 30
0.0
 10
37.970751
 20
249.716658
 30
0.0
  0
LWPOLYLINE
  5
21f
100
AcDbEntity
  8
Layer_1
 62
3
100
AcDbPolyline
 90
2
 70
0
 10
29.363523
 20
255.487882
 30
0.0
 10
37.970749
 20
252.941267
 30
0.0
  0
SPLINE
  5
220
100
AcDbEntity
  8
Layer_1
 62
3
100
AcDbSpline
 70
8
 71
3
 72
8
 73
4
 74
0
 40
0
 40
0
 40
0
 40
0
 40
1
 40
1
 40
1
 40
1
 10
28.569775
 20
247.277531
 30
0.0
 10
28.487092
 20
247.255484
 30
0.0
 10
28.398898
 20
247.244461
 30
0.0
 10
28.305192
 20
247.244461
 30
0.0
  0
SPLINE
  5
221
100
AcDbEntity
  8
Layer_1
 62
3
100
AcDbSpline
 70
8
 71
3
 72
8
 73
4
 74
0
 40
0
 40
0
 40
0
 40
0
 40
1
 40
1
 40
1
 40
1
 10
28.305192
 20
247.244461
 30
0.0
 10
28.156363
 20
247.244461
 30
0.0
 10
28.024072
 20
247.277534
 30
0.0
 10
27.908317
 20
247.343681
 30
0.0
  0
SPLINE
  5
222
100
AcDbEntity
  8
Layer_1
 62
3
100
AcDbSpline
 70
8
 71
3
 72
8
 73
4
 74
0
 40
0
 40
0
 40
0
 40
0
 40
1
 40
1
 40
1
 40
1
 10
27.908317
 20
247.343681
 30
0.0
 10
27.787050
 20
247.409828
 30
0.0
 10
27.685075
 20
247.492510
 30
0.0
 10
27.602392
 20
247.591727
 30
0.0
  0
SPLINE
  5
223
100
AcDbEntity
  8
Layer_1
 62
3
100
AcDbSpline
 70
8
 71
3
 72
8
 73
4
 74
0
 40
0
 40
0
 40
0
 40
0
 40
1
 40
1
 40
1
 40
1
 10
27.602392
 20
247.591727
 30
0.0
 10
27.519710
 20
247.696458
 30
0.0
 10
27.456320
 20
247.814970
 30
0.0
 10
27.412223
 20
247.947261
 30
0.0
  0
SPLINE
  5
224
100
AcDbEntity
  8
Layer_1
 62
3
100
AcDbSpline
 70
8
 71
3
 72
8
 73
4
 74
0
 40
0
 40
0
 40
0
 40
0
 40
1
 40
1
 40
1
 40
1
 10
27.412223
 20
247.947261
 30
0.0
 10
27.362616
 20
248.079553
 30
0.0
 10
27.337813
 20
248.211845
 30
0.0
 10
27.337813
 20
248.344136
 30
0.0
  0
SPLINE
  5
225
100
AcDbEntity
  8
Layer_1
 62
3
100
AcDbSpline
 70
8
 71
3
 72
8
 73
4
 74
0
 40
0
 40
0
 40
0
 40
0
 40
1
 40
1
 40
1
 40
1
 10
27.337813
 20
248.344136
 30
0.0
 10
27.337813
 20
248.548086
 30
0.0
 10
27.395691
 20
248.732743
 30
0.0
 10
27.511446
 20
248.898108
 30
0.0
  0
SPLINE
  5
226
100
AcDbEntity
  8
Layer_1
 62
3
100
AcDbSpline
 70
8
 71
3
 72
8
 73
4
 74
0
 40
0
 40
0
 40
0
 40
0
 40
1
 40
1
 40
1
 40
1
 10
27.511446
 20
248.898108
 30
0.0
 10
27.621689
 20
249.068985
 30
0.0
 10
27.803590
 20
249.179228
 30
0.0
 10
28.057149
 20
249.228837
 30
0.0
  0
LWPOLYLINE
  5
227
100
AcDbEntity
  8
Layer_1
 62
3
100
AcDbPolyline
 90
2
 70
0
 10
37.970751
 20
249.716658
 30
0.0
 10
28.569775
 20
247.277531
 30
0.0
  0
SPLINE
  5
228
100
AcDbEntity
  8
Layer_1
 62
3
100
AcDbSpline
 70
8
 71
3
 72
8
 73
4
 74
0
 40
0
 40
0
 40
0
 40
0
 40
1
 40
1
 40
1
 40
1
 10
28.503633
 20
254.049214
 30
0.0
 10
28.305196
 20
254.093314
 30
0.0
 10
28.131563
 20
254.162216
 30
0.0
 10
27.982735
 20
254.255920
 30
0.0
  0
SPLINE
  5
229
100
AcDbEntity
  8
Layer_1
 62
3
100
AcDbSpline
 70
8
 71
3
 72
8
 73
4
 74
0
 40
0
 40
0
 40
0
 40
0
 40
1
 40
1
 40
1
 40
1
 10
27.982735
 20
254.255920
 30
0.0
 10
27.833906
 20
254.355139
 30
0.0
 10
27.709883
 20
254.468138
 30
0.0
 10
27.610664
 20
254.594917
 30
0.0
  0
SPLINE
  5
22a
100
AcDbEntity
  8
Layer_1
 62
3
100
AcDbSpline
 70
8
 71
3
 72
8
 73
4
 74
0
 40
0
 40
0
 40
0
 40
0
 40
1
 40
1
 40
1
 40
1
 10
27.610664
 20
254.594917
 30
0.0
 10
27.511445
 20
254.727209
 30
0.0
 10
27.437031
 20
254.870525
 30
0.0
 10
27.387422
 20
255.024865
 30
0.0
  0
SPLINE
  5
22b
100
AcDbEntity
  8
Layer_1
 62
3
100
AcDbSpline
 70
8
 71
3
 72
8
 73
4
 74
0
 40
0
 40
0
 40
0
 40
0
 40
1
 40
1
 40
1
 40
1
 10
27.387422
 20
255.024865
 30
0.0
 10
27.337815
 20
255.179205
 30
0.0
 10
27.313012
 20
255.336301
 30
0.0
 10
27.313012
 20
255.496154
 30
0.0
  0
SPLINE
  5
22c
100
AcDbEntity
  8
Layer_1
 62
3
100
AcDbSpline
 70
8
 71
3
 72
8
 73
4
 74
0
 40
0
 40
0
 40
0
 40
0
 40
1
 40
1
 40
1
 40
1
 10
27.313012
 20
255.496154
 30
0.0
 10
27.313012
 20
255.656007
 30
0.0
 10
27.337815
 20
255.813103
 30
0.0
 10
27.387422
 20
255.967443
 30
0.0
  0
SPLINE
  5
22d
100
AcDbEntity
  8
Layer_1
 62
3
100
AcDbSpline
 70
8
 71
3
 72
8
 73
4
 74
0
 40
0
 40
0
 40
0
 40
0
 40
1
 40
1
 40
1
 40
1
 10
27.387422
 20
255.967443
 30
0.0
 10
27.437029
 20
256.121784
 30
0.0
 10
27.511443
 20
256.265100
 30
0.0
 10
27.610664
 20
256.397391
 30
0.0
  0
SPLINE
  5
22e
100
AcDbEntity
  8
Layer_1
 62
3
100
AcDbSpline
 70
8
 71
3
 72
8
 73
4
 74
0
 40
0
 40
0
 40
0
 40
0
 40
1
 40
1
 40
1
 40
1
 10
27.610664
 20
256.397391
 30
0.0
 10
27.709883
 20
256.529683
 30
0.0
 10
27.833906
 20
256.645438
 30
0.0
 10
27.982735
 20
256.744657
 30
0.0
  0
SPLINE
  5
22f
100
AcDbEntity
  8
Layer_1
 62
3
100
AcDbSpline
 70
8
 71
3
 72
8
 73
4
 74
0
 40
0
 40
0
 40
0
 40
0
 40
1
 40
1
 40
1
 40
1
 10
27.982735
 20
256.744657
 30
0.0
 10
28.131563
 20
256.843876
 30
0.0
 10
28.305196
 20
256.915534
 30
0.0
 10
28.503633
 20
256.959631
 30
0.0
  0
LWPOLYLINE
  5
230
100
AcDbEntity
  8
Layer_1
 62
3
100
AcDbPolyline
 90
3
 70
0
 10
28.057149
 20
249.228837
 30
0.0
 10
37.267956
 20
251.428186
 30
0.0
 10
28.503633
 20
254.049214
 30
0.0
  0
SPLINE
  5
231
100
AcDbEntity
  8
Layer_1
 62
3
100
AcDbSpline
 70
8
 71
3
 72
8
 73
4
 74
0
 40
0
 40
0
 40
0
 40
0
 40
1
 40
1
 40
1
 40
1
 10
28.073685
 20
261.854422
 30
0.0
 10
27.809102
 20
261.904029
 30
0.0
 10
27.618932
 20
262.014272
 30
0.0
 10
27.503177
 20
262.185151
 30
0.0
  0
SPLINE
  5
232
100
AcDbEntity
  8
Layer_1
 62
3
100
AcDbSpline
 70
8
 71
3
 72
8
 73
4
 74
0
 40
0
 40
0
 40
0
 40
0
 40
1
 40
1
 40
1
 40
1
 10
27.503177
 20
262.185151
 30
0.0
 10
27.381910
 20
262.361540
 30
0.0
 10
27.321276
 20
262.551709
 30
0.0
 10
27.321276
 20
262.755659
 30
0.0
  0
SPLINE
  5
233
100
AcDbEntity
  8
Layer_1
 62
3
100
AcDbSpline
 70
8
 71
3
 72
8
 73
4
 74
0
 40
0
 40
0
 40
0
 40
0
 40
1
 40
1
 40
1
 40
1
 10
27.321276
 20
262.755659
 30
0.0
 10
27.321276
 20
262.882438
 30
0.0
 10
27.343326
 20
263.006462
 30
0.0
 10
27.387426
 20
263.127729
 30
0.0
  0
SPLINE
  5
234
100
AcDbEntity
  8
Layer_1
 62
3
100
AcDbSpline
 70
8
 71
3
 72
8
 73
4
 74
0
 40
0
 40
0
 40
0
 40
0
 40
1
 40
1
 40
1
 40
1
 10
27.387426
 20
263.127729
 30
0.0
 10
27.431526
 20
263.254508
 30
0.0
 10
27.494916
 20
263.367508
 30
0.0
 10
27.577595
 20
263.466727
 30
0.0
  0
SPLINE
  5
235
100
AcDbEntity
  8
Layer_1
 62
3
100
AcDbSpline
 70
8
 71
3
 72
8
 73
4
 74
0
 40
0
 40
0
 40
0
 40
0
 40
1
 40
1
 40
1
 40
1
 10
27.577595
 20
263.466727
 30
0.0
 10
27.654766
 20
263.565946
 30
0.0
 10
27.751228
 20
263.645872
 30
0.0
 10
27.866983
 20
263.706505
 30
0.0
  0
SPLINE
  5
236
100
AcDbEntity
  8
Layer_1
 62
3
100
AcDbSpline
 70
8
 71
3
 72
8
 73
4
 74
0
 40
0
 40
0
 40
0
 40
0
 40
1
 40
1
 40
1
 40
1
 10
27.866983
 20
263.706505
 30
0.0
 10
27.977226
 20
263.767138
 30
0.0
 10
28.104006
 20
263.797455
 30
0.0
 10
28.247322
 20
263.797455
 30
0.0
  0
SPLINE
  5
237
100
AcDbEntity
  8
Layer_1
 62
3
100
AcDbSpline
 70
8
 71
3
 72
8
 73
4
 74
0
 40
0
 40
0
 40
0
 40
0
 40
1
 40
1
 40
1
 40
1
 10
28.247322
 20
263.797455
 30
0.0
 10
28.335517
 20
263.797455
 30
0.0
 10
28.420955
 20
263.786432
 30
0.0
 10
28.503637
 20
263.764385
 30
0.0
  0
LWPOLYLINE
  5
238
100
AcDbEntity
  8
Layer_1
 62
3
100
AcDbPolyline
 90
3
 70
0
 10
28.503633
 20
256.959631
 30
0.0
 10
37.251419
 20
259.679878
 30
0.0
 10
28.073685
 20
261.854422
 30
0.0
  0
SPLINE
  5
239
100
AcDbEntity
  8
Layer_1
 62
3
100
AcDbSpline
 70
8
 71
3
 72
8
 73
4
 74
0
 40
0
 40
0
 40
0
 40
0
 40
1
 40
1
 40
1
 40
1
 10
37.970759
 20
261.292184
 30
0.0
 10
38.180221
 20
261.242577
 30
0.0
 10
38.364878
 20
261.162651
 30
0.0
 10
38.524730
 20
261.052406
 30
0.0
  0
SPLINE
  5
23a
100
AcDbEntity
  8
Layer_1
 62
3
100
AcDbSpline
 70
8
 71
3
 72
8
 73
4
 74
0
 40
0
 40
0
 40
0
 40
0
 40
1
 40
1
 40
1
 40
1
 10
38.524730
 20
261.052406
 30
0.0
 10
38.679071
 20
260.942163
 30
0.0
 10
38.811362
 20
260.812627
 30
0.0
 10
38.921605
 20
260.663799
 30
0.0
  0
SPLINE
  5
23b
100
AcDbEntity
  8
Layer_1
 62
3
100
AcDbSpline
 70
8
 71
3
 72
8
 73
4
 74
0
 40
0
 40
0
 40
0
 40
0
 40
1
 40
1
 40
1
 40
1
 10
38.921605
 20
260.663799
 30
0.0
 10
39.026336
 20
260.520483
 30
0.0
 10
39.106263
 20
260.360631
 30
0.0
 10
39.161384
 20
260.184242
 30
0.0
  0
SPLINE
  5
23c
100
AcDbEntity
  8
Layer_1
 62
3
100
AcDbSpline
 70
8
 71
3
 72
8
 73
4
 74
0
 40
0
 40
0
 40
0
 40
0
 40
1
 40
1
 40
1
 40
1
 10
39.161384
 20
260.184242
 30
0.0
 10
39.216504
 20
260.013365
 30
0.0
 10
39.244064
 20
259.839732
 30
0.0
 10
39.244064
 20
259.663343
 30
0.0
  0
SPLINE
  5
23d
100
AcDbEntity
  8
Layer_1
 62
3
100
AcDbSpline
 70
8
 71
3
 72
8
 73
4
 74
0
 40
0
 40
0
 40
0
 40
0
 40
1
 40
1
 40
1
 40
1
 10
39.244064
 20
259.663343
 30
0.0
 10
39.244064
 20
259.486954
 30
0.0
 10
39.219261
 20
259.313322
 30
0.0
 10
39.169654
 20
259.142445
 30
0.0
  0
SPLINE
  5
23e
100
AcDbEntity
  8
Layer_1
 62
3
100
AcDbSpline
 70
8
 71
3
 72
8
 73
4
 74
0
 40
0
 40
0
 40
0
 40
0
 40
1
 40
1
 40
1
 40
1
 10
39.169654
 20
259.142445
 30
0.0
 10
39.114534
 20
258.977080
 30
0.0
 10
39.034608
 20
258.822740
 30
0.0
 10
38.929875
 20
258.679424
 30
0.0
  0
SPLINE
  5
23f
100
AcDbEntity
  8
Layer_1
 62
3
100
AcDbSpline
 70
8
 71
3
 72
8
 73
4
 74
0
 40
0
 40
0
 40
0
 40
0
 40
1
 40
1
 40
1
 40
1
 10
38.929875
 20
258.679424
 30
0.0
 10
38.819632
 20
258.536108
 30
0.0
 10
38.687341
 20
258.412085
 30
0.0
 10
38.533001
 20
258.307354
 30
0.0
  0
SPLINE
  5
240
100
AcDbEntity
  8
Layer_1
 62
3
100
AcDbSpline
 70
8
 71
3
 72
8
 73
4
 74
0
 40
0
 40
0
 40
0
 40
0
 40
1
 40
1
 40
1
 40
1
 10
38.533001
 20
258.307354
 30
0.0
 10
38.373148
 20
258.202623
 30
0.0
 10
38.185735
 20
258.125453
 30
0.0
 10
37.970761
 20
258.075843
 30
0.0
  0
LWPOLYLINE
  5
241
100
AcDbEntity
  8
Layer_1
 62
3
100
AcDbPolyline
 90
2
 70
0
 10
28.503637
 20
263.764385
 30
0.0
 10
37.970759
 20
261.292184
 30
0.0
  0
SPLINE
  5
242
100
AcDbEntity
  8
Layer_1
 62
3
100
AcDbSpline
 70
8
 71
3
 72
8
 73
4
 74
0
 40
0
 40
0
 40
0
 40
0
 40
1
 40
1
 40
1
 40
1
 10
28.189434
 20
267.614896
 30
0.0
 10
28.459530
 20
267.614896
 30
0.0
 10
28.682772
 20
267.507409
 30
0.0
 10
28.859161
 20
267.292435
 30
0.0
  0
SPLINE
  5
243
100
AcDbEntity
  8
Layer_1
 62
3
100
AcDbSpline
 70
8
 71
3
 72
8
 73
4
 74
0
 40
0
 40
0
 40
0
 40
0
 40
1
 40
1
 40
1
 40
1
 10
28.859161
 20
267.292435
 30
0.0
 10
29.030038
 20
267.077461
 30
0.0
 10
29.115476
 20
266.801853
 30
0.0
 10
29.115476
 20
266.465612
 30
0.0
  0
SPLINE
  5
244
100
AcDbEntity
  8
Layer_1
 62
3
100
AcDbSpline
 70
8
 71
3
 72
8
 73
4
 74
0
 40
0
 40
0
 40
0
 40
0
 40
1
 40
1
 40
1
 40
1
 10
29.115476
 20
266.465612
 30
0.0
 10
29.115476
 20
266.300247
 30
0.0
 10
29.093426
 20
266.145907
 30
0.0
 10
29.049326
 20
266.002591
 30
0.0
  0
SPLINE
  5
245
100
AcDbEntity
  8
Layer_1
 62
3
100
AcDbSpline
 70
8
 71
3
 72
8
 73
4
 74
0
 40
0
 40
0
 40
0
 40
0
 40
1
 40
1
 40
1
 40
1
 10
29.049326
 20
266.002591
 30
0.0
 10
28.999719
 20
265.864787
 30
0.0
 10
28.933574
 20
265.743520
 30
0.0
 10
28.850889
 20
265.638789
 30
0.0
  0
SPLINE
  5
246
100
AcDbEntity
  8
Layer_1
 62
3
100
AcDbSpline
 70
8
 71
3
 72
8
 73
4
 74
0
 40
0
 40
0
 40
0
 40
0
 40
1
 40
1
 40
1
 40
1
 10
28.850889
 20
265.638789
 30
0.0
 10
28.768206
 20
265.539570
 30
0.0
 10
28.671744
 20
265.459644
 30
0.0
 10
28.561501
 20
265.399010
 30
0.0
  0
SPLINE
  5
247
100
AcDbEntity
  8
Layer_1
 62
3
100
AcDbSpline
 70
8
 71
3
 72
8
 73
4
 74
0
 40
0
 40
0
 40
0
 40
0
 40
1
 40
1
 40
1
 40
1
 10
28.561501
 20
265.399010
 30
0.0
 10
28.445746
 20
265.343890
 30
0.0
 10
28.321722
 20
265.316330
 30
0.0
 10
28.189430
 20
265.316330
 30
0.0
  0
SPLINE
  5
248
100
AcDbEntity
  8
Layer_1
 62
3
100
AcDbSpline
 70
8
 71
3
 72
8
 73
4
 74
0
 40
0
 40
0
 40
0
 40
0
 40
1
 40
1
 40
1
 40
1
 10
28.189430
 20
265.316330
 30
0.0
 10
28.057139
 20
265.316330
 30
0.0
 10
27.935871
 20
265.343890
 30
0.0
 10
27.825628
 20
265.399010
 30
0.0
  0
SPLINE
  5
249
100
AcDbEntity
  8
Layer_1
 62
3
100
AcDbSpline
 70
8
 71
3
 72
8
 73
4
 74
0
 40
0
 40
0
 40
0
 40
0
 40
1
 40
1
 40
1
 40
1
 10
27.825628
 20
265.399010
 30
0.0
 10
27.709873
 20
265.459643
 30
0.0
 10
27.610655
 20
265.539570
 30
0.0
 10
27.527972
 20
265.638789
 30
0.0
  0
SPLINE
  5
24a
100
AcDbEntity
  8
Layer_1
 62
3
100
AcDbSpline
 70
8
 71
3
 72
8
 73
4
 74
0
 40
0
 40
0
 40
0
 40
0
 40
1
 40
1
 40
1
 40
1
 10
27.527972
 20
265.638789
 30
0.0
 10
27.445290
 20
265.743520
 30
0.0
 10
27.381900
 20
265.867543
 30
0.0
 10
27.337803
 20
266.010859
 30
0.0
  0
SPLINE
  5
24b
100
AcDbEntity
  8
Layer_1
 62
3
100
AcDbSpline
 70
8
 71
3
 72
8
 73
4
 74
0
 40
0
 40
0
 40
0
 40
0
 40
1
 40
1
 40
1
 40
1
 10
27.337803
 20
266.010859
 30
0.0
 10
27.288196
 20
266.154175
 30
0.0
 10
27.263393
 20
266.308515
 30
0.0
 10
27.263393
 20
266.473880
 30
0.0
  0
SPLINE
  5
24c
100
AcDbEntity
  8
Layer_1
 62
3
100
AcDbSpline
 70
8
 71
3
 72
8
 73
4
 74
0
 40
0
 40
0
 40
0
 40
0
 40
1
 40
1
 40
1
 40
1
 10
27.263393
 20
266.473880
 30
0.0
 10
27.263393
 20
266.639245
 30
0.0
 10
27.288196
 20
266.790829
 30
0.0
 10
27.337803
 20
266.928633
 30
0.0
  0
SPLINE
  5
24d
100
AcDbEntity
  8
Layer_1
 62
3
100
AcDbSpline
 70
8
 71
3
 72
8
 73
4
 74
0
 40
0
 40
0
 40
0
 40
0
 40
1
 40
1
 40
1
 40
1
 10
27.337803
 20
266.928633
 30
0.0
 10
27.381903
 20
267.071949
 30
0.0
 10
27.445293
 20
267.193216
 30
0.0
 10
27.527972
 20
267.292435
 30
0.0
  0
SPLINE
  5
24e
100
AcDbEntity
  8
Layer_1
 62
3
100
AcDbSpline
 70
8
 71
3
 72
8
 73
4
 74
0
 40
0
 40
0
 40
0
 40
0
 40
1
 40
1
 40
1
 40
1
 10
27.527972
 20
267.292435
 30
0.0
 10
27.610655
 20
267.391654
 30
0.0
 10
27.709873
 20
267.468824
 30
0.0
 10
27.825628
 20
267.523945
 30
0.0
  0
SPLINE
  5
24f
100
AcDbEntity
  8
Layer_1
 62
3
100
AcDbSpline
 70
8
 71
3
 72
8
 73
4
 74
0
 40
0
 40
0
 40
0
 40
0
 40
1
 40
1
 40
1
 40
1
 10
27.825628
 20
267.523945
 30
0.0
 10
27.935871
 20
267.584578
 30
0.0
 10
28.057139
 20
267.614895
 30
0.0
 10
28.189430
 20
267.614895
 30
0.0
  0
LWPOLYLINE
  5
250
100
AcDbEntity
  8
Layer_1
 62
3
100
AcDbPolyline
 90
2
 70
0
 10
37.970761
 20
258.075843
 30
0.0
 10
29.363523
 20
255.487882
 30
0.0
  0
SPLINE
  5
251
100
AcDbEntity
  8
Layer_1
 62
3
100
AcDbSpline
 70
8
 71
3
 72
8
 73
4
 74
0
 40
0
 40
0
 40
0
 40
0
 40
1
 40
1
 40
1
 40
1
 10
31.893601
 20
265.498229
 30
0.0
 10
31.733748
 20
265.498229
 30
0.0
 10
31.595944
 20
265.525789
 30
0.0
 10
31.480189
 20
265.580909
 30
0.0
  0
SPLINE
  5
252
100
AcDbEntity
  8
Layer_1
 62
3
100
AcDbSpline
 70
8
 71
3
 72
8
 73
4
 74
0
 40
0
 40
0
 40
0
 40
0
 40
1
 40
1
 40
1
 40
1
 10
31.480189
 20
265.580909
 30
0.0
 10
31.358922
 20
265.636029
 30
0.0
 10
31.259703
 20
265.707687
 30
0.0
 10
31.182533
 20
265.795883
 30
0.0
  0
SPLINE
  5
253
100
AcDbEntity
  8
Layer_1
 62
3
100
AcDbSpline
 70
8
 71
3
 72
8
 73
4
 74
0
 40
0
 40
0
 40
0
 40
0
 40
1
 40
1
 40
1
 40
1
 10
31.182533
 20
265.795883
 30
0.0
 10
31.099851
 20
265.889590
 30
0.0
 10
31.039217
 20
265.994321
 30
0.0
 10
31.000632
 20
266.110076
 30
0.0
  0
SPLINE
  5
254
100
AcDbEntity
  8
Layer_1
 62
3
100
AcDbSpline
 70
8
 71
3
 72
8
 73
4
 74
0
 40
0
 40
0
 40
0
 40
0
 40
1
 40
1
 40
1
 40
1
 10
31.000632
 20
266.110076
 30
0.0
 10
30.956532
 20
266.231343
 30
0.0
 10
30.934482
 20
266.352611
 30
0.0
 10
30.934482
 20
266.473878
 30
0.0
  0
SPLINE
  5
255
100
AcDbEntity
  8
Layer_1
 62
3
100
AcDbSpline
 70
8
 71
3
 72
8
 73
4
 74
0
 40
0
 40
0
 40
0
 40
0
 40
1
 40
1
 40
1
 40
1
 10
30.934482
 20
266.473878
 30
0.0
 10
30.934482
 20
266.595145
 30
0.0
 10
30.956532
 20
266.713657
 30
0.0
 10
31.000632
 20
266.829412
 30
0.0
  0
SPLINE
  5
256
100
AcDbEntity
  8
Layer_1
 62
3
100
AcDbSpline
 70
8
 71
3
 72
8
 73
4
 74
0
 40
0
 40
0
 40
0
 40
0
 40
1
 40
1
 40
1
 40
1
 10
31.000632
 20
266.829412
 30
0.0
 10
31.039219
 20
266.945167
 30
0.0
 10
31.099852
 20
267.047142
 30
0.0
 10
31.182533
 20
267.135336
 30
0.0
  0
SPLINE
  5
257
100
AcDbEntity
  8
Layer_1
 62
3
100
AcDbSpline
 70
8
 71
3
 72
8
 73
4
 74
0
 40
0
 40
0
 40
0
 40
0
 40
1
 40
1
 40
1
 40
1
 10
31.182533
 20
267.135336
 30
0.0
 10
31.259703
 20
267.229043
 30
0.0
 10
31.358922
 20
267.303457
 30
0.0
 10
31.480189
 20
267.358578
 30
0.0
  0
SPLINE
  5
258
100
AcDbEntity
  8
Layer_1
 62
3
100
AcDbSpline
 70
8
 71
3
 72
8
 73
4
 74
0
 40
0
 40
0
 40
0
 40
0
 40
1
 40
1
 40
1
 40
1
 10
31.480189
 20
267.358578
 30
0.0
 10
31.595944
 20
267.413698
 30
0.0
 10
31.733748
 20
267.441258
 30
0.0
 10
31.893601
 20
267.441258
 30
0.0
  0
LWPOLYLINE
  5
259
100
AcDbEntity
  8
Layer_1
 62
3
100
AcDbPolyline
 90
1
 70
1
 10
28.189430
 20
267.614895
 30
0.0
  0
SPLINE
  5
25a
100
AcDbEntity
  8
Layer_1
 62
3
100
AcDbSpline
 70
8
 71
3
 72
8
 73
4
 74
0
 40
0
 40
0
 40
0
 40
0
 40
1
 40
1
 40
1
 40
1
 10
38.251869
 20
267.441258
 30
0.0
 10
38.411721
 20
267.441258
 30
0.0
 10
38.552281
 20
267.410941
 30
0.0
 10
38.673548
 20
267.350308
 30
0.0
  0
SPLINE
  5
25b
100
AcDbEntity
  8
Layer_1
 62
3
100
AcDbSpline
 70
8
 71
3
 72
8
 73
4
 74
0
 40
0
 40
0
 40
0
 40
0
 40
1
 40
1
 40
1
 40
1
 10
38.673548
 20
267.350308
 30
0.0
 10
38.789303
 20
267.295188
 30
0.0
 10
38.888522
 20
267.220774
 30
0.0
 10
38.971205
 20
267.127066
 30
0.0
  0
SPLINE
  5
25c
100
AcDbEntity
  8
Layer_1
 62
3
100
AcDbSpline
 70
8
 71
3
 72
8
 73
4
 74
0
 40
0
 40
0
 40
0
 40
0
 40
1
 40
1
 40
1
 40
1
 10
38.971205
 20
267.127066
 30
0.0
 10
39.048375
 20
267.038871
 30
0.0
 10
39.109009
 20
266.934140
 30
0.0
 10
39.153106
 20
266.812873
 30
0.0
  0
SPLINE
  5
25d
100
AcDbEntity
  8
Layer_1
 62
3
100
AcDbSpline
 70
8
 71
3
 72
8
 73
4
 74
0
 40
0
 40
0
 40
0
 40
0
 40
1
 40
1
 40
1
 40
1
 10
39.153106
 20
266.812873
 30
0.0
 10
39.191693
 20
266.697118
 30
0.0
 10
39.210986
 20
266.578607
 30
0.0
 10
39.210986
 20
266.457340
 30
0.0
  0
SPLINE
  5
25e
100
AcDbEntity
  8
Layer_1
 62
3
100
AcDbSpline
 70
8
 71
3
 72
8
 73
4
 74
0
 40
0
 40
0
 40
0
 40
0
 40
1
 40
1
 40
1
 40
1
 10
39.210986
 20
266.457340
 30
0.0
 10
39.210986
 20
266.336072
 30
0.0
 10
39.191693
 20
266.217561
 30
0.0
 10
39.153106
 20
266.101806
 30
0.0
  0
SPLINE
  5
25f
100
AcDbEntity
  8
Layer_1
 62
3
100
AcDbSpline
 70
8
 71
3
 72
8
 73
4
 74
0
 40
0
 40
0
 40
0
 40
0
 40
1
 40
1
 40
1
 40
1
 10
39.153106
 20
266.101806
 30
0.0
 10
39.114519
 20
265.986051
 30
0.0
 10
39.056642
 20
265.884076
 30
0.0
 10
38.979473
 20
265.795881
 30
0.0
  0
SPLINE
  5
260
100
AcDbEntity
  8
Layer_1
 62
3
100
AcDbSpline
 70
8
 71
3
 72
8
 73
4
 74
0
 40
0
 40
0
 40
0
 40
0
 40
1
 40
1
 40
1
 40
1
 10
38.979473
 20
265.795881
 30
0.0
 10
38.896790
 20
265.707687
 30
0.0
 10
38.794815
 20
265.636029
 30
0.0
 10
38.673548
 20
265.580907
 30
0.0
  0
SPLINE
  5
261
100
AcDbEntity
  8
Layer_1
 62
3
100
AcDbSpline
 70
8
 71
3
 72
8
 73
4
 74
0
 40
0
 40
0
 40
0
 40
0
 40
1
 40
1
 40
1
 40
1
 10
38.673548
 20
265.580907
 30
0.0
 10
38.552281
 20
265.525787
 30
0.0
 10
38.411721
 20
265.498227
 30
0.0
 10
38.251869
 20
265.498227
 30
0.0
  0
LWPOLYLINE
  5
262
100
AcDbEntity
  8
Layer_1
 62
3
100
AcDbPolyline
 90
2
 70
0
 10
31.893601
 20
267.441258
 30
0.0
 10
38.251869
 20
267.441258
 30
0.0
  0
SPLINE
  5
263
100
AcDbEntity
  8
Layer_1
 62
3
100
AcDbSpline
 70
8
 71
3
 72
8
 73
4
 74
0
 40
0
 40
0
 40
0
 40
0
 40
1
 40
1
 40
1
 40
1
 10
31.843991
 20
269.762155
 30
0.0
 10
31.695163
 20
269.762155
 30
0.0
 10
31.562871
 20
269.789715
 30
0.0
 10
31.447116
 20
269.844835
 30
0.0
  0
SPLINE
  5
264
100
AcDbEntity
  8
Layer_1
 62
3
100
AcDbSpline
 70
8
 71
3
 72
8
 73
4
 74
0
 40
0
 40
0
 40
0
 40
0
 40
1
 40
1
 40
1
 40
1
 10
31.447116
 20
269.844835
 30
0.0
 10
31.331361
 20
269.905468
 30
0.0
 10
31.237655
 20
269.979882
 30
0.0
 10
31.165997
 20
270.068077
 30
0.0
  0
SPLINE
  5
265
100
AcDbEntity
  8
Layer_1
 62
3
100
AcDbSpline
 70
8
 71
3
 72
8
 73
4
 74
0
 40
0
 40
0
 40
0
 40
0
 40
1
 40
1
 40
1
 40
1
 10
31.165997
 20
270.068077
 30
0.0
 10
31.088827
 20
270.161784
 30
0.0
 10
31.030949
 20
270.266515
 30
0.0
 10
30.992364
 20
270.382270
 30
0.0
  0
SPLINE
  5
266
100
AcDbEntity
  8
Layer_1
 62
3
100
AcDbSpline
 70
8
 71
3
 72
8
 73
4
 74
0
 40
0
 40
0
 40
0
 40
0
 40
1
 40
1
 40
1
 40
1
 10
30.992364
 20
270.382270
 30
0.0
 10
30.953777
 20
270.503537
 30
0.0
 10
30.934484
 20
270.624805
 30
0.0
 10
30.934484
 20
270.746072
 30
0.0
  0
SPLINE
  5
267
100
AcDbEntity
  8
Layer_1
 62
3
100
AcDbSpline
 70
8
 71
3
 72
8
 73
4
 74
0
 40
0
 40
0
 40
0
 40
0
 40
1
 40
1
 40
1
 40
1
 10
30.934484
 20
270.746072
 30
0.0
 10
30.934484
 20
270.861827
 30
0.0
 10
30.953777
 20
270.974826
 30
0.0
 10
30.992364
 20
271.085069
 30
0.0
  0
SPLINE
  5
268
100
AcDbEntity
  8
Layer_1
 62
3
100
AcDbSpline
 70
8
 71
3
 72
8
 73
4
 74
0
 40
0
 40
0
 40
0
 40
0
 40
1
 40
1
 40
1
 40
1
 10
30.992364
 20
271.085069
 30
0.0
 10
31.025437
 20
271.195312
 30
0.0
 10
31.077803
 20
271.294531
 30
0.0
 10
31.149460
 20
271.382726
 30
0.0
  0
SPLINE
  5
269
100
AcDbEntity
  8
Layer_1
 62
3
100
AcDbSpline
 70
8
 71
3
 72
8
 73
4
 74
0
 40
0
 40
0
 40
0
 40
0
 40
1
 40
1
 40
1
 40
1
 10
31.149460
 20
271.382726
 30
0.0
 10
31.215607
 20
271.470920
 30
0.0
 10
31.303801
 20
271.542578
 30
0.0
 10
31.414044
 20
271.597699
 30
0.0
  0
SPLINE
  5
26a
100
AcDbEntity
  8
Layer_1
 62
3
100
AcDbSpline
 70
8
 71
3
 72
8
 73
4
 74
0
 40
0
 40
0
 40
0
 40
0
 40
1
 40
1
 40
1
 40
1
 10
31.414044
 20
271.597699
 30
0.0
 10
31.518775
 20
271.658332
 30
0.0
 10
31.642798
 20
271.691406
 30
0.0
 10
31.786114
 20
271.696919
 30
0.0
  0
SPLINE
  5
26b
100
AcDbEntity
  8
Layer_1
 62
3
100
AcDbSpline
 70
8
 71
3
 72
8
 73
4
 74
0
 40
0
 40
0
 40
0
 40
0
 40
1
 40
1
 40
1
 40
1
 10
31.786114
 20
271.696919
 30
0.0
 10
31.791647
 20
271.696919
 30
0.0
 10
31.827476
 20
271.696919
 30
0.0
 10
31.893601
 20
271.696919
 30
0.0
  0
SPLINE
  5
26c
100
AcDbEntity
  8
Layer_1
 62
3
100
AcDbSpline
 70
8
 71
3
 72
8
 73
4
 74
0
 40
0
 40
0
 40
0
 40
0
 40
1
 40
1
 40
1
 40
1
 10
31.893601
 20
271.696919
 30
0.0
 10
31.959748
 20
271.702452
 30
0.0
 10
32.036918
 20
271.705219
 30
0.0
 10
32.125111
 20
271.705219
 30
0.0
  0
SPLINE
  5
26d
100
AcDbEntity
  8
Layer_1
 62
3
100
AcDbSpline
 70
8
 71
3
 72
8
 73
4
 74
0
 40
0
 40
0
 40
0
 40
0
 40
1
 40
1
 40
1
 40
1
 10
32.125111
 20
271.705219
 30
0.0
 10
32.207794
 20
271.705219
 30
0.0
 10
32.282208
 20
271.705219
 30
0.0
 10
32.348353
 20
271.705219
 30
0.0
  0
SPLINE
  5
26e
100
AcDbEntity
  8
Layer_1
 62
3
100
AcDbSpline
 70
8
 71
3
 72
8
 73
4
 74
0
 40
0
 40
0
 40
0
 40
0
 40
1
 40
1
 40
1
 40
1
 10
32.348353
 20
271.705219
 30
0.0
 10
32.414500
 20
271.705219
 30
0.0
 10
32.450329
 20
271.705219
 30
0.0
 10
32.455840
 20
271.705219
 30
0.0
  0
SPLINE
  5
26f
100
AcDbEntity
  8
Layer_1
 62
3
100
AcDbSpline
 70
8
 71
3
 72
8
 73
4
 74
0
 40
0
 40
0
 40
0
 40
0
 40
1
 40
1
 40
1
 40
1
 10
32.455840
 20
271.705219
 30
0.0
 10
31.987307
 20
271.831999
 30
0.0
 10
31.601457
 20
272.074534
 30
0.0
 10
31.298288
 20
272.432824
 30
0.0
  0
SPLINE
  5
270
100
AcDbEntity
  8
Layer_1
 62
3
100
AcDbSpline
 70
8
 71
3
 72
8
 73
4
 74
0
 40
0
 40
0
 40
0
 40
0
 40
1
 40
1
 40
1
 40
1
 10
31.298288
 20
272.432824
 30
0.0
 10
30.989608
 20
272.791113
 30
0.0
 10
30.835268
 20
273.270670
 30
0.0
 10
30.835268
 20
273.871495
 30
0.0
  0
SPLINE
  5
271
100
AcDbEntity
  8
Layer_1
 62
3
100
AcDbSpline
 70
8
 71
3
 72
8
 73
4
 74
0
 40
0
 40
0
 40
0
 40
0
 40
1
 40
1
 40
1
 40
1
 10
30.835268
 20
273.871495
 30
0.0
 10
30.835268
 20
274.009299
 30
0.0
 10
30.860071
 20
274.130566
 30
0.0
 10
30.909678
 20
274.235297
 30
0.0
  0
SPLINE
  5
272
100
AcDbEntity
  8
Layer_1
 62
3
100
AcDbSpline
 70
8
 71
3
 72
8
 73
4
 74
0
 40
0
 40
0
 40
0
 40
0
 40
1
 40
1
 40
1
 40
1
 10
30.909678
 20
274.235297
 30
0.0
 10
30.953771
 20
274.345540
 30
0.0
 10
31.011649
 20
274.436491
 30
0.0
 10
31.083310
 20
274.508149
 30
0.0
  0
SPLINE
  5
273
100
AcDbEntity
  8
Layer_1
 62
3
100
AcDbSpline
 70
8
 71
3
 72
8
 73
4
 74
0
 40
0
 40
0
 40
0
 40
0
 40
1
 40
1
 40
1
 40
1
 10
31.083310
 20
274.508149
 30
0.0
 10
31.154968
 20
274.579807
 30
0.0
 10
31.237650
 20
274.632172
 30
0.0
 10
31.331357
 20
274.665245
 30
0.0
  0
SPLINE
  5
274
100
AcDbEntity
  8
Layer_1
 62
3
100
AcDbSpline
 70
8
 71
3
 72
8
 73
4
 74
0
 40
0
 40
0
 40
0
 40
0
 40
1
 40
1
 40
1
 40
1
 10
31.331357
 20
274.665245
 30
0.0
 10
31.425064
 20
274.703832
 30
0.0
 10
31.521526
 20
274.723125
 30
0.0
 10
31.620745
 20
274.723125
 30
0.0
  0
SPLINE
  5
275
100
AcDbEntity
  8
Layer_1
 62
3
100
AcDbSpline
 70
8
 71
3
 72
8
 73
4
 74
0
 40
0
 40
0
 40
0
 40
0
 40
1
 40
1
 40
1
 40
1
 10
31.620745
 20
274.723125
 30
0.0
 10
31.719964
 20
274.723125
 30
0.0
 10
31.816426
 20
274.703832
 30
0.0
 10
31.910133
 20
274.665245
 30
0.0
  0
SPLINE
  5
276
100
AcDbEntity
  8
Layer_1
 62
3
100
AcDbSpline
 70
8
 71
3
 72
8
 73
4
 74
0
 40
0
 40
0
 40
0
 40
0
 40
1
 40
1
 40
1
 40
1
 10
31.910133
 20
274.665245
 30
0.0
 10
32.003840
 20
274.632172
 30
0.0
 10
32.089278
 20
274.577050
 30
0.0
 10
32.166448
 20
274.499881
 30
0.0
  0
SPLINE
  5
277
100
AcDbEntity
  8
Layer_1
 62
3
100
AcDbSpline
 70
8
 71
3
 72
8
 73
4
 74
0
 40
0
 40
0
 40
0
 40
0
 40
1
 40
1
 40
1
 40
1
 10
32.166448
 20
274.499881
 30
0.0
 10
32.238106
 20
274.428223
 30
0.0
 10
32.298740
 20
274.334516
 30
0.0
 10
32.348349
 20
274.218761
 30
0.0
  0
SPLINE
  5
278
100
AcDbEntity
  8
Layer_1
 62
3
100
AcDbSpline
 70
8
 71
3
 72
8
 73
4
 74
0
 40
0
 40
0
 40
0
 40
0
 40
1
 40
1
 40
1
 40
1
 10
32.348349
 20
274.218761
 30
0.0
 10
32.392449
 20
274.108518
 30
0.0
 10
32.414499
 20
273.978982
 30
0.0
 10
32.414499
 20
273.830154
 30
0.0
  0
SPLINE
  5
279
100
AcDbEntity
  8
Layer_1
 62
3
100
AcDbSpline
 70
8
 71
3
 72
8
 73
4
 74
0
 40
0
 40
0
 40
0
 40
0
 40
1
 40
1
 40
1
 40
1
 10
32.414499
 20
273.830154
 30
0.0
 10
32.414499
 20
273.510449
 30
0.0
 10
32.461352
 20
273.218305
 30
0.0
 10
32.555059
 20
272.953722
 30
0.0
  0
SPLINE
  5
27a
100
AcDbEntity
  8
Layer_1
 62
3
100
AcDbSpline
 70
8
 71
3
 72
8
 73
4
 74
0
 40
0
 40
0
 40
0
 40
0
 40
1
 40
1
 40
1
 40
1
 10
32.555059
 20
272.953722
 30
0.0
 10
32.648766
 20
272.694651
 30
0.0
 10
32.792082
 20
272.471408
 30
0.0
 10
32.985007
 20
272.283995
 30
0.0
  0
SPLINE
  5
27b
100
AcDbEntity
  8
Layer_1
 62
3
100
AcDbSpline
 70
8
 71
3
 72
8
 73
4
 74
0
 40
0
 40
0
 40
0
 40
0
 40
1
 40
1
 40
1
 40
1
 10
32.985007
 20
272.283995
 30
0.0
 10
33.172420
 20
272.102094
 30
0.0
 10
33.390150
 20
271.958779
 30
0.0
 10
33.638197
 20
271.854048
 30
0.0
  0
SPLINE
  5
27c
100
AcDbEntity
  8
Layer_1
 62
3
100
AcDbSpline
 70
8
 71
3
 72
8
 73
4
 74
0
 40
0
 40
0
 40
0
 40
0
 40
1
 40
1
 40
1
 40
1
 10
33.638197
 20
271.854048
 30
0.0
 10
33.886244
 20
271.754829
 30
0.0
 10
34.203192
 20
271.705219
 30
0.0
 10
34.589043
 20
271.705219
 30
0.0
  0
LWPOLYLINE
  5
27d
100
AcDbEntity
  8
Layer_1
 62
3
100
AcDbPolyline
 90
2
 70
0
 10
38.251869
 20
265.498227
 30
0.0
 10
31.893601
 20
265.498229
 30
0.0
  0
SPLINE
  5
27e
100
AcDbEntity
  8
Layer_1
 62
3
100
AcDbSpline
 70
8
 71
3
 72
8
 73
4
 74
0
 40
0
 40
0
 40
0
 40
0
 40
1
 40
1
 40
1
 40
1
 10
38.293210
 20
271.705219
 30
0.0
 10
38.447550
 20
271.705219
 30
0.0
 10
38.582598
 20
271.674902
 30
0.0
 10
38.698353
 20
271.614269
 30
0.0
  0
SPLINE
  5
27f
100
AcDbEntity
  8
Layer_1
 62
3
100
AcDbSpline
 70
8
 71
3
 72
8
 73
4
 74
0
 40
0
 40
0
 40
0
 40
0
 40
1
 40
1
 40
1
 40
1
 10
38.698353
 20
271.614269
 30
0.0
 10
38.808596
 20
271.559149
 30
0.0
 10
38.902303
 20
271.484735
 30
0.0
 10
38.979473
 20
271.391027
 30
0.0
  0
SPLINE
  5
280
100
AcDbEntity
  8
Layer_1
 62
3
100
AcDbSpline
 70
8
 71
3
 72
8
 73
4
 74
0
 40
0
 40
0
 40
0
 40
0
 40
1
 40
1
 40
1
 40
1
 10
38.979473
 20
271.391027
 30
0.0
 10
39.056643
 20
271.302832
 30
0.0
 10
39.114521
 20
271.198101
 30
0.0
 10
39.153106
 20
271.076834
 30
0.0
  0
SPLINE
  5
281
100
AcDbEntity
  8
Layer_1
 62
3
100
AcDbSpline
 70
8
 71
3
 72
8
 73
4
 74
0
 40
0
 40
0
 40
0
 40
0
 40
1
 40
1
 40
1
 40
1
 10
39.153106
 20
271.076834
 30
0.0
 10
39.191693
 20
270.961079
 30
0.0
 10
39.210986
 20
270.842567
 30
0.0
 10
39.210986
 20
270.721300
 30
0.0
  0
SPLINE
  5
282
100
AcDbEntity
  8
Layer_1
 62
3
100
AcDbSpline
 70
8
 71
3
 72
8
 73
4
 74
0
 40
0
 40
0
 40
0
 40
0
 40
1
 40
1
 40
1
 40
1
 10
39.210986
 20
270.721300
 30
0.0
 10
39.210986
 20
270.600033
 30
0.0
 10
39.191693
 20
270.481521
 30
0.0
 10
39.153106
 20
270.365766
 30
0.0
  0
SPLINE
  5
283
100
AcDbEntity
  8
Layer_1
 62
3
100
AcDbSpline
 70
8
 71
3
 72
8
 73
4
 74
0
 40
0
 40
0
 40
0
 40
0
 40
1
 40
1
 40
1
 40
1
 10
39.153106
 20
270.365766
 30
0.0
 10
39.114519
 20
270.255523
 30
0.0
 10
39.059398
 20
270.153549
 30
0.0
 10
38.987741
 20
270.059842
 30
0.0
  0
SPLINE
  5
284
100
AcDbEntity
  8
Layer_1
 62
3
100
AcDbSpline
 70
8
 71
3
 72
8
 73
4
 74
0
 40
0
 40
0
 40
0
 40
0
 40
1
 40
1
 40
1
 40
1
 10
38.987741
 20
270.059842
 30
0.0
 10
38.910571
 20
269.971647
 30
0.0
 10
38.814108
 20
269.899989
 30
0.0
 10
38.698353
 20
269.844868
 30
0.0
  0
SPLINE
  5
285
100
AcDbEntity
  8
Layer_1
 62
3
100
AcDbSpline
 70
8
 71
3
 72
8
 73
4
 74
0
 40
0
 40
0
 40
0
 40
0
 40
1
 40
1
 40
1
 40
1
 10
38.698353
 20
269.844868
 30
0.0
 10
38.582598
 20
269.789748
 30
0.0
 10
38.447550
 20
269.762188
 30
0.0
 10
38.293210
 20
269.762188
 30
0.0
  0
LWPOLYLINE
  5
286
100
AcDbEntity
  8
Layer_1
 62
3
100
AcDbPolyline
 90
2
 70
0
 10
34.589043
 20
271.705219
 30
0.0
 10
38.293210
 20
271.705219
 30
0.0
  0
SPLINE
  5
287
100
AcDbEntity
  8
Layer_1
 62
3
100
AcDbSpline
 70
8
 71
3
 72
8
 73
4
 74
0
 40
0
 40
0
 40
0
 40
0
 40
1
 40
1
 40
1
 40
1
 10
34.804017
 20
283.766048
 30
0.0
 10
34.952846
 20
283.766048
 30
0.0
 10
35.085137
 20
283.716439
 30
0.0
 10
35.200892
 20
283.617220
 30
0.0
  0
SPLINE
  5
288
100
AcDbEntity
  8
Layer_1
 62
3
100
AcDbSpline
 70
8
 71
3
 72
8
 73
4
 74
0
 40
0
 40
0
 40
0
 40
0
 40
1
 40
1
 40
1
 40
1
 10
35.200892
 20
283.617220
 30
0.0
 10
35.311135
 20
283.523513
 30
0.0
 10
35.366257
 20
283.377441
 30
0.0
 10
35.366257
 20
283.179004
 30
0.0
  0
LWPOLYLINE
  5
289
100
AcDbEntity
  8
Layer_1
 62
3
100
AcDbPolyline
 90
2
 70
0
 10
38.293210
 20
269.762188
 30
0.0
 10
31.843991
 20
269.762155
 30
0.0
  0
SPLINE
  5
28a
100
AcDbEntity
  8
Layer_1
 62
3
100
AcDbSpline
 70
8
 71
3
 72
8
 73
4
 74
0
 40
0
 40
0
 40
0
 40
0
 40
1
 40
1
 40
1
 40
1
 10
35.366257
 20
277.548340
 30
0.0
 10
36.165519
 20
277.597947
 30
0.0
 10
36.785636
 20
277.843238
 30
0.0
 10
37.226608
 20
278.284213
 30
0.0
  0
SPLINE
  5
28b
100
AcDbEntity
  8
Layer_1
 62
3
100
AcDbSpline
 70
8
 71
3
 72
8
 73
4
 74
0
 40
0
 40
0
 40
0
 40
0
 40
1
 40
1
 40
1
 40
1
 10
37.226608
 20
278.284213
 30
0.0
 10
37.667581
 20
278.730697
 30
0.0
 10
37.888067
 20
279.317741
 30
0.0
 10
37.888067
 20
280.045345
 30
0.0
  0
SPLINE
  5
28c
100
AcDbEntity
  8
Layer_1
 62
3
100
AcDbSpline
 70
8
 71
3
 72
8
 73
4
 74
0
 40
0
 40
0
 40
0
 40
0
 40
1
 40
1
 40
1
 40
1
 10
37.888067
 20
280.045345
 30
0.0
 10
37.888067
 20
280.491830
 30
0.0
 10
37.824677
 20
280.913509
 30
0.0
 10
37.697897
 20
281.310384
 30
0.0
  0
SPLINE
  5
28d
100
AcDbEntity
  8
Layer_1
 62
3
100
AcDbSpline
 70
8
 71
3
 72
8
 73
4
 74
0
 40
0
 40
0
 40
0
 40
0
 40
1
 40
1
 40
1
 40
1
 10
37.697897
 20
281.310384
 30
0.0
 10
37.571118
 20
281.707259
 30
0.0
 10
37.402997
 20
282.112403
 30
0.0
 10
37.193535
 20
282.525814
 30
0.0
  0
SPLINE
  5
28e
100
AcDbEntity
  8
Layer_1
 62
3
100
AcDbSpline
 70
8
 71
3
 72
8
 73
4
 74
0
 40
0
 40
0
 40
0
 40
0
 40
1
 40
1
 40
1
 40
1
 10
37.193535
 20
282.525814
 30
0.0
 10
37.143928
 20
282.625033
 30
0.0
 10
37.119125
 20
282.718739
 30
0.0
 10
37.119125
 20
282.806934
 30
0.0
  0
SPLINE
  5
28f
100
AcDbEntity
  8
Layer_1
 62
3
100
AcDbSpline
 70
8
 71
3
 72
8
 73
4
 74
0
 40
0
 40
0
 40
0
 40
0
 40
1
 40
1
 40
1
 40
1
 10
37.119125
 20
282.806934
 30
0.0
 10
37.119125
 20
282.955762
 30
0.0
 10
37.174247
 20
283.074273
 30
0.0
 10
37.284490
 20
283.162468
 30
0.0
  0
SPLINE
  5
290
100
AcDbEntity
  8
Layer_1
 62
3
100
AcDbSpline
 70
8
 71
3
 72
8
 73
4
 74
0
 40
0
 40
0
 40
0
 40
0
 40
1
 40
1
 40
1
 40
1
 10
37.284490
 20
283.162468
 30
0.0
 10
37.394733
 20
283.256175
 30
0.0
 10
37.521513
 20
283.303028
 30
0.0
 10
37.664829
 20
283.303028
 30
0.0
  0
SPLINE
  5
291
100
AcDbEntity
  8
Layer_1
 62
3
100
AcDbSpline
 70
8
 71
3
 72
8
 73
4
 74
0
 40
0
 40
0
 40
0
 40
0
 40
1
 40
1
 40
1
 40
1
 10
37.664829
 20
283.303028
 30
0.0
 10
37.725462
 20
283.303028
 30
0.0
 10
37.791608
 20
283.292005
 30
0.0
 10
37.863266
 20
283.269958
 30
0.0
  0
SPLINE
  5
292
100
AcDbEntity
  8
Layer_1
 62
3
100
AcDbSpline
 70
8
 71
3
 72
8
 73
4
 74
0
 40
0
 40
0
 40
0
 40
0
 40
1
 40
1
 40
1
 40
1
 10
37.863266
 20
283.269958
 30
0.0
 10
37.929413
 20
283.253425
 30
0.0
 10
37.992802
 20
283.223108
 30
0.0
 10
38.053435
 20
283.179008
 30
0.0
  0
SPLINE
  5
293
100
AcDbEntity
  8
Layer_1
 62
3
100
AcDbSpline
 70
8
 71
3
 72
8
 73
4
 74
0
 40
0
 40
0
 40
0
 40
0
 40
1
 40
1
 40
1
 40
1
 10
38.053435
 20
283.179008
 30
0.0
 10
38.279434
 20
283.002619
 30
0.0
 10
38.472359
 20
282.784889
 30
0.0
 10
38.632211
 20
282.525818
 30
0.0
  0
SPLINE
  5
294
100
AcDbEntity
  8
Layer_1
 62
3
100
AcDbSpline
 70
8
 71
3
 72
8
 73
4
 74
0
 40
0
 40
0
 40
0
 40
0
 40
1
 40
1
 40
1
 40
1
 10
38.632211
 20
282.525818
 30
0.0
 10
38.792064
 20
282.272259
 30
0.0
 10
38.921599
 20
281.996651
 30
0.0
 10
39.020818
 20
281.698995
 30
0.0
  0
SPLINE
  5
295
100
AcDbEntity
  8
Layer_1
 62
3
100
AcDbSpline
 70
8
 71
3
 72
8
 73
4
 74
0
 40
0
 40
0
 40
0
 40
0
 40
1
 40
1
 40
1
 40
1
 10
39.020818
 20
281.698995
 30
0.0
 10
39.120037
 20
281.401339
 30
0.0
 10
39.191695
 20
281.092659
 30
0.0
 10
39.235792
 20
280.772954
 30
0.0
  0
SPLINE
  5
296
100
AcDbEntity
  8
Layer_1
 62
3
100
AcDbSpline
 70
8
 71
3
 72
8
 73
4
 74
0
 40
0
 40
0
 40
0
 40
0
 40
1
 40
1
 40
1
 40
1
 10
39.235792
 20
280.772954
 30
0.0
 10
39.285399
 20
280.458761
 30
0.0
 10
39.310202
 20
280.152836
 30
0.0
 10
39.310202
 20
279.855180
 30
0.0
  0
SPLINE
  5
297
100
AcDbEntity
  8
Layer_1
 62
3
100
AcDbSpline
 70
8
 71
3
 72
8
 73
4
 74
0
 40
0
 40
0
 40
0
 40
0
 40
1
 40
1
 40
1
 40
1
 10
39.310202
 20
279.855180
 30
0.0
 10
39.310202
 20
279.254355
 30
0.0
 10
39.210983
 20
278.694872
 30
0.0
 10
39.012546
 20
278.176730
 30
0.0
  0
SPLINE
  5
298
100
AcDbEntity
  8
Layer_1
 62
3
100
AcDbSpline
 70
8
 71
3
 72
8
 73
4
 74
0
 40
0
 40
0
 40
0
 40
0
 40
1
 40
1
 40
1
 40
1
 10
39.012546
 20
278.176730
 30
0.0
 10
38.814109
 20
277.658587
 30
0.0
 10
38.527477
 20
277.206591
 30
0.0
 10
38.152650
 20
276.820740
 30
0.0
  0
SPLINE
  5
299
100
AcDbEntity
  8
Layer_1
 62
3
100
AcDbSpline
 70
8
 71
3
 72
8
 73
4
 74
0
 40
0
 40
0
 40
0
 40
0
 40
1
 40
1
 40
1
 40
1
 10
38.152650
 20
276.820740
 30
0.0
 10
37.772311
 20
276.440401
 30
0.0
 10
37.306534
 20
276.139989
 30
0.0
 10
36.755319
 20
275.919503
 30
0.0
  0
SPLINE
  5
29a
100
AcDbEntity
  8
Layer_1
 62
3
100
AcDbSpline
 70
8
 71
3
 72
8
 73
4
 74
0
 40
0
 40
0
 40
0
 40
0
 40
1
 40
1
 40
1
 40
1
 10
36.755319
 20
275.919503
 30
0.0
 10
36.198592
 20
275.704529
 30
0.0
 10
35.625328
 20
275.597042
 30
0.0
 10
35.035528
 20
275.597042
 30
0.0
  0
SPLINE
  5
29b
100
AcDbEntity
  8
Layer_1
 62
3
100
AcDbSpline
 70
8
 71
3
 72
8
 73
4
 74
0
 40
0
 40
0
 40
0
 40
0
 40
1
 40
1
 40
1
 40
1
 10
35.035528
 20
275.597042
 30
0.0
 10
34.533922
 20
275.597042
 30
0.0
 10
34.024048
 20
275.699017
 30
0.0
 10
33.505905
 20
275.902967
 30
0.0
  0
SPLINE
  5
29c
100
AcDbEntity
  8
Layer_1
 62
3
100
AcDbSpline
 70
8
 71
3
 72
8
 73
4
 74
0
 40
0
 40
0
 40
0
 40
0
 40
1
 40
1
 40
1
 40
1
 10
33.505905
 20
275.902967
 30
0.0
 10
32.987763
 20
276.106916
 30
0.0
 10
32.535767
 20
276.385280
 30
0.0
 10
32.149916
 20
276.738058
 30
0.0
  0
SPLINE
  5
29d
100
AcDbEntity
  8
Layer_1
 62
3
100
AcDbSpline
 70
8
 71
3
 72
8
 73
4
 74
0
 40
0
 40
0
 40
0
 40
0
 40
1
 40
1
 40
1
 40
1
 10
32.149916
 20
276.738058
 30
0.0
 10
31.764065
 20
277.096348
 30
0.0
 10
31.449873
 20
277.523540
 30
0.0
 10
31.207338
 20
278.019633
 30
0.0
  0
SPLINE
  5
29e
100
AcDbEntity
  8
Layer_1
 62
3
100
AcDbSpline
 70
8
 71
3
 72
8
 73
4
 74
0
 40
0
 40
0
 40
0
 40
0
 40
1
 40
1
 40
1
 40
1
 10
31.207338
 20
278.019633
 30
0.0
 10
30.959291
 20
278.521239
 30
0.0
 10
30.835268
 20
279.102771
 30
0.0
 10
30.835268
 20
279.764230
 30
0.0
  0
SPLINE
  5
29f
100
AcDbEntity
  8
Layer_1
 62
3
100
AcDbSpline
 70
8
 71
3
 72
8
 73
4
 74
0
 40
0
 40
0
 40
0
 40
0
 40
1
 40
1
 40
1
 40
1
 10
30.835268
 20
279.764230
 30
0.0
 10
30.835268
 20
280.442225
 30
0.0
 10
30.942755
 20
281.026513
 30
0.0
 10
31.157728
 20
281.517094
 30
0.0
  0
SPLINE
  5
2a0
100
AcDbEntity
  8
Layer_1
 62
3
100
AcDbSpline
 70
8
 71
3
 72
8
 73
4
 74
0
 40
0
 40
0
 40
0
 40
0
 40
1
 40
1
 40
1
 40
1
 10
31.157728
 20
281.517094
 30
0.0
 10
31.372702
 20
282.013188
 30
0.0
 10
31.659334
 20
282.423843
 30
0.0
 10
32.017624
 20
282.749060
 30
0.0
  0
SPLINE
  5
2a1
100
AcDbEntity
  8
Layer_1
 62
3
100
AcDbSpline
 70
8
 71
3
 72
8
 73
4
 74
0
 40
0
 40
0
 40
0
 40
0
 40
1
 40
1
 40
1
 40
1
 10
32.017624
 20
282.749060
 30
0.0
 10
32.375914
 20
283.079789
 30
0.0
 10
32.805862
 20
283.327836
 30
0.0
 10
33.307468
 20
283.493201
 30
0.0
  0
SPLINE
  5
2a2
100
AcDbEntity
  8
Layer_1
 62
3
100
AcDbSpline
 70
8
 71
3
 72
8
 73
4
 74
0
 40
0
 40
0
 40
0
 40
0
 40
1
 40
1
 40
1
 40
1
 10
33.307468
 20
283.493201
 30
0.0
 10
33.803562
 20
283.664078
 30
0.0
 10
34.302412
 20
283.755028
 30
0.0
 10
34.804017
 20
283.766052
 30
0.0
  0
LWPOLYLINE
  5
2a3
100
AcDbEntity
  8
Layer_1
 62
3
100
AcDbPolyline
 90
2
 70
0
 10
35.366257
 20
283.179004
 30
0.0
 10
35.366257
 20
277.548340
 30
0.0
  0
SPLINE
  5
2a4
100
AcDbEntity
  8
Layer_1
 62
3
100
AcDbSpline
 70
8
 71
3
 72
8
 73
4
 74
0
 40
0
 40
0
 40
0
 40
0
 40
1
 40
1
 40
1
 40
1
 10
34.374069
 20
282.046257
 30
0.0
 10
34.109486
 20
282.024210
 30
0.0
 10
33.828366
 20
281.960820
 30
0.0
 10
33.530710
 20
281.856087
 30
0.0
  0
SPLINE
  5
2a5
100
AcDbEntity
  8
Layer_1
 62
3
100
AcDbSpline
 70
8
 71
3
 72
8
 73
4
 74
0
 40
0
 40
0
 40
0
 40
0
 40
1
 40
1
 40
1
 40
1
 10
33.530710
 20
281.856087
 30
0.0
 10
33.233054
 20
281.751356
 30
0.0
 10
32.979495
 20
281.602528
 30
0.0
 10
32.770033
 20
281.409603
 30
0.0
  0
SPLINE
  5
2a6
100
AcDbEntity
  8
Layer_1
 62
3
100
AcDbSpline
 70
8
 71
3
 72
8
 73
4
 74
0
 40
0
 40
0
 40
0
 40
0
 40
1
 40
1
 40
1
 40
1
 10
32.770033
 20
281.409603
 30
0.0
 10
32.555059
 20
281.222190
 30
0.0
 10
32.395207
 20
280.990679
 30
0.0
 10
32.290476
 20
280.715072
 30
0.0
  0
SPLINE
  5
2a7
100
AcDbEntity
  8
Layer_1
 62
3
100
AcDbSpline
 70
8
 71
3
 72
8
 73
4
 74
0
 40
0
 40
0
 40
0
 40
0
 40
1
 40
1
 40
1
 40
1
 10
32.290476
 20
280.715072
 30
0.0
 10
32.180233
 20
280.444977
 30
0.0
 10
32.125111
 20
280.133540
 30
0.0
 10
32.125111
 20
279.780762
 30
0.0
  0
SPLINE
  5
2a8
100
AcDbEntity
  8
Layer_1
 62
3
100
AcDbSpline
 70
8
 71
3
 72
8
 73
4
 74
0
 40
0
 40
0
 40
0
 40
0
 40
1
 40
1
 40
1
 40
1
 10
32.125111
 20
279.780762
 30
0.0
 10
32.125111
 20
279.461057
 30
0.0
 10
32.182989
 20
279.168913
 30
0.0
 10
32.298744
 20
278.904330
 30
0.0
  0
SPLINE
  5
2a9
100
AcDbEntity
  8
Layer_1
 62
3
100
AcDbSpline
 70
8
 71
3
 72
8
 73
4
 74
0
 40
0
 40
0
 40
0
 40
0
 40
1
 40
1
 40
1
 40
1
 10
32.298744
 20
278.904330
 30
0.0
 10
32.414499
 20
278.645259
 30
0.0
 10
32.582620
 20
278.419260
 30
0.0
 10
32.803106
 20
278.226335
 30
0.0
  0
SPLINE
  5
2aa
100
AcDbEntity
  8
Layer_1
 62
3
100
AcDbSpline
 70
8
 71
3
 72
8
 73
4
 74
0
 40
0
 40
0
 40
0
 40
0
 40
1
 40
1
 40
1
 40
1
 10
32.803106
 20
278.226335
 30
0.0
 10
33.023592
 20
278.038922
 30
0.0
 10
33.279907
 20
277.887337
 30
0.0
 10
33.572051
 20
277.771582
 30
0.0
  0
SPLINE
  5
2ab
100
AcDbEntity
  8
Layer_1
 62
3
100
AcDbSpline
 70
8
 71
3
 72
8
 73
4
 74
0
 40
0
 40
0
 40
0
 40
0
 40
1
 40
1
 40
1
 40
1
 10
33.572051
 20
277.771582
 30
0.0
 10
33.864195
 20
277.655827
 30
0.0
 10
34.131534
 20
277.586926
 30
0.0
 10
34.374069
 20
277.564877
 30
0.0
  0
LWPOLYLINE
  5
2ac
100
AcDbEntity
  8
Layer_1
 62
3
100
AcDbPolyline
 90
1
 70
1
 10
34.804017
 20
283.766052
 30
0.0
  0
LWPOLYLINE
  5
2ad
100
AcDbEntity
  8
Layer_1
 62
3
100
AcDbPolyline
 90
2
 70
0
 10
34.374069
 20
277.564877
 30
0.0
 10
34.374069
 20
282.046257
 30
0.0
  0
SPLINE
  5
2ae
100
AcDbEntity
  8
Layer_1
 62
3
100
AcDbSpline
 70
8
 71
3
 72
8
 73
4
 74
0
 40
0
 40
0
 40
0
 40
0
 40
1
 40
1
 40
1
 40
1
 10
54.333574
 20
227.921608
 30
0.0
 10
54.019381
 20
228.048387
 30
0.0
 10
53.760310
 20
228.175167
 30
0.0
 10
53.556360
 20
228.301947
 30
0.0
  0
SPLINE
  5
2af
100
AcDbEntity
  8
Layer_1
 62
3
100
AcDbSpline
 70
8
 71
3
 72
8
 73
4
 74
0
 40
0
 40
0
 40
0
 40
0
 40
1
 40
1
 40
1
 40
1
 10
53.556360
 20
228.301947
 30
0.0
 10
53.346898
 20
228.428726
 30
0.0
 10
53.181533
 20
228.563774
 30
0.0
 10
53.060266
 20
228.707090
 30
0.0
  0
SPLINE
  5
2b0
100
AcDbEntity
  8
Layer_1
 62
3
100
AcDbSpline
 70
8
 71
3
 72
8
 73
4
 74
0
 40
0
 40
0
 40
0
 40
0
 40
1
 40
1
 40
1
 40
1
 10
53.060266
 20
228.707090
 30
0.0
 10
52.933487
 20
228.850406
 30
0.0
 10
52.845292
 20
229.004746
 30
0.0
 10
52.795683
 20
229.170111
 30
0.0
  0
SPLINE
  5
2b1
100
AcDbEntity
  8
Layer_1
 62
3
100
AcDbSpline
 70
8
 71
3
 72
8
 73
4
 74
0
 40
0
 40
0
 40
0
 40
0
 40
1
 40
1
 40
1
 40
1
 10
52.795683
 20
229.170111
 30
0.0
 10
52.746076
 20
229.340988
 30
0.0
 10
52.721273
 20
229.533913
 30
0.0
 10
52.721273
 20
229.748887
 30
0.0
  0
SPLINE
  5
2b2
100
AcDbEntity
  8
Layer_1
 62
3
100
AcDbSpline
 70
8
 71
3
 72
8
 73
4
 74
0
 40
0
 40
0
 40
0
 40
0
 40
1
 40
1
 40
1
 40
1
 10
52.721273
 20
229.748887
 30
0.0
 10
52.721273
 20
229.958348
 30
0.0
 10
52.754346
 20
230.156786
 30
0.0
 10
52.820493
 20
230.344199
 30
0.0
  0
SPLINE
  5
2b3
100
AcDbEntity
  8
Layer_1
 62
3
100
AcDbSpline
 70
8
 71
3
 72
8
 73
4
 74
0
 40
0
 40
0
 40
0
 40
0
 40
1
 40
1
 40
1
 40
1
 10
52.820493
 20
230.344199
 30
0.0
 10
52.886640
 20
230.537124
 30
0.0
 10
52.991370
 20
230.705245
 30
0.0
 10
53.134685
 20
230.848561
 30
0.0
  0
SPLINE
  5
2b4
100
AcDbEntity
  8
Layer_1
 62
3
100
AcDbSpline
 70
8
 71
3
 72
8
 73
4
 74
0
 40
0
 40
0
 40
0
 40
0
 40
1
 40
1
 40
1
 40
1
 10
53.134685
 20
230.848561
 30
0.0
 10
53.278001
 20
230.997389
 30
0.0
 10
53.462658
 20
231.113144
 30
0.0
 10
53.688657
 20
231.195827
 30
0.0
  0
SPLINE
  5
2b5
100
AcDbEntity
  8
Layer_1
 62
3
100
AcDbSpline
 70
8
 71
3
 72
8
 73
4
 74
0
 40
0
 40
0
 40
0
 40
0
 40
1
 40
1
 40
1
 40
1
 10
53.688657
 20
231.195827
 30
0.0
 10
53.914655
 20
231.284021
 30
0.0
 10
54.187506
 20
231.328118
 30
0.0
 10
54.507211
 20
231.328118
 30
0.0
  0
LWPOLYLINE
  5
2b6
100
AcDbEntity
  8
Layer_1
 62
3
100
AcDbPolyline
 90
2
 70
0
 10
61.915539
 20
224.572975
 30
0.0
 10
54.333574
 20
227.921608
 30
0.0
  0
SPLINE
  5
2b7
100
AcDbEntity
  8
Layer_1
 62
3
100
AcDbSpline
 70
8
 71
3
 72
8
 73
4
 74
0
 40
0
 40
0
 40
0
 40
0
 40
1
 40
1
 40
1
 40
1
 10
63.651872
 20
231.328118
 30
0.0
 10
63.811725
 20
231.328118
 30
0.0
 10
63.952285
 20
231.300558
 30
0.0
 10
64.073552
 20
231.245438
 30
0.0
  0
SPLINE
  5
2b8
100
AcDbEntity
  8
Layer_1
 62
3
100
AcDbSpline
 70
8
 71
3
 72
8
 73
4
 74
0
 40
0
 40
0
 40
0
 40
0
 40
1
 40
1
 40
1
 40
1
 10
64.073552
 20
231.245438
 30
0.0
 10
64.189307
 20
231.195831
 30
0.0
 10
64.288526
 20
231.126929
 30
0.0
 10
64.371208
 20
231.038732
 30
0.0
  0
SPLINE
  5
2b9
100
AcDbEntity
  8
Layer_1
 62
3
100
AcDbSpline
 70
8
 71
3
 72
8
 73
4
 74
0
 40
0
 40
0
 40
0
 40
0
 40
1
 40
1
 40
1
 40
1
 10
64.371208
 20
231.038732
 30
0.0
 10
64.448379
 20
230.950538
 30
0.0
 10
64.509012
 20
230.848563
 30
0.0
 10
64.553109
 20
230.732808
 30
0.0
  0
SPLINE
  5
2ba
100
AcDbEntity
  8
Layer_1
 62
3
100
AcDbSpline
 70
8
 71
3
 72
8
 73
4
 74
0
 40
0
 40
0
 40
0
 40
0
 40
1
 40
1
 40
1
 40
1
 10
64.553109
 20
230.732808
 30
0.0
 10
64.591696
 20
230.622565
 30
0.0
 10
64.610989
 20
230.509565
 30
0.0
 10
64.610989
 20
230.393810
 30
0.0
  0
SPLINE
  5
2bb
100
AcDbEntity
  8
Layer_1
 62
3
100
AcDbSpline
 70
8
 71
3
 72
8
 73
4
 74
0
 40
0
 40
0
 40
0
 40
0
 40
1
 40
1
 40
1
 40
1
 10
64.610989
 20
230.393810
 30
0.0
 10
64.610989
 20
230.278055
 30
0.0
 10
64.591696
 20
230.165056
 30
0.0
 10
64.553109
 20
230.054813
 30
0.0
  0
SPLINE
  5
2bc
100
AcDbEntity
  8
Layer_1
 62
3
100
AcDbSpline
 70
8
 71
3
 72
8
 73
4
 74
0
 40
0
 40
0
 40
0
 40
0
 40
1
 40
1
 40
1
 40
1
 10
64.553109
 20
230.054813
 30
0.0
 10
64.509009
 20
229.950082
 30
0.0
 10
64.448375
 20
229.853620
 30
0.0
 10
64.371208
 20
229.765425
 30
0.0
  0
SPLINE
  5
2bd
100
AcDbEntity
  8
Layer_1
 62
3
100
AcDbSpline
 70
8
 71
3
 72
8
 73
4
 74
0
 40
0
 40
0
 40
0
 40
0
 40
1
 40
1
 40
1
 40
1
 10
64.371208
 20
229.765425
 30
0.0
 10
64.288526
 20
229.677230
 30
0.0
 10
64.189307
 20
229.605572
 30
0.0
 10
64.073552
 20
229.550451
 30
0.0
  0
SPLINE
  5
2be
100
AcDbEntity
  8
Layer_1
 62
3
100
AcDbSpline
 70
8
 71
3
 72
8
 73
4
 74
0
 40
0
 40
0
 40
0
 40
0
 40
1
 40
1
 40
1
 40
1
 10
64.073552
 20
229.550451
 30
0.0
 10
63.952285
 20
229.500844
 30
0.0
 10
63.811725
 20
229.476041
 30
0.0
 10
63.651872
 20
229.476041
 30
0.0
  0
LWPOLYLINE
  5
2bf
100
AcDbEntity
  8
Layer_1
 62
3
100
AcDbPolyline
 90
2
 70
0
 10
54.507211
 20
231.328118
 30
0.0
 10
63.651872
 20
231.328118
 30
0.0
  0
SPLINE
  5
2c0
100
AcDbEntity
  8
Layer_1
 62
3
100
AcDbSpline
 70
8
 71
3
 72
8
 73
4
 74
0
 40
0
 40
0
 40
0
 40
0
 40
1
 40
1
 40
1
 40
1
 10
63.263266
 20
225.813216
 30
0.0
 10
63.417606
 20
225.758096
 30
0.0
 10
63.552654
 20
225.683682
 30
0.0
 10
63.668409
 20
225.589974
 30
0.0
  0
SPLINE
  5
2c1
100
AcDbEntity
  8
Layer_1
 62
3
100
AcDbSpline
 70
8
 71
3
 72
8
 73
4
 74
0
 40
0
 40
0
 40
0
 40
0
 40
1
 40
1
 40
1
 40
1
 10
63.668409
 20
225.589974
 30
0.0
 10
63.784164
 20
225.501779
 30
0.0
 10
63.883383
 20
225.399804
 30
0.0
 10
63.966065
 20
225.284049
 30
0.0
  0
SPLINE
  5
2c2
100
AcDbEntity
  8
Layer_1
 62
3
100
AcDbSpline
 70
8
 71
3
 72
8
 73
4
 74
0
 40
0
 40
0
 40
0
 40
0
 40
1
 40
1
 40
1
 40
1
 10
63.966065
 20
225.284049
 30
0.0
 10
64.043235
 20
225.168294
 30
0.0
 10
64.103869
 20
225.044270
 30
0.0
 10
64.147966
 20
224.911979
 30
0.0
  0
SPLINE
  5
2c3
100
AcDbEntity
  8
Layer_1
 62
3
100
AcDbSpline
 70
8
 71
3
 72
8
 73
4
 74
0
 40
0
 40
0
 40
0
 40
0
 40
1
 40
1
 40
1
 40
1
 10
64.147966
 20
224.911979
 30
0.0
 10
64.186553
 20
224.785199
 30
0.0
 10
64.205846
 20
224.655663
 30
0.0
 10
64.205846
 20
224.523372
 30
0.0
  0
SPLINE
  5
2c4
100
AcDbEntity
  8
Layer_1
 62
3
100
AcDbSpline
 70
8
 71
3
 72
8
 73
4
 74
0
 40
0
 40
0
 40
0
 40
0
 40
1
 40
1
 40
1
 40
1
 10
64.205846
 20
224.523372
 30
0.0
 10
64.205846
 20
224.269813
 30
0.0
 10
64.131432
 20
224.027278
 30
0.0
 10
63.982604
 20
223.795768
 30
0.0
  0
SPLINE
  5
2c5
100
AcDbEntity
  8
Layer_1
 62
3
100
AcDbSpline
 70
8
 71
3
 72
8
 73
4
 74
0
 40
0
 40
0
 40
0
 40
0
 40
1
 40
1
 40
1
 40
1
 10
63.982604
 20
223.795768
 30
0.0
 10
63.828263
 20
223.569769
 30
0.0
 10
63.588485
 20
223.398893
 30
0.0
 10
63.263268
 20
223.283138
 30
0.0
  0
LWPOLYLINE
  5
2c6
100
AcDbEntity
  8
Layer_1
 62
3
100
AcDbPolyline
 90
3
 70
0
 10
63.651872
 20
229.476041
 30
0.0
 10
54.854477
 20
229.476041
 30
0.0
 10
63.263266
 20
225.813216
 30
0.0
  0
SPLINE
  5
2c7
100
AcDbEntity
  8
Layer_1
 62
3
100
AcDbSpline
 70
8
 71
3
 72
8
 73
4
 74
0
 40
0
 40
0
 40
0
 40
0
 40
1
 40
1
 40
1
 40
1
 10
63.651874
 20
219.628581
 30
0.0
 10
63.811727
 20
219.628581
 30
0.0
 10
63.952287
 20
219.601021
 30
0.0
 10
64.073554
 20
219.545901
 30
0.0
  0
SPLINE
  5
2c8
100
AcDbEntity
  8
Layer_1
 62
3
100
AcDbSpline
 70
8
 71
3
 72
8
 73
4
 74
0
 40
0
 40
0
 40
0
 40
0
 40
1
 40
1
 40
1
 40
1
 10
64.073554
 20
219.545901
 30
0.0
 10
64.189309
 20
219.496294
 30
0.0
 10
64.288528
 20
219.427393
 30
0.0
 10
64.371210
 20
219.339196
 30
0.0
  0
SPLINE
  5
2c9
100
AcDbEntity
  8
Layer_1
 62
3
100
AcDbSpline
 70
8
 71
3
 72
8
 73
4
 74
0
 40
0
 40
0
 40
0
 40
0
 40
1
 40
1
 40
1
 40
1
 10
64.371210
 20
219.339196
 30
0.0
 10
64.448381
 20
219.251001
 30
0.0
 10
64.509014
 20
219.151782
 30
0.0
 10
64.553111
 20
219.041539
 30
0.0
  0
SPLINE
  5
2ca
100
AcDbEntity
  8
Layer_1
 62
3
100
AcDbSpline
 70
8
 71
3
 72
8
 73
4
 74
0
 40
0
 40
0
 40
0
 40
0
 40
1
 40
1
 40
1
 40
1
 10
64.553111
 20
219.041539
 30
0.0
 10
64.591698
 20
218.931296
 30
0.0
 10
64.610991
 20
218.818297
 30
0.0
 10
64.610991
 20
218.702542
 30
0.0
  0
SPLINE
  5
2cb
100
AcDbEntity
  8
Layer_1
 62
3
100
AcDbSpline
 70
8
 71
3
 72
8
 73
4
 74
0
 40
0
 40
0
 40
0
 40
0
 40
1
 40
1
 40
1
 40
1
 10
64.610991
 20
218.702542
 30
0.0
 10
64.610991
 20
218.586787
 30
0.0
 10
64.591698
 20
218.473788
 30
0.0
 10
64.553111
 20
218.363545
 30
0.0
  0
SPLINE
  5
2cc
100
AcDbEntity
  8
Layer_1
 62
3
100
AcDbSpline
 70
8
 71
3
 72
8
 73
4
 74
0
 40
0
 40
0
 40
0
 40
0
 40
1
 40
1
 40
1
 40
1
 10
64.553111
 20
218.363545
 30
0.0
 10
64.509011
 20
218.253302
 30
0.0
 10
64.448377
 20
218.154083
 30
0.0
 10
64.371210
 20
218.065888
 30
0.0
  0
SPLINE
  5
2cd
100
AcDbEntity
  8
Layer_1
 62
3
100
AcDbSpline
 70
8
 71
3
 72
8
 73
4
 74
0
 40
0
 40
0
 40
0
 40
0
 40
1
 40
1
 40
1
 40
1
 10
64.371210
 20
218.065888
 30
0.0
 10
64.288528
 20
217.983206
 30
0.0
 10
64.189309
 20
217.914304
 30
0.0
 10
64.073554
 20
217.859183
 30
0.0
  0
SPLINE
  5
2ce
100
AcDbEntity
  8
Layer_1
 62
3
100
AcDbSpline
 70
8
 71
3
 72
8
 73
4
 74
0
 40
0
 40
0
 40
0
 40
0
 40
1
 40
1
 40
1
 40
1
 10
64.073554
 20
217.859183
 30
0.0
 10
63.952287
 20
217.809576
 30
0.0
 10
63.811727
 20
217.784773
 30
0.0
 10
63.651874
 20
217.784773
 30
0.0
  0
LWPOLYLINE
  5
2cf
100
AcDbEntity
  8
Layer_1
 62
3
100
AcDbPolyline
 90
3
 70
0
 10
63.263268
 20
223.283138
 30
0.0
 10
54.904088
 20
219.628581
 30
0.0
 10
63.651874
 20
219.628581
 30
0.0
  0
SPLINE
  5
2d0
100
AcDbEntity
  8
Layer_1
 62
3
100
AcDbSpline
 70
8
 71
3
 72
8
 73
4
 74
0
 40
0
 40
0
 40
0
 40
0
 40
1
 40
1
 40
1
 40
1
 10
54.507213
 20
217.784773
 30
0.0
 10
54.187508
 20
217.784773
 30
0.0
 10
53.914657
 20
217.826114
 30
0.0
 10
53.688659
 20
217.908796
 30
0.0
  0
SPLINE
  5
2d1
100
AcDbEntity
  8
Layer_1
 62
3
100
AcDbSpline
 70
8
 71
3
 72
8
 73
4
 74
0
 40
0
 40
0
 40
0
 40
0
 40
1
 40
1
 40
1
 40
1
 10
53.688659
 20
217.908796
 30
0.0
 10
53.462660
 20
217.996991
 30
0.0
 10
53.278003
 20
218.115502
 30
0.0
 10
53.134687
 20
218.264330
 30
0.0
  0
SPLINE
  5
2d2
100
AcDbEntity
  8
Layer_1
 62
3
100
AcDbSpline
 70
8
 71
3
 72
8
 73
4
 74
0
 40
0
 40
0
 40
0
 40
0
 40
1
 40
1
 40
1
 40
1
 10
53.134687
 20
218.264330
 30
0.0
 10
52.991372
 20
218.413158
 30
0.0
 10
52.886641
 20
218.584035
 30
0.0
 10
52.820495
 20
218.776960
 30
0.0
  0
SPLINE
  5
2d3
100
AcDbEntity
  8
Layer_1
 62
3
100
AcDbSpline
 70
8
 71
3
 72
8
 73
4
 74
0
 40
0
 40
0
 40
0
 40
0
 40
1
 40
1
 40
1
 40
1
 10
52.820495
 20
218.776960
 30
0.0
 10
52.754348
 20
218.969885
 30
0.0
 10
52.721275
 20
219.173835
 30
0.0
 10
52.721275
 20
219.388809
 30
0.0
  0
SPLINE
  5
2d4
100
AcDbEntity
  8
Layer_1
 62
3
100
AcDbSpline
 70
8
 71
3
 72
8
 73
4
 74
0
 40
0
 40
0
 40
0
 40
0
 40
1
 40
1
 40
1
 40
1
 10
52.721275
 20
219.388809
 30
0.0
 10
52.721275
 20
219.603783
 30
0.0
 10
52.748835
 20
219.796708
 30
0.0
 10
52.803955
 20
219.967585
 30
0.0
  0
SPLINE
  5
2d5
100
AcDbEntity
  8
Layer_1
 62
3
100
AcDbSpline
 70
8
 71
3
 72
8
 73
4
 74
0
 40
0
 40
0
 40
0
 40
0
 40
1
 40
1
 40
1
 40
1
 10
52.803955
 20
219.967585
 30
0.0
 10
52.853562
 20
220.138462
 30
0.0
 10
52.941756
 20
220.295558
 30
0.0
 10
53.068539
 20
220.438874
 30
0.0
  0
SPLINE
  5
2d6
100
AcDbEntity
  8
Layer_1
 62
3
100
AcDbSpline
 70
8
 71
3
 72
8
 73
4
 74
0
 40
0
 40
0
 40
0
 40
0
 40
1
 40
1
 40
1
 40
1
 10
53.068539
 20
220.438874
 30
0.0
 10
53.189806
 20
220.587702
 30
0.0
 10
53.355171
 20
220.725506
 30
0.0
 10
53.564632
 20
220.852285
 30
0.0
  0
SPLINE
  5
2d7
100
AcDbEntity
  8
Layer_1
 62
3
100
AcDbSpline
 70
8
 71
3
 72
8
 73
4
 74
0
 40
0
 40
0
 40
0
 40
0
 40
1
 40
1
 40
1
 40
1
 10
53.564632
 20
220.852285
 30
0.0
 10
53.774094
 20
220.979065
 30
0.0
 10
54.035921
 20
221.105845
 30
0.0
 10
54.350114
 20
221.232624
 30
0.0
  0
LWPOLYLINE
  5
2d8
100
AcDbEntity
  8
Layer_1
 62
3
100
AcDbPolyline
 90
2
 70
0
 10
63.651874
 20
217.784773
 30
0.0
 10
54.507213
 20
217.784773
 30
0.0
  0
SPLINE
  5
2d9
100
AcDbEntity
  8
Layer_1
 62
3
100
AcDbSpline
 70
8
 71
3
 72
8
 73
4
 74
0
 40
0
 40
0
 40
0
 40
0
 40
1
 40
1
 40
1
 40
1
 10
65.313781
 20
234.149238
 30
0.0
 10
65.484658
 20
234.088605
 30
0.0
 10
65.608681
 20
233.997654
 30
0.0
 10
65.685852
 20
233.876387
 30
0.0
  0
SPLINE
  5
2da
100
AcDbEntity
  8
Layer_1
 62
3
100
AcDbSpline
 70
8
 71
3
 72
8
 73
4
 74
0
 40
0
 40
0
 40
0
 40
0
 40
1
 40
1
 40
1
 40
1
 10
65.685852
 20
233.876387
 30
0.0
 10
65.763022
 20
233.760632
 30
0.0
 10
65.801607
 20
233.633852
 30
0.0
 10
65.801607
 20
233.496048
 30
0.0
  0
SPLINE
  5
2db
100
AcDbEntity
  8
Layer_1
 62
3
100
AcDbSpline
 70
8
 71
3
 72
8
 73
4
 74
0
 40
0
 40
0
 40
0
 40
0
 40
1
 40
1
 40
1
 40
1
 10
65.801607
 20
233.496048
 30
0.0
 10
65.801607
 20
233.407854
 30
0.0
 10
65.785070
 20
233.319660
 30
0.0
 10
65.751997
 20
233.231465
 30
0.0
  0
SPLINE
  5
2dc
100
AcDbEntity
  8
Layer_1
 62
3
100
AcDbSpline
 70
8
 71
3
 72
8
 73
4
 74
0
 40
0
 40
0
 40
0
 40
0
 40
1
 40
1
 40
1
 40
1
 10
65.751997
 20
233.231465
 30
0.0
 10
65.724437
 20
233.148783
 30
0.0
 10
65.680340
 20
233.074369
 30
0.0
 10
65.619705
 20
233.008223
 30
0.0
  0
SPLINE
  5
2dd
100
AcDbEntity
  8
Layer_1
 62
3
100
AcDbSpline
 70
8
 71
3
 72
8
 73
4
 74
0
 40
0
 40
0
 40
0
 40
0
 40
1
 40
1
 40
1
 40
1
 10
65.619705
 20
233.008223
 30
0.0
 10
65.564585
 20
232.942076
 30
0.0
 10
65.495683
 20
232.889711
 30
0.0
 10
65.412999
 20
232.851126
 30
0.0
  0
SPLINE
  5
2de
100
AcDbEntity
  8
Layer_1
 62
3
100
AcDbSpline
 70
8
 71
3
 72
8
 73
4
 74
0
 40
0
 40
0
 40
0
 40
0
 40
1
 40
1
 40
1
 40
1
 10
65.412999
 20
232.851126
 30
0.0
 10
65.330317
 20
232.807033
 30
0.0
 10
65.236610
 20
232.784986
 30
0.0
 10
65.131879
 20
232.784986
 30
0.0
  0
SPLINE
  5
2df
100
AcDbEntity
  8
Layer_1
 62
3
100
AcDbSpline
 70
8
 71
3
 72
8
 73
4
 74
0
 40
0
 40
0
 40
0
 40
0
 40
1
 40
1
 40
1
 40
1
 10
65.131879
 20
232.784986
 30
0.0
 10
65.093292
 20
232.784986
 30
0.0
 10
65.051951
 20
232.787753
 30
0.0
 10
65.007856
 20
232.793286
 30
0.0
  0
SPLINE
  5
2e0
100
AcDbEntity
  8
Layer_1
 62
3
100
AcDbSpline
 70
8
 71
3
 72
8
 73
4
 74
0
 40
0
 40
0
 40
0
 40
0
 40
1
 40
1
 40
1
 40
1
 10
65.007856
 20
232.793286
 30
0.0
 10
64.963756
 20
232.798819
 30
0.0
 10
64.919659
 20
232.809843
 30
0.0
 10
64.875564
 20
232.826356
 30
0.0
  0
LWPOLYLINE
  5
2e1
100
AcDbEntity
  8
Layer_1
 62
3
100
AcDbPolyline
 90
3
 70
0
 10
54.350114
 20
221.232624
 30
0.0
 10
61.915543
 20
224.523379
 30
0.0
 10
61.915539
 20
224.572975
 30
0.0
  0
SPLINE
  5
2e2
100
AcDbEntity
  8
Layer_1
 62
3
100
AcDbSpline
 70
8
 71
3
 72
8
 73
4
 74
0
 40
0
 40
0
 40
0
 40
0
 40
1
 40
1
 40
1
 40
1
 10
53.126411
 20
236.737228
 30
0.0
 10
52.950022
 20
236.797861
 30
0.0
 10
52.823243
 20
236.891568
 30
0.0
 10
52.746073
 20
237.018348
 30
0.0
  0
SPLINE
  5
2e3
100
AcDbEntity
  8
Layer_1
 62
3
100
AcDbSpline
 70
8
 71
3
 72
8
 73
4
 74
0
 40
0
 40
0
 40
0
 40
0
 40
1
 40
1
 40
1
 40
1
 10
52.746073
 20
237.018348
 30
0.0
 10
52.668903
 20
237.145127
 30
0.0
 10
52.630318
 20
237.277419
 30
0.0
 10
52.630318
 20
237.415223
 30
0.0
  0
SPLINE
  5
2e4
100
AcDbEntity
  8
Layer_1
 62
3
100
AcDbSpline
 70
8
 71
3
 72
8
 73
4
 74
0
 40
0
 40
0
 40
0
 40
0
 40
1
 40
1
 40
1
 40
1
 10
52.630318
 20
237.415223
 30
0.0
 10
52.630318
 20
237.503417
 30
0.0
 10
52.646855
 20
237.588855
 30
0.0
 10
52.679928
 20
237.671538
 30
0.0
  0
SPLINE
  5
2e5
100
AcDbEntity
  8
Layer_1
 62
3
100
AcDbSpline
 70
8
 71
3
 72
8
 73
4
 74
0
 40
0
 40
0
 40
0
 40
0
 40
1
 40
1
 40
1
 40
1
 10
52.679928
 20
237.671538
 30
0.0
 10
52.707488
 20
237.759733
 30
0.0
 10
52.751585
 20
237.836903
 30
0.0
 10
52.812220
 20
237.903048
 30
0.0
  0
SPLINE
  5
2e6
100
AcDbEntity
  8
Layer_1
 62
3
100
AcDbSpline
 70
8
 71
3
 72
8
 73
4
 74
0
 40
0
 40
0
 40
0
 40
0
 40
1
 40
1
 40
1
 40
1
 10
52.812220
 20
237.903048
 30
0.0
 10
52.867340
 20
237.969195
 30
0.0
 10
52.936242
 20
238.021560
 30
0.0
 10
53.018925
 20
238.060145
 30
0.0
  0
SPLINE
  5
2e7
100
AcDbEntity
  8
Layer_1
 62
3
100
AcDbSpline
 70
8
 71
3
 72
8
 73
4
 74
0
 40
0
 40
0
 40
0
 40
0
 40
1
 40
1
 40
1
 40
1
 10
53.018925
 20
238.060145
 30
0.0
 10
53.101608
 20
238.104238
 30
0.0
 10
53.195314
 20
238.126285
 30
0.0
 10
53.300045
 20
238.126285
 30
0.0
  0
SPLINE
  5
2e8
100
AcDbEntity
  8
Layer_1
 62
3
100
AcDbSpline
 70
8
 71
3
 72
8
 73
4
 74
0
 40
0
 40
0
 40
0
 40
0
 40
1
 40
1
 40
1
 40
1
 10
53.300045
 20
238.126285
 30
0.0
 10
53.344145
 20
238.126285
 30
0.0
 10
53.388242
 20
238.123518
 30
0.0
 10
53.432337
 20
238.117985
 30
0.0
  0
SPLINE
  5
2e9
100
AcDbEntity
  8
Layer_1
 62
3
100
AcDbSpline
 70
8
 71
3
 72
8
 73
4
 74
0
 40
0
 40
0
 40
0
 40
0
 40
1
 40
1
 40
1
 40
1
 10
53.432337
 20
238.117985
 30
0.0
 10
53.476437
 20
238.112452
 30
0.0
 10
53.520534
 20
238.101428
 30
0.0
 10
53.564628
 20
238.084915
 30
0.0
  0
LWPOLYLINE
  5
2ea
100
AcDbEntity
  8
Layer_1
 62
3
100
AcDbPolyline
 90
2
 70
0
 10
64.875564
 20
232.826356
 30
0.0
 10
53.126411
 20
236.737228
 30
0.0
  0
LWPOLYLINE
  5
2eb
100
AcDbEntity
  8
Layer_1
 62
3
100
AcDbPolyline
 90
2
 70
0
 10
53.564628
 20
238.084915
 30
0.0
 10
65.313781
 20
234.149238
 30
0.0
  0
SPLINE
  5
2ec
100
AcDbEntity
  8
Layer_1
 62
3
100
AcDbSpline
 70
8
 71
3
 72
8
 73
4
 74
0
 40
0
 40
0
 40
0
 40
0
 40
1
 40
1
 40
1
 40
1
 10
54.333574
 20
249.736504
 30
0.0
 10
54.019381
 20
249.863283
 30
0.0
 10
53.760310
 20
249.990063
 30
0.0
 10
53.556360
 20
250.116842
 30
0.0
  0
SPLINE
  5
2ed
100
AcDbEntity
  8
Layer_1
 62
3
100
AcDbSpline
 70
8
 71
3
 72
8
 73
4
 74
0
 40
0
 40
0
 40
0
 40
0
 40
1
 40
1
 40
1
 40
1
 10
53.556360
 20
250.116842
 30
0.0
 10
53.346898
 20
250.243621
 30
0.0
 10
53.181533
 20
250.378669
 30
0.0
 10
53.060266
 20
250.521985
 30
0.0
  0
SPLINE
  5
2ee
100
AcDbEntity
  8
Layer_1
 62
3
100
AcDbSpline
 70
8
 71
3
 72
8
 73
4
 74
0
 40
0
 40
0
 40
0
 40
0
 40
1
 40
1
 40
1
 40
1
 10
53.060266
 20
250.521985
 30
0.0
 10
52.933487
 20
250.665301
 30
0.0
 10
52.845292
 20
250.819641
 30
0.0
 10
52.795683
 20
250.985006
 30
0.0
  0
SPLINE
  5
2ef
100
AcDbEntity
  8
Layer_1
 62
3
100
AcDbSpline
 70
8
 71
3
 72
8
 73
4
 74
0
 40
0
 40
0
 40
0
 40
0
 40
1
 40
1
 40
1
 40
1
 10
52.795683
 20
250.985006
 30
0.0
 10
52.746076
 20
251.155883
 30
0.0
 10
52.721273
 20
251.348808
 30
0.0
 10
52.721273
 20
251.563782
 30
0.0
  0
SPLINE
  5
2f0
100
AcDbEntity
  8
Layer_1
 62
3
100
AcDbSpline
 70
8
 71
3
 72
8
 73
4
 74
0
 40
0
 40
0
 40
0
 40
0
 40
1
 40
1
 40
1
 40
1
 10
52.721273
 20
251.563782
 30
0.0
 10
52.721273
 20
251.773244
 30
0.0
 10
52.754346
 20
251.971682
 30
0.0
 10
52.820493
 20
252.159095
 30
0.0
  0
SPLINE
  5
2f1
100
AcDbEntity
  8
Layer_1
 62
3
100
AcDbSpline
 70
8
 71
3
 72
8
 73
4
 74
0
 40
0
 40
0
 40
0
 40
0
 40
1
 40
1
 40
1
 40
1
 10
52.820493
 20
252.159095
 30
0.0
 10
52.886640
 20
252.352020
 30
0.0
 10
52.991370
 20
252.520141
 30
0.0
 10
53.134685
 20
252.663457
 30
0.0
  0
SPLINE
  5
2f2
100
AcDbEntity
  8
Layer_1
 62
3
100
AcDbSpline
 70
8
 71
3
 72
8
 73
4
 74
0
 40
0
 40
0
 40
0
 40
0
 40
1
 40
1
 40
1
 40
1
 10
53.134685
 20
252.663457
 30
0.0
 10
53.278001
 20
252.812285
 30
0.0
 10
53.462658
 20
252.928040
 30
0.0
 10
53.688657
 20
253.010722
 30
0.0
  0
SPLINE
  5
2f3
100
AcDbEntity
  8
Layer_1
 62
3
100
AcDbSpline
 70
8
 71
3
 72
8
 73
4
 74
0
 40
0
 40
0
 40
0
 40
0
 40
1
 40
1
 40
1
 40
1
 10
53.688657
 20
253.010722
 30
0.0
 10
53.914655
 20
253.098917
 30
0.0
 10
54.187506
 20
253.143014
 30
0.0
 10
54.507211
 20
253.143014
 30
0.0
  0
LWPOLYLINE
  5
2f4
100
AcDbEntity
  8
Layer_1
 62
3
100
AcDbPolyline
 90
2
 70
0
 10
61.915539
 20
246.387871
 30
0.0
 10
54.333574
 20
249.736504
 30
0.0
  0
SPLINE
  5
2f5
100
AcDbEntity
  8
Layer_1
 62
3
100
AcDbSpline
 70
8
 71
3
 72
8
 73
4
 74
0
 40
0
 40
0
 40
0
 40
0
 40
1
 40
1
 40
1
 40
1
 10
63.651872
 20
253.143014
 30
0.0
 10
63.811725
 20
253.143014
 30
0.0
 10
63.952285
 20
253.115454
 30
0.0
 10
64.073552
 20
253.060334
 30
0.0
  0
SPLINE
  5
2f6
100
AcDbEntity
  8
Layer_1
 62
3
100
AcDbSpline
 70
8
 71
3
 72
8
 73
4
 74
0
 40
0
 40
0
 40
0
 40
0
 40
1
 40
1
 40
1
 40
1
 10
64.073552
 20
253.060334
 30
0.0
 10
64.189307
 20
253.010727
 30
0.0
 10
64.288526
 20
252.941825
 30
0.0
 10
64.371208
 20
252.853628
 30
0.0
  0
SPLINE
  5
2f7
100
AcDbEntity
  8
Layer_1
 62
3
100
AcDbSpline
 70
8
 71
3
 72
8
 73
4
 74
0
 40
0
 40
0
 40
0
 40
0
 40
1
 40
1
 40
1
 40
1
 10
64.371208
 20
252.853628
 30
0.0
 10
64.448379
 20
252.765433
 30
0.0
 10
64.509012
 20
252.663458
 30
0.0
 10
64.553109
 20
252.547703
 30
0.0
  0
SPLINE
  5
2f8
100
AcDbEntity
  8
Layer_1
 62
3
100
AcDbSpline
 70
8
 71
3
 72
8
 73
4
 74
0
 40
0
 40
0
 40
0
 40
0
 40
1
 40
1
 40
1
 40
1
 10
64.553109
 20
252.547703
 30
0.0
 10
64.591696
 20
252.437460
 30
0.0
 10
64.610989
 20
252.324461
 30
0.0
 10
64.610989
 20
252.208706
 30
0.0
  0
SPLINE
  5
2f9
100
AcDbEntity
  8
Layer_1
 62
3
100
AcDbSpline
 70
8
 71
3
 72
8
 73
4
 74
0
 40
0
 40
0
 40
0
 40
0
 40
1
 40
1
 40
1
 40
1
 10
64.610989
 20
252.208706
 30
0.0
 10
64.610989
 20
252.092951
 30
0.0
 10
64.591696
 20
251.979952
 30
0.0
 10
64.553109
 20
251.869709
 30
0.0
  0
SPLINE
  5
2fa
100
AcDbEntity
  8
Layer_1
 62
3
100
AcDbSpline
 70
8
 71
3
 72
8
 73
4
 74
0
 40
0
 40
0
 40
0
 40
0
 40
1
 40
1
 40
1
 40
1
 10
64.553109
 20
251.869709
 30
0.0
 10
64.509009
 20
251.764978
 30
0.0
 10
64.448375
 20
251.668515
 30
0.0
 10
64.371208
 20
251.580321
 30
0.0
  0
SPLINE
  5
2fb
100
AcDbEntity
  8
Layer_1
 62
3
100
AcDbSpline
 70
8
 71
3
 72
8
 73
4
 74
0
 40
0
 40
0
 40
0
 40
0
 40
1
 40
1
 40
1
 40
1
 10
64.371208
 20
251.580321
 30
0.0
 10
64.288526
 20
251.492126
 30
0.0
 10
64.189307
 20
251.420468
 30
0.0
 10
64.073552
 20
251.365347
 30
0.0
  0
SPLINE
  5
2fc
100
AcDbEntity
  8
Layer_1
 62
3
100
AcDbSpline
 70
8
 71
3
 72
8
 73
4
 74
0
 40
0
 40
0
 40
0
 40
0
 40
1
 40
1
 40
1
 40
1
 10
64.073552
 20
251.365347
 30
0.0
 10
63.952285
 20
251.315740
 30
0.0
 10
63.811725
 20
251.290937
 30
0.0
 10
63.651872
 20
251.290937
 30
0.0
  0
LWPOLYLINE
  5
2fd
100
AcDbEntity
  8
Layer_1
 62
3
100
AcDbPolyline
 90
2
 70
0
 10
54.507211
 20
253.143014
 30
0.0
 10
63.651872
 20
253.143014
 30
0.0
  0
SPLINE
  5
2fe
100
AcDbEntity
  8
Layer_1
 62
3
100
AcDbSpline
 70
8
 71
3
 72
8
 73
4
 74
0
 40
0
 40
0
 40
0
 40
0
 40
1
 40
1
 40
1
 40
1
 10
63.263266
 20
247.628111
 30
0.0
 10
63.417606
 20
247.572991
 30
0.0
 10
63.552654
 20
247.498577
 30
0.0
 10
63.668409
 20
247.404869
 30
0.0
  0
SPLINE
  5
2ff
100
AcDbEntity
  8
Layer_1
 62
3
100
AcDbSpline
 70
8
 71
3
 72
8
 73
4
 74
0
 40
0
 40
0
 40
0
 40
0
 40
1
 40
1
 40
1
 40
1
 10
63.668409
 20
247.404869
 30
0.0
 10
63.784164
 20
247.316674
 30
0.0
 10
63.883383
 20
247.214700
 30
0.0
 10
63.966065
 20
247.098945
 30
0.0
  0
SPLINE
  5
300
100
AcDbEntity
  8
Layer_1
 62
3
100
AcDbSpline
 70
8
 71
3
 72
8
 73
4
 74
0
 40
0
 40
0
 40
0
 40
0
 40
1
 40
1
 40
1
 40
1
 10
63.966065
 20
247.098945
 30
0.0
 10
64.043235
 20
246.983190
 30
0.0
 10
64.103869
 20
246.859166
 30
0.0
 10
64.147966
 20
246.726874
 30
0.0
  0
SPLINE
  5
301
100
AcDbEntity
  8
Layer_1
 62
3
100
AcDbSpline
 70
8
 71
3
 72
8
 73
4
 74
0
 40
0
 40
0
 40
0
 40
0
 40
1
 40
1
 40
1
 40
1
 10
64.147966
 20
246.726874
 30
0.0
 10
64.186553
 20
246.600095
 30
0.0
 10
64.205846
 20
246.470559
 30
0.0
 10
64.205846
 20
246.338268
 30
0.0
  0
SPLINE
  5
302
100
AcDbEntity
  8
Layer_1
 62
3
100
AcDbSpline
 70
8
 71
3
 72
8
 73
4
 74
0
 40
0
 40
0
 40
0
 40
0
 40
1
 40
1
 40
1
 40
1
 10
64.205846
 20
246.338268
 30
0.0
 10
64.205846
 20
246.084709
 30
0.0
 10
64.131432
 20
245.842174
 30
0.0
 10
63.982604
 20
245.610664
 30
0.0
  0
SPLINE
  5
303
100
AcDbEntity
  8
Layer_1
 62
3
100
AcDbSpline
 70
8
 71
3
 72
8
 73
4
 74
0
 40
0
 40
0
 40
0
 40
0
 40
1
 40
1
 40
1
 40
1
 10
63.982604
 20
245.610664
 30
0.0
 10
63.828263
 20
245.384665
 30
0.0
 10
63.588485
 20
245.213788
 30
0.0
 10
63.263268
 20
245.098033
 30
0.0
  0
LWPOLYLINE
  5
304
100
AcDbEntity
  8
Layer_1
 62
3
100
AcDbPolyline
 90
3
 70
0
 10
63.651872
 20
251.290937
 30
0.0
 10
54.854477
 20
251.290937
 30
0.0
 10
63.263266
 20
247.628111
 30
0.0
  0
SPLINE
  5
305
100
AcDbEntity
  8
Layer_1
 62
3
100
AcDbSpline
 70
8
 71
3
 72
8
 73
4
 74
0
 40
0
 40
0
 40
0
 40
0
 40
1
 40
1
 40
1
 40
1
 10
63.651874
 20
241.443476
 30
0.0
 10
63.811727
 20
241.443476
 30
0.0
 10
63.952287
 20
241.415916
 30
0.0
 10
64.073554
 20
241.360796
 30
0.0
  0
SPLINE
  5
306
100
AcDbEntity
  8
Layer_1
 62
3
100
AcDbSpline
 70
8
 71
3
 72
8
 73
4
 74
0
 40
0
 40
0
 40
0
 40
0
 40
1
 40
1
 40
1
 40
1
 10
64.073554
 20
241.360796
 30
0.0
 10
64.189309
 20
241.311189
 30
0.0
 10
64.288528
 20
241.242287
 30
0.0
 10
64.371210
 20
241.154090
 30
0.0
  0
SPLINE
  5
307
100
AcDbEntity
  8
Layer_1
 62
3
100
AcDbSpline
 70
8
 71
3
 72
8
 73
4
 74
0
 40
0
 40
0
 40
0
 40
0
 40
1
 40
1
 40
1
 40
1
 10
64.371210
 20
241.154090
 30
0.0
 10
64.448381
 20
241.065896
 30
0.0
 10
64.509014
 20
240.966677
 30
0.0
 10
64.553111
 20
240.856434
 30
0.0
  0
SPLINE
  5
308
100
AcDbEntity
  8
Layer_1
 62
3
100
AcDbSpline
 70
8
 71
3
 72
8
 73
4
 74
0
 40
0
 40
0
 40
0
 40
0
 40
1
 40
1
 40
1
 40
1
 10
64.553111
 20
240.856434
 30
0.0
 10
64.591698
 20
240.746191
 30
0.0
 10
64.610991
 20
240.633192
 30
0.0
 10
64.610991
 20
240.517437
 30
0.0
  0
SPLINE
  5
309
100
AcDbEntity
  8
Layer_1
 62
3
100
AcDbSpline
 70
8
 71
3
 72
8
 73
4
 74
0
 40
0
 40
0
 40
0
 40
0
 40
1
 40
1
 40
1
 40
1
 10
64.610991
 20
240.517437
 30
0.0
 10
64.610991
 20
240.401682
 30
0.0
 10
64.591698
 20
240.288682
 30
0.0
 10
64.553111
 20
240.178439
 30
0.0
  0
SPLINE
  5
30a
100
AcDbEntity
  8
Layer_1
 62
3
100
AcDbSpline
 70
8
 71
3
 72
8
 73
4
 74
0
 40
0
 40
0
 40
0
 40
0
 40
1
 40
1
 40
1
 40
1
 10
64.553111
 20
240.178439
 30
0.0
 10
64.509011
 20
240.068196
 30
0.0
 10
64.448377
 20
239.968978
 30
0.0
 10
64.371210
 20
239.880783
 30
0.0
  0
SPLINE
  5
30b
100
AcDbEntity
  8
Layer_1
 62
3
100
AcDbSpline
 70
8
 71
3
 72
8
 73
4
 74
0
 40
0
 40
0
 40
0
 40
0
 40
1
 40
1
 40
1
 40
1
 10
64.371210
 20
239.880783
 30
0.0
 10
64.288528
 20
239.798101
 30
0.0
 10
64.189309
 20
239.729199
 30
0.0
 10
64.073554
 20
239.674077
 30
0.0
  0
SPLINE
  5
30c
100
AcDbEntity
  8
Layer_1
 62
3
100
AcDbSpline
 70
8
 71
3
 72
8
 73
4
 74
0
 40
0
 40
0
 40
0
 40
0
 40
1
 40
1
 40
1
 40
1
 10
64.073554
 20
239.674077
 30
0.0
 10
63.952287
 20
239.624470
 30
0.0
 10
63.811727
 20
239.599667
 30
0.0
 10
63.651874
 20
239.599667
 30
0.0
  0
LWPOLYLINE
  5
30d
100
AcDbEntity
  8
Layer_1
 62
3
100
AcDbPolyline
 90
3
 70
0
 10
63.263268
 20
245.098033
 30
0.0
 10
54.904088
 20
241.443476
 30
0.0
 10
63.651874
 20
241.443476
 30
0.0
  0
SPLINE
  5
30e
100
AcDbEntity
  8
Layer_1
 62
3
100
AcDbSpline
 70
8
 71
3
 72
8
 73
4
 74
0
 40
0
 40
0
 40
0
 40
0
 40
1
 40
1
 40
1
 40
1
 10
54.507213
 20
239.599667
 30
0.0
 10
54.187508
 20
239.599667
 30
0.0
 10
53.914657
 20
239.641008
 30
0.0
 10
53.688659
 20
239.723691
 30
0.0
  0
SPLINE
  5
30f
100
AcDbEntity
  8
Layer_1
 62
3
100
AcDbSpline
 70
8
 71
3
 72
8
 73
4
 74
0
 40
0
 40
0
 40
0
 40
0
 40
1
 40
1
 40
1
 40
1
 10
53.688659
 20
239.723691
 30
0.0
 10
53.462660
 20
239.811885
 30
0.0
 10
53.278003
 20
239.930396
 30
0.0
 10
53.134687
 20
240.079224
 30
0.0
  0
SPLINE
  5
310
100
AcDbEntity
  8
Layer_1
 62
3
100
AcDbSpline
 70
8
 71
3
 72
8
 73
4
 74
0
 40
0
 40
0
 40
0
 40
0
 40
1
 40
1
 40
1
 40
1
 10
53.134687
 20
240.079224
 30
0.0
 10
52.991372
 20
240.228053
 30
0.0
 10
52.886641
 20
240.398930
 30
0.0
 10
52.820495
 20
240.591855
 30
0.0
  0
SPLINE
  5
311
100
AcDbEntity
  8
Layer_1
 62
3
100
AcDbSpline
 70
8
 71
3
 72
8
 73
4
 74
0
 40
0
 40
0
 40
0
 40
0
 40
1
 40
1
 40
1
 40
1
 10
52.820495
 20
240.591855
 30
0.0
 10
52.754348
 20
240.784780
 30
0.0
 10
52.721275
 20
240.988730
 30
0.0
 10
52.721275
 20
241.203704
 30
0.0
  0
SPLINE
  5
312
100
AcDbEntity
  8
Layer_1
 62
3
100
AcDbSpline
 70
8
 71
3
 72
8
 73
4
 74
0
 40
0
 40
0
 40
0
 40
0
 40
1
 40
1
 40
1
 40
1
 10
52.721275
 20
241.203704
 30
0.0
 10
52.721275
 20
241.418678
 30
0.0
 10
52.748835
 20
241.611603
 30
0.0
 10
52.803955
 20
241.782480
 30
0.0
  0
SPLINE
  5
313
100
AcDbEntity
  8
Layer_1
 62
3
100
AcDbSpline
 70
8
 71
3
 72
8
 73
4
 74
0
 40
0
 40
0
 40
0
 40
0
 40
1
 40
1
 40
1
 40
1
 10
52.803955
 20
241.782480
 30
0.0
 10
52.853562
 20
241.953357
 30
0.0
 10
52.941756
 20
242.110453
 30
0.0
 10
53.068539
 20
242.253769
 30
0.0
  0
SPLINE
  5
314
100
AcDbEntity
  8
Layer_1
 62
3
100
AcDbSpline
 70
8
 71
3
 72
8
 73
4
 74
0
 40
0
 40
0
 40
0
 40
0
 40
1
 40
1
 40
1
 40
1
 10
53.068539
 20
242.253769
 30
0.0
 10
53.189806
 20
242.402597
 30
0.0
 10
53.355171
 20
242.540401
 30
0.0
 10
53.564632
 20
242.667180
 30
0.0
  0
SPLINE
  5
315
100
AcDbEntity
  8
Layer_1
 62
3
100
AcDbSpline
 70
8
 71
3
 72
8
 73
4
 74
0
 40
0
 40
0
 40
0
 40
0
 40
1
 40
1
 40
1
 40
1
 10
53.564632
 20
242.667180
 30
0.0
 10
53.774094
 20
242.793959
 30
0.0
 10
54.035921
 20
242.920739
 30
0.0
 10
54.350114
 20
243.047519
 30
0.0
  0
LWPOLYLINE
  5
316
100
AcDbEntity
  8
Layer_1
 62
3
100
AcDbPolyline
 90
2
 70
0
 10
63.651874
 20
239.599667
 30
0.0
 10
54.507213
 20
239.599667
 30
0.0
  0
LWPOLYLINE
  5
317
100
AcDbEntity
  8
Layer_1
 62
3
100
AcDbPolyline
 90
3
 70
0
 10
54.350114
 20
243.047519
 30
0.0
 10
61.915543
 20
246.338274
 30
0.0
 10
61.915539
 20
246.387871
 30
0.0
  0
SPLINE
  5
318
100
AcDbEntity
  8
Layer_1
 62
3
100
AcDbSpline
 70
8
 71
3
 72
8
 73
4
 74
0
 40
0
 40
0
 40
0
 40
0
 40
1
 40
1
 40
1
 40
1
 10
47.193959
 20
202.603050
 30
0.0
 10
47.193959
 20
199.718793
 30
0.0
 10
47.193959
 20
196.834224
 30
0.0
 10
47.193959
 20
193.949344
 30
0.0
  0
LWPOLYLINE
  5
319
100
AcDbEntity
  8
Layer_1
 62
3
100
AcDbPolyline
 90
4
 70
1
 10
45.493069
 20
202.603045
 30
0.0
 10
45.493069
 20
223.543000
 30
0.0
 10
48.894855
 20
223.543000
 30
0.0
 10
48.894855
 20
202.603045
 30
0.0
  0
SPLINE
  5
31a
100
AcDbEntity
  8
Layer_1
 62
3
100
AcDbSpline
 70
8
 71
3
 72
8
 73
4
 74
0
 40
0
 40
0
 40
0
 40
0
 40
1
 40
1
 40
1
 40
1
 10
45.871040
 20
268.146952
 30
0.0
 10
45.871040
 20
271.031209
 30
0.0
 10
45.871040
 20
273.915778
 30
0.0
 10
45.871040
 20
276.800658
 30
0.0
  0
LWPOLYLINE
  5
31b
100
AcDbEntity
  8
Layer_1
 62
3
100
AcDbPolyline
 90
4
 70
1
 10
47.571930
 20
268.146957
 30
0.0
 10
47.571930
 20
247.207002
 30
0.0
 10
44.170144
 20
247.207002
 30
0.0
 10
44.170144
 20
268.146957
 30
0.0
  0
SPLINE
  5
31c
100
AcDbEntity
  8
Layer_1
 62
3
100
AcDbSpline
 70
8
 71
3
 72
8
 73
4
 74
0
 40
0
 40
0
 40
0
 40
0
 40
1
 40
1
 40
1
 40
1
 10
47.876762
 20
223.581309
 30
0.0
 10
47.449006
 20
223.670365
 30
0.0
 10
47.049014
 20
223.800933
 30
0.0
 10
46.705180
 20
223.988814
 30
0.0
  0
SPLINE
  5
31d
100
AcDbEntity
  8
Layer_1
 62
3
100
AcDbSpline
 70
8
 71
3
 72
8
 73
4
 74
0
 40
0
 40
0
 40
0
 40
0
 40
1
 40
1
 40
1
 40
1
 10
46.705180
 20
223.988814
 30
0.0
 10
46.414307
 20
224.147756
 30
0.0
 10
46.168457
 20
224.345021
 30
0.0
 10
45.976852
 20
224.587928
 30
0.0
  0
SPLINE
  5
31e
100
AcDbEntity
  8
Layer_1
 62
3
100
AcDbSpline
 70
8
 71
3
 72
8
 73
4
 74
0
 40
0
 40
0
 40
0
 40
0
 40
1
 40
1
 40
1
 40
1
 10
45.976852
 20
224.587928
 30
0.0
 10
45.642871
 20
225.011330
 30
0.0
 10
45.492531
 20
225.548861
 30
0.0
 10
45.510867
 20
226.205916
 30
0.0
  0
SPLINE
  5
31f
100
AcDbEntity
  8
Layer_1
 62
3
100
AcDbSpline
 70
8
 71
3
 72
8
 73
4
 74
0
 40
0
 40
0
 40
0
 40
0
 40
1
 40
1
 40
1
 40
1
 10
45.510867
 20
226.205916
 30
0.0
 10
45.527067
 20
226.786355
 30
0.0
 10
45.672189
 20
227.408209
 30
0.0
 10
45.871975
 20
228.052789
 30
0.0
  0
SPLINE
  5
320
100
AcDbEntity
  8
Layer_1
 62
3
100
AcDbSpline
 70
8
 71
3
 72
8
 73
4
 74
0
 40
0
 40
0
 40
0
 40
0
 40
1
 40
1
 40
1
 40
1
 10
45.871975
 20
228.052789
 30
0.0
 10
46.054430
 20
228.641454
 30
0.0
 10
46.276167
 20
229.222204
 30
0.0
 10
46.422029
 20
229.711032
 30
0.0
  0
SPLINE
  5
321
100
AcDbEntity
  8
Layer_1
 62
3
100
AcDbSpline
 70
8
 71
3
 72
8
 73
4
 74
0
 40
0
 40
0
 40
0
 40
0
 40
1
 40
1
 40
1
 40
1
 10
46.422029
 20
229.711032
 30
0.0
 10
47.165336
 20
231.345826
 30
0.0
 10
47.978540
 20
233.155758
 30
0.0
 10
48.223426
 20
234.939911
 30
0.0
  0
SPLINE
  5
322
100
AcDbEntity
  8
Layer_1
 62
3
100
AcDbSpline
 70
8
 71
3
 72
8
 73
4
 74
0
 40
0
 40
0
 40
0
 40
0
 40
1
 40
1
 40
1
 40
1
 10
48.223426
 20
234.939911
 30
0.0
 10
48.471665
 20
236.748498
 30
0.0
 10
48.133876
 20
238.489416
 30
0.0
 10
46.729944
 20
240.112591
 30
0.0
  0
SPLINE
  5
323
100
AcDbEntity
  8
Layer_1
 62
3
100
AcDbSpline
 70
8
 71
3
 72
8
 73
4
 74
0
 40
0
 40
0
 40
0
 40
0
 40
1
 40
1
 40
1
 40
1
 10
46.729944
 20
240.112591
 30
0.0
 10
46.287194
 20
240.702030
 30
0.0
 10
46.061310
 20
241.292817
 30
0.0
 10
45.948853
 20
241.865153
 30
0.0
  0
SPLINE
  5
324
100
AcDbEntity
  8
Layer_1
 62
3
100
AcDbSpline
 70
8
 71
3
 72
8
 73
4
 74
0
 40
0
 40
0
 40
0
 40
0
 40
1
 40
1
 40
1
 40
1
 10
45.948853
 20
241.865153
 30
0.0
 10
45.828817
 20
242.476061
 30
0.0
 10
45.835034
 20
243.089206
 30
0.0
 10
45.865243
 20
243.650289
 30
0.0
  0
SPLINE
  5
325
100
AcDbEntity
  8
Layer_1
 62
3
100
AcDbSpline
 70
8
 71
3
 72
8
 73
4
 74
0
 40
0
 40
0
 40
0
 40
0
 40
1
 40
1
 40
1
 40
1
 10
45.865243
 20
243.650289
 30
0.0
 10
45.956453
 20
245.344347
 30
0.0
 10
46.096694
 20
246.114233
 30
0.0
 10
45.757638
 20
247.207000
 30
0.0
  0
SPLINE
  5
326
100
AcDbEntity
  8
Layer_1
 62
3
100
AcDbSpline
 70
8
 71
3
 72
8
 73
4
 74
0
 40
0
 40
0
 40
0
 40
0
 40
1
 40
1
 40
1
 40
1
 10
45.757638
 20
247.207000
 30
0.0
 10
46.094346
 20
246.121801
 30
0.0
 10
45.947666
 20
245.336516
 30
0.0
 10
45.836428
 20
243.651024
 30
0.0
  0
SPLINE
  5
327
100
AcDbEntity
  8
Layer_1
 62
3
100
AcDbSpline
 70
8
 71
3
 72
8
 73
4
 74
0
 40
0
 40
0
 40
0
 40
0
 40
1
 40
1
 40
1
 40
1
 10
45.836428
 20
243.651024
 30
0.0
 10
45.799418
 20
243.090192
 30
0.0
 10
45.784948
 20
242.475072
 30
0.0
 10
45.897008
 20
241.860978
 30
0.0
  0
SPLINE
  5
328
100
AcDbEntity
  8
Layer_1
 62
3
100
AcDbSpline
 70
8
 71
3
 72
8
 73
4
 74
0
 40
0
 40
0
 40
0
 40
0
 40
1
 40
1
 40
1
 40
1
 10
45.897008
 20
241.860978
 30
0.0
 10
46.002027
 20
241.285432
 30
0.0
 10
46.220825
 20
240.688336
 30
0.0
 10
46.660894
 20
240.089114
 30
0.0
  0
SPLINE
  5
329
100
AcDbEntity
  8
Layer_1
 62
3
100
AcDbSpline
 70
8
 71
3
 72
8
 73
4
 74
0
 40
0
 40
0
 40
0
 40
0
 40
1
 40
1
 40
1
 40
1
 10
46.660894
 20
240.089114
 30
0.0
 10
48.040440
 20
238.471124
 30
0.0
 10
48.356772
 20
236.742052
 30
0.0
 10
48.091699
 20
234.947889
 30
0.0
  0
SPLINE
  5
32a
100
AcDbEntity
  8
Layer_1
 62
3
100
AcDbSpline
 70
8
 71
3
 72
8
 73
4
 74
0
 40
0
 40
0
 40
0
 40
0
 40
1
 40
1
 40
1
 40
1
 10
48.091699
 20
234.947889
 30
0.0
 10
47.829865
 20
233.175650
 30
0.0
 10
47.003102
 20
231.378064
 30
0.0
 10
46.241108
 20
229.740484
 30
0.0
  0
SPLINE
  5
32b
100
AcDbEntity
  8
Layer_1
 62
3
100
AcDbSpline
 70
8
 71
3
 72
8
 73
4
 74
0
 40
0
 40
0
 40
0
 40
0
 40
1
 40
1
 40
1
 40
1
 10
46.241108
 20
229.740484
 30
0.0
 10
46.085847
 20
229.252413
 30
0.0
 10
45.855509
 20
228.672192
 30
0.0
 10
45.664019
 20
228.080801
 30
0.0
  0
SPLINE
  5
32c
100
AcDbEntity
  8
Layer_1
 62
3
100
AcDbSpline
 70
8
 71
3
 72
8
 73
4
 74
0
 40
0
 40
0
 40
0
 40
0
 40
1
 40
1
 40
1
 40
1
 10
45.664019
 20
228.080801
 30
0.0
 10
45.454735
 20
227.434458
 30
0.0
 10
45.298815
 20
226.802934
 30
0.0
 10
45.275172
 20
226.209317
 30
0.0
  0
SPLINE
  5
32d
100
AcDbEntity
  8
Layer_1
 62
3
100
AcDbSpline
 70
8
 71
3
 72
8
 73
4
 74
0
 40
0
 40
0
 40
0
 40
0
 40
1
 40
1
 40
1
 40
1
 10
45.275172
 20
226.209317
 30
0.0
 10
45.248412
 20
225.537518
 30
0.0
 10
45.394718
 20
224.969769
 30
0.0
 10
45.749731
 20
224.512406
 30
0.0
  0
SPLINE
  5
32e
100
AcDbEntity
  8
Layer_1
 62
3
100
AcDbSpline
 70
8
 71
3
 72
8
 73
4
 74
0
 40
0
 40
0
 40
0
 40
0
 40
1
 40
1
 40
1
 40
1
 10
45.749731
 20
224.512406
 30
0.0
 10
45.954150
 20
224.249054
 30
0.0
 10
46.219801
 20
224.032903
 30
0.0
 10
46.536677
 20
223.858305
 30
0.0
  0
SPLINE
  5
32f
100
AcDbEntity
  8
Layer_1
 62
3
100
AcDbSpline
 70
8
 71
3
 72
8
 73
4
 74
0
 40
0
 40
0
 40
0
 40
0
 40
1
 40
1
 40
1
 40
1
 10
46.536677
 20
223.858305
 30
0.0
 10
46.910618
 20
223.652264
 30
0.0
 10
47.342604
 20
223.511433
 30
0.0
 10
47.796276
 20
223.416982
 30
0.0
  0
LWPOLYLINE
  5
330
100
AcDbEntity
  8
Layer_1
 62
3
100
AcDbPolyline
 90
2
 70
0
 10
47.836522
 20
223.499145
 30
0.0
 10
47.876762
 20
223.581309
 30
0.0
  0
LWPOLYLINE
  5
331
100
AcDbEntity
  8
Layer_1
 62
3
100
AcDbPolyline
 90
3
 70
0
 10
47.796276
 20
223.416982
 30
0.0
 10
47.836516
 20
223.499145
 30
0.0
 10
47.836522
 20
223.499145
 30
0.0
  0
ENDSEC
  0
SECTION
  2
OBJECTS
  0
DICTIONARY
  5
C
330
0
100
AcDbDictionary
  3
ACAD_GROUP
350
D
  3
ACAD_MLINESTYLE
350
17
  0
DICTIONARY
  5
D
330
C
100
AcDbDictionary
  0
DICTIONARY
  5
1A
330
C
100
AcDbDictionary
  0
DICTIONARY
  5
17
330
C
100
AcDbDictionary
  3
STANDARD
350
18
  0
DICTIONARY
  5
19
330
C
100
AcDbDictionary
  0
ENDSEC
  0
EOF
