  0
SECTION
  2
HEADER
  9
$ACADVER
  1
AC1014
  9
$HANDSEED
  5
FFFF
  9
$MEASUREMENT
 70
     1
  0
ENDSEC
  0
SECTION
  2
TABLES
  0
TABLE
  2
VPORT
  5
8
330
0
100
AcDbSymbolTable
 70
     4
  0
VPORT
  5
2E
330
8
100
AcDbSymbolTableRecord
100
AcDbViewportTableRecord
  2
*ACTIVE
 70
     0
 10
0.0
 20
0.0
 11
1.0
 21
1.0
 12
210.0
 22
148.5
 13
0.0
 23
0.0
 14
10.0
 24
10.0
 15
10.0
 25
10.0
 16
0.0
 26
0.0
 36
1.0
 17
0.0
 27
0.0
 37
0.0
 40
341.0
 41
1.24
 42
50.0
 43
0.0
 44
0.0
 50
0.0
 51
0.0
 71
     0
 72
   100
 73
     1
 74
     3
 75
     0
 76
     0
 77
     0
 78
     0
  0
ENDTAB
  0
TABLE
  2
LTYPE
  5
5
330
0
100
AcDbSymbolTable
 70
     1
  0
LTYPE
  5
14
330
5
100
AcDbSymbolTableRecord
100
AcDbLinetypeTableRecord
  2
BYBLOCK
 70
     0
  3

 72
    65
 73
     0
 40
0.0
  0
LTYPE
  5
15
330
5
100
AcDbSymbolTableRecord
100
AcDbLinetypeTableRecord
  2
BYLAYER
 70
     0
  3

 72
    65
 73
     0
 40
0.0
  0
LTYPE
  5
16
330
5
100
AcDbSymbolTableRecord
100
AcDbLinetypeTableRecord
  2
CONTINUOUS
 70
     0
  3
Solid line
 72
    65
 73
     0
 40
0.0
  0
ENDTAB
  0
TABLE
  2
LAYER
  5
2
100
AcDbSymbolTable
 70
3
  0
LAYER
  5
50
100
AcDbSymbolTableRecord
100
AcDbLayerTableRecord
  2
0
 70
0
  6
CONTINUOUS
  0
LAYER
  5
51
100
AcDbSymbolTableRecord
100
AcDbLayerTableRecord
  2
Layer_1
 70
0
  6
CONTINUOUS
  0
LAYER
  5
52
100
AcDbSymbolTableRecord
100
AcDbLayerTableRecord
  2
newlayer
 70
0
  6
CONTINUOUS
  0
ENDTAB
  0
TABLE
  2
STYLE
  5
3
330
0
100
AcDbSymbolTable
 70
     1
  0
STYLE
  5
11
330
3
100
AcDbSymbolTableRecord
100
AcDbTextStyleTableRecord
  2
STANDARD
 70
     0
 40
0.0
 41
1.0
 50
0.0
 71
     0
 42
2.5
  3
txt
  4

  0
ENDTAB
  0
TABLE
  2
VIEW
  5
6
330
0
100
AcDbSymbolTable
 70
     0
  0
ENDTAB
  0
TABLE
  2
UCS
  5
7
330
0
100
AcDbSymbolTable
 70
     0
  0
ENDTAB
  0
TABLE
  2
APPID
  5
9
330
0
100
AcDbSymbolTable
 70
     2
  0
APPID
  5
12
330
9
100
AcDbSymbolTableRecord
100
AcDbRegAppTableRecord
  2
ACAD
 70
     0
  0
ENDTAB
  0
TABLE
  2
DIMSTYLE
  5
A
330
0
100
AcDbSymbolTable
 70
     1
  0
DIMSTYLE
105
27
330
A
100
AcDbSymbolTableRecord
100
AcDbDimStyleTableRecord
  2
ISO-25
 70
     0
  3

  4

  5

  6

  7

 40
1.0
 41
2.5
 42
0.625
 43
3.75
 44
1.25
 45
0.0
 46
0.0
 47
0.0
 48
0.0
140
2.5
141
2.5
142
0.0
143
0.03937007874016
144
1.0
145
0.0
146
1.0
147
0.625
 71
     0
 72
     0
 73
     0
 74
     0
 75
     0
 76
     0
 77
     1
 78
     8
170
     0
171
     3
172
     1
173
     0
174
     0
175
     0
176
     0
177
     0
178
     0
270
     2
271
     2
272
     2
273
     2
274
     3
340
11
275
     0
280
     0
281
     0
282
     0
283
     0
284
     8
285
     0
286
     0
287
     3
288
     0
  0
ENDTAB
  0
TABLE
  2
BLOCK_RECORD
  5
1
330
0
100
AcDbSymbolTable
 70
     1
  0
BLOCK_RECORD
  5
1F
330
1
100
AcDbSymbolTableRecord
100
AcDbBlockTableRecord
  2
*MODEL_SPACE
  0
BLOCK_RECORD
  5
1B
330
1
100
AcDbSymbolTableRecord
100
AcDbBlockTableRecord
  2
*PAPER_SPACE
  0
ENDTAB
  0
ENDSEC
  0
SECTION
  2
BLOCKS
  0
BLOCK
  5
20
330
1F
100
AcDbEntity
  8
0
100
AcDbBlockBegin
  2
*MODEL_SPACE
 70
     0
 10
0.0
 20
0.0
 30
0.0
  3
*MODEL_SPACE
  1

  0
ENDBLK
  5
21
330
1F
100
AcDbEntity
  8
0
100
AcDbBlockEnd
  0
BLOCK
  5
1C
330
1B
100
AcDbEntity
 67
     1
  8
0
100
AcDbBlockBegin
  2
*PAPER_SPACE
  1

  0
ENDBLK
  5
1D
330
1B
100
AcDbEntity
 67
     1
  8
0
100
AcDbBlockEnd
  0
ENDSEC
  0
SECTION
  2
ENTITIES
  0
LWPOLYLINE
  5
100
100
AcDbEntity
  8
Layer_1
 62
7
100
AcDbPolyline
 90
24
 70
1
 10
3.970833
 20
291.375004
 30
0.0
 10
26.552500
 20
291.375004
 30
0.0
 10
26.552500
 20
295.375004
 30
0.0
 10
53.389166
 20
295.375004
 30
0.0
 10
53.389166
 20
291.375004
 30
0.0
 10
75.970833
 20
291.375004
 30
0.0
 10
75.970833
 20
271.460004
 30
0.0
 10
79.970833
 20
271.460004
 30
0.0
 10
79.970833
 20
247.290004
 30
0.0
 10
75.970833
 20
247.290004
 30
0.0
 10
75.970833
 20
223.460004
 30
0.0
 10
79.970833
 20
223.460004
 30
0.0
 10
79.970833
 20
199.290004
 30
0.0
 10
75.970833
 20
199.290004
 30
0.0
 10
75.970833
 20
179.375004
 30
0.0
 10
53.389166
 20
179.375004
 30
0.0
 10
53.389166
 20
175.375004
 30
0.0
 10
26.552500
 20
175.375004
 30
0.0
 10
26.552500
 20
179.375004
 30
0.0
 10
3.970833
 20
179.375004
 30
0.0
 10
14.554166
 20
199.290004
 30
0.0
 10
14.554166
 20
223.460004
 30
0.0
 10
14.554166
 20
247.290004
 30
0.0
 10
14.554166
 20
271.460004
 30
0.0
  0
LWPOLYLINE
  5
101
100
AcDbEntity
  8
Layer_1
 62
7
100
AcDbPolyline
 90
60
 70
1
 10
81.000000
 20
91.500000
 30
0.0
 10
102.453460
 20
91.500000
 30
0.0
 10
102.453460
 20
95.500000
 30
0.0
 10
124.161920
 20
95.500000
 30
0.0
 10
124.161920
 20
91.500000
 30
0.0
 10
145.530380
 20
91.500000
 30
0.0
 10
145.530380
 20
95.500000
 30
0.0
 10
167.238850
 20
95.500000
 30
0.0
 10
167.238850
 20
91.500000
 30
0.0
 10
188.607310
 20
91.500000
 30
0.0
 10
188.607310
 20
95.500000
 30
0.0
 10
210.315770
 20
95.500000
 30
0.0
 10
210.315770
 20
91.500000
 30
0.0
 10
231.684230
 20
91.500000
 30
0.0
 10
231.684230
 20
95.500000
 30
0.0
 10
253.392690
 20
95.500000
 30
0.0
 10
253.392690
 20
91.500000
 30
0.0
 10
274.761150
 20
91.500000
 30
0.0
 10
274.761150
 20
95.500000
 30
0.0
 10
296.469620
 20
95.500000
 30
0.0
 10
296.469620
 20
91.500000
 30
0.0
 10
317.838080
 20
91.500000
 30
0.0
 10
317.838080
 20
95.500000
 30
0.0
 10
339.546540
 20
95.500000
 30
0.0
 10
339.546540
 20
91.500000
 30
0.0
 10
361.000000
 20
91.500000
 30
0.0
 10
361.000000
 20
68.748330
 30
0.0
 10
357.000000
 20
68.748330
 30
0.0
 10
357.000000
 20
42.251670
 30
0.0
 10
361.000000
 20
42.251670
 30
0.0
 10
361.000000
 20
19.500000
 30
0.0
 10
339.546540
 20
19.500000
 30
0.0
 10
339.546540
 20
15.500000
 30
0.0
 10
317.838080
 20
15.500000
 30
0.0
 10
317.838080
 20
19.500000
 30
0.0
 10
296.469620
 20
19.500000
 30
0.0
 10
296.469620
 20
15.500000
 30
0.0
 10
274.761150
 20
15.500000
 30
0.0
 10
274.761150
 20
19.500000
 30
0.0
 10
253.392690
 20
19.500000
 30
0.0
 10
253.392690
 20
15.500000
 30
0.0
 10
231.684230
 20
15.500000
 30
0.0
 10
231.684230
 20
19.500000
 30
0.0
 10
210.315770
 20
19.500000
 30
0.0
 10
210.315770
 20
15.500000
 30
0.0
 10
188.607310
 20
15.500000
 30
0.0
 10
188.607310
 20
19.500000
 30
0.0
 10
167.238850
 20
19.500000
 30
0.0
 10
167.238850
 20
15.500000
 30
0.0
 10
145.530380
 20
15.500000
 30
0.0
 10
145.530380
 20
19.500000
 30
0.0
 10
124.161920
 20
19.500000
 30
0.0
 10
124.161920
 20
15.500000
 30
0.0
 10
102.453460
 20
15.500000
 30
0.0
 10
102.453460
 20
19.500000
 30
0.0
 10
81.000000
 20
19.500000
 30
0.0
 10
81.000000
 20
42.251670
 30
0.0
 10
85.000000
 20
42.251670
 30
0.0
 10
85.000000
 20
68.748330
 30
0.0
 10
81.000000
 20
68.748330
 30
0.0
  0
LWPOLYLINE
  5
102
100
AcDbEntity
  8
Layer_1
 62
7
100
AcDbPolyline
 90
68
 70
1
 10
81.000000
 20
216.000000
 30
0.0
 10
102.623460
 20
216.000000
 30
0.0
 10
102.623460
 20
212.000000
 30
0.0
 10
123.991920
 20
212.000000
 30
0.0
 10
123.991920
 20
216.000000
 30
0.0
 10
145.700380
 20
216.000000
 30
0.0
 10
145.700380
 20
212.000000
 30
0.0
 10
167.068850
 20
212.000000
 30
0.0
 10
167.068850
 20
216.000000
 30
0.0
 10
188.777310
 20
216.000000
 30
0.0
 10
188.777310
 20
212.000000
 30
0.0
 10
210.145770
 20
212.000000
 30
0.0
 10
210.145770
 20
216.000000
 30
0.0
 10
231.854230
 20
216.000000
 30
0.0
 10
231.854230
 20
212.000000
 30
0.0
 10
253.222690
 20
212.000000
 30
0.0
 10
253.222690
 20
216.000000
 30
0.0
 10
274.931150
 20
216.000000
 30
0.0
 10
274.931150
 20
212.000000
 30
0.0
 10
296.299620
 20
212.000000
 30
0.0
 10
296.299620
 20
216.000000
 30
0.0
 10
318.008080
 20
216.000000
 30
0.0
 10
318.008080
 20
212.000000
 30
0.0
 10
339.376540
 20
212.000000
 30
0.0
 10
339.376540
 20
216.000000
 30
0.0
 10
361.000000
 20
216.000000
 30
0.0
 10
361.000000
 20
191.915000
 30
0.0
 10
357.000000
 20
191.915000
 30
0.0
 10
357.000000
 20
168.085000
 30
0.0
 10
361.000000
 20
168.085000
 30
0.0
 10
361.000000
 20
143.915000
 30
0.0
 10
357.000000
 20
143.915000
 30
0.0
 10
357.000000
 20
120.085000
 30
0.0
 10
361.000000
 20
120.085000
 30
0.0
 10
361.000000
 20
96.000000
 30
0.0
 10
339.376540
 20
96.000000
 30
0.0
 10
339.376540
 20
100.000000
 30
0.0
 10
318.008080
 20
100.000000
 30
0.0
 10
318.008080
 20
96.000000
 30
0.0
 10
296.299620
 20
96.000000
 30
0.0
 10
296.299620
 20
100.000000
 30
0.0
 10
274.931150
 20
100.000000
 30
0.0
 10
274.931150
 20
96.000000
 30
0.0
 10
253.222690
 20
96.000000
 30
0.0
 10
253.222690
 20
100.000000
 30
0.0
 10
231.854230
 20
100.000000
 30
0.0
 10
231.854230
 20
96.000000
 30
0.0
 10
210.145770
 20
96.000000
 30
0.0
 10
210.145770
 20
100.000000
 30
0.0
 10
188.777310
 20
100.000000
 30
0.0
 10
188.777310
 20
96.000000
 30
0.0
 10
167.068850
 20
96.000000
 30
0.0
 10
167.068850
 20
100.000000
 30
0.0
 10
145.700380
 20
100.000000
 30
0.0
 10
145.700380
 20
96.000000
 30
0.0
 10
123.991920
 20
96.000000
 30
0.0
 10
123.991920
 20
100.000000
 30
0.0
 10
102.623460
 20
100.000000
 30
0.0
 10
102.623460
 20
96.000000
 30
0.0
 10
81.000000
 20
96.000000
 30
0.0
 10
81.000000
 20
120.085000
 30
0.0
 10
85.000000
 20
120.085000
 30
0.0
 10
85.000000
 20
143.915000
 30
0.0
 10
81.000000
 20
143.915000
 30
0.0
 10
81.000000
 20
168.085000
 30
0.0
 10
85.000000
 20
168.085000
 30
0.0
 10
85.000000
 20
191.915000
 30
0.0
 10
81.000000
 20
191.915000
 30
0.0
  0
LWPOLYLINE
  5
103
100
AcDbEntity
  8
Layer_1
 62
7
100
AcDbPolyline
 90
24
 70
1
 10
4.000070
 20
169.787503
 30
0.0
 10
26.581740
 20
169.787503
 30
0.0
 10
26.581740
 20
173.787503
 30
0.0
 10
53.418400
 20
173.787503
 30
0.0
 10
53.418400
 20
169.787503
 30
0.0
 10
76.000070
 20
169.787503
 30
0.0
 10
76.000070
 20
149.872503
 30
0.0
 10
80.000070
 20
149.872503
 30
0.0
 10
80.000070
 20
125.702503
 30
0.0
 10
76.000070
 20
125.702503
 30
0.0
 10
76.000070
 20
101.872503
 30
0.0
 10
80.000070
 20
101.872503
 30
0.0
 10
80.000070
 20
77.702503
 30
0.0
 10
76.000070
 20
77.702503
 30
0.0
 10
76.000070
 20
57.787503
 30
0.0
 10
53.418400
 20
57.787503
 30
0.0
 10
53.418400
 20
53.787503
 30
0.0
 10
26.581740
 20
53.787503
 30
0.0
 10
26.581740
 20
57.787503
 30
0.0
 10
4.000070
 20
57.787503
 30
0.0
 10
4.000070
 20
77.702503
 30
0.0
 10
4.000070
 20
101.872503
 30
0.0
 10
4.000070
 20
125.702503
 30
0.0
 10
4.000070
 20
149.872503
 30
0.0
  0
LWPOLYLINE
  5
104
100
AcDbEntity
  8
Layer_1
 62
7
100
AcDbPolyline
 90
60
 70
1
 10
81.000000
 20
292.500000
 30
0.0
 10
102.453460
 20
292.500000
 30
0.0
 10
102.453460
 20
296.500000
 30
0.0
 10
124.161920
 20
296.500000
 30
0.0
 10
124.161920
 20
292.500000
 30
0.0
 10
145.530380
 20
292.500000
 30
0.0
 10
145.530380
 20
296.500000
 30
0.0
 10
167.238850
 20
296.500000
 30
0.0
 10
167.238850
 20
292.500000
 30
0.0
 10
188.607310
 20
292.500000
 30
0.0
 10
188.607310
 20
296.500000
 30
0.0
 10
210.315770
 20
296.500000
 30
0.0
 10
210.315770
 20
292.500000
 30
0.0
 10
231.684230
 20
292.500000
 30
0.0
 10
231.684230
 20
296.500000
 30
0.0
 10
253.392690
 20
296.500000
 30
0.0
 10
253.392690
 20
292.500000
 30
0.0
 10
274.761150
 20
292.500000
 30
0.0
 10
274.761150
 20
296.500000
 30
0.0
 10
296.469620
 20
296.500000
 30
0.0
 10
296.469620
 20
292.500000
 30
0.0
 10
317.838080
 20
292.500000
 30
0.0
 10
317.838080
 20
296.500000
 30
0.0
 10
339.546540
 20
296.500000
 30
0.0
 10
339.546540
 20
292.500000
 30
0.0
 10
361.000000
 20
292.500000
 30
0.0
 10
361.000000
 20
269.748333
 30
0.0
 10
357.000000
 20
269.748333
 30
0.0
 10
357.000000
 20
243.251667
 30
0.0
 10
361.000000
 20
243.251667
 30
0.0
 10
361.000000
 20
220.500000
 30
0.0
 10
339.546540
 20
220.500000
 30
0.0
 10
339.546540
 20
216.500000
 30
0.0
 10
317.838080
 20
216.500000
 30
0.0
 10
317.838080
 20
220.500000
 30
0.0
 10
296.469620
 20
220.500000
 30
0.0
 10
296.469620
 20
216.500000
 30
0.0
 10
274.761150
 20
216.500000
 30
0.0
 10
274.761150
 20
220.500000
 30
0.0
 10
253.392690
 20
220.500000
 30
0.0
 10
253.392690
 20
216.500000
 30
0.0
 10
231.684230
 20
216.500000
 30
0.0
 10
231.684230
 20
220.500000
 30
0.0
 10
210.315770
 20
220.500000
 30
0.0
 10
210.315770
 20
216.500000
 30
0.0
 10
188.607310
 20
216.500000
 30
0.0
 10
188.607310
 20
220.500000
 30
0.0
 10
167.238850
 20
220.500000
 30
0.0
 10
167.238850
 20
216.500000
 30
0.0
 10
145.530380
 20
216.500000
 30
0.0
 10
145.530380
 20
220.500000
 30
0.0
 10
124.161920
 20
220.500000
 30
0.0
 10
124.161920
 20
216.500000
 30
0.0
 10
102.453460
 20
216.500000
 30
0.0
 10
102.453460
 20
220.500000
 30
0.0
 10
81.000000
 20
220.500000
 30
0.0
 10
81.000000
 20
243.251667
 30
0.0
 10
85.000000
 20
243.251667
 30
0.0
 10
85.000000
 20
269.748333
 30
0.0
 10
81.000000
 20
269.748333
 30
0.0
  0
LWPOLYLINE
  5
105
100
AcDbEntity
  8
Layer_1
 62
3
100
AcDbPolyline
 90
4
 70
1
 10
41.489806
 20
202.603048
 30
0.0
 10
41.489806
 20
223.543003
 30
0.0
 10
44.891592
 20
223.543003
 30
0.0
 10
44.891592
 20
202.603048
 30
0.0
  0
LWPOLYLINE
  5
106
100
AcDbEntity
  8
Layer_1
 62
3
100
AcDbPolyline
 90
4
 70
1
 10
43.568667
 20
268.146960
 30
0.0
 10
43.568667
 20
247.207005
 30
0.0
 10
40.166881
 20
247.207005
 30
0.0
 10
40.166881
 20
268.146960
 30
0.0
  0
SPLINE
  5
107
100
AcDbEntity
  8
Layer_1
 62
3
100
AcDbSpline
 70
8
 71
3
 72
8
 73
4
 74
0
 40
0
 40
0
 40
0
 40
0
 40
1
 40
1
 40
1
 40
1
 10
43.873499
 20
223.581312
 30
0.0
 10
43.445743
 20
223.670368
 30
0.0
 10
43.045751
 20
223.800936
 30
0.0
 10
42.701917
 20
223.988817
 30
0.0
  0
SPLINE
  5
108
100
AcDbEntity
  8
Layer_1
 62
3
100
AcDbSpline
 70
8
 71
3
 72
8
 73
4
 74
0
 40
0
 40
0
 40
0
 40
0
 40
1
 40
1
 40
1
 40
1
 10
42.701917
 20
223.988817
 30
0.0
 10
42.411044
 20
224.147759
 30
0.0
 10
42.165194
 20
224.345024
 30
0.0
 10
41.973589
 20
224.587931
 30
0.0
  0
SPLINE
  5
109
100
AcDbEntity
  8
Layer_1
 62
3
100
AcDbSpline
 70
8
 71
3
 72
8
 73
4
 74
0
 40
0
 40
0
 40
0
 40
0
 40
1
 40
1
 40
1
 40
1
 10
41.973589
 20
224.587931
 30
0.0
 10
41.639608
 20
225.011333
 30
0.0
 10
41.489268
 20
225.548864
 30
0.0
 10
41.507604
 20
226.205919
 30
0.0
  0
SPLINE
  5
10a
100
AcDbEntity
  8
Layer_1
 62
3
100
AcDbSpline
 70
8
 71
3
 72
8
 73
4
 74
0
 40
0
 40
0
 40
0
 40
0
 40
1
 40
1
 40
1
 40
1
 10
41.507604
 20
226.205919
 30
0.0
 10
41.523804
 20
226.786358
 30
0.0
 10
41.668926
 20
227.408212
 30
0.0
 10
41.868712
 20
228.052792
 30
0.0
  0
SPLINE
  5
10b
100
AcDbEntity
  8
Layer_1
 62
3
100
AcDbSpline
 70
8
 71
3
 72
8
 73
4
 74
0
 40
0
 40
0
 40
0
 40
0
 40
1
 40
1
 40
1
 40
1
 10
41.868712
 20
228.052792
 30
0.0
 10
42.051167
 20
228.641457
 30
0.0
 10
42.272904
 20
229.222207
 30
0.0
 10
42.418766
 20
229.711035
 30
0.0
  0
SPLINE
  5
10c
100
AcDbEntity
  8
Layer_1
 62
3
100
AcDbSpline
 70
8
 71
3
 72
8
 73
4
 74
0
 40
0
 40
0
 40
0
 40
0
 40
1
 40
1
 40
1
 40
1
 10
42.418766
 20
229.711035
 30
0.0
 10
43.162073
 20
231.345829
 30
0.0
 10
43.975277
 20
233.155761
 30
0.0
 10
44.220163
 20
234.939914
 30
0.0
  0
SPLINE
  5
10d
100
AcDbEntity
  8
Layer_1
 62
3
100
AcDbSpline
 70
8
 71
3
 72
8
 73
4
 74
0
 40
0
 40
0
 40
0
 40
0
 40
1
 40
1
 40
1
 40
1
 10
44.220163
 20
234.939914
 30
0.0
 10
44.468402
 20
236.748501
 30
0.0
 10
44.130613
 20
238.489419
 30
0.0
 10
42.726681
 20
240.112594
 30
0.0
  0
SPLINE
  5
10e
100
AcDbEntity
  8
Layer_1
 62
3
100
AcDbSpline
 70
8
 71
3
 72
8
 73
4
 74
0
 40
0
 40
0
 40
0
 40
0
 40
1
 40
1
 40
1
 40
1
 10
42.726681
 20
240.112594
 30
0.0
 10
42.283931
 20
240.702033
 30
0.0
 10
42.058047
 20
241.292820
 30
0.0
 10
41.945590
 20
241.865156
 30
0.0
  0
SPLINE
  5
10f
100
AcDbEntity
  8
Layer_1
 62
3
100
AcDbSpline
 70
8
 71
3
 72
8
 73
4
 74
0
 40
0
 40
0
 40
0
 40
0
 40
1
 40
1
 40
1
 40
1
 10
41.945590
 20
241.865156
 30
0.0
 10
41.825554
 20
242.476064
 30
0.0
 10
41.831771
 20
243.089209
 30
0.0
 10
41.861980
 20
243.650292
 30
0.0
  0
SPLINE
  5
110
100
AcDbEntity
  8
Layer_1
 62
3
100
AcDbSpline
 70
8
 71
3
 72
8
 73
4
 74
0
 40
0
 40
0
 40
0
 40
0
 40
1
 40
1
 40
1
 40
1
 10
41.861980
 20
243.650292
 30
0.0
 10
41.953190
 20
245.344350
 30
0.0
 10
42.093431
 20
246.114236
 30
0.0
 10
41.754375
 20
247.207003
 30
0.0
  0
SPLINE
  5
111
100
AcDbEntity
  8
Layer_1
 62
3
100
AcDbSpline
 70
8
 71
3
 72
8
 73
4
 74
0
 40
0
 40
0
 40
0
 40
0
 40
1
 40
1
 40
1
 40
1
 10
41.754375
 20
247.207003
 30
0.0
 10
42.091083
 20
246.121804
 30
0.0
 10
41.944403
 20
245.336519
 30
0.0
 10
41.833165
 20
243.651027
 30
0.0
  0
SPLINE
  5
112
100
AcDbEntity
  8
Layer_1
 62
3
100
AcDbSpline
 70
8
 71
3
 72
8
 73
4
 74
0
 40
0
 40
0
 40
0
 40
0
 40
1
 40
1
 40
1
 40
1
 10
41.833165
 20
243.651027
 30
0.0
 10
41.796155
 20
243.090195
 30
0.0
 10
41.781685
 20
242.475075
 30
0.0
 10
41.893745
 20
241.860981
 30
0.0
  0
SPLINE
  5
113
100
AcDbEntity
  8
Layer_1
 62
3
100
AcDbSpline
 70
8
 71
3
 72
8
 73
4
 74
0
 40
0
 40
0
 40
0
 40
0
 40
1
 40
1
 40
1
 40
1
 10
41.893745
 20
241.860981
 30
0.0
 10
41.998764
 20
241.285435
 30
0.0
 10
42.217562
 20
240.688339
 30
0.0
 10
42.657631
 20
240.089117
 30
0.0
  0
SPLINE
  5
114
100
AcDbEntity
  8
Layer_1
 62
3
100
AcDbSpline
 70
8
 71
3
 72
8
 73
4
 74
0
 40
0
 40
0
 40
0
 40
0
 40
1
 40
1
 40
1
 40
1
 10
42.657631
 20
240.089117
 30
0.0
 10
44.037177
 20
238.471127
 30
0.0
 10
44.353509
 20
236.742055
 30
0.0
 10
44.088436
 20
234.947892
 30
0.0
  0
SPLINE
  5
115
100
AcDbEntity
  8
Layer_1
 62
3
100
AcDbSpline
 70
8
 71
3
 72
8
 73
4
 74
0
 40
0
 40
0
 40
0
 40
0
 40
1
 40
1
 40
1
 40
1
 10
44.088436
 20
234.947892
 30
0.0
 10
43.826602
 20
233.175653
 30
0.0
 10
42.999839
 20
231.378067
 30
0.0
 10
42.237845
 20
229.740487
 30
0.0
  0
SPLINE
  5
116
100
AcDbEntity
  8
Layer_1
 62
3
100
AcDbSpline
 70
8
 71
3
 72
8
 73
4
 74
0
 40
0
 40
0
 40
0
 40
0
 40
1
 40
1
 40
1
 40
1
 10
42.237845
 20
229.740487
 30
0.0
 10
42.082584
 20
229.252416
 30
0.0
 10
41.852246
 20
228.672195
 30
0.0
 10
41.660756
 20
228.080804
 30
0.0
  0
SPLINE
  5
117
100
AcDbEntity
  8
Layer_1
 62
3
100
AcDbSpline
 70
8
 71
3
 72
8
 73
4
 74
0
 40
0
 40
0
 40
0
 40
0
 40
1
 40
1
 40
1
 40
1
 10
41.660756
 20
228.080804
 30
0.0
 10
41.451472
 20
227.434461
 30
0.0
 10
41.295552
 20
226.802937
 30
0.0
 10
41.271909
 20
226.209320
 30
0.0
  0
SPLINE
  5
118
100
AcDbEntity
  8
Layer_1
 62
3
100
AcDbSpline
 70
8
 71
3
 72
8
 73
4
 74
0
 40
0
 40
0
 40
0
 40
0
 40
1
 40
1
 40
1
 40
1
 10
41.271909
 20
226.209320
 30
0.0
 10
41.245149
 20
225.537521
 30
0.0
 10
41.391455
 20
224.969772
 30
0.0
 10
41.746468
 20
224.512409
 30
0.0
  0
SPLINE
  5
119
100
AcDbEntity
  8
Layer_1
 62
3
100
AcDbSpline
 70
8
 71
3
 72
8
 73
4
 74
0
 40
0
 40
0
 40
0
 40
0
 40
1
 40
1
 40
1
 40
1
 10
41.746468
 20
224.512409
 30
0.0
 10
41.950887
 20
224.249057
 30
0.0
 10
42.216538
 20
224.032906
 30
0.0
 10
42.533414
 20
223.858308
 30
0.0
  0
SPLINE
  5
11a
100
AcDbEntity
  8
Layer_1
 62
3
100
AcDbSpline
 70
8
 71
3
 72
8
 73
4
 74
0
 40
0
 40
0
 40
0
 40
0
 40
1
 40
1
 40
1
 40
1
 10
42.533414
 20
223.858308
 30
0.0
 10
42.907355
 20
223.652267
 30
0.0
 10
43.339341
 20
223.511436
 30
0.0
 10
43.793013
 20
223.416985
 30
0.0
  0
LWPOLYLINE
  5
11b
100
AcDbEntity
  8
Layer_1
 62
3
100
AcDbPolyline
 90
2
 70
0
 10
43.833259
 20
223.499148
 30
0.0
 10
43.873499
 20
223.581312
 30
0.0
  0
SPLINE
  5
11c
100
AcDbEntity
  8
Layer_1
 62
3
100
AcDbSpline
 70
8
 71
3
 72
8
 73
4
 74
0
 40
0
 40
0
 40
0
 40
0
 40
1
 40
1
 40
1
 40
1
 10
24.376342
 20
192.242550
 30
0.0
 10
24.199953
 20
192.242550
 30
0.0
 10
24.045613
 20
192.272883
 30
0.0
 10
23.913321
 20
192.333550
 30
0.0
  0
SPLINE
  5
11d
100
AcDbEntity
  8
Layer_1
 62
3
100
AcDbSpline
 70
8
 71
3
 72
8
 73
4
 74
0
 40
0
 40
0
 40
0
 40
0
 40
1
 40
1
 40
1
 40
1
 10
23.913321
 20
192.333550
 30
0.0
 10
23.781030
 20
192.399683
 30
0.0
 10
23.670787
 20
192.485123
 30
0.0
 10
23.582592
 20
192.589870
 30
0.0
  0
SPLINE
  5
11e
100
AcDbEntity
  8
Layer_1
 62
3
100
AcDbSpline
 70
8
 71
3
 72
8
 73
4
 74
0
 40
0
 40
0
 40
0
 40
0
 40
1
 40
1
 40
1
 40
1
 10
23.582592
 20
192.589870
 30
0.0
 10
23.494397
 20
192.694597
 30
0.0
 10
23.428252
 20
192.813107
 30
0.0
 10
23.384155
 20
192.945400
 30
0.0
  0
SPLINE
  5
11f
100
AcDbEntity
  8
Layer_1
 62
3
100
AcDbSpline
 70
8
 71
3
 72
8
 73
4
 74
0
 40
0
 40
0
 40
0
 40
0
 40
1
 40
1
 40
1
 40
1
 10
23.384155
 20
192.945400
 30
0.0
 10
23.340055
 20
193.083207
 30
0.0
 10
23.318005
 20
193.221010
 30
0.0
 10
23.318005
 20
193.358810
 30
0.0
  0
SPLINE
  5
120
100
AcDbEntity
  8
Layer_1
 62
3
100
AcDbSpline
 70
8
 71
3
 72
8
 73
4
 74
0
 40
0
 40
0
 40
0
 40
0
 40
1
 40
1
 40
1
 40
1
 10
23.318005
 20
193.358810
 30
0.0
 10
23.318005
 20
193.496617
 30
0.0
 10
23.340055
 20
193.631667
 30
0.0
 10
23.384155
 20
193.763960
 30
0.0
  0
SPLINE
  5
121
100
AcDbEntity
  8
Layer_1
 62
3
100
AcDbSpline
 70
8
 71
3
 72
8
 73
4
 74
0
 40
0
 40
0
 40
0
 40
0
 40
1
 40
1
 40
1
 40
1
 10
23.384155
 20
193.763960
 30
0.0
 10
23.428248
 20
193.896247
 30
0.0
 10
23.494394
 20
194.014757
 30
0.0
 10
23.582592
 20
194.119490
 30
0.0
  0
SPLINE
  5
122
100
AcDbEntity
  8
Layer_1
 62
3
100
AcDbSpline
 70
8
 71
3
 72
8
 73
4
 74
0
 40
0
 40
0
 40
0
 40
0
 40
1
 40
1
 40
1
 40
1
 10
23.582592
 20
194.119490
 30
0.0
 10
23.670787
 20
194.224223
 30
0.0
 10
23.781030
 20
194.306907
 30
0.0
 10
23.913321
 20
194.367540
 30
0.0
  0
SPLINE
  5
123
100
AcDbEntity
  8
Layer_1
 62
3
100
AcDbSpline
 70
8
 71
3
 72
8
 73
4
 74
0
 40
0
 40
0
 40
0
 40
0
 40
1
 40
1
 40
1
 40
1
 10
23.913321
 20
194.367540
 30
0.0
 10
24.045613
 20
194.433673
 30
0.0
 10
24.199953
 20
194.466740
 30
0.0
 10
24.376342
 20
194.466740
 30
0.0
  0
LWPOLYLINE
  5
124
100
AcDbEntity
  8
Layer_1
 62
3
100
AcDbPolyline
 90
3
 70
0
 10
43.793013
 20
223.416985
 30
0.0
 10
43.833253
 20
223.499148
 30
0.0
 10
43.833259
 20
223.499148
 30
0.0
  0
SPLINE
  5
125
100
AcDbEntity
  8
Layer_1
 62
3
100
AcDbSpline
 70
8
 71
3
 72
8
 73
4
 74
0
 40
0
 40
0
 40
0
 40
0
 40
1
 40
1
 40
1
 40
1
 10
31.544896
 20
194.466740
 30
0.0
 10
32.250452
 20
194.466740
 30
0.0
 10
32.851277
 20
194.359253
 30
0.0
 10
33.347370
 20
194.144280
 30
0.0
  0
SPLINE
  5
126
100
AcDbEntity
  8
Layer_1
 62
3
100
AcDbSpline
 70
8
 71
3
 72
8
 73
4
 74
0
 40
0
 40
0
 40
0
 40
0
 40
1
 40
1
 40
1
 40
1
 10
33.347370
 20
194.144280
 30
0.0
 10
33.843464
 20
193.934820
 30
0.0
 10
34.248607
 20
193.648190
 30
0.0
 10
34.562800
 20
193.284390
 30
0.0
  0
SPLINE
  5
127
100
AcDbEntity
  8
Layer_1
 62
3
100
AcDbSpline
 70
8
 71
3
 72
8
 73
4
 74
0
 40
0
 40
0
 40
0
 40
0
 40
1
 40
1
 40
1
 40
1
 10
34.562800
 20
193.284390
 30
0.0
 10
34.876993
 20
192.920583
 30
0.0
 10
35.105747
 20
192.498903
 30
0.0
 10
35.249063
 20
192.019350
 30
0.0
  0
SPLINE
  5
128
100
AcDbEntity
  8
Layer_1
 62
3
100
AcDbSpline
 70
8
 71
3
 72
8
 73
4
 74
0
 40
0
 40
0
 40
0
 40
0
 40
1
 40
1
 40
1
 40
1
 10
35.249063
 20
192.019350
 30
0.0
 10
35.392379
 20
191.539790
 30
0.0
 10
35.464037
 20
191.032670
 30
0.0
 10
35.464037
 20
190.497990
 30
0.0
  0
SPLINE
  5
129
100
AcDbEntity
  8
Layer_1
 62
3
100
AcDbSpline
 70
8
 71
3
 72
8
 73
4
 74
0
 40
0
 40
0
 40
0
 40
0
 40
1
 40
1
 40
1
 40
1
 10
35.464037
 20
190.497990
 30
0.0
 10
35.464037
 20
190.156237
 30
0.0
 10
35.422696
 20
189.822753
 30
0.0
 10
35.340013
 20
189.497540
 30
0.0
  0
SPLINE
  5
12a
100
AcDbEntity
  8
Layer_1
 62
3
100
AcDbSpline
 70
8
 71
3
 72
8
 73
4
 74
0
 40
0
 40
0
 40
0
 40
0
 40
1
 40
1
 40
1
 40
1
 10
35.340013
 20
189.497540
 30
0.0
 10
35.262843
 20
189.172320
 30
0.0
 10
35.147088
 20
188.863640
 30
0.0
 10
34.992748
 20
188.571500
 30
0.0
  0
SPLINE
  5
12b
100
AcDbEntity
  8
Layer_1
 62
3
100
AcDbSpline
 70
8
 71
3
 72
8
 73
4
 74
0
 40
0
 40
0
 40
0
 40
0
 40
1
 40
1
 40
1
 40
1
 10
34.992748
 20
188.571500
 30
0.0
 10
34.832895
 20
188.284867
 30
0.0
 10
34.634458
 20
188.023040
 30
0.0
 10
34.397435
 20
187.786020
 30
0.0
  0
SPLINE
  5
12c
100
AcDbEntity
  8
Layer_1
 62
3
100
AcDbSpline
 70
8
 71
3
 72
8
 73
4
 74
0
 40
0
 40
0
 40
0
 40
0
 40
1
 40
1
 40
1
 40
1
 10
34.397435
 20
187.786020
 30
0.0
 10
34.160412
 20
187.554507
 30
0.0
 10
33.884805
 20
187.361580
 30
0.0
 10
33.570612
 20
187.207240
 30
0.0
  0
SPLINE
  5
12d
100
AcDbEntity
  8
Layer_1
 62
3
100
AcDbSpline
 70
8
 71
3
 72
8
 73
4
 74
0
 40
0
 40
0
 40
0
 40
0
 40
1
 40
1
 40
1
 40
1
 10
33.570612
 20
187.207240
 30
0.0
 10
33.372175
 20
187.058413
 30
0.0
 10
33.176493
 20
186.984000
 30
0.0
 10
32.983568
 20
186.984000
 30
0.0
  0
SPLINE
  5
12e
100
AcDbEntity
  8
Layer_1
 62
3
100
AcDbSpline
 70
8
 71
3
 72
8
 73
4
 74
0
 40
0
 40
0
 40
0
 40
0
 40
1
 40
1
 40
1
 40
1
 10
32.983568
 20
186.984000
 30
0.0
 10
32.867813
 20
186.984000
 30
0.0
 10
32.763082
 20
187.008800
 30
0.0
 10
32.669375
 20
187.058400
 30
0.0
  0
SPLINE
  5
12f
100
AcDbEntity
  8
Layer_1
 62
3
100
AcDbSpline
 70
8
 71
3
 72
8
 73
4
 74
0
 40
0
 40
0
 40
0
 40
0
 40
1
 40
1
 40
1
 40
1
 10
32.669375
 20
187.058400
 30
0.0
 10
32.570156
 20
187.108000
 30
0.0
 10
32.484718
 20
187.171390
 30
0.0
 10
32.413060
 20
187.248570
 30
0.0
  0
SPLINE
  5
130
100
AcDbEntity
  8
Layer_1
 62
3
100
AcDbSpline
 70
8
 71
3
 72
8
 73
4
 74
0
 40
0
 40
0
 40
0
 40
0
 40
1
 40
1
 40
1
 40
1
 10
32.413060
 20
187.248570
 30
0.0
 10
32.341402
 20
187.331250
 30
0.0
 10
32.286281
 20
187.422200
 30
0.0
 10
32.247696
 20
187.521420
 30
0.0
  0
SPLINE
  5
131
100
AcDbEntity
  8
Layer_1
 62
3
100
AcDbSpline
 70
8
 71
3
 72
8
 73
4
 74
0
 40
0
 40
0
 40
0
 40
0
 40
1
 40
1
 40
1
 40
1
 10
32.247696
 20
187.521420
 30
0.0
 10
32.209109
 20
187.620640
 30
0.0
 10
32.189816
 20
187.722617
 30
0.0
 10
32.189816
 20
187.827350
 30
0.0
  0
SPLINE
  5
132
100
AcDbEntity
  8
Layer_1
 62
3
100
AcDbSpline
 70
8
 71
3
 72
8
 73
4
 74
0
 40
0
 40
0
 40
0
 40
0
 40
1
 40
1
 40
1
 40
1
 10
32.189816
 20
187.827350
 30
0.0
 10
32.189816
 20
187.921057
 30
0.0
 10
32.209109
 20
188.012007
 30
0.0
 10
32.247696
 20
188.100200
 30
0.0
  0
SPLINE
  5
133
100
AcDbEntity
  8
Layer_1
 62
3
100
AcDbSpline
 70
8
 71
3
 72
8
 73
4
 74
0
 40
0
 40
0
 40
0
 40
0
 40
1
 40
1
 40
1
 40
1
 10
32.247696
 20
188.100200
 30
0.0
 10
32.286283
 20
188.193907
 30
0.0
 10
32.349672
 20
188.276590
 30
0.0
 10
32.437865
 20
188.348250
 30
0.0
  0
SPLINE
  5
134
100
AcDbEntity
  8
Layer_1
 62
3
100
AcDbSpline
 70
8
 71
3
 72
8
 73
4
 74
0
 40
0
 40
0
 40
0
 40
0
 40
1
 40
1
 40
1
 40
1
 10
32.437865
 20
188.348250
 30
0.0
 10
32.862301
 20
188.552197
 30
0.0
 10
33.204054
 20
188.819533
 30
0.0
 10
33.463125
 20
189.150260
 30
0.0
  0
SPLINE
  5
135
100
AcDbEntity
  8
Layer_1
 62
3
100
AcDbSpline
 70
8
 71
3
 72
8
 73
4
 74
0
 40
0
 40
0
 40
0
 40
0
 40
1
 40
1
 40
1
 40
1
 10
33.463125
 20
189.150260
 30
0.0
 10
33.716684
 20
189.480993
 30
0.0
 10
33.843464
 20
189.886137
 30
0.0
 10
33.843464
 20
190.365690
 30
0.0
  0
SPLINE
  5
136
100
AcDbEntity
  8
Layer_1
 62
3
100
AcDbSpline
 70
8
 71
3
 72
8
 73
4
 74
0
 40
0
 40
0
 40
0
 40
0
 40
1
 40
1
 40
1
 40
1
 10
33.843464
 20
190.365690
 30
0.0
 10
33.843464
 20
190.977543
 30
0.0
 10
33.647783
 20
191.443320
 30
0.0
 10
33.256420
 20
191.763020
 30
0.0
  0
SPLINE
  5
137
100
AcDbEntity
  8
Layer_1
 62
3
100
AcDbSpline
 70
8
 71
3
 72
8
 73
4
 74
0
 40
0
 40
0
 40
0
 40
0
 40
1
 40
1
 40
1
 40
1
 10
33.256420
 20
191.763020
 30
0.0
 10
32.859545
 20
192.082727
 30
0.0
 10
32.239427
 20
192.242580
 30
0.0
 10
31.396068
 20
192.242580
 30
0.0
  0
LWPOLYLINE
  5
138
100
AcDbEntity
  8
Layer_1
 62
3
100
AcDbPolyline
 90
2
 70
0
 10
24.376342
 20
194.466740
 30
0.0
 10
31.544896
 20
194.466740
 30
0.0
  0
SPLINE
  5
139
100
AcDbEntity
  8
Layer_1
 62
3
100
AcDbSpline
 70
8
 71
3
 72
8
 73
4
 74
0
 40
0
 40
0
 40
0
 40
0
 40
1
 40
1
 40
1
 40
1
 10
34.281680
 20
204.278612
 30
0.0
 10
34.436020
 20
204.278612
 30
0.0
 10
34.571068
 20
204.251052
 30
0.0
 10
34.686823
 20
204.195932
 30
0.0
  0
SPLINE
  5
13a
100
AcDbEntity
  8
Layer_1
 62
3
100
AcDbSpline
 70
8
 71
3
 72
8
 73
4
 74
0
 40
0
 40
0
 40
0
 40
0
 40
1
 40
1
 40
1
 40
1
 10
34.686823
 20
204.195932
 30
0.0
 10
34.802578
 20
204.140812
 30
0.0
 10
34.899041
 20
204.066398
 30
0.0
 10
34.976211
 20
203.972690
 30
0.0
  0
SPLINE
  5
13b
100
AcDbEntity
  8
Layer_1
 62
3
100
AcDbSpline
 70
8
 71
3
 72
8
 73
4
 74
0
 40
0
 40
0
 40
0
 40
0
 40
1
 40
1
 40
1
 40
1
 10
34.976211
 20
203.972690
 30
0.0
 10
35.053382
 20
203.884495
 30
0.0
 10
35.111259
 20
203.779764
 30
0.0
 10
35.149844
 20
203.658497
 30
0.0
  0
SPLINE
  5
13c
100
AcDbEntity
  8
Layer_1
 62
3
100
AcDbSpline
 70
8
 71
3
 72
8
 73
4
 74
0
 40
0
 40
0
 40
0
 40
0
 40
1
 40
1
 40
1
 40
1
 10
35.149844
 20
203.658497
 30
0.0
 10
35.188431
 20
203.542742
 30
0.0
 10
35.207724
 20
203.424230
 30
0.0
 10
35.207724
 20
203.302963
 30
0.0
  0
SPLINE
  5
13d
100
AcDbEntity
  8
Layer_1
 62
3
100
AcDbSpline
 70
8
 71
3
 72
8
 73
4
 74
0
 40
0
 40
0
 40
0
 40
0
 40
1
 40
1
 40
1
 40
1
 10
35.207724
 20
203.302963
 30
0.0
 10
35.207724
 20
203.187208
 30
0.0
 10
35.191187
 20
203.071452
 30
0.0
 10
35.158114
 20
202.955697
 30
0.0
  0
SPLINE
  5
13e
100
AcDbEntity
  8
Layer_1
 62
3
100
AcDbSpline
 70
8
 71
3
 72
8
 73
4
 74
0
 40
0
 40
0
 40
0
 40
0
 40
1
 40
1
 40
1
 40
1
 10
35.158114
 20
202.955697
 30
0.0
 10
35.119527
 20
202.845454
 30
0.0
 10
35.064406
 20
202.743480
 30
0.0
 10
34.992750
 20
202.649773
 30
0.0
  0
SPLINE
  5
13f
100
AcDbEntity
  8
Layer_1
 62
3
100
AcDbSpline
 70
8
 71
3
 72
8
 73
4
 74
0
 40
0
 40
0
 40
0
 40
0
 40
1
 40
1
 40
1
 40
1
 10
34.992750
 20
202.649773
 30
0.0
 10
34.915580
 20
202.561578
 30
0.0
 10
34.824629
 20
202.489920
 30
0.0
 10
34.719898
 20
202.434799
 30
0.0
  0
SPLINE
  5
140
100
AcDbEntity
  8
Layer_1
 62
3
100
AcDbSpline
 70
8
 71
3
 72
8
 73
4
 74
0
 40
0
 40
0
 40
0
 40
0
 40
1
 40
1
 40
1
 40
1
 10
34.719898
 20
202.434799
 30
0.0
 10
34.609655
 20
202.379679
 30
0.0
 10
34.480120
 20
202.349362
 30
0.0
 10
34.331291
 20
202.343849
 30
0.0
  0
LWPOLYLINE
  5
141
100
AcDbEntity
  8
Layer_1
 62
3
100
AcDbPolyline
 90
2
 70
0
 10
31.396068
 20
192.242580
 30
0.0
 10
24.376342
 20
192.242550
 30
0.0
  0
SPLINE
  5
142
100
AcDbEntity
  8
Layer_1
 62
3
100
AcDbSpline
 70
8
 71
3
 72
8
 73
4
 74
0
 40
0
 40
0
 40
0
 40
0
 40
1
 40
1
 40
1
 40
1
 10
33.711174
 20
202.343849
 30
0.0
 10
33.915124
 20
202.233606
 30
0.0
 10
34.121830
 20
202.082022
 30
0.0
 10
34.331291
 20
201.889097
 30
0.0
  0
SPLINE
  5
143
100
AcDbEntity
  8
Layer_1
 62
3
100
AcDbSpline
 70
8
 71
3
 72
8
 73
4
 74
0
 40
0
 40
0
 40
0
 40
0
 40
1
 40
1
 40
1
 40
1
 10
34.331291
 20
201.889097
 30
0.0
 10
34.540753
 20
201.696172
 30
0.0
 10
34.719898
 20
201.475686
 30
0.0
 10
34.868726
 20
201.227639
 30
0.0
  0
SPLINE
  5
144
100
AcDbEntity
  8
Layer_1
 62
3
100
AcDbSpline
 70
8
 71
3
 72
8
 73
4
 74
0
 40
0
 40
0
 40
0
 40
0
 40
1
 40
1
 40
1
 40
1
 10
34.868726
 20
201.227639
 30
0.0
 10
35.012042
 20
200.979592
 30
0.0
 10
35.122285
 20
200.712252
 30
0.0
 10
35.199455
 20
200.425620
 30
0.0
  0
SPLINE
  5
145
100
AcDbEntity
  8
Layer_1
 62
3
100
AcDbSpline
 70
8
 71
3
 72
8
 73
4
 74
0
 40
0
 40
0
 40
0
 40
0
 40
1
 40
1
 40
1
 40
1
 10
35.199455
 20
200.425620
 30
0.0
 10
35.271113
 20
200.144501
 30
0.0
 10
35.306942
 20
199.860625
 30
0.0
 10
35.306942
 20
199.573993
 30
0.0
  0
SPLINE
  5
146
100
AcDbEntity
  8
Layer_1
 62
3
100
AcDbSpline
 70
8
 71
3
 72
8
 73
4
 74
0
 40
0
 40
0
 40
0
 40
0
 40
1
 40
1
 40
1
 40
1
 10
35.306942
 20
199.573993
 30
0.0
 10
35.306942
 20
199.188142
 30
0.0
 10
35.246308
 20
198.818828
 30
0.0
 10
35.125041
 20
198.466050
 30
0.0
  0
SPLINE
  5
147
100
AcDbEntity
  8
Layer_1
 62
3
100
AcDbSpline
 70
8
 71
3
 72
8
 73
4
 74
0
 40
0
 40
0
 40
0
 40
0
 40
1
 40
1
 40
1
 40
1
 10
35.125041
 20
198.466050
 30
0.0
 10
34.998262
 20
198.113273
 30
0.0
 10
34.805336
 20
197.801836
 30
0.0
 10
34.546265
 20
197.531740
 30
0.0
  0
SPLINE
  5
148
100
AcDbEntity
  8
Layer_1
 62
3
100
AcDbSpline
 70
8
 71
3
 72
8
 73
4
 74
0
 40
0
 40
0
 40
0
 40
0
 40
1
 40
1
 40
1
 40
1
 10
34.546265
 20
197.531740
 30
0.0
 10
34.287194
 20
197.267157
 30
0.0
 10
33.959221
 20
197.054938
 30
0.0
 10
33.562346
 20
196.895083
 30
0.0
  0
SPLINE
  5
149
100
AcDbEntity
  8
Layer_1
 62
3
100
AcDbSpline
 70
8
 71
3
 72
8
 73
4
 74
0
 40
0
 40
0
 40
0
 40
0
 40
1
 40
1
 40
1
 40
1
 10
33.562346
 20
196.895083
 30
0.0
 10
33.165471
 20
196.740743
 30
0.0
 10
32.705207
 20
196.663573
 30
0.0
 10
32.181552
 20
196.663573
 30
0.0
  0
LWPOLYLINE
  5
14a
100
AcDbEntity
  8
Layer_1
 62
3
100
AcDbPolyline
 90
2
 70
0
 10
34.331291
 20
202.343849
 30
0.0
 10
33.711174
 20
202.343849
 30
0.0
  0
SPLINE
  5
14b
100
AcDbEntity
  8
Layer_1
 62
3
100
AcDbSpline
 70
8
 71
3
 72
8
 73
4
 74
0
 40
0
 40
0
 40
0
 40
0
 40
1
 40
1
 40
1
 40
1
 10
27.865537
 20
196.663573
 30
0.0
 10
27.711196
 20
196.663573
 30
0.0
 10
27.576148
 20
196.691140
 30
0.0
 10
27.460393
 20
196.746273
 30
0.0
  0
SPLINE
  5
14c
100
AcDbEntity
  8
Layer_1
 62
3
100
AcDbSpline
 70
8
 71
3
 72
8
 73
4
 74
0
 40
0
 40
0
 40
0
 40
0
 40
1
 40
1
 40
1
 40
1
 10
27.460393
 20
196.746273
 30
0.0
 10
27.344638
 20
196.801406
 30
0.0
 10
27.248176
 20
196.873063
 30
0.0
 10
27.171005
 20
196.961243
 30
0.0
  0
SPLINE
  5
14d
100
AcDbEntity
  8
Layer_1
 62
3
100
AcDbSpline
 70
8
 71
3
 72
8
 73
4
 74
0
 40
0
 40
0
 40
0
 40
0
 40
1
 40
1
 40
1
 40
1
 10
27.171005
 20
196.961243
 30
0.0
 10
27.088323
 20
197.054949
 30
0.0
 10
27.027689
 20
197.159680
 30
0.0
 10
26.989104
 20
197.275435
 30
0.0
  0
SPLINE
  5
14e
100
AcDbEntity
  8
Layer_1
 62
3
100
AcDbSpline
 70
8
 71
3
 72
8
 73
4
 74
0
 40
0
 40
0
 40
0
 40
0
 40
1
 40
1
 40
1
 40
1
 10
26.989104
 20
197.275435
 30
0.0
 10
26.950517
 20
197.391190
 30
0.0
 10
26.931224
 20
197.509702
 30
0.0
 10
26.931224
 20
197.630969
 30
0.0
  0
SPLINE
  5
14f
100
AcDbEntity
  8
Layer_1
 62
3
100
AcDbSpline
 70
8
 71
3
 72
8
 73
4
 74
0
 40
0
 40
0
 40
0
 40
0
 40
1
 40
1
 40
1
 40
1
 10
26.931224
 20
197.630969
 30
0.0
 10
26.931224
 20
197.752236
 30
0.0
 10
26.950517
 20
197.870748
 30
0.0
 10
26.989104
 20
197.986503
 30
0.0
  0
SPLINE
  5
150
100
AcDbEntity
  8
Layer_1
 62
3
100
AcDbSpline
 70
8
 71
3
 72
8
 73
4
 74
0
 40
0
 40
0
 40
0
 40
0
 40
1
 40
1
 40
1
 40
1
 10
26.989104
 20
197.986503
 30
0.0
 10
27.027691
 20
198.107770
 30
0.0
 10
27.088324
 20
198.212501
 30
0.0
 10
27.171005
 20
198.300696
 30
0.0
  0
SPLINE
  5
151
100
AcDbEntity
  8
Layer_1
 62
3
100
AcDbSpline
 70
8
 71
3
 72
8
 73
4
 74
0
 40
0
 40
0
 40
0
 40
0
 40
1
 40
1
 40
1
 40
1
 10
27.171005
 20
198.300696
 30
0.0
 10
27.248176
 20
198.394403
 30
0.0
 10
27.344638
 20
198.468817
 30
0.0
 10
27.460393
 20
198.523938
 30
0.0
  0
SPLINE
  5
152
100
AcDbEntity
  8
Layer_1
 62
3
100
AcDbSpline
 70
8
 71
3
 72
8
 73
4
 74
0
 40
0
 40
0
 40
0
 40
0
 40
1
 40
1
 40
1
 40
1
 10
27.460393
 20
198.523938
 30
0.0
 10
27.576148
 20
198.579058
 30
0.0
 10
27.711196
 20
198.606618
 30
0.0
 10
27.865537
 20
198.606618
 30
0.0
  0
LWPOLYLINE
  5
153
100
AcDbEntity
  8
Layer_1
 62
3
100
AcDbPolyline
 90
2
 70
0
 10
32.181552
 20
196.663573
 30
0.0
 10
27.865537
 20
196.663573
 30
0.0
  0
SPLINE
  5
154
100
AcDbEntity
  8
Layer_1
 62
3
100
AcDbSpline
 70
8
 71
3
 72
8
 73
4
 74
0
 40
0
 40
0
 40
0
 40
0
 40
1
 40
1
 40
1
 40
1
 10
32.214625
 20
198.606618
 30
0.0
 10
32.506769
 20
198.606618
 30
0.0
 10
32.768596
 20
198.650715
 30
0.0
 10
33.000107
 20
198.738910
 30
0.0
  0
SPLINE
  5
155
100
AcDbEntity
  8
Layer_1
 62
3
100
AcDbSpline
 70
8
 71
3
 72
8
 73
4
 74
0
 40
0
 40
0
 40
0
 40
0
 40
1
 40
1
 40
1
 40
1
 10
33.000107
 20
198.738910
 30
0.0
 10
33.231617
 20
198.827104
 30
0.0
 10
33.424542
 20
198.945615
 30
0.0
 10
33.578883
 20
199.094444
 30
0.0
  0
SPLINE
  5
156
100
AcDbEntity
  8
Layer_1
 62
3
100
AcDbSpline
 70
8
 71
3
 72
8
 73
4
 74
0
 40
0
 40
0
 40
0
 40
0
 40
1
 40
1
 40
1
 40
1
 10
33.578883
 20
199.094444
 30
0.0
 10
33.733223
 20
199.243272
 30
0.0
 10
33.848978
 20
199.416905
 30
0.0
 10
33.926148
 20
199.615342
 30
0.0
  0
SPLINE
  5
157
100
AcDbEntity
  8
Layer_1
 62
3
100
AcDbSpline
 70
8
 71
3
 72
8
 73
4
 74
0
 40
0
 40
0
 40
0
 40
0
 40
1
 40
1
 40
1
 40
1
 10
33.926148
 20
199.615342
 30
0.0
 10
33.997806
 20
199.813779
 30
0.0
 10
34.033635
 20
200.020485
 30
0.0
 10
34.033635
 20
200.235459
 30
0.0
  0
SPLINE
  5
158
100
AcDbEntity
  8
Layer_1
 62
3
100
AcDbSpline
 70
8
 71
3
 72
8
 73
4
 74
0
 40
0
 40
0
 40
0
 40
0
 40
1
 40
1
 40
1
 40
1
 10
34.033635
 20
200.235459
 30
0.0
 10
34.033635
 20
200.511067
 30
0.0
 10
33.992294
 20
200.772894
 30
0.0
 10
33.909612
 20
201.020941
 30
0.0
  0
SPLINE
  5
159
100
AcDbEntity
  8
Layer_1
 62
3
100
AcDbSpline
 70
8
 71
3
 72
8
 73
4
 74
0
 40
0
 40
0
 40
0
 40
0
 40
1
 40
1
 40
1
 40
1
 10
33.909612
 20
201.020941
 30
0.0
 10
33.821417
 20
201.268988
 30
0.0
 10
33.691882
 20
201.486718
 30
0.0
 10
33.521005
 20
201.674131
 30
0.0
  0
SPLINE
  5
15a
100
AcDbEntity
  8
Layer_1
 62
3
100
AcDbSpline
 70
8
 71
3
 72
8
 73
4
 74
0
 40
0
 40
0
 40
0
 40
0
 40
1
 40
1
 40
1
 40
1
 10
33.521005
 20
201.674131
 30
0.0
 10
33.344616
 20
201.861544
 30
0.0
 10
33.143423
 20
202.013129
 30
0.0
 10
32.917424
 20
202.128884
 30
0.0
  0
SPLINE
  5
15b
100
AcDbEntity
  8
Layer_1
 62
3
100
AcDbSpline
 70
8
 71
3
 72
8
 73
4
 74
0
 40
0
 40
0
 40
0
 40
0
 40
1
 40
1
 40
1
 40
1
 10
32.917424
 20
202.128884
 30
0.0
 10
32.685914
 20
202.250151
 30
0.0
 10
32.393770
 20
202.321809
 30
0.0
 10
32.040992
 20
202.343857
 30
0.0
  0
LWPOLYLINE
  5
15c
100
AcDbEntity
  8
Layer_1
 62
3
100
AcDbPolyline
 90
2
 70
0
 10
27.865537
 20
198.606618
 30
0.0
 10
32.214625
 20
198.606618
 30
0.0
  0
SPLINE
  5
15d
100
AcDbEntity
  8
Layer_1
 62
3
100
AcDbSpline
 70
8
 71
3
 72
8
 73
4
 74
0
 40
0
 40
0
 40
0
 40
0
 40
1
 40
1
 40
1
 40
1
 10
27.857268
 20
202.343857
 30
0.0
 10
27.702928
 20
202.343857
 30
0.0
 10
27.567880
 20
202.371417
 30
0.0
 10
27.452125
 20
202.426537
 30
0.0
  0
SPLINE
  5
15e
100
AcDbEntity
  8
Layer_1
 62
3
100
AcDbSpline
 70
8
 71
3
 72
8
 73
4
 74
0
 40
0
 40
0
 40
0
 40
0
 40
1
 40
1
 40
1
 40
1
 10
27.452125
 20
202.426537
 30
0.0
 10
27.336370
 20
202.481657
 30
0.0
 10
27.239907
 20
202.553315
 30
0.0
 10
27.162737
 20
202.641511
 30
0.0
  0
SPLINE
  5
15f
100
AcDbEntity
  8
Layer_1
 62
3
100
AcDbSpline
 70
8
 71
3
 72
8
 73
4
 74
0
 40
0
 40
0
 40
0
 40
0
 40
1
 40
1
 40
1
 40
1
 10
27.162737
 20
202.641511
 30
0.0
 10
27.085567
 20
202.735218
 30
0.0
 10
27.027689
 20
202.839948
 30
0.0
 10
26.989104
 20
202.955703
 30
0.0
  0
SPLINE
  5
160
100
AcDbEntity
  8
Layer_1
 62
3
100
AcDbSpline
 70
8
 71
3
 72
8
 73
4
 74
0
 40
0
 40
0
 40
0
 40
0
 40
1
 40
1
 40
1
 40
1
 10
26.989104
 20
202.955703
 30
0.0
 10
26.950517
 20
203.071458
 30
0.0
 10
26.931224
 20
203.189970
 30
0.0
 10
26.931224
 20
203.311237
 30
0.0
  0
SPLINE
  5
161
100
AcDbEntity
  8
Layer_1
 62
3
100
AcDbSpline
 70
8
 71
3
 72
8
 73
4
 74
0
 40
0
 40
0
 40
0
 40
0
 40
1
 40
1
 40
1
 40
1
 10
26.931224
 20
203.311237
 30
0.0
 10
26.931224
 20
203.432504
 30
0.0
 10
26.950517
 20
203.551016
 30
0.0
 10
26.989104
 20
203.666771
 30
0.0
  0
SPLINE
  5
162
100
AcDbEntity
  8
Layer_1
 62
3
100
AcDbSpline
 70
8
 71
3
 72
8
 73
4
 74
0
 40
0
 40
0
 40
0
 40
0
 40
1
 40
1
 40
1
 40
1
 10
26.989104
 20
203.666771
 30
0.0
 10
27.027691
 20
203.782526
 30
0.0
 10
27.085568
 20
203.884501
 30
0.0
 10
27.162737
 20
203.972696
 30
0.0
  0
SPLINE
  5
163
100
AcDbEntity
  8
Layer_1
 62
3
100
AcDbSpline
 70
8
 71
3
 72
8
 73
4
 74
0
 40
0
 40
0
 40
0
 40
0
 40
1
 40
1
 40
1
 40
1
 10
27.162737
 20
203.972696
 30
0.0
 10
27.239907
 20
204.066402
 30
0.0
 10
27.336370
 20
204.140816
 30
0.0
 10
27.452125
 20
204.195938
 30
0.0
  0
SPLINE
  5
164
100
AcDbEntity
  8
Layer_1
 62
3
100
AcDbSpline
 70
8
 71
3
 72
8
 73
4
 74
0
 40
0
 40
0
 40
0
 40
0
 40
1
 40
1
 40
1
 40
1
 10
27.452125
 20
204.195938
 30
0.0
 10
27.567880
 20
204.251058
 30
0.0
 10
27.702928
 20
204.278618
 30
0.0
 10
27.857268
 20
204.278618
 30
0.0
  0
LWPOLYLINE
  5
165
100
AcDbEntity
  8
Layer_1
 62
3
100
AcDbPolyline
 90
2
 70
0
 10
32.040992
 20
202.343857
 30
0.0
 10
27.857268
 20
202.343857
 30
0.0
  0
SPLINE
  5
166
100
AcDbEntity
  8
Layer_1
 62
3
100
AcDbSpline
 70
8
 71
3
 72
8
 73
4
 74
0
 40
0
 40
0
 40
0
 40
0
 40
1
 40
1
 40
1
 40
1
 10
29.973933
 20
217.877367
 30
0.0
 10
29.659740
 20
217.877367
 30
0.0
 10
29.386889
 20
217.833270
 30
0.0
 10
29.155378
 20
217.745075
 30
0.0
  0
SPLINE
  5
167
100
AcDbEntity
  8
Layer_1
 62
3
100
AcDbSpline
 70
8
 71
3
 72
8
 73
4
 74
0
 40
0
 40
0
 40
0
 40
0
 40
1
 40
1
 40
1
 40
1
 10
29.155378
 20
217.745075
 30
0.0
 10
28.923868
 20
217.656881
 30
0.0
 10
28.730943
 20
217.538370
 30
0.0
 10
28.576602
 20
217.389542
 30
0.0
  0
SPLINE
  5
168
100
AcDbEntity
  8
Layer_1
 62
3
100
AcDbSpline
 70
8
 71
3
 72
8
 73
4
 74
0
 40
0
 40
0
 40
0
 40
0
 40
1
 40
1
 40
1
 40
1
 10
28.576602
 20
217.389542
 30
0.0
 10
28.422262
 20
217.240713
 30
0.0
 10
28.309263
 20
217.067080
 30
0.0
 10
28.237605
 20
216.868643
 30
0.0
  0
SPLINE
  5
169
100
AcDbEntity
  8
Layer_1
 62
3
100
AcDbSpline
 70
8
 71
3
 72
8
 73
4
 74
0
 40
0
 40
0
 40
0
 40
0
 40
1
 40
1
 40
1
 40
1
 10
28.237605
 20
216.868643
 30
0.0
 10
28.160435
 20
216.675718
 30
0.0
 10
28.121850
 20
216.474524
 30
0.0
 10
28.121850
 20
216.265062
 30
0.0
  0
SPLINE
  5
16a
100
AcDbEntity
  8
Layer_1
 62
3
100
AcDbSpline
 70
8
 71
3
 72
8
 73
4
 74
0
 40
0
 40
0
 40
0
 40
0
 40
1
 40
1
 40
1
 40
1
 10
28.121850
 20
216.265062
 30
0.0
 10
28.121850
 20
216.000479
 30
0.0
 10
28.163191
 20
215.741408
 30
0.0
 10
28.245873
 20
215.487849
 30
0.0
  0
SPLINE
  5
16b
100
AcDbEntity
  8
Layer_1
 62
3
100
AcDbSpline
 70
8
 71
3
 72
8
 73
4
 74
0
 40
0
 40
0
 40
0
 40
0
 40
1
 40
1
 40
1
 40
1
 10
28.245873
 20
215.487849
 30
0.0
 10
28.328556
 20
215.239802
 30
0.0
 10
28.460847
 20
215.016560
 30
0.0
 10
28.642748
 20
214.818122
 30
0.0
  0
SPLINE
  5
16c
100
AcDbEntity
  8
Layer_1
 62
3
100
AcDbSpline
 70
8
 71
3
 72
8
 73
4
 74
0
 40
0
 40
0
 40
0
 40
0
 40
1
 40
1
 40
1
 40
1
 10
28.642748
 20
214.818122
 30
0.0
 10
28.824649
 20
214.619685
 30
0.0
 10
29.058916
 20
214.459832
 30
0.0
 10
29.345548
 20
214.338565
 30
0.0
  0
SPLINE
  5
16d
100
AcDbEntity
  8
Layer_1
 62
3
100
AcDbSpline
 70
8
 71
3
 72
8
 73
4
 74
0
 40
0
 40
0
 40
0
 40
0
 40
1
 40
1
 40
1
 40
1
 10
29.345548
 20
214.338565
 30
0.0
 10
29.632179
 20
214.222810
 30
0.0
 10
29.982201
 20
214.164932
 30
0.0
 10
30.395613
 20
214.164932
 30
0.0
  0
LWPOLYLINE
  5
16e
100
AcDbEntity
  8
Layer_1
 62
3
100
AcDbPolyline
 90
2
 70
0
 10
27.857268
 20
204.278618
 30
0.0
 10
34.281680
 20
204.278612
 30
0.0
  0
SPLINE
  5
16f
100
AcDbEntity
  8
Layer_1
 62
3
100
AcDbSpline
 70
8
 71
3
 72
8
 73
4
 74
0
 40
0
 40
0
 40
0
 40
0
 40
1
 40
1
 40
1
 40
1
 10
34.273412
 20
214.164932
 30
0.0
 10
34.427752
 20
214.164932
 30
0.0
 10
34.562800
 20
214.137372
 30
0.0
 10
34.678555
 20
214.082252
 30
0.0
  0
SPLINE
  5
170
100
AcDbEntity
  8
Layer_1
 62
3
100
AcDbSpline
 70
8
 71
3
 72
8
 73
4
 74
0
 40
0
 40
0
 40
0
 40
0
 40
1
 40
1
 40
1
 40
1
 10
34.678555
 20
214.082252
 30
0.0
 10
34.794310
 20
214.027132
 30
0.0
 10
34.893529
 20
213.952718
 30
0.0
 10
34.976211
 20
213.859010
 30
0.0
  0
SPLINE
  5
171
100
AcDbEntity
  8
Layer_1
 62
3
100
AcDbSpline
 70
8
 71
3
 72
8
 73
4
 74
0
 40
0
 40
0
 40
0
 40
0
 40
1
 40
1
 40
1
 40
1
 10
34.976211
 20
213.859010
 30
0.0
 10
35.053382
 20
213.770815
 30
0.0
 10
35.111259
 20
213.666084
 30
0.0
 10
35.149844
 20
213.544817
 30
0.0
  0
SPLINE
  5
172
100
AcDbEntity
  8
Layer_1
 62
3
100
AcDbSpline
 70
8
 71
3
 72
8
 73
4
 74
0
 40
0
 40
0
 40
0
 40
0
 40
1
 40
1
 40
1
 40
1
 10
35.149844
 20
213.544817
 30
0.0
 10
35.188431
 20
213.429062
 30
0.0
 10
35.207724
 20
213.310550
 30
0.0
 10
35.207724
 20
213.189283
 30
0.0
  0
SPLINE
  5
173
100
AcDbEntity
  8
Layer_1
 62
3
100
AcDbSpline
 70
8
 71
3
 72
8
 73
4
 74
0
 40
0
 40
0
 40
0
 40
0
 40
1
 40
1
 40
1
 40
1
 10
35.207724
 20
213.189283
 30
0.0
 10
35.207724
 20
213.068016
 30
0.0
 10
35.188431
 20
212.949505
 30
0.0
 10
35.149844
 20
212.833750
 30
0.0
  0
SPLINE
  5
174
100
AcDbEntity
  8
Layer_1
 62
3
100
AcDbSpline
 70
8
 71
3
 72
8
 73
4
 74
0
 40
0
 40
0
 40
0
 40
0
 40
1
 40
1
 40
1
 40
1
 10
35.149844
 20
212.833750
 30
0.0
 10
35.111257
 20
212.723507
 30
0.0
 10
35.053380
 20
212.621532
 30
0.0
 10
34.976211
 20
212.527825
 30
0.0
  0
SPLINE
  5
175
100
AcDbEntity
  8
Layer_1
 62
3
100
AcDbSpline
 70
8
 71
3
 72
8
 73
4
 74
0
 40
0
 40
0
 40
0
 40
0
 40
1
 40
1
 40
1
 40
1
 10
34.976211
 20
212.527825
 30
0.0
 10
34.893529
 20
212.439630
 30
0.0
 10
34.794310
 20
212.367972
 30
0.0
 10
34.678555
 20
212.312851
 30
0.0
  0
SPLINE
  5
176
100
AcDbEntity
  8
Layer_1
 62
3
100
AcDbSpline
 70
8
 71
3
 72
8
 73
4
 74
0
 40
0
 40
0
 40
0
 40
0
 40
1
 40
1
 40
1
 40
1
 10
34.678555
 20
212.312851
 30
0.0
 10
34.562800
 20
212.257731
 30
0.0
 10
34.427752
 20
212.230171
 30
0.0
 10
34.273412
 20
212.230171
 30
0.0
  0
LWPOLYLINE
  5
177
100
AcDbEntity
  8
Layer_1
 62
3
100
AcDbPolyline
 90
2
 70
0
 10
30.395613
 20
214.164932
 30
0.0
 10
34.273412
 20
214.164932
 30
0.0
  0
SPLINE
  5
178
100
AcDbEntity
  8
Layer_1
 62
3
100
AcDbSpline
 70
8
 71
3
 72
8
 73
4
 74
0
 40
0
 40
0
 40
0
 40
0
 40
1
 40
1
 40
1
 40
1
 10
29.973933
 20
212.230171
 30
0.0
 10
29.659740
 20
212.230171
 30
0.0
 10
29.386889
 20
212.183318
 30
0.0
 10
29.155378
 20
212.089611
 30
0.0
  0
SPLINE
  5
179
100
AcDbEntity
  8
Layer_1
 62
3
100
AcDbSpline
 70
8
 71
3
 72
8
 73
4
 74
0
 40
0
 40
0
 40
0
 40
0
 40
1
 40
1
 40
1
 40
1
 10
29.155378
 20
212.089611
 30
0.0
 10
28.923868
 20
212.001416
 30
0.0
 10
28.730943
 20
211.882905
 30
0.0
 10
28.576602
 20
211.734077
 30
0.0
  0
SPLINE
  5
17a
100
AcDbEntity
  8
Layer_1
 62
3
100
AcDbSpline
 70
8
 71
3
 72
8
 73
4
 74
0
 40
0
 40
0
 40
0
 40
0
 40
1
 40
1
 40
1
 40
1
 10
28.576602
 20
211.734077
 30
0.0
 10
28.422262
 20
211.585249
 30
0.0
 10
28.309263
 20
211.411616
 30
0.0
 10
28.237605
 20
211.213179
 30
0.0
  0
SPLINE
  5
17b
100
AcDbEntity
  8
Layer_1
 62
3
100
AcDbSpline
 70
8
 71
3
 72
8
 73
4
 74
0
 40
0
 40
0
 40
0
 40
0
 40
1
 40
1
 40
1
 40
1
 10
28.237605
 20
211.213179
 30
0.0
 10
28.160435
 20
211.020254
 30
0.0
 10
28.121850
 20
210.819060
 30
0.0
 10
28.121850
 20
210.609598
 30
0.0
  0
SPLINE
  5
17c
100
AcDbEntity
  8
Layer_1
 62
3
100
AcDbSpline
 70
8
 71
3
 72
8
 73
4
 74
0
 40
0
 40
0
 40
0
 40
0
 40
1
 40
1
 40
1
 40
1
 10
28.121850
 20
210.609598
 30
0.0
 10
28.121850
 20
210.322966
 30
0.0
 10
28.168703
 20
210.052871
 30
0.0
 10
28.262410
 20
209.799312
 30
0.0
  0
SPLINE
  5
17d
100
AcDbEntity
  8
Layer_1
 62
3
100
AcDbSpline
 70
8
 71
3
 72
8
 73
4
 74
0
 40
0
 40
0
 40
0
 40
0
 40
1
 40
1
 40
1
 40
1
 10
28.262410
 20
209.799312
 30
0.0
 10
28.356116
 20
209.545753
 30
0.0
 10
28.499432
 20
209.325266
 30
0.0
 10
28.692357
 20
209.137853
 30
0.0
  0
SPLINE
  5
17e
100
AcDbEntity
  8
Layer_1
 62
3
100
AcDbSpline
 70
8
 71
3
 72
8
 73
4
 74
0
 40
0
 40
0
 40
0
 40
0
 40
1
 40
1
 40
1
 40
1
 10
28.692357
 20
209.137853
 30
0.0
 10
28.879770
 20
208.950440
 30
0.0
 10
29.097501
 20
208.801612
 30
0.0
 10
29.345548
 20
208.691369
 30
0.0
  0
SPLINE
  5
17f
100
AcDbEntity
  8
Layer_1
 62
3
100
AcDbSpline
 70
8
 71
3
 72
8
 73
4
 74
0
 40
0
 40
0
 40
0
 40
0
 40
1
 40
1
 40
1
 40
1
 10
29.345548
 20
208.691369
 30
0.0
 10
29.593595
 20
208.581126
 30
0.0
 10
29.910543
 20
208.526004
 30
0.0
 10
30.296394
 20
208.526004
 30
0.0
  0
LWPOLYLINE
  5
180
100
AcDbEntity
  8
Layer_1
 62
3
100
AcDbPolyline
 90
2
 70
0
 10
34.273412
 20
212.230171
 30
0.0
 10
29.973933
 20
212.230171
 30
0.0
  0
SPLINE
  5
181
100
AcDbEntity
  8
Layer_1
 62
3
100
AcDbSpline
 70
8
 71
3
 72
8
 73
4
 74
0
 40
0
 40
0
 40
0
 40
0
 40
1
 40
1
 40
1
 40
1
 10
34.281680
 20
208.526004
 30
0.0
 10
34.436020
 20
208.526004
 30
0.0
 10
34.571068
 20
208.495687
 30
0.0
 10
34.686823
 20
208.435054
 30
0.0
  0
SPLINE
  5
182
100
AcDbEntity
  8
Layer_1
 62
3
100
AcDbSpline
 70
8
 71
3
 72
8
 73
4
 74
0
 40
0
 40
0
 40
0
 40
0
 40
1
 40
1
 40
1
 40
1
 10
34.686823
 20
208.435054
 30
0.0
 10
34.802578
 20
208.379934
 30
0.0
 10
34.899041
 20
208.305520
 30
0.0
 10
34.976211
 20
208.211812
 30
0.0
  0
SPLINE
  5
183
100
AcDbEntity
  8
Layer_1
 62
3
100
AcDbSpline
 70
8
 71
3
 72
8
 73
4
 74
0
 40
0
 40
0
 40
0
 40
0
 40
1
 40
1
 40
1
 40
1
 10
34.976211
 20
208.211812
 30
0.0
 10
35.053382
 20
208.123617
 30
0.0
 10
35.111259
 20
208.018886
 30
0.0
 10
35.149844
 20
207.897619
 30
0.0
  0
SPLINE
  5
184
100
AcDbEntity
  8
Layer_1
 62
3
100
AcDbSpline
 70
8
 71
3
 72
8
 73
4
 74
0
 40
0
 40
0
 40
0
 40
0
 40
1
 40
1
 40
1
 40
1
 10
35.149844
 20
207.897619
 30
0.0
 10
35.188431
 20
207.781864
 30
0.0
 10
35.207724
 20
207.663352
 30
0.0
 10
35.207724
 20
207.542085
 30
0.0
  0
SPLINE
  5
185
100
AcDbEntity
  8
Layer_1
 62
3
100
AcDbSpline
 70
8
 71
3
 72
8
 73
4
 74
0
 40
0
 40
0
 40
0
 40
0
 40
1
 40
1
 40
1
 40
1
 10
35.207724
 20
207.542085
 30
0.0
 10
35.207724
 20
207.420818
 30
0.0
 10
35.188431
 20
207.302306
 30
0.0
 10
35.149844
 20
207.186551
 30
0.0
  0
SPLINE
  5
186
100
AcDbEntity
  8
Layer_1
 62
3
100
AcDbSpline
 70
8
 71
3
 72
8
 73
4
 74
0
 40
0
 40
0
 40
0
 40
0
 40
1
 40
1
 40
1
 40
1
 10
35.149844
 20
207.186551
 30
0.0
 10
35.111257
 20
207.076308
 30
0.0
 10
35.053380
 20
206.974334
 30
0.0
 10
34.976211
 20
206.880627
 30
0.0
  0
SPLINE
  5
187
100
AcDbEntity
  8
Layer_1
 62
3
100
AcDbSpline
 70
8
 71
3
 72
8
 73
4
 74
0
 40
0
 40
0
 40
0
 40
0
 40
1
 40
1
 40
1
 40
1
 10
34.976211
 20
206.880627
 30
0.0
 10
34.899041
 20
206.792432
 30
0.0
 10
34.802578
 20
206.720774
 30
0.0
 10
34.686823
 20
206.665653
 30
0.0
  0
SPLINE
  5
188
100
AcDbEntity
  8
Layer_1
 62
3
100
AcDbSpline
 70
8
 71
3
 72
8
 73
4
 74
0
 40
0
 40
0
 40
0
 40
0
 40
1
 40
1
 40
1
 40
1
 10
34.686823
 20
206.665653
 30
0.0
 10
34.571068
 20
206.610533
 30
0.0
 10
34.436020
 20
206.582973
 30
0.0
 10
34.281680
 20
206.582973
 30
0.0
  0
LWPOLYLINE
  5
189
100
AcDbEntity
  8
Layer_1
 62
3
100
AcDbPolyline
 90
2
 70
0
 10
30.296394
 20
208.526004
 30
0.0
 10
34.281680
 20
208.526004
 30
0.0
  0
SPLINE
  5
18a
100
AcDbEntity
  8
Layer_1
 62
3
100
AcDbSpline
 70
8
 71
3
 72
8
 73
4
 74
0
 40
0
 40
0
 40
0
 40
0
 40
1
 40
1
 40
1
 40
1
 10
27.840730
 20
206.582973
 30
0.0
 10
27.691902
 20
206.582973
 30
0.0
 10
27.559610
 20
206.610533
 30
0.0
 10
27.443855
 20
206.665653
 30
0.0
  0
SPLINE
  5
18b
100
AcDbEntity
  8
Layer_1
 62
3
100
AcDbSpline
 70
8
 71
3
 72
8
 73
4
 74
0
 40
0
 40
0
 40
0
 40
0
 40
1
 40
1
 40
1
 40
1
 10
27.443855
 20
206.665653
 30
0.0
 10
27.328100
 20
206.720773
 30
0.0
 10
27.234393
 20
206.792431
 30
0.0
 10
27.162735
 20
206.880627
 30
0.0
  0
SPLINE
  5
18c
100
AcDbEntity
  8
Layer_1
 62
3
100
AcDbSpline
 70
8
 71
3
 72
8
 73
4
 74
0
 40
0
 40
0
 40
0
 40
0
 40
1
 40
1
 40
1
 40
1
 10
27.162735
 20
206.880627
 30
0.0
 10
27.085565
 20
206.974334
 30
0.0
 10
27.027687
 20
207.079065
 30
0.0
 10
26.989102
 20
207.194820
 30
0.0
  0
SPLINE
  5
18d
100
AcDbEntity
  8
Layer_1
 62
3
100
AcDbSpline
 70
8
 71
3
 72
8
 73
4
 74
0
 40
0
 40
0
 40
0
 40
0
 40
1
 40
1
 40
1
 40
1
 10
26.989102
 20
207.194820
 30
0.0
 10
26.950515
 20
207.316087
 30
0.0
 10
26.931222
 20
207.437355
 30
0.0
 10
26.931222
 20
207.558622
 30
0.0
  0
SPLINE
  5
18e
100
AcDbEntity
  8
Layer_1
 62
3
100
AcDbSpline
 70
8
 71
3
 72
8
 73
4
 74
0
 40
0
 40
0
 40
0
 40
0
 40
1
 40
1
 40
1
 40
1
 10
26.931222
 20
207.558622
 30
0.0
 10
26.931222
 20
207.674377
 30
0.0
 10
26.950515
 20
207.787376
 30
0.0
 10
26.989102
 20
207.897619
 30
0.0
  0
SPLINE
  5
18f
100
AcDbEntity
  8
Layer_1
 62
3
100
AcDbSpline
 70
8
 71
3
 72
8
 73
4
 74
0
 40
0
 40
0
 40
0
 40
0
 40
1
 40
1
 40
1
 40
1
 10
26.989102
 20
207.897619
 30
0.0
 10
27.022175
 20
208.007862
 30
0.0
 10
27.074541
 20
208.107081
 30
0.0
 10
27.146199
 20
208.195275
 30
0.0
  0
SPLINE
  5
190
100
AcDbEntity
  8
Layer_1
 62
3
100
AcDbSpline
 70
8
 71
3
 72
8
 73
4
 74
0
 40
0
 40
0
 40
0
 40
0
 40
1
 40
1
 40
1
 40
1
 10
27.146199
 20
208.195275
 30
0.0
 10
27.212346
 20
208.288982
 30
0.0
 10
27.300540
 20
208.363396
 30
0.0
 10
27.410782
 20
208.418517
 30
0.0
  0
SPLINE
  5
191
100
AcDbEntity
  8
Layer_1
 62
3
100
AcDbSpline
 70
8
 71
3
 72
8
 73
4
 74
0
 40
0
 40
0
 40
0
 40
0
 40
1
 40
1
 40
1
 40
1
 10
27.410782
 20
208.418517
 30
0.0
 10
27.515513
 20
208.473637
 30
0.0
 10
27.639536
 20
208.506710
 30
0.0
 10
27.782852
 20
208.517737
 30
0.0
  0
SPLINE
  5
192
100
AcDbEntity
  8
Layer_1
 62
3
100
AcDbSpline
 70
8
 71
3
 72
8
 73
4
 74
0
 40
0
 40
0
 40
0
 40
0
 40
1
 40
1
 40
1
 40
1
 10
27.782852
 20
208.517737
 30
0.0
 10
27.788385
 20
208.517737
 30
0.0
 10
27.824214
 20
208.517737
 30
0.0
 10
27.890339
 20
208.517737
 30
0.0
  0
SPLINE
  5
193
100
AcDbEntity
  8
Layer_1
 62
3
100
AcDbSpline
 70
8
 71
3
 72
8
 73
4
 74
0
 40
0
 40
0
 40
0
 40
0
 40
1
 40
1
 40
1
 40
1
 10
27.890339
 20
208.517737
 30
0.0
 10
27.956486
 20
208.523270
 30
0.0
 10
28.028144
 20
208.526037
 30
0.0
 10
28.105313
 20
208.526037
 30
0.0
  0
SPLINE
  5
194
100
AcDbEntity
  8
Layer_1
 62
3
100
AcDbSpline
 70
8
 71
3
 72
8
 73
4
 74
0
 40
0
 40
0
 40
0
 40
0
 40
1
 40
1
 40
1
 40
1
 10
28.105313
 20
208.526037
 30
0.0
 10
28.182483
 20
208.526037
 30
0.0
 10
28.259653
 20
208.526037
 30
0.0
 10
28.336824
 20
208.526037
 30
0.0
  0
SPLINE
  5
195
100
AcDbEntity
  8
Layer_1
 62
3
100
AcDbSpline
 70
8
 71
3
 72
8
 73
4
 74
0
 40
0
 40
0
 40
0
 40
0
 40
1
 40
1
 40
1
 40
1
 10
28.336824
 20
208.526037
 30
0.0
 10
28.408482
 20
208.526037
 30
0.0
 10
28.447067
 20
208.526037
 30
0.0
 10
28.452579
 20
208.526037
 30
0.0
  0
SPLINE
  5
196
100
AcDbEntity
  8
Layer_1
 62
3
100
AcDbSpline
 70
8
 71
3
 72
8
 73
4
 74
0
 40
0
 40
0
 40
0
 40
0
 40
1
 40
1
 40
1
 40
1
 10
28.452579
 20
208.526037
 30
0.0
 10
28.248629
 20
208.630768
 30
0.0
 10
28.039167
 20
208.779597
 30
0.0
 10
27.824193
 20
208.972522
 30
0.0
  0
SPLINE
  5
197
100
AcDbEntity
  8
Layer_1
 62
3
100
AcDbSpline
 70
8
 71
3
 72
8
 73
4
 74
0
 40
0
 40
0
 40
0
 40
0
 40
1
 40
1
 40
1
 40
1
 10
27.824193
 20
208.972522
 30
0.0
 10
27.609220
 20
209.165447
 30
0.0
 10
27.430075
 20
209.383177
 30
0.0
 10
27.286759
 20
209.625712
 30
0.0
  0
SPLINE
  5
198
100
AcDbEntity
  8
Layer_1
 62
3
100
AcDbSpline
 70
8
 71
3
 72
8
 73
4
 74
0
 40
0
 40
0
 40
0
 40
0
 40
1
 40
1
 40
1
 40
1
 10
27.286759
 20
209.625712
 30
0.0
 10
27.137930
 20
209.873759
 30
0.0
 10
27.024931
 20
210.138342
 30
0.0
 10
26.947761
 20
210.419462
 30
0.0
  0
SPLINE
  5
199
100
AcDbEntity
  8
Layer_1
 62
3
100
AcDbSpline
 70
8
 71
3
 72
8
 73
4
 74
0
 40
0
 40
0
 40
0
 40
0
 40
1
 40
1
 40
1
 40
1
 10
26.947761
 20
210.419462
 30
0.0
 10
26.870591
 20
210.706094
 30
0.0
 10
26.832006
 20
210.995482
 30
0.0
 10
26.832006
 20
211.287626
 30
0.0
  0
SPLINE
  5
19a
100
AcDbEntity
  8
Layer_1
 62
3
100
AcDbSpline
 70
8
 71
3
 72
8
 73
4
 74
0
 40
0
 40
0
 40
0
 40
0
 40
1
 40
1
 40
1
 40
1
 10
26.832006
 20
211.287626
 30
0.0
 10
26.832006
 20
211.585282
 30
0.0
 10
26.870591
 20
211.874670
 30
0.0
 10
26.947761
 20
212.155790
 30
0.0
  0
SPLINE
  5
19b
100
AcDbEntity
  8
Layer_1
 62
3
100
AcDbSpline
 70
8
 71
3
 72
8
 73
4
 74
0
 40
0
 40
0
 40
0
 40
0
 40
1
 40
1
 40
1
 40
1
 10
26.947761
 20
212.155790
 30
0.0
 10
27.019419
 20
212.436909
 30
0.0
 10
27.132418
 20
212.693224
 30
0.0
 10
27.286759
 20
212.924735
 30
0.0
  0
SPLINE
  5
19c
100
AcDbEntity
  8
Layer_1
 62
3
100
AcDbSpline
 70
8
 71
3
 72
8
 73
4
 74
0
 40
0
 40
0
 40
0
 40
0
 40
1
 40
1
 40
1
 40
1
 10
27.286759
 20
212.924735
 30
0.0
 10
27.441099
 20
213.161758
 30
0.0
 10
27.636780
 20
213.371219
 30
0.0
 10
27.873803
 20
213.553120
 30
0.0
  0
SPLINE
  5
19d
100
AcDbEntity
  8
Layer_1
 62
3
100
AcDbSpline
 70
8
 71
3
 72
8
 73
4
 74
0
 40
0
 40
0
 40
0
 40
0
 40
1
 40
1
 40
1
 40
1
 10
27.873803
 20
213.553120
 30
0.0
 10
28.110826
 20
213.735021
 30
0.0
 10
28.394701
 20
213.878337
 30
0.0
 10
28.725430
 20
213.983068
 30
0.0
  0
SPLINE
  5
19e
100
AcDbEntity
  8
Layer_1
 62
3
100
AcDbSpline
 70
8
 71
3
 72
8
 73
4
 74
0
 40
0
 40
0
 40
0
 40
0
 40
1
 40
1
 40
1
 40
1
 10
28.725430
 20
213.983068
 30
0.0
 10
28.372653
 20
214.170481
 30
0.0
 10
28.077753
 20
214.377187
 30
0.0
 10
27.840730
 20
214.603186
 30
0.0
  0
SPLINE
  5
19f
100
AcDbEntity
  8
Layer_1
 62
3
100
AcDbSpline
 70
8
 71
3
 72
8
 73
4
 74
0
 40
0
 40
0
 40
0
 40
0
 40
1
 40
1
 40
1
 40
1
 10
27.840730
 20
214.603186
 30
0.0
 10
27.598195
 20
214.834696
 30
0.0
 10
27.402514
 20
215.077231
 30
0.0
 10
27.253686
 20
215.330790
 30
0.0
  0
SPLINE
  5
1a0
100
AcDbEntity
  8
Layer_1
 62
3
100
AcDbSpline
 70
8
 71
3
 72
8
 73
4
 74
0
 40
0
 40
0
 40
0
 40
0
 40
1
 40
1
 40
1
 40
1
 10
27.253686
 20
215.330790
 30
0.0
 10
27.104857
 20
215.584349
 30
0.0
 10
26.997370
 20
215.846176
 30
0.0
 10
26.931225
 20
216.116271
 30
0.0
  0
SPLINE
  5
1a1
100
AcDbEntity
  8
Layer_1
 62
3
100
AcDbSpline
 70
8
 71
3
 72
8
 73
4
 74
0
 40
0
 40
0
 40
0
 40
0
 40
1
 40
1
 40
1
 40
1
 10
26.931225
 20
216.116271
 30
0.0
 10
26.865078
 20
216.391879
 30
0.0
 10
26.832005
 20
216.667487
 30
0.0
 10
26.832005
 20
216.943094
 30
0.0
  0
SPLINE
  5
1a2
100
AcDbEntity
  8
Layer_1
 62
3
100
AcDbSpline
 70
8
 71
3
 72
8
 73
4
 74
0
 40
0
 40
0
 40
0
 40
0
 40
1
 40
1
 40
1
 40
1
 10
26.832005
 20
216.943094
 30
0.0
 10
26.832005
 20
217.328945
 30
0.0
 10
26.895395
 20
217.695503
 30
0.0
 10
27.022174
 20
218.042769
 30
0.0
  0
SPLINE
  5
1a3
100
AcDbEntity
  8
Layer_1
 62
3
100
AcDbSpline
 70
8
 71
3
 72
8
 73
4
 74
0
 40
0
 40
0
 40
0
 40
0
 40
1
 40
1
 40
1
 40
1
 10
27.022174
 20
218.042769
 30
0.0
 10
27.143441
 20
218.390034
 30
0.0
 10
27.333611
 20
218.695959
 30
0.0
 10
27.592682
 20
218.960542
 30
0.0
  0
SPLINE
  5
1a4
100
AcDbEntity
  8
Layer_1
 62
3
100
AcDbSpline
 70
8
 71
3
 72
8
 73
4
 74
0
 40
0
 40
0
 40
0
 40
0
 40
1
 40
1
 40
1
 40
1
 10
27.592682
 20
218.960542
 30
0.0
 10
27.846241
 20
219.225125
 30
0.0
 10
28.171458
 20
219.434587
 30
0.0
 10
28.568333
 20
219.588927
 30
0.0
  0
SPLINE
  5
1a5
100
AcDbEntity
  8
Layer_1
 62
3
100
AcDbSpline
 70
8
 71
3
 72
8
 73
4
 74
0
 40
0
 40
0
 40
0
 40
0
 40
1
 40
1
 40
1
 40
1
 10
28.568333
 20
219.588927
 30
0.0
 10
28.965208
 20
219.743268
 30
0.0
 10
29.439253
 20
219.820438
 30
0.0
 10
29.990468
 20
219.820438
 30
0.0
  0
LWPOLYLINE
  5
1a6
100
AcDbEntity
  8
Layer_1
 62
3
100
AcDbPolyline
 90
2
 70
0
 10
34.281680
 20
206.582973
 30
0.0
 10
27.840730
 20
206.582973
 30
0.0
  0
SPLINE
  5
1a7
100
AcDbEntity
  8
Layer_1
 62
3
100
AcDbSpline
 70
8
 71
3
 72
8
 73
4
 74
0
 40
0
 40
0
 40
0
 40
0
 40
1
 40
1
 40
1
 40
1
 10
34.281679
 20
219.820438
 30
0.0
 10
34.436019
 20
219.820438
 30
0.0
 10
34.571067
 20
219.790121
 30
0.0
 10
34.686822
 20
219.729488
 30
0.0
  0
SPLINE
  5
1a8
100
AcDbEntity
  8
Layer_1
 62
3
100
AcDbSpline
 70
8
 71
3
 72
8
 73
4
 74
0
 40
0
 40
0
 40
0
 40
0
 40
1
 40
1
 40
1
 40
1
 10
34.686822
 20
219.729488
 30
0.0
 10
34.802577
 20
219.674368
 30
0.0
 10
34.899040
 20
219.599954
 30
0.0
 10
34.976210
 20
219.506246
 30
0.0
  0
SPLINE
  5
1a9
100
AcDbEntity
  8
Layer_1
 62
3
100
AcDbSpline
 70
8
 71
3
 72
8
 73
4
 74
0
 40
0
 40
0
 40
0
 40
0
 40
1
 40
1
 40
1
 40
1
 10
34.976210
 20
219.506246
 30
0.0
 10
35.053381
 20
219.418051
 30
0.0
 10
35.111258
 20
219.313320
 30
0.0
 10
35.149843
 20
219.192053
 30
0.0
  0
SPLINE
  5
1aa
100
AcDbEntity
  8
Layer_1
 62
3
100
AcDbSpline
 70
8
 71
3
 72
8
 73
4
 74
0
 40
0
 40
0
 40
0
 40
0
 40
1
 40
1
 40
1
 40
1
 10
35.149843
 20
219.192053
 30
0.0
 10
35.188430
 20
219.076298
 30
0.0
 10
35.207723
 20
218.957787
 30
0.0
 10
35.207723
 20
218.836520
 30
0.0
  0
SPLINE
  5
1ab
100
AcDbEntity
  8
Layer_1
 62
3
100
AcDbSpline
 70
8
 71
3
 72
8
 73
4
 74
0
 40
0
 40
0
 40
0
 40
0
 40
1
 40
1
 40
1
 40
1
 10
35.207723
 20
218.836520
 30
0.0
 10
35.207723
 20
218.715253
 30
0.0
 10
35.188430
 20
218.596741
 30
0.0
 10
35.149843
 20
218.480986
 30
0.0
  0
SPLINE
  5
1ac
100
AcDbEntity
  8
Layer_1
 62
3
100
AcDbSpline
 70
8
 71
3
 72
8
 73
4
 74
0
 40
0
 40
0
 40
0
 40
0
 40
1
 40
1
 40
1
 40
1
 10
35.149843
 20
218.480986
 30
0.0
 10
35.111256
 20
218.370743
 30
0.0
 10
35.053379
 20
218.268768
 30
0.0
 10
34.976210
 20
218.175061
 30
0.0
  0
SPLINE
  5
1ad
100
AcDbEntity
  8
Layer_1
 62
3
100
AcDbSpline
 70
8
 71
3
 72
8
 73
4
 74
0
 40
0
 40
0
 40
0
 40
0
 40
1
 40
1
 40
1
 40
1
 10
34.976210
 20
218.175061
 30
0.0
 10
34.899040
 20
218.086867
 30
0.0
 10
34.802577
 20
218.015209
 30
0.0
 10
34.686822
 20
217.960087
 30
0.0
  0
SPLINE
  5
1ae
100
AcDbEntity
  8
Layer_1
 62
3
100
AcDbSpline
 70
8
 71
3
 72
8
 73
4
 74
0
 40
0
 40
0
 40
0
 40
0
 40
1
 40
1
 40
1
 40
1
 10
34.686822
 20
217.960087
 30
0.0
 10
34.571067
 20
217.904967
 30
0.0
 10
34.436019
 20
217.877407
 30
0.0
 10
34.281679
 20
217.877407
 30
0.0
  0
LWPOLYLINE
  5
1af
100
AcDbEntity
  8
Layer_1
 62
3
100
AcDbPolyline
 90
2
 70
0
 10
29.990468
 20
219.820438
 30
0.0
 10
34.281679
 20
219.820438
 30
0.0
  0
SPLINE
  5
1b0
100
AcDbEntity
  8
Layer_1
 62
3
100
AcDbSpline
 70
8
 71
3
 72
8
 73
4
 74
0
 40
0
 40
0
 40
0
 40
0
 40
1
 40
1
 40
1
 40
1
 10
28.427774
 20
223.956168
 30
0.0
 10
28.201776
 20
224.104996
 30
0.0
 10
27.984046
 20
224.284141
 30
0.0
 10
27.774584
 20
224.493603
 30
0.0
  0
SPLINE
  5
1b1
100
AcDbEntity
  8
Layer_1
 62
3
100
AcDbSpline
 70
8
 71
3
 72
8
 73
4
 74
0
 40
0
 40
0
 40
0
 40
0
 40
1
 40
1
 40
1
 40
1
 10
27.774584
 20
224.493603
 30
0.0
 10
27.565122
 20
224.703065
 30
0.0
 10
27.391489
 20
224.931819
 30
0.0
 10
27.253686
 20
225.179866
 30
0.0
  0
SPLINE
  5
1b2
100
AcDbEntity
  8
Layer_1
 62
3
100
AcDbSpline
 70
8
 71
3
 72
8
 73
4
 74
0
 40
0
 40
0
 40
0
 40
0
 40
1
 40
1
 40
1
 40
1
 10
27.253686
 20
225.179866
 30
0.0
 10
27.110370
 20
225.433425
 30
0.0
 10
27.005639
 20
225.700765
 30
0.0
 10
26.939493
 20
225.981884
 30
0.0
  0
SPLINE
  5
1b3
100
AcDbEntity
  8
Layer_1
 62
3
100
AcDbSpline
 70
8
 71
3
 72
8
 73
4
 74
0
 40
0
 40
0
 40
0
 40
0
 40
1
 40
1
 40
1
 40
1
 10
26.939493
 20
225.981884
 30
0.0
 10
26.867835
 20
226.268516
 30
0.0
 10
26.832006
 20
226.560660
 30
0.0
 10
26.832006
 20
226.858317
 30
0.0
  0
SPLINE
  5
1b4
100
AcDbEntity
  8
Layer_1
 62
3
100
AcDbSpline
 70
8
 71
3
 72
8
 73
4
 74
0
 40
0
 40
0
 40
0
 40
0
 40
1
 40
1
 40
1
 40
1
 10
26.832006
 20
226.858317
 30
0.0
 10
26.832006
 20
227.426068
 30
0.0
 10
26.950517
 20
227.922162
 30
0.0
 10
27.187540
 20
228.346598
 30
0.0
  0
SPLINE
  5
1b5
100
AcDbEntity
  8
Layer_1
 62
3
100
AcDbSpline
 70
8
 71
3
 72
8
 73
4
 74
0
 40
0
 40
0
 40
0
 40
0
 40
1
 40
1
 40
1
 40
1
 10
27.187540
 20
228.346598
 30
0.0
 10
27.424563
 20
228.776546
 30
0.0
 10
27.744267
 20
229.132080
 30
0.0
 10
28.146654
 20
229.413199
 30
0.0
  0
SPLINE
  5
1b6
100
AcDbEntity
  8
Layer_1
 62
3
100
AcDbSpline
 70
8
 71
3
 72
8
 73
4
 74
0
 40
0
 40
0
 40
0
 40
0
 40
1
 40
1
 40
1
 40
1
 10
28.146654
 20
229.413199
 30
0.0
 10
28.549041
 20
229.699831
 30
0.0
 10
29.014818
 20
229.912049
 30
0.0
 10
29.543985
 20
230.049853
 30
0.0
  0
SPLINE
  5
1b7
100
AcDbEntity
  8
Layer_1
 62
3
100
AcDbSpline
 70
8
 71
3
 72
8
 73
4
 74
0
 40
0
 40
0
 40
0
 40
0
 40
1
 40
1
 40
1
 40
1
 10
29.543985
 20
230.049853
 30
0.0
 10
30.067640
 20
230.193169
 30
0.0
 10
30.594050
 20
230.264827
 30
0.0
 10
31.123217
 20
230.264827
 30
0.0
  0
SPLINE
  5
1b8
100
AcDbEntity
  8
Layer_1
 62
3
100
AcDbSpline
 70
8
 71
3
 72
8
 73
4
 74
0
 40
0
 40
0
 40
0
 40
0
 40
1
 40
1
 40
1
 40
1
 10
31.123217
 20
230.264827
 30
0.0
 10
31.652384
 20
230.264827
 30
0.0
 10
32.178794
 20
230.187657
 30
0.0
 10
32.702448
 20
230.033316
 30
0.0
  0
SPLINE
  5
1b9
100
AcDbEntity
  8
Layer_1
 62
3
100
AcDbSpline
 70
8
 71
3
 72
8
 73
4
 74
0
 40
0
 40
0
 40
0
 40
0
 40
1
 40
1
 40
1
 40
1
 10
32.702448
 20
230.033316
 30
0.0
 10
33.226103
 20
229.884488
 30
0.0
 10
33.680855
 20
229.664002
 30
0.0
 10
34.066706
 20
229.371858
 30
0.0
  0
SPLINE
  5
1ba
100
AcDbEntity
  8
Layer_1
 62
3
100
AcDbSpline
 70
8
 71
3
 72
8
 73
4
 74
0
 40
0
 40
0
 40
0
 40
0
 40
1
 40
1
 40
1
 40
1
 10
34.066706
 20
229.371858
 30
0.0
 10
34.452557
 20
229.079714
 30
0.0
 10
34.755725
 20
228.718668
 30
0.0
 10
34.976211
 20
228.288720
 30
0.0
  0
SPLINE
  5
1bb
100
AcDbEntity
  8
Layer_1
 62
3
100
AcDbSpline
 70
8
 71
3
 72
8
 73
4
 74
0
 40
0
 40
0
 40
0
 40
0
 40
1
 40
1
 40
1
 40
1
 10
34.976211
 20
228.288720
 30
0.0
 10
35.196697
 20
227.864285
 30
0.0
 10
35.306940
 20
227.373703
 30
0.0
 10
35.306940
 20
226.816975
 30
0.0
  0
SPLINE
  5
1bc
100
AcDbEntity
  8
Layer_1
 62
3
100
AcDbSpline
 70
8
 71
3
 72
8
 73
4
 74
0
 40
0
 40
0
 40
0
 40
0
 40
1
 40
1
 40
1
 40
1
 10
35.306940
 20
226.816975
 30
0.0
 10
35.306940
 20
226.535856
 30
0.0
 10
35.273867
 20
226.257492
 30
0.0
 10
35.207720
 20
225.981884
 30
0.0
  0
SPLINE
  5
1bd
100
AcDbEntity
  8
Layer_1
 62
3
100
AcDbSpline
 70
8
 71
3
 72
8
 73
4
 74
0
 40
0
 40
0
 40
0
 40
0
 40
1
 40
1
 40
1
 40
1
 10
35.207720
 20
225.981884
 30
0.0
 10
35.136062
 20
225.706277
 30
0.0
 10
35.031331
 20
225.444450
 30
0.0
 10
34.893527
 20
225.196403
 30
0.0
  0
SPLINE
  5
1be
100
AcDbEntity
  8
Layer_1
 62
3
100
AcDbSpline
 70
8
 71
3
 72
8
 73
4
 74
0
 40
0
 40
0
 40
0
 40
0
 40
1
 40
1
 40
1
 40
1
 10
34.893527
 20
225.196403
 30
0.0
 10
34.755723
 20
224.948356
 30
0.0
 10
34.584846
 20
224.716845
 30
0.0
 10
34.380897
 20
224.501871
 30
0.0
  0
SPLINE
  5
1bf
100
AcDbEntity
  8
Layer_1
 62
3
100
AcDbSpline
 70
8
 71
3
 72
8
 73
4
 74
0
 40
0
 40
0
 40
0
 40
0
 40
1
 40
1
 40
1
 40
1
 10
34.380897
 20
224.501871
 30
0.0
 10
34.171435
 20
224.292410
 30
0.0
 10
33.964729
 20
224.110509
 30
0.0
 10
33.760780
 20
223.956168
 30
0.0
  0
LWPOLYLINE
  5
1c0
100
AcDbEntity
  8
Layer_1
 62
3
100
AcDbPolyline
 90
2
 70
0
 10
34.281679
 20
217.877407
 30
0.0
 10
29.973933
 20
217.877367
 30
0.0
  0
SPLINE
  5
1c1
100
AcDbEntity
  8
Layer_1
 62
3
100
AcDbSpline
 70
8
 71
3
 72
8
 73
4
 74
0
 40
0
 40
0
 40
0
 40
0
 40
1
 40
1
 40
1
 40
1
 10
37.456678
 20
223.956168
 30
0.0
 10
37.605506
 20
223.956168
 30
0.0
 10
37.737798
 20
223.928608
 30
0.0
 10
37.853553
 20
223.873488
 30
0.0
  0
SPLINE
  5
1c2
100
AcDbEntity
  8
Layer_1
 62
3
100
AcDbSpline
 70
8
 71
3
 72
8
 73
4
 74
0
 40
0
 40
0
 40
0
 40
0
 40
1
 40
1
 40
1
 40
1
 10
37.853553
 20
223.873488
 30
0.0
 10
37.969308
 20
223.818368
 30
0.0
 10
38.063015
 20
223.743954
 30
0.0
 10
38.134673
 20
223.650246
 30
0.0
  0
SPLINE
  5
1c3
100
AcDbEntity
  8
Layer_1
 62
3
100
AcDbSpline
 70
8
 71
3
 72
8
 73
4
 74
0
 40
0
 40
0
 40
0
 40
0
 40
1
 40
1
 40
1
 40
1
 10
38.134673
 20
223.650246
 30
0.0
 10
38.211843
 20
223.562051
 30
0.0
 10
38.269720
 20
223.460076
 30
0.0
 10
38.308305
 20
223.344321
 30
0.0
  0
SPLINE
  5
1c4
100
AcDbEntity
  8
Layer_1
 62
3
100
AcDbSpline
 70
8
 71
3
 72
8
 73
4
 74
0
 40
0
 40
0
 40
0
 40
0
 40
1
 40
1
 40
1
 40
1
 10
38.308305
 20
223.344321
 30
0.0
 10
38.346892
 20
223.228566
 30
0.0
 10
38.366185
 20
223.110055
 30
0.0
 10
38.366185
 20
222.988788
 30
0.0
  0
SPLINE
  5
1c5
100
AcDbEntity
  8
Layer_1
 62
3
100
AcDbSpline
 70
8
 71
3
 72
8
 73
4
 74
0
 40
0
 40
0
 40
0
 40
0
 40
1
 40
1
 40
1
 40
1
 10
38.366185
 20
222.988788
 30
0.0
 10
38.366185
 20
222.867521
 30
0.0
 10
38.346892
 20
222.749009
 30
0.0
 10
38.308305
 20
222.633254
 30
0.0
  0
SPLINE
  5
1c6
100
AcDbEntity
  8
Layer_1
 62
3
100
AcDbSpline
 70
8
 71
3
 72
8
 73
4
 74
0
 40
0
 40
0
 40
0
 40
0
 40
1
 40
1
 40
1
 40
1
 10
38.308305
 20
222.633254
 30
0.0
 10
38.269718
 20
222.517499
 30
0.0
 10
38.211841
 20
222.412768
 30
0.0
 10
38.134673
 20
222.319061
 30
0.0
  0
SPLINE
  5
1c7
100
AcDbEntity
  8
Layer_1
 62
3
100
AcDbSpline
 70
8
 71
3
 72
8
 73
4
 74
0
 40
0
 40
0
 40
0
 40
0
 40
1
 40
1
 40
1
 40
1
 10
38.134673
 20
222.319061
 30
0.0
 10
38.063015
 20
222.230866
 30
0.0
 10
37.969308
 20
222.159208
 30
0.0
 10
37.853553
 20
222.104087
 30
0.0
  0
SPLINE
  5
1c8
100
AcDbEntity
  8
Layer_1
 62
3
100
AcDbSpline
 70
8
 71
3
 72
8
 73
4
 74
0
 40
0
 40
0
 40
0
 40
0
 40
1
 40
1
 40
1
 40
1
 10
37.853553
 20
222.104087
 30
0.0
 10
37.737798
 20
222.048967
 30
0.0
 10
37.605506
 20
222.021407
 30
0.0
 10
37.456678
 20
222.021407
 30
0.0
  0
LWPOLYLINE
  5
1c9
100
AcDbEntity
  8
Layer_1
 62
3
100
AcDbPolyline
 90
2
 70
0
 10
33.760780
 20
223.956168
 30
0.0
 10
37.456678
 20
223.956168
 30
0.0
  0
SPLINE
  5
1ca
100
AcDbEntity
  8
Layer_1
 62
3
100
AcDbSpline
 70
8
 71
3
 72
8
 73
4
 74
0
 40
0
 40
0
 40
0
 40
0
 40
1
 40
1
 40
1
 40
1
 10
27.848996
 20
222.021407
 30
0.0
 10
27.694656
 20
222.021407
 30
0.0
 10
27.562364
 20
222.048967
 30
0.0
 10
27.452121
 20
222.104087
 30
0.0
  0
SPLINE
  5
1cb
100
AcDbEntity
  8
Layer_1
 62
3
100
AcDbSpline
 70
8
 71
3
 72
8
 73
4
 74
0
 40
0
 40
0
 40
0
 40
0
 40
1
 40
1
 40
1
 40
1
 10
27.452121
 20
222.104087
 30
0.0
 10
27.336366
 20
222.159207
 30
0.0
 10
27.239903
 20
222.230865
 30
0.0
 10
27.162733
 20
222.319061
 30
0.0
  0
SPLINE
  5
1cc
100
AcDbEntity
  8
Layer_1
 62
3
100
AcDbSpline
 70
8
 71
3
 72
8
 73
4
 74
0
 40
0
 40
0
 40
0
 40
0
 40
1
 40
1
 40
1
 40
1
 10
27.162733
 20
222.319061
 30
0.0
 10
27.085563
 20
222.407256
 30
0.0
 10
27.027685
 20
222.506474
 30
0.0
 10
26.989100
 20
222.616717
 30
0.0
  0
SPLINE
  5
1cd
100
AcDbEntity
  8
Layer_1
 62
3
100
AcDbSpline
 70
8
 71
3
 72
8
 73
4
 74
0
 40
0
 40
0
 40
0
 40
0
 40
1
 40
1
 40
1
 40
1
 10
26.989100
 20
222.616717
 30
0.0
 10
26.950513
 20
222.732472
 30
0.0
 10
26.931220
 20
222.850984
 30
0.0
 10
26.931220
 20
222.972251
 30
0.0
  0
SPLINE
  5
1ce
100
AcDbEntity
  8
Layer_1
 62
3
100
AcDbSpline
 70
8
 71
3
 72
8
 73
4
 74
0
 40
0
 40
0
 40
0
 40
0
 40
1
 40
1
 40
1
 40
1
 10
26.931220
 20
222.972251
 30
0.0
 10
26.931220
 20
223.088006
 30
0.0
 10
26.950513
 20
223.201005
 30
0.0
 10
26.989100
 20
223.311248
 30
0.0
  0
SPLINE
  5
1cf
100
AcDbEntity
  8
Layer_1
 62
3
100
AcDbSpline
 70
8
 71
3
 72
8
 73
4
 74
0
 40
0
 40
0
 40
0
 40
0
 40
1
 40
1
 40
1
 40
1
 10
26.989100
 20
223.311248
 30
0.0
 10
27.022173
 20
223.421491
 30
0.0
 10
27.074539
 20
223.520710
 30
0.0
 10
27.146197
 20
223.608905
 30
0.0
  0
SPLINE
  5
1d0
100
AcDbEntity
  8
Layer_1
 62
3
100
AcDbSpline
 70
8
 71
3
 72
8
 73
4
 74
0
 40
0
 40
0
 40
0
 40
0
 40
1
 40
1
 40
1
 40
1
 10
27.146197
 20
223.608905
 30
0.0
 10
27.212344
 20
223.702612
 30
0.0
 10
27.297782
 20
223.779782
 30
0.0
 10
27.402512
 20
223.840415
 30
0.0
  0
SPLINE
  5
1d1
100
AcDbEntity
  8
Layer_1
 62
3
100
AcDbSpline
 70
8
 71
3
 72
8
 73
4
 74
0
 40
0
 40
0
 40
0
 40
0
 40
1
 40
1
 40
1
 40
1
 10
27.402512
 20
223.840415
 30
0.0
 10
27.507243
 20
223.901048
 30
0.0
 10
27.628510
 20
223.939633
 30
0.0
 10
27.766314
 20
223.956170
 30
0.0
  0
LWPOLYLINE
  5
1d2
100
AcDbEntity
  8
Layer_1
 62
3
100
AcDbPolyline
 90
2
 70
0
 10
37.456678
 20
222.021407
 30
0.0
 10
27.848996
 20
222.021407
 30
0.0
  0
SPLINE
  5
1d3
100
AcDbEntity
  8
Layer_1
 62
3
100
AcDbSpline
 70
8
 71
3
 72
8
 73
4
 74
0
 40
0
 40
0
 40
0
 40
0
 40
1
 40
1
 40
1
 40
1
 10
31.098412
 20
223.964468
 30
0.0
 10
31.484263
 20
223.964468
 30
0.0
 10
31.842553
 20
224.003053
 30
0.0
 10
32.173282
 20
224.080223
 30
0.0
  0
SPLINE
  5
1d4
100
AcDbEntity
  8
Layer_1
 62
3
100
AcDbSpline
 70
8
 71
3
 72
8
 73
4
 74
0
 40
0
 40
0
 40
0
 40
0
 40
1
 40
1
 40
1
 40
1
 10
32.173282
 20
224.080223
 30
0.0
 10
32.504011
 20
224.162905
 30
0.0
 10
32.807179
 20
224.292440
 30
0.0
 10
33.082787
 20
224.468829
 30
0.0
  0
SPLINE
  5
1d5
100
AcDbEntity
  8
Layer_1
 62
3
100
AcDbSpline
 70
8
 71
3
 72
8
 73
4
 74
0
 40
0
 40
0
 40
0
 40
0
 40
1
 40
1
 40
1
 40
1
 10
33.082787
 20
224.468829
 30
0.0
 10
33.358394
 20
224.645218
 30
0.0
 10
33.578880
 20
224.873973
 30
0.0
 10
33.744245
 20
225.155092
 30
0.0
  0
SPLINE
  5
1d6
100
AcDbEntity
  8
Layer_1
 62
3
100
AcDbSpline
 70
8
 71
3
 72
8
 73
4
 74
0
 40
0
 40
0
 40
0
 40
0
 40
1
 40
1
 40
1
 40
1
 10
33.744245
 20
225.155092
 30
0.0
 10
33.904098
 20
225.441724
 30
0.0
 10
33.984024
 20
225.788990
 30
0.0
 10
33.984024
 20
226.196889
 30
0.0
  0
SPLINE
  5
1d7
100
AcDbEntity
  8
Layer_1
 62
3
100
AcDbSpline
 70
8
 71
3
 72
8
 73
4
 74
0
 40
0
 40
0
 40
0
 40
0
 40
1
 40
1
 40
1
 40
1
 10
33.984024
 20
226.196889
 30
0.0
 10
33.984024
 20
226.604788
 30
0.0
 10
33.895830
 20
226.941030
 30
0.0
 10
33.719441
 20
227.205613
 30
0.0
  0
SPLINE
  5
1d8
100
AcDbEntity
  8
Layer_1
 62
3
100
AcDbSpline
 70
8
 71
3
 72
8
 73
4
 74
0
 40
0
 40
0
 40
0
 40
0
 40
1
 40
1
 40
1
 40
1
 10
33.719441
 20
227.205613
 30
0.0
 10
33.543052
 20
227.475708
 30
0.0
 10
33.311541
 20
227.687926
 30
0.0
 10
33.024909
 20
227.842267
 30
0.0
  0
SPLINE
  5
1d9
100
AcDbEntity
  8
Layer_1
 62
3
100
AcDbSpline
 70
8
 71
3
 72
8
 73
4
 74
0
 40
0
 40
0
 40
0
 40
0
 40
1
 40
1
 40
1
 40
1
 10
33.024909
 20
227.842267
 30
0.0
 10
32.738277
 20
228.002119
 30
0.0
 10
32.413060
 20
228.112362
 30
0.0
 10
32.049258
 20
228.172996
 30
0.0
  0
SPLINE
  5
1da
100
AcDbEntity
  8
Layer_1
 62
3
100
AcDbSpline
 70
8
 71
3
 72
8
 73
4
 74
0
 40
0
 40
0
 40
0
 40
0
 40
1
 40
1
 40
1
 40
1
 10
32.049258
 20
228.172996
 30
0.0
 10
31.685456
 20
228.233629
 30
0.0
 10
31.357483
 20
228.263946
 30
0.0
 10
31.065339
 20
228.263946
 30
0.0
  0
SPLINE
  5
1db
100
AcDbEntity
  8
Layer_1
 62
3
100
AcDbSpline
 70
8
 71
3
 72
8
 73
4
 74
0
 40
0
 40
0
 40
0
 40
0
 40
1
 40
1
 40
1
 40
1
 10
31.065339
 20
228.263946
 30
0.0
 10
30.762171
 20
228.263946
 30
0.0
 10
30.431442
 20
228.233629
 30
0.0
 10
30.073152
 20
228.172996
 30
0.0
  0
SPLINE
  5
1dc
100
AcDbEntity
  8
Layer_1
 62
3
100
AcDbSpline
 70
8
 71
3
 72
8
 73
4
 74
0
 40
0
 40
0
 40
0
 40
0
 40
1
 40
1
 40
1
 40
1
 10
30.073152
 20
228.172996
 30
0.0
 10
29.714862
 20
228.112363
 30
0.0
 10
29.392401
 20
228.004876
 30
0.0
 10
29.105769
 20
227.850535
 30
0.0
  0
SPLINE
  5
1dd
100
AcDbEntity
  8
Layer_1
 62
3
100
AcDbSpline
 70
8
 71
3
 72
8
 73
4
 74
0
 40
0
 40
0
 40
0
 40
0
 40
1
 40
1
 40
1
 40
1
 10
29.105769
 20
227.850535
 30
0.0
 10
28.813625
 20
227.696195
 30
0.0
 10
28.576602
 20
227.486733
 30
0.0
 10
28.394701
 20
227.222150
 30
0.0
  0
SPLINE
  5
1de
100
AcDbEntity
  8
Layer_1
 62
3
100
AcDbSpline
 70
8
 71
3
 72
8
 73
4
 74
0
 40
0
 40
0
 40
0
 40
0
 40
1
 40
1
 40
1
 40
1
 10
28.394701
 20
227.222150
 30
0.0
 10
28.212800
 20
226.957567
 30
0.0
 10
28.121850
 20
226.621325
 30
0.0
 10
28.121850
 20
226.213426
 30
0.0
  0
SPLINE
  5
1df
100
AcDbEntity
  8
Layer_1
 62
3
100
AcDbSpline
 70
8
 71
3
 72
8
 73
4
 74
0
 40
0
 40
0
 40
0
 40
0
 40
1
 40
1
 40
1
 40
1
 10
28.121850
 20
226.213426
 30
0.0
 10
28.121850
 20
225.766941
 30
0.0
 10
28.196264
 20
225.397627
 30
0.0
 10
28.345092
 20
225.105483
 30
0.0
  0
SPLINE
  5
1e0
100
AcDbEntity
  8
Layer_1
 62
3
100
AcDbSpline
 70
8
 71
3
 72
8
 73
4
 74
0
 40
0
 40
0
 40
0
 40
0
 40
1
 40
1
 40
1
 40
1
 10
28.345092
 20
225.105483
 30
0.0
 10
28.488408
 20
224.818851
 30
0.0
 10
28.695114
 20
224.590097
 30
0.0
 10
28.965209
 20
224.419220
 30
0.0
  0
SPLINE
  5
1e1
100
AcDbEntity
  8
Layer_1
 62
3
100
AcDbSpline
 70
8
 71
3
 72
8
 73
4
 74
0
 40
0
 40
0
 40
0
 40
0
 40
1
 40
1
 40
1
 40
1
 10
28.965209
 20
224.419220
 30
0.0
 10
29.229792
 20
224.253855
 30
0.0
 10
29.532961
 20
224.135344
 30
0.0
 10
29.874714
 20
224.063686
 30
0.0
  0
SPLINE
  5
1e2
100
AcDbEntity
  8
Layer_1
 62
3
100
AcDbSpline
 70
8
 71
3
 72
8
 73
4
 74
0
 40
0
 40
0
 40
0
 40
0
 40
1
 40
1
 40
1
 40
1
 10
29.874714
 20
224.063686
 30
0.0
 10
30.210955
 20
223.997539
 30
0.0
 10
30.618855
 20
223.964466
 30
0.0
 10
31.098412
 20
223.964466
 30
0.0
  0
LWPOLYLINE
  5
1e3
100
AcDbEntity
  8
Layer_1
 62
3
100
AcDbPolyline
 90
2
 70
0
 10
27.766314
 20
223.956170
 30
0.0
 10
28.427774
 20
223.956168
 30
0.0
  0
SPLINE
  5
1e4
100
AcDbEntity
  8
Layer_1
 62
3
100
AcDbSpline
 70
8
 71
3
 72
8
 73
4
 74
0
 40
0
 40
0
 40
0
 40
0
 40
1
 40
1
 40
1
 40
1
 10
30.800756
 20
239.857628
 30
0.0
 10
30.949584
 20
239.857628
 30
0.0
 10
31.081876
 20
239.808019
 30
0.0
 10
31.197631
 20
239.708800
 30
0.0
  0
SPLINE
  5
1e5
100
AcDbEntity
  8
Layer_1
 62
3
100
AcDbSpline
 70
8
 71
3
 72
8
 73
4
 74
0
 40
0
 40
0
 40
0
 40
0
 40
1
 40
1
 40
1
 40
1
 10
31.197631
 20
239.708800
 30
0.0
 10
31.307874
 20
239.615093
 30
0.0
 10
31.362995
 20
239.469021
 30
0.0
 10
31.362995
 20
239.270584
 30
0.0
  0
LWPOLYLINE
  5
1e6
100
AcDbEntity
  8
Layer_1
 62
3
100
AcDbPolyline
 90
1
 70
1
 10
31.098412
 20
223.964466
 30
0.0
  0
SPLINE
  5
1e7
100
AcDbEntity
  8
Layer_1
 62
3
100
AcDbSpline
 70
8
 71
3
 72
8
 73
4
 74
0
 40
0
 40
0
 40
0
 40
0
 40
1
 40
1
 40
1
 40
1
 10
31.362995
 20
233.639920
 30
0.0
 10
32.162258
 20
233.689527
 30
0.0
 10
32.782375
 20
233.934817
 30
0.0
 10
33.223347
 20
234.375792
 30
0.0
  0
SPLINE
  5
1e8
100
AcDbEntity
  8
Layer_1
 62
3
100
AcDbSpline
 70
8
 71
3
 72
8
 73
4
 74
0
 40
0
 40
0
 40
0
 40
0
 40
1
 40
1
 40
1
 40
1
 10
33.223347
 20
234.375792
 30
0.0
 10
33.664319
 20
234.822277
 30
0.0
 10
33.884805
 20
235.409321
 30
0.0
 10
33.884805
 20
236.136925
 30
0.0
  0
SPLINE
  5
1e9
100
AcDbEntity
  8
Layer_1
 62
3
100
AcDbSpline
 70
8
 71
3
 72
8
 73
4
 74
0
 40
0
 40
0
 40
0
 40
0
 40
1
 40
1
 40
1
 40
1
 10
33.884805
 20
236.136925
 30
0.0
 10
33.884805
 20
236.583409
 30
0.0
 10
33.821415
 20
237.005089
 30
0.0
 10
33.694636
 20
237.401964
 30
0.0
  0
SPLINE
  5
1ea
100
AcDbEntity
  8
Layer_1
 62
3
100
AcDbSpline
 70
8
 71
3
 72
8
 73
4
 74
0
 40
0
 40
0
 40
0
 40
0
 40
1
 40
1
 40
1
 40
1
 10
33.694636
 20
237.401964
 30
0.0
 10
33.567857
 20
237.798839
 30
0.0
 10
33.399736
 20
238.203982
 30
0.0
 10
33.190274
 20
238.617393
 30
0.0
  0
SPLINE
  5
1eb
100
AcDbEntity
  8
Layer_1
 62
3
100
AcDbSpline
 70
8
 71
3
 72
8
 73
4
 74
0
 40
0
 40
0
 40
0
 40
0
 40
1
 40
1
 40
1
 40
1
 10
33.190274
 20
238.617393
 30
0.0
 10
33.140667
 20
238.716612
 30
0.0
 10
33.115864
 20
238.810319
 30
0.0
 10
33.115864
 20
238.898513
 30
0.0
  0
SPLINE
  5
1ec
100
AcDbEntity
  8
Layer_1
 62
3
100
AcDbSpline
 70
8
 71
3
 72
8
 73
4
 74
0
 40
0
 40
0
 40
0
 40
0
 40
1
 40
1
 40
1
 40
1
 10
33.115864
 20
238.898513
 30
0.0
 10
33.115864
 20
239.047341
 30
0.0
 10
33.170985
 20
239.165852
 30
0.0
 10
33.281228
 20
239.254047
 30
0.0
  0
SPLINE
  5
1ed
100
AcDbEntity
  8
Layer_1
 62
3
100
AcDbSpline
 70
8
 71
3
 72
8
 73
4
 74
0
 40
0
 40
0
 40
0
 40
0
 40
1
 40
1
 40
1
 40
1
 10
33.281228
 20
239.254047
 30
0.0
 10
33.391471
 20
239.347754
 30
0.0
 10
33.518251
 20
239.394607
 30
0.0
 10
33.661567
 20
239.394607
 30
0.0
  0
SPLINE
  5
1ee
100
AcDbEntity
  8
Layer_1
 62
3
100
AcDbSpline
 70
8
 71
3
 72
8
 73
4
 74
0
 40
0
 40
0
 40
0
 40
0
 40
1
 40
1
 40
1
 40
1
 10
33.661567
 20
239.394607
 30
0.0
 10
33.722200
 20
239.394607
 30
0.0
 10
33.788346
 20
239.383584
 30
0.0
 10
33.860004
 20
239.361537
 30
0.0
  0
SPLINE
  5
1ef
100
AcDbEntity
  8
Layer_1
 62
3
100
AcDbSpline
 70
8
 71
3
 72
8
 73
4
 74
0
 40
0
 40
0
 40
0
 40
0
 40
1
 40
1
 40
1
 40
1
 10
33.860004
 20
239.361537
 30
0.0
 10
33.926151
 20
239.344997
 30
0.0
 10
33.989541
 20
239.314680
 30
0.0
 10
34.050174
 20
239.270587
 30
0.0
  0
SPLINE
  5
1f0
100
AcDbEntity
  8
Layer_1
 62
3
100
AcDbSpline
 70
8
 71
3
 72
8
 73
4
 74
0
 40
0
 40
0
 40
0
 40
0
 40
1
 40
1
 40
1
 40
1
 10
34.050174
 20
239.270587
 30
0.0
 10
34.276172
 20
239.094198
 30
0.0
 10
34.469097
 20
238.876467
 30
0.0
 10
34.628950
 20
238.617396
 30
0.0
  0
SPLINE
  5
1f1
100
AcDbEntity
  8
Layer_1
 62
3
100
AcDbSpline
 70
8
 71
3
 72
8
 73
4
 74
0
 40
0
 40
0
 40
0
 40
0
 40
1
 40
1
 40
1
 40
1
 10
34.628950
 20
238.617396
 30
0.0
 10
34.788802
 20
238.363837
 30
0.0
 10
34.918337
 20
238.088230
 30
0.0
 10
35.017556
 20
237.790574
 30
0.0
  0
SPLINE
  5
1f2
100
AcDbEntity
  8
Layer_1
 62
3
100
AcDbSpline
 70
8
 71
3
 72
8
 73
4
 74
0
 40
0
 40
0
 40
0
 40
0
 40
1
 40
1
 40
1
 40
1
 10
35.017556
 20
237.790574
 30
0.0
 10
35.116775
 20
237.492917
 30
0.0
 10
35.188433
 20
237.184237
 30
0.0
 10
35.232530
 20
236.864532
 30
0.0
  0
SPLINE
  5
1f3
100
AcDbEntity
  8
Layer_1
 62
3
100
AcDbSpline
 70
8
 71
3
 72
8
 73
4
 74
0
 40
0
 40
0
 40
0
 40
0
 40
1
 40
1
 40
1
 40
1
 10
35.232530
 20
236.864532
 30
0.0
 10
35.282137
 20
236.550339
 30
0.0
 10
35.306940
 20
236.244415
 30
0.0
 10
35.306940
 20
235.946759
 30
0.0
  0
SPLINE
  5
1f4
100
AcDbEntity
  8
Layer_1
 62
3
100
AcDbSpline
 70
8
 71
3
 72
8
 73
4
 74
0
 40
0
 40
0
 40
0
 40
0
 40
1
 40
1
 40
1
 40
1
 10
35.306940
 20
235.946759
 30
0.0
 10
35.306940
 20
235.345934
 30
0.0
 10
35.207721
 20
234.786451
 30
0.0
 10
35.009284
 20
234.268308
 30
0.0
  0
SPLINE
  5
1f5
100
AcDbEntity
  8
Layer_1
 62
3
100
AcDbSpline
 70
8
 71
3
 72
8
 73
4
 74
0
 40
0
 40
0
 40
0
 40
0
 40
1
 40
1
 40
1
 40
1
 10
35.009284
 20
234.268308
 30
0.0
 10
34.810847
 20
233.750166
 30
0.0
 10
34.524215
 20
233.298170
 30
0.0
 10
34.149388
 20
232.912319
 30
0.0
  0
SPLINE
  5
1f6
100
AcDbEntity
  8
Layer_1
 62
3
100
AcDbSpline
 70
8
 71
3
 72
8
 73
4
 74
0
 40
0
 40
0
 40
0
 40
0
 40
1
 40
1
 40
1
 40
1
 10
34.149388
 20
232.912319
 30
0.0
 10
33.769050
 20
232.531980
 30
0.0
 10
33.303273
 20
232.231568
 30
0.0
 10
32.752058
 20
232.011082
 30
0.0
  0
SPLINE
  5
1f7
100
AcDbEntity
  8
Layer_1
 62
3
100
AcDbSpline
 70
8
 71
3
 72
8
 73
4
 74
0
 40
0
 40
0
 40
0
 40
0
 40
1
 40
1
 40
1
 40
1
 10
32.752058
 20
232.011082
 30
0.0
 10
32.195331
 20
231.796108
 30
0.0
 10
31.622067
 20
231.688621
 30
0.0
 10
31.032266
 20
231.688621
 30
0.0
  0
SPLINE
  5
1f8
100
AcDbEntity
  8
Layer_1
 62
3
100
AcDbSpline
 70
8
 71
3
 72
8
 73
4
 74
0
 40
0
 40
0
 40
0
 40
0
 40
1
 40
1
 40
1
 40
1
 10
31.032266
 20
231.688621
 30
0.0
 10
30.530660
 20
231.688621
 30
0.0
 10
30.020786
 20
231.790596
 30
0.0
 10
29.502644
 20
231.994545
 30
0.0
  0
SPLINE
  5
1f9
100
AcDbEntity
  8
Layer_1
 62
3
100
AcDbSpline
 70
8
 71
3
 72
8
 73
4
 74
0
 40
0
 40
0
 40
0
 40
0
 40
1
 40
1
 40
1
 40
1
 10
29.502644
 20
231.994545
 30
0.0
 10
28.984501
 20
232.198495
 30
0.0
 10
28.532505
 20
232.476859
 30
0.0
 10
28.146654
 20
232.829636
 30
0.0
  0
SPLINE
  5
1fa
100
AcDbEntity
  8
Layer_1
 62
3
100
AcDbSpline
 70
8
 71
3
 72
8
 73
4
 74
0
 40
0
 40
0
 40
0
 40
0
 40
1
 40
1
 40
1
 40
1
 10
28.146654
 20
232.829636
 30
0.0
 10
27.760803
 20
233.187926
 30
0.0
 10
27.446611
 20
233.615118
 30
0.0
 10
27.204076
 20
234.111212
 30
0.0
  0
SPLINE
  5
1fb
100
AcDbEntity
  8
Layer_1
 62
3
100
AcDbSpline
 70
8
 71
3
 72
8
 73
4
 74
0
 40
0
 40
0
 40
0
 40
0
 40
1
 40
1
 40
1
 40
1
 10
27.204076
 20
234.111212
 30
0.0
 10
26.956029
 20
234.612818
 30
0.0
 10
26.832006
 20
235.194350
 30
0.0
 10
26.832006
 20
235.855808
 30
0.0
  0
SPLINE
  5
1fc
100
AcDbEntity
  8
Layer_1
 62
3
100
AcDbSpline
 70
8
 71
3
 72
8
 73
4
 74
0
 40
0
 40
0
 40
0
 40
0
 40
1
 40
1
 40
1
 40
1
 10
26.832006
 20
235.855808
 30
0.0
 10
26.832006
 20
236.533803
 30
0.0
 10
26.939493
 20
237.118091
 30
0.0
 10
27.154467
 20
237.608673
 30
0.0
  0
SPLINE
  5
1fd
100
AcDbEntity
  8
Layer_1
 62
3
100
AcDbSpline
 70
8
 71
3
 72
8
 73
4
 74
0
 40
0
 40
0
 40
0
 40
0
 40
1
 40
1
 40
1
 40
1
 10
27.154467
 20
237.608673
 30
0.0
 10
27.369441
 20
238.104766
 30
0.0
 10
27.656073
 20
238.515422
 30
0.0
 10
28.014363
 20
238.840639
 30
0.0
  0
SPLINE
  5
1fe
100
AcDbEntity
  8
Layer_1
 62
3
100
AcDbSpline
 70
8
 71
3
 72
8
 73
4
 74
0
 40
0
 40
0
 40
0
 40
0
 40
1
 40
1
 40
1
 40
1
 10
28.014363
 20
238.840639
 30
0.0
 10
28.372653
 20
239.171368
 30
0.0
 10
28.802601
 20
239.419414
 30
0.0
 10
29.304206
 20
239.584779
 30
0.0
  0
SPLINE
  5
1ff
100
AcDbEntity
  8
Layer_1
 62
3
100
AcDbSpline
 70
8
 71
3
 72
8
 73
4
 74
0
 40
0
 40
0
 40
0
 40
0
 40
1
 40
1
 40
1
 40
1
 10
29.304206
 20
239.584779
 30
0.0
 10
29.800300
 20
239.755656
 30
0.0
 10
30.299150
 20
239.846606
 30
0.0
 10
30.800756
 20
239.857631
 30
0.0
  0
LWPOLYLINE
  5
200
100
AcDbEntity
  8
Layer_1
 62
3
100
AcDbPolyline
 90
2
 70
0
 10
31.362995
 20
239.270584
 30
0.0
 10
31.362995
 20
233.639920
 30
0.0
  0
SPLINE
  5
201
100
AcDbEntity
  8
Layer_1
 62
3
100
AcDbSpline
 70
8
 71
3
 72
8
 73
4
 74
0
 40
0
 40
0
 40
0
 40
0
 40
1
 40
1
 40
1
 40
1
 10
30.370808
 20
238.137836
 30
0.0
 10
30.106225
 20
238.115789
 30
0.0
 10
29.825105
 20
238.052400
 30
0.0
 10
29.527449
 20
237.947667
 30
0.0
  0
SPLINE
  5
202
100
AcDbEntity
  8
Layer_1
 62
3
100
AcDbSpline
 70
8
 71
3
 72
8
 73
4
 74
0
 40
0
 40
0
 40
0
 40
0
 40
1
 40
1
 40
1
 40
1
 10
29.527449
 20
237.947667
 30
0.0
 10
29.229792
 20
237.842936
 30
0.0
 10
28.976233
 20
237.694108
 30
0.0
 10
28.766772
 20
237.501183
 30
0.0
  0
SPLINE
  5
203
100
AcDbEntity
  8
Layer_1
 62
3
100
AcDbSpline
 70
8
 71
3
 72
8
 73
4
 74
0
 40
0
 40
0
 40
0
 40
0
 40
1
 40
1
 40
1
 40
1
 10
28.766772
 20
237.501183
 30
0.0
 10
28.551798
 20
237.313770
 30
0.0
 10
28.391945
 20
237.082259
 30
0.0
 10
28.287214
 20
236.806651
 30
0.0
  0
SPLINE
  5
204
100
AcDbEntity
  8
Layer_1
 62
3
100
AcDbSpline
 70
8
 71
3
 72
8
 73
4
 74
0
 40
0
 40
0
 40
0
 40
0
 40
1
 40
1
 40
1
 40
1
 10
28.287214
 20
236.806651
 30
0.0
 10
28.176971
 20
236.536556
 30
0.0
 10
28.121850
 20
236.225119
 30
0.0
 10
28.121850
 20
235.872341
 30
0.0
  0
SPLINE
  5
205
100
AcDbEntity
  8
Layer_1
 62
3
100
AcDbSpline
 70
8
 71
3
 72
8
 73
4
 74
0
 40
0
 40
0
 40
0
 40
0
 40
1
 40
1
 40
1
 40
1
 10
28.121850
 20
235.872341
 30
0.0
 10
28.121850
 20
235.552636
 30
0.0
 10
28.179727
 20
235.260492
 30
0.0
 10
28.295482
 20
234.995909
 30
0.0
  0
SPLINE
  5
206
100
AcDbEntity
  8
Layer_1
 62
3
100
AcDbSpline
 70
8
 71
3
 72
8
 73
4
 74
0
 40
0
 40
0
 40
0
 40
0
 40
1
 40
1
 40
1
 40
1
 10
28.295482
 20
234.995909
 30
0.0
 10
28.411237
 20
234.736838
 30
0.0
 10
28.579358
 20
234.510840
 30
0.0
 10
28.799844
 20
234.317914
 30
0.0
  0
SPLINE
  5
207
100
AcDbEntity
  8
Layer_1
 62
3
100
AcDbSpline
 70
8
 71
3
 72
8
 73
4
 74
0
 40
0
 40
0
 40
0
 40
0
 40
1
 40
1
 40
1
 40
1
 10
28.799844
 20
234.317914
 30
0.0
 10
29.020331
 20
234.130501
 30
0.0
 10
29.276646
 20
233.978917
 30
0.0
 10
29.568790
 20
233.863162
 30
0.0
  0
SPLINE
  5
208
100
AcDbEntity
  8
Layer_1
 62
3
100
AcDbSpline
 70
8
 71
3
 72
8
 73
4
 74
0
 40
0
 40
0
 40
0
 40
0
 40
1
 40
1
 40
1
 40
1
 10
29.568790
 20
233.863162
 30
0.0
 10
29.860934
 20
233.747407
 30
0.0
 10
30.128273
 20
233.678505
 30
0.0
 10
30.370808
 20
233.656456
 30
0.0
  0
LWPOLYLINE
  5
209
100
AcDbEntity
  8
Layer_1
 62
3
100
AcDbPolyline
 90
1
 70
1
 10
30.800756
 20
239.857631
 30
0.0
  0
SPLINE
  5
20a
100
AcDbEntity
  8
Layer_1
 62
3
100
AcDbSpline
 70
8
 71
3
 72
8
 73
4
 74
0
 40
0
 40
0
 40
0
 40
0
 40
1
 40
1
 40
1
 40
1
 10
27.840730
 20
241.736169
 30
0.0
 10
27.691902
 20
241.736169
 30
0.0
 10
27.559610
 20
241.763729
 30
0.0
 10
27.443855
 20
241.818849
 30
0.0
  0
SPLINE
  5
20b
100
AcDbEntity
  8
Layer_1
 62
3
100
AcDbSpline
 70
8
 71
3
 72
8
 73
4
 74
0
 40
0
 40
0
 40
0
 40
0
 40
1
 40
1
 40
1
 40
1
 10
27.443855
 20
241.818849
 30
0.0
 10
27.328100
 20
241.879482
 30
0.0
 10
27.234393
 20
241.953896
 30
0.0
 10
27.162735
 20
242.042091
 30
0.0
  0
SPLINE
  5
20c
100
AcDbEntity
  8
Layer_1
 62
3
100
AcDbSpline
 70
8
 71
3
 72
8
 73
4
 74
0
 40
0
 40
0
 40
0
 40
0
 40
1
 40
1
 40
1
 40
1
 10
27.162735
 20
242.042091
 30
0.0
 10
27.085565
 20
242.135798
 30
0.0
 10
27.027687
 20
242.240529
 30
0.0
 10
26.989102
 20
242.356284
 30
0.0
  0
SPLINE
  5
20d
100
AcDbEntity
  8
Layer_1
 62
3
100
AcDbSpline
 70
8
 71
3
 72
8
 73
4
 74
0
 40
0
 40
0
 40
0
 40
0
 40
1
 40
1
 40
1
 40
1
 10
26.989102
 20
242.356284
 30
0.0
 10
26.950515
 20
242.477551
 30
0.0
 10
26.931222
 20
242.598819
 30
0.0
 10
26.931222
 20
242.720086
 30
0.0
  0
SPLINE
  5
20e
100
AcDbEntity
  8
Layer_1
 62
3
100
AcDbSpline
 70
8
 71
3
 72
8
 73
4
 74
0
 40
0
 40
0
 40
0
 40
0
 40
1
 40
1
 40
1
 40
1
 10
26.931222
 20
242.720086
 30
0.0
 10
26.931222
 20
242.835841
 30
0.0
 10
26.950515
 20
242.948841
 30
0.0
 10
26.989102
 20
243.059084
 30
0.0
  0
SPLINE
  5
20f
100
AcDbEntity
  8
Layer_1
 62
3
100
AcDbSpline
 70
8
 71
3
 72
8
 73
4
 74
0
 40
0
 40
0
 40
0
 40
0
 40
1
 40
1
 40
1
 40
1
 10
26.989102
 20
243.059084
 30
0.0
 10
27.022175
 20
243.169327
 30
0.0
 10
27.074541
 20
243.268545
 30
0.0
 10
27.146199
 20
243.356740
 30
0.0
  0
SPLINE
  5
210
100
AcDbEntity
  8
Layer_1
 62
3
100
AcDbSpline
 70
8
 71
3
 72
8
 73
4
 74
0
 40
0
 40
0
 40
0
 40
0
 40
1
 40
1
 40
1
 40
1
 10
27.146199
 20
243.356740
 30
0.0
 10
27.212346
 20
243.444934
 30
0.0
 10
27.300540
 20
243.516592
 30
0.0
 10
27.410782
 20
243.571714
 30
0.0
  0
SPLINE
  5
211
100
AcDbEntity
  8
Layer_1
 62
3
100
AcDbSpline
 70
8
 71
3
 72
8
 73
4
 74
0
 40
0
 40
0
 40
0
 40
0
 40
1
 40
1
 40
1
 40
1
 10
27.410782
 20
243.571714
 30
0.0
 10
27.515513
 20
243.632347
 30
0.0
 10
27.639536
 20
243.665421
 30
0.0
 10
27.782852
 20
243.670934
 30
0.0
  0
SPLINE
  5
212
100
AcDbEntity
  8
Layer_1
 62
3
100
AcDbSpline
 70
8
 71
3
 72
8
 73
4
 74
0
 40
0
 40
0
 40
0
 40
0
 40
1
 40
1
 40
1
 40
1
 10
27.782852
 20
243.670934
 30
0.0
 10
27.788385
 20
243.670934
 30
0.0
 10
27.824214
 20
243.670934
 30
0.0
 10
27.890339
 20
243.670934
 30
0.0
  0
SPLINE
  5
213
100
AcDbEntity
  8
Layer_1
 62
3
100
AcDbSpline
 70
8
 71
3
 72
8
 73
4
 74
0
 40
0
 40
0
 40
0
 40
0
 40
1
 40
1
 40
1
 40
1
 10
27.890339
 20
243.670934
 30
0.0
 10
27.956486
 20
243.676467
 30
0.0
 10
28.033656
 20
243.679234
 30
0.0
 10
28.121850
 20
243.679234
 30
0.0
  0
SPLINE
  5
214
100
AcDbEntity
  8
Layer_1
 62
3
100
AcDbSpline
 70
8
 71
3
 72
8
 73
4
 74
0
 40
0
 40
0
 40
0
 40
0
 40
1
 40
1
 40
1
 40
1
 10
28.121850
 20
243.679234
 30
0.0
 10
28.204532
 20
243.679234
 30
0.0
 10
28.278946
 20
243.679234
 30
0.0
 10
28.345092
 20
243.679234
 30
0.0
  0
SPLINE
  5
215
100
AcDbEntity
  8
Layer_1
 62
3
100
AcDbSpline
 70
8
 71
3
 72
8
 73
4
 74
0
 40
0
 40
0
 40
0
 40
0
 40
1
 40
1
 40
1
 40
1
 10
28.345092
 20
243.679234
 30
0.0
 10
28.411239
 20
243.679234
 30
0.0
 10
28.447068
 20
243.679234
 30
0.0
 10
28.452579
 20
243.679234
 30
0.0
  0
SPLINE
  5
216
100
AcDbEntity
  8
Layer_1
 62
3
100
AcDbSpline
 70
8
 71
3
 72
8
 73
4
 74
0
 40
0
 40
0
 40
0
 40
0
 40
1
 40
1
 40
1
 40
1
 10
28.452579
 20
243.679234
 30
0.0
 10
27.984046
 20
243.806013
 30
0.0
 10
27.598195
 20
244.048548
 30
0.0
 10
27.295027
 20
244.406838
 30
0.0
  0
SPLINE
  5
217
100
AcDbEntity
  8
Layer_1
 62
3
100
AcDbSpline
 70
8
 71
3
 72
8
 73
4
 74
0
 40
0
 40
0
 40
0
 40
0
 40
1
 40
1
 40
1
 40
1
 10
27.295027
 20
244.406838
 30
0.0
 10
26.986346
 20
244.765128
 30
0.0
 10
26.832006
 20
245.244685
 30
0.0
 10
26.832006
 20
245.845510
 30
0.0
  0
SPLINE
  5
218
100
AcDbEntity
  8
Layer_1
 62
3
100
AcDbSpline
 70
8
 71
3
 72
8
 73
4
 74
0
 40
0
 40
0
 40
0
 40
0
 40
1
 40
1
 40
1
 40
1
 10
26.832006
 20
245.845510
 30
0.0
 10
26.832006
 20
245.983313
 30
0.0
 10
26.856809
 20
246.104581
 30
0.0
 10
26.906416
 20
246.209312
 30
0.0
  0
SPLINE
  5
219
100
AcDbEntity
  8
Layer_1
 62
3
100
AcDbSpline
 70
8
 71
3
 72
8
 73
4
 74
0
 40
0
 40
0
 40
0
 40
0
 40
1
 40
1
 40
1
 40
1
 10
26.906416
 20
246.209312
 30
0.0
 10
26.950516
 20
246.319555
 30
0.0
 10
27.008394
 20
246.410505
 30
0.0
 10
27.080049
 20
246.482163
 30
0.0
  0
SPLINE
  5
21a
100
AcDbEntity
  8
Layer_1
 62
3
100
AcDbSpline
 70
8
 71
3
 72
8
 73
4
 74
0
 40
0
 40
0
 40
0
 40
0
 40
1
 40
1
 40
1
 40
1
 10
27.080049
 20
246.482163
 30
0.0
 10
27.151707
 20
246.553821
 30
0.0
 10
27.234389
 20
246.606187
 30
0.0
 10
27.328096
 20
246.639260
 30
0.0
  0
SPLINE
  5
21b
100
AcDbEntity
  8
Layer_1
 62
3
100
AcDbSpline
 70
8
 71
3
 72
8
 73
4
 74
0
 40
0
 40
0
 40
0
 40
0
 40
1
 40
1
 40
1
 40
1
 10
27.328096
 20
246.639260
 30
0.0
 10
27.421803
 20
246.677847
 30
0.0
 10
27.518265
 20
246.697140
 30
0.0
 10
27.617484
 20
246.697140
 30
0.0
  0
SPLINE
  5
21c
100
AcDbEntity
  8
Layer_1
 62
3
100
AcDbSpline
 70
8
 71
3
 72
8
 73
4
 74
0
 40
0
 40
0
 40
0
 40
0
 40
1
 40
1
 40
1
 40
1
 10
27.617484
 20
246.697140
 30
0.0
 10
27.716703
 20
246.697140
 30
0.0
 10
27.813165
 20
246.677847
 30
0.0
 10
27.906872
 20
246.639260
 30
0.0
  0
SPLINE
  5
21d
100
AcDbEntity
  8
Layer_1
 62
3
100
AcDbSpline
 70
8
 71
3
 72
8
 73
4
 74
0
 40
0
 40
0
 40
0
 40
0
 40
1
 40
1
 40
1
 40
1
 10
27.906872
 20
246.639260
 30
0.0
 10
28.000579
 20
246.606187
 30
0.0
 10
28.086017
 20
246.551065
 30
0.0
 10
28.163187
 20
246.473895
 30
0.0
  0
SPLINE
  5
21e
100
AcDbEntity
  8
Layer_1
 62
3
100
AcDbSpline
 70
8
 71
3
 72
8
 73
4
 74
0
 40
0
 40
0
 40
0
 40
0
 40
1
 40
1
 40
1
 40
1
 10
28.163187
 20
246.473895
 30
0.0
 10
28.234845
 20
246.402237
 30
0.0
 10
28.295479
 20
246.308530
 30
0.0
 10
28.345088
 20
246.192775
 30
0.0
  0
SPLINE
  5
21f
100
AcDbEntity
  8
Layer_1
 62
3
100
AcDbSpline
 70
8
 71
3
 72
8
 73
4
 74
0
 40
0
 40
0
 40
0
 40
0
 40
1
 40
1
 40
1
 40
1
 10
28.345088
 20
246.192775
 30
0.0
 10
28.389188
 20
246.082532
 30
0.0
 10
28.411238
 20
245.952997
 30
0.0
 10
28.411238
 20
245.804168
 30
0.0
  0
SPLINE
  5
220
100
AcDbEntity
  8
Layer_1
 62
3
100
AcDbSpline
 70
8
 71
3
 72
8
 73
4
 74
0
 40
0
 40
0
 40
0
 40
0
 40
1
 40
1
 40
1
 40
1
 10
28.411238
 20
245.804168
 30
0.0
 10
28.411238
 20
245.484463
 30
0.0
 10
28.458091
 20
245.192319
 30
0.0
 10
28.551798
 20
244.927736
 30
0.0
  0
SPLINE
  5
221
100
AcDbEntity
  8
Layer_1
 62
3
100
AcDbSpline
 70
8
 71
3
 72
8
 73
4
 74
0
 40
0
 40
0
 40
0
 40
0
 40
1
 40
1
 40
1
 40
1
 10
28.551798
 20
244.927736
 30
0.0
 10
28.645504
 20
244.668665
 30
0.0
 10
28.788820
 20
244.445423
 30
0.0
 10
28.981745
 20
244.258010
 30
0.0
  0
SPLINE
  5
222
100
AcDbEntity
  8
Layer_1
 62
3
100
AcDbSpline
 70
8
 71
3
 72
8
 73
4
 74
0
 40
0
 40
0
 40
0
 40
0
 40
1
 40
1
 40
1
 40
1
 10
28.981745
 20
244.258010
 30
0.0
 10
29.169158
 20
244.076109
 30
0.0
 10
29.386889
 20
243.932793
 30
0.0
 10
29.634936
 20
243.828062
 30
0.0
  0
SPLINE
  5
223
100
AcDbEntity
  8
Layer_1
 62
3
100
AcDbSpline
 70
8
 71
3
 72
8
 73
4
 74
0
 40
0
 40
0
 40
0
 40
0
 40
1
 40
1
 40
1
 40
1
 10
29.634936
 20
243.828062
 30
0.0
 10
29.882983
 20
243.728843
 30
0.0
 10
30.199931
 20
243.679234
 30
0.0
 10
30.585782
 20
243.679234
 30
0.0
  0
LWPOLYLINE
  5
224
100
AcDbEntity
  8
Layer_1
 62
3
100
AcDbPolyline
 90
2
 70
0
 10
30.370808
 20
233.656456
 30
0.0
 10
30.370808
 20
238.137836
 30
0.0
  0
SPLINE
  5
225
100
AcDbEntity
  8
Layer_1
 62
3
100
AcDbSpline
 70
8
 71
3
 72
8
 73
4
 74
0
 40
0
 40
0
 40
0
 40
0
 40
1
 40
1
 40
1
 40
1
 10
34.289948
 20
243.679234
 30
0.0
 10
34.444289
 20
243.679234
 30
0.0
 10
34.579337
 20
243.648917
 30
0.0
 10
34.695092
 20
243.588284
 30
0.0
  0
SPLINE
  5
226
100
AcDbEntity
  8
Layer_1
 62
3
100
AcDbSpline
 70
8
 71
3
 72
8
 73
4
 74
0
 40
0
 40
0
 40
0
 40
0
 40
1
 40
1
 40
1
 40
1
 10
34.695092
 20
243.588284
 30
0.0
 10
34.805335
 20
243.533164
 30
0.0
 10
34.899041
 20
243.458750
 30
0.0
 10
34.976211
 20
243.365042
 30
0.0
  0
SPLINE
  5
227
100
AcDbEntity
  8
Layer_1
 62
3
100
AcDbSpline
 70
8
 71
3
 72
8
 73
4
 74
0
 40
0
 40
0
 40
0
 40
0
 40
1
 40
1
 40
1
 40
1
 10
34.976211
 20
243.365042
 30
0.0
 10
35.053382
 20
243.276847
 30
0.0
 10
35.111259
 20
243.172116
 30
0.0
 10
35.149844
 20
243.050849
 30
0.0
  0
SPLINE
  5
228
100
AcDbEntity
  8
Layer_1
 62
3
100
AcDbSpline
 70
8
 71
3
 72
8
 73
4
 74
0
 40
0
 40
0
 40
0
 40
0
 40
1
 40
1
 40
1
 40
1
 10
35.149844
 20
243.050849
 30
0.0
 10
35.188431
 20
242.935094
 30
0.0
 10
35.207724
 20
242.816583
 30
0.0
 10
35.207724
 20
242.695315
 30
0.0
  0
SPLINE
  5
229
100
AcDbEntity
  8
Layer_1
 62
3
100
AcDbSpline
 70
8
 71
3
 72
8
 73
4
 74
0
 40
0
 40
0
 40
0
 40
0
 40
1
 40
1
 40
1
 40
1
 10
35.207724
 20
242.695315
 30
0.0
 10
35.207724
 20
242.574048
 30
0.0
 10
35.188431
 20
242.455537
 30
0.0
 10
35.149844
 20
242.339782
 30
0.0
  0
SPLINE
  5
22a
100
AcDbEntity
  8
Layer_1
 62
3
100
AcDbSpline
 70
8
 71
3
 72
8
 73
4
 74
0
 40
0
 40
0
 40
0
 40
0
 40
1
 40
1
 40
1
 40
1
 10
35.149844
 20
242.339782
 30
0.0
 10
35.111257
 20
242.229539
 30
0.0
 10
35.056136
 20
242.127564
 30
0.0
 10
34.984480
 20
242.033857
 30
0.0
  0
SPLINE
  5
22b
100
AcDbEntity
  8
Layer_1
 62
3
100
AcDbSpline
 70
8
 71
3
 72
8
 73
4
 74
0
 40
0
 40
0
 40
0
 40
0
 40
1
 40
1
 40
1
 40
1
 10
34.984480
 20
242.033857
 30
0.0
 10
34.907309
 20
241.945663
 30
0.0
 10
34.810847
 20
241.874005
 30
0.0
 10
34.695092
 20
241.818883
 30
0.0
  0
SPLINE
  5
22c
100
AcDbEntity
  8
Layer_1
 62
3
100
AcDbSpline
 70
8
 71
3
 72
8
 73
4
 74
0
 40
0
 40
0
 40
0
 40
0
 40
1
 40
1
 40
1
 40
1
 10
34.695092
 20
241.818883
 30
0.0
 10
34.579337
 20
241.763763
 30
0.0
 10
34.444289
 20
241.736203
 30
0.0
 10
34.289948
 20
241.736203
 30
0.0
  0
LWPOLYLINE
  5
22d
100
AcDbEntity
  8
Layer_1
 62
3
100
AcDbPolyline
 90
2
 70
0
 10
30.585782
 20
243.679234
 30
0.0
 10
34.289948
 20
243.679234
 30
0.0
  0
LWPOLYLINE
  5
22e
100
AcDbEntity
  8
Layer_1
 62
3
100
AcDbPolyline
 90
2
 70
0
 10
34.289948
 20
241.736203
 30
0.0
 10
27.840730
 20
241.736169
 30
0.0
  0
SPLINE
  5
22f
100
AcDbEntity
  8
Layer_1
 62
3
100
AcDbSpline
 70
8
 71
3
 72
8
 73
4
 74
0
 40
0
 40
0
 40
0
 40
0
 40
1
 40
1
 40
1
 40
1
 10
33.967487
 20
252.941271
 30
0.0
 10
34.165925
 20
252.897171
 30
0.0
 10
34.342314
 20
252.820001
 30
0.0
 10
34.496654
 20
252.709761
 30
0.0
  0
SPLINE
  5
230
100
AcDbEntity
  8
Layer_1
 62
3
100
AcDbSpline
 70
8
 71
3
 72
8
 73
4
 74
0
 40
0
 40
0
 40
0
 40
0
 40
1
 40
1
 40
1
 40
1
 10
34.496654
 20
252.709761
 30
0.0
 10
34.645482
 20
252.599518
 30
0.0
 10
34.775018
 20
252.467226
 30
0.0
 10
34.885261
 20
252.312886
 30
0.0
  0
SPLINE
  5
231
100
AcDbEntity
  8
Layer_1
 62
3
100
AcDbSpline
 70
8
 71
3
 72
8
 73
4
 74
0
 40
0
 40
0
 40
0
 40
0
 40
1
 40
1
 40
1
 40
1
 10
34.885261
 20
252.312886
 30
0.0
 10
34.989992
 20
252.158545
 30
0.0
 10
35.069918
 20
251.990425
 30
0.0
 10
35.125039
 20
251.808524
 30
0.0
  0
SPLINE
  5
232
100
AcDbEntity
  8
Layer_1
 62
3
100
AcDbSpline
 70
8
 71
3
 72
8
 73
4
 74
0
 40
0
 40
0
 40
0
 40
0
 40
1
 40
1
 40
1
 40
1
 10
35.125039
 20
251.808524
 30
0.0
 10
35.180159
 20
251.632135
 30
0.0
 10
35.207719
 20
251.450234
 30
0.0
 10
35.207719
 20
251.262821
 30
0.0
  0
SPLINE
  5
233
100
AcDbEntity
  8
Layer_1
 62
3
100
AcDbSpline
 70
8
 71
3
 72
8
 73
4
 74
0
 40
0
 40
0
 40
0
 40
0
 40
1
 40
1
 40
1
 40
1
 10
35.207719
 20
251.262821
 30
0.0
 10
35.207719
 20
251.091944
 30
0.0
 10
35.182916
 20
250.923824
 30
0.0
 10
35.133309
 20
250.758459
 30
0.0
  0
SPLINE
  5
234
100
AcDbEntity
  8
Layer_1
 62
3
100
AcDbSpline
 70
8
 71
3
 72
8
 73
4
 74
0
 40
0
 40
0
 40
0
 40
0
 40
1
 40
1
 40
1
 40
1
 10
35.133309
 20
250.758459
 30
0.0
 10
35.083702
 20
250.598606
 30
0.0
 10
35.009288
 20
250.449778
 30
0.0
 10
34.910066
 20
250.311975
 30
0.0
  0
SPLINE
  5
235
100
AcDbEntity
  8
Layer_1
 62
3
100
AcDbSpline
 70
8
 71
3
 72
8
 73
4
 74
0
 40
0
 40
0
 40
0
 40
0
 40
1
 40
1
 40
1
 40
1
 10
34.910066
 20
250.311975
 30
0.0
 10
34.810847
 20
250.174171
 30
0.0
 10
34.684068
 20
250.052903
 30
0.0
 10
34.529728
 20
249.948172
 30
0.0
  0
SPLINE
  5
236
100
AcDbEntity
  8
Layer_1
 62
3
100
AcDbSpline
 70
8
 71
3
 72
8
 73
4
 74
0
 40
0
 40
0
 40
0
 40
0
 40
1
 40
1
 40
1
 40
1
 10
34.529728
 20
249.948172
 30
0.0
 10
34.369875
 20
249.843441
 30
0.0
 10
34.182462
 20
249.766271
 30
0.0
 10
33.967488
 20
249.716662
 30
0.0
  0
LWPOLYLINE
  5
237
100
AcDbEntity
  8
Layer_1
 62
3
100
AcDbPolyline
 90
2
 70
0
 10
25.360261
 20
255.487886
 30
0.0
 10
33.967487
 20
252.941271
 30
0.0
  0
SPLINE
  5
238
100
AcDbEntity
  8
Layer_1
 62
3
100
AcDbSpline
 70
8
 71
3
 72
8
 73
4
 74
0
 40
0
 40
0
 40
0
 40
0
 40
1
 40
1
 40
1
 40
1
 10
24.566512
 20
247.277535
 30
0.0
 10
24.483830
 20
247.255488
 30
0.0
 10
24.395636
 20
247.244465
 30
0.0
 10
24.301929
 20
247.244465
 30
0.0
  0
SPLINE
  5
239
100
AcDbEntity
  8
Layer_1
 62
3
100
AcDbSpline
 70
8
 71
3
 72
8
 73
4
 74
0
 40
0
 40
0
 40
0
 40
0
 40
1
 40
1
 40
1
 40
1
 10
24.301929
 20
247.244465
 30
0.0
 10
24.153101
 20
247.244465
 30
0.0
 10
24.020809
 20
247.277538
 30
0.0
 10
23.905054
 20
247.343685
 30
0.0
  0
SPLINE
  5
23a
100
AcDbEntity
  8
Layer_1
 62
3
100
AcDbSpline
 70
8
 71
3
 72
8
 73
4
 74
0
 40
0
 40
0
 40
0
 40
0
 40
1
 40
1
 40
1
 40
1
 10
23.905054
 20
247.343685
 30
0.0
 10
23.783787
 20
247.409832
 30
0.0
 10
23.681812
 20
247.492514
 30
0.0
 10
23.599130
 20
247.591732
 30
0.0
  0
SPLINE
  5
23b
100
AcDbEntity
  8
Layer_1
 62
3
100
AcDbSpline
 70
8
 71
3
 72
8
 73
4
 74
0
 40
0
 40
0
 40
0
 40
0
 40
1
 40
1
 40
1
 40
1
 10
23.599130
 20
247.591732
 30
0.0
 10
23.516447
 20
247.696463
 30
0.0
 10
23.453057
 20
247.814975
 30
0.0
 10
23.408960
 20
247.947266
 30
0.0
  0
SPLINE
  5
23c
100
AcDbEntity
  8
Layer_1
 62
3
100
AcDbSpline
 70
8
 71
3
 72
8
 73
4
 74
0
 40
0
 40
0
 40
0
 40
0
 40
1
 40
1
 40
1
 40
1
 10
23.408960
 20
247.947266
 30
0.0
 10
23.359353
 20
248.079558
 30
0.0
 10
23.334550
 20
248.211850
 30
0.0
 10
23.334550
 20
248.344141
 30
0.0
  0
SPLINE
  5
23d
100
AcDbEntity
  8
Layer_1
 62
3
100
AcDbSpline
 70
8
 71
3
 72
8
 73
4
 74
0
 40
0
 40
0
 40
0
 40
0
 40
1
 40
1
 40
1
 40
1
 10
23.334550
 20
248.344141
 30
0.0
 10
23.334550
 20
248.548091
 30
0.0
 10
23.392428
 20
248.732748
 30
0.0
 10
23.508183
 20
248.898112
 30
0.0
  0
SPLINE
  5
23e
100
AcDbEntity
  8
Layer_1
 62
3
100
AcDbSpline
 70
8
 71
3
 72
8
 73
4
 74
0
 40
0
 40
0
 40
0
 40
0
 40
1
 40
1
 40
1
 40
1
 10
23.508183
 20
248.898112
 30
0.0
 10
23.618426
 20
249.068989
 30
0.0
 10
23.800327
 20
249.179232
 30
0.0
 10
24.053886
 20
249.228842
 30
0.0
  0
LWPOLYLINE
  5
23f
100
AcDbEntity
  8
Layer_1
 62
3
100
AcDbPolyline
 90
2
 70
0
 10
33.967488
 20
249.716662
 30
0.0
 10
24.566512
 20
247.277535
 30
0.0
  0
SPLINE
  5
240
100
AcDbEntity
  8
Layer_1
 62
3
100
AcDbSpline
 70
8
 71
3
 72
8
 73
4
 74
0
 40
0
 40
0
 40
0
 40
0
 40
1
 40
1
 40
1
 40
1
 10
24.500371
 20
254.049219
 30
0.0
 10
24.301933
 20
254.093319
 30
0.0
 10
24.128300
 20
254.162221
 30
0.0
 10
23.979472
 20
254.255925
 30
0.0
  0
SPLINE
  5
241
100
AcDbEntity
  8
Layer_1
 62
3
100
AcDbSpline
 70
8
 71
3
 72
8
 73
4
 74
0
 40
0
 40
0
 40
0
 40
0
 40
1
 40
1
 40
1
 40
1
 10
23.979472
 20
254.255925
 30
0.0
 10
23.830644
 20
254.355144
 30
0.0
 10
23.706621
 20
254.468143
 30
0.0
 10
23.607402
 20
254.594922
 30
0.0
  0
SPLINE
  5
242
100
AcDbEntity
  8
Layer_1
 62
3
100
AcDbSpline
 70
8
 71
3
 72
8
 73
4
 74
0
 40
0
 40
0
 40
0
 40
0
 40
1
 40
1
 40
1
 40
1
 10
23.607402
 20
254.594922
 30
0.0
 10
23.508183
 20
254.727213
 30
0.0
 10
23.433769
 20
254.870529
 30
0.0
 10
23.384160
 20
255.024870
 30
0.0
  0
SPLINE
  5
243
100
AcDbEntity
  8
Layer_1
 62
3
100
AcDbSpline
 70
8
 71
3
 72
8
 73
4
 74
0
 40
0
 40
0
 40
0
 40
0
 40
1
 40
1
 40
1
 40
1
 10
23.384160
 20
255.024870
 30
0.0
 10
23.334553
 20
255.179210
 30
0.0
 10
23.309750
 20
255.336306
 30
0.0
 10
23.309750
 20
255.496159
 30
0.0
  0
SPLINE
  5
244
100
AcDbEntity
  8
Layer_1
 62
3
100
AcDbSpline
 70
8
 71
3
 72
8
 73
4
 74
0
 40
0
 40
0
 40
0
 40
0
 40
1
 40
1
 40
1
 40
1
 10
23.309750
 20
255.496159
 30
0.0
 10
23.309750
 20
255.656012
 30
0.0
 10
23.334553
 20
255.813108
 30
0.0
 10
23.384160
 20
255.967448
 30
0.0
  0
SPLINE
  5
245
100
AcDbEntity
  8
Layer_1
 62
3
100
AcDbSpline
 70
8
 71
3
 72
8
 73
4
 74
0
 40
0
 40
0
 40
0
 40
0
 40
1
 40
1
 40
1
 40
1
 10
23.384160
 20
255.967448
 30
0.0
 10
23.433767
 20
256.121788
 30
0.0
 10
23.508181
 20
256.265104
 30
0.0
 10
23.607402
 20
256.397396
 30
0.0
  0
SPLINE
  5
246
100
AcDbEntity
  8
Layer_1
 62
3
100
AcDbSpline
 70
8
 71
3
 72
8
 73
4
 74
0
 40
0
 40
0
 40
0
 40
0
 40
1
 40
1
 40
1
 40
1
 10
23.607402
 20
256.397396
 30
0.0
 10
23.706621
 20
256.529687
 30
0.0
 10
23.830644
 20
256.645442
 30
0.0
 10
23.979472
 20
256.744661
 30
0.0
  0
SPLINE
  5
247
100
AcDbEntity
  8
Layer_1
 62
3
100
AcDbSpline
 70
8
 71
3
 72
8
 73
4
 74
0
 40
0
 40
0
 40
0
 40
0
 40
1
 40
1
 40
1
 40
1
 10
23.979472
 20
256.744661
 30
0.0
 10
24.128300
 20
256.843880
 30
0.0
 10
24.301933
 20
256.915538
 30
0.0
 10
24.500371
 20
256.959635
 30
0.0
  0
LWPOLYLINE
  5
248
100
AcDbEntity
  8
Layer_1
 62
3
100
AcDbPolyline
 90
3
 70
0
 10
24.053886
 20
249.228842
 30
0.0
 10
33.264693
 20
251.428190
 30
0.0
 10
24.500371
 20
254.049219
 30
0.0
  0
SPLINE
  5
249
100
AcDbEntity
  8
Layer_1
 62
3
100
AcDbSpline
 70
8
 71
3
 72
8
 73
4
 74
0
 40
0
 40
0
 40
0
 40
0
 40
1
 40
1
 40
1
 40
1
 10
24.070423
 20
261.854427
 30
0.0
 10
23.805840
 20
261.904034
 30
0.0
 10
23.615670
 20
262.014277
 30
0.0
 10
23.499915
 20
262.185156
 30
0.0
  0
SPLINE
  5
24a
100
AcDbEntity
  8
Layer_1
 62
3
100
AcDbSpline
 70
8
 71
3
 72
8
 73
4
 74
0
 40
0
 40
0
 40
0
 40
0
 40
1
 40
1
 40
1
 40
1
 10
23.499915
 20
262.185156
 30
0.0
 10
23.378648
 20
262.361545
 30
0.0
 10
23.318014
 20
262.551714
 30
0.0
 10
23.318014
 20
262.755664
 30
0.0
  0
SPLINE
  5
24b
100
AcDbEntity
  8
Layer_1
 62
3
100
AcDbSpline
 70
8
 71
3
 72
8
 73
4
 74
0
 40
0
 40
0
 40
0
 40
0
 40
1
 40
1
 40
1
 40
1
 10
23.318014
 20
262.755664
 30
0.0
 10
23.318014
 20
262.882443
 30
0.0
 10
23.340064
 20
263.006467
 30
0.0
 10
23.384164
 20
263.127734
 30
0.0
  0
SPLINE
  5
24c
100
AcDbEntity
  8
Layer_1
 62
3
100
AcDbSpline
 70
8
 71
3
 72
8
 73
4
 74
0
 40
0
 40
0
 40
0
 40
0
 40
1
 40
1
 40
1
 40
1
 10
23.384164
 20
263.127734
 30
0.0
 10
23.428257
 20
263.254513
 30
0.0
 10
23.491647
 20
263.367512
 30
0.0
 10
23.574333
 20
263.466731
 30
0.0
  0
SPLINE
  5
24d
100
AcDbEntity
  8
Layer_1
 62
3
100
AcDbSpline
 70
8
 71
3
 72
8
 73
4
 74
0
 40
0
 40
0
 40
0
 40
0
 40
1
 40
1
 40
1
 40
1
 10
23.574333
 20
263.466731
 30
0.0
 10
23.651503
 20
263.565950
 30
0.0
 10
23.747966
 20
263.645877
 30
0.0
 10
23.863721
 20
263.706510
 30
0.0
  0
SPLINE
  5
24e
100
AcDbEntity
  8
Layer_1
 62
3
100
AcDbSpline
 70
8
 71
3
 72
8
 73
4
 74
0
 40
0
 40
0
 40
0
 40
0
 40
1
 40
1
 40
1
 40
1
 10
23.863721
 20
263.706510
 30
0.0
 10
23.973964
 20
263.767143
 30
0.0
 10
24.100743
 20
263.797460
 30
0.0
 10
24.244059
 20
263.797460
 30
0.0
  0
SPLINE
  5
24f
100
AcDbEntity
  8
Layer_1
 62
3
100
AcDbSpline
 70
8
 71
3
 72
8
 73
4
 74
0
 40
0
 40
0
 40
0
 40
0
 40
1
 40
1
 40
1
 40
1
 10
24.244059
 20
263.797460
 30
0.0
 10
24.332254
 20
263.797460
 30
0.0
 10
24.417692
 20
263.786437
 30
0.0
 10
24.500375
 20
263.764390
 30
0.0
  0
LWPOLYLINE
  5
250
100
AcDbEntity
  8
Layer_1
 62
3
100
AcDbPolyline
 90
3
 70
0
 10
24.500371
 20
256.959635
 30
0.0
 10
33.248157
 20
259.679883
 30
0.0
 10
24.070423
 20
261.854427
 30
0.0
  0
SPLINE
  5
251
100
AcDbEntity
  8
Layer_1
 62
3
100
AcDbSpline
 70
8
 71
3
 72
8
 73
4
 74
0
 40
0
 40
0
 40
0
 40
0
 40
1
 40
1
 40
1
 40
1
 10
33.967496
 20
261.292189
 30
0.0
 10
34.176958
 20
261.242582
 30
0.0
 10
34.361615
 20
261.162656
 30
0.0
 10
34.521468
 20
261.052411
 30
0.0
  0
SPLINE
  5
252
100
AcDbEntity
  8
Layer_1
 62
3
100
AcDbSpline
 70
8
 71
3
 72
8
 73
4
 74
0
 40
0
 40
0
 40
0
 40
0
 40
1
 40
1
 40
1
 40
1
 10
34.521468
 20
261.052411
 30
0.0
 10
34.675808
 20
260.942168
 30
0.0
 10
34.808100
 20
260.812632
 30
0.0
 10
34.918343
 20
260.663804
 30
0.0
  0
SPLINE
  5
253
100
AcDbEntity
  8
Layer_1
 62
3
100
AcDbSpline
 70
8
 71
3
 72
8
 73
4
 74
0
 40
0
 40
0
 40
0
 40
0
 40
1
 40
1
 40
1
 40
1
 10
34.918343
 20
260.663804
 30
0.0
 10
35.023074
 20
260.520488
 30
0.0
 10
35.103000
 20
260.360636
 30
0.0
 10
35.158121
 20
260.184247
 30
0.0
  0
SPLINE
  5
254
100
AcDbEntity
  8
Layer_1
 62
3
100
AcDbSpline
 70
8
 71
3
 72
8
 73
4
 74
0
 40
0
 40
0
 40
0
 40
0
 40
1
 40
1
 40
1
 40
1
 10
35.158121
 20
260.184247
 30
0.0
 10
35.213241
 20
260.013370
 30
0.0
 10
35.240801
 20
259.839737
 30
0.0
 10
35.240801
 20
259.663348
 30
0.0
  0
SPLINE
  5
255
100
AcDbEntity
  8
Layer_1
 62
3
100
AcDbSpline
 70
8
 71
3
 72
8
 73
4
 74
0
 40
0
 40
0
 40
0
 40
0
 40
1
 40
1
 40
1
 40
1
 10
35.240801
 20
259.663348
 30
0.0
 10
35.240801
 20
259.486959
 30
0.0
 10
35.215998
 20
259.313327
 30
0.0
 10
35.166391
 20
259.142450
 30
0.0
  0
SPLINE
  5
256
100
AcDbEntity
  8
Layer_1
 62
3
100
AcDbSpline
 70
8
 71
3
 72
8
 73
4
 74
0
 40
0
 40
0
 40
0
 40
0
 40
1
 40
1
 40
1
 40
1
 10
35.166391
 20
259.142450
 30
0.0
 10
35.111271
 20
258.977085
 30
0.0
 10
35.031345
 20
258.822745
 30
0.0
 10
34.926612
 20
258.679429
 30
0.0
  0
SPLINE
  5
257
100
AcDbEntity
  8
Layer_1
 62
3
100
AcDbSpline
 70
8
 71
3
 72
8
 73
4
 74
0
 40
0
 40
0
 40
0
 40
0
 40
1
 40
1
 40
1
 40
1
 10
34.926612
 20
258.679429
 30
0.0
 10
34.816369
 20
258.536113
 30
0.0
 10
34.684077
 20
258.412090
 30
0.0
 10
34.529737
 20
258.307359
 30
0.0
  0
SPLINE
  5
258
100
AcDbEntity
  8
Layer_1
 62
3
100
AcDbSpline
 70
8
 71
3
 72
8
 73
4
 74
0
 40
0
 40
0
 40
0
 40
0
 40
1
 40
1
 40
1
 40
1
 10
34.529737
 20
258.307359
 30
0.0
 10
34.369884
 20
258.202628
 30
0.0
 10
34.182471
 20
258.125457
 30
0.0
 10
33.967497
 20
258.075848
 30
0.0
  0
LWPOLYLINE
  5
259
100
AcDbEntity
  8
Layer_1
 62
3
100
AcDbPolyline
 90
2
 70
0
 10
24.500375
 20
263.764390
 30
0.0
 10
33.967496
 20
261.292189
 30
0.0
  0
SPLINE
  5
25a
100
AcDbEntity
  8
Layer_1
 62
3
100
AcDbSpline
 70
8
 71
3
 72
8
 73
4
 74
0
 40
0
 40
0
 40
0
 40
0
 40
1
 40
1
 40
1
 40
1
 10
24.186173
 20
267.614899
 30
0.0
 10
24.456268
 20
267.614899
 30
0.0
 10
24.679510
 20
267.507412
 30
0.0
 10
24.855899
 20
267.292438
 30
0.0
  0
SPLINE
  5
25b
100
AcDbEntity
  8
Layer_1
 62
3
100
AcDbSpline
 70
8
 71
3
 72
8
 73
4
 74
0
 40
0
 40
0
 40
0
 40
0
 40
1
 40
1
 40
1
 40
1
 10
24.855899
 20
267.292438
 30
0.0
 10
25.026776
 20
267.077465
 30
0.0
 10
25.112214
 20
266.801857
 30
0.0
 10
25.112214
 20
266.465616
 30
0.0
  0
SPLINE
  5
25c
100
AcDbEntity
  8
Layer_1
 62
3
100
AcDbSpline
 70
8
 71
3
 72
8
 73
4
 74
0
 40
0
 40
0
 40
0
 40
0
 40
1
 40
1
 40
1
 40
1
 10
25.112214
 20
266.465616
 30
0.0
 10
25.112214
 20
266.300251
 30
0.0
 10
25.090164
 20
266.145911
 30
0.0
 10
25.046064
 20
266.002595
 30
0.0
  0
SPLINE
  5
25d
100
AcDbEntity
  8
Layer_1
 62
3
100
AcDbSpline
 70
8
 71
3
 72
8
 73
4
 74
0
 40
0
 40
0
 40
0
 40
0
 40
1
 40
1
 40
1
 40
1
 10
25.046064
 20
266.002595
 30
0.0
 10
24.996457
 20
265.864791
 30
0.0
 10
24.930311
 20
265.743524
 30
0.0
 10
24.847626
 20
265.638793
 30
0.0
  0
SPLINE
  5
25e
100
AcDbEntity
  8
Layer_1
 62
3
100
AcDbSpline
 70
8
 71
3
 72
8
 73
4
 74
0
 40
0
 40
0
 40
0
 40
0
 40
1
 40
1
 40
1
 40
1
 10
24.847626
 20
265.638793
 30
0.0
 10
24.764944
 20
265.539574
 30
0.0
 10
24.668481
 20
265.459648
 30
0.0
 10
24.558238
 20
265.399014
 30
0.0
  0
SPLINE
  5
25f
100
AcDbEntity
  8
Layer_1
 62
3
100
AcDbSpline
 70
8
 71
3
 72
8
 73
4
 74
0
 40
0
 40
0
 40
0
 40
0
 40
1
 40
1
 40
1
 40
1
 10
24.558238
 20
265.399014
 30
0.0
 10
24.442483
 20
265.343894
 30
0.0
 10
24.318459
 20
265.316334
 30
0.0
 10
24.186168
 20
265.316334
 30
0.0
  0
SPLINE
  5
260
100
AcDbEntity
  8
Layer_1
 62
3
100
AcDbSpline
 70
8
 71
3
 72
8
 73
4
 74
0
 40
0
 40
0
 40
0
 40
0
 40
1
 40
1
 40
1
 40
1
 10
24.186168
 20
265.316334
 30
0.0
 10
24.053876
 20
265.316334
 30
0.0
 10
23.932609
 20
265.343894
 30
0.0
 10
23.822366
 20
265.399014
 30
0.0
  0
SPLINE
  5
261
100
AcDbEntity
  8
Layer_1
 62
3
100
AcDbSpline
 70
8
 71
3
 72
8
 73
4
 74
0
 40
0
 40
0
 40
0
 40
0
 40
1
 40
1
 40
1
 40
1
 10
23.822366
 20
265.399014
 30
0.0
 10
23.706611
 20
265.459647
 30
0.0
 10
23.607392
 20
265.539574
 30
0.0
 10
23.524710
 20
265.638793
 30
0.0
  0
SPLINE
  5
262
100
AcDbEntity
  8
Layer_1
 62
3
100
AcDbSpline
 70
8
 71
3
 72
8
 73
4
 74
0
 40
0
 40
0
 40
0
 40
0
 40
1
 40
1
 40
1
 40
1
 10
23.524710
 20
265.638793
 30
0.0
 10
23.442027
 20
265.743524
 30
0.0
 10
23.378637
 20
265.867547
 30
0.0
 10
23.334540
 20
266.010863
 30
0.0
  0
SPLINE
  5
263
100
AcDbEntity
  8
Layer_1
 62
3
100
AcDbSpline
 70
8
 71
3
 72
8
 73
4
 74
0
 40
0
 40
0
 40
0
 40
0
 40
1
 40
1
 40
1
 40
1
 10
23.334540
 20
266.010863
 30
0.0
 10
23.284933
 20
266.154179
 30
0.0
 10
23.260130
 20
266.308519
 30
0.0
 10
23.260130
 20
266.473884
 30
0.0
  0
SPLINE
  5
264
100
AcDbEntity
  8
Layer_1
 62
3
100
AcDbSpline
 70
8
 71
3
 72
8
 73
4
 74
0
 40
0
 40
0
 40
0
 40
0
 40
1
 40
1
 40
1
 40
1
 10
23.260130
 20
266.473884
 30
0.0
 10
23.260130
 20
266.639249
 30
0.0
 10
23.284933
 20
266.790833
 30
0.0
 10
23.334540
 20
266.928636
 30
0.0
  0
SPLINE
  5
265
100
AcDbEntity
  8
Layer_1
 62
3
100
AcDbSpline
 70
8
 71
3
 72
8
 73
4
 74
0
 40
0
 40
0
 40
0
 40
0
 40
1
 40
1
 40
1
 40
1
 10
23.334540
 20
266.928636
 30
0.0
 10
23.378640
 20
267.071952
 30
0.0
 10
23.442030
 20
267.193219
 30
0.0
 10
23.524710
 20
267.292438
 30
0.0
  0
SPLINE
  5
266
100
AcDbEntity
  8
Layer_1
 62
3
100
AcDbSpline
 70
8
 71
3
 72
8
 73
4
 74
0
 40
0
 40
0
 40
0
 40
0
 40
1
 40
1
 40
1
 40
1
 10
23.524710
 20
267.292438
 30
0.0
 10
23.607392
 20
267.391657
 30
0.0
 10
23.706611
 20
267.468828
 30
0.0
 10
23.822366
 20
267.523949
 30
0.0
  0
SPLINE
  5
267
100
AcDbEntity
  8
Layer_1
 62
3
100
AcDbSpline
 70
8
 71
3
 72
8
 73
4
 74
0
 40
0
 40
0
 40
0
 40
0
 40
1
 40
1
 40
1
 40
1
 10
23.822366
 20
267.523949
 30
0.0
 10
23.932609
 20
267.584582
 30
0.0
 10
24.053876
 20
267.614899
 30
0.0
 10
24.186168
 20
267.614899
 30
0.0
  0
LWPOLYLINE
  5
268
100
AcDbEntity
  8
Layer_1
 62
3
100
AcDbPolyline
 90
2
 70
0
 10
33.967497
 20
258.075848
 30
0.0
 10
25.360261
 20
255.487886
 30
0.0
  0
SPLINE
  5
269
100
AcDbEntity
  8
Layer_1
 62
3
100
AcDbSpline
 70
8
 71
3
 72
8
 73
4
 74
0
 40
0
 40
0
 40
0
 40
0
 40
1
 40
1
 40
1
 40
1
 10
27.890339
 20
265.498233
 30
0.0
 10
27.730487
 20
265.498233
 30
0.0
 10
27.592683
 20
265.525793
 30
0.0
 10
27.476928
 20
265.580913
 30
0.0
  0
SPLINE
  5
26a
100
AcDbEntity
  8
Layer_1
 62
3
100
AcDbSpline
 70
8
 71
3
 72
8
 73
4
 74
0
 40
0
 40
0
 40
0
 40
0
 40
1
 40
1
 40
1
 40
1
 10
27.476928
 20
265.580913
 30
0.0
 10
27.355661
 20
265.636033
 30
0.0
 10
27.256442
 20
265.707691
 30
0.0
 10
27.179272
 20
265.795887
 30
0.0
  0
SPLINE
  5
26b
100
AcDbEntity
  8
Layer_1
 62
3
100
AcDbSpline
 70
8
 71
3
 72
8
 73
4
 74
0
 40
0
 40
0
 40
0
 40
0
 40
1
 40
1
 40
1
 40
1
 10
27.179272
 20
265.795887
 30
0.0
 10
27.096589
 20
265.889594
 30
0.0
 10
27.035956
 20
265.994325
 30
0.0
 10
26.997371
 20
266.110080
 30
0.0
  0
SPLINE
  5
26c
100
AcDbEntity
  8
Layer_1
 62
3
100
AcDbSpline
 70
8
 71
3
 72
8
 73
4
 74
0
 40
0
 40
0
 40
0
 40
0
 40
1
 40
1
 40
1
 40
1
 10
26.997371
 20
266.110080
 30
0.0
 10
26.953271
 20
266.231347
 30
0.0
 10
26.931221
 20
266.352615
 30
0.0
 10
26.931221
 20
266.473882
 30
0.0
  0
SPLINE
  5
26d
100
AcDbEntity
  8
Layer_1
 62
3
100
AcDbSpline
 70
8
 71
3
 72
8
 73
4
 74
0
 40
0
 40
0
 40
0
 40
0
 40
1
 40
1
 40
1
 40
1
 10
26.931221
 20
266.473882
 30
0.0
 10
26.931221
 20
266.595149
 30
0.0
 10
26.953271
 20
266.713661
 30
0.0
 10
26.997371
 20
266.829416
 30
0.0
  0
SPLINE
  5
26e
100
AcDbEntity
  8
Layer_1
 62
3
100
AcDbSpline
 70
8
 71
3
 72
8
 73
4
 74
0
 40
0
 40
0
 40
0
 40
0
 40
1
 40
1
 40
1
 40
1
 10
26.997371
 20
266.829416
 30
0.0
 10
27.035958
 20
266.945171
 30
0.0
 10
27.096591
 20
267.047145
 30
0.0
 10
27.179272
 20
267.135340
 30
0.0
  0
SPLINE
  5
26f
100
AcDbEntity
  8
Layer_1
 62
3
100
AcDbSpline
 70
8
 71
3
 72
8
 73
4
 74
0
 40
0
 40
0
 40
0
 40
0
 40
1
 40
1
 40
1
 40
1
 10
27.179272
 20
267.135340
 30
0.0
 10
27.256442
 20
267.229047
 30
0.0
 10
27.355661
 20
267.303461
 30
0.0
 10
27.476928
 20
267.358582
 30
0.0
  0
SPLINE
  5
270
100
AcDbEntity
  8
Layer_1
 62
3
100
AcDbSpline
 70
8
 71
3
 72
8
 73
4
 74
0
 40
0
 40
0
 40
0
 40
0
 40
1
 40
1
 40
1
 40
1
 10
27.476928
 20
267.358582
 30
0.0
 10
27.592683
 20
267.413702
 30
0.0
 10
27.730487
 20
267.441262
 30
0.0
 10
27.890339
 20
267.441262
 30
0.0
  0
LWPOLYLINE
  5
271
100
AcDbEntity
  8
Layer_1
 62
3
100
AcDbPolyline
 90
1
 70
1
 10
24.186168
 20
267.614899
 30
0.0
  0
SPLINE
  5
272
100
AcDbEntity
  8
Layer_1
 62
3
100
AcDbSpline
 70
8
 71
3
 72
8
 73
4
 74
0
 40
0
 40
0
 40
0
 40
0
 40
1
 40
1
 40
1
 40
1
 10
34.248607
 20
267.441262
 30
0.0
 10
34.408460
 20
267.441262
 30
0.0
 10
34.549020
 20
267.410945
 30
0.0
 10
34.670287
 20
267.350312
 30
0.0
  0
SPLINE
  5
273
100
AcDbEntity
  8
Layer_1
 62
3
100
AcDbSpline
 70
8
 71
3
 72
8
 73
4
 74
0
 40
0
 40
0
 40
0
 40
0
 40
1
 40
1
 40
1
 40
1
 10
34.670287
 20
267.350312
 30
0.0
 10
34.786042
 20
267.295192
 30
0.0
 10
34.885261
 20
267.220778
 30
0.0
 10
34.967943
 20
267.127070
 30
0.0
  0
SPLINE
  5
274
100
AcDbEntity
  8
Layer_1
 62
3
100
AcDbSpline
 70
8
 71
3
 72
8
 73
4
 74
0
 40
0
 40
0
 40
0
 40
0
 40
1
 40
1
 40
1
 40
1
 10
34.967943
 20
267.127070
 30
0.0
 10
35.045113
 20
267.038875
 30
0.0
 10
35.105747
 20
266.934144
 30
0.0
 10
35.149844
 20
266.812877
 30
0.0
  0
SPLINE
  5
275
100
AcDbEntity
  8
Layer_1
 62
3
100
AcDbSpline
 70
8
 71
3
 72
8
 73
4
 74
0
 40
0
 40
0
 40
0
 40
0
 40
1
 40
1
 40
1
 40
1
 10
35.149844
 20
266.812877
 30
0.0
 10
35.188431
 20
266.697122
 30
0.0
 10
35.207724
 20
266.578610
 30
0.0
 10
35.207724
 20
266.457343
 30
0.0
  0
SPLINE
  5
276
100
AcDbEntity
  8
Layer_1
 62
3
100
AcDbSpline
 70
8
 71
3
 72
8
 73
4
 74
0
 40
0
 40
0
 40
0
 40
0
 40
1
 40
1
 40
1
 40
1
 10
35.207724
 20
266.457343
 30
0.0
 10
35.207724
 20
266.336076
 30
0.0
 10
35.188431
 20
266.217565
 30
0.0
 10
35.149844
 20
266.101810
 30
0.0
  0
SPLINE
  5
277
100
AcDbEntity
  8
Layer_1
 62
3
100
AcDbSpline
 70
8
 71
3
 72
8
 73
4
 74
0
 40
0
 40
0
 40
0
 40
0
 40
1
 40
1
 40
1
 40
1
 10
35.149844
 20
266.101810
 30
0.0
 10
35.111257
 20
265.986055
 30
0.0
 10
35.053380
 20
265.884080
 30
0.0
 10
34.976211
 20
265.795885
 30
0.0
  0
SPLINE
  5
278
100
AcDbEntity
  8
Layer_1
 62
3
100
AcDbSpline
 70
8
 71
3
 72
8
 73
4
 74
0
 40
0
 40
0
 40
0
 40
0
 40
1
 40
1
 40
1
 40
1
 10
34.976211
 20
265.795885
 30
0.0
 10
34.893529
 20
265.707690
 30
0.0
 10
34.791554
 20
265.636032
 30
0.0
 10
34.670287
 20
265.580911
 30
0.0
  0
SPLINE
  5
279
100
AcDbEntity
  8
Layer_1
 62
3
100
AcDbSpline
 70
8
 71
3
 72
8
 73
4
 74
0
 40
0
 40
0
 40
0
 40
0
 40
1
 40
1
 40
1
 40
1
 10
34.670287
 20
265.580911
 30
0.0
 10
34.549020
 20
265.525791
 30
0.0
 10
34.408460
 20
265.498231
 30
0.0
 10
34.248607
 20
265.498231
 30
0.0
  0
LWPOLYLINE
  5
27a
100
AcDbEntity
  8
Layer_1
 62
3
100
AcDbPolyline
 90
2
 70
0
 10
27.890339
 20
267.441262
 30
0.0
 10
34.248607
 20
267.441262
 30
0.0
  0
SPLINE
  5
27b
100
AcDbEntity
  8
Layer_1
 62
3
100
AcDbSpline
 70
8
 71
3
 72
8
 73
4
 74
0
 40
0
 40
0
 40
0
 40
0
 40
1
 40
1
 40
1
 40
1
 10
27.840730
 20
269.762158
 30
0.0
 10
27.691902
 20
269.762158
 30
0.0
 10
27.559610
 20
269.789718
 30
0.0
 10
27.443855
 20
269.844838
 30
0.0
  0
SPLINE
  5
27c
100
AcDbEntity
  8
Layer_1
 62
3
100
AcDbSpline
 70
8
 71
3
 72
8
 73
4
 74
0
 40
0
 40
0
 40
0
 40
0
 40
1
 40
1
 40
1
 40
1
 10
27.443855
 20
269.844838
 30
0.0
 10
27.328100
 20
269.905471
 30
0.0
 10
27.234393
 20
269.979885
 30
0.0
 10
27.162735
 20
270.068080
 30
0.0
  0
SPLINE
  5
27d
100
AcDbEntity
  8
Layer_1
 62
3
100
AcDbSpline
 70
8
 71
3
 72
8
 73
4
 74
0
 40
0
 40
0
 40
0
 40
0
 40
1
 40
1
 40
1
 40
1
 10
27.162735
 20
270.068080
 30
0.0
 10
27.085565
 20
270.161787
 30
0.0
 10
27.027687
 20
270.266518
 30
0.0
 10
26.989102
 20
270.382273
 30
0.0
  0
SPLINE
  5
27e
100
AcDbEntity
  8
Layer_1
 62
3
100
AcDbSpline
 70
8
 71
3
 72
8
 73
4
 74
0
 40
0
 40
0
 40
0
 40
0
 40
1
 40
1
 40
1
 40
1
 10
26.989102
 20
270.382273
 30
0.0
 10
26.950515
 20
270.503540
 30
0.0
 10
26.931222
 20
270.624808
 30
0.0
 10
26.931222
 20
270.746075
 30
0.0
  0
SPLINE
  5
27f
100
AcDbEntity
  8
Layer_1
 62
3
100
AcDbSpline
 70
8
 71
3
 72
8
 73
4
 74
0
 40
0
 40
0
 40
0
 40
0
 40
1
 40
1
 40
1
 40
1
 10
26.931222
 20
270.746075
 30
0.0
 10
26.931222
 20
270.861830
 30
0.0
 10
26.950515
 20
270.974829
 30
0.0
 10
26.989102
 20
271.085072
 30
0.0
  0
SPLINE
  5
280
100
AcDbEntity
  8
Layer_1
 62
3
100
AcDbSpline
 70
8
 71
3
 72
8
 73
4
 74
0
 40
0
 40
0
 40
0
 40
0
 40
1
 40
1
 40
1
 40
1
 10
26.989102
 20
271.085072
 30
0.0
 10
27.022175
 20
271.195315
 30
0.0
 10
27.074541
 20
271.294534
 30
0.0
 10
27.146199
 20
271.382728
 30
0.0
  0
SPLINE
  5
281
100
AcDbEntity
  8
Layer_1
 62
3
100
AcDbSpline
 70
8
 71
3
 72
8
 73
4
 74
0
 40
0
 40
0
 40
0
 40
0
 40
1
 40
1
 40
1
 40
1
 10
27.146199
 20
271.382728
 30
0.0
 10
27.212346
 20
271.470923
 30
0.0
 10
27.300540
 20
271.542581
 30
0.0
 10
27.410782
 20
271.597702
 30
0.0
  0
SPLINE
  5
282
100
AcDbEntity
  8
Layer_1
 62
3
100
AcDbSpline
 70
8
 71
3
 72
8
 73
4
 74
0
 40
0
 40
0
 40
0
 40
0
 40
1
 40
1
 40
1
 40
1
 10
27.410782
 20
271.597702
 30
0.0
 10
27.515513
 20
271.658335
 30
0.0
 10
27.639536
 20
271.691409
 30
0.0
 10
27.782852
 20
271.696922
 30
0.0
  0
SPLINE
  5
283
100
AcDbEntity
  8
Layer_1
 62
3
100
AcDbSpline
 70
8
 71
3
 72
8
 73
4
 74
0
 40
0
 40
0
 40
0
 40
0
 40
1
 40
1
 40
1
 40
1
 10
27.782852
 20
271.696922
 30
0.0
 10
27.788385
 20
271.696922
 30
0.0
 10
27.824214
 20
271.696922
 30
0.0
 10
27.890339
 20
271.696922
 30
0.0
  0
SPLINE
  5
284
100
AcDbEntity
  8
Layer_1
 62
3
100
AcDbSpline
 70
8
 71
3
 72
8
 73
4
 74
0
 40
0
 40
0
 40
0
 40
0
 40
1
 40
1
 40
1
 40
1
 10
27.890339
 20
271.696922
 30
0.0
 10
27.956486
 20
271.702455
 30
0.0
 10
28.033656
 20
271.705222
 30
0.0
 10
28.121850
 20
271.705222
 30
0.0
  0
SPLINE
  5
285
100
AcDbEntity
  8
Layer_1
 62
3
100
AcDbSpline
 70
8
 71
3
 72
8
 73
4
 74
0
 40
0
 40
0
 40
0
 40
0
 40
1
 40
1
 40
1
 40
1
 10
28.121850
 20
271.705222
 30
0.0
 10
28.204532
 20
271.705222
 30
0.0
 10
28.278946
 20
271.705222
 30
0.0
 10
28.345092
 20
271.705222
 30
0.0
  0
SPLINE
  5
286
100
AcDbEntity
  8
Layer_1
 62
3
100
AcDbSpline
 70
8
 71
3
 72
8
 73
4
 74
0
 40
0
 40
0
 40
0
 40
0
 40
1
 40
1
 40
1
 40
1
 10
28.345092
 20
271.705222
 30
0.0
 10
28.411239
 20
271.705222
 30
0.0
 10
28.447068
 20
271.705222
 30
0.0
 10
28.452579
 20
271.705222
 30
0.0
  0
SPLINE
  5
287
100
AcDbEntity
  8
Layer_1
 62
3
100
AcDbSpline
 70
8
 71
3
 72
8
 73
4
 74
0
 40
0
 40
0
 40
0
 40
0
 40
1
 40
1
 40
1
 40
1
 10
28.452579
 20
271.705222
 30
0.0
 10
27.984046
 20
271.832002
 30
0.0
 10
27.598195
 20
272.074537
 30
0.0
 10
27.295027
 20
272.432826
 30
0.0
  0
SPLINE
  5
288
100
AcDbEntity
  8
Layer_1
 62
3
100
AcDbSpline
 70
8
 71
3
 72
8
 73
4
 74
0
 40
0
 40
0
 40
0
 40
0
 40
1
 40
1
 40
1
 40
1
 10
27.295027
 20
272.432826
 30
0.0
 10
26.986346
 20
272.791116
 30
0.0
 10
26.832006
 20
273.270673
 30
0.0
 10
26.832006
 20
273.871498
 30
0.0
  0
SPLINE
  5
289
100
AcDbEntity
  8
Layer_1
 62
3
100
AcDbSpline
 70
8
 71
3
 72
8
 73
4
 74
0
 40
0
 40
0
 40
0
 40
0
 40
1
 40
1
 40
1
 40
1
 10
26.832006
 20
273.871498
 30
0.0
 10
26.832006
 20
274.009302
 30
0.0
 10
26.856809
 20
274.130569
 30
0.0
 10
26.906416
 20
274.235300
 30
0.0
  0
SPLINE
  5
28a
100
AcDbEntity
  8
Layer_1
 62
3
100
AcDbSpline
 70
8
 71
3
 72
8
 73
4
 74
0
 40
0
 40
0
 40
0
 40
0
 40
1
 40
1
 40
1
 40
1
 10
26.906416
 20
274.235300
 30
0.0
 10
26.950516
 20
274.345543
 30
0.0
 10
27.008394
 20
274.436494
 30
0.0
 10
27.080049
 20
274.508152
 30
0.0
  0
SPLINE
  5
28b
100
AcDbEntity
  8
Layer_1
 62
3
100
AcDbSpline
 70
8
 71
3
 72
8
 73
4
 74
0
 40
0
 40
0
 40
0
 40
0
 40
1
 40
1
 40
1
 40
1
 10
27.080049
 20
274.508152
 30
0.0
 10
27.151707
 20
274.579810
 30
0.0
 10
27.234389
 20
274.632175
 30
0.0
 10
27.328096
 20
274.665248
 30
0.0
  0
SPLINE
  5
28c
100
AcDbEntity
  8
Layer_1
 62
3
100
AcDbSpline
 70
8
 71
3
 72
8
 73
4
 74
0
 40
0
 40
0
 40
0
 40
0
 40
1
 40
1
 40
1
 40
1
 10
27.328096
 20
274.665248
 30
0.0
 10
27.421803
 20
274.703835
 30
0.0
 10
27.518265
 20
274.723128
 30
0.0
 10
27.617484
 20
274.723128
 30
0.0
  0
SPLINE
  5
28d
100
AcDbEntity
  8
Layer_1
 62
3
100
AcDbSpline
 70
8
 71
3
 72
8
 73
4
 74
0
 40
0
 40
0
 40
0
 40
0
 40
1
 40
1
 40
1
 40
1
 10
27.617484
 20
274.723128
 30
0.0
 10
27.716703
 20
274.723128
 30
0.0
 10
27.813165
 20
274.703835
 30
0.0
 10
27.906872
 20
274.665248
 30
0.0
  0
SPLINE
  5
28e
100
AcDbEntity
  8
Layer_1
 62
3
100
AcDbSpline
 70
8
 71
3
 72
8
 73
4
 74
0
 40
0
 40
0
 40
0
 40
0
 40
1
 40
1
 40
1
 40
1
 10
27.906872
 20
274.665248
 30
0.0
 10
28.000579
 20
274.632175
 30
0.0
 10
28.086017
 20
274.577053
 30
0.0
 10
28.163187
 20
274.499884
 30
0.0
  0
SPLINE
  5
28f
100
AcDbEntity
  8
Layer_1
 62
3
100
AcDbSpline
 70
8
 71
3
 72
8
 73
4
 74
0
 40
0
 40
0
 40
0
 40
0
 40
1
 40
1
 40
1
 40
1
 10
28.163187
 20
274.499884
 30
0.0
 10
28.234845
 20
274.428226
 30
0.0
 10
28.295479
 20
274.334519
 30
0.0
 10
28.345088
 20
274.218764
 30
0.0
  0
SPLINE
  5
290
100
AcDbEntity
  8
Layer_1
 62
3
100
AcDbSpline
 70
8
 71
3
 72
8
 73
4
 74
0
 40
0
 40
0
 40
0
 40
0
 40
1
 40
1
 40
1
 40
1
 10
28.345088
 20
274.218764
 30
0.0
 10
28.389188
 20
274.108521
 30
0.0
 10
28.411238
 20
273.978985
 30
0.0
 10
28.411238
 20
273.830157
 30
0.0
  0
SPLINE
  5
291
100
AcDbEntity
  8
Layer_1
 62
3
100
AcDbSpline
 70
8
 71
3
 72
8
 73
4
 74
0
 40
0
 40
0
 40
0
 40
0
 40
1
 40
1
 40
1
 40
1
 10
28.411238
 20
273.830157
 30
0.0
 10
28.411238
 20
273.510452
 30
0.0
 10
28.458091
 20
273.218308
 30
0.0
 10
28.551798
 20
272.953725
 30
0.0
  0
SPLINE
  5
292
100
AcDbEntity
  8
Layer_1
 62
3
100
AcDbSpline
 70
8
 71
3
 72
8
 73
4
 74
0
 40
0
 40
0
 40
0
 40
0
 40
1
 40
1
 40
1
 40
1
 10
28.551798
 20
272.953725
 30
0.0
 10
28.645504
 20
272.694654
 30
0.0
 10
28.788820
 20
272.471411
 30
0.0
 10
28.981745
 20
272.283998
 30
0.0
  0
SPLINE
  5
293
100
AcDbEntity
  8
Layer_1
 62
3
100
AcDbSpline
 70
8
 71
3
 72
8
 73
4
 74
0
 40
0
 40
0
 40
0
 40
0
 40
1
 40
1
 40
1
 40
1
 10
28.981745
 20
272.283998
 30
0.0
 10
29.169158
 20
272.102097
 30
0.0
 10
29.386889
 20
271.958781
 30
0.0
 10
29.634936
 20
271.854050
 30
0.0
  0
SPLINE
  5
294
100
AcDbEntity
  8
Layer_1
 62
3
100
AcDbSpline
 70
8
 71
3
 72
8
 73
4
 74
0
 40
0
 40
0
 40
0
 40
0
 40
1
 40
1
 40
1
 40
1
 10
29.634936
 20
271.854050
 30
0.0
 10
29.882983
 20
271.754831
 30
0.0
 10
30.199931
 20
271.705222
 30
0.0
 10
30.585782
 20
271.705222
 30
0.0
  0
LWPOLYLINE
  5
295
100
AcDbEntity
  8
Layer_1
 62
3
100
AcDbPolyline
 90
2
 70
0
 10
34.248607
 20
265.498231
 30
0.0
 10
27.890339
 20
265.498233
 30
0.0
  0
SPLINE
  5
296
100
AcDbEntity
  8
Layer_1
 62
3
100
AcDbSpline
 70
8
 71
3
 72
8
 73
4
 74
0
 40
0
 40
0
 40
0
 40
0
 40
1
 40
1
 40
1
 40
1
 10
34.289948
 20
271.705222
 30
0.0
 10
34.444289
 20
271.705222
 30
0.0
 10
34.579337
 20
271.674905
 30
0.0
 10
34.695092
 20
271.614272
 30
0.0
  0
SPLINE
  5
297
100
AcDbEntity
  8
Layer_1
 62
3
100
AcDbSpline
 70
8
 71
3
 72
8
 73
4
 74
0
 40
0
 40
0
 40
0
 40
0
 40
1
 40
1
 40
1
 40
1
 10
34.695092
 20
271.614272
 30
0.0
 10
34.805335
 20
271.559152
 30
0.0
 10
34.899041
 20
271.484738
 30
0.0
 10
34.976211
 20
271.391030
 30
0.0
  0
SPLINE
  5
298
100
AcDbEntity
  8
Layer_1
 62
3
100
AcDbSpline
 70
8
 71
3
 72
8
 73
4
 74
0
 40
0
 40
0
 40
0
 40
0
 40
1
 40
1
 40
1
 40
1
 10
34.976211
 20
271.391030
 30
0.0
 10
35.053382
 20
271.302835
 30
0.0
 10
35.111259
 20
271.198104
 30
0.0
 10
35.149844
 20
271.076837
 30
0.0
  0
SPLINE
  5
299
100
AcDbEntity
  8
Layer_1
 62
3
100
AcDbSpline
 70
8
 71
3
 72
8
 73
4
 74
0
 40
0
 40
0
 40
0
 40
0
 40
1
 40
1
 40
1
 40
1
 10
35.149844
 20
271.076837
 30
0.0
 10
35.188431
 20
270.961082
 30
0.0
 10
35.207724
 20
270.842570
 30
0.0
 10
35.207724
 20
270.721303
 30
0.0
  0
SPLINE
  5
29a
100
AcDbEntity
  8
Layer_1
 62
3
100
AcDbSpline
 70
8
 71
3
 72
8
 73
4
 74
0
 40
0
 40
0
 40
0
 40
0
 40
1
 40
1
 40
1
 40
1
 10
35.207724
 20
270.721303
 30
0.0
 10
35.207724
 20
270.600036
 30
0.0
 10
35.188431
 20
270.481524
 30
0.0
 10
35.149844
 20
270.365769
 30
0.0
  0
SPLINE
  5
29b
100
AcDbEntity
  8
Layer_1
 62
3
100
AcDbSpline
 70
8
 71
3
 72
8
 73
4
 74
0
 40
0
 40
0
 40
0
 40
0
 40
1
 40
1
 40
1
 40
1
 10
35.149844
 20
270.365769
 30
0.0
 10
35.111257
 20
270.255526
 30
0.0
 10
35.056136
 20
270.153552
 30
0.0
 10
34.984480
 20
270.059845
 30
0.0
  0
SPLINE
  5
29c
100
AcDbEntity
  8
Layer_1
 62
3
100
AcDbSpline
 70
8
 71
3
 72
8
 73
4
 74
0
 40
0
 40
0
 40
0
 40
0
 40
1
 40
1
 40
1
 40
1
 10
34.984480
 20
270.059845
 30
0.0
 10
34.907309
 20
269.971650
 30
0.0
 10
34.810847
 20
269.899992
 30
0.0
 10
34.695092
 20
269.844871
 30
0.0
  0
SPLINE
  5
29d
100
AcDbEntity
  8
Layer_1
 62
3
100
AcDbSpline
 70
8
 71
3
 72
8
 73
4
 74
0
 40
0
 40
0
 40
0
 40
0
 40
1
 40
1
 40
1
 40
1
 10
34.695092
 20
269.844871
 30
0.0
 10
34.579337
 20
269.789751
 30
0.0
 10
34.444289
 20
269.762191
 30
0.0
 10
34.289948
 20
269.762191
 30
0.0
  0
LWPOLYLINE
  5
29e
100
AcDbEntity
  8
Layer_1
 62
3
100
AcDbPolyline
 90
2
 70
0
 10
30.585782
 20
271.705222
 30
0.0
 10
34.289948
 20
271.705222
 30
0.0
  0
SPLINE
  5
29f
100
AcDbEntity
  8
Layer_1
 62
3
100
AcDbSpline
 70
8
 71
3
 72
8
 73
4
 74
0
 40
0
 40
0
 40
0
 40
0
 40
1
 40
1
 40
1
 40
1
 10
30.800756
 20
283.766052
 30
0.0
 10
30.949584
 20
283.766052
 30
0.0
 10
31.081876
 20
283.716443
 30
0.0
 10
31.197631
 20
283.617224
 30
0.0
  0
SPLINE
  5
2a0
100
AcDbEntity
  8
Layer_1
 62
3
100
AcDbSpline
 70
8
 71
3
 72
8
 73
4
 74
0
 40
0
 40
0
 40
0
 40
0
 40
1
 40
1
 40
1
 40
1
 10
31.197631
 20
283.617224
 30
0.0
 10
31.307874
 20
283.523517
 30
0.0
 10
31.362995
 20
283.377445
 30
0.0
 10
31.362995
 20
283.179008
 30
0.0
  0
LWPOLYLINE
  5
2a1
100
AcDbEntity
  8
Layer_1
 62
3
100
AcDbPolyline
 90
2
 70
0
 10
34.289948
 20
269.762191
 30
0.0
 10
27.840730
 20
269.762158
 30
0.0
  0
SPLINE
  5
2a2
100
AcDbEntity
  8
Layer_1
 62
3
100
AcDbSpline
 70
8
 71
3
 72
8
 73
4
 74
0
 40
0
 40
0
 40
0
 40
0
 40
1
 40
1
 40
1
 40
1
 10
31.362995
 20
277.548344
 30
0.0
 10
32.162258
 20
277.597951
 30
0.0
 10
32.782375
 20
277.843241
 30
0.0
 10
33.223347
 20
278.284216
 30
0.0
  0
SPLINE
  5
2a3
100
AcDbEntity
  8
Layer_1
 62
3
100
AcDbSpline
 70
8
 71
3
 72
8
 73
4
 74
0
 40
0
 40
0
 40
0
 40
0
 40
1
 40
1
 40
1
 40
1
 10
33.223347
 20
278.284216
 30
0.0
 10
33.664319
 20
278.730701
 30
0.0
 10
33.884805
 20
279.317745
 30
0.0
 10
33.884805
 20
280.045349
 30
0.0
  0
SPLINE
  5
2a4
100
AcDbEntity
  8
Layer_1
 62
3
100
AcDbSpline
 70
8
 71
3
 72
8
 73
4
 74
0
 40
0
 40
0
 40
0
 40
0
 40
1
 40
1
 40
1
 40
1
 10
33.884805
 20
280.045349
 30
0.0
 10
33.884805
 20
280.491834
 30
0.0
 10
33.821415
 20
280.913513
 30
0.0
 10
33.694636
 20
281.310388
 30
0.0
  0
SPLINE
  5
2a5
100
AcDbEntity
  8
Layer_1
 62
3
100
AcDbSpline
 70
8
 71
3
 72
8
 73
4
 74
0
 40
0
 40
0
 40
0
 40
0
 40
1
 40
1
 40
1
 40
1
 10
33.694636
 20
281.310388
 30
0.0
 10
33.567857
 20
281.707263
 30
0.0
 10
33.399736
 20
282.112407
 30
0.0
 10
33.190274
 20
282.525818
 30
0.0
  0
SPLINE
  5
2a6
100
AcDbEntity
  8
Layer_1
 62
3
100
AcDbSpline
 70
8
 71
3
 72
8
 73
4
 74
0
 40
0
 40
0
 40
0
 40
0
 40
1
 40
1
 40
1
 40
1
 10
33.190274
 20
282.525818
 30
0.0
 10
33.140667
 20
282.625037
 30
0.0
 10
33.115864
 20
282.718743
 30
0.0
 10
33.115864
 20
282.806938
 30
0.0
  0
SPLINE
  5
2a7
100
AcDbEntity
  8
Layer_1
 62
3
100
AcDbSpline
 70
8
 71
3
 72
8
 73
4
 74
0
 40
0
 40
0
 40
0
 40
0
 40
1
 40
1
 40
1
 40
1
 10
33.115864
 20
282.806938
 30
0.0
 10
33.115864
 20
282.955766
 30
0.0
 10
33.170985
 20
283.074277
 30
0.0
 10
33.281228
 20
283.162471
 30
0.0
  0
SPLINE
  5
2a8
100
AcDbEntity
  8
Layer_1
 62
3
100
AcDbSpline
 70
8
 71
3
 72
8
 73
4
 74
0
 40
0
 40
0
 40
0
 40
0
 40
1
 40
1
 40
1
 40
1
 10
33.281228
 20
283.162471
 30
0.0
 10
33.391471
 20
283.256178
 30
0.0
 10
33.518251
 20
283.303031
 30
0.0
 10
33.661567
 20
283.303031
 30
0.0
  0
SPLINE
  5
2a9
100
AcDbEntity
  8
Layer_1
 62
3
100
AcDbSpline
 70
8
 71
3
 72
8
 73
4
 74
0
 40
0
 40
0
 40
0
 40
0
 40
1
 40
1
 40
1
 40
1
 10
33.661567
 20
283.303031
 30
0.0
 10
33.722200
 20
283.303031
 30
0.0
 10
33.788346
 20
283.292008
 30
0.0
 10
33.860004
 20
283.269961
 30
0.0
  0
SPLINE
  5
2aa
100
AcDbEntity
  8
Layer_1
 62
3
100
AcDbSpline
 70
8
 71
3
 72
8
 73
4
 74
0
 40
0
 40
0
 40
0
 40
0
 40
1
 40
1
 40
1
 40
1
 10
33.860004
 20
283.269961
 30
0.0
 10
33.926151
 20
283.253428
 30
0.0
 10
33.989541
 20
283.223111
 30
0.0
 10
34.050174
 20
283.179011
 30
0.0
  0
SPLINE
  5
2ab
100
AcDbEntity
  8
Layer_1
 62
3
100
AcDbSpline
 70
8
 71
3
 72
8
 73
4
 74
0
 40
0
 40
0
 40
0
 40
0
 40
1
 40
1
 40
1
 40
1
 10
34.050174
 20
283.179011
 30
0.0
 10
34.276172
 20
283.002622
 30
0.0
 10
34.469097
 20
282.784892
 30
0.0
 10
34.628950
 20
282.525821
 30
0.0
  0
SPLINE
  5
2ac
100
AcDbEntity
  8
Layer_1
 62
3
100
AcDbSpline
 70
8
 71
3
 72
8
 73
4
 74
0
 40
0
 40
0
 40
0
 40
0
 40
1
 40
1
 40
1
 40
1
 10
34.628950
 20
282.525821
 30
0.0
 10
34.788802
 20
282.272262
 30
0.0
 10
34.918337
 20
281.996654
 30
0.0
 10
35.017556
 20
281.698998
 30
0.0
  0
SPLINE
  5
2ad
100
AcDbEntity
  8
Layer_1
 62
3
100
AcDbSpline
 70
8
 71
3
 72
8
 73
4
 74
0
 40
0
 40
0
 40
0
 40
0
 40
1
 40
1
 40
1
 40
1
 10
35.017556
 20
281.698998
 30
0.0
 10
35.116775
 20
281.401342
 30
0.0
 10
35.188433
 20
281.092661
 30
0.0
 10
35.232530
 20
280.772956
 30
0.0
  0
SPLINE
  5
2ae
100
AcDbEntity
  8
Layer_1
 62
3
100
AcDbSpline
 70
8
 71
3
 72
8
 73
4
 74
0
 40
0
 40
0
 40
0
 40
0
 40
1
 40
1
 40
1
 40
1
 10
35.232530
 20
280.772956
 30
0.0
 10
35.282137
 20
280.458763
 30
0.0
 10
35.306940
 20
280.152839
 30
0.0
 10
35.306940
 20
279.855183
 30
0.0
  0
SPLINE
  5
2af
100
AcDbEntity
  8
Layer_1
 62
3
100
AcDbSpline
 70
8
 71
3
 72
8
 73
4
 74
0
 40
0
 40
0
 40
0
 40
0
 40
1
 40
1
 40
1
 40
1
 10
35.306940
 20
279.855183
 30
0.0
 10
35.306940
 20
279.254358
 30
0.0
 10
35.207721
 20
278.694875
 30
0.0
 10
35.009284
 20
278.176733
 30
0.0
  0
SPLINE
  5
2b0
100
AcDbEntity
  8
Layer_1
 62
3
100
AcDbSpline
 70
8
 71
3
 72
8
 73
4
 74
0
 40
0
 40
0
 40
0
 40
0
 40
1
 40
1
 40
1
 40
1
 10
35.009284
 20
278.176733
 30
0.0
 10
34.810847
 20
277.658590
 30
0.0
 10
34.524215
 20
277.206594
 30
0.0
 10
34.149388
 20
276.820743
 30
0.0
  0
SPLINE
  5
2b1
100
AcDbEntity
  8
Layer_1
 62
3
100
AcDbSpline
 70
8
 71
3
 72
8
 73
4
 74
0
 40
0
 40
0
 40
0
 40
0
 40
1
 40
1
 40
1
 40
1
 10
34.149388
 20
276.820743
 30
0.0
 10
33.769050
 20
276.440404
 30
0.0
 10
33.303273
 20
276.139992
 30
0.0
 10
32.752058
 20
275.919506
 30
0.0
  0
SPLINE
  5
2b2
100
AcDbEntity
  8
Layer_1
 62
3
100
AcDbSpline
 70
8
 71
3
 72
8
 73
4
 74
0
 40
0
 40
0
 40
0
 40
0
 40
1
 40
1
 40
1
 40
1
 10
32.752058
 20
275.919506
 30
0.0
 10
32.195331
 20
275.704532
 30
0.0
 10
31.622067
 20
275.597045
 30
0.0
 10
31.032266
 20
275.597045
 30
0.0
  0
SPLINE
  5
2b3
100
AcDbEntity
  8
Layer_1
 62
3
100
AcDbSpline
 70
8
 71
3
 72
8
 73
4
 74
0
 40
0
 40
0
 40
0
 40
0
 40
1
 40
1
 40
1
 40
1
 10
31.032266
 20
275.597045
 30
0.0
 10
30.530660
 20
275.597045
 30
0.0
 10
30.020786
 20
275.699020
 30
0.0
 10
29.502644
 20
275.902970
 30
0.0
  0
SPLINE
  5
2b4
100
AcDbEntity
  8
Layer_1
 62
3
100
AcDbSpline
 70
8
 71
3
 72
8
 73
4
 74
0
 40
0
 40
0
 40
0
 40
0
 40
1
 40
1
 40
1
 40
1
 10
29.502644
 20
275.902970
 30
0.0
 10
28.984501
 20
276.106919
 30
0.0
 10
28.532505
 20
276.385283
 30
0.0
 10
28.146654
 20
276.738061
 30
0.0
  0
SPLINE
  5
2b5
100
AcDbEntity
  8
Layer_1
 62
3
100
AcDbSpline
 70
8
 71
3
 72
8
 73
4
 74
0
 40
0
 40
0
 40
0
 40
0
 40
1
 40
1
 40
1
 40
1
 10
28.146654
 20
276.738061
 30
0.0
 10
27.760803
 20
277.096351
 30
0.0
 10
27.446611
 20
277.523543
 30
0.0
 10
27.204076
 20
278.019636
 30
0.0
  0
SPLINE
  5
2b6
100
AcDbEntity
  8
Layer_1
 62
3
100
AcDbSpline
 70
8
 71
3
 72
8
 73
4
 74
0
 40
0
 40
0
 40
0
 40
0
 40
1
 40
1
 40
1
 40
1
 10
27.204076
 20
278.019636
 30
0.0
 10
26.956029
 20
278.521242
 30
0.0
 10
26.832006
 20
279.102774
 30
0.0
 10
26.832006
 20
279.764232
 30
0.0
  0
SPLINE
  5
2b7
100
AcDbEntity
  8
Layer_1
 62
3
100
AcDbSpline
 70
8
 71
3
 72
8
 73
4
 74
0
 40
0
 40
0
 40
0
 40
0
 40
1
 40
1
 40
1
 40
1
 10
26.832006
 20
279.764232
 30
0.0
 10
26.832006
 20
280.442227
 30
0.0
 10
26.939493
 20
281.026516
 30
0.0
 10
27.154467
 20
281.517097
 30
0.0
  0
SPLINE
  5
2b8
100
AcDbEntity
  8
Layer_1
 62
3
100
AcDbSpline
 70
8
 71
3
 72
8
 73
4
 74
0
 40
0
 40
0
 40
0
 40
0
 40
1
 40
1
 40
1
 40
1
 10
27.154467
 20
281.517097
 30
0.0
 10
27.369441
 20
282.013190
 30
0.0
 10
27.656073
 20
282.423846
 30
0.0
 10
28.014363
 20
282.749063
 30
0.0
  0
SPLINE
  5
2b9
100
AcDbEntity
  8
Layer_1
 62
3
100
AcDbSpline
 70
8
 71
3
 72
8
 73
4
 74
0
 40
0
 40
0
 40
0
 40
0
 40
1
 40
1
 40
1
 40
1
 10
28.014363
 20
282.749063
 30
0.0
 10
28.372653
 20
283.079792
 30
0.0
 10
28.802601
 20
283.327839
 30
0.0
 10
29.304206
 20
283.493204
 30
0.0
  0
SPLINE
  5
2ba
100
AcDbEntity
  8
Layer_1
 62
3
100
AcDbSpline
 70
8
 71
3
 72
8
 73
4
 74
0
 40
0
 40
0
 40
0
 40
0
 40
1
 40
1
 40
1
 40
1
 10
29.304206
 20
283.493204
 30
0.0
 10
29.800300
 20
283.664081
 30
0.0
 10
30.299150
 20
283.755031
 30
0.0
 10
30.800756
 20
283.766055
 30
0.0
  0
LWPOLYLINE
  5
2bb
100
AcDbEntity
  8
Layer_1
 62
3
100
AcDbPolyline
 90
2
 70
0
 10
31.362995
 20
283.179008
 30
0.0
 10
31.362995
 20
277.548344
 30
0.0
  0
SPLINE
  5
2bc
100
AcDbEntity
  8
Layer_1
 62
3
100
AcDbSpline
 70
8
 71
3
 72
8
 73
4
 74
0
 40
0
 40
0
 40
0
 40
0
 40
1
 40
1
 40
1
 40
1
 10
30.370808
 20
282.046261
 30
0.0
 10
30.106225
 20
282.024214
 30
0.0
 10
29.825105
 20
281.960824
 30
0.0
 10
29.527449
 20
281.856091
 30
0.0
  0
SPLINE
  5
2bd
100
AcDbEntity
  8
Layer_1
 62
3
100
AcDbSpline
 70
8
 71
3
 72
8
 73
4
 74
0
 40
0
 40
0
 40
0
 40
0
 40
1
 40
1
 40
1
 40
1
 10
29.527449
 20
281.856091
 30
0.0
 10
29.229792
 20
281.751360
 30
0.0
 10
28.976233
 20
281.602532
 30
0.0
 10
28.766772
 20
281.409607
 30
0.0
  0
SPLINE
  5
2be
100
AcDbEntity
  8
Layer_1
 62
3
100
AcDbSpline
 70
8
 71
3
 72
8
 73
4
 74
0
 40
0
 40
0
 40
0
 40
0
 40
1
 40
1
 40
1
 40
1
 10
28.766772
 20
281.409607
 30
0.0
 10
28.551798
 20
281.222194
 30
0.0
 10
28.391945
 20
280.990683
 30
0.0
 10
28.287214
 20
280.715076
 30
0.0
  0
SPLINE
  5
2bf
100
AcDbEntity
  8
Layer_1
 62
3
100
AcDbSpline
 70
8
 71
3
 72
8
 73
4
 74
0
 40
0
 40
0
 40
0
 40
0
 40
1
 40
1
 40
1
 40
1
 10
28.287214
 20
280.715076
 30
0.0
 10
28.176971
 20
280.444981
 30
0.0
 10
28.121850
 20
280.133544
 30
0.0
 10
28.121850
 20
279.780766
 30
0.0
  0
SPLINE
  5
2c0
100
AcDbEntity
  8
Layer_1
 62
3
100
AcDbSpline
 70
8
 71
3
 72
8
 73
4
 74
0
 40
0
 40
0
 40
0
 40
0
 40
1
 40
1
 40
1
 40
1
 10
28.121850
 20
279.780766
 30
0.0
 10
28.121850
 20
279.461061
 30
0.0
 10
28.179727
 20
279.168917
 30
0.0
 10
28.295482
 20
278.904334
 30
0.0
  0
SPLINE
  5
2c1
100
AcDbEntity
  8
Layer_1
 62
3
100
AcDbSpline
 70
8
 71
3
 72
8
 73
4
 74
0
 40
0
 40
0
 40
0
 40
0
 40
1
 40
1
 40
1
 40
1
 10
28.295482
 20
278.904334
 30
0.0
 10
28.411237
 20
278.645263
 30
0.0
 10
28.579358
 20
278.419264
 30
0.0
 10
28.799844
 20
278.226339
 30
0.0
  0
SPLINE
  5
2c2
100
AcDbEntity
  8
Layer_1
 62
3
100
AcDbSpline
 70
8
 71
3
 72
8
 73
4
 74
0
 40
0
 40
0
 40
0
 40
0
 40
1
 40
1
 40
1
 40
1
 10
28.799844
 20
278.226339
 30
0.0
 10
29.020331
 20
278.038926
 30
0.0
 10
29.276646
 20
277.887341
 30
0.0
 10
29.568790
 20
277.771586
 30
0.0
  0
SPLINE
  5
2c3
100
AcDbEntity
  8
Layer_1
 62
3
100
AcDbSpline
 70
8
 71
3
 72
8
 73
4
 74
0
 40
0
 40
0
 40
0
 40
0
 40
1
 40
1
 40
1
 40
1
 10
29.568790
 20
277.771586
 30
0.0
 10
29.860934
 20
277.655831
 30
0.0
 10
30.128273
 20
277.586929
 30
0.0
 10
30.370808
 20
277.564881
 30
0.0
  0
LWPOLYLINE
  5
2c4
100
AcDbEntity
  8
Layer_1
 62
3
100
AcDbPolyline
 90
1
 70
1
 10
30.800756
 20
283.766055
 30
0.0
  0
SPLINE
  5
2c5
100
AcDbEntity
  8
Layer_1
 62
3
100
AcDbSpline
 70
8
 71
3
 72
8
 73
4
 74
0
 40
0
 40
0
 40
0
 40
0
 40
1
 40
1
 40
1
 40
1
 10
49.809414
 20
224.539906
 30
0.0
 10
49.655073
 20
224.539906
 30
0.0
 10
49.511757
 20
224.567466
 30
0.0
 10
49.379466
 20
224.622586
 30
0.0
  0
SPLINE
  5
2c6
100
AcDbEntity
  8
Layer_1
 62
3
100
AcDbSpline
 70
8
 71
3
 72
8
 73
4
 74
0
 40
0
 40
0
 40
0
 40
0
 40
1
 40
1
 40
1
 40
1
 10
49.379466
 20
224.622586
 30
0.0
 10
49.241662
 20
224.683219
 30
0.0
 10
49.125907
 20
224.763145
 30
0.0
 10
49.032200
 20
224.862364
 30
0.0
  0
SPLINE
  5
2c7
100
AcDbEntity
  8
Layer_1
 62
3
100
AcDbSpline
 70
8
 71
3
 72
8
 73
4
 74
0
 40
0
 40
0
 40
0
 40
0
 40
1
 40
1
 40
1
 40
1
 10
49.032200
 20
224.862364
 30
0.0
 10
48.932981
 20
224.961583
 30
0.0
 10
48.855811
 20
225.074582
 30
0.0
 10
48.800690
 20
225.201362
 30
0.0
  0
SPLINE
  5
2c8
100
AcDbEntity
  8
Layer_1
 62
3
100
AcDbSpline
 70
8
 71
3
 72
8
 73
4
 74
0
 40
0
 40
0
 40
0
 40
0
 40
1
 40
1
 40
1
 40
1
 10
48.800690
 20
225.201362
 30
0.0
 10
48.745570
 20
225.333653
 30
0.0
 10
48.718010
 20
225.471457
 30
0.0
 10
48.718010
 20
225.614773
 30
0.0
  0
LWPOLYLINE
  5
2c9
100
AcDbEntity
  8
Layer_1
 62
3
100
AcDbPolyline
 90
2
 70
0
 10
30.370808
 20
277.564881
 30
0.0
 10
30.370808
 20
282.046261
 30
0.0
  0
SPLINE
  5
2ca
100
AcDbEntity
  8
Layer_1
 62
3
100
AcDbSpline
 70
8
 71
3
 72
8
 73
4
 74
0
 40
0
 40
0
 40
0
 40
0
 40
1
 40
1
 40
1
 40
1
 10
48.718010
 20
231.319851
 30
0.0
 10
48.718010
 20
231.457655
 30
0.0
 10
48.742817
 20
231.576166
 30
0.0
 10
48.792430
 20
231.675385
 30
0.0
  0
SPLINE
  5
2cb
100
AcDbEntity
  8
Layer_1
 62
3
100
AcDbSpline
 70
8
 71
3
 72
8
 73
4
 74
0
 40
0
 40
0
 40
0
 40
0
 40
1
 40
1
 40
1
 40
1
 10
48.792430
 20
231.675385
 30
0.0
 10
48.836523
 20
231.780116
 30
0.0
 10
48.897157
 20
231.865554
 30
0.0
 10
48.974331
 20
231.931700
 30
0.0
  0
SPLINE
  5
2cc
100
AcDbEntity
  8
Layer_1
 62
3
100
AcDbSpline
 70
8
 71
3
 72
8
 73
4
 74
0
 40
0
 40
0
 40
0
 40
0
 40
1
 40
1
 40
1
 40
1
 10
48.974331
 20
231.931700
 30
0.0
 10
49.051501
 20
232.003358
 30
0.0
 10
49.139695
 20
232.055723
 30
0.0
 10
49.238914
 20
232.088796
 30
0.0
  0
SPLINE
  5
2cd
100
AcDbEntity
  8
Layer_1
 62
3
100
AcDbSpline
 70
8
 71
3
 72
8
 73
4
 74
0
 40
0
 40
0
 40
0
 40
0
 40
1
 40
1
 40
1
 40
1
 10
49.238914
 20
232.088796
 30
0.0
 10
49.332621
 20
232.121869
 30
0.0
 10
49.431839
 20
232.138406
 30
0.0
 10
49.536570
 20
232.138406
 30
0.0
  0
SPLINE
  5
2ce
100
AcDbEntity
  8
Layer_1
 62
3
100
AcDbSpline
 70
8
 71
3
 72
8
 73
4
 74
0
 40
0
 40
0
 40
0
 40
0
 40
1
 40
1
 40
1
 40
1
 10
49.536570
 20
232.138406
 30
0.0
 10
49.635789
 20
232.138406
 30
0.0
 10
49.735007
 20
232.121869
 30
0.0
 10
49.834226
 20
232.088796
 30
0.0
  0
SPLINE
  5
2cf
100
AcDbEntity
  8
Layer_1
 62
3
100
AcDbSpline
 70
8
 71
3
 72
8
 73
4
 74
0
 40
0
 40
0
 40
0
 40
0
 40
1
 40
1
 40
1
 40
1
 10
49.834226
 20
232.088796
 30
0.0
 10
49.933445
 20
232.055723
 30
0.0
 10
50.021639
 20
232.003357
 30
0.0
 10
50.098810
 20
231.931700
 30
0.0
  0
SPLINE
  5
2d0
100
AcDbEntity
  8
Layer_1
 62
3
100
AcDbSpline
 70
8
 71
3
 72
8
 73
4
 74
0
 40
0
 40
0
 40
0
 40
0
 40
1
 40
1
 40
1
 40
1
 10
50.098810
 20
231.931700
 30
0.0
 10
50.175980
 20
231.865553
 30
0.0
 10
50.239370
 20
231.780115
 30
0.0
 10
50.288979
 20
231.675385
 30
0.0
  0
SPLINE
  5
2d1
100
AcDbEntity
  8
Layer_1
 62
3
100
AcDbSpline
 70
8
 71
3
 72
8
 73
4
 74
0
 40
0
 40
0
 40
0
 40
0
 40
1
 40
1
 40
1
 40
1
 10
50.288979
 20
231.675385
 30
0.0
 10
50.333079
 20
231.576166
 30
0.0
 10
50.355129
 20
231.457655
 30
0.0
 10
50.355129
 20
231.319851
 30
0.0
  0
LWPOLYLINE
  5
2d2
100
AcDbEntity
  8
Layer_1
 62
3
100
AcDbPolyline
 90
2
 70
0
 10
48.718010
 20
225.614773
 30
0.0
 10
48.718010
 20
231.319851
 30
0.0
  0
SPLINE
  5
2d3
100
AcDbEntity
  8
Layer_1
 62
3
100
AcDbSpline
 70
8
 71
3
 72
8
 73
4
 74
0
 40
0
 40
0
 40
0
 40
0
 40
1
 40
1
 40
1
 40
1
 10
53.645884
 20
231.088340
 30
0.0
 10
53.645884
 20
231.226144
 30
0.0
 10
53.670687
 20
231.344655
 30
0.0
 10
53.720294
 20
231.443874
 30
0.0
  0
SPLINE
  5
2d4
100
AcDbEntity
  8
Layer_1
 62
3
100
AcDbSpline
 70
8
 71
3
 72
8
 73
4
 74
0
 40
0
 40
0
 40
0
 40
0
 40
1
 40
1
 40
1
 40
1
 10
53.720294
 20
231.443874
 30
0.0
 10
53.764394
 20
231.548605
 30
0.0
 10
53.825028
 20
231.634044
 30
0.0
 10
53.902195
 20
231.700189
 30
0.0
  0
SPLINE
  5
2d5
100
AcDbEntity
  8
Layer_1
 62
3
100
AcDbSpline
 70
8
 71
3
 72
8
 73
4
 74
0
 40
0
 40
0
 40
0
 40
0
 40
1
 40
1
 40
1
 40
1
 10
53.902195
 20
231.700189
 30
0.0
 10
53.979365
 20
231.771847
 30
0.0
 10
54.067559
 20
231.824213
 30
0.0
 10
54.166778
 20
231.857286
 30
0.0
  0
SPLINE
  5
2d6
100
AcDbEntity
  8
Layer_1
 62
3
100
AcDbSpline
 70
8
 71
3
 72
8
 73
4
 74
0
 40
0
 40
0
 40
0
 40
0
 40
1
 40
1
 40
1
 40
1
 10
54.166778
 20
231.857286
 30
0.0
 10
54.265997
 20
231.890359
 30
0.0
 10
54.365215
 20
231.906896
 30
0.0
 10
54.464434
 20
231.906896
 30
0.0
  0
SPLINE
  5
2d7
100
AcDbEntity
  8
Layer_1
 62
3
100
AcDbSpline
 70
8
 71
3
 72
8
 73
4
 74
0
 40
0
 40
0
 40
0
 40
0
 40
1
 40
1
 40
1
 40
1
 10
54.464434
 20
231.906896
 30
0.0
 10
54.569165
 20
231.906896
 30
0.0
 10
54.671140
 20
231.890359
 30
0.0
 10
54.770359
 20
231.857286
 30
0.0
  0
SPLINE
  5
2d8
100
AcDbEntity
  8
Layer_1
 62
3
100
AcDbSpline
 70
8
 71
3
 72
8
 73
4
 74
0
 40
0
 40
0
 40
0
 40
0
 40
1
 40
1
 40
1
 40
1
 10
54.770359
 20
231.857286
 30
0.0
 10
54.869578
 20
231.824213
 30
0.0
 10
54.957772
 20
231.771847
 30
0.0
 10
55.034942
 20
231.700189
 30
0.0
  0
SPLINE
  5
2d9
100
AcDbEntity
  8
Layer_1
 62
3
100
AcDbSpline
 70
8
 71
3
 72
8
 73
4
 74
0
 40
0
 40
0
 40
0
 40
0
 40
1
 40
1
 40
1
 40
1
 10
55.034942
 20
231.700189
 30
0.0
 10
55.112112
 20
231.634042
 30
0.0
 10
55.175502
 20
231.548604
 30
0.0
 10
55.225111
 20
231.443874
 30
0.0
  0
SPLINE
  5
2da
100
AcDbEntity
  8
Layer_1
 62
3
100
AcDbSpline
 70
8
 71
3
 72
8
 73
4
 74
0
 40
0
 40
0
 40
0
 40
0
 40
1
 40
1
 40
1
 40
1
 10
55.225111
 20
231.443874
 30
0.0
 10
55.269211
 20
231.344655
 30
0.0
 10
55.291261
 20
231.226144
 30
0.0
 10
55.291261
 20
231.088340
 30
0.0
  0
LWPOLYLINE
  5
2db
100
AcDbEntity
  8
Layer_1
 62
3
100
AcDbPolyline
 90
4
 70
0
 10
50.355129
 20
231.319851
 30
0.0
 10
50.355129
 20
226.764057
 30
0.0
 10
53.645884
 20
226.764057
 30
0.0
 10
53.645884
 20
231.088340
 30
0.0
  0
SPLINE
  5
2dc
100
AcDbEntity
  8
Layer_1
 62
3
100
AcDbSpline
 70
8
 71
3
 72
8
 73
4
 74
0
 40
0
 40
0
 40
0
 40
0
 40
1
 40
1
 40
1
 40
1
 10
59.541131
 20
226.764057
 30
0.0
 10
59.717520
 20
226.764057
 30
0.0
 10
59.874616
 20
226.730984
 30
0.0
 10
60.012420
 20
226.664837
 30
0.0
  0
SPLINE
  5
2dd
100
AcDbEntity
  8
Layer_1
 62
3
100
AcDbSpline
 70
8
 71
3
 72
8
 73
4
 74
0
 40
0
 40
0
 40
0
 40
0
 40
1
 40
1
 40
1
 40
1
 10
60.012420
 20
226.664837
 30
0.0
 10
60.144711
 20
226.604204
 30
0.0
 10
60.254954
 20
226.521521
 30
0.0
 10
60.343149
 20
226.416790
 30
0.0
  0
SPLINE
  5
2de
100
AcDbEntity
  8
Layer_1
 62
3
100
AcDbSpline
 70
8
 71
3
 72
8
 73
4
 74
0
 40
0
 40
0
 40
0
 40
0
 40
1
 40
1
 40
1
 40
1
 10
60.343149
 20
226.416790
 30
0.0
 10
60.431344
 20
226.312059
 30
0.0
 10
60.497490
 20
226.190792
 30
0.0
 10
60.541587
 20
226.052988
 30
0.0
  0
SPLINE
  5
2df
100
AcDbEntity
  8
Layer_1
 62
3
100
AcDbSpline
 70
8
 71
3
 72
8
 73
4
 74
0
 40
0
 40
0
 40
0
 40
0
 40
1
 40
1
 40
1
 40
1
 10
60.541587
 20
226.052988
 30
0.0
 10
60.585680
 20
225.920697
 30
0.0
 10
60.607727
 20
225.785649
 30
0.0
 10
60.607727
 20
225.647845
 30
0.0
  0
SPLINE
  5
2e0
100
AcDbEntity
  8
Layer_1
 62
3
100
AcDbSpline
 70
8
 71
3
 72
8
 73
4
 74
0
 40
0
 40
0
 40
0
 40
0
 40
1
 40
1
 40
1
 40
1
 10
60.607727
 20
225.647845
 30
0.0
 10
60.607727
 20
225.510041
 30
0.0
 10
60.585680
 20
225.374993
 30
0.0
 10
60.541587
 20
225.242702
 30
0.0
  0
SPLINE
  5
2e1
100
AcDbEntity
  8
Layer_1
 62
3
100
AcDbSpline
 70
8
 71
3
 72
8
 73
4
 74
0
 40
0
 40
0
 40
0
 40
0
 40
1
 40
1
 40
1
 40
1
 10
60.541587
 20
225.242702
 30
0.0
 10
60.497487
 20
225.110410
 30
0.0
 10
60.431341
 20
224.991899
 30
0.0
 10
60.343149
 20
224.887168
 30
0.0
  0
SPLINE
  5
2e2
100
AcDbEntity
  8
Layer_1
 62
3
100
AcDbSpline
 70
8
 71
3
 72
8
 73
4
 74
0
 40
0
 40
0
 40
0
 40
0
 40
1
 40
1
 40
1
 40
1
 10
60.343149
 20
224.887168
 30
0.0
 10
60.254954
 20
224.782437
 30
0.0
 10
60.144711
 20
224.696999
 30
0.0
 10
60.012420
 20
224.630853
 30
0.0
  0
SPLINE
  5
2e3
100
AcDbEntity
  8
Layer_1
 62
3
100
AcDbSpline
 70
8
 71
3
 72
8
 73
4
 74
0
 40
0
 40
0
 40
0
 40
0
 40
1
 40
1
 40
1
 40
1
 10
60.012420
 20
224.630853
 30
0.0
 10
59.874616
 20
224.570220
 30
0.0
 10
59.717520
 20
224.539903
 30
0.0
 10
59.541131
 20
224.539903
 30
0.0
  0
LWPOLYLINE
  5
2e4
100
AcDbEntity
  8
Layer_1
 62
3
100
AcDbPolyline
 90
3
 70
0
 10
55.291261
 20
231.088340
 30
0.0
 10
55.291261
 20
226.764057
 30
0.0
 10
59.541131
 20
226.764057
 30
0.0
  0
SPLINE
  5
2e5
100
AcDbEntity
  8
Layer_1
 62
3
100
AcDbSpline
 70
8
 71
3
 72
8
 73
4
 74
0
 40
0
 40
0
 40
0
 40
0
 40
1
 40
1
 40
1
 40
1
 10
61.310520
 20
234.149242
 30
0.0
 10
61.481397
 20
234.088609
 30
0.0
 10
61.605420
 20
233.997658
 30
0.0
 10
61.682590
 20
233.876390
 30
0.0
  0
SPLINE
  5
2e6
100
AcDbEntity
  8
Layer_1
 62
3
100
AcDbSpline
 70
8
 71
3
 72
8
 73
4
 74
0
 40
0
 40
0
 40
0
 40
0
 40
1
 40
1
 40
1
 40
1
 10
61.682590
 20
233.876390
 30
0.0
 10
61.759760
 20
233.760635
 30
0.0
 10
61.798345
 20
233.633856
 30
0.0
 10
61.798345
 20
233.496052
 30
0.0
  0
SPLINE
  5
2e7
100
AcDbEntity
  8
Layer_1
 62
3
100
AcDbSpline
 70
8
 71
3
 72
8
 73
4
 74
0
 40
0
 40
0
 40
0
 40
0
 40
1
 40
1
 40
1
 40
1
 10
61.798345
 20
233.496052
 30
0.0
 10
61.798345
 20
233.407857
 30
0.0
 10
61.781808
 20
233.319663
 30
0.0
 10
61.748735
 20
233.231469
 30
0.0
  0
SPLINE
  5
2e8
100
AcDbEntity
  8
Layer_1
 62
3
100
AcDbSpline
 70
8
 71
3
 72
8
 73
4
 74
0
 40
0
 40
0
 40
0
 40
0
 40
1
 40
1
 40
1
 40
1
 10
61.748735
 20
233.231469
 30
0.0
 10
61.721175
 20
233.148786
 30
0.0
 10
61.677078
 20
233.074372
 30
0.0
 10
61.616443
 20
233.008226
 30
0.0
  0
SPLINE
  5
2e9
100
AcDbEntity
  8
Layer_1
 62
3
100
AcDbSpline
 70
8
 71
3
 72
8
 73
4
 74
0
 40
0
 40
0
 40
0
 40
0
 40
1
 40
1
 40
1
 40
1
 10
61.616443
 20
233.008226
 30
0.0
 10
61.561323
 20
232.942079
 30
0.0
 10
61.492421
 20
232.889714
 30
0.0
 10
61.409738
 20
232.851130
 30
0.0
  0
SPLINE
  5
2ea
100
AcDbEntity
  8
Layer_1
 62
3
100
AcDbSpline
 70
8
 71
3
 72
8
 73
4
 74
0
 40
0
 40
0
 40
0
 40
0
 40
1
 40
1
 40
1
 40
1
 10
61.409738
 20
232.851130
 30
0.0
 10
61.327055
 20
232.807030
 30
0.0
 10
61.233349
 20
232.784980
 30
0.0
 10
61.128618
 20
232.784980
 30
0.0
  0
SPLINE
  5
2eb
100
AcDbEntity
  8
Layer_1
 62
3
100
AcDbSpline
 70
8
 71
3
 72
8
 73
4
 74
0
 40
0
 40
0
 40
0
 40
0
 40
1
 40
1
 40
1
 40
1
 10
61.128618
 20
232.784980
 30
0.0
 10
61.090031
 20
232.784980
 30
0.0
 10
61.048690
 20
232.787747
 30
0.0
 10
61.004594
 20
232.793280
 30
0.0
  0
SPLINE
  5
2ec
100
AcDbEntity
  8
Layer_1
 62
3
100
AcDbSpline
 70
8
 71
3
 72
8
 73
4
 74
0
 40
0
 40
0
 40
0
 40
0
 40
1
 40
1
 40
1
 40
1
 10
61.004594
 20
232.793280
 30
0.0
 10
60.960501
 20
232.798813
 30
0.0
 10
60.916404
 20
232.809837
 30
0.0
 10
60.872303
 20
232.826350
 30
0.0
  0
LWPOLYLINE
  5
2ed
100
AcDbEntity
  8
Layer_1
 62
3
100
AcDbPolyline
 90
2
 70
0
 10
59.541131
 20
224.539903
 30
0.0
 10
49.809414
 20
224.539906
 30
0.0
  0
SPLINE
  5
2ee
100
AcDbEntity
  8
Layer_1
 62
3
100
AcDbSpline
 70
8
 71
3
 72
8
 73
4
 74
0
 40
0
 40
0
 40
0
 40
0
 40
1
 40
1
 40
1
 40
1
 10
49.123150
 20
236.737223
 30
0.0
 10
48.946761
 20
236.797856
 30
0.0
 10
48.819981
 20
236.891563
 30
0.0
 10
48.742811
 20
237.018342
 30
0.0
  0
SPLINE
  5
2ef
100
AcDbEntity
  8
Layer_1
 62
3
100
AcDbSpline
 70
8
 71
3
 72
8
 73
4
 74
0
 40
0
 40
0
 40
0
 40
0
 40
1
 40
1
 40
1
 40
1
 10
48.742811
 20
237.018342
 30
0.0
 10
48.665641
 20
237.145122
 30
0.0
 10
48.627056
 20
237.277414
 30
0.0
 10
48.627056
 20
237.415217
 30
0.0
  0
SPLINE
  5
2f0
100
AcDbEntity
  8
Layer_1
 62
3
100
AcDbSpline
 70
8
 71
3
 72
8
 73
4
 74
0
 40
0
 40
0
 40
0
 40
0
 40
1
 40
1
 40
1
 40
1
 10
48.627056
 20
237.415217
 30
0.0
 10
48.627056
 20
237.503412
 30
0.0
 10
48.643593
 20
237.588850
 30
0.0
 10
48.676666
 20
237.671532
 30
0.0
  0
SPLINE
  5
2f1
100
AcDbEntity
  8
Layer_1
 62
3
100
AcDbSpline
 70
8
 71
3
 72
8
 73
4
 74
0
 40
0
 40
0
 40
0
 40
0
 40
1
 40
1
 40
1
 40
1
 10
48.676666
 20
237.671532
 30
0.0
 10
48.704226
 20
237.759727
 30
0.0
 10
48.748323
 20
237.836897
 30
0.0
 10
48.808958
 20
237.903043
 30
0.0
  0
SPLINE
  5
2f2
100
AcDbEntity
  8
Layer_1
 62
3
100
AcDbSpline
 70
8
 71
3
 72
8
 73
4
 74
0
 40
0
 40
0
 40
0
 40
0
 40
1
 40
1
 40
1
 40
1
 10
48.808958
 20
237.903043
 30
0.0
 10
48.864078
 20
237.969190
 30
0.0
 10
48.932980
 20
238.021555
 30
0.0
 10
49.015664
 20
238.060139
 30
0.0
  0
SPLINE
  5
2f3
100
AcDbEntity
  8
Layer_1
 62
3
100
AcDbSpline
 70
8
 71
3
 72
8
 73
4
 74
0
 40
0
 40
0
 40
0
 40
0
 40
1
 40
1
 40
1
 40
1
 10
49.015664
 20
238.060139
 30
0.0
 10
49.098346
 20
238.104239
 30
0.0
 10
49.192052
 20
238.126289
 30
0.0
 10
49.296783
 20
238.126289
 30
0.0
  0
SPLINE
  5
2f4
100
AcDbEntity
  8
Layer_1
 62
3
100
AcDbSpline
 70
8
 71
3
 72
8
 73
4
 74
0
 40
0
 40
0
 40
0
 40
0
 40
1
 40
1
 40
1
 40
1
 10
49.296783
 20
238.126289
 30
0.0
 10
49.340883
 20
238.126289
 30
0.0
 10
49.384980
 20
238.123522
 30
0.0
 10
49.429075
 20
238.117989
 30
0.0
  0
SPLINE
  5
2f5
100
AcDbEntity
  8
Layer_1
 62
3
100
AcDbSpline
 70
8
 71
3
 72
8
 73
4
 74
0
 40
0
 40
0
 40
0
 40
0
 40
1
 40
1
 40
1
 40
1
 10
49.429075
 20
238.117989
 30
0.0
 10
49.473175
 20
238.112456
 30
0.0
 10
49.517272
 20
238.101432
 30
0.0
 10
49.561367
 20
238.084919
 30
0.0
  0
LWPOLYLINE
  5
2f6
100
AcDbEntity
  8
Layer_1
 62
3
100
AcDbPolyline
 90
2
 70
0
 10
60.872303
 20
232.826350
 30
0.0
 10
49.123150
 20
236.737223
 30
0.0
  0
SPLINE
  5
2f7
100
AcDbEntity
  8
Layer_1
 62
3
100
AcDbSpline
 70
8
 71
3
 72
8
 73
4
 74
0
 40
0
 40
0
 40
0
 40
0
 40
1
 40
1
 40
1
 40
1
 10
49.809414
 20
239.475634
 30
0.0
 10
49.655073
 20
239.475634
 30
0.0
 10
49.511757
 20
239.503194
 30
0.0
 10
49.379466
 20
239.558314
 30
0.0
  0
SPLINE
  5
2f8
100
AcDbEntity
  8
Layer_1
 62
3
100
AcDbSpline
 70
8
 71
3
 72
8
 73
4
 74
0
 40
0
 40
0
 40
0
 40
0
 40
1
 40
1
 40
1
 40
1
 10
49.379466
 20
239.558314
 30
0.0
 10
49.241662
 20
239.618947
 30
0.0
 10
49.125907
 20
239.698873
 30
0.0
 10
49.032200
 20
239.798092
 30
0.0
  0
SPLINE
  5
2f9
100
AcDbEntity
  8
Layer_1
 62
3
100
AcDbSpline
 70
8
 71
3
 72
8
 73
4
 74
0
 40
0
 40
0
 40
0
 40
0
 40
1
 40
1
 40
1
 40
1
 10
49.032200
 20
239.798092
 30
0.0
 10
48.932981
 20
239.897311
 30
0.0
 10
48.855811
 20
240.010310
 30
0.0
 10
48.800690
 20
240.137090
 30
0.0
  0
SPLINE
  5
2fa
100
AcDbEntity
  8
Layer_1
 62
3
100
AcDbSpline
 70
8
 71
3
 72
8
 73
4
 74
0
 40
0
 40
0
 40
0
 40
0
 40
1
 40
1
 40
1
 40
1
 10
48.800690
 20
240.137090
 30
0.0
 10
48.745570
 20
240.269381
 30
0.0
 10
48.718010
 20
240.407185
 30
0.0
 10
48.718010
 20
240.550501
 30
0.0
  0
LWPOLYLINE
  5
2fb
100
AcDbEntity
  8
Layer_1
 62
3
100
AcDbPolyline
 90
2
 70
0
 10
49.561367
 20
238.084919
 30
0.0
 10
61.310520
 20
234.149242
 30
0.0
  0
SPLINE
  5
2fc
100
AcDbEntity
  8
Layer_1
 62
3
100
AcDbSpline
 70
8
 71
3
 72
8
 73
4
 74
0
 40
0
 40
0
 40
0
 40
0
 40
1
 40
1
 40
1
 40
1
 10
48.718010
 20
246.255579
 30
0.0
 10
48.718010
 20
246.393383
 30
0.0
 10
48.742817
 20
246.511894
 30
0.0
 10
48.792430
 20
246.611113
 30
0.0
  0
SPLINE
  5
2fd
100
AcDbEntity
  8
Layer_1
 62
3
100
AcDbSpline
 70
8
 71
3
 72
8
 73
4
 74
0
 40
0
 40
0
 40
0
 40
0
 40
1
 40
1
 40
1
 40
1
 10
48.792430
 20
246.611113
 30
0.0
 10
48.836523
 20
246.715844
 30
0.0
 10
48.897157
 20
246.801282
 30
0.0
 10
48.974331
 20
246.867428
 30
0.0
  0
SPLINE
  5
2fe
100
AcDbEntity
  8
Layer_1
 62
3
100
AcDbSpline
 70
8
 71
3
 72
8
 73
4
 74
0
 40
0
 40
0
 40
0
 40
0
 40
1
 40
1
 40
1
 40
1
 10
48.974331
 20
246.867428
 30
0.0
 10
49.051501
 20
246.939086
 30
0.0
 10
49.139695
 20
246.991451
 30
0.0
 10
49.238914
 20
247.024524
 30
0.0
  0
SPLINE
  5
2ff
100
AcDbEntity
  8
Layer_1
 62
3
100
AcDbSpline
 70
8
 71
3
 72
8
 73
4
 74
0
 40
0
 40
0
 40
0
 40
0
 40
1
 40
1
 40
1
 40
1
 10
49.238914
 20
247.024524
 30
0.0
 10
49.332621
 20
247.057597
 30
0.0
 10
49.431839
 20
247.074134
 30
0.0
 10
49.536570
 20
247.074134
 30
0.0
  0
SPLINE
  5
300
100
AcDbEntity
  8
Layer_1
 62
3
100
AcDbSpline
 70
8
 71
3
 72
8
 73
4
 74
0
 40
0
 40
0
 40
0
 40
0
 40
1
 40
1
 40
1
 40
1
 10
49.536570
 20
247.074134
 30
0.0
 10
49.635789
 20
247.074134
 30
0.0
 10
49.735007
 20
247.057597
 30
0.0
 10
49.834226
 20
247.024524
 30
0.0
  0
SPLINE
  5
301
100
AcDbEntity
  8
Layer_1
 62
3
100
AcDbSpline
 70
8
 71
3
 72
8
 73
4
 74
0
 40
0
 40
0
 40
0
 40
0
 40
1
 40
1
 40
1
 40
1
 10
49.834226
 20
247.024524
 30
0.0
 10
49.933445
 20
246.991451
 30
0.0
 10
50.021639
 20
246.939085
 30
0.0
 10
50.098810
 20
246.867428
 30
0.0
  0
SPLINE
  5
302
100
AcDbEntity
  8
Layer_1
 62
3
100
AcDbSpline
 70
8
 71
3
 72
8
 73
4
 74
0
 40
0
 40
0
 40
0
 40
0
 40
1
 40
1
 40
1
 40
1
 10
50.098810
 20
246.867428
 30
0.0
 10
50.175980
 20
246.801281
 30
0.0
 10
50.239370
 20
246.715843
 30
0.0
 10
50.288979
 20
246.611113
 30
0.0
  0
SPLINE
  5
303
100
AcDbEntity
  8
Layer_1
 62
3
100
AcDbSpline
 70
8
 71
3
 72
8
 73
4
 74
0
 40
0
 40
0
 40
0
 40
0
 40
1
 40
1
 40
1
 40
1
 10
50.288979
 20
246.611113
 30
0.0
 10
50.333079
 20
246.511894
 30
0.0
 10
50.355129
 20
246.393383
 30
0.0
 10
50.355129
 20
246.255579
 30
0.0
  0
LWPOLYLINE
  5
304
100
AcDbEntity
  8
Layer_1
 62
3
100
AcDbPolyline
 90
2
 70
0
 10
48.718010
 20
240.550501
 30
0.0
 10
48.718010
 20
246.255579
 30
0.0
  0
SPLINE
  5
305
100
AcDbEntity
  8
Layer_1
 62
3
100
AcDbSpline
 70
8
 71
3
 72
8
 73
4
 74
0
 40
0
 40
0
 40
0
 40
0
 40
1
 40
1
 40
1
 40
1
 10
53.645884
 20
246.024069
 30
0.0
 10
53.645884
 20
246.161872
 30
0.0
 10
53.670687
 20
246.280383
 30
0.0
 10
53.720294
 20
246.379602
 30
0.0
  0
SPLINE
  5
306
100
AcDbEntity
  8
Layer_1
 62
3
100
AcDbSpline
 70
8
 71
3
 72
8
 73
4
 74
0
 40
0
 40
0
 40
0
 40
0
 40
1
 40
1
 40
1
 40
1
 10
53.720294
 20
246.379602
 30
0.0
 10
53.764394
 20
246.484333
 30
0.0
 10
53.825028
 20
246.569772
 30
0.0
 10
53.902195
 20
246.635917
 30
0.0
  0
SPLINE
  5
307
100
AcDbEntity
  8
Layer_1
 62
3
100
AcDbSpline
 70
8
 71
3
 72
8
 73
4
 74
0
 40
0
 40
0
 40
0
 40
0
 40
1
 40
1
 40
1
 40
1
 10
53.902195
 20
246.635917
 30
0.0
 10
53.979365
 20
246.707575
 30
0.0
 10
54.067559
 20
246.759941
 30
0.0
 10
54.166778
 20
246.793014
 30
0.0
  0
SPLINE
  5
308
100
AcDbEntity
  8
Layer_1
 62
3
100
AcDbSpline
 70
8
 71
3
 72
8
 73
4
 74
0
 40
0
 40
0
 40
0
 40
0
 40
1
 40
1
 40
1
 40
1
 10
54.166778
 20
246.793014
 30
0.0
 10
54.265997
 20
246.826087
 30
0.0
 10
54.365215
 20
246.842624
 30
0.0
 10
54.464434
 20
246.842624
 30
0.0
  0
SPLINE
  5
309
100
AcDbEntity
  8
Layer_1
 62
3
100
AcDbSpline
 70
8
 71
3
 72
8
 73
4
 74
0
 40
0
 40
0
 40
0
 40
0
 40
1
 40
1
 40
1
 40
1
 10
54.464434
 20
246.842624
 30
0.0
 10
54.569165
 20
246.842624
 30
0.0
 10
54.671140
 20
246.826087
 30
0.0
 10
54.770359
 20
246.793014
 30
0.0
  0
SPLINE
  5
30a
100
AcDbEntity
  8
Layer_1
 62
3
100
AcDbSpline
 70
8
 71
3
 72
8
 73
4
 74
0
 40
0
 40
0
 40
0
 40
0
 40
1
 40
1
 40
1
 40
1
 10
54.770359
 20
246.793014
 30
0.0
 10
54.869578
 20
246.759941
 30
0.0
 10
54.957772
 20
246.707575
 30
0.0
 10
55.034942
 20
246.635917
 30
0.0
  0
SPLINE
  5
30b
100
AcDbEntity
  8
Layer_1
 62
3
100
AcDbSpline
 70
8
 71
3
 72
8
 73
4
 74
0
 40
0
 40
0
 40
0
 40
0
 40
1
 40
1
 40
1
 40
1
 10
55.034942
 20
246.635917
 30
0.0
 10
55.112112
 20
246.569770
 30
0.0
 10
55.175502
 20
246.484332
 30
0.0
 10
55.225111
 20
246.379602
 30
0.0
  0
SPLINE
  5
30c
100
AcDbEntity
  8
Layer_1
 62
3
100
AcDbSpline
 70
8
 71
3
 72
8
 73
4
 74
0
 40
0
 40
0
 40
0
 40
0
 40
1
 40
1
 40
1
 40
1
 10
55.225111
 20
246.379602
 30
0.0
 10
55.269211
 20
246.280383
 30
0.0
 10
55.291261
 20
246.161872
 30
0.0
 10
55.291261
 20
246.024069
 30
0.0
  0
LWPOLYLINE
  5
30d
100
AcDbEntity
  8
Layer_1
 62
3
100
AcDbPolyline
 90
4
 70
0
 10
50.355129
 20
246.255579
 30
0.0
 10
50.355129
 20
241.699785
 30
0.0
 10
53.645884
 20
241.699785
 30
0.0
 10
53.645884
 20
246.024069
 30
0.0
  0
SPLINE
  5
30e
100
AcDbEntity
  8
Layer_1
 62
3
100
AcDbSpline
 70
8
 71
3
 72
8
 73
4
 74
0
 40
0
 40
0
 40
0
 40
0
 40
1
 40
1
 40
1
 40
1
 10
59.541131
 20
241.699785
 30
0.0
 10
59.717520
 20
241.699785
 30
0.0
 10
59.874616
 20
241.666712
 30
0.0
 10
60.012420
 20
241.600565
 30
0.0
  0
SPLINE
  5
30f
100
AcDbEntity
  8
Layer_1
 62
3
100
AcDbSpline
 70
8
 71
3
 72
8
 73
4
 74
0
 40
0
 40
0
 40
0
 40
0
 40
1
 40
1
 40
1
 40
1
 10
60.012420
 20
241.600565
 30
0.0
 10
60.144711
 20
241.539932
 30
0.0
 10
60.254954
 20
241.457249
 30
0.0
 10
60.343149
 20
241.352518
 30
0.0
  0
SPLINE
  5
310
100
AcDbEntity
  8
Layer_1
 62
3
100
AcDbSpline
 70
8
 71
3
 72
8
 73
4
 74
0
 40
0
 40
0
 40
0
 40
0
 40
1
 40
1
 40
1
 40
1
 10
60.343149
 20
241.352518
 30
0.0
 10
60.431344
 20
241.247787
 30
0.0
 10
60.497490
 20
241.126520
 30
0.0
 10
60.541587
 20
240.988716
 30
0.0
  0
SPLINE
  5
311
100
AcDbEntity
  8
Layer_1
 62
3
100
AcDbSpline
 70
8
 71
3
 72
8
 73
4
 74
0
 40
0
 40
0
 40
0
 40
0
 40
1
 40
1
 40
1
 40
1
 10
60.541587
 20
240.988716
 30
0.0
 10
60.585680
 20
240.856425
 30
0.0
 10
60.607727
 20
240.721377
 30
0.0
 10
60.607727
 20
240.583573
 30
0.0
  0
SPLINE
  5
312
100
AcDbEntity
  8
Layer_1
 62
3
100
AcDbSpline
 70
8
 71
3
 72
8
 73
4
 74
0
 40
0
 40
0
 40
0
 40
0
 40
1
 40
1
 40
1
 40
1
 10
60.607727
 20
240.583573
 30
0.0
 10
60.607727
 20
240.445769
 30
0.0
 10
60.585680
 20
240.310721
 30
0.0
 10
60.541587
 20
240.178430
 30
0.0
  0
SPLINE
  5
313
100
AcDbEntity
  8
Layer_1
 62
3
100
AcDbSpline
 70
8
 71
3
 72
8
 73
4
 74
0
 40
0
 40
0
 40
0
 40
0
 40
1
 40
1
 40
1
 40
1
 10
60.541587
 20
240.178430
 30
0.0
 10
60.497487
 20
240.046138
 30
0.0
 10
60.431341
 20
239.927627
 30
0.0
 10
60.343149
 20
239.822896
 30
0.0
  0
SPLINE
  5
314
100
AcDbEntity
  8
Layer_1
 62
3
100
AcDbSpline
 70
8
 71
3
 72
8
 73
4
 74
0
 40
0
 40
0
 40
0
 40
0
 40
1
 40
1
 40
1
 40
1
 10
60.343149
 20
239.822896
 30
0.0
 10
60.254954
 20
239.718165
 30
0.0
 10
60.144711
 20
239.632727
 30
0.0
 10
60.012420
 20
239.566581
 30
0.0
  0
SPLINE
  5
315
100
AcDbEntity
  8
Layer_1
 62
3
100
AcDbSpline
 70
8
 71
3
 72
8
 73
4
 74
0
 40
0
 40
0
 40
0
 40
0
 40
1
 40
1
 40
1
 40
1
 10
60.012420
 20
239.566581
 30
0.0
 10
59.874616
 20
239.505948
 30
0.0
 10
59.717520
 20
239.475631
 30
0.0
 10
59.541131
 20
239.475631
 30
0.0
  0
LWPOLYLINE
  5
316
100
AcDbEntity
  8
Layer_1
 62
3
100
AcDbPolyline
 90
3
 70
0
 10
55.291261
 20
246.024069
 30
0.0
 10
55.291261
 20
241.699785
 30
0.0
 10
59.541131
 20
241.699785
 30
0.0
  0
LWPOLYLINE
  5
317
100
AcDbEntity
  8
Layer_1
 62
3
100
AcDbPolyline
 90
2
 70
0
 10
59.541131
 20
239.475631
 30
0.0
 10
49.809414
 20
239.475634
 30
0.0
  0
ENDSEC
  0
SECTION
  2
OBJECTS
  0
DICTIONARY
  5
C
330
0
100
AcDbDictionary
  3
ACAD_GROUP
350
D
  3
ACAD_MLINESTYLE
350
17
  0
DICTIONARY
  5
D
330
C
100
AcDbDictionary
  0
DICTIONARY
  5
1A
330
C
100
AcDbDictionary
  0
DICTIONARY
  5
17
330
C
100
AcDbDictionary
  3
STANDARD
350
18
  0
DICTIONARY
  5
19
330
C
100
AcDbDictionary
  0
ENDSEC
  0
EOF
