<?xml version="1.0" encoding="UTF-8" standalone="no"?>
<!-- Created with Inkscape (http://www.inkscape.org/) -->

<svg
   xmlns:dc="http://purl.org/dc/elements/1.1/"
   xmlns:cc="http://creativecommons.org/ns#"
   xmlns:rdf="http://www.w3.org/1999/02/22-rdf-syntax-ns#"
   xmlns:svg="http://www.w3.org/2000/svg"
   xmlns="http://www.w3.org/2000/svg"
   xmlns:sodipodi="http://sodipodi.sourceforge.net/DTD/sodipodi-0.dtd"
   xmlns:inkscape="http://www.inkscape.org/namespaces/inkscape"
   inkscape:version="0.91 r13725"
   version="1.1"
   id="svg2"
   viewBox="0 0 1488.189 1052.3622"
   height="297mm"
   width="420mm"
   sodipodi:docname="teslaschublade_farad.svg">
  <sodipodi:namedview
     inkscape:window-maximized="1"
     inkscape:window-y="35"
     inkscape:window-x="0"
     inkscape:window-height="1368"
     inkscape:window-width="2560"
     showgrid="false"
     inkscape:current-layer="layer1"
     inkscape:document-units="px"
     inkscape:cy="721.82022"
     inkscape:cx="104.12544"
     inkscape:zoom="2.8"
     inkscape:pageshadow="2"
     inkscape:pageopacity="0.0"
     borderopacity="1.0"
     bordercolor="#666666"
     pagecolor="#ffffff"
     id="base" />
  <defs
     id="defs4" />
  <metadata
     id="metadata7">
    <rdf:RDF>
      <cc:Work
         rdf:about="">
        <dc:format>image/svg+xml</dc:format>
        <dc:type
           rdf:resource="http://purl.org/dc/dcmitype/StillImage" />
        <dc:title />
      </cc:Work>
    </rdf:RDF>
  </metadata>
  <g
     id="layer1"
     inkscape:groupmode="layer"
     inkscape:label="Layer 1"
     transform="translate(0,-1.6535434e-6)">
    <path
       id="path5663"
       inkscape:label="part"
       style="fill:none;stroke:#000000"
       d="m 322.44094,799.01575 31.81004,0 0,-14.17323 32.49213,0 0,14.17323 31.50886,0 0,-14.17323 32.49212,0 0,14.17323 31.50886,0 0,-14.17323 32.49213,0 0,14.17323 31.50886,0 0,-14.17323 32.49212,0 0,14.17323 31.50886,0 0,-14.17323 32.49213,0 0,14.17323 31.50886,0 0,-14.17323 32.49212,0 0,14.17323 31.50886,0 0,-14.17323 32.49213,0 0,14.17323 31.50885,0 0,-14.17323 32.49213,0 0,14.17323 31.50886,0 0,-14.17323 32.49212,0 0,14.17323 31.50886,0 0,-14.17323 32.49213,0 0,14.17323 31.50886,0 0,-14.17323 32.49217,0 0,14.17323 31.5088,0 0,-14.17323 32.4921,0 0,14.17323 31.5089,0 0,-14.17323 32.4921,0 0,14.17323 31.5089,0 0,-14.17323 32.4921,0 0,14.17323 31.5089,0 0,-14.17323 32.4921,0 0,14.17323 31.81,0"
       inkscape:connector-curvature="0" />
    <path
       id="path5665"
       inkscape:label="part"
       style="fill:none;stroke:#000000"
       d="m 1314.5669,799.01575 0,24.39567 -14.1732,0 0,31.2874 14.1732,0 0,38.87008 -14.1732,0 0,31.2874 14.1732,0 0,38.87008 -14.1732,0 0,31.2874 14.1732,0 0,38.87012 -14.1732,0 0,31.2874 14.1732,0 0,24.3956"
       inkscape:connector-curvature="0" />
    <path
       id="path5667"
       inkscape:label="part"
       style="fill:none;stroke:#000000"
       d="m 1314.5669,1089.5669 -31.81,0 -928.50592,0 -31.81004,0"
       inkscape:connector-curvature="0"
       sodipodi:nodetypes="cccc" />
    <path
       id="path5669"
       inkscape:label="part"
       style="fill:none;stroke:#000000"
       d="m 322.44094,1089.5669 0,-24.3956 14.17323,0 0,-31.2874 -14.17323,0 0,-38.87012 14.17323,0 0,-31.2874 -14.17323,0 0,-38.87008 14.17323,0 0,-31.2874 -14.17323,0 0,-38.87008 14.17323,0 0,-31.2874 -14.17323,0 0,-24.39567"
       inkscape:connector-curvature="0" />
    <path
       id="path5671"
       inkscape:label="part"
       style="fill:none;stroke:#000000"
       d="m 15.944882,478.6102 23.793307,0 0,-14.17323 32.492126,0 0,14.17323 37.665355,0 0,-14.17323 32.49213,0 0,14.17323 37.66535,0 0,-14.17323 32.49213,0 0,14.17323 37.66535,0 0,-14.17323 32.49213,0 0,14.17323 23.7933,0"
       inkscape:connector-curvature="0" />
    <path
       id="path5673"
       inkscape:label="part"
       style="fill:none;stroke:#000000"
       d="m 306.49606,478.6102 0,23.99578 14.17323,0 0,32.49213 -14.17323,0 0,37.86783 14.17323,0 0,32.49213 -14.17323,0 0,37.86783 14.17323,0 0,32.49212 -14.17323,0 0,37.86783 14.17323,0 0,32.49213 -14.17323,0 0,37.86783 14.17323,0 0,32.49212 -14.17323,0 0,37.86783 14.17323,0 0,32.49213 -14.17323,0 0,23.99578"
       inkscape:connector-curvature="0" />
    <path
       id="path5675"
       inkscape:label="part"
       style="fill:none;stroke:#000000"
       d="m 306.49606,910.89367 -23.7933,0 0,14.17323 -32.49213,0 0,-14.17323 -37.66535,0 0,14.17323 -32.49213,0 0,-14.17323 -37.66535,0 0,14.17323 -32.49213,0 0,-14.17323 -37.665355,0 0,14.17323 -32.492126,0 0,-14.17323 -23.793307,0"
       inkscape:connector-curvature="0" />
    <path
       id="path5677"
       inkscape:label="part"
       style="fill:none;stroke:#000000"
       d="m 15.944882,910.89367 0,-23.99578 0,-384.29191 0,-23.99578"
       inkscape:connector-curvature="0"
       sodipodi:nodetypes="cccc" />
    <path
       id="path5679"
       inkscape:label="part"
       style="fill:none;stroke:#000000"
       d="m 322.44094,322.44094 32.41241,0 0,14.17323 31.2874,0 0,-14.17323 32.71358,0 0,14.17323 31.2874,0 0,-14.17323 32.71358,0 0,14.17323 31.28741,0 0,-14.17323 32.71358,0 0,14.17323 31.2874,0 0,-14.17323 32.71358,0 0,14.17323 31.28741,0 0,-14.17323 32.71358,0 0,14.17323 31.2874,0 0,-14.17323 32.71358,0 0,14.17323 31.2874,0 0,-14.17323 32.71359,0 0,14.17323 31.2874,0 0,-14.17323 32.71358,0 0,14.17323 31.2874,0 0,-14.17323 32.71358,0 0,14.17323 31.28741,0 0,-14.17323 32.71358,0 0,14.17323 31.28741,0 0,-14.17323 32.7136,0 0,14.17323 31.2874,0 0,-14.17323 32.7136,0 0,14.17323 31.2874,0 0,-14.17323 32.7135,0 0,14.17323 31.2874,0 0,-14.17323 32.7136,0 0,14.17323 31.2874,0 0,-14.17323 32.4124,0"
       inkscape:connector-curvature="0" />
    <path
       id="path5681"
       inkscape:label="part"
       style="fill:none;stroke:#000000"
       d="m 1314.5669,322.44094 0,38.77138 -14.1732,0 0,31.2874 14.1732,0 0,39.07255 -14.1732,0 0,31.2874 14.1732,0 0,39.07256 -14.1732,0 0,31.2874 14.1732,0 0,39.07255 -14.1732,0 0,31.2874 14.1732,0 0,39.07256 -14.1732,0 0,31.2874 14.1732,0 0,39.07255 -14.1732,0 0,31.2874 14.1732,0 0,38.77138"
       inkscape:connector-curvature="0" />
    <path
       id="path5683"
       inkscape:label="part"
       style="fill:none;stroke:#000000"
       d="m 1314.5669,783.07087 -32.4124,0 0,-14.17323 -31.2874,0 0,14.17323 -32.7136,0 0,-14.17323 -31.2874,0 0,14.17323 -32.7135,0 0,-14.17323 -31.2874,0 0,14.17323 -32.7136,0 0,-14.17323 -31.2874,0 0,14.17323 -32.7136,0 0,-14.17323 -31.28741,0 0,14.17323 -32.71358,0 0,-14.17323 -31.28741,0 0,14.17323 -32.71358,0 0,-14.17323 -31.2874,0 0,14.17323 -32.71358,0 0,-14.17323 -31.2874,0 0,14.17323 -32.71359,0 0,-14.17323 -31.2874,0 0,14.17323 -32.71358,0 0,-14.17323 -31.2874,0 0,14.17323 -32.71358,0 0,-14.17323 -31.28741,0 0,14.17323 -32.71358,0 0,-14.17323 -31.2874,0 0,14.17323 -32.71358,0 0,-14.17323 -31.28741,0 0,14.17323 -32.71358,0 0,-14.17323 -31.2874,0 0,14.17323 -32.71358,0 0,-14.17323 -31.2874,0 0,14.17323 -32.41241,0"
       inkscape:connector-curvature="0" />
    <path
       id="path5685"
       inkscape:label="part"
       style="fill:none;stroke:#000000"
       d="m 322.44094,783.07087 0,-38.77138 14.17323,0 0,-31.2874 -14.17323,0 0,-39.07255 14.17323,0 0,-31.2874 -14.17323,0 0,-39.07256 14.17323,0 0,-31.2874 -14.17323,0 0,-39.07255 14.17323,0 0,-31.2874 -14.17323,0 0,-39.07256 14.17323,0 0,-31.2874 -14.17323,0 0,-39.07255 14.17323,0 0,-31.2874 -14.17323,0 0,-38.77138"
       inkscape:connector-curvature="0" />
    <path
       id="path5687"
       inkscape:label="part"
       style="fill:none;stroke:#000000"
       d="m 15.9449,15.94488 23.7933,0 0,-14.17323 32.4921,0 0,14.17323 37.6654,0 0,-14.17323 32.4921,0 0,14.17323 37.6654,0 0,-14.17323 32.4921,0 0,14.17323 37.6654,0 0,-14.17323 32.4921,0 0,14.17323 23.7933,0"
       inkscape:connector-curvature="0" />
    <path
       id="path5689"
       inkscape:label="part"
       style="fill:none;stroke:#000000"
       d="m 306.4961,15.94488 0,23.99578 14.1732,0 0,32.49213 -14.1732,0 0,37.86783 14.1732,0 0,32.49213 -14.1732,0 0,37.86783 14.1732,0 0,32.49212 -14.1732,0 0,37.86783 14.1732,0 0,32.49213 -14.1732,0 0,37.86783 14.1732,0 0,32.49212 -14.1732,0 0,37.86783 14.1732,0 0,32.49213 -14.1732,0 0,23.99578"
       inkscape:connector-curvature="0" />
    <path
       id="path5691"
       inkscape:label="part"
       style="fill:none;stroke:#000000"
       d="m 306.4961,448.22835 -23.7933,0 0,14.17323 -32.4921,0 0,-14.17323 -37.6654,0 0,14.17323 -32.4921,0 0,-14.17323 -37.6654,0 0,14.17323 -32.4921,0 0,-14.17323 -37.6654,0 0,14.17323 -32.4921,0 0,-14.17323 -23.7933,0"
       inkscape:connector-curvature="0" />
    <path
       id="path5693"
       inkscape:label="part"
       style="fill:none;stroke:#000000"
       d="m 15.9449,448.22835 0,-23.99578 0,-384.29191 0,-23.99578"
       inkscape:connector-curvature="0"
       sodipodi:nodetypes="cccc" />
    <path
       id="path5703"
       inkscape:label="part"
       style="fill:none;stroke:#000000"
       d="m 322.44094,15.944882 31.81004,0 928.50592,0 31.81,0"
       inkscape:connector-curvature="0"
       sodipodi:nodetypes="cccc" />
    <path
       id="path5705"
       inkscape:label="part"
       style="fill:none;stroke:#000000"
       d="m 1314.5669,15.944882 0,24.395669 -14.1732,0 0,31.287402 14.1732,0 0,38.870077 -14.1732,0 0,31.2874 14.1732,0 0,38.87008 -14.1732,0 0,31.2874 14.1732,0 0,38.87008 -14.1732,0 0,31.2874 14.1732,0 0,24.39567"
       inkscape:connector-curvature="0" />
    <path
       id="path5707"
       inkscape:label="part"
       style="fill:none;stroke:#000000"
       d="m 1314.5669,306.49606 -31.81,0 0,14.17323 -32.4921,0 0,-14.17323 -31.5089,0 0,14.17323 -32.4921,0 0,-14.17323 -31.5089,0 0,14.17323 -32.4921,0 0,-14.17323 -31.5089,0 0,14.17323 -32.4921,0 0,-14.17323 -31.5088,0 0,14.17323 -32.49217,0 0,-14.17323 -31.50886,0 0,14.17323 -32.49213,0 0,-14.17323 -31.50886,0 0,14.17323 -32.49212,0 0,-14.17323 -31.50886,0 0,14.17323 -32.49213,0 0,-14.17323 -31.50885,0 0,14.17323 -32.49213,0 0,-14.17323 -31.50886,0 0,14.17323 -32.49212,0 0,-14.17323 -31.50886,0 0,14.17323 -32.49213,0 0,-14.17323 -31.50886,0 0,14.17323 -32.49212,0 0,-14.17323 -31.50886,0 0,14.17323 -32.49213,0 0,-14.17323 -31.50886,0 0,14.17323 -32.49212,0 0,-14.17323 -31.50886,0 0,14.17323 -32.49213,0 0,-14.17323 -31.81004,0"
       inkscape:connector-curvature="0" />
    <path
       id="path5709"
       inkscape:label="part"
       style="fill:none;stroke:#000000"
       d="m 322.44094,306.49606 0,-24.39567 14.17323,0 0,-31.2874 -14.17323,0 0,-38.87008 14.17323,0 0,-31.2874 -14.17323,0 0,-38.87008 14.17323,0 0,-31.2874 -14.17323,0 0,-38.870077 14.17323,0 0,-31.287402 -14.17323,0 0,-24.395669"
       inkscape:connector-curvature="0" />
    <g
       transform="matrix(0,-1.1899106,0.84039927,0,0,0)"
       style="font-style:normal;font-variant:normal;font-weight:normal;font-stretch:normal;font-size:55.39628601px;line-height:100%;font-family:Ubuntu;-inkscape-font-specification:'Ubuntu, Normal';text-align:start;letter-spacing:10px;word-spacing:0px;writing-mode:lr-tb;text-anchor:start;fill:none;fill-opacity:1;stroke:#000000;stroke-width:1px;stroke-linecap:butt;stroke-linejoin:miter;stroke-opacity:1"
       id="text3406">
      <path
         d="m -259.93493,141.58238 c -13.28578,0 -26.57156,0 -39.85734,0 0,-8.89926 0,-17.79853 0,-26.69779 0,-7.76319 -0.44181,-12.59151 -1.32542,-14.48497 -0.8205,-1.956579 -2.6824,-2.934869 -5.58571,-2.934869 -3.282,0 -5.36481,1.167633 -6.24842,3.502899 -0.88362,2.33527 -1.32543,7.3845 -1.32543,15.14769 l 0,71.19412 c 0,7.44761 0.44181,12.30749 1.32543,14.57964 0.88361,2.27215 2.87175,3.40823 5.9644,3.40823 2.96642,0 4.89144,-1.13608 5.77505,-3.40823 0.94673,-2.27215 1.4201,-7.6054 1.4201,-15.99974 l 0,-19.21862 c 13.28578,0 26.57156,0 39.85734,0 0,1.98813 0,3.97627 0,5.9644 0,15.84195 -1.13608,27.07649 -3.40823,33.7036 -2.20903,6.62711 -7.16359,12.43372 -14.86366,17.41983 -7.63696,4.98611 -17.07271,7.47917 -28.30724,7.47917 -11.67634,0 -21.30143,-2.11436 -28.87527,-6.34309 -7.57385,-4.22873 -12.59152,-10.0669 -15.05301,-17.51451 -2.4615,-7.51073 -3.69225,-18.77682 -3.69225,-33.79827 l 0,-44.78035 c 0,-11.04519 0.37869,-19.3133 1.13607,-24.80433 0.75739,-5.554151 2.99798,-10.887398 6.72179,-15.999742 3.78692,-5.112343 8.99394,-9.120168 15.62105,-12.023474 6.69023,-2.966422 14.35874,-4.449633 23.00555,-4.449633 11.73945,0 21.42766,2.272153 29.06462,6.816458 7.63695,4.544305 12.65462,10.224687 15.05301,17.041146 2.39838,6.753345 3.59757,17.293605 3.59757,31.620795 0,4.85988 0,9.71976 0,14.57964 z"
         style="font-style:normal;font-variant:normal;font-weight:normal;font-stretch:condensed;font-size:193.8903656px;line-height:100%;font-family:Impact;-inkscape-font-specification:'Impact, Condensed';text-align:start;letter-spacing:10px;word-spacing:-35.47341919px;writing-mode:lr-tb;text-anchor:start;fill:none;stroke:#000000;stroke-width:1px"
         id="path3518"
         inkscape:connector-curvature="0"
         sodipodi:nodetypes="ccscsssssscsccsccsscsscccsscsc" />
      <path
         d="m -183.57551,74.743224 0,23.573585 -8.61524,0 0,106.128471 8.61524,0 0,23.57358 -43.26557,0 0,-153.275636 43.26557,0 z"
         style="font-style:normal;font-variant:normal;font-weight:normal;font-stretch:condensed;font-size:193.8903656px;line-height:100%;font-family:Impact;-inkscape-font-specification:'Impact, Condensed';text-align:start;letter-spacing:10px;word-spacing:-35.47341919px;writing-mode:lr-tb;text-anchor:start;fill:none;stroke:#000000;stroke-width:1px"
         id="path3520" />
      <path
         d="m -161.93072,74.743224 67.50187,0 0,30.674066 -27.64452,0 0,29.06462 24.614983,0 0,29.15929 -24.614983,0 0,64.37766 -39.85735,0 0,-153.275636 z"
         style="font-style:normal;font-variant:normal;font-weight:normal;font-stretch:condensed;font-size:193.8903656px;line-height:100%;font-family:Impact;-inkscape-font-specification:'Impact, Condensed';text-align:start;letter-spacing:10px;word-spacing:-35.47341919px;writing-mode:lr-tb;text-anchor:start;fill:none;stroke:#000000;stroke-width:1px"
         id="path3522" />
      <path
         d="m -79.221837,228.01886 0,-23.57358 8.615246,0 0,-106.128471 -8.615246,0 0,-23.573585 43.265575,0 0,153.275636 -43.265575,0 z"
         style="font-style:normal;font-variant:normal;font-weight:normal;font-stretch:condensed;font-size:193.8903656px;line-height:100%;font-family:Impact;-inkscape-font-specification:'Impact, Condensed';text-align:start;letter-spacing:10px;word-spacing:-35.47341919px;writing-mode:lr-tb;text-anchor:start;fill:none;stroke:#000000;stroke-width:1px"
         id="path3524" />
    </g>
  </g>
  <g
     id="g5711"
     inkscape:groupmode="layer"
     inkscape:label="newlayer"
     transform="translate(0,-1.6535434e-6)" />
</svg>
