<?xml version="1.0" encoding="UTF-8" standalone="no"?>
<!-- Created with Inkscape (http://www.inkscape.org/) -->

<svg
   xmlns:dc="http://purl.org/dc/elements/1.1/"
   xmlns:cc="http://creativecommons.org/ns#"
   xmlns:rdf="http://www.w3.org/1999/02/22-rdf-syntax-ns#"
   xmlns:svg="http://www.w3.org/2000/svg"
   xmlns="http://www.w3.org/2000/svg"
   xmlns:sodipodi="http://sodipodi.sourceforge.net/DTD/sodipodi-0.dtd"
   xmlns:inkscape="http://www.inkscape.org/namespaces/inkscape"
   width="420mm"
   height="297mm"
   viewBox="0 0 1488.189 1052.3622"
   id="svg3414"
   version="1.1"
   inkscape:version="0.91 r13725"
   sodipodi:docname="two_sidepanes.svg">
  <defs
     id="defs3416" />
  <sodipodi:namedview
     id="base"
     pagecolor="#ffffff"
     bordercolor="#666666"
     borderopacity="1.0"
     inkscape:pageopacity="0.0"
     inkscape:pageshadow="2"
     inkscape:zoom="0.7"
     inkscape:cx="270.60105"
     inkscape:cy="626.98389"
     inkscape:document-units="mm"
     inkscape:current-layer="layer1"
     showgrid="false"
     inkscape:window-width="2560"
     inkscape:window-height="1368"
     inkscape:window-x="0"
     inkscape:window-y="35"
     inkscape:window-maximized="1" />
  <metadata
     id="metadata3419">
    <rdf:RDF>
      <cc:Work
         rdf:about="">
        <dc:format>image/svg+xml</dc:format>
        <dc:type
           rdf:resource="http://purl.org/dc/dcmitype/StillImage" />
        <dc:title />
      </cc:Work>
    </rdf:RDF>
  </metadata>
  <g
     inkscape:label="Layer 1"
     inkscape:groupmode="layer"
     id="layer1"
     transform="translate(0,-1.6535434e-6)">
    <g
       id="g3508"
       transform="matrix(0,-1,1,0,3.6203843,667.41116)">
      <path
         inkscape:connector-curvature="0"
         d="m 34.95391,1022.2441 0,-31.81005 -14.17323,0 0,-32.49213 14.17323,0 0,-31.50886 -14.17323,0 0,-32.49212 14.17323,0 0,-31.50886 -14.17323,0 0,-32.49208 14.17323,0 0,-31.5089 -14.17323,0 0,-32.4921 14.17323,0 0,-31.5089 -14.17323,0 0,-32.4921 14.17323,0 0,-31.5089 -14.17323,0 0,-32.4921 14.17323,0 0,-31.5089 -14.17323,0 0,-32.4921 14.17323,0 0,-31.5088 -14.17323,0 0,-32.4922 14.17323,0 0,-31.5088 -14.17323,0 0,-32.4921 14.17323,0 0,-31.5089 -14.17323,0 0,-32.4921 14.17323,0 0,-31.5089 -14.17323,0 0,-32.4922 14.17323,0 0,-31.5088 -14.17323,0 0,-32.4921 14.17323,0 0,-31.5089 -14.17323,0 0,-32.4921 14.17323,0 0,-31.5089 -14.17323,0 0,-32.4921 14.17323,0 0,-31.5089 -14.17323,0 0,-32.4921 14.17323,0 0,-31.81"
         style="fill:none;stroke:#000000"
         inkscape:label="part"
         id="path5663" />
      <path
         inkscape:connector-curvature="0"
         d="m 34.95391,30.1181 24.39567,0 0,14.1732 31.2874,0 0,-14.1732 38.87008,0 0,14.1732 31.2874,0 0,-14.1732 38.87008,0 0,14.1732 31.2874,0 0,-14.1732 38.87012,0 0,14.1732 31.2874,0 0,-14.1732 24.3956,0"
         style="fill:none;stroke:#000000"
         inkscape:label="part"
         id="path5665" />
      <path
         sodipodi:nodetypes="cccc"
         inkscape:connector-curvature="0"
         d="m 325.50506,30.1181 0,31.81 0,928.50595 0,31.81005"
         style="fill:none;stroke:#000000"
         inkscape:label="part"
         id="path5667" />
      <path
         inkscape:connector-curvature="0"
         d="m 325.50506,1022.2441 -24.3956,0 0,-14.1732 -31.2874,0 0,14.1732 -38.87012,0 0,-14.1732 -31.2874,0 0,14.1732 -38.87008,0 0,-14.1732 -31.2874,0 0,14.1732 -38.87008,0 0,-14.1732 -31.2874,0 0,14.1732 -24.39567,0"
         style="fill:none;stroke:#000000"
         inkscape:label="part"
         id="path5669" />
      <path
         id="path3454"
         inkscape:label="part"
         style="fill:none;stroke:#000000"
         d="m 616.07763,30.11811 0,31.81004 14.17323,0 0,32.49213 -14.17323,0 0,31.50886 14.17323,0 0,32.49212 -14.17323,0 0,31.50886 14.17323,0 0,32.49208 -14.17323,0 0,31.5089 14.17323,0 0,32.4921 -14.17323,0 0,31.5089 14.17323,0 0,32.4921 -14.17323,0 0,31.5089 14.17323,0 0,32.4921 -14.17323,0 0,31.5089 14.17323,0 0,32.4921 -14.17323,0 0,31.5088 14.17323,0 0,32.4922 -14.17323,0 0,31.5088 14.17323,0 0,32.4921 -14.17323,0 0,31.5089 14.17323,0 0,32.4921 -14.17323,0 0,31.5089 14.17323,0 0,32.4922 -14.17323,0 0,31.5088 14.17323,0 0,32.4921 -14.17323,0 0,31.5089 14.17323,0 0,32.4921 -14.17323,0 0,31.5089 14.17323,0 0,32.4921 -14.17323,0 0,31.5089 14.17323,0 0,32.4921 -14.17323,0 0,31.81"
         inkscape:connector-curvature="0" />
      <path
         id="path3456"
         inkscape:label="part"
         style="fill:none;stroke:#000000"
         d="m 616.07763,1022.2441 -24.39567,0 0,-14.1732 -31.2874,0 0,14.1732 -38.87008,0 0,-14.1732 -31.2874,0 0,14.1732 -38.87008,0 0,-14.1732 -31.2874,0 0,14.1732 -38.87012,0 0,-14.1732 -31.2874,0 0,14.1732 -24.3956,0"
         inkscape:connector-curvature="0" />
      <path
         id="path3460"
         inkscape:label="part"
         style="fill:none;stroke:#000000"
         d="m 325.52648,30.11811 24.3956,0 0,14.17323 31.2874,0 0,-14.17323 38.87012,0 0,14.17323 31.2874,0 0,-14.17323 38.87008,0 0,14.17323 31.2874,0 0,-14.17323 38.87008,0 0,14.17323 31.2874,0 0,-14.17323 24.39567,0"
         inkscape:connector-curvature="0" />
    </g>
  </g>
</svg>
